/* XPM */
static char *application_home[] = {
/* columns rows colors chars-per-pixel */
"32 32 256 2",
"   c #7B207BBF7ADF",
".  c #8FCF5B093244",
"X  c #987B66BD3C0F",
"o  c #9077675249F1",
"O  c #9DFE761C5A0F",
"+  c #A60C78BE4AE8",
"@  c #A6787C7158D5",
"#  c #A5567F6D63AE",
"$  c #556C92634F98",
"%  c #5F5D8C525B0D",
"&  c #589B9704534A",
"*  c #5CDC992057AF",
"=  c #61E0A3F55A76",
"-  c #7D748FBA7B8A",
";  c #79909C3474FA",
":  c #7E0291187B94",
">  c #6595A04F603B",
",  c #6C68A9CE6533",
"<  c #729FAAC96CB2",
"1  c #6D79B0D564AB",
"2  c #74C6B4516DDA",
"3  c #7685A366718C",
"4  c #7842AC0D7145",
"5  c #7E27AFD878AC",
"6  c #7CD2B0F577BC",
"7  c #7A9CB739746A",
"8  c #AE1A81274DD8",
"9  c #B6CD86CE4F01",
"0  c #B84E87FB4D8E",
"q  c #BB8D8A5C4E51",
"w  c #AE9A83D253E8",
"e  c #AF4B86F95B16",
"r  c #BDB98DF052E5",
"t  c #B6CD8D685C6F",
"y  c #BFCE9311569F",
"u  c #93F4833D785E",
"i  c #84069D437F80",
"p  c #A0C7802368BC",
"a  c #AB398CB0687B",
"s  c #ABAE877C6729",
"d  c #B2CF8EAB682A",
"f  c #BEE996A962F7",
"g  c #BE39987065D9",
"h  c #BE9199246EAF",
"j  c #B58093986C10",
"k  c #A7BE8C727059",
"l  c #ACD791FF7309",
"z  c #B87E9987760F",
"x  c #84B5ACBD7E3D",
"c  c #80B7B1CB7966",
"v  c #84ACBA6C7CC4",
"b  c #C35494CD55F7",
"n  c #C24F96025ADE",
"m  c #CA5C9B685C8C",
"M  c #C62B98F25BD5",
"N  c #C05897D965C7",
"B  c #C58E9B966276",
"V  c #CA499FFC65B6",
"C  c #C3BF9E5A6CE2",
"Z  c #CCE7A14065C1",
"A  c #C5C9A0BC6DAF",
"S  c #CC35A3106967",
"D  c #C6EEA2F371BC",
"F  c #CBC6A8F0778F",
"G  c #C72AA5B2787A",
"H  c #D3EEADA47BBB",
"J  c #D60FAC317783",
"K  c #4CFD6E54A763",
"L  c #4E3A6F8EA87E",
"P  c #4EEE701FA823",
"I  c #4F567089A919",
"U  c #527774F5AD04",
"Y  c #54247829AFC5",
"T  c #5D347B5EAF92",
"R  c #568C79A7B1D0",
"E  c #59567D62B545",
"W  c #80187EF3801D",
"Q  c #5AE680BCB7CB",
"!  c #5D7782DBBAA1",
"~  c #60BD864DBDB9",
"^  c #64A2889BBE64",
"/  c #69E88A9FBCED",
"(  c #749C8DFFB9F5",
")  c #767F9204BBC3",
"_  c #79EB939EBD11",
"`  c #635F89E7C12D",
"'  c #6A738D5EC079",
"]  c #6BD492A3C7DD",
"[  c #6C5A9452CA85",
"{  c #6EFC9895CEB0",
"}  c #74C696CEC7A0",
"|  c #7E27969FC156",
" . c #76809874C51F",
".. c #7EBA9988C323",
"X. c #73439959CD0D",
"o. c #76BF9989C91D",
"O. c #6FB09A22D13E",
"+. c #73D49DBCD406",
"@. c #78769F61D203",
"#. c #7E7CA1BECEEE",
"$. c #7726A0E2D6C7",
"%. c #7A45A288D63C",
"&. c #761CA190D9C7",
"*. c #7AECA5A3DB73",
"=. c #7E96AA3EDF04",
"-. c #84E8844984E0",
";. c #8C308CE38BD0",
":. c #9CF08E17847A",
">. c #871F9380843F",
",. c #8DF393538D1A",
"<. c #90E590748F60",
"1. c #9CFA92DD8B78",
"2. c #908B8EED908C",
"3. c #9473939E93CE",
"4. c #9BA79BA09BD2",
"5. c #9819966997BB",
"6. c #A5F69A8A8FC4",
"7. c #B8B49D7C8B22",
"8. c #8424AE59806A",
"9. c #8BE3B38F89EC",
"0. c #8F01BBFC88ED",
"q. c #90E6A17F91C8",
"w. c #993EA77798DC",
"e. c #9911B83A9536",
"r. c #BBD2A2058BFE",
"t. c #B1BFA1088D09",
"y. c #A008A05DA03C",
"u. c #8DC0A454BFB0",
"i. c #A412A3ECA41D",
"p. c #A8EABDC2A6AB",
"a. c #ABF6B9BFAAAB",
"s. c #B14FBB74AF9F",
"d. c #B39EB446B4CB",
"f. c #B4FEBA2DB4EE",
"g. c #C6A2AA5B835D",
"h. c #C657AC878B77",
"j. c #C9ECAF528B94",
"k. c #D5F7B2F28497",
"l. c #C0A5ADF69780",
"z. c #C992AF5C93F4",
"x. c #CDB3B7929966",
"c. c #C3A1B428A34E",
"v. c #C2E4B759AFD3",
"b. c #C43BBB16AED4",
"n. c #D196BF47A5D0",
"m. c #C0D8BFAFC030",
"M. c #CC13BC5FB14C",
"N. c #8A1AC3BD870B",
"B. c #9E07CA989A1F",
"V. c #968DC2D29403",
"C. c #A21CCE129D96",
"Z. c #AA93CFD0AA91",
"A. c #B0A9CC90AF57",
"S. c #A8CBD08BA17D",
"D. c #BE64C45DBB92",
"F. c #BFCDCB36BC6D",
"G. c #B7E4D51DB9B2",
"H. c #B5B8DD18B583",
"J. c #DD58C3FD9EC2",
"K. c #DFF6C6BBA59F",
"L. c #D798C4D9ACF2",
"P. c #C1EEC17FBF8F",
"I. c #D432C588B50C",
"U. c #C20ED346BE44",
"Y. c #E151C4F2A251",
"T. c #E354CEB6B328",
"R. c #E93ED0F0B2F0",
"E. c #C3D3E2CDBFA8",
"W. c #81C09C2AC5D7",
"Q. c #82CD9F44CA33",
"!. c #8CCDA3FFC202",
"~. c #85A6A243CBAF",
"^. c #89D2A6F2CEBA",
"/. c #9B43AD2BC390",
"(. c #9902B027CD03",
"). c #943CAABCC75A",
"_. c #8280AB70DE2C",
"`. c #8AA5AEF5DC4D",
"'. c #890AA935D3FC",
"]. c #9096AD7AD746",
"[. c #9286AF6FD972",
"{. c #94E9B4B5DD16",
"}. c #8BB0B410E52F",
"|. c #9226B6DEE40F",
" X c #9ACEBBEFE4B1",
".X c #B909C1C4CF4C",
"XX c #BBD1C460D230",
"oX c #C004C8DFD6DF",
"OX c #B501C2F6DB13",
"+X c #BEB9CECEE629",
"@X c #C45AC3EDC238",
"#X c #D4B3CD9ACB11",
"$X c #C6C2D9F9C334",
"%X c #C9C2D9F0C751",
"&X c #C745D71DC7D0",
"*X c #DBFBD33BC67E",
"=X c #DDAAD5CECA5A",
"-X c #C109C99ED7F0",
";X c #C333CD5AD9C8",
":X c #CF78D0A9D156",
">X c #C6B9D25EDCBD",
",X c #C900D588DFFD",
"<X c #D3A5D415D3A4",
"1X c #DC0ED676D3A0",
"2X c #D0D1DFC5D157",
"3X c #D57AD708D8FE",
"4X c #D857DAEADCD4",
"5X c #DC77DC80DCF4",
"6X c #E07CD8EAD30B",
"7X c #E1D7DE5ADD08",
"8X c #CC5EE615C999",
"9X c #C8D3E301C474",
"0X c #D9C5E45BD761",
"qX c #DD10E192DC10",
"wX c #DE86EBA2DAB4",
"eX c #D224E42CD2D6",
"rX c #EF5EE590D64F",
"tX c #E599E175DC73",
"yX c #EFABE6F1DB6A",
"uX c #F414EAE9DE31",
"iX c #E3FEF1A3E02E",
"pX c #CD0BDAB7E3A0",
"aX c #C076D1AEE8FE",
"sX c #CD6ED7D2E27B",
"dX c #DE73DF72E0DE",
"fX c #D650DEB5EC5A",
"gX c #C62AD8F9F079",
"hX c #DC20E078E853",
"jX c #D81FE119EE65",
"kX c #D8D3E23BEF04",
"lX c #DD3BE702F502",
"zX c #DEF8E988F69E",
"xX c #E390E349E2CC",
"cX c #E253EE02E2C9",
"vX c #E9BBE8A4E674",
"bX c #E852E797E8F3",
"nX c #E58DEC84EA1D",
"mX c #EACAEAD2EB2B",
"MX c #F2CDEC87E181",
"NX c #E4DAF368E1C8",
"BX c #EA34F250E82A",
"VX c #E804F5D8E970",
"CX c #EF24F8E6EE3C",
"ZX c #E12EEB9CF80E",
"AX c #EB29EE89F43C",
"SX c #E2C3ECD7F8BE",
"DX c #ED5DF28EFAA8",
"FX c #EDDCF53DF0DA",
"GX c #F2B4F3E8F4A6",
"HX c #F6BDFB51F4BA",
"JX c #FB1BFB40F619",
"KX c #F1F6F61EFBC6",
"LX c #F6C6FABCFF91",
"PX c #FEBEFF58FF96",
"IX c #F8BAF5ABF2BA",
"UX c None",
/* pixels */
"UXUXUXUXUXUXUXUXUXUXUXUXUXUXUXUXUXUXUXUXUXUXUXUXUXUXUXUXUXUXUXUX",
"UXUXUXUXUXUXUXUXUXUXUXUXUXUXUXUXUXUXUXUXUXUXUXUXUXUXUXUXUXUXUXUX",
"UXUX'.`.=.*.*.*.*.*.%.$.$.+.+.+.+.+.X.X.{ { [ [ [ [  .) UXUXUXUX",
"^ o.`.}._._._._._._.=.=.*.*.*.*.*.*.%.%.%.$.@.@.@.@.#.o./ UXUXUX",
"%._.}.|.}.}.}.}.}.}.}.}.}.}.}.}.}.}.}.}.}.}.}.}.}.}.}.'.} / UXUX",
"_._.}.}.}.}.}.}.}.}.}.{.(././././.(.{.}.}.}.}.}.}.}.}._.o.' UXUX",
"=.=.=.=.=.=.=.=.=.=._.!.6.l l l k 1.!._.=.=.=.=.=.=.=.%.] ' UXUX",
"*._.|. X X X X X X{.).4.j r q 0 9 a 5.u.{. X X X X X X`.} ^ UXUX",
"&.|.gXZXZXzXzXzXlX<Xl.h B m b n B g a t.:XzXZXZXZXSXSXaXQ.~ UXUX",
"&. XzXPXPXPXPXJXuXR.J m m V C A S B r C L.yXIXPXPXPXPXkX~.! UXUX",
"&. XzXPXPXPXPXuXY.J Z m M C g.g.N y n N h z.6XAXAXKXPXkX~.! UXUX",
"&. XzXPXPXIXyXT.H m m B D j.L.n.G g f t 8 d c.#XhXDXPXjX~.Q UXUX",
"+. XzXPXPXMXK.H S m n A x.*XxXtXI.h.t 8 w e s r.<XDXPXjX~.E UXUX",
"+. XzXPXPXrXk.m m Z D z.*XbXKXGXtXI.z e w + X s #XKXPXfXQ.E UXUX",
"+.{.lXPXPXrXH b b D n.=XvXGXGXGXGXtXI.r.@ X . # #XLXPXfXQ.R UXUX",
"+.{.lXPXPXuXJ.F C h.=XxX5X3X<X<X3X5X5XM.p o O 7.1XLXPXfXW.R UXUX",
"+.{.lXPXPXJXMX*Xc.b.xXxXd.5.3.3.5.d.xX1X:.u v.7XAXLXPXfXW.R UXUX",
"+.{.lXPXPXPXPXmXP.@XmXdXy.        4.xX7X5.3.4XPXLXLXPXfXW.Y UXUX",
"O.{.lXPXPXPXPXmXm.m.bX5Xi.-.;.;.  4.xXxX4.4.5XPXLXPXPXfXW.Y UXUX",
"{ {.lXPXHXCXVX2Xa.s.qX4Xi.;.4.5.-.4.qX0Xw.q.&XcXnXFXPXfX..U UXUX",
"[ {.lXJXNX8XH.B.8.e.%X<Xi.5.i.4.;.4.%X9X0.5 V.Z.G.eXHXfX| U UXUX",
"[ [.lXCXE.C.N.2 > 3 p.f.4.2.5.3.-.,.p.C.7 1 < 6 9.A.BXfX| I UXUX",
"] [.lXiXB.2 , = $ % - ;.-.W -.-.    : ; , = * & * 9.wXfX| L UXUX",
"] [.lXNXS.v v 6 3 ; >.<.<.3.3.3.<.;.>.i x c 4 < 3 e.cXfX| K UXUX",
"] ].lXHXwX8X8X$XU.F.@X@X@X@X@X@X@XP.D.D.F.U.U.$X$X0XHXfX_ K UXUX",
"` ~.+XkXfXpXpX,X;X-XoXoXXXXXXXXXXX.X.X.XXXXX;X>X>XsXfXOX( K UXUX",
"R / ~.'.^.~.~.~.W.W....._ _ _ _ ) ) ) ) ( ( ) _ _ _ _ ( T I UXUX",
"UXR ~ ` ` ~ ~ ! ! ! Q E E R R R R Y Y U U U U I P K K K I UXUXUX",
"UXUXUXUXUXUXUXUXUXUXUXUXUXUXUXUXUXUXUXUXUXUXUXUXUXUXUXUXUXUXUXUX",
"UXUXUXUXUXUXUXUXUXUXUXUXUXUXUXUXUXUXUXUXUXUXUXUXUXUXUXUXUXUXUXUX",
"UXUXUXUXUXUXUXUXUXUXUXUXUXUXUXUXUXUXUXUXUXUXUXUXUXUXUXUXUXUXUXUX",
"UXUXUXUXUXUXUXUXUXUXUXUXUXUXUXUXUXUXUXUXUXUXUXUXUXUXUXUXUXUXUXUX"
};
