/* XPM */
static char *arrow_refresh[] = {
/* columns rows colors chars-per-pixel */
"32 32 74 1",
"  c #2232608B1E52",
". c #248C637B20C1",
"X c #2B1C6CB025D7",
"o c #2E926E202A54",
"O c #2FC86F2A2B62",
"+ c #2E717114291A",
"@ c #320B73D12D25",
"# c #355579A72FA7",
"$ c #350175363058",
"% c #36977974318E",
"& c #39677CA9338A",
"* c #3D867E31389E",
"= c #3D0582DD3619",
"- c #3F91856338B2",
"; c #420284F43BF6",
": c #44BE8BF23D4E",
"> c #46F9901E3F86",
", c #45DA86D0409A",
"< c #474189334172",
"1 c #4A8C8CCC448D",
"2 c #4E748F7B48FD",
"3 c #47B590BF3FC8",
"4 c #4BE29459442F",
"5 c #4EB399B646B7",
"6 c #4F8E91C748DF",
"7 c #4FF19B3A47B6",
"8 c #513C94014ABF",
"9 c #53809BD24B90",
"0 c #56BA975350A8",
"q c #5A289C31539C",
"w c #5F0A9F4B584C",
"e c #558DA21C4CCD",
"r c #5980A7124F9E",
"t c #5C46A32A5412",
"y c #5D83AC6553EF",
"u c #62CCA4435BE6",
"i c #6468AA9B5BF5",
"p c #68CEAF7A5F90",
"a c #6395B156599C",
"s c #6AA3BC9B5F64",
"d c #6C1CAC5364F5",
"f c #7061AF046993",
"g c #6D20B42163EB",
"h c #6D6BBBD262C4",
"j c #71D6BD9B6749",
"k c #749EB3EA6D76",
"l c #7416BBB66A1F",
"z c #78D5BEAA6ECF",
"x c #776DB69470CF",
"c c #7901B6B071BB",
"v c #77D1B8527147",
"b c #7BECBA7B7417",
"n c #7FFEBD0D7889",
"m c #747CC1B369B2",
"M c #7D13C2EA72D8",
"N c #80A0BF827761",
"B c #82C1BE777B29",
"V c #80DCC39D7751",
"C c #8579C30E7D22",
"Z c #8873C83B7E7B",
"A c #8994C9E67F9F",
"S c #8B57C66E831E",
"D c #8DA7C9898524",
"F c #8ED0C9C9881D",
"G c #90F3C83688F4",
"H c #9423CC3C8C10",
"J c #9895CE9F8FA1",
"K c #989ED0868F23",
"L c #97F5CF0E90B4",
"P c #9A09CF69917E",
"I c #9DA5D1AE9539",
"U c #A09DD29E97C7",
"Y c #A36AD46D9AC8",
"T c None",
/* pixels */
"TTTTTTTTTTTTTTTTTTTTTTTTTTTTTTTT",
"TTTTTTTTTTTTTTTTTTTTTTTTTTTTTTTT",
"TTTTTTTTTTTTTTTTTT754TTTTTTTTTTT",
"TTTTTTTTTTTTTTTTTT9996TTTTTTTTTT",
"TTTTTTTTTayyre9547tut0<TTTTTTTTT",
"TTTTTTjlllgggpiitudkdu8;TTTTTTTT",
"TTTTThMVZSDDDSSCBBCCBkq1&TTTTTTT",
"TTTTjMCDHJIIIIIPJHGDSbu1%TTTTTTT",
"TTTjVDJILLIIIPJHHFSSZxq<$TTTTTTT",
"TThzSJUUPHGSBbbckkxvkd8;@TTTTTTT",
"TTzVHIIPHSbdq861<20wq8*oTTTTTTTT",
"TgbSLIPGBki9:=&#@%;,;*oTTTTTTTTT",
"ygNDJPHBi961TTTTTT@@OoTTTTTTTTTT",
"tikbBBbd8-=TTTTTTT.. TTTTTTTTTTT",
"ettttq98:TTTTTTTTTTTTTTTTTTTTTTT",
"e9543:;==TTTTTTTTTTTTTTTe754::;;",
"754>:;=&TTTTTTTTTTTTTTTe744::;==",
"TTTTTTTTTTTTTTTTTTTTTTT9tttq81-&",
"TTTTTTTTTTThhsTTTTTTT54tkNncfw;#",
"TTTTTTTTTTmmjhTTTTTTtttdBGHScu;+",
"TTTTTTTTTmMMMlate979udxBSGFBd0;T",
"TTTTTTTTmMADSClgpiiigcCSDSCkq<TT",
"TTTTTTTjMZKIILHDSSCCCCCZSCku,@TT",
"TTTTTTTjMSIYYYUIIPJHGSVbbku2%TTT",
"TTTTTTThbCPYUIIILHHFSBvdu0;$TTTT",
"TTTTTTTglnSHGSBNbbxkfduq8;@TTTTT",
"TTTTTTTTigkcxdt98821<;;*&$TTTTTT",
"TTTTTTTTTtiiuq4-=&%#@+XTTTTTTTTT",
"TTTTTTTTTT9964TTTTTTTTTTTTTTTTTT",
"TTTTTTTTTTT:;-TTTTTTTTTTTTTTTTTT",
"TTTTTTTTTTTTTTTTTTTTTTTTTTTTTTTT",
"TTTTTTTTTTTTTTTTTTTTTTTTTTTTTTTT"
};
