/* XPM */
static char *arrow_inout[] = {
/* columns rows colors chars-per-pixel */
"32 32 64 1",
"  c #41B58B7B3E9C",
". c #44F28E7C413C",
"X c #46A890D84287",
"o c #4A19946545B5",
"O c #4C9D98DF471E",
"+ c #4D8395A74947",
"@ c #4E8A9A994922",
"# c #519E97C94D67",
"$ c #52569D7C4CED",
"% c #55139ACE50D6",
"& c #582A9D39542F",
"* c #552AA2B84E5E",
"= c #5749A56D504B",
"- c #59E6A52D537E",
"; c #5CEBABAA551E",
": c #5E78A11A5A3F",
"> c #5F4BA97A5860",
", c #5F3BB03C5736",
"< c #60C2AFE157AA",
"1 c #6133A3245D76",
"2 c #6356ADD45BFE",
"3 c #6463B3BF5B51",
"4 c #6728B8E75D14",
"5 c #6923BB335E9F",
"6 c #6593A6E4612B",
"7 c #66DDAF205FED",
"8 c #6986AB4B6491",
"9 c #6DA5AC1F6999",
"0 c #71E3AF7A6CE6",
"q c #67D1B26F6025",
"w c #6C20B40C649B",
"e c #6CB8BE78620D",
"r c #6F88B2506957",
"t c #7014C00F65F8",
"y c #72B0B5616BEF",
"u c #73E0BCA16AAA",
"i c #7711B73D70D9",
"p c #79BAB64473EA",
"a c #7738B89B70E5",
"s c #7B0FBAB67406",
"d c #7E40B6D4796F",
"f c #7F44BAEE79A6",
"g c #6E9CC0B963D4",
"h c #721FC5416640",
"j c #75A5C4A66AC5",
"k c #787EC6076DC4",
"l c #795EC9146DC3",
"z c #7D56C67273CE",
"x c #7EF9C927744B",
"c c #8225BDE97B55",
"v c #81CFCA81773F",
"b c #85C9C5717D1A",
"n c #8653CC147C1D",
"m c #88DCCB507F23",
"M c #889BBF4382A9",
"N c #87A5C1ED8101",
"B c #8AA4C29B83D2",
"V c #8CBACD21831D",
"C c #9311C6E98C94",
"Z c #947ECD678B88",
"A c #940AD0FD8A4B",
"S c #9D39D29793FD",
"D c #A279D2459A47",
"F c None",
/* pixels */
"jhhhhhhhhhFFFFFFFFFFFF443333<;;;",
"hjllllhhhhFFFFFFFFFFFF43333333;;",
"hlvnmvjhFFggFFFFFFFF44FF33wuyw2;",
"hlnVAVxjFFggFFFFFFFF33FF3wscsy2;",
"hlnASSVvkgeeFFFFFFFF3333wsNBcy2-",
"hjxVSSZVvkteFFFFFFFF33wyacBNsw>=",
"hhjxVZZZZVj5FFFFFFFF3wfbcccsq>-=",
"hhhjzmZSDZk5FFFFFFFF,wNCBcaw>=**",
"hhFFhzZDDZu4FFFFFFFF;wNCCcr2FF**",
"hhFFejmZZbu4FFFFFFFF;qscci2-FF**",
"FFeeeejjuue4FFFFFFFF;<2q72-=**FF",
"FFeeee554444FFFFFFFF;;;====***FF",
"FFFFFFFFFFFFFFFFFFFFFFFFFFFFFFFF",
"FFFFFFFFFFFFFFFFFFFFFFFFFFFFFFFF",
"FFFFFFFFFFFFFFFFFFFFFFFFFFFFFFFF",
"FFFFFFFFFFFFFFFFFFFFFFFFFFFFFFFF",
"FFFFFFFFFFFFFFFFFFFFFFFFFFFFFFFF",
"FFFFFFFFFFFFFFFFFFFFFFFFFFFFFFFF",
"FFFFFFFFFFFFFFFFFFFFFFFFFFFFFFFF",
"FFFFFFFFFFFFFFFFFFFFFFFFFFFFFFFF",
"FF3333;;;;;;FFFFFFFF$$@@OOOOooFF",
"FF3333qqq2;;FFFFFFFF$$---%@oooFF",
"33FF3wacci2=FFFFFFFF@-8y06$oFFXX",
"33FF3ycBBf2=FFFFFFFF@-0dp9&+FFXX",
"33;3ryscMd2*FFFFFFFFO-9p08:%+XXX",
"<<3waspppy>*FFFFFFFFO$69866:#oX.",
";2waccir2>=*FFFFFFFFO@%:1898:#X.",
";2yscfr2-***FFFFFFFFoo+#&1991%o ",
";2wyyr2;FF**FFFFFFFFooFF+#16:%X ",
";>2772-*FF$$FFFFFFFFooFF.o%&%+. ",
";;;>--=**$FFFFFFFFFFFFX...ooX.. ",
"--==****$$FFFFFFFFFFFFXX...     "
};
