/* XPM */
static char *arrow_undo[] = {
/* columns rows colors chars-per-pixel */
"32 32 78 1",
"  c #2A836C04269C",
". c #2C616EB52853",
"X c #2E4770FB29CE",
"o c #31C774892CF2",
"O c #34CB79452FA0",
"+ c #35C376FE314B",
"@ c #370F7B8A315E",
"# c #3A137D82348B",
"$ c #3C9B82743628",
"% c #3E4E803639A8",
"& c #424884DC3D33",
"* c #44418B9B3D39",
"= c #477B911E3FA5",
"- c #46B78A574101",
"; c #4A9A8DF044A9",
": c #4CF98FE747EF",
"> c #4C3991B1452B",
", c #4F4693A148E4",
"< c #51DD95C04BB0",
"1 c #54339AE14CD3",
"2 c #57069B9D5046",
"3 c #5A099E145347",
"4 c #5504A20A4C0F",
"5 c #5800A63E4EB8",
"6 c #57BBA0C34FFA",
"7 c #5C09A40A53B3",
"8 c #5CD6AB9852E1",
"9 c #5EFCA29B58D4",
"0 c #603DA7B15792",
"q c #6241A4AE5B9E",
"w c #6668AB4D5E61",
"e c #6887AF105F8B",
"r c #61B3B2155709",
"t c #64A2B58F59F3",
"y c #6717B8BF5BFB",
"u c #6A20BB8F5EE3",
"i c #671CA7186044",
"p c #6779A8FF61A1",
"a c #6B1BAC9D6425",
"s c #6E0FAFB16854",
"d c #6D81B3296443",
"f c #6CCCBE686153",
"g c #6EB5B259683E",
"h c #7116B7B5674F",
"j c #7194B92E67C4",
"k c #73D4B4A76CE1",
"l c #752BBC716B89",
"z c #779AB6CE707C",
"x c #7850B7E3715C",
"c c #7770BAEA70F1",
"v c #7B07BBFB742F",
"b c #7EFEBE28783C",
"n c #6EFEC20062E1",
"m c #71F0C46165E0",
"M c #769BC3D26B4C",
"N c #79B5C1F86F03",
"B c #7D99C5F972D6",
"V c #7EC4C1017885",
"C c #8250BEFC7AB4",
"Z c #8492C2C77D4E",
"A c #873CC66380CC",
"S c #8B2BC6648363",
"D c #8CEDC95B8652",
"F c #8F72CA9488BB",
"G c #9083CA3C8731",
"H c #9402CBF98BA1",
"J c #98EBCF198F45",
"K c #948FD0CC8999",
"L c #9B0ED01091FB",
"P c #9CC3D1F7931C",
"I c #A115D5509707",
"U c #A48FD5919BBF",
"Y c #A875D7AE9F6F",
"T c #A9B7D825A0B5",
"R c #AD3CD9D0A401",
"E c #B14DDB69A7D9",
"W c #B34FDCA6A9F1",
"Q c None",
/* pixels */
"QQQQQQQQQQQQQQQQQQQQQQQQQQQQQQQQ",
"QQQQQQQQQQQQQQQQQQQQQQQQQQQQQQQQ",
"QQQQQQQQQQQQQQQQQQQQQQQQQQQQQQQQ",
"QQQQQQQQQQQQQQQQQQQQQQQQQQQQQQQQ",
"QQQQmmnnfuuuyttrr8888QQQQQQQQQQQ",
"QQQQmMBBBBBNNllljjdddew0QQQQQQQQ",
"QQQQnBKIIPPPPPJJHHGSZbka6QQQQQQQ",
"QQQQfBIWWERRRRTTYUILHSCkw3QQQQQQ",
"QQQQfBIWERRRRTTYYUUPJHGSxa1QQQQQ",
"QQQQfNGPLJJJHHHGFGHHHJLHAk9>QQQQ",
"QQQQuflllljhddddedkCDHJHGCa3>QQQ",
"QQQQuuytrr88885446wgvZDHHZkq>QQQ",
"QQQQQQQQQQQQQQQQQQ333pCDSZzi:QQQ",
"QQQQQQQQQQQQQQQQQQQ>*2kZZZva;@QQ",
"QQQQQQQQQQQQQQQQQQQQ*1azZZCs;OQQ",
"QQQQQQQQQQQQQQQQQQQQQ<qkbZZs-oQQ",
"QQQQQQQQQQQQQQQQQQQQQ,qsbZZa-oQQ",
"QQQQQQQQQQQQQQQQQQQQ$>qkvVvp&XQQ",
"QQQQQQQ411QQQQQQQQQ$#;acvckq&.QQ",
"QQQQQQ7776QQQQQQQQ-;;3kbvla3%QQQ",
"QQQQQ7waw9<=***&$*,3pkvVVk9,#QQQ",
"QQQQ7wkxksq3211<<19akbVVva<&+QQQ",
"QQQ7wkCSAZbvvxzkkkxccvVvs3&oQQQQ",
"QQQ7akSHHGFFDSSAAZZblhka3;+QQQQQ",
"QQQ7wkZGFDDDSSAZZZbcgw9<&+QQQQQQ",
"QQQ6qavZCbxkkkkssapq32:&oQQQQQQQ",
"QQQQ17paaq1,:;;--&&&%##+QQQQQQQQ",
"QQQQQ,332<*#@@OoooX. QQQQQQQQQQQ",
"QQQQQQ>;-*QQQQQQQQQQQQQQQQQQQQQQ",
"QQQQQQQ$$$QQQQQQQQQQQQQQQQQQQQQQ",
"QQQQQQQQQQQQQQQQQQQQQQQQQQQQQQQQ",
"QQQQQQQQQQQQQQQQQQQQQQQQQQQQQQQQ"
};
