/* XPM */
static char *bullet_toggle_minus[] = {
/* columns rows colors chars-per-pixel */
"32 32 69 1",
"  c #6FEE6FEE6FEE",
". c #709670967096",
"X c #715D715D715D",
"o c #731D731D731D",
"O c #75D375D375D3",
"+ c #764576457645",
"@ c #777E777E777E",
"# c #78C078C078C0",
"$ c #7B6E7B6E7B6E",
"% c #7EB97EB97EB9",
"& c #7F7F7F7F7F7F",
"* c #814A814A814A",
"= c #825D825D825D",
"- c #837883788378",
"; c #842A842A842A",
": c #87A287A287A2",
"> c #883B883B883B",
", c #8A608A608A60",
"< c #8C6E8C6E8C6E",
"1 c #8DED8DED8DED",
"2 c #8E518E518E51",
"3 c #90C490C490C4",
"4 c #91A491A491A4",
"5 c #928A928A928A",
"6 c #935693569356",
"7 c #94BF94BF94BF",
"8 c #96D596D596D5",
"9 c #979197919791",
"0 c #9AA69AA69AA6",
"q c #9B999B999B99",
"w c #9EB49EB49EB4",
"e c #9F7D9F7D9F7D",
"r c #A0A3A0A3A0A3",
"t c #A272A272A272",
"y c #A4D2A4D2A4D2",
"u c #A5BFA5BFA5BF",
"i c #A7C4A7C4A7C4",
"p c #A9ABA9ABA9AB",
"a c #AA62AA62AA62",
"s c #AC87AC87AC87",
"d c #ADD0ADD0ADD0",
"f c #AF8DAF8DAF8D",
"g c #B0C9B0C9B0C9",
"h c #B1A9B1A9B1A9",
"j c #B293B293B293",
"k c #B354B354B354",
"l c #B49CB49CB49C",
"z c #B5AEB5AEB5AE",
"x c #B691B691B691",
"c c #B75DB75DB75D",
"v c #B8C4B8C4B8C4",
"b c #B9C3B9C3B9C3",
"n c #BA4EBA4EBA4E",
"m c #BB92BB92BB92",
"M c #BCABBCABBCAB",
"N c #BDC9BDC9BDC9",
"B c #BE9FBE9FBE9F",
"V c #BFD9BFD9BFD9",
"C c #C0FFC0FFC0FF",
"Z c #C206C206C206",
"A c #C2CEC2CEC2CE",
"S c #C3A0C3A0C3A0",
"D c #C4D4C4D4C4D4",
"F c #CDA7CDA7CDA7",
"G c #CE85CE85CE85",
"H c #E3F9E3F9E3F9",
"J c #EE62EE62EE62",
"K c #EEC2EEC2EEC2",
"L c None",
/* pixels */
"LLLLLLLLLLLLLLLLLLLLLLLLLLLLLLLL",
"LLLLLLLLLLLLLLLLLLLLLLLLLLLLLLLL",
"LLLLLLLLLLLLLLLLLLLLLLLLLLLLLLLL",
"LLLLLLLLLLLLLLLLLLLLLLLLLLLLLLLL",
"LLLLLLLLLLLLLLLLLLLLLLLLLLLLLLLL",
"LLLLLLLLLLLLLLLLLLLLLLLLLLLLLLLL",
"LLLLLLLLLLLLLLLLLLLLLLLLLLLLLLLL",
"LLLLLLLLLLLLLLLLLLLLLLLLLLLLLLLL",
"LLLLLLLLLSCBmvzkgdaiuLLLLLLLLLLL",
"LLLLLLLLAZCVNmbczkgsyrLLLLLLLLLL",
"LLLLLLLLVVCZCCVVBBNlyqLLLLLLLLLL",
"LLLLLLLLmNCCBMMMMBAvt8LLLLLLLLLL",
"LLLLLLLLxnVBzggggxVcw4LLLLLLLLLL",
"LLLLLLLLjxBAAZZZZASz0<LLLLLLLLLL",
"LLLLLLLLdjMFHKJJKHGk8:LLLLLLLLLL",
"LLLLLLLLpfmFHKJJKHGj6-LLLLLLLLLL",
"LLLLLLLLysmSAZZZZSSj3&LLLLLLLLLL",
"LLLLLLLLrpmVxhhhhcCj1$LLLLLLLLLL",
"LLLLLLLLqunSVNNNNCDh,+LLLLLLLLLL",
"LLLLLLLL9edllkjhgggr-oLLLLLLLLLL",
"LLLLLLLL67887532<,>=@.LLLLLLLLLL",
"LLLLLLLLL1,:;*%$#OoX LLLLLLLLLLL",
"LLLLLLLLLLLLLLLLLLLLLLLLLLLLLLLL",
"LLLLLLLLLLLLLLLLLLLLLLLLLLLLLLLL",
"LLLLLLLLLLLLLLLLLLLLLLLLLLLLLLLL",
"LLLLLLLLLLLLLLLLLLLLLLLLLLLLLLLL",
"LLLLLLLLLLLLLLLLLLLLLLLLLLLLLLLL",
"LLLLLLLLLLLLLLLLLLLLLLLLLLLLLLLL",
"LLLLLLLLLLLLLLLLLLLLLLLLLLLLLLLL",
"LLLLLLLLLLLLLLLLLLLLLLLLLLLLLLLL",
"LLLLLLLLLLLLLLLLLLLLLLLLLLLLLLLL",
"LLLLLLLLLLLLLLLLLLLLLLLLLLLLLLLL"
};
