/* XPM */
static char *bullet_arrow_up[] = {
/* columns rows colors chars-per-pixel */
"32 32 56 1",
"  c #5BF65BF65BF6",
". c #5D915D915D91",
"X c #5FDA5FDA5FDA",
"o c #618961896189",
"O c #62CD62CD62CD",
"+ c #65FC65FC65FC",
"@ c #67AC67AC67AC",
"# c #698469846984",
"$ c #6DA36DA36DA3",
"% c #6E256E256E25",
"& c #6F796F796F79",
"* c #71F071F071F0",
"= c #742674267426",
"- c #768076807680",
"; c #76FE76FE76FE",
": c #792A792A792A",
"> c #7B567B567B56",
", c #7CBC7CBC7CBC",
"< c #7E467E467E46",
"1 c #80C680C680C6",
"2 c #82B982B982B9",
"3 c #839983998399",
"4 c #851585158515",
"5 c #866C866C866C",
"6 c #888288828882",
"7 c #8B898B898B89",
"8 c #8DF48DF48DF4",
"9 c #8E708E708E70",
"0 c #8F138F138F13",
"q c #90D990D990D9",
"w c #91A691A691A6",
"e c #929892989298",
"r c #94BC94BC94BC",
"t c #967E967E967E",
"y c #99B799B799B7",
"u c #9AC39AC39AC3",
"i c #9C559C559C55",
"p c #9D3F9D3F9D3F",
"a c #9E799E799E79",
"s c #A0ADA0ADA0AD",
"d c #A16BA16BA16B",
"f c #A2BBA2BBA2BB",
"g c #A3B5A3B5A3B5",
"h c #A441A441A441",
"j c #A560A560A560",
"k c #A6DBA6DBA6DB",
"l c #A7CBA7CBA7CB",
"z c #A8BBA8BBA8BB",
"x c #A96BA96BA96B",
"c c #AACAAACAAACA",
"v c #ABB2ABB2ABB2",
"b c #ACB1ACB1ACB1",
"n c #ADF3ADF3ADF3",
"m c #AF0CAF0CAF0C",
"M c #AFF6AFF6AFF6",
"N c None",
/* pixels */
"NNNNNNNNNNNNNNNNNNNNNNNNNNNNNNNN",
"NNNNNNNNNNNNNNNNNNNNNNNNNNNNNNNN",
"NNNNNNNNNNNNNNNNNNNNNNNNNNNNNNNN",
"NNNNNNNNNNNNNNNNNNNNNNNNNNNNNNNN",
"NNNNNNNNNNNNNNNNNNNNNNNNNNNNNNNN",
"NNNNNNNNNNNNNNNNNNNNNNNNNNNNNNNN",
"NNNNNNNNNNNNNNNNNNNNNNNNNNNNNNNN",
"NNNNNNNNNNNNNNNNNNNNNNNNNNNNNNNN",
"NNNNNNNNNNNNNNNNNNNNNNNNNNNNNNNN",
"NNNNNNNNNNNNNNNNNNNNNNNNNNNNNNNN",
"NNNNNNNNNNNNNNNNNNNNNNNNNNNNNNNN",
"NNNNNNNNNNNNNNNNNNNNNNNNNNNNNNNN",
"NNNNNNNNNNNNNNvvNNNNNNNNNNNNNNNN",
"NNNNNNNNNNNNNNvxNNNNNNNNNNNNNNNN",
"NNNNNNNNNNNNkzckueNNNNNNNNNNNNNN",
"NNNNNNNNNNNNkzbluwNNNNNNNNNNNNNN",
"NNNNNNNNNNfhkcmcaw2:NNNNNNNNNNNN",
"NNNNNNNNNNgjxbMbfr4>NNNNNNNNNNNN",
"NNNNNNNNasglbmncju7<&NNNNNNNNNNN",
"NNNNNNNNyuiadspyt03;#oNNNNNNNNNN",
"NNNNNNNNeq87641,:=%@o.NNNNNNNNNN",
"NNNNNNNN9751>-*$#+OX. NNNNNNNNNN",
"NNNNNNNNNNNNNNNNNNNNNNNNNNNNNNNN",
"NNNNNNNNNNNNNNNNNNNNNNNNNNNNNNNN",
"NNNNNNNNNNNNNNNNNNNNNNNNNNNNNNNN",
"NNNNNNNNNNNNNNNNNNNNNNNNNNNNNNNN",
"NNNNNNNNNNNNNNNNNNNNNNNNNNNNNNNN",
"NNNNNNNNNNNNNNNNNNNNNNNNNNNNNNNN",
"NNNNNNNNNNNNNNNNNNNNNNNNNNNNNNNN",
"NNNNNNNNNNNNNNNNNNNNNNNNNNNNNNNN",
"NNNNNNNNNNNNNNNNNNNNNNNNNNNNNNNN",
"NNNNNNNNNNNNNNNNNNNNNNNNNNNNNNNN"
};
