/* XPM */
static char *bullet_black[] = {
/* columns rows colors chars-per-pixel */
"32 32 63 1",
"  c #000100010001",
". c #139113911391",
"X c #164916491649",
"o c #171B171B171B",
"O c #18E818E818E8",
"+ c #1A6F1A6F1A6F",
"@ c #1B061B061B06",
"# c #1D261D261D26",
"$ c #212521252125",
"% c #225022502250",
"& c #235223522352",
"* c #248F248F248F",
"= c #251C251C251C",
"- c #268526852685",
"; c #26BE26BE26BE",
": c #296029602960",
"> c #2B0B2B0B2B0B",
", c #2F8D2F8D2F8D",
"< c #31AE31AE31AE",
"1 c #357935793579",
"2 c #35FF35FF35FF",
"3 c #386438643864",
"4 c #397239723972",
"5 c #3A5E3A5E3A5E",
"6 c #3B043B043B04",
"7 c #3C373C373C37",
"8 c #3CC63CC63CC6",
"9 c #3F273F273F27",
"0 c #490A490A490A",
"q c #4CAE4CAE4CAE",
"w c #50EA50EA50EA",
"e c #562F562F562F",
"r c #57C357C357C3",
"t c #582058205820",
"y c #5A625A625A62",
"u c #5B355B355B35",
"i c #5C175C175C17",
"p c #5E185E185E18",
"a c #60CD60CD60CD",
"s c #623262326232",
"d c #631163116311",
"f c #64BC64BC64BC",
"g c #651B651B651B",
"h c #669B669B669B",
"j c #676D676D676D",
"k c #684468446844",
"l c #6A8B6A8B6A8B",
"z c #6DBF6DBF6DBF",
"x c #6E7C6E7C6E7C",
"c c #6F796F796F79",
"v c #70A070A070A0",
"b c #71AF71AF71AF",
"n c #728B728B728B",
"m c #73B273B273B2",
"M c #770D770D770D",
"N c #788178817881",
"B c #798C798C798C",
"V c #7AD17AD17AD1",
"C c #7C897C897C89",
"Z c #80D680D680D6",
"A c #836883688368",
"S c #847D847D847D",
"D c None",
/* pixels */
"DDDDDDDDDDDDDDDDDDDDDDDDDDDDDDDD",
"DDDDDDDDDDDDDDDDDDDDDDDDDDDDDDDD",
"DDDDDDDDDDDDDDDDDDDDDDDDDDDDDDDD",
"DDDDDDDDDDDDDDDDDDDDDDDDDDDDDDDD",
"DDDDDDDDDDDDDDDDDDDDDDDDDDDDDDDD",
"DDDDDDDDDDDDDDDDDDDDDDDDDDDDDDDD",
"DDDDDDDDDDDDDDDDDDDDDDDDDDDDDDDD",
"DDDDDDDDDDDDDDDDDDDDDDDDDDDDDDDD",
"DDDDDDDDDDDDDDDDDDDDDDDDDDDDDDDD",
"DDDDDDDDDDDDDDDDDDDDDDDDDDDDDDDD",
"DDDDDDDDDDDDDD@+OoDDDDDDDDDDDDDD",
"DDDDDDDDDDDD4887531,DDDDDDDDDDDD",
"DDDDDDDDDDD4egcmblpq:DDDDDDDDDDD",
"DDDDDDDDDDD7fNZAZVby:DDDDDDDDDDD",
"DDDDDDDDDD+7cZMxlxNd; DDDDDDDDDD",
"DDDDDDDDDDO6mScaugVh= DDDDDDDDDD",
"DDDDDDDDDDX4nAzprsNg& DDDDDDDDDD",
"DDDDDDDDDD.2lCbkdjnp% DDDDDDDDDD",
"DDDDDDDDDDD<ivBCBnkw$DDDDDDDDDDD",
"DDDDDDDDDDD>0tshgpw9#DDDDDDDDDDD",
"DDDDDDDDDDDD=-*&&%$#DDDDDDDDDDDD",
"DDDDDDDDDDDDDD    DDDDDDDDDDDDDD",
"DDDDDDDDDDDDDDDDDDDDDDDDDDDDDDDD",
"DDDDDDDDDDDDDDDDDDDDDDDDDDDDDDDD",
"DDDDDDDDDDDDDDDDDDDDDDDDDDDDDDDD",
"DDDDDDDDDDDDDDDDDDDDDDDDDDDDDDDD",
"DDDDDDDDDDDDDDDDDDDDDDDDDDDDDDDD",
"DDDDDDDDDDDDDDDDDDDDDDDDDDDDDDDD",
"DDDDDDDDDDDDDDDDDDDDDDDDDDDDDDDD",
"DDDDDDDDDDDDDDDDDDDDDDDDDDDDDDDD",
"DDDDDDDDDDDDDDDDDDDDDDDDDDDDDDDD",
"DDDDDDDDDDDDDDDDDDDDDDDDDDDDDDDD"
};
