/* XPM */
static char *color_swatch[] = {
/* columns rows colors chars-per-pixel */
"32 32 47 1",
"  c #FFE96BC169D0",
". c #FFE96CF76A01",
"X c #FEF96E426B42",
"o c #FEFE6F6F6B6B",
"O c #4AEFCD2169C7",
"+ c #4A3ACCD26BE6",
"@ c #4D47CE54689E",
"# c #4C7FCE0F6ABE",
"$ c #4D96CDC66B32",
"% c #4DC3CC2E6C0D",
"& c #4CD4CD796D4E",
"* c #4FFECD5B6AEB",
"= c #5050CCCC6D6D",
"- c #FFFFA91B73DD",
"; c #FFFFA9E373A3",
": c #FFFFAAAA7373",
"> c #FFFFABBC73A3",
", c #F3CED69264C6",
"< c #F390D774647B",
"1 c #F0F0D5D56767",
"2 c #F0A4D6B0672A",
"3 c #5348778BAFB5",
"4 c #55C679D2AFCB",
"5 c #55F4783AB0A6",
"6 c #58587A7AB0B0",
"7 c #FFFF759CAF97",
"8 c #FFFF768AB0AD",
"9 c #FFFF7777B1B1",
"0 c #5D82AFF3EE8C",
"q c #5D35B1D3ED13",
"w c #5D84B145EFA7",
"e c #5DD7AF5DF11C",
"r c #60B2B021EE6D",
"t c #6060B0B0EBEB",
"y c #CFE5EE63B41C",
"u c #D0D0EBEBB2B2",
"i c #D334EE2BB2BC",
"p c #D35DEC89B412",
"a c #D5DBEED0B427",
"s c #D27FEF0AB584",
"d c #D9D99B9BDDDD",
"f c #DC939AA1E018",
"g c #D9179C53DEBD",
"h c #DC6B9C43DEC2",
"j c #DBDF9B59E10A",
"k c #DF3F9B50E109",
"l c None",
/* pixels */
"llllllllllllllllllllllllllllllll",
"llllllllllllllllllllllllllllllll",
"llllllllllllllllllllllllllllllll",
"llllllllllllllllllllllllllllllll",
"lllloooooXll>::::;ll211111llllll",
"lllloooooXll>::::;ll211111llllll",
"lllloooooXll>::::;ll211111llllll",
"lllloooooXll>::::;ll211111llllll",
"lllloooooXll>::::;ll211111llllll",
"llll..... ll>;;;;-ll<,,,,,llllll",
"llllllllllllllllllllllllllllllll",
"llllllllllllllllllllllllllllllll",
"llllyyyyysll+&&&&#lle00000llllll",
"lllluuuuupll%====*llrtttttllllll",
"lllluuuuupll%====*llrtttttllllll",
"lllluuuuupll%====*llrtttttllllll",
"lllluuuuupll%====*llrtttttllllll",
"lllliiiiiallO$$$$@llwqqqqqllllll",
"llllllllllllllllllllllllllllllll",
"llllllllllllllllllllllllllllllll",
"llll555553llkffffjll788888llllll",
"llll666664llhddddgll899999llllll",
"llll666664llhddddgll899999llllll",
"llll666664llhddddgll899999llllll",
"llll666664llhddddgll899999llllll",
"llll666664llhddddgll899999llllll",
"llllllllllllllllllllllllllllllll",
"llllllllllllllllllllllllllllllll",
"llllllllllllllllllllllllllllllll",
"llllllllllllllllllllllllllllllll",
"llllllllllllllllllllllllllllllll",
"llllllllllllllllllllllllllllllll"
};
