/* XPM */
static char *disk_multiple[] = {
/* columns rows colors chars-per-pixel */
"32 32 138 2",
"   c #9656CC925D67",
".  c #9693CCC460E4",
"X  c #9E15CCC37A09",
"o  c #A16BD1D66E6A",
"O  c #A20BD24C70BB",
"+  c #A9FAD65B7AEB",
"@  c #BADAE66C7C7D",
"#  c #2D0C5EA3A661",
"$  c #317C6170A71A",
"%  c #38CA66A1AA30",
"&  c #3BB4695EAA53",
"*  c #3B6E6ED7BCFD",
"=  c #472571FDB2E6",
"-  c #4A9E7471B56B",
";  c #4CFE77F9B83A",
":  c #51B17A13B833",
">  c #52C87C62BB13",
",  c #588E7F83BC2A",
"<  c #4C787BF9C228",
"1  c #51AA7F3FC279",
"2  c #5A988265BF01",
"3  c #632B8592BE7E",
"4  c #53BE814DC41D",
"5  c #5B4F856BC624",
"6  c #5E178857C7B8",
"7  c #5F3F8896C885",
"8  c #640A8806C72A",
"9  c #61AD89A5C62D",
"0  c #605F86BECF08",
"q  c #63B38CFDCBF3",
"w  c #68B28E5CCE37",
"e  c #6758904CCCF0",
"r  c #6B64931DCE36",
"t  c #712F97A5CFCE",
"y  c #75429BECCDE1",
"u  c #6B5787F5D780",
"i  c #66AA8C48D471",
"p  c #6A708BE8D158",
"a  c #6AFF87C8DB96",
"s  c #69808943DD8E",
"d  c #6D4C9507D19A",
"f  c #70AD973CD1A8",
"g  c #74329AC3D4F2",
"h  c #79A09E24D429",
"j  c #75989D65D9F0",
"k  c #784B9FD7DCA9",
"l  c #7D90A187D682",
"z  c #7BFCA2B6DCD4",
"x  c #6B9C8B9EE1AA",
"c  c #7C1FA3CBE085",
"v  c #A6FAD10A8701",
"b  c #AC94D3C58F2E",
"n  c #AFE4D6799252",
"m  c #B0A6D7519331",
"M  c #B4A6D7EBA395",
"N  c #B501D8A0A2C3",
"B  c #BC44DAEAAD8E",
"V  c #BEBDDC92B2EB",
"C  c #C4B5EAD68B46",
"Z  c #C9A4EC1D8EF2",
"A  c #CAA3ED4493FB",
"S  c #81E19CBBCC49",
"D  c #86C0A5AACD32",
"F  c #8E39A726D006",
"G  c #8633A511D6B6",
"H  c #8B94A777D410",
"J  c #8700AC9AD580",
"K  c #8C2BAB67D64A",
"L  c #82AEA5FDDAB4",
"P  c #89CBA7B5D8D2",
"I  c #8603A9DBDE8B",
"U  c #8D11AC59DAEC",
"Y  c #912CAEF1DC26",
"T  c #8D41B149D80D",
"R  c #8E55B175D8BF",
"E  c #95E1B288DD42",
"W  c #99D0B51ADD5A",
"Q  c #9DD6B8E4DF8C",
"!  c #84ECA727E31F",
"~  c #85AFA9CCE182",
"^  c #8C54AD8CE3F7",
"/  c #9081AEB5E69B",
"(  c #8EAAB1E8E64B",
")  c #93CDB448E554",
"_  c #9A23B6DAE392",
"`  c #9CC7BA84E674",
"'  c #95A2B7F4E9C6",
"]  c #9A6ABAEAEA00",
"[  c #A3D5BD88E4DD",
"{  c #A9BCBF9AE181",
"}  c #A123BFE8EABD",
"|  c #A5F9C0CDE7A9",
" . c #B009C511E3AC",
".. c #A47DC1ACEBC6",
"X. c #AD3AC6E8EE83",
"o. c #B2D4C752E4A7",
"O. c #B6EACA1FE5DD",
"+. c #BC16CE5CE7F2",
"@. c #B4D5CD58EF97",
"#. c #BAF5D0A0EC4A",
"$. c #AF9FC728F148",
"%. c #B001C953F166",
"&. c #B9AFCDF1F1AA",
"*. c #BC4FD443F59D",
"=. c #C47AD11EDB54",
"-. c #CEECDAC5DF3D",
";. c #DC70EF90C3E0",
":. c #D248E4FFCBBD",
">. c #D3E9E8A1CDC4",
",. c #DB33EE06CDCA",
"<. c #D5E6E925D12F",
"1. c #D8ECEBF9D18B",
"2. c #EE8BFA7EC678",
"3. c #EFCAFB95C8E4",
"4. c #C48ED5C9EE24",
"5. c #CE12DCD7EEE6",
"6. c #D16DDDEBF01E",
"7. c #C492DAE8F820",
"8. c #CE64DD2FF27A",
"9. c #D282DEDBF0FF",
"0. c #D023E0AAEDBB",
"q. c #D8E8E557E68E",
"w. c #D2A7E215EDA6",
"e. c #D618E249F3C0",
"r. c #DCA8E66AF466",
"t. c #DFD6E8F5F5DB",
"y. c #DE14EA2DF9F0",
"u. c #E375EADFE48C",
"i. c #E184EC4EEDDC",
"p. c #E7B5F375E80F",
"a. c #ECFBF535E7E2",
"s. c #E080E859F467",
"d. c #E2C4EABBF682",
"f. c #E9DFEF69F78C",
"g. c #EC25F357FD2D",
"h. c #F77AF9B1FCA5",
"j. c #FE88FF66FFF5",
"k. c None",
/* pixels */
"k.k.k.k.k.k.k.k.k.k.k.k.k.k.k.k.k.k.k.k.k.k.k.k.k.k.k.k.k.k.k.k.",
"k.k.k.k.k.k.k.k.k.k.k.k.k.k.k.k.k.k.k.k.k.k.k.k.k.k.k.k.k.k.k.k.",
"k.k.k.g h g r f l h r q q w r t f r q k.k.k.k.k.k.k.k.k.k.k.k.k.",
"k.k.d g L U E E Y U U U U Y E W W U h r k.k.k.k.k.k.k.k.k.k.k.k.",
"k.k.w g ) @.e.6.O.o.5.r.r.r.t.d.d.8.| I r k.k.k.k.k.k.k.k.k.k.k.",
"k.k.9 g ] *.e.9.o. .5.t.d.s.r.r.r.5.| I d q k.k.k.k.k.k.k.k.k.k.",
"k.k.5 d ) ..` E P P E Q [ [ E Y Y U L h d e q 5 k.k.k.k.k.k.k.k.",
"k.k.5 d ( ' L l L U W Q W W E E E E E E E P h r k.k.k.k.k.k.k.k.",
"k.k.5 d ) ' l L ` #.e.e.+.+.9.s.s.r.r.e.e.4.[ I r 5 k.k.k.k.k.k.",
"k.k.6 d ) ) h l } *.e.9.O.O.6.t.d.t.e.6.5.4.[ I d q k.k.k.k.k.k.",
"k.k.9 f ^ ^ d g ) .._ Y U K U E Q W U G G G l h f e q 5 k.k.k.k.",
"k.k.q f ^ ~ r d ( ) j d l U U U U U P P P U Y E E U h r 5 k.k.k.",
"k.k.9 d ^ I d d ( ) g g ) @.8.5.o.o.5.r.r.r.r.t.t.8.| I r 5 k.k.",
"k.k.6 d ~ I d g ) ) f g ] 7.g.f.O.O.f.j.j.j.j.j.j.g.@.^ d 7 k.k.",
"k.k.4 e ~ ^ g h ) ) d d ( *.g.s.W W r.j.j.j.j.j.j.y.X.I r 9 k.k.",
"k.k.1 q ~ ^ h l ) U r d ^ *.g.d.{ { d.j.j.j.j.j.h.y...z w 5 k.k.",
"k.k.< q ~ ^ h h T J e d ( *.g.h.d.d.h.j.j.j.j.j.j.d.[ j 9 4 k.k.",
"k.k.1 w / ) h y K J r d ^ %.8.t.d.d.t.t.r.r.r.r.t.4._ g 6 1 k.k.",
"k.k.4 d ` [ h y R U r d ^ ] ` ` ` ` ` _ _ _ _ _ _ E L g 9 2 k.k.",
"k.k.< q Y Y r r U U f f ^ ) ! z z z z k j j j j j j j f 9 2 k.k.",
"k.k.k.< q e 5 w ~ ^ d d I ( ! c z z z k k j j j j j g r 6 , k.k.",
"k.k.k.k.< 4 4 i ^ / d r I ' ] ` ` ` _ _ _ ) ) ) ) U l r 2 : k.k.",
"k.k.k.k.k.k.4 d ` ` r q ~ ..4.w.w.w.5.5.5.5.5.0.w.#.U e > = k.k.",
"k.k.k.k.k.k.< q Y U q q ! X.r.p.1.:.>.<.<.>.:.1.a.w.W w ; & k.k.",
"k.k.k.k.k.k.* < q e 5 q ! $.r.1.n X v b b v X m ,.w._ w - & k.k.",
"k.k.k.k.k.k.k.* < 4 1 q ^ &.i.;.+   o + + O . + ;.q._ p - % k.k.",
"k.k.k.k.k.k.k.k.k.k.4 d ` 5.a.2.Z @ C A A C @ A 3.u.[ d ; & k.k.",
"k.k.k.k.k.k.k.k.k.k.< q U o.-.:.B N B V V B M B :.=.K 8 = % k.k.",
"k.k.k.k.k.k.k.k.k.k.* < q h G H D D D D D D D D F S 3 = % $ k.k.",
"k.k.k.k.k.k.k.k.k.k.k.* < 5 0 i x x x s s a a u p 5 - & $ # k.k.",
"k.k.k.k.k.k.k.k.k.k.k.k.k.k.k.k.k.k.k.k.k.k.k.k.k.k.k.k.k.k.k.k.",
"k.k.k.k.k.k.k.k.k.k.k.k.k.k.k.k.k.k.k.k.k.k.k.k.k.k.k.k.k.k.k.k."
};
