/* XPM */
static char *folder[] = {
/* columns rows colors chars-per-pixel */
"32 32 124 2",
"   c #D7768402264F",
".  c #D7FA85C72A28",
"X  c #D87385D82A8E",
"o  c #D9068C892E4C",
"O  c #D9BB92D72F85",
"+  c #D98F900F2FFD",
"@  c #D9CA9529304E",
"#  c #D9BC9CC03039",
"$  c #DBD591813BF6",
"%  c #DEE699FC3DB3",
"&  c #D9A9ABDF2EFD",
"*  c #D9B2B05A2F8D",
"=  c #D9BAA4A43031",
"-  c #D9B6A8BE2FE0",
";  c #D9DAB30F3217",
":  c #DC2BB7F53ED7",
">  c #F11ACBF224CE",
",  c #F1ACCD8C2ACA",
"<  c #F222CEF83334",
"1  c #F1EDCE7139C5",
"2  c #F327D1C83BA1",
"3  c #DF469B73435C",
"4  c #DFBB9D734B72",
"5  c #E0969F845104",
"6  c #DDF2BBF94992",
"7  c #DFD8BE7E519B",
"8  c #E08CA1BD55A1",
"9  c #E1F2A53F5A7F",
"0  c #E2D7AB995CAC",
"q  c #E32AB40F5CF8",
"w  c #E140BFAF59A9",
"e  c #EBB2BE975D06",
"r  c #E37AAD646317",
"t  c #E373B38964B4",
"y  c #E37ABCDB6462",
"u  c #EBB9C033618E",
"i  c #F277D026402C",
"p  c #F3B6D3A74516",
"a  c #F44CD56F4CDE",
"s  c #E1E3C1F65B85",
"d  c #F21ECFFC58C3",
"f  c #F494D6E1538E",
"g  c #F55DD8835751",
"h  c #F425D6145B86",
"j  c #F57DD9895BFC",
"k  c #E355C43965C3",
"l  c #EC1DC0EF6547",
"z  c #E3FAC582692D",
"x  c #ECBFC26C6BC2",
"c  c #F29AD2CF623B",
"v  c #F5EADAFB63B4",
"b  c #F340D4BB6A6A",
"n  c #F66DDCC86BBB",
"m  c #ECF7C50373DC",
"M  c #E572CA8671C5",
"N  c #ED3CC5F77B9F",
"B  c #F02ACFF67BC4",
"V  c #EFB2D0B57C32",
"C  c #F3E3D65272C8",
"Z  c #F690DDEF7430",
"A  c #F27CD49879AE",
"S  c #F627DDA87C66",
"D  c #F76AE0DC7BD9",
"F  c #ED65C67F8545",
"G  c #EB5FCE3780F8",
"H  c #EBC1D2FF8681",
"J  c #EBD4D4CC8C5B",
"K  c #F1E6D3FC81A4",
"L  c #F52CDB3284BC",
"P  c #F185D56B8C4F",
"I  c #F45DDB7D8DD0",
"U  c #F014CEDA93DE",
"Y  c #EE4CCABB9C3B",
"T  c #EFC9D17A95DB",
"R  c #EC6FD895954B",
"E  c #ED06D9479895",
"W  c #F40DDBC593E8",
"Q  c #F1DED7059EB4",
"!  c #F396DCF49BFB",
"~  c #F7CEE27783F4",
"^  c #F7B6E29289FE",
"/  c #F890E4CD8C79",
"(  c #F820E3B99250",
")  c #F8F6E68F93F0",
"_  c #F68AE07B9FC1",
"`  c #F930E7659AB2",
"'  c #F994E8F99C91",
"]  c #EFD2DE8AA645",
"[  c #F15CD708A34D",
"{  c #F369DB70A4B5",
"}  c #F426DE0DAB42",
"|  c #F34FD957B148",
" . c #F436DCB4BA63",
".. c #F698E198A4C1",
"X. c #FA06EA76A393",
"o. c #F405E29AAC66",
"O. c #F915E7F6ABD3",
"+. c #FA7EEBD5ABA0",
"@. c #F4BBE12DB0DD",
"#. c #F8C6E7D1B0D4",
"$. c #FAB4ED1CB52C",
"%. c #F52BE566BC74",
"&. c #FA56EC8FB9FA",
"*. c #FC20F0ABBCD5",
"=. c #F58EE50DC494",
"-. c #F5D5E8E5C6CD",
";. c #F8FDEA39C10B",
":. c #F64DE780C9CC",
">. c #F676EAE7CBF7",
",. c #F8B0ED4ECA0C",
"<. c #FCAFF27CC3E9",
"1. c #FCE3F43BCD27",
"2. c #F81EF011D501",
"3. c #F9EDEFC2D184",
"4. c #FAE2EF74D8C4",
"5. c #FB24F2BCD459",
"6. c #FB45F3C6DBAB",
"7. c #FCB7F67BE432",
"8. c #FE7FF9C4E52E",
"9. c #FD56F7C7EA8E",
"0. c #FEB1FACDEC24",
"q. c #FF3AFCDCF3E0",
"w. c #FFB7FF29FCB6",
"e. c None",
/* pixels */
"e.e.e.e.e.e.e.e.e.e.e.e.e.e.e.e.e.e.e.e.e.e.e.e.e.e.e.e.e.e.e.e.",
"e.e.e.e.e.e.e.e.e.e.e.e.e.e.e.e.e.e.e.e.e.e.e.e.e.e.e.e.e.e.e.e.",
"e.e.e.e.e.e.e.e.e.e.e.e.e.e.e.e.e.e.e.e.e.e.e.e.e.e.e.e.e.e.e.e.",
"e.e.e.e.e.e.e.e.e.e.e.e.e.e.e.e.e.e.e.e.e.e.e.e.e.e.e.e.e.e.e.e.",
"e.e.e.e.e.e.e.e.e.e.e.e.e.e.e.e.e.e.e.e.e.e.e.e.e.e.e.e.e.e.e.e.",
"e.e.e.e.e.e.e.e.e.e.e.e.e.e.e.e.e.e.e.e.e.e.e.e.e.e.e.e.e.e.e.e.",
"e.e.e.: 7 s s s s s s s s 7 : ; e.e.e.e.e.e.e.e.e.e.e.e.e.e.e.e.",
"e.e.; 6 M H H H H H H H H G M z e.e.e.e.e.e.e.e.e.e.e.e.e.e.e.e.",
"e.e.; s o.6.6.6.6.6.6.6.6.2.>.o.G k k k k k k z M M M z e.e.e.e.",
"e.e.* k >.w.0.8.8.9.9.0.0.q.q.6.] J J J J J J J R E E H w e.e.e.",
"e.e.& k >.0.<.+.O.#.$.&.;.3.9.0.6.5.5.5.5.5.3.5.5.6.6.%.k & e.e.",
"e.e.& k >.7.+.^ I W W W W { ;.5.6.6.6.6.5.5.5.5.5.6.q.>.z & e.e.",
"e.e.- y -.6.O.I W I I K A V H J ! ! ! ! W W W W I o.6.-.k & e.e.",
"e.e.- y =.6.o.W I P K B V H H J ! ! ! ! W W W W I o.6.=.k & e.e.",
"e.e.& y %.6.} P J G m G [ %.,.5.6.6.6.5.5.5.5.5.5.6.q.>.k & e.e.",
"e.e.- y =.7.%.} { Q T [ -.6.0.0.8.6.6.6.6.5.5.5.1.6.q.-.y - e.e.",
"e.e.= y :.w.9.6.6.6.4.6.9.0.8.5.&.+.X.' ` ) / ^ ~ ' 1.%.y = e.e.",
"e.e.= y >.w.q.0.0.0.0.8.8.6.1.$.` ^ ~ D Z n v j f Z &.@.q = e.e.",
"e.e.# y :.q.8.5.1.<.<.*.$.+.X.) ^ D Z n v j g a p n $.} q # e.e.",
"e.e.# t :.0.5.*.$.+.+.X.` ( ^ ~ S Z n v j f a p 2 v +.} q # e.e.",
"e.e.# t =.0.1.$.+.X.' ) / ~ D Z n v v g f a p 2 < j +.} q @ e.e.",
"e.e.@ t =.8.<.+.X.` ) / ~ D Z n v j g a p p 2 < , f +.} 0 @ e.e.",
"e.e.O r =.8.*.X.` ) ^ ~ D Z n v j f a p 2 2 < , > f X.} 0 @ e.e.",
"e.e.o r =.6.&.' ` ( ^ ~ S Z Z n v h g f a p i 1 < j +.} 0 + e.e.",
"e.e.o 0  .6.&..._ ! W W I L L S A C C b b c c h d C #.{ 9 o e.e.",
"e.e.o 8 Y | U F F F N N N m m m x x x l l u e e e x U F 4 o e.e.",
"e.e.e.$ 9 9 5 4 4 4 3 3 3 3 3 3 3 3 3 3 % % % % % 3 4 4 $ e.e.e.",
"e.e.e.e.e.    . . . . . . . . . . X X X X X X X X . . . X e.e.e.",
"e.e.e.e.e.e.e.e.e.e.e.e.e.e.e.e.e.e.e.e.e.e.e.e.e.e.e.e.e.e.e.e.",
"e.e.e.e.e.e.e.e.e.e.e.e.e.e.e.e.e.e.e.e.e.e.e.e.e.e.e.e.e.e.e.e.",
"e.e.e.e.e.e.e.e.e.e.e.e.e.e.e.e.e.e.e.e.e.e.e.e.e.e.e.e.e.e.e.e.",
"e.e.e.e.e.e.e.e.e.e.e.e.e.e.e.e.e.e.e.e.e.e.e.e.e.e.e.e.e.e.e.e."
};
