/* XPM */
static char *page_green[] = {
/* columns rows colors chars-per-pixel */
"32 32 114 2",
"   c #67A7A3594454",
".  c #68BCA3F9446F",
"X  c #6CF3A7DB48E9",
"o  c #6D92A83F490A",
"O  c #7110AB054D1E",
"+  c #798AB38C53C8",
"@  c #7FDEB25072A0",
"#  c #80E4B9F35ADB",
"$  c #83C0B4017550",
"%  c #8987B79A7415",
"&  c #8DC2BA2D7546",
"*  c #250E5D25B600",
"=  c #27D25FA1B796",
"-  c #280D6093B7BB",
";  c #2ADD6244B93B",
":  c #2ECA68E8BCC8",
">  c #32366D2FBE03",
",  c #34EB71BBBF68",
"<  c #3F6C77E7BF0C",
"1  c #3FE3704FBE37",
"2  c #365173DCC0E1",
"3  c #38C976E0C213",
"4  c #3CE57BFFC449",
"5  c #436D7512C12A",
"6  c #407E7E22C378",
"7  c #451584BAC4D6",
"8  c #497C87E8C5BB",
"9  c #4A098936C74F",
"0  c #5AF484EEC7AA",
"q  c #5BCE8738CB5C",
"w  c #55468C18CC54",
"e  c #5DFA89A0CC55",
"r  c #5A249185CFA3",
"t  c #62358BA3CD0F",
"y  c #65AF9426CEEE",
"u  c #6DF19C60CFED",
"i  c #620D8FD2DADE",
"p  c #667793D1D116",
"a  c #696B96C8D0B9",
"s  c #6C929CAFD2A8",
"d  c #664195C6DB98",
"f  c #669A983DDBBA",
"g  c #68509897DC43",
"h  c #70539F1DD283",
"j  c #6CB7A275DCC0",
"k  c #74AEA471D39D",
"l  c #7828A73ED508",
"z  c #79C6A866D5CE",
"x  c #7158A2E6DE44",
"c  c #9FD5C55196B7",
"v  c #A200C7459689",
"b  c #ACD5CDDB9872",
"n  c #8354B2E0E056",
"m  c #89FEB55BDF44",
"M  c #8280B30AE4B4",
"N  c #8916B791E5D6",
"B  c #A46CBD25E17D",
"V  c #B0E4D21CD035",
"C  c #B4B8D32BD16A",
"Z  c #BA1AD5B9D210",
"A  c #99E7C592ECDD",
"S  c #AE45C352E3E2",
"D  c #A7ADC84CE615",
"F  c #AFD7CA41E5FE",
"G  c #A466CB9EEDF3",
"H  c #ACDBCFDFED29",
"J  c #B06DCAE5E56F",
"K  c #B63DCC63EC59",
"L  c #BA2AD027ED25",
"P  c #BE00D289EDE4",
"I  c #B01BD53AF4E0",
"U  c #B5D0D504F46B",
"Y  c #BA0FD744F625",
"T  c #BD6CDA47F753",
"R  c #C674DD48CE71",
"E  c #CA01DEA9CE77",
"W  c #C5E1DED5DCF7",
"Q  c #C970DE9ADD5A",
"!  c #CBE8E06ACE68",
"~  c #CF40E2B5D158",
"^  c #D4FBE5E1D235",
"/  c #D9CCE915D2C7",
"(  c #D2EFE50BD9C8",
")  c #DEF2EC84DE09",
"_  c #E467EFC8DED4",
"`  c #E6B0F1AADF66",
"'  c #C21FD571ED94",
"]  c #C6D5DA2CED32",
"[  c #CA7BDBC9EE05",
"{  c #C735D635F0C7",
"}  c #C8CCD754F0D3",
"|  c #C372DC57F641",
" . c #CA05DCC9F48A",
".. c #C4D9DE5BF9EC",
"X. c #C85FE04DFAD3",
"o. c #D291DEA4F14E",
"O. c #CD4CE29FF575",
"+. c #C70EE0E1FB0A",
"@. c #CCC9E2FDFC4C",
"#. c #D1F3E492F715",
"$. c #D94EE6B0F54C",
"%. c #DC8FE99DF614",
"&. c #D4D8E701FE08",
"*. c #D76FE92AFE6B",
"=. c #DD48EBE8FDF5",
"-. c #E69FF0DFF049",
";. c #E41DEE7AF663",
":. c #E53BEF8AF9D2",
">. c #EB3CF45FF477",
",. c #E774F166FAF7",
"<. c #EBC6F3CDFBCA",
"1. c #FAAAFD6EF676",
"2. c #F193F778FD29",
"3. c None",
/* pixels */
"3.3.3.3.7 8 9 9 9 9 9 9 9 9 9 9 9 9 9 8 8 7 4 3.3.3.3.3.3.3.3.3.",
"3.3.3.w k z l l l l k k k k l l k k k k k s r w 3.3.3.3.3.3.3.3.",
"3.3.3.u J [ [ [ ] ] ] ] ] ] ] ] ] ] ] ] P D n j f d 3.3.3.3.3.3.",
"3.3.7 k [ 2.<.,.,.,.,.,.,.,.,.,.:.:.:.:.;.O.G M x g 3.3.3.3.3.3.",
"3.3.7 k [ <.=.&.&.&.&.&.&.&.#.#.@.O.X.#.<.:.T A M x g i 3.3.3.3.",
"3.3.7 k [ <.&.+.+.@.@.+.+.+.X.....T Y X.<.<.@.I A M x f 3.3.3.3.",
"3.3.7 k [ <.*.@.@.@.@.@.@.+.+.....T Y X.<.<.*.+.T G N x w 3.3.3.",
"3.3.7 k [ <.*.@.@.@.@.@.@.@.+.X...| Y X.:.<.=.*.*.O.H m e < 3.3.",
"3.3.7 k [ <.*.@.@.@.@.@.@.@.@.+...| T | %.:.,.,.<.,.%.F y 6 3.3.",
"3.3.7 k [ <.=.@.&.&.&.&.@.@.@.+.X...T | O.$.%.;.:.,.<.' u 6 3.3.",
"3.3.7 k [ <.=.&.&.&.&.&.&.@.@.@.+.....| | | | | | #.,.] s 6 3.3.",
"3.3.7 k ] <.=.&.&.&.&.&.&.&.@.@.@.X...| T Y U U U | :.] h 6 3.3.",
"3.3.7 k ] <.=.&.&.&.&.&.&.&.&.@.@.@.X...| T T Y Y X.:.] h 6 3.3.",
"3.3.7 k ] <.=.*.*.*.*.&.&.&.&.&.@.@.+.X.....| T T @.,.] s 6 3.3.",
"3.3.7 k ] <.=.*.*.*.*.*.*.&.&.&.&.@.@.+.X.....| | @.,.] s 6 3.3.",
"3.3.7 k ] <.=.*.*.*.*.*.*.&.&.&.&.&.@.@.@.+.......@.,.] s 4 3.3.",
"3.3.7 k ] <.=.*.*.*.*.*.*.*.&.&.&.&.&.@.@.@.X.....#.,.' s 4 3.3.",
"3.3.7 s ] <.=.*.*.*.*.*.*.*.&.&.&.&.&.@.@.@.+.X.X.&.,.' s 4 3.3.",
"3.3.6 s ' <.=.*.*.*.*.*.*.*.&.&.&.&.&.&.@.@.@.+.+.&.<.] s 4 3.3.",
"3.3.4 s ' <.=.*.*.*.*.*.*.*.*.&.&.&.&.&.@.@.@.@.@.*.<.] s 3 3.3.",
"3.3.4 s ' ,.=.*.*.*.*.*.*.*.*.&.&.&.&.&.@.@.@.@.@.*.2.[ a 2 3.3.",
"3.3.4 s ' ;.Q Z Z Z Z Z Z Z Z Z Z Z C C C C C C V W >.[ a , 3.3.",
"3.3.4 s ' ( c $ $ $ $ $ $ $ $ $ $ $ $ $ $ $ $ $ @ v ) } p > 3.3.",
"3.3.3 a P ! % . o O O O O O O O O O O O O O O o . & / } p : 3.3.",
"3.3.3 a P E % o + # # # # # # # # # # # # # # + X & / } t ; 3.3.",
"3.3., p P E % X + # # # # # # # # # # # # # # + X & / } t ; 3.3.",
"3.3.> y L R % . o O O O O O O O O O O O O O O X   & / } t - 3.3.",
"3.3.> t P ( v % % % % % % % % % & & & & & & & & & b `  .t * 3.3.",
"3.3.: t ' -.( R R R R R R R R E ~ ^ ^ ^ ~ ^ ^ ^ ^ _ 1.[ t * 3.3.",
"3.3.: 0 B ' P K K K K K K K K K P ' ' P P ' ' { { } o.S 0 * 3.3.",
"3.3.3.5 q t t e q q q q q q q q e e e e e e e t t t t 0 1 3.3.3.",
"3.3.3.3.; - ; ; ; ; ; ; ; ; ; ; - - - - - - - = = = * * 3.3.3.3."
};
