/* XPM */
static char *picture_save[] = {
/* columns rows colors chars-per-pixel */
"32 32 256 2",
"   c #747D7E656BD5",
".  c #83917BB95C44",
"X  c #71608AD97918",
"o  c #67F09BCD7FA5",
"O  c #7E9896937923",
"+  c #7DB6AB8E6D58",
"@  c #7A27B32D6FBB",
"#  c #7DFEB4E2724F",
"$  c #8C5E8532436A",
"%  c #804F9D375BB5",
"&  c #9FFD99105311",
"*  c #8F2FAB105D5E",
"=  c #8279BF7D5237",
"-  c #81D98A0D65C9",
";  c #94AE8D4C6D7C",
":  c #874DB49D63CA",
">  c #867FB78068BF",
",  c #8214A8927934",
"<  c #8339B6A2747A",
"1  c #8634B9DC78B8",
"2  c #8650C1485389",
"3  c #8A72C31655BC",
"4  c #8DDCC47E5AD8",
"5  c #87A2C1DB5A5A",
"6  c #9128C65C5CC8",
"7  c #9656CC925D67",
"8  c #8B7BC265643F",
"9  c #8E99C2806DCC",
"0  c #944EC7BE6345",
"q  c #96CFCA1E630B",
"w  c #9B41CBA76662",
"e  c #9C37CB7D6BA0",
"r  c #95B2C7756CEF",
"t  c #8FE0C17C77E5",
"y  c #9D85CC377668",
"u  c #96FEC6D37C8C",
"i  c #9E36CC7D7A19",
"p  c #91ACC2F27666",
"a  c #A23DCF716CB0",
"s  c #A16BD1D66E6A",
"d  c #A298CF2C7368",
"f  c #A444CF4A7B3F",
"g  c #A3C9D169740D",
"h  c #A9FAD65B7AEB",
"j  c #BADAE66C7C7D",
"k  c #2D0C5EA3A661",
"l  c #317C6170A71A",
"z  c #38CA66A1AA30",
"x  c #3BB4695EAA53",
"c  c #3B6E6EDCBCF4",
"v  c #30606637B9E9",
"b  c #472571FDB2E6",
"n  c #4A9E7471B56B",
"m  c #4CFE77F9B83A",
"M  c #54587CA8BA7B",
"N  c #4BE47B9BC202",
"B  c #54207F61C058",
"V  c #6AAC9E0285FE",
"C  c #79F89F188109",
"Z  c #63F193B39D26",
"A  c #677797DF9364",
"S  c #7984AC2B8C08",
"D  c #6D5FA0999CEA",
"F  c #78E1A8249640",
"G  c #5A988265BF01",
"H  c #62428519AB93",
"J  c #6B9B8623A81B",
"K  c #688B972EA70C",
"L  c #632B8592BE7E",
"P  c #6D5899C2B560",
"I  c #69779202B73D",
"U  c #75949AFEBAE5",
"Y  c #7ADFAA65A17E",
"T  c #74DFA139B479",
"R  c #7950A3C5B4E0",
"E  c #7CEFA54DBB42",
"W  c #5579820BC3E2",
"Q  c #5BB08500C559",
"!  c #5F7489D9CBB5",
"~  c #5EC48879C749",
"^  c #62C18AF8C575",
"/  c #63DB8D72CC01",
"(  c #68B28E5CCE37",
")  c #62348762CB19",
"_  c #6A8D9238CE13",
"`  c #6E589985C285",
"'  c #73499BA5C752",
"]  c #79E59E4EC563",
"[  c #728C9764CDFC",
"{  c #72059A9ACCD4",
"}  c #79A39CA5CB1B",
"|  c #6A708BE8D158",
" . c #6AFF87C8DB96",
".. c #69808943DD8E",
"X. c #68F18899D7D3",
"o. c #6CD594C6D31B",
"O. c #74999B45D5D3",
"+. c #794E9E6AD5D8",
"@. c #75379CBCDA1E",
"#. c #74489B59D711",
"$. c #7D8FA0FAD555",
"%. c #7B49A2BBDDBD",
"&. c #6B9C8B9EE1AA",
"*. c #7C1FA3CBE085",
"=. c #80EDAE018398",
"-. c #840BB607823F",
";. c #8BBEBD218354",
":. c #83F4B5A586D2",
">. c #87FCA3B8970D",
",. c #8AD1BC919B77",
"<. c #879DBA0E99CF",
"1. c #9D7FBFAB9241",
"2. c #A618B1189E11",
"3. c #8803A8C7ADE8",
"4. c #876FB769A868",
"5. c #9374BABFAEFD",
"6. c #8453AF64B9F4",
"7. c #84D8B473B4C7",
"8. c #8BF8B464B3D1",
"9. c #8A88B450BDC6",
"0. c #8AFAB99EB4C5",
"q. c #92BEB597BE54",
"w. c #94C0C3928C54",
"e. c #9C8CC99E8CE4",
"r. c #9A2EC89C865E",
"t. c #9C0CC869940D",
"y. c #A3CFCEA284C8",
"u. c #A41EC5D289FE",
"i. c #A6FAD10A8701",
"p. c #AC94D3C58F2E",
"a. c #AF24CF929FF5",
"s. c #B75DC7D5982F",
"d. c #AFE4D6799252",
"f. c #B0A6D7519331",
"g. c #9355C172A188",
"h. c #AF66CFF1A15A",
"j. c #A4B3C917A98A",
"k. c #B303D5A6A463",
"l. c #BC05DAD6A1CF",
"z. c #BBB5DA8EACDB",
"x. c #B501D8A0A2C3",
"c. c #AC38C657BC8E",
"v. c #A32BCA16B932",
"b. c #BEBDDC92B2EB",
"n. c #B082D34CB100",
"m. c #C4B5EAD68B46",
"M. c #C9A4EC1D8EF2",
"N. c #CAA3ED4493FB",
"B. c #C40EDA45B7C0",
"V. c #C386DD36BEFC",
"C. c #81E19CBBCC49",
"Z. c #8689A53ACD37",
"A. c #8BD2A4FCCC69",
"S. c #90E0A80ACC5E",
"D. c #92C3A9CACDA1",
"F. c #9978ADC7CE16",
"G. c #88AFB4A8C450",
"H. c #8DF2B4B5C85D",
"J. c #94AEB679C0DB",
"K. c #9176B499CCFF",
"L. c #9E1BB0FDCEE0",
"P. c #8649A54DD5C1",
"I. c #8CB6A958D63A",
"U. c #82EDA624DD34",
"Y. c #8470A8F6DF6D",
"T. c #8D86AC27DC37",
"R. c #8B94A777D410",
"E. c #91D3AF59DD93",
"W. c #9442AD6CD3C6",
"Q. c #8F84B282DC29",
"!. c #8AE2B2B3D11A",
"~. c #9227B53DD4CD",
"^. c #9D10B338D3A2",
"/. c #9487B396DCE0",
"(. c #99E0B3F6DBA6",
"). c #990CB8C4DEDD",
"_. c #A0E7B321CECD",
"`. c #A43AB5C8D1A2",
"'. c #A636B96ED72A",
"]. c #AC58BD16D712",
"[. c #A783BAF4D90E",
"{. c #AA56BCA0D96C",
"}. c #83E4A6EDE220",
"|. c #8431A9B6E1BD",
" X c #8C63ADD2E3E1",
".X c #8DAAB15CE775",
"XX c #95C5B50EE39A",
"oX c #99DEB6CFE350",
"OX c #9C2EBA41E56D",
"+X c #91F0B48AE8A7",
"@X c #9CFABB51EA86",
"#X c #A4A4BD1DE542",
"$X c #A9BCBF9AE181",
"%X c #9F3FC555C514",
"&X c #AD75C79FCFA0",
"*X c #B31ACD5CCC75",
"=X c #A6DEC50CD9AC",
"-X c #B1F7C093D74E",
";X c #B14DC0C8D9CA",
":X c #AB38C413E5D2",
">X c #A5BCC1A8EB77",
",X c #AD58C5D1EBFB",
"<X c #A562C057E762",
"1X c #B361C7B6E564",
"2X c #B69EC9B0E607",
"3X c #BB32CCD5E50B",
"4X c #B0E3C771EB46",
"5X c #B435CA74EDC0",
"6X c #B89BCCDAE8B6",
"7X c #BE1ED118EA49",
"8X c #AFD0C83DF157",
"9X c #B6EFCD59F186",
"0X c #BAF8D30BF58A",
"qX c #C36ADD98C136",
"wX c #C9B0D5EFDD48",
"eX c #CF0CE37ACE0C",
"rX c #DC70EF90C3E0",
"tX c #D204E528CC7C",
"yX c #D78EEB54CDC7",
"uX c #D5E6E925D12F",
"iX c #D8ECEBF9D18B",
"pX c #D8A9E66CD997",
"aX c #EF2BFB09C7AE",
"sX c #E406EE41DE29",
"dX c #C5B6D4FAE2CD",
"fX c #CD32D5B8E28D",
"gX c #C5CBD7BFEF4F",
"hX c #CE2EDDF3EECE",
"jX c #D7C5E042EE84",
"kX c #CD81DCB6F2C8",
"lX c #C492DAE8F820",
"zX c #D145DEFCF24D",
"xX c #D023E0AAEDBB",
"cX c #D699E339E36E",
"vX c #DB10E281E755",
"bX c #D552E1E2ED9F",
"nX c #DC79E3FAEE4E",
"mX c #DC8DE941E4EE",
"MX c #D343E116F25E",
"NX c #DD0EE64FF375",
"BX c #DF59E8DFF5D1",
"VX c #DE14EA2DF9F0",
"CX c #E1D2EB8CE3B7",
"ZX c #E45AEDE3EC2A",
"AX c #E8ECF031EC50",
"SX c #ECFBF535E7E2",
"DX c #E9F0F1B5EC94",
"FX c #E7E2F220EA19",
"GX c #E0A2E857F4A5",
"HX c #E411EB6FF5CB",
"JX c #EB85EF40F421",
"KX c #EC25F357FD2D",
"LX c #EFB3F2B0F282",
"PX c #F77AF9B1FCA5",
"IX c #FE88FF66FFF5",
"UX c None",
/* pixels */
"_._.L.F.D.S.A.A.A.A.A.A.A.A.A.A.A.A.A.A.A.A.A.A.A.D.F.UXUXUXUXUX",
"_.`.].-X].].{.{.{.{.{.{.[.[.{.{.[.{.{.{.{.{.[.[.[.'.^.UXUXUXUXUX",
"L.].fXvXnXnXnXnXnXnXnXnXnXNXNXNXnXnXnXnXnXnXnXbXbXdX'.F.UXUXUXUX",
"F.-XvXJXHXNXNXnXmXmXCXsXsXsXsXsXsXpXcXcXbXbXbXNXJXbX].D.UXUXUXUX",
"D.].nXGX7X:X=X=X%Xv.n.z.l.l.l.x.k.j.5.9.K.~./.:XNXnX{.D.UXUXUXUX",
"S.].nXNX,XQ.!.G.4.,.e.y.f f f i u ;.S D P ` [ /.zXnX{.D.UXUXUXUX",
"A.{.nXBX,XQ.G.0.g.t.y.d d e e e r p -.S K P { XXzXbX{.D.UXUXUXUX",
"A.{.nXGX4X~.9.4.t.y.g a w q 0 0 0 r t :.D K ' XXzXbX{.D.UXUXUXUX",
"A.{.nXBX4X~.7.,.e.f e w q 6 4 4 4 8 9 1 V K ' oXzXbX{.D.UXUXUXUX",
"A.{.nXBX4X~.7.<.r.f e 0 6 4 3 2 2 5 8 < V Z ' oXMXbX{.D.UXUXUXUX",
"A.{.nXBX4X~.7.<.r.y q 6 3 2 2 = = = 8 # o Z ' OXMXbX].D.UXUXUXUX",
"A.[.nXBX4X~.7.<.w.y 0 8 < < # # @ # -.S A K ' T.6X3X^.Z.UXUXUXUX",
"A.[.nXBX5X/.9.4.w.u 0 1 Y T R R T T E E I ^ _ O.P.I.$.[ / Q UXUX",
"A.[.nXBX5X).H.8.,.;.9 -.U #.U.T.E.E.E.T.T.T.T.T.E././.T.+._ Q UX",
"A.[.nXBX5XoX~.9.4.:.< =.P @.+X9XzXzX2X1XhXNXNXNXNXNXBXkX<XU._ Q ",
"A.[.nXBX5XOX).K.6.F , C I #.@XlXKXJX2X2XJXIXIXIXIXIXIXKX5X Xo.~ ",
"A.[.bXBX5X@X@XoX~.3.O X H o.+X0XKXGX(.(.NXIXIXIXIXIXIXVX,XY._ ^ ",
"A.[.bXnX&XJ.J.q.8.>.-   H o..X0XKXHX$X$XHXIXIXIXIXIXPXVX>X%.( Q ",
"A.[.MXpX1.+ + + + % $ . J o..X0XKXPXHXHXPXIXIXIXIXIXIXHX#X+.) W ",
"A.[.MXpXu.: : : : * & ; J o..X8XkXBXHXGXBXBXBXNXNXNXBXgXoXO.~ B ",
"A.[.bXCXB.a.h.h.h.a.s.2.U o. X@XOXOXOXOXOXOXoXoXoXoXoX/.U.O.^ G ",
"A.'.jXZXeXqXqXqXqXV.B.c.] o. X+X|.%.%.%.%.@.@.@.@.@.#.#.@.[ ^ G ",
"A.'.jXZXeXV.V.V.V.V.V.c.] o.|..X|.*.%.%.%.@.@.@.@.@.#.#.#._ ~ M ",
"A.[.bXAXpXeXeXeXeXtXtX*X} _ Y.XXOXOXOXOXoXoXXXXXXXXXXXT.$._ G M ",
"S.].vXLXDXAXDXDXAXDXDXdX} / }.>XgXbXbXbXhXhXhXhXhXxXbX7XT._ M b ",
"D.].fXnXnXnXnXnXnXNXNX3X[ ! }.,XNXFXiXtXuXuXuXtXtXiXSXbX(.( m x ",
"F.`.].;X].{.{.{.{.{.].W.^ ! }.8XNXiXd.i i.p.p.i.i f.yXbXoX( n x ",
"UXUXF.D.D.S.S.S.S.D.D.} Q /  X9XZXrXh 7 s h h g q h rXvXoX| n z ",
"UXUXUXUXUXUXUXUXUXUXUXUXW o.OXgXSXaXM.j m.N.N.m.j N.aXCX#Xo.m x ",
"UXUXUXUXUXUXUXUXUXUXUXUXN / T.1XwXtXz.x.z.b.b.z.x.z.tXwXI.^ b z ",
"UXUXUXUXUXUXUXUXUXUXUXUXc N / O.P.R.Z.Z.Z.Z.Z.Z.Z.Z.A.C.L b z l ",
"UXUXUXUXUXUXUXUXUXUXUXUXv c N Q ) X.&.&.&..... . .X.| Q n x l k "
};
