/* XPM */
static char *pictures[] = {
/* columns rows colors chars-per-pixel */
"32 32 174 2",
"   c #557C9FCB3CDA",
".  c #6B668B1239BB",
"X  c #71D68B8031EF",
"o  c #69919C543DB1",
"O  c #73D59F2F300A",
"+  c #79E392EE3844",
"@  c #62E6AABA35C2",
"#  c #7E32A62B37EF",
"$  c #6B36B1973669",
"%  c #7169B34A3477",
"&  c #740CB5623BC1",
"*  c #7B6BB7CE3BC4",
"=  c #5D718DF44EF7",
"-  c #672591514E1B",
";  c #7B869A3E46DF",
":  c #618F91C25455",
">  c #716CAD934FC6",
",  c #7FADAA164E99",
"<  c #726FB1F742BF",
"1  c #7AE4B37947C3",
"2  c #6ED5AC0F5639",
"3  c #654EA53A5992",
"4  c #794AA03B5752",
"5  c #76DBA0B35BDC",
"6  c #7C31A2D35A99",
"7  c #7803B1A25A42",
"8  c #5D0E9E3865B2",
"9  c #61489E1C605A",
"0  c #740EA4536463",
"q  c #7FEBA68F5FF7",
"w  c #7CF0B3506207",
"e  c #7FC0B2886EED",
"r  c #797BAB1072B4",
"t  c #9AA981F830DD",
"y  c #9BFA892F3155",
"u  c #ACFA92543DE2",
"i  c #AF11995F3EE0",
"p  c #8D4B86F54EA7",
"a  c #8D5D8D5F513F",
"s  c #856FBDE143CB",
"d  c #8B08BF6445A2",
"f  c #831FAAFD6581",
"g  c #861DAE5168FA",
"h  c #8B1CB2BB6AD6",
"j  c #8ED4BDF56C07",
"k  c #816CA6D07991",
"l  c #80F7B2987A4F",
"z  c #AC27A231644C",
"x  c #AE34A80E6826",
"c  c #8D1CC25B4815",
"v  c #91C7C4014491",
"b  c #990DC75445A0",
"n  c #9B6CC8DE4637",
"m  c #9534C4154EE0",
"M  c #9B52C75D4A7D",
"N  c #9D22C9E54C1E",
"B  c #9D8ACA7652E8",
"V  c #A317CCDE5302",
"C  c #9AC1C6666774",
"Z  c #9D1BC49A79B3",
"A  c #A30BCAC36B76",
"S  c #A5B5CB8B71F6",
"D  c #AC23CDC47E7E",
"F  c #B2A4D45B73BF",
"G  c #67DCA2C68C70",
"H  c #758A9209BEF4",
"J  c #78859537BFA8",
"K  c #7BA8A7E8A799",
"L  c #7AE0A712AD74",
"P  c #7E34AAEABED0",
"I  c #74B692B3C19F",
"U  c #79F4965DC2C5",
"Y  c #7D689911C381",
"T  c #9722B53D80CE",
"R  c #9673BACF8AC4",
"E  c #868BA047928B",
"W  c #8559A5359A3B",
"Q  c #9891AF629E74",
"!  c #82F2B1AE9D4B",
"~  c #819CAB9DA65F",
"^  c #8A96B209AA2F",
"/  c #9A22B35AA7AC",
"(  c #92EBB7BAAFB3",
")  c #8056AAF2B263",
"_  c #8DFCB536B6F5",
"`  c #8D62B549BA23",
"'  c #9BAFBD4CB762",
"]  c #9A14B0A8BE9C",
"[  c #9888B906BDC3",
"{  c #A8FEC6DF90D7",
"}  c #A140C538988F",
"|  c #B4C6D0EA9E89",
" . c #A142C18DBFA4",
".. c #AA26C7F4BB8E",
"X. c #B289CDE0BB6D",
"o. c #B9CDD2D4BED9",
"O. c #80B099E2C1ED",
"+. c #89379FC6C231",
"@. c #8FD4A9ECC46B",
"#. c #8E38A6BFCB70",
"$. c #93E6AD55C3DF",
"%. c #9B8BAFABC3DE",
"&. c #9151A78ACAAA",
"*. c #9476ABD6CD74",
"=. c #999EAE66CD9D",
"-. c #836CB167C721",
";. c #95C2B043C06B",
":. c #9C26B13FC38A",
">. c #9CC2B1B9CE3D",
",. c #9360BA7FCEEB",
"<. c #9D0BBE95CBC5",
"1. c #96AEAD9DD135",
"2. c #991AAEEFD247",
"3. c #88C7B193D477",
"4. c #9B3BB0D6D2F1",
"5. c #9CA1BE7EDBC4",
"6. c #A387B63AC77A",
"7. c #A1ECB518CB74",
"8. c #A4BAB8DFCF46",
"9. c #ACC3BEDDCF3A",
"0. c #A128B543D2CA",
"q. c #A7EBBA13D4CF",
"w. c #ADB2BF59D402",
"e. c #A3A8BE1EDC6E",
"r. c #A925C640C6A1",
"t. c #BB67CD44CE18",
"y. c #BC40D3C5C3AE",
"u. c #AC19C3BFDE27",
"i. c #C02BCB4CD7AE",
"p. c #BBF6CA8FDE8F",
"a. c #A4B5C1DAE1D9",
"s. c #B58CCC3FE4AF",
"d. c #BCB9D060E515",
"f. c #BE59D2CEE9C5",
"g. c #CCDEDBA3C5EF",
"h. c #CF5FDF09CA95",
"j. c #C2ADCE00DCCB",
"k. c #CC69DA92D3C4",
"l. c #CE52DAE0E021",
"z. c #D12DDE65D29A",
"x. c #D2ADDD71DDC7",
"c. c #D265E167CBB3",
"v. c #DEAFEAC7CE99",
"b. c #D4E5E1C6D3BB",
"n. c #DB7DE734D4F6",
"m. c #E006EADBD281",
"M. c #DCC4E845DACC",
"N. c #E21DED02CECB",
"B. c #E2E7EBF9DCE8",
"V. c #C456D099E121",
"C. c #CD57D800E6C5",
"Z. c #CE86DAD9E543",
"A. c #C402D616EA0B",
"S. c #CF19DB7DEAF3",
"D. c #D3C7DCE2E529",
"F. c #D423DDC1EB6C",
"G. c #D8D7DFA6ED11",
"H. c #D816E112E108",
"J. c #DA8CE2C1E4F8",
"K. c #D5E6E0A8F010",
"L. c #DA09E19BECD2",
"P. c #D684E1ECF0E8",
"I. c #DAA0E4C9F201",
"U. c #DE87E8E2F420",
"Y. c #E104E7FAE371",
"T. c #E204E874E4A8",
"R. c #E889ECC0E31D",
"E. c #E604EB70ED60",
"W. c #EAF4EFDEECA9",
"Q. c #E464EC8DF556",
"!. c #EC9BEFC6F2AC",
"~. c #EC3BF1E6F75D",
"^. c #F116F2C3F4D9",
"/. c None",
/* pixels */
"/./././././././././././././././././././././././././././././././.",
"/./././././././././././././././././././././././././././././././.",
"/././././.Y I I I I I I I I I I I I I H /./././././././././././.",
"/././.+.=.>.=.1.1.2.1.1.2.2.2.2.2.1.=.#.Y /././././././././././.",
"/././.=.j.D.G.L.L.L.L.L.L.L.L.L.L.L.F.p.&.J /./././././././././.",
"/./.O.>.D.!.E.L.J.D.D.D.D.D.D.D.F.F.F.p.#.I /./././././././././.",
"/./.U 2.G.E.V.w.6.:.$.$.$.$.$.&.*.1.2.&.Y I I H /./././././././.",
"/./.I 1.L.L.w.=.%.] ] $.;.$.$.*.=.4.4.4.2.*.*.#.Y /././././././.",
"/./.I 1.G.L.q.7.t.k.x.x.x.x.x.D.D.F.L.L.F.F.F.p.&.J /./././././.",
"/./.I 1.F.F.0.7.x.R.T.J.H.x.x.l.D.F.F.F.F.F.S.p.#.I /./././././.",
"/./.I 1.G.F.4.>.x.Y.j.9.6.:.$.$.$.*.*.*.*.*.*.#.Y I I H /./././.",
"/./.I 1.G.F.1.>.D.J.w.$.%.%.$.*.*.*.1.1.1.2.2.2.1.*.*.#.Y /././.",
"/./.I 1.F.S.*.=.Z.D.8.>.i.D.D.F.G.G.G.G.G.G.G.G.G.F.F.p.&.J /./.",
"/./.I 1.F.S.*.=.Z.D.>.>.D.^.^.W.B.m.N.N.N.v.n.M.E.!.~.F.=.U /./.",
"/./.I 1.F.S.1.1.S.S.=.=.F.^.Q.k.| D F F F S Z } t.S.Q.F.4.U /./.",
"/./.I 1.F.S.*.*.Z.Z.*.*.F.~.P.y.Z m M N b d 1 e ' d.U.F.4.Y /./.",
"/./.I 1.F.Z.@.$.l.Z.*.*.F.~.P.y.S M V V N v * w ( s.I.S.4.Y /./.",
"/./.I =.F.Z.$.$.Z.Z.*.*.F.~.K.o.A n V V B c * 7 ^ u.P.S.4.Y /./.",
"/./.H =.F.D.*.>.F.F.*.1.F.Q.S.X.C v M B m s % 2 ~ e.K.F.4.Y /./.",
"/././.&.j.p.#.2.F.F.*.*.F.Q.A...j s d c s & @ 3 K e.K.F.4.U /./.",
"/././.O.*.&.Y 1.S.C.&.*.F.Q.A. .l > < & $ @   8 L e.P.F.4.U /./.",
"/././././.H I *.S.C.&.*.F.Q.f.<.! r , # O o 9 G P a.P.S.4.Y /./.",
"/./././././.H =.D.Z.&.*.F.U.s.5.,./ x i y a W -.3.a.P.S.4.Y /./.",
"/./././././.H &.j.p.#.1.F.J.r._ ` Q z u t p E ) L [ Z.S.2.Y /./.",
"/././././././.O.*.&.Y 1.F.b.R 0 0 5 ; + X . - : = k k.S.2.Y /./.",
"/././././././././.H I 1.F.n.{ h h h h g f f q 6 4 T z.F.2.U /./.",
"/./././././././././.H =.D.W.n.c.c.c.c.h.h.h.g.g.g.b.E.F.2.U /./.",
"/./././././././././.H &.j.G.L.P.P.K.G.G.G.K.K.P.P.G.F.p.&.U /./.",
"/././././././././././.Y *.4.4.4.4.4.4.4.4.4.4.4.4.4.=.&.O./././.",
"/./././././././././././.H U U U U U U U U U U U U U U J /./././.",
"/./././././././././././././././././././././././././././././././.",
"/./././././././././././././././././././././././././././././././."
};
