/* XPM */
static char *shape_rotate_anticlockwise[] = {
/* columns rows colors chars-per-pixel */
"32 32 93 2",
"   c #1E625BD01B58",
".  c #20705E961CD1",
"X  c #21A961401EC1",
"o  c #2477643F211E",
"O  c #29416A7E251C",
"+  c #2CC96C9F28F0",
"@  c #329674DB2DFB",
"#  c #369477203265",
"$  c #36FA7BE830C7",
"%  c #3A0B7C183599",
"&  c #416D860F3B72",
"*  c #44408C203CAC",
"=  c #44F786F2409B",
"-  c #4BAD8E6E45F2",
";  c #4D3A92E74611",
":  c #517794BE4BC9",
">  c #56B29BC04F08",
",  c #566D98FA514C",
"<  c #5A639D485366",
"1  c #592FA7174F60",
"2  c #5D37A51954A8",
"3  c #5B5DAA735224",
"4  c #5EF0A2595A09",
"5  c #6338A5FF5CF7",
"6  c #65D1AD105BD4",
"7  c #6708B3105D92",
"8  c #68CAB0515F72",
"9  c #64DCA9126036",
"0  c #6C4AACF064D8",
"q  c #6CC7B37B6377",
"w  c #6CE7BC4C6084",
"e  c #6EF8B0CB6948",
"r  c #7140BD7D65C9",
"t  c #761BB5A96EE9",
"y  c #7543BC2A6BDD",
"u  c #77F1B789718C",
"i  c #788FB77370E5",
"p  c #7C0ABB5B7501",
"a  c #7E7EBF5478E8",
"s  c #6E5DC0D0623B",
"d  c #758FC2E86A8A",
"f  c #7DFBC3BF742F",
"g  c #81CCBEF779A6",
"h  c #80C5C35D76B3",
"j  c #8487C3347DA0",
"k  c #890DC5D77FB2",
"l  c #8945C98E7F52",
"z  c #56088769CF06",
"x  c #57798898CFB5",
"c  c #58C38987D031",
"v  c #5BF98C56D220",
"b  c #61218F15D373",
"n  c #63899240D5A9",
"m  c #6B679613D751",
"M  c #67C29685D8C8",
"N  c #6DDC9AE0DB1E",
"B  c #72819CF7DBCD",
"V  c #79E49EAADB50",
"C  c #7476A0A1DC65",
"Z  c #7CA8A2C0DD1B",
"A  c #87A1C55D8089",
"S  c #8AA3C6938313",
"D  c #8D56C9AC841D",
"F  c #9062C9A2873F",
"G  c #94EDCCC98C90",
"H  c #9918CEB08FDF",
"J  c #98FFD0818F86",
"K  c #9A20CFCC910F",
"L  c #9E40D20D9525",
"P  c #A403D4E69AFC",
"I  c #81EFA5A4DDFA",
"U  c #8679A959DF78",
"Y  c #8A9AAB6CE022",
"T  c #8AB2AC44E098",
"R  c #8600B27FF414",
"E  c #8AEBB5ADF4EE",
"W  c #935DBB82F65E",
"Q  c #9982BF89F759",
"!  c #9C7BC165F7A3",
"~  c #9EBCC386F8BA",
"^  c #A25FC51AF828",
"/  c #A3EEC6ADF931",
"(  c #A6C1C8F9F9FE",
")  c #AC3CCC3BFA8F",
"_  c #B29FCF7AFA46",
"`  c #B5C5D13FFA66",
"'  c #BC7DD4E3FA6E",
"]  c #C0ECD735FACC",
"[  c #C4E6DA1FFB42",
"{  c #CBBADDCCFBA2",
"}  c #CF8FE0A5FBE3",
"|  c #D05DE0F6FC07",
" . c None",
/* pixels */
" . . . . . . . . . . . . . . . . . . . . . . . . . . . . . . . .",
" . . . . . . . . . . . . . . . . . . . . . . . . . . . . . . . .",
" . . . . . . . . . . . . . . . . . . . . . . . . . . . . . . . .",
" . . . . . . . . . . . . . . . . . . . . . . . . . . . . . . . .",
" . . . . . . . . . . . . . . . . .s w w  . . . . . . . . . . . .",
" . . . . . . . . . . . . . . . .d d r r  . . . . . . . . . . . .",
" . . . . . . . . . . . . . . .d f h f y 7 3 1  . . . . . . . . .",
" . . . . . . . . . . . . . .d f D D D j y q 8 6 2 2  . . . . . .",
" . . . . . . . . . . . . .d f l J L L H F k g t 0 5 ;  . . . . .",
" . . . . . . . . . . . . .r f D L P P L L G S g i 0 < ;  . . . .",
" . . . . . . . . . . . . .r f k L P K G H G D A j p 0 < &  . . .",
" . . . . . . . . . . . . .w y h D G F D D S S S S j u 5 - %  . .",
" . . . . . . . . . .B C  . .6 q i g A j p p g j A j a e , =  . .",
" . . . . . . . . . .B B  . . .2 6 0 t t 0 9 0 t a j h t 4 - #  .",
" . . . . . . . . .B B B  . . . .> > > > : - - , e p f t 9 : # . ",
" . . . . . . . . .N N N  . . . . .* * &  .$ @ & , 5 5 4 , = + . ",
" . . . . . . . .N N N N  . . . . . . . . . .@ @ % % % # @ + o   ",
" . . . . . . . .C B N M  . . . . . . . . . . .+ O o o X .       ",
" . . . . . . .C I Z N M  . . . . . . . . . . . . . . . . . . . .",
" . . . . . .B Z U I B n  . .) )  . . . . . . . . . . . . . . . .",
" . . . . . .Z I T U N n  . .) ) ) )  . . . . . . . . . . . . . .",
" . . . . .B Z U Y I N n  . .) ) _ ` _ )  . . . . . . . . . . . .",
" . . . .M B Z U U Z m v  . .) _ ] [ ' ` ( ~  . . . . . . . . . .",
" . . . .N B I U I V M v  . .) ` { } [ ' ) ( /  . . . . . . . . .",
" . . .B C Z I I Z B n v  . .( _ [ | { [ ' _ ) / !  . . . . . . .",
" . . .N Z I I Z V B n v  . .( _ [ { { { [ ' _ ) ^ Q  . . . . . .",
" . .n m Z I Z V V m b c  . .( ) ] { { [ [ ] ' ` ) ^ W E  . . . .",
" . .n M B V B B m m v x  . ./ ) ` ' ' ` ` ` _ _ ( ! W E E R  . .",
"n n n n n n n b b v v z  . ./ / / ( / ^ ^ ~ ! Q W W E E R R R R ",
"n n n v v v v v v v x z  . .^ ~ ! ! Q Q W W W E E E E E R R R R ",
" . . . . . . . . . . . . . . . . . . . . . . . . . . . . . . . .",
" . . . . . . . . . . . . . . . . . . . . . . . . . . . . . . . ."
};
