/* XPM */
static char * shape_post_triangle_xpm[] = {
"32 32 43 1",
" 	c None",
".	c #7DA5E1",
"+	c #8CB3E6",
"@	c #7FA8E3",
"#	c #76A0DE",
"$	c #9DBCE9",
"%	c #94B4E5",
"&	c #99B9E8",
"*	c #739BDD",
"=	c #98B7E7",
"-	c #8CACE2",
";	c #7DA1DF",
">	c #000000",
",	c #576884",
"'	c #667C9E",
")	c #7A9DDD",
"!	c #6E98DC",
"~	c #829DC6",
"{	c #354052",
"]	c #1F2631",
"^	c #6B93DA",
"/	c #89A7D4",
"(	c #050608",
"_	c #85ABE3",
":	c #8AA8D5",
"<	c #85A6E0",
"[	c #87A5D2",
"}	c #374355",
"|	c #1F2531",
"1	c #7097DB",
"2	c #6690D8",
"3	c #60769B",
"4	c #648ED8",
"5	c #060709",
"6	c #202835",
"7	c #62789E",
"8	c #84A5DF",
"9	c #638CD7",
"0	c #90AFE4",
"a	c #5F88D5",
"b	c #688FD7",
"c	c #5A84D4",
"d	c #688FD8",
"                                ",
"                                ",
"                                ",
"                                ",
"                           .    ",
"                          ..    ",
"                         +@#    ",
"                        $%@#    ",
"                       &&+.*    ",
"                      &==-;*    ",
"               >>>>>>,==%-;*    ",
"               >>>>>>>'%%-)!    ",
"               >>  ~{>]%%-*^    ",
"               >> =%/>(%%_*^    ",
"               >>%%%:>(%%<*^    ",
"               >>%%[}>|--<12    ",
"               >>>>>>>3--<14    ",
"              %>>>>567---8^9    ",
"             %%>>--------8^9    ",
"            %%%>>--------;^9    ",
"           %%0->>-----<<<)2a    ",
"          %%0-->>----<<<8)ba    ",
"         %0---->>--<<<888)bc    ",
"        %0-------<<<<<888)4c    ",
"       %0-------<<<<<8888)9c    ",
"      ;<<<<88;;;;))))))))^9c    ",
"     !111!!^^^^^2db4499999cc    ",
"    ^^222449999aaacccccccccc    ",
"                                ",
"                                ",
"                                ",
"                                "};
