/* XPM */
static char *shape_square_add[] = {
/* columns rows colors chars-per-pixel */
"32 32 125 2",
"   c #343068B21654",
".  c #352D694217AE",
"X  c #3F1C75761C4B",
"o  c #3A246CF42E9C",
"O  c #415C77171F18",
"+  c #441C793221E6",
"@  c #4A247D572908",
"#  c #3F4C70E64500",
"$  c #4675766C4E43",
"%  c #50957D5849F2",
"&  c #520C7F625532",
"*  c #494D81C32167",
"=  c #4E81814F2D14",
"-  c #58138EE22F01",
";  c #5292831733AF",
":  c #58988EF12FE9",
">  c #5DED8B6A3F55",
",  c #5B1390D93326",
"<  c #5F81941338B2",
"1  c #6AACA04E3F78",
"2  c #5BD386C55D1C",
"3  c #61568E3B4702",
"4  c #6E079FB2465C",
"5  c #67469233498D",
"6  c #6D4796B2528F",
"7  c #78BD9EB75F29",
"8  c #6CC0A189426C",
"9  c #6F9CA0D748F7",
"0  c #76DAA5B55309",
"q  c #7F4DB23054B2",
"w  c #58A983A163B9",
"e  c #5F6688EA6C15",
"r  c #630A8C006676",
"t  c #68558FF26EE3",
"y  c #73A99B426268",
"u  c #6F0295327313",
"i  c #6C8992F67B88",
"p  c #75759B157ABD",
"a  c #7F7EA3E666D1",
"s  c #7F04A3B87164",
"d  c #7E33A5607C27",
"f  c #8098AD015C76",
"g  c #80A3B2355635",
"h  c #830FB4E1599B",
"j  c #874AB8985E2F",
"k  c #8574AD4A6EFA",
"l  c #8D02B4BC6D3F",
"z  c #87E2AEEB7259",
"x  c #8FE2B7647037",
"c  c #9499BB47738A",
"v  c #957DBAE27811",
"b  c #9B64BEA37F19",
"n  c #9B8CC5A97770",
"m  c #9D80C5497A49",
"M  c #52DB7FD5A34D",
"N  c #784B9C3F8A0C",
"B  c #78539BBC9C0F",
"V  c #7E33A2AB83DA",
"C  c #7E20A2109C8B",
"Z  c #5D3487AEABE8",
"A  c #607B89BAB05B",
"S  c #6C3292F1B4B7",
"D  c #79C99D50B68A",
"F  c #7AE59E5BBACF",
"G  c #7F14A12FA419",
"H  c #5FA08953DA80",
"J  c #61668B5BD6BD",
"K  c #63CA8D47D975",
"L  c #662790A7D8FF",
"P  c #6B949413DAC6",
"I  c #6ED798BBDC7C",
"U  c #7059974BDD3D",
"Y  c #73CF9BD5DD9C",
"T  c #782E9EEADED5",
"R  c #76A6A0A7DE87",
"E  c #7C95A245DF9A",
"W  c #7DD6A50AE195",
"Q  c #7F5BA897E33A",
"!  c #809EA40B9F88",
"~  c #83A2A50ABE0C",
"^  c #A360CA40835C",
"/  c #A94DCE1086C6",
"(  c #A9FECAC08C94",
")  c #AE27D3728C9D",
"_  c #B2E7CF0D9963",
"`  c #BA34D9D69C6F",
"'  c #BC7DD90BA3DA",
"]  c #C012DAC7AA78",
"[  c #C0BFDDB2A4DB",
"{  c #C209DF50A85F",
"}  c #C70FDFE5B084",
"|  c #C401E073AAF1",
" . c #CCEDE3DDB74E",
".. c #8477A620C321",
"X. c #85E9A681CC5C",
"o. c #89C7AA00CFD4",
"O. c #8A62AA55D712",
"+. c #80F2A3A3DFAE",
"@. c #8BDDABC9D93A",
"#. c #8367A62EE211",
"$. c #84EAAC02E406",
"%. c #8D07AD6EE40F",
"&. c #908EAFABE52C",
"*. c #87EDB177E5B7",
"=. c #8C6FB31CE683",
"-. c #942BB42FE600",
";. c #98A7B7A4E766",
":. c #99EAB902E809",
">. c #97F5B8E4E899",
",. c #9D02BC61E979",
"<. c #A106BF69EAE4",
"1. c #9FDAC0BAEAE9",
"2. c #A3ADC22CEBBC",
"3. c #D66EEA6CC413",
"4. c #D828E934CA30",
"5. c #D8F9E9AFCAA9",
"6. c #DE2AECF0D127",
"7. c #E358F09FD78B",
"8. c #E84EF400DD5F",
"9. c #ECECF4F2E6CE",
"0. c #EE97F5E1E8BB",
"q. c #F458FA13EF97",
"w. c #F577FAB9F114",
"e. c #FBABFD8EFA3B",
"r. c None",
/* pixels */
"r.r.r.r.r.r.r.r.r.r.r.r.r.r.r.r.r.r.r.r.r.r.r.r.r.r.r.r.r.r.r.r.",
"r.r.r.r.r.r.r.r.r.r.r.r.r.r.r.r.r.r.r.r.r.r.r.r.r.r.r.r.r.r.r.r.",
"r.r.r.r.r.r.r.r.r.r.r.r.r.r.r.r.r.r.r.r.r.r.r.r.r.r.r.r.r.r.r.r.",
"r.r.r.r.r.r.r.r.r.r.r.r.r.r.r.r.r.r.r.r.r.r.r.r.r.r.r.r.r.r.r.r.",
"r.r.r.r.=.=.=.=.=.=.=.*.*.*.$.$.$.$.$.$.$.$.#.Q Q W W W r.r.r.r.",
"r.r.r.r.=.=.-.-.-.-.-.-.=.=.=.=.=.=.=.=.%.%.$.$.$.$.W W r.r.r.r.",
"r.r.r.r.=.-.,.2.1.,.,.,.,.,.,.,.,.:.:.>.>.>.>.;.-.=.Q R r.r.r.r.",
"r.r.r.r.=.-.2.2.2.2.2.2.2.2.2.2.<.<.,.,.,.,.,.,.,.-.Q R r.r.r.r.",
"r.r.r.r.*.-.,.2.2.2.2.2.2.2.<.<.,.,.,.,.,.,.:.:.:.=.W Y r.r.r.r.",
"r.r.r.r.*.=.,.2.2.2.2.<.<.<.<.,.,.,.,.,.:.:.:.;.;.%.E Y r.r.r.r.",
"r.r.r.r.$.=.,.2.2.2.<.<.,.,.,.,.,.,.:.:.:.;.;.;.-.%.E U r.r.r.r.",
"r.r.r.r.$.=.,.2.2.<.<.,.,.,.,.,.:.:.:.;.;.;.-.-.-.%.T I r.r.r.r.",
"r.r.r.r.$.=.,.2.<.,.,.,.,.,.,.:.:.;.;.;.-.-.-.-.-.$.T P r.r.r.r.",
"r.r.r.r.$.=.:.<.,.,.,.,.,.:.:.:.;.;.;.-.-.-.-.-.-.$.Y P r.r.r.r.",
"r.r.r.r.$.%.>.,.,.,.,.:.:.:.;.;.;.-.-.-.-.-.-.-.-.#.Y P r.r.r.r.",
"r.r.r.r.#.$.>.,.,.:.:.:.;.;.;.-.-.-.-.-.-.-.&.&.&.#.U L r.r.r.r.",
"r.r.r.r.Q $.-.,.:.:.;.;.;.;.-.-.-.-.-.-.&.&.%.%.%.#.U K r.r.r.r.",
"r.r.r.r.W $.-.:.:.;.;.;.-.-.-.-.-.-.&.%.@.o.....~ F S A r.r.r.r.",
"r.r.r.r.W #.-.:.;.;.-.-.-.-.-.-.-.&.%.@.~ G N p u t e w % r.r.r.",
"r.r.r.r.W #.-.;.;.-.-.-.-.-.-.-.%.%.@...! V s a a 7 6 3 ; r.r.r.",
"r.r.r.r.T W %.-.-.-.-.-.-.&.%.%.%.O.~ C d z b ( _ ( x 0 < = O r.",
"r.r.r.r.Y E %.-.-.-.-.-.&.%.%.%.%.X.B p k c / [ 3. .^ h 8 , + . ",
"r.r.r.r.Y E %.-.-.-.&.%.%.%.%.%.%...i y v / ) | 8.6./ j h 9 @   ",
"r.r.r.r.Y E %.-.-.&.%.%.%.%.%.%.%.F r 6 m ` { 3.q.9.] ^ m f =   ",
"r.r.r.r.I T $.-.&.%.%.%.%.%.%.%.%.D 2 5 b } 7.w.e.e.0.5.' l ;   ",
"r.r.r.r.I Y E #.#.#.#.+.+.E E W W S & > c ' 4.9.e.e.0.5.' l ;   ",
"r.r.r.r.P I U U U I P P P P P P P Z $ ; f n ^ ' 9.9.] ^ m f =   ",
"r.r.r.r.P P L L L K K K J J J J H M # @ 4 q h ^ 5.5.^ h g 9 @   ",
"r.r.r.r.r.r.r.r.r.r.r.r.r.r.r.r.r.r.o + - 1 g n ' ' n g 8 : + . ",
"r.r.r.r.r.r.r.r.r.r.r.r.r.r.r.r.r.r.r.X * : 4 f l l f 4 : * X r.",
"r.r.r.r.r.r.r.r.r.r.r.r.r.r.r.r.r.r.r.r.X + @ = ; ; = @ + X r.r.",
"r.r.r.r.r.r.r.r.r.r.r.r.r.r.r.r.r.r.r.r.r..             . r.r.r."
};
