/* XPM */
static char *shape_move_forwards[] = {
/* columns rows colors chars-per-pixel */
"32 32 50 1",
"  c #53A27FD5D199",
". c #5AB984E2D36F",
"X c #63238B76D6EA",
"o c #68158FA2D88F",
"O c #67AC906DD856",
"+ c #66F091BAD97E",
"@ c #6C739492DA40",
"# c #6FA09960DC42",
"$ c #713097DCDBED",
"% c #749A9BDFDD3D",
"& c #7B739DC1DC60",
"* c #7C42A126DF15",
"= c #7C97A4DDE19E",
"- c #7EE3A865E26E",
"; c #838EA39CDE80",
": c #859AA6C6E0F6",
"> c #88A8A7FCE0F3",
", c #84D8ABE3E3EE",
"< c #8C37AC7FE2F1",
"1 c #90B2AFEDE41E",
"2 c #87EFB180E5B9",
"3 c #8C52B323E69C",
"4 c #9433B471E622",
"5 c #9936B775E714",
"6 c #9766B8BDE81F",
"7 c #99DFB8E4E7FA",
"8 c #9CC4BC4CE96D",
"9 c #A117BF77EAC2",
"0 c #B6DFC360D976",
"q c #B8D2C57BDB91",
"w c #A009C064EB4B",
"e c #A3AAC232EBC5",
"r c #C64AC64AC64A",
"t c #CBFDCBFDCBFD",
"y c #D4E3D4E3D4E3",
"u c #DA7FD9AED83E",
"i c #DBA1DB85DB54",
"p c #C3DACE0FE067",
"a c #C638D060E249",
"s c #D1E4DC47EF60",
"d c #D413DE5EF1A0",
"f c #D792E1A9F444",
"g c #DC3EE429F2AE",
"h c #E5ABE519E403",
"j c #EDAEEDAEEDAE",
"k c #F067F2ECF78A",
"l c #F23CF231F212",
"z c #F8C7F7D4F60D",
"x c #FF52FEC9FDA5",
"c c None",
/* pixels */
"cccccccccccccccccccccccccccccccc",
"cccccccccccccccccccccccccccccccc",
"cccccccccccccccccccccccccccccccc",
"cccccccccccccccccccccccccccccccc",
"cc33333322,,,,,,,-====*%cccccccc",
"cc3344444333332<,,,,,=*%cccccccc",
"cc348e888888876664444<*%cccccccc",
"cc34weeeeee9988887755<*$cccccccc",
"cc248eeeee98888775544<&#cccccccc",
"cc238eee9888877554444>%@cccccccc",
"cc,38e998888775544444>%@cccccccc",
"cc,38998887755444444<:$@cccccccc",
"cc,378888775544441<<<;@&0iuuyycc",
"cc,<6887755444441<<<<*+;phhiuycc",
"cc-,68775544444<<<<<<*o;szzjiycc",
"cc=,477544444<<<<<<>>&o;fxxliycc",
"cc=,45544441<<<<<>>>>&X;dxxliycc",
"cc=:3544441<<<<<>>>>;&X;dxxlitcc",
"cc%=<44441<<<<<>>>:;;%X;dxxlitcc",
"cc%*:<>>:::;**&&&&%%%@.&dxxlutcc",
"cc%%%%%%$#@@OOoXXXXXX. &sxxlutcc",
"cc$#@@@++@&;;;;;;;;*&&&5gxxlutcc",
"ccccccccccqasfdddddddssgkxxlytcc",
"ccccccccccihzxxxxxxxxxxxxxxlyrcc",
"ccccccccccihzxxxxxxxxxxxxxxlyrcc",
"ccccccccccuijllllllllllljllhyrcc",
"ccccccccccuiiiiiiiiuuuuyyyyytrcc",
"ccccccccccuuyyyyytttttttrrrrrrcc",
"cccccccccccccccccccccccccccccccc",
"cccccccccccccccccccccccccccccccc",
"cccccccccccccccccccccccccccccccc",
"cccccccccccccccccccccccccccccccc"
};
