/* XPM */
static char *table[] = {
/* columns rows colors chars-per-pixel */
"32 32 95 2",
"   c #45227A09BD7D",
".  c #48F87C1BBE2C",
"X  c #4BB67F8CC10B",
"o  c #4E4381AEC275",
"O  c #532584F8C53B",
"+  c #56A588DEC832",
"@  c #5A318924C5D2",
"#  c #5B5F8C72CAEE",
"$  c #626E922BCF0A",
"%  c #6CCE9641CBB5",
"&  c #72859B25CEB5",
"*  c #66A19510D136",
"=  c #696696CDD279",
"-  c #6D3B9A54D49D",
";  c #73449E23D4C7",
":  c #797B9FC9D1CE",
">  c #7582A157D842",
",  c #7C0EA209D2E9",
"<  c #77D3A2AAD9CB",
"1  c #7B74A568DC3B",
"2  c #7FFEA996DF42",
"3  c #96ADCBA89227",
"4  c #9A86CE38954C",
"5  c #9D91CFA19955",
"6  c #9EF8D0AE99D3",
"7  c #A2BCD2E59CEE",
"8  c #A6AFD512A117",
"9  c #AAE4D713A4AC",
"0  c #ADC1D8D4A650",
"q  c #AF47D973A89C",
"w  c #B0E7D857ADA2",
"e  c #B428DBE6AD22",
"r  c #B8D6DF32B041",
"t  c #8191A781D742",
"y  c #8439AA26DB52",
"u  c #8AAEAE3EDBF9",
"i  c #8E87B16ADF27",
"p  c #92B9B4AEE04B",
"a  c #A04CBACDDD80",
"s  c #8433AC8FE168",
"d  c #883BAF4BE328",
"f  c #8CA5B2C1E574",
"g  c #929EB5C2E456",
"h  c #9783B89DE264",
"j  c #9C2CBBDCE5C6",
"k  c #93CFB810E8D4",
"l  c #9687BA26EA6A",
"z  c #9C44BDF3EC5F",
"x  c #A03ABEFDE796",
"c  c #A176BFC6E985",
"v  c #9FA5C06CEEC4",
"b  c #A49EC257EB09",
"n  c #AA96C679EC17",
"m  c #AEA4C982EDAC",
"M  c #B696CACFE560",
"N  c #B9CFCD22E699",
"B  c #B44DCCE2EC38",
"V  c #B969CFAFEC43",
"C  c #BC8CD231EDFE",
"Z  c #A9BFC6BDF0BA",
"A  c #B407CD69F1DF",
"S  c #BC3DD1FFF0A9",
"D  c #C842E538C3D0",
"F  c #CA46E6BBC4AC",
"G  c #D828EAD8D9DA",
"H  c #DBBFECDBDD6B",
"J  c #E055F0D4DCDE",
"K  c #E25CF1FDDF0F",
"L  c #C2EDD629EE37",
"P  c #C6E5D922EF9B",
"I  c #CB30DB60EF68",
"U  c #C7E5D923F09F",
"Y  c #CC30DC51F150",
"T  c #D258DFD8F180",
"R  c #DFA6EED7E110",
"E  c #D5C5E261F313",
"W  c #DB8FE702F645",
"Q  c #DEBAE960F73B",
"!  c #DD17E7A0F8F5",
"~  c #DF46E960F9AD",
"^  c #E19CEFD9E2F2",
"/  c #E5F6F3A6E304",
"(  c #E9C1F5FBE5B0",
")  c #EA63F492EAE5",
"_  c #E3B2EBEAF680",
"`  c #E991EF69F768",
"'  c #E2E8EBFDF9D6",
"]  c #E98BF03DF92B",
"[  c #ED7BF340FB65",
"{  c #F36CF85DF5D6",
"}  c #F4ACF907F755",
"|  c #F1BFF606FB81",
" . c #F63AF8E7FD6A",
".. c #FB8DFC76FDEF",
"X. c None",
/* pixels */
"X.X.X.X.X.X.X.X.X.X.X.X.X.X.X.X.X.X.X.X.X.X.X.X.X.X.X.X.X.X.X.X.",
"X.X.X.X.X.X.X.X.X.X.X.X.X.X.X.X.X.X.X.X.X.X.X.X.X.X.X.X.X.X.X.X.",
"X.X.X.X.b z z z z z l l k k k f f f f d d s s 2 2 1 1 1 1 X.X.X.",
"X.X.X.Z A A A A A A A A m m m n n n b b b b c z j j j g y < X.X.",
"X.X.v A E ' ' ' ' ' ~ ~ ~ ~ ~ ~ ! ! ! ! ! ! W W W W W C i ; X.X.",
"X.X.z A ' { ) ^ ^ ^ ^ R R R H H H H H H H H G G G ^ { E g - X.X.",
"X.X.z A ' ) D e e e e w q 0 9 9 8 8 7 7 6 5 5 4 3 w / E p - X.X.",
"X.X.z A ~ ) F r e e e e e q 0 9 9 8 7 7 7 7 6 4 4 w ^ E i = X.X.",
"X.X.z B Q } ) ( ( ( ( ( ( / / / / / / K K K K K J / { T u * X.X.",
"X.X.l B Q  .[ [ [ [ [ [ [ [ [ [ [ [ [ [ [ [ [ [ [ [  .T u $ X.X.",
"X.X.l m Q [ Y C C C S S S C C S S S S S S S S S S Y [ T u $ X.X.",
"X.X.k m Q _ V n B B n n B C C C C B n n B C C C C Y ] I y # X.X.",
"X.X.k m Q _ V B W W V B W [ [ [ [ W V V W [ [ [ [ [ | I t # X.X.",
"X.X.g n Q _ C V W Q V V W [ [ [ [ W C C W [ [ [ [ [ [ L , # X.X.",
"X.X.f n W _ C m V C B B C L L L L C B B C L L L P I Q L , + X.X.",
"X.X.f b W _ C m C C B B C L L L L C B B C L L L P I W N : O X.X.",
"X.X.f b W _ C C Q Q C C W [ [ [ [ W C C W [ [ [ [ [ _ N ; O X.X.",
"X.X.d b W _ C C Q Q C C Q [ [ [ | Q C C W [ [ [ [ [ _ N & O X.X.",
"X.X.s b E _ L B L L V V L P P P P L B B C L L L L I E N & O X.X.",
"X.X.s x E _ L V L L C V L P P P P L B B V C L L L P E N & O X.X.",
"X.X.y j E _ L L _ _ P P _ [ [ [ [ _ L L E _ [ [ [ ] _ N , @ X.X.",
"X.X.2 j E _ P P _ _ P P _ | | | | _ P L W ] [ [ [ [ _ N , @ X.X.",
"X.X.1 j E _ P C P P C C P Y Y Y Y P C V L P P P P Y E N : @ X.X.",
"X.X.1 h E _ I C P P C C P Y Y Y Y P V V L P P P P Y E N : @ X.X.",
"X.X.< h E _ I P _ _ I P _ | [ | | Q C C Q [ [ [ [ [ _ N , @ X.X.",
"X.X.> h E ] E E | | E E [ ........] U U ] ........| _ N , @ X.X.",
"X.X.; p E [ ` ` [ [ _ _ ` ` ` ` ` _ E E _ _ _ _ _ _ _ N , @ X.X.",
"X.X.; u V I I I P L L L C N N N M M M M M M M M M M N a % O X.X.",
"X.X.; < u u u y y t , , , : : ; & & & & & & & & & & & % O . X.X.",
"X.X.X.; - = * $ $ # # # + + O O o o o o o o o o o o o X   X.X.X.",
"X.X.X.X.X.X.X.X.X.X.X.X.X.X.X.X.X.X.X.X.X.X.X.X.X.X.X.X.X.X.X.X.",
"X.X.X.X.X.X.X.X.X.X.X.X.X.X.X.X.X.X.X.X.X.X.X.X.X.X.X.X.X.X.X.X."
};
