/* XPM */
static char * qosmicicon_xpm[] = {
"32 32 566 2",
"  	c #020203",
". 	c #050509",
"+ 	c #0A0A13",
"@ 	c #0A0B14",
"# 	c #07070D",
"$ 	c #040509",
"% 	c #0B0C16",
"& 	c #2A2C52",
"* 	c #0E0F1C",
"= 	c #10101E",
"- 	c #151629",
"; 	c #0E0E1A",
"> 	c #16162A",
", 	c #1C1D36",
"' 	c #3D3F75",
") 	c #16172B",
"! 	c #131324",
"~ 	c #05050A",
"{ 	c #05060B",
"] 	c #030305",
"^ 	c #030306",
"/ 	c #020204",
"( 	c #010102",
"_ 	c #0D0D19",
": 	c #080810",
"< 	c #08080F",
"[ 	c #0C0C17",
"} 	c #131425",
"| 	c #2F315B",
"1 	c #191930",
"2 	c #10111F",
"3 	c #111221",
"4 	c #1A1B33",
"5 	c #1A1A32",
"6 	c #3C3E72",
"7 	c #20213F",
"8 	c #20213D",
"9 	c #151528",
"0 	c #07070C",
"a 	c #090911",
"b 	c #06060B",
"c 	c #141527",
"d 	c #040408",
"e 	c #05060A",
"f 	c #090A12",
"g 	c #0B0B15",
"h 	c #1D1E38",
"i 	c #2B2C52",
"j 	c #131325",
"k 	c #1C1C36",
"l 	c #26274A",
"m 	c #393B6D",
"n 	c #3D3E73",
"o 	c #1E1F3A",
"p 	c #1F203D",
"q 	c #17182D",
"r 	c #07070E",
"s 	c #222341",
"t 	c #0A0A12",
"u 	c #06070C",
"v 	c #0D0E1A",
"w 	c #2D2E56",
"x 	c #27284A",
"y 	c #17172C",
"z 	c #232445",
"A 	c #27284C",
"B 	c #5A5DA8",
"C 	c #313360",
"D 	c #18192E",
"E 	c #101120",
"F 	c #0C0D18",
"G 	c #242545",
"H 	c #20213E",
"I 	c #0A0A14",
"J 	c #3A3C6F",
"K 	c #28294D",
"L 	c #232443",
"M 	c #2E2F59",
"N 	c #323360",
"O 	c #585BA3",
"P 	c #3F4079",
"Q 	c #2C2D54",
"R 	c #252648",
"S 	c #18182E",
"T 	c #191A30",
"U 	c #3E4078",
"V 	c #0E0E1B",
"W 	c #090910",
"X 	c #252647",
"Y 	c #464885",
"Z 	c #2A2B52",
"` 	c #353666",
" .	c #323461",
"..	c #4B4D8F",
"+.	c #5D60AC",
"@.	c #3F417B",
"#.	c #2E305A",
"$.	c #2A2B51",
"%.	c #1B1C34",
"&.	c #1B1C35",
"*.	c #333461",
"=.	c #464785",
"-.	c #111222",
";.	c #0F0F1C",
">.	c #0E0F1B",
",.	c #1B1B33",
"'.	c #0D0E19",
").	c #0F101E",
"!.	c #1B1B34",
"~.	c #37396B",
"{.	c #393B6E",
"].	c #474989",
"^.	c #7174CE",
"/.	c #494B8E",
"(.	c #333564",
"_.	c #2D2F58",
":.	c #5F62AF",
"<.	c #343564",
"[.	c #18192F",
"}.	c #141426",
"|.	c #1C1C35",
"1.	c #121324",
"2.	c #111121",
"3.	c #191A31",
"4.	c #232444",
"5.	c #40427A",
"6.	c #4C4E90",
"7.	c #454785",
"8.	c #4F5198",
"9.	c #6F72CA",
"0.	c #5D5FB1",
"a.	c #494B8D",
"b.	c #3B3D72",
"c.	c #363869",
"d.	c #3B3D73",
"e.	c #41437E",
"f.	c #6C6FC2",
"g.	c #353768",
"h.	c #1E1F3B",
"i.	c #212240",
"j.	c #363868",
"k.	c #19192F",
"l.	c #1F203C",
"m.	c #27284B",
"n.	c #343665",
"o.	c #5759A5",
"p.	c #585BAA",
"q.	c #52549E",
"r.	c #5F62B8",
"s.	c #7A7EDA",
"t.	c #5558A5",
"u.	c #484A8B",
"v.	c #3D3F76",
"w.	c #464887",
"x.	c #7376CC",
"y.	c #6265B7",
"z.	c #262749",
"A.	c #30315C",
"B.	c #3C3E73",
"C.	c #121323",
"D.	c #121223",
"E.	c #21223F",
"F.	c #28294E",
"G.	c #333463",
"H.	c #3E4079",
"I.	c #6769C1",
"J.	c #5658A4",
"K.	c #8488E9",
"L.	c #6669C4",
"M.	c #575AA9",
"N.	c #4C4E93",
"O.	c #5C5FB2",
"P.	c #8C90ED",
"Q.	c #595BAB",
"R.	c #393A6E",
"S.	c #30315D",
"T.	c #42447E",
"U.	c #3F4179",
"V.	c #363768",
"W.	c #2D2E57",
"X.	c #3A3C71",
"Y.	c #5659A7",
"Z.	c #6F73D0",
"`.	c #6568C4",
" +	c #7E82E3",
".+	c #7E81E6",
"++	c #6769C6",
"@+	c #6163BA",
"#+	c #7B7EE1",
"$+	c #8E92ED",
"%+	c #4A4C8F",
"&+	c #40427C",
"*+	c #505297",
"=+	c #292A4F",
"-+	c #323361",
";+	c #4E5095",
">+	c #5E60B1",
",+	c #4C4E91",
"'+	c #4C4E92",
")+	c #5C5FB1",
"!+	c #5D5FB3",
"~+	c #6567C1",
"{+	c #7C7FE5",
"]+	c #797DE7",
"^+	c #9499FA",
"/+	c #7578DF",
"(+	c #7478DE",
"_+	c #A1A6FC",
":+	c #7E82EB",
"<+	c #676AC3",
"[+	c #454786",
"}+	c #393B6F",
"|+	c #4A4C8B",
"1+	c #222343",
"2+	c #42447D",
"3+	c #787CD4",
"4+	c #7D81D9",
"5+	c #7578D4",
"6+	c #686BC9",
"7+	c #696CCB",
"8+	c #6F72D5",
"9+	c #787BE3",
"0+	c #878BF4",
"a+	c #9EA3FD",
"b+	c #898DF9",
"c+	c #8A8EF8",
"d+	c #AEB3FE",
"e+	c #7A7DE7",
"f+	c #6D70D0",
"g+	c #6E71CE",
"h+	c #5557A5",
"i+	c #6164B4",
"j+	c #505295",
"k+	c #1C1D37",
"l+	c #111120",
"m+	c #333462",
"n+	c #6A6DCA",
"o+	c #888CE9",
"p+	c #9B9FF8",
"q+	c #989CF4",
"r+	c #888CF5",
"s+	c #8589F5",
"t+	c #9094FB",
"u+	c #A1A6FF",
"v+	c #A6ABFF",
"w+	c #AEB3FF",
"x+	c #A7ACFE",
"y+	c #8689F3",
"z+	c #8185ED",
"A+	c #7073D6",
"B+	c #777ADB",
"C+	c #787CDA",
"D+	c #6E71C8",
"E+	c #5557A3",
"F+	c #0F0F1D",
"G+	c #353767",
"H+	c #242546",
"I+	c #444683",
"J+	c #6B6EC8",
"K+	c #6568C3",
"L+	c #898DF2",
"M+	c #ADB2FE",
"N+	c #B7BCFF",
"O+	c #ABB0FF",
"P+	c #ADB2FF",
"Q+	c #C2C7FF",
"R+	c #CBD0FF",
"S+	c #9CA0FE",
"T+	c #989CFB",
"U+	c #8E92F6",
"V+	c #777BDD",
"W+	c #6063BA",
"X+	c #5658A6",
"Y+	c #3A3C70",
"Z+	c #0D0D18",
"`+	c #343666",
" @	c #505298",
".@	c #5F62B4",
"+@	c #6A6DC7",
"@@	c #7275DA",
"#@	c #8286F2",
"$@	c #9498FD",
"%@	c #B5BAFF",
"&@	c #CFD4FF",
"*@	c #E6EBFF",
"=@	c #E5EBFF",
"-@	c #C1C6FF",
";@	c #A5AAFE",
">@	c #898DF8",
",@	c #787CE6",
"'@	c #676AC6",
")@	c #5C5EB2",
"!@	c #4D4F95",
"~@	c #444684",
"{@	c #323462",
"]@	c #292A50",
"^@	c #474987",
"/@	c #37386A",
"(@	c #686BC0",
"_@	c #5D5FB0",
":@	c #7275D6",
"<@	c #6F72D6",
"[@	c #7D80EC",
"}@	c #8D91FC",
"|@	c #A7ABFF",
"1@	c #E5EAFF",
"2@	c #9599FD",
"3@	c #8083F0",
"4@	c #6B6ECE",
"5@	c #5A5DAF",
"6@	c #4F5199",
"7@	c #333563",
"8@	c #26284B",
"9@	c #2F305B",
"0@	c #515399",
"a@	c #444583",
"b@	c #5E61B0",
"c@	c #6467BB",
"d@	c #585AAA",
"e@	c #6366BF",
"f@	c #7578DB",
"g@	c #8185EA",
"h@	c #9195F8",
"i@	c #9CA1FE",
"j@	c #9DA2FE",
"k@	c #AAAFFF",
"l@	c #CED4FF",
"m@	c #AEB2FF",
"n@	c #ABAFFF",
"o@	c #6E71D2",
"p@	c #585AA9",
"q@	c #4E5096",
"r@	c #4A4C8E",
"s@	c #343562",
"t@	c #484A87",
"u@	c #505294",
"v@	c #535599",
"w@	c #434581",
"x@	c #5E60B2",
"y@	c #6265BA",
"z@	c #787CD7",
"A@	c #6265BE",
"B@	c #686AC6",
"C@	c #797DDC",
"D@	c #8386E9",
"E@	c #8B8FF2",
"F@	c #7A7DE8",
"G@	c #888CF4",
"H@	c #8C90F9",
"I@	c #A6AAFE",
"J@	c #B8BDFF",
"K@	c #A8ADFF",
"L@	c #9094FC",
"M@	c #8488F5",
"N@	c #9A9EF7",
"O@	c #9EA2F9",
"P@	c #888CE7",
"Q@	c #5B5DAF",
"R@	c #42447F",
"S@	c #141427",
"T@	c #3C3D73",
"U@	c #5B5DA5",
"V@	c #6D70C4",
"W@	c #787BD2",
"X@	c #7F82DE",
"Y@	c #979CF5",
"Z@	c #8D91F1",
"`@	c #797DDD",
" #	c #7377D3",
".#	c #6567C2",
"+#	c #6669C5",
"@#	c #7174D6",
"##	c #868AEF",
"$#	c #7F83EC",
"%#	c #8286F4",
"&#	c #8B8FF9",
"*#	c #9FA4FE",
"=#	c #8B8FF8",
"-#	c #7C7FE8",
";#	c #777AE0",
">#	c #7174D5",
",#	c #6D70C9",
"'#	c #7B7ED4",
")#	c #6E71C5",
"!#	c #41437A",
"~#	c #6366BC",
"{#	c #8D91F3",
"]#	c #BFC4FE",
"^#	c #979BF7",
"/#	c #8A8DEA",
"(#	c #7275D1",
"_#	c #676AC7",
":#	c #7679DD",
"<#	c #8488ED",
"[#	c #8286F0",
"}#	c #8D91FA",
"|#	c #B6BBFF",
"1#	c #7E81ED",
"2#	c #999EFC",
"3#	c #8589F3",
"4#	c #8386EB",
"5#	c #696CCA",
"6#	c #5355A1",
"7#	c #4D4F94",
"8#	c #42437F",
"9#	c #52549B",
"0#	c #4E5196",
"a#	c #4F5196",
"b#	c #585AA6",
"c#	c #777AD7",
"d#	c #6C6FCB",
"e#	c #6467C0",
"f#	c #7B7ED7",
"g#	c #8F93F0",
"h#	c #9498F3",
"i#	c #8488EA",
"j#	c #8084EF",
"k#	c #999DFD",
"l#	c #A0A4FE",
"m#	c #868AF4",
"n#	c #8689F1",
"o#	c #8A8EF4",
"p#	c #6D70D1",
"q#	c #7477D8",
"r#	c #585BAB",
"s#	c #51539D",
"t#	c #20203D",
"u#	c #3B3C72",
"v#	c #6D71C6",
"w#	c #5355A0",
"x#	c #5D5FAF",
"y#	c #6366BD",
"z#	c #878BEA",
"A#	c #A0A5FB",
"B#	c #BBC1FF",
"C#	c #D7DCFF",
"D#	c #8B8FF7",
"E#	c #797CE5",
"F#	c #7679E0",
"G#	c #8C90F3",
"H#	c #5D60B3",
"I#	c #6467BD",
"J#	c #1E1E39",
"K#	c #2B2D54",
"L#	c #585AA2",
"M#	c #5456A0",
"N#	c #41437F",
"O#	c #5D5FB2",
"P#	c #5B5EAF",
"Q#	c #6164BA",
"R#	c #7477DC",
"S#	c #9498FA",
"T#	c #CED3FF",
"U#	c #ABB0FE",
"V#	c #9CA0FC",
"W#	c #8A8EF2",
"X#	c #7174D9",
"Y#	c #8387EA",
"Z#	c #5456A2",
"`#	c #51549B",
" $	c #2C2D55",
".$	c #3F417A",
"+$	c #6669BD",
"@$	c #5A5CAA",
"#$	c #52549D",
"$$	c #5B5EAE",
"%$	c #6F72CE",
"&$	c #797DDF",
"*$	c #787CE4",
"=$	c #AAAFFD",
"-$	c #9195FA",
";$	c #7578D7",
">$	c #8386E3",
",$	c #8488E8",
"'$	c #8487E2",
")$	c #5F61B7",
"!$	c #3E4077",
"~$	c #222342",
"{$	c #55579E",
"]$	c #474988",
"^$	c #3C3E75",
"/$	c #585BA8",
"($	c #595BA6",
"_$	c #5C5FAC",
":$	c #5759A8",
"<$	c #777BE0",
"[$	c #999DF5",
"}$	c #7679DE",
"|$	c #787CDF",
"1$	c #6D70CC",
"2$	c #5658A5",
"3$	c #5B5EB1",
"4$	c #7A7EDD",
"5$	c #6D70C6",
"6$	c #6366B8",
"7$	c #6063B5",
"8$	c #5A5DAB",
"9$	c #424480",
"0$	c #4D4F93",
"a$	c #53559D",
"b$	c #8D91EB",
"c$	c #6F72D1",
"d$	c #6265BC",
"e$	c #6F72CB",
"f$	c #464888",
"g$	c #6264B5",
"h$	c #5456A1",
"i$	c #3C3E74",
"j$	c #444680",
"k$	c #585BA6",
"l$	c #40427B",
"m$	c #38396C",
"n$	c #575AA0",
"o$	c #454784",
"p$	c #2F305A",
"q$	c #5457A3",
"r$	c #51539C",
"s$	c #5457A2",
"t$	c #6467B9",
"u$	c #434582",
"v$	c #484B8C",
"w$	c #5E61AD",
"x$	c #3E3F76",
"y$	c #353664",
"z$	c #444681",
"A$	c #4D4F8E",
"B$	c #6E71C3",
"C$	c #797DD7",
"D$	c #6E72C5",
"E$	c #6365B7",
"F$	c #484A8A",
"G$	c #53569D",
"H$	c #494B8B",
"I$	c #3D3E75",
"J$	c #383A6C",
"K$	c #2B2C53",
"L$	c #31325E",
"M$	c #4F5299",
"N$	c #8487DD",
"O$	c #696CBB",
"P$	c #494B88",
"Q$	c #3A3C6E",
"R$	c #353665",
"S$	c #232343",
"T$	c #31335F",
"U$	c #27294C",
"V$	c #7477CF",
"W$	c #575AA3",
"X$	c #43447E",
"Y$	c #3B3D70",
"Z$	c #343565",
"`$	c #404178",
" %	c #44457E",
".%	c #1D1E39",
"+%	c #1A1B32",
"@%	c #4F5194",
"#%	c #56589F",
"$%	c #373868",
"%%	c #484A88",
"&%	c #292A4E",
"*%	c #27294D",
"=%	c #43457E",
"-%	c #5D60AD",
";%	c #363767",
">%	c #3B3D71",
",%	c #121222",
"  . + @ # $ % & * = - ; > , ' > ) ! + + # ~ { ~ ] # - ^ / (   ^ ",
"] ~ _ : . < [ } | 1 2 3 4 5 6 7 8 ) 9 ; % 0 a b b c _ . d e $ ( ",
"/ / f < g b @ * h i j h k l m n o p q > _ g r b + s t < u d d # ",
"    v b @ g # g ) w x y z A | B C l 1 D E % < F G H < a < d { : ",
"]   d g a 3 F I 9 5 J K L M N O P Q R 4 S } y T U q V r < a r _ ",
"^ d d ! W I - % = - X Y Z `  ...+.@.#.$.z %.&.*.=.y -.g F [ ;.>.",
"] ~ r ;.V + ,.'.).! !.M ..~.{.].^./.` (.Q l _.:.<.[.}.!.} 3 [.| ",
": . b a h g _ |.1.2.3.4.5.6.7.8.9.0.a.b.c.d.e.f.g.R h.> &.i.j.h ",
"F 2 -.V 4 _ V k.l ) l.m.n.o.p.q.r.s.t.u.v.w.x.y.~.$.z.G A.B.o 1 ",
"~ # v , Q %.C.D.$.E.H F.G.H.I.J.r.K.L.M.N.O.P.Q.b.R.S.T.U.L 4.&.",
"a : r g E ` V.$.4.v.| W.X.N.Y.Z.`. +.+++@+#+$+Q.%+&+*+].~._.=+R ",
"v I < f g i.4 -+;+>+,+%+'+)+!+~+{+]+^+/+(+_+:+O.p.<+;+[+}+v.J |+",
"~ ) g % ;.G 1+4 M 2+3+4+5+6+7+8+9+0+a+b+c+d+e+f+g+r.Y.h+i+i+j+-+",
"f + k+l+2.y w 4.R m+[+n+o+p+q+r+s+t+u+v+w+x+y+z+A+B+C+D+E+&+` m.",
"f I F+5 %.|.G+H+&  .I+J+K+A+L+M+N+O+P+Q+R+O+S+T+U+V+W+X+[+Y+A.F.",
"Z++ _ 9 1+l.M  .S.`+ @.@+@++@@#@$@%@&@*@=@-@;@>@,@'@)@!@~@G+{@F.",
"V -.y 9 l.]@C ^@/@~@(@Y._@:@<@[@}@|@-@1@*@&@%@2@3@4@5@6@&+7@N c.",
"K &.E.i.8@9@}+0@a@b@c@d@e@f@g@h@i@j@k@l@Q+m@n@N+w+L+o@p@q@r@w 8 ",
"s@t@u@v@w@{.u.x@y@z@A@B@C@D@E@F@G@H@I@J@K@u+L@M@r+N@O@P@Q@R@_.H ",
"S@l.$.T@U@V@W@X@Y@Z@`@ #.#+#@###$#%#J@2@&#*#=#-#;#>#7+,#'#)#!#7 ",
"C.[.X =+-+7.~#{#]#^#/#(#_#'@:#<#[#}#|#s+1#2#3#4#5#d@6#7#I+8#9#0#",
"3 5 E.S.a#b#.@c#C+d#e#f#g#h#i#j#k#w+l#m#n#o#<#p#q#r#s#~@U <.=+t#",
"} #.Y+' c.u#].v#w#x#w#0.y#5#z#A#B#C#k@D#E#F#G#p#H#I#I+G+i J#) 9 ",
"9@L H z.W.K#L#M#N#o.0.O#P#Q#R#S#|#T#U#V#W#X#Y#L.Z#J.`#n. $8 S [ ",
"i.k+K =+V..$+$U e.@$#$%+$$%$&$*$=$-$h@@@;$>$,$'$)$u.0@!$& l.E _ ",
"z.N X ~$K {$&+n.]$^$/$($_$:$Q@<$[$}$|$1$r#2$3$4$5$6$7$8$N ~$} ).",
"q , l R (.+.9$U.{.0$a$U X.w.3$b$c$H#d$e$Z#f$/.g$h$d.i$j$k$l$z c ",
"l.p | m$n$r@..o$<.p$-+v.` U q$P@r$%+s$q.t$u$u$v$w$V._. $w x$1+G ",
"y$z$A$B$C$M#{._.1+z.$.b.W.T@D$E$@.}+F$^$G$H$I$J$B n.W.X T K$L$9 ",
"k+Z M$N$O$P$Q$R$L$S$H T$U$P V$9$C <..$(.G+W$/@A.X$Y$X h ) [.=+x ",
"K$Z$`$ %u#z..%+%L =+& G+7@@%#%W.G l !$]@K$$%%%Z  $7..%q [.1.! &%",
"%.*%=%o |.l }.D.! C.D.k+9@-%7@G ~$l.w $.H+l 5.;%l.>%l.> ,%C.F 2 "};
