/* XPM */
static char *application_view_list[] = {
/* columns rows colors chars-per-pixel */
"32 32 95 2",
"   c #4D166E75A750",
".  c #4E3A6F8EA87E",
"X  c #4F39709BA90C",
"o  c #5257753AAD2F",
"O  c #54B47827B00E",
"+  c #5D227B50AF80",
"@  c #56BA79A8B1DA",
"#  c #591D7D65B548",
"$  c #5AEB807DB7F6",
"%  c #5D3182AABA5A",
"&  c #606E861DBD68",
"*  c #63E488C0BEE0",
"=  c #69E08A9ABCEA",
"-  c #71EA8C62B9C3",
";  c #74CC947ABFFE",
":  c #7C929544BF3A",
">  c #63958A2AC18C",
",  c #6A738D5EC079",
"<  c #6BD492A3C7DD",
"1  c #6C5A9452CA85",
"2  c #6EFC9895CEB0",
"3  c #74C696CEC7A0",
"4  c #7DCC96EBC0D0",
"5  c #76809874C51F",
"6  c #7FB59882C272",
"7  c #72169647C8C1",
"8  c #73439959CD0D",
"9  c #7B659CC9C976",
"0  c #6FB09A22D13E",
"q  c #73D49DBCD406",
"w  c #78769F61D203",
"e  c #7E7CA1BECEEE",
"r  c #7726A0E2D6C7",
"t  c #7A65A2B4D655",
"y  c #761CA190D9C7",
"u  c #7B4BA58ADAD2",
"i  c #7E7AAA3ADF04",
"p  c #AEB7AEB7AEB7",
"a  c #B109B08BAFBB",
"s  c #B50DB4E3B49F",
"d  c #BC87BC73BC54",
"f  c #C10DC087BFBA",
"g  c #81CA9BF5C55D",
"h  c #834A9F45C9E8",
"j  c #865DA261CBFA",
"k  c #89D8A547CE38",
"l  c #85F1A933D696",
"z  c #8D83A97AD149",
"x  c #82BFAB86DE2C",
"c  c #8AA3AEF4DC4B",
"v  c #9208AE75D71E",
"b  c #91EAAFE1D871",
"n  c #95C0B47DDCEC",
"m  c #9875B782DF91",
"M  c #9941B849E056",
"N  c #8BCBB402E4D8",
"B  c #921DB6DBE410",
"V  c #9BA8BCCAE54E",
"C  c #B4ADC2B7DAC0",
"Z  c #92CDCF29FFFF",
"A  c #9B39D3DCFFFF",
"S  c #BE61CE9BE5E6",
"D  c #A107D73CFFFF",
"F  c #A645DA9BFFFF",
"G  c #C47FC46DC450",
"H  c #CC3BCC06CBC2",
"J  c #D0E2D03BCF72",
"K  c #D1A6D0FFD036",
"L  c #D35ED2E6D25A",
"P  c #D8B0D799D6B9",
"I  c #D9ADD8E3D7CD",
"U  c #DDA9DCA0DBD4",
"Y  c #E176E039DF33",
"T  c #C071D1A8E8F7",
"R  c #D6CCDF1BECD3",
"E  c #C616D8F0F079",
"W  c #D7FDE0BEEE6E",
"Q  c #D953E22EEFA5",
"!  c #DD51E628F2D0",
"~  c #DF8AE92DF5FD",
"^  c #DC8FEF99FF6E",
"/  c #DF14F1C5FFEA",
"(  c #E6A3E6A3E6A3",
")  c #E9E5E920E7D6",
"_  c #ECBEEC9DEC69",
"`  c #F0EFEFF6EEB0",
"'  c #F21AF10DEFB2",
"]  c #E1B9EB33F75B",
"[  c #E15FEC0DF8E4",
"{  c #E37FF447FFFF",
"}  c #F40AF355F28D",
"|  c #F89AF6DCF586",
" . c #F65CFBF5FFBE",
".. c #FC95FD4DFD2B",
"X. c None",
/* pixels */
"X.X.X.X.X.X.X.X.X.X.X.X.X.X.X.X.X.X.X.X.X.X.X.X.X.X.X.X.X.X.X.X.",
"X.X.X.X.X.X.X.X.X.X.X.X.X.X.X.X.X.X.X.X.X.X.X.X.X.X.X.X.X.X.X.X.",
"X.X.l c i u u u u u t r r q q q q q 8 8 2 2 1 1 1 1 5 ; X.X.X.X.",
"* 8 c N x x x x x x i i u u u u u t t t t r w w w w e 9 = X.X.X.",
"t x N B N N N N N N N N N N N N N N N N N N N N N N N l 3 = X.X.",
"x x N N N N N N N N N N N N N N N N N N N N N N N N N x 8 , X.X.",
"i i i i i i i i i i i i i i i i i i i i i i i i i i i t < , X.X.",
"u x B V V V V V V V V V V V V V V V V V V V V V V V V c 7 * X.X.",
"y B E ] ] ] ] ~ [ [ [ [ [ [ [ [ [ [ [ [ [ [ [ [ [ [ [ T h & X.X.",
"y V ~ ..{ {  ...| } } } } } } } } ' ' ' ' ' ` ` ` | ..Q j % X.X.",
"y V ] { F F { | Y L L L L L K J H H H H H H H H H I | Q j % X.X.",
"y V ] { F F { | Y L L L L L L H H H H H H H H H H I | Q j $ X.X.",
"q V ~ ..{ {  ...| } } } } } } } } _ _ _ _ _ _ _ _ } ..W j # X.X.",
"q V ~  .{ {  ...} } } _ _ _ _ _ _ _ _ _ _ _ _ _ ) } ..R h # X.X.",
"q M ~ { D A { | U H H H H H H G G G G G G G G d d L } W h @ X.X.",
"q m ~ { D A { | U H H H H H H G G G G G G G G d d L } W h @ X.X.",
"q m ~  .{ {  ...| } _ _ _ _ _ _ _ _ _ _ _ _ _ _ ) } ..R g @ X.X.",
"q n ~  .{ /  ...} _ _ _ _ _ _ _ ) ) ) ) ) ) ) ( ( _ ..R g O X.X.",
"0 n ~ { A A / } P G G G G G G d d d d d d d s s s H ' R g O X.X.",
"2 n ~ { A A / } P G G G G G G d d d d d d d s s s H ' R g o X.X.",
"1 n !  .{ /  ...} _ _ _ _ _ _ ) ) ) ) ) ) ( ( ( ( _ ..R 4 o X.X.",
"1 b !  ./ ^  ...} _ _ ) ) ) ) ( ( ( ( ( ( ( ( ( ( _ ..R 4 X X.X.",
"< b ! / Z Z ^ ' L G G d d d d s s s s s s s s p p G ` R 4 . X.X.",
"< v ! / Z Z / } L G G f d d d d s s s s s s s a a G ' R :   X.X.",
"< v !  ./ /  ...} _ _ _ _ _ _ _ ) ) ) ) ) ) ) ) ) ' ..R :   X.X.",
"> j S ! ! Q Q Q Q ! Q Q Q W W W W W W R R R R R R R R C -   X.X.",
"@ = h z z k k k k j j j h h g g g g g g 6 6 4 4 : : : - + X X.X.",
"X.@ & > * & & % % $ $ # # @ @ O O o o o o o X X .       X X.X.X.",
"X.X.X.X.X.X.X.X.X.X.X.X.X.X.X.X.X.X.X.X.X.X.X.X.X.X.X.X.X.X.X.X.",
"X.X.X.X.X.X.X.X.X.X.X.X.X.X.X.X.X.X.X.X.X.X.X.X.X.X.X.X.X.X.X.X.",
"X.X.X.X.X.X.X.X.X.X.X.X.X.X.X.X.X.X.X.X.X.X.X.X.X.X.X.X.X.X.X.X.",
"X.X.X.X.X.X.X.X.X.X.X.X.X.X.X.X.X.X.X.X.X.X.X.X.X.X.X.X.X.X.X.X."
};
