/* XPM */
static char *arrow_out[] = {
/* columns rows colors chars-per-pixel */
"32 32 71 1",
"  c #418F8B803E60",
". c #45028EDA4122",
"X c #46C490DC42BE",
"o c #49AA9298458B",
"O c #4D6A99034761",
"+ c #4DD094EF4A1E",
"@ c #4E6599C94938",
"# c #504897654B95",
"$ c #52B79DA34D34",
"% c #55BE9D9950F4",
"& c #59E39E325561",
"* c #5DC19F535997",
"= c #5571A3444EA1",
"- c #57A9A5C450A4",
"; c #5ACEA5DE5451",
": c #5CB0AB9C54CD",
"> c #5E6EA2C859F6",
", c #5F10A9D55832",
"< c #609FAFD3578A",
"1 c #6281A5095DCA",
"2 c #621FACB65AE3",
"3 c #606EB1145771",
"4 c #64B0B30F5C07",
"5 c #6804B4265F45",
"6 c #67E2B9D85DCF",
"7 c #6940BAE85EE9",
"8 c #6683A6D96203",
"9 c #681AA6D463B5",
"0 c #6708A90D6247",
"q c #695FABF163CC",
"w c #6ED9ACD26AE0",
"e c #7171AE6C6D12",
"r c #6BD0B3866450",
"t c #6D9FBDD063AC",
"y c #7158BE696762",
"u c #7385B5CB6CAF",
"i c #7448B9B06C3C",
"p c #74E4B01E7018",
"a c #7671B80F7017",
"s c #79E7B76D733E",
"d c #77D0B8D7700F",
"f c #7B9DBAC2747C",
"g c #7F31BE317801",
"h c #71C2C52D65D9",
"j c #7423C4FD6901",
"k c #79ABC6F16EF6",
"l c #7774C8C36BA2",
"z c #7D23C48E7399",
"x c #7D15C9BE71F5",
"c c #8269BD6D7BA8",
"v c #8114C58C77D6",
"b c #80F7CA90762F",
"n c #863DC26D7E65",
"m c #84C2CAE77B63",
"M c #88A4CA7F7F36",
"N c #89D4BFE78321",
"B c #87BEC1EC80AE",
"V c #8A9BC3468369",
"C c #8C7DCBE58354",
"Z c #9056CF2A85F1",
"A c #935AC78F8CCA",
"S c #954ACDFF8CAA",
"D c #924ED1658885",
"F c #9823D0BD8EF0",
"G c #9774CA4B90A0",
"H c #9991CFCF9088",
"J c #9B86D3009276",
"K c #A5AAD6349D4D",
"L c #A931D76FA099",
"P c #AB8ED8F6A386",
"I c None",
/* pixels */
"jjhhhhhhhhIIIIIIIIIIII644433::::",
"jlxbbxjhhhIIIIIIIIIIII6445rrrr<:",
"hxDJJZkhIIIIIIIIIIIIIIII4rgVVg5:",
"hbJPLJbjIIIIIIIIIIIIIIIIriBAGBr;",
"hbJKKFMzjIIIIIIIIIIIII35ifnVAcr-",
"hxCJJSZCzjIIIIIIIIIIII5rgncccd2-",
"hjxmCSJSMzyIIIIIIIII35igVVgur2;-",
"hhjkbCHHCzy7IIIIIIII35icVnar,===",
"hhIIjzCCMzy6IIIIIIII:5iffur,II==",
"hhIItjzvzzyIIIIIIIIII4rurr2III==",
"IIIIIIyyytIIIIIIIIIIII2222IIIIII",
"IIIIII776IIIIIIIIIIIIII--IIIIIII",
"IIIIIIIIIIIIIIIIIIIIIIIIIIIIIIII",
"IIIIIIIIIIIIIIIIIIIIIIIIIIIIIIII",
"IIIIIIIIIIIIIIIIIIIIIIIIIIIIIIII",
"IIIIIIIIIIIIIIIIIIIIIIIIIIIIIIII",
"IIIIIIIIIIIIIIIIIIIIIIIIIIIIIIII",
"IIIIIIIIIIIIIIIIIIIIIIIIIIIIIIII",
"IIIIIIIIIIIIIIIIIIIIIIIIIIIIIIII",
"IIIIIIIIIIIIIIIIIIIIIIIIIIIIIIII",
"IIIIIII::IIIIIIIIIIIIII@OOIIIIII",
"IIIIII4422IIIIIIIIIIII%%$$IIIIII",
"44III4rrrr2IIIIIIIIII%>11>#oIIXX",
"43II4ridur2-IIIIIIII@%>0q8%@IIXX",
"33:2riccsr,=IIIIIIIIO$>0ee1&#oX.",
"<35rusccuq,=IIIIIIIII$;1we91&#o.",
":5dgsssu2,IIIIIIIIIIII@%18188>+ ",
":rcNcsuq;=IIIIIIIIIIIII+%*1qe8+ ",
":rcVcsq,IIIIIIIIIIIIIIIIo%8ep9+ ",
":2ufsu2-IIIIIIIIIIIIIIII.+>99*o ",
";:222,-==$IIIIIIIIIIIIX..X+++o. ",
";;-=====$$IIIIIIIIIIIIXX..      "
};
