/* XPM */
static char *bullet_delete[] = {
/* columns rows colors chars-per-pixel */
"32 32 152 2",
"   c #B9F33E670000",
".  c #B8453F4A0000",
"X  c #B80E419D00C8",
"o  c #B7A8420D0007",
"O  c #B85A40870000",
"+  c #B85A40CC0000",
"@  c #B8D041590184",
"#  c #BBA240260203",
"$  c #BA7D409902D5",
"%  c #BA924113035D",
"&  c #B8DD426F022F",
"*  c #B91B430F0325",
"=  c #B947435602FB",
"-  c #B85144520303",
";  c #BABB414D03D3",
":  c #B96C458503BE",
">  c #B9E0466F05E3",
",  c #BDB5464406D5",
"<  c #BC9549630319",
"1  c #BCFB49D2033B",
"2  c #BAE14A2A03DF",
"3  c #BFB14BEA0CAB",
"4  c #C1074BFE02A1",
"5  c #C1E24CE802F8",
"6  c #C41C4DA102DC",
"7  c #C2784FC8033A",
"8  c #C5374E410374",
"9  c #C67E4ECB03BF",
"0  c #C7A44E950490",
"q  c #C35B50B4037C",
"w  c #C7034FFF05BB",
"e  c #CD03584102A7",
"r  c #CF3C588801F5",
"t  c #C5C35168090B",
"y  c #C52553E70EBE",
"u  c #C84D50B608AB",
"i  c #D1A95B0402E3",
"p  c #C73B54C20FE9",
"a  c #C2A0540613C3",
"s  c #C2EA57431753",
"d  c #C573562813E1",
"f  c #C573584D1892",
"g  c #C8065C241CCC",
"h  c #C65C5BE71DA0",
"j  c #C76A5D2A1E2A",
"k  c #D81160BE01F4",
"l  c #DB5B623B00DC",
"z  c #DD826515021A",
"x  c #DB6E63630520",
"c  c #DCFE684C038A",
"v  c #DEBF6C2D0A08",
"b  c #DD496C3A1519",
"n  c #D76E69741CD1",
"m  c #E63F6BD60000",
"M  c #E68E6C1000AC",
"N  c #E09E69EE0A4C",
"B  c #EDEF70D50000",
"V  c #ECA474450000",
"C  c #EF9E789F0680",
"Z  c #F38C73810000",
"A  c #F7A7762B0439",
"S  c #F9F979440EB0",
"D  c #E29A70E716F1",
"F  c #EA3479D21570",
"G  c #EEFF78D014D7",
"H  c #C6D95F9921B4",
"J  c #C9D05E0A20A7",
"K  c #C5F5602A2169",
"L  c #CD2863F120B5",
"P  c #CA0B6177255D",
"I  c #C921615D26E9",
"U  c #CBA9612527FD",
"Y  c #C970624127EB",
"T  c #CA6C62B2295D",
"R  c #CAF163D32966",
"E  c #CBDB62B12AE4",
"W  c #CBA865242D95",
"Q  c #CDF0679F2E52",
"!  c #CEBD6AE82A62",
"~  c #CCF569C62E0A",
"^  c #D0106BEC2E18",
"/  c #DA8773BF2E86",
"(  c #CD1B6780315F",
")  c #CE6C689630C1",
"_  c #D0A170DA33CB",
"`  c #DABD7630313B",
"'  c #DCF37E693CF4",
"]  c #E7AD772322C2",
"[  c #E15577F72A45",
"{  c #D5C37A144243",
"}  c #D6687A8442A7",
"|  c #F72D80E5258E",
" . c #EB1E86EC3AF2",
".. c #F0A88FF03329",
"X. c #F8618B92347A",
"o. c #FF618D5B319F",
"O. c #FFFF8D463441",
"+. c #F1DD94603E1F",
"@. c #FFFD904E3EE9",
"#. c #DFD1801943D6",
"$. c #EF108B5A4581",
"%. c #E0A887B64DE3",
"&. c #F34F916140B2",
"*. c #F5829AB8422C",
"=. c #F9409A254198",
"-. c #FC7D9B0D44D1",
";. c #F4DB9C644CEF",
":. c #FFFF9B374D61",
">. c #FF139E704D71",
",. c #E2DC8E07590F",
"<. c #F05295305279",
"1. c #E98692B25C97",
"2. c #FF7C96A1511D",
"3. c #FC499F7C51B5",
"4. c #FFFF9CF25552",
"5. c #FFFFA24D556F",
"6. c #FF25A4705D6F",
"7. c #E2F89211618F",
"8. c #E4C7934762FA",
"9. c #EA1C9BE068FA",
"0. c #FB309E0663C7",
"q. c #FC1FA9EB6B83",
"w. c #FFFFA8396DE5",
"e. c #EADAA1697631",
"r. c #ED17A2D176B8",
"t. c #EC8CA5327B07",
"y. c #ED82A7D87F80",
"u. c #F342A3677209",
"i. c #F2CDA46873A4",
"p. c #FBB7AAAF7157",
"a. c #ED3AACCA83E6",
"s. c #EE0AAFFD8A1F",
"d. c #FD13B3F6848C",
"f. c #FF5EB40184CC",
"g. c #FF22BA8B85B7",
"h. c #FF6BBDF58E53",
"j. c #FCB6BCE39533",
"k. c #F92BC9A19BD1",
"l. c #FCD1CEB3A5EA",
"z. c #FF89CE49ACDC",
"x. c #FFD8D480B92F",
"c. c #FFFFDDD0C355",
"v. c #FE1FE371CA3F",
"b. c #FEF6E2D9C97B",
"n. c #FD08E456CBB1",
"m. c #FFBCE402CC1F",
"M. c #FFFFE33DCD4A",
"N. c #FFFFE2F1CE30",
"B. c #FFFFE2F2D095",
"V. c #FFFFE681D196",
"C. c #FFFFE6FAD6A9",
"Z. c None",
/* pixels */
"Z.Z.Z.Z.Z.Z.Z.Z.Z.Z.Z.Z.Z.Z.Z.Z.Z.Z.Z.Z.Z.Z.Z.Z.Z.Z.Z.Z.Z.Z.Z.Z.",
"Z.Z.Z.Z.Z.Z.Z.Z.Z.Z.Z.Z.Z.Z.Z.Z.Z.Z.Z.Z.Z.Z.Z.Z.Z.Z.Z.Z.Z.Z.Z.Z.",
"Z.Z.Z.Z.Z.Z.Z.Z.Z.Z.Z.Z.Z.Z.Z.Z.Z.Z.Z.Z.Z.Z.Z.Z.Z.Z.Z.Z.Z.Z.Z.Z.",
"Z.Z.Z.Z.Z.Z.Z.Z.Z.Z.Z.Z.Z.Z.Z.Z.Z.Z.Z.Z.Z.Z.Z.Z.Z.Z.Z.Z.Z.Z.Z.Z.",
"Z.Z.Z.Z.Z.Z.Z.Z.Z.Z.Z.Z.Z.Z.Z.Z.Z.Z.Z.Z.Z.Z.Z.Z.Z.Z.Z.Z.Z.Z.Z.Z.",
"Z.Z.Z.Z.Z.Z.Z.Z.Z.Z.Z.Z.Z.Z.Z.Z.Z.Z.Z.Z.Z.Z.Z.Z.Z.Z.Z.Z.Z.Z.Z.Z.",
"Z.Z.Z.Z.Z.Z.Z.Z.Z.Z.Z.Z.Z.Z.Z.Z.Z.Z.Z.Z.Z.Z.Z.Z.Z.Z.Z.Z.Z.Z.Z.Z.",
"Z.Z.Z.Z.Z.Z.Z.Z.Z.Z.Z.Z.Z.Z.Z.Z.Z.Z.Z.Z.Z.Z.Z.Z.Z.Z.Z.Z.Z.Z.Z.Z.",
"Z.Z.Z.Z.Z.Z.Z.Z.Z.Z.Z.Z.Z.Z.Z.Z.Z.Z.Z.Z.Z.Z.Z.Z.Z.Z.Z.Z.Z.Z.Z.Z.",
"Z.Z.Z.Z.Z.Z.Z.Z.Z.Z.Z.Z.Z.Z.Z.Z.Z.Z.Z.Z.Z.Z.Z.Z.Z.Z.Z.Z.Z.Z.Z.Z.",
"Z.Z.Z.Z.Z.Z.Z.Z.Z.Z.Z.Z.3 , #   O o Z.Z.Z.Z.Z.Z.Z.Z.Z.Z.Z.Z.Z.Z.",
"Z.Z.Z.Z.Z.Z.Z.Z.Z.Z.Z.R Q ) ( W P j s Z.Z.Z.Z.Z.Z.Z.Z.Z.Z.Z.Z.Z.",
"Z.Z.Z.Z.Z.Z.Z.Z.Z.Z.~ } 8.t.s.a.9.%._ K Z.Z.Z.Z.Z.Z.Z.Z.Z.Z.Z.Z.",
"Z.Z.Z.Z.Z.Z.Z.Z.Z.I { ,.u.d.h.g.q.<.' ! a Z.Z.Z.Z.Z.Z.Z.Z.Z.Z.Z.",
"Z.Z.Z.Z.Z.Z.Z.Z.= Y 7.i.0.2.@.O.o.X. .` d X Z.Z.Z.Z.Z.Z.Z.Z.Z.Z.",
"Z.Z.Z.Z.Z.Z.Z.Z.. T e.j.f.w.4.:.5.3.&.[ p @ Z.Z.Z.Z.Z.Z.Z.Z.Z.Z.",
"Z.Z.Z.Z.Z.Z.Z.Z.  E y.x.B.C.N.M.V.l.;.D u $ Z.Z.Z.Z.Z.Z.Z.Z.Z.Z.",
"Z.Z.Z.Z.Z.Z.Z.Z.  U r.z.c.m.b.v.n.k.+.N 0 % Z.Z.Z.Z.Z.Z.Z.Z.Z.Z.",
"Z.Z.Z.Z.Z.Z.Z.Z.+ J 1.p.6.>.-.=.*...F x 8 * Z.Z.Z.Z.Z.Z.Z.Z.Z.Z.",
"Z.Z.Z.Z.Z.Z.Z.Z.: g #.$.| S A Z B M z i 5 - Z.Z.Z.Z.Z.Z.Z.Z.Z.Z.",
"Z.Z.Z.Z.Z.Z.Z.Z.Z.h ^ / ] G C V m l e q 1 Z.Z.Z.Z.Z.Z.Z.Z.Z.Z.Z.",
"Z.Z.Z.Z.Z.Z.Z.Z.Z.Z.H L n b v c k r 7 2 Z.Z.Z.Z.Z.Z.Z.Z.Z.Z.Z.Z.",
"Z.Z.Z.Z.Z.Z.Z.Z.Z.Z.Z.f y t w 9 6 4 < Z.Z.Z.Z.Z.Z.Z.Z.Z.Z.Z.Z.Z.",
"Z.Z.Z.Z.Z.Z.Z.Z.Z.Z.Z.Z.> & % ; * - Z.Z.Z.Z.Z.Z.Z.Z.Z.Z.Z.Z.Z.Z.",
"Z.Z.Z.Z.Z.Z.Z.Z.Z.Z.Z.Z.Z.Z.Z.Z.Z.Z.Z.Z.Z.Z.Z.Z.Z.Z.Z.Z.Z.Z.Z.Z.",
"Z.Z.Z.Z.Z.Z.Z.Z.Z.Z.Z.Z.Z.Z.Z.Z.Z.Z.Z.Z.Z.Z.Z.Z.Z.Z.Z.Z.Z.Z.Z.Z.",
"Z.Z.Z.Z.Z.Z.Z.Z.Z.Z.Z.Z.Z.Z.Z.Z.Z.Z.Z.Z.Z.Z.Z.Z.Z.Z.Z.Z.Z.Z.Z.Z.",
"Z.Z.Z.Z.Z.Z.Z.Z.Z.Z.Z.Z.Z.Z.Z.Z.Z.Z.Z.Z.Z.Z.Z.Z.Z.Z.Z.Z.Z.Z.Z.Z.",
"Z.Z.Z.Z.Z.Z.Z.Z.Z.Z.Z.Z.Z.Z.Z.Z.Z.Z.Z.Z.Z.Z.Z.Z.Z.Z.Z.Z.Z.Z.Z.Z.",
"Z.Z.Z.Z.Z.Z.Z.Z.Z.Z.Z.Z.Z.Z.Z.Z.Z.Z.Z.Z.Z.Z.Z.Z.Z.Z.Z.Z.Z.Z.Z.Z.",
"Z.Z.Z.Z.Z.Z.Z.Z.Z.Z.Z.Z.Z.Z.Z.Z.Z.Z.Z.Z.Z.Z.Z.Z.Z.Z.Z.Z.Z.Z.Z.Z.",
"Z.Z.Z.Z.Z.Z.Z.Z.Z.Z.Z.Z.Z.Z.Z.Z.Z.Z.Z.Z.Z.Z.Z.Z.Z.Z.Z.Z.Z.Z.Z.Z."
};
