/* XPM */
static char *clock[] = {
/* columns rows colors chars-per-pixel */
"32 32 256 2",
"   c #2B195711796E",
".  c #DD159F200F59",
"X  c #CA2299561E4C",
"o  c #F4F5B4750000",
"O  c #E6F7AB0E1B20",
"+  c #EE68B36C1976",
"@  c #F03EB4EA1763",
"#  c #F3A8BB981CAE",
"$  c #F193B66A19C7",
"%  c #E96DA87D0624",
"&  c #C4159A992B6D",
"*  c #C2879DEF377B",
"=  c #DD95A6D72546",
"-  c #D528A55C2E38",
";  c #E47AAB2623E8",
":  c #EBE1B45B28CC",
">  c #F58ABEE12220",
",  c #F058C0243FB5",
"<  c #F26CC01E3879",
"1  c #F67FC35E2F5A",
"2  c #F539C36D3798",
"3  c #B70E9DCB47F2",
"4  c #BEB2A3854CE5",
"5  c #BEF8B20F6E55",
"6  c #B683B3E772ED",
"7  c #C018B4C67044",
"8  c #AF2BA9277182",
"9  c #DD0AB9A74923",
"0  c #DB4CB4474482",
"q  c #C29CAE445A3A",
"w  c #C158A97354EC",
"e  c #C6B1B3DC5D4B",
"r  c #CC2CB55C5913",
"t  c #D8B7B8A55607",
"y  c #E7FDBA964514",
"u  c #E549BC90548B",
"i  c #C571BA536DB6",
"p  c #D3CBB9FC623F",
"a  c #EDF3C4A84939",
"s  c #F35EC5984A47",
"d  c #EC1FC1B35949",
"f  c #F634CF105E59",
"g  c #F331C96C5685",
"h  c #E052C2CC5FE8",
"j  c #E4E6C4EA688D",
"k  c #ECDFCB966AAD",
"l  c #EA06C7BC668B",
"z  c #F416CD5E6489",
"x  c #F2FACD3369F3",
"c  c #F50ED07A6B85",
"v  c #EE72CE6A78CE",
"b  c #EDF3CD8B715A",
"n  c #F035D06B7B6E",
"m  c #F39ED33B7A97",
"M  c #2D865D38876A",
"N  c #2FFE5EB3874B",
"B  c #38B46A959321",
"V  c #31C067369D5C",
"C  c #370668FD9A30",
"Z  c #3E5C71139C14",
"A  c #32F768F0A182",
"S  c #443271129707",
"D  c #5D747BF996CA",
"F  c #61AB7F369874",
"G  c #421875D6A450",
"H  c #421C74B1ACDC",
"J  c #46327B04A95E",
"K  c #492C781CA7BD",
"L  c #59907ECAA1BE",
"P  c #52337E68A8AC",
"I  c #43AD7638B386",
"U  c #4A7C7FACB1BD",
"Y  c #7D68854486C7",
"T  c #625E83319E46",
"R  c #4A9180CEAF5C",
"E  c #59988234A994",
"W  c #4CC083C6B336",
"Q  c #4EF38912B9EB",
"!  c #53DC8381B421",
"~  c #5AC5861EB448",
"^  c #5EA68A33B623",
"/  c #5E41865CBAE0",
"(  c #544A8BD6BBDA",
")  c #5BE08C4DBB51",
"_  c #5E0A90C7BFE0",
"`  c #66E786D2A33B",
"'  c #64EB897AAD84",
"]  c #7D6B96E5AD15",
"[  c #77E391EFA76B",
"{  c #61FD86D8BE76",
"}  c #617D8C26BDC0",
"|  c #69D68DC3B2F8",
" . c #691F9306BBDE",
".. c #795196B0B306",
"X. c #5B7A945BC345",
"o. c #581D965BCADC",
"O. c #5C8A997FCC1B",
"+. c #576A93F8C624",
"@. c #648894C5C44F",
"#. c #6AFB9526C48B",
"$. c #62D99A3DC721",
"%. c #62CA9D82CC48",
"&. c #6BEE9CFCCB3E",
"*. c #6E52967BC930",
"=. c #719F9A1FC6DF",
"-. c #75899CFCCB93",
";. c #7C2A9F11CB96",
":. c #6B88A2E3CC77",
">. c #649BA023CF60",
",. c #736FA3EFCE83",
"<. c #7C48A261CEAF",
"1. c #75F1A8C4CA80",
"2. c #6E24A70DD136",
"3. c #69E5A4DDD26A",
"4. c #7AF0A6E6D084",
"5. c #738EA9ADD26E",
"6. c #7CE1ABA3D4F2",
"7. c #7DAEB1B3D87A",
"8. c #7204BC33FDCE",
"9. c #7E5AC242F749",
"0. c #7C93C1CEF915",
"q. c #916F9F7D8870",
"w. c #8A5793169527",
"e. c #8D86969F98FD",
"r. c #94FC9D529F07",
"t. c #8F5FA10C8FE8",
"y. c #9101A6659B15",
"u. c #ABFDB1A4887A",
"i. c #B39CB8928781",
"p. c #A945BA709C00",
"a. c #A8D9B645962F",
"s. c #95479F1CA17C",
"d. c #88A89F59B771",
"f. c #8B2AA61BA1FD",
"g. c #9B40A334A468",
"h. c #9F07A62CAB68",
"j. c #98E6AB5CAAB3",
"k. c #8BECAFF1BA0F",
"l. c #99F5A944B8B5",
"z. c #98BAB8C2BF69",
"x. c #A286A286A286",
"c. c #A300ABD6AEC1",
"v. c #AD82AD84AD7B",
"b. c #A665BD4EAB02",
"n. c #A4A4B48AB274",
"m. c #ADB9B6E3BB8C",
"M. c #AA78B461BAC3",
"N. c #B4E3B4C2B4A4",
"B. c #BA32BCEEBCF6",
"V. c #A661C042B056",
"C. c #E7D7CD8081D4",
"Z. c #F435D6558591",
"A. c #F736DACA883E",
"S. c #F44FDAB69233",
"D. c #F5E4DE4699E0",
"F. c #F7BFE0839D4D",
"G. c #F831E2EBA406",
"H. c #818DA409CD3C",
"J. c #8CA5A73ACF01",
"K. c #8061AF7CCE25",
"L. c #8820B91ECF76",
"P. c #97CBBBA1C77E",
"I. c #841CA782D34C",
"U. c #8ACEAC55D5B1",
"Y. c #8929AF3BD74E",
"T. c #9373AA00D1E2",
"R. c #8C3BB41FD691",
"E. c #8E55B44ADAF0",
"W. c #8A91BEA6D8D1",
"Q. c #95AEB53FDA56",
"!. c #9D08B67CDB0D",
"~. c #9491BB40DCC2",
"^. c #9B18BB5ADE1A",
"/. c #9678B9C3D4E1",
"(. c #AB3EB626C163",
"). c #A2DBBF79C342",
"_. c #B64DBF02C360",
"`. c #A361BECDDE7B",
"'. c #A953BCF8DD1C",
"]. c #9581BC7FE1EE",
"[. c #9D95C108C3D1",
"{. c #9BD1C3C4CBE7",
"}. c #953FC1C7CFB1",
"|. c #9E6AC32BDDC8",
" X c #97F5C411D561",
".X c #B6C8C1A9C53E",
"XX c #BD40CA37CD81",
"oX c #B86AC410C9B0",
"OX c #A367C29FDF82",
"+X c #ABBEC14EDF19",
"@X c #A22FC90BD9CB",
"#X c #BD8ECCD0D403",
"$X c #8EF1C6EFE659",
"%X c #8F0DCA31EE53",
"&X c #94C5C6BFE6AB",
"*X c #9BE6C57AE3BC",
"=X c #9CE0CA25E424",
"-X c #933ACB7FED4E",
";X c #9A45CABCE947",
":X c #A28DC4DBE3D0",
">X c #ABFBC4EBE247",
",X c #A580CA06E52A",
"<X c #AD5BC9BFE6E2",
"1X c #A398CBE9E92B",
"2X c #B132C7D2E3FD",
"3X c #B265C9C4E566",
"4X c #BAA6CD16E545",
"5X c #B55ED4BDED78",
"6X c #BC7ED43CEB2B",
"7X c #BBA0DA44EF96",
"8X c #B33BD54EF0B3",
"9X c #C4F5C486C3FF",
"0X c #CB11CAB8CA1F",
"qX c #C5A6CDB4CE85",
"wX c #CDF3D9FDDD56",
"eX c #CBD8D4A2D652",
"rX c #D468D3CED330",
"tX c #D50FDD51DE2F",
"yX c #DB76DF99DFBC",
"uX c #C1A0D22FE766",
"iX c #C4C7D3E3EA19",
"pX c #C35FDB2DEEC4",
"aX c #CE70DB2FECAF",
"sX c #C8DAD934E6A3",
"dX c #D50BDE7BEDE3",
"fX c #CCB0DE7EF0B7",
"gX c #C1D5DB42F134",
"hX c #CC8AE461EDF7",
"jX c #D51BE2B9E759",
"kX c #DC47E25EE2A0",
"lX c #D59CE226ECCB",
"zX c #DC0FEB7CEEC5",
"xX c #DAE8E1A2EF8C",
"cX c #CF0AE179F1BD",
"vX c #C402E43BF75D",
"bX c #D610E33DF1CE",
"nX c #D37EEB37F642",
"mX c #D32CED6BFAAB",
"MX c #DA87EEB6F8EE",
"NX c #DDACE83AF268",
"BX c #DB96F1CCFCAA",
"VX c #DACDF1F0F941",
"CX c #E63FEBB4ED45",
"ZX c #E4DAEE11F58B",
"AX c #EB45EF7CF30A",
"SX c #E720F280F57A",
"DX c #ECE5F3A3F563",
"FX c #E557F55CFBCF",
"GX c #EC29F734FC8E",
"HX c #E573FA3AFFD9",
"JX c #EDC3FC3DFEC8",
"KX c #F140F771FC16",
"LX c #F574FCA9FDF4",
"PX c #FA8DFE76FEEE",
"IX c #F61FF726F66D",
"UX c None",
/* pixels */
"UXUXUXUXUXo o o o o UXUXUXUXUXUXUXUXUXUXUXUXo o o o UXUXUXUXUXUX",
"UXUXUXUXUX> 1 1 > # UXUXUXUXUXUXUXUXUXUXUXUX# # > # UXUXUXUXUXUX",
"UXUXUX$ 2 z A.A.f a 0 6 L.8.8.8.8.8.8.L.6 9 a g f s # UXUXUXUXUX",
"UXUX@ < z A.G.D.k t i p.W.0.9.9.9.9.0.W.p.i h z m c < @ UXUXUXUX",
"UXUX, z S.F.Z.k 9 e b. X$X%X-X-X-X-X%X$X}.p.r y b m z a + UXUXUX",
"UX: g m D.S.l t e i.{.-X-X;X=X*X*X*X&X&X&X[.6 r j v Z.x : % UXUX",
"UX: z m n j 0 q p.{.=X1X:X|.^.Q.Q.Q.^.*X=X@XV.i.p j S.Z.y O UXUX",
"UX; d d u t q u.[.;X1X<X3X2X+X'.'.'.>X>X,X@X Xb.7 p C.v y O UXUX",
"UXUX; = - w a.P.|.,X>X3XiXdXlXlXlXdXaXuX>X`.|.).a.5 r 0 = . UXUX",
"UXUXX & 3 8 P.&X:X>X4XsXxXZXAXDXDXDXZXbXiX2X:X/.n.u.8 4 * & UXUX",
"UXUXUXq.f.k./.*X`.4XNXDXAXCXCXAXKXLXLXGXFXcX>XQ./.z.j.y.t.UXUXUX",
"UXUXUX:.5.7.~.OX>XiXDXPXIXCXtXtXDXPXPXLXDXlX3X^.~.R.K.1.:.UXUXUX",
"UXUXO.>.2.7.E.OX6XbXGXPXIXkXB._.kXKXPXDXeX#X4X<X~.Y.6.5.>.O.UXUX",
"UXUXo.%.2.6.R.`.aXZXGXLXLXyXc.g.qXkXtXeX.XoXiX5XQ.4.5.2.%.o.UXUX",
"UXUX+.O.:.4.I.`.lXGXGXLXPXkXg.w.n.m.g.g.m.#XhX7XU.-.,.:.O.+.UXUX",
"UXUX( X.&.,.<.!.bXGXGXLXLXtXr.Y e.r.w.s..XsXnX7XU.*.&.&.X.( UXUX",
"UXUXQ ( $.&.;.!.cXGXGXGXGXwXg.Y Y w.c.XXjXVXVX5XI.#.&.$.( Q UXUX",
"UXUXW ( X.&.-.Q.pXFXFXGXFXwXc.e.e.h.XXjXFXHXmX5XI.#.@.X.( W UXUX",
"UXUXR W ( @.-.Q.6XnXFXHXFXjX.Xm.XXwXzXFXHXBXvX1XI.#.@.( W R UXUX",
"UXUXJ R ( _ =.U.:XgXBXJXGXNXwXwXzXFXJXJXHXmX8X].<.#.) ( R J UXUX",
"UXUXUXJ W ( #.<.Y.<XMXJXJXGXSXSXGXJXJXJXJXnX*X6.-. .( W J UXUXUX",
"UXUXUXG J W ) #.<.Q.pXMXFXGXLXLXLXLXGXFXMX7XE.&.@.) R J G UXUXUX",
"UXUXUXUXZ G U ) #.H.Q.3XfXZXKXPXLXKXZXfX<XQ.<.@.( U G Z UXUXUXUX",
"UXUXUXUXB Z J ! ) #.-.U.>XuXaXdXdXaXuX+XU.-.#.^ ! J Z B UXUXUXUX",
"UXUXUXUXUXS L E U ! } =.H.J.T.T.T.J.J.;.#.} ^ ~ E L S UXUXUXUXUX",
"UXUXUXUXUX` ] ] | ~ ! ~ / { { { { / / ~ ~ ^  ...] [ T UXUXUXUXUX",
"UXUXUXUXUXUX.X_.(.d.E G H H I I I I H H K ' l.(.m.m.UXUXUXUXUXUX",
"UXUXUXUXUX0XrXrX9Xl.L C V V A A A A V V Z ` M.9X0X0X9XUXUXUXUXUX",
"UXUXUXUXN.9XrXrX9Xh.D M M M M M M M M M N F c.9XrXrX9XN.UXUXUXUX",
"UXUXUXUXv.N.9X0XB.h.UXUX                UXUXh.B.0X9XN.v.UXUXUXUX",
"UXUXUXUXx.v.v.N.v.UXUXUXUXUXUXUXUXUXUXUXUXUXUXUXN.v.v.x.UXUXUXUX",
"UXUXUXUXx.x.x.x.UXUXUXUXUXUXUXUXUXUXUXUXUXUXUXUXx.x.x.x.UXUXUXUX"
};
