/* XPM */
static char *film[] = {
/* columns rows colors chars-per-pixel */
"32 32 246 2",
"   c #04E804E904E8",
".  c #0BE20B630BE3",
"X  c #11010DC80E38",
"o  c #12B8101A0F2C",
"O  c #0E9F0D141012",
"+  c #13F513701360",
"@  c #169E16BF18EB",
"#  c #1ACC1AF61BE9",
"$  c #1F9F1FC32103",
"%  c #23C323BC23F5",
"&  c #2AD72F112673",
"*  c #28E427842A0F",
"=  c #2BCC2B732BEE",
"-  c #30E32E712EC5",
";  c #2E9F3C8A2183",
":  c #2F952DE53098",
">  c #33AC32D13340",
",  c #38BA378937B1",
"<  c #39C93E9135B3",
"1  c #3A6C370C3A78",
"2  c #3B993B533BBE",
"3  c #40783D1E3F5E",
"4  c #2C6242AE2866",
"5  c #23F63FFF3C96",
"6  c #3F635F873D81",
"7  c #3EA161113F6F",
"8  c #40D6446A3E0D",
"9  c #45CD55E13813",
"0  c #47D353B33EFE",
"q  c #43285E553D73",
"w  c #48EB5CE83EC5",
"e  c #5EFB57C23682",
"r  c #54795230392D",
"t  c #3CD93DA04124",
"y  c #43133F15402C",
"u  c #248140494A6A",
"i  c #3FA4401041F3",
"p  c #2FB244AC4EB8",
"a  c #3D0C5ACA5737",
"s  c #3DBD6274443B",
"d  c #3CF763C04C37",
"f  c #3CB95916636E",
"g  c #439343234399",
"h  c #47CD45354496",
"j  c #4754476B47D5",
"k  c #40494AD2486E",
"l  c #4BA94B874B9E",
"z  c #4FE34DEF4CA9",
"x  c #51DB5006414B",
"c  c #5E855A744094",
"v  c #4F7A4F99501D",
"b  c #51CC4F365306",
"n  c #54C153B45498",
"m  c #571654AD5919",
"M  c #594D565E59AC",
"N  c #5CEB5BF25CA3",
"B  c #477A609743B0",
"V  c #52F760484527",
"C  c #56B565384A53",
"Z  c #41D366435B4E",
"A  c #5BD667195315",
"S  c #56EE7898565C",
"D  c #5BEE78C6561A",
"F  c #557F7A1C5C0D",
"G  c #74936CF64CDF",
"H  c #66BF633B53D8",
"J  c #6C1269E7516A",
"K  c #672A648F599C",
"L  c #6E086AB95BF7",
"P  c #714C6B68526C",
"I  c #660976EC5656",
"U  c #664E78A35558",
"Y  c #681A7A1955A1",
"T  c #6727761E5BE9",
"R  c #691C76C15CE2",
"E  c #63F47AAE5945",
"W  c #6A5B790A5F14",
"Q  c #47C05CDC66F8",
"!  c #61585DE36032",
"~  c #583662BB6064",
"^  c #54817AD563AE",
"/  c #4C7A69C0703C",
"(  c #57A3693C74AA",
")  c #5FB56C9D7542",
"_  c #5CC06E017B57",
"`  c #595F7B17701A",
"'  c #6453637F63A3",
"]  c #65F1695E625A",
"[  c #68DA67EB675A",
"{  c #610065BC69D2",
"}  c #659C69B56C74",
"|  c #6C416C366C2F",
" . c #6D1370BD6619",
".. c #6D6B72486CB7",
"X. c #761E745E63B1",
"o. c #78E175076100",
"O. c #7A39776368C5",
"+. c #60DC6E327307",
"@. c #60D26FBF79B3",
"#. c #66B474557C97",
"$. c #62D27A767E92",
"%. c #708370837083",
"&. c #3FA8A79652B5",
"*. c #38E5A5E364FD",
"=. c #3993BFBE665A",
"-. c #694D9490409C",
";. c #77289C0A5BB7",
":. c #471DA91F49A2",
">. c #4EADAA7148FC",
",. c #4DFBB02B5079",
"<. c #468CAE6D59D0",
"1. c #55A8B2014FE0",
"2. c #6060AFA34F3E",
"3. c #721CA0C84A49",
"4. c #6494A84B5847",
"5. c #683BB93E5763",
"6. c #7994B6205AA3",
"7. c #3FD9AC7A6C18",
"8. c #6F53B65D6463",
"9. c #3F61C40148AF",
"0. c #3DA6C4025CC6",
"q. c #4683C76D4B64",
"w. c #599FCDD44E87",
"e. c #7C92D9714F6F",
"r. c #64D4CFE353A9",
"t. c #66C1CDC05F1A",
"y. c #621ED0AD5074",
"u. c #7561D6535192",
"i. c #7D0EDA3950C3",
"p. c #74FFD8715A77",
"a. c #4591C18262C7",
"s. c #64A3CA8B6FAF",
"d. c #6F3FD20A60B9",
"f. c #697ECCEA76A4",
"g. c #867CBE8F545A",
"h. c #8662BE3259CF",
"j. c #A6979BC26B56",
"k. c #A4A99F9F7520",
"l. c #82EFA9C4666E",
"z. c #877CBCCE6082",
"x. c #8986BF27620E",
"c. c #8D4CBE2A6BFC",
"v. c #9130BF436F96",
"b. c #B70AB1BD6CB5",
"n. c #BAD5B4F273E5",
"m. c #CFCEBC836032",
"M. c #CB81B9D76CFE",
"N. c #D403BEA26180",
"B. c #C35FB70075E2",
"V. c #CA27BF53770E",
"C. c #8734C20D53A8",
"Z. c #8361DC725D23",
"A. c #8384C3406566",
"S. c #8DC5C0406B0F",
"D. c #908DC1B06C66",
"F. c #86FDDB0E6348",
"G. c #8AA2DDFE64C9",
"H. c #8496DAD46CCA",
"J. c #90D1DF97644F",
"K. c #91B0C11170D2",
"L. c #83FEDCCD71D5",
"P. c #9559E2DF6AE3",
"I. c #9B00E2F66EDE",
"U. c #9B9AE4F6727F",
"Y. c #EFC0DF1D7B28",
"T. c #F0E5E40C7FC2",
"R. c #5C096F2D8028",
"E. c #3F2B8F13ABD6",
"W. c #442C96748BDA",
"Q. c #4258A82F8AFA",
"!. c #48C9AB218C77",
"~. c #432DBD128B17",
"^. c #4C6BA08595D4",
"/. c #465A96D5B3CE",
"(. c #599695CDB2F2",
"). c #67A29286AC9A",
"_. c #63D896CAB7FF",
"`. c #609D9CF5BA2B",
"'. c #5AD1AC98BF6F",
"]. c #5588BAC6BEB4",
"[. c #5FF7A8DBB638",
"{. c #75E8A16AB187",
"}. c #3F6BC3768269",
"|. c #58A2C20D9888",
" X c #6053C6498728",
".X c #6400C71B917E",
"XX c #4C89C336ADEF",
"oX c #5070C3ABA70C",
"OX c #5C99C27DA382",
"+X c #56FAC135ADD9",
"@X c #4E11C6C0B3FC",
"#X c #6244C128BF4B",
"$X c #64A99E21C666",
"%X c #69B89FFFC553",
"&X c #5986BE12C8BA",
"*X c #4CFEB46CD65D",
"=X c #50E9B74AD148",
"-X c #6B48A251C68A",
";X c #7880AC04C410",
":X c #6B74AA5AD792",
">X c #65BDA836D8E1",
",X c #6DE4AC39D872",
"<X c #6161BEB3D456",
"1X c #7F3ABFC6DB73",
"2X c #5F98BC21E3BA",
"3X c #5E02B9A1EDE8",
"4X c #687BB9FBE54A",
"5X c #630CBBC7EF37",
"6X c #6A44BC08F6E5",
"7X c #661ABD15FDA9",
"8X c #6847BF73FFFF",
"9X c #7144BE4EF3CD",
"0X c #5EB3C27ECA9D",
"qX c #62F8C560D4BD",
"wX c #6407C130DA57",
"eX c #6434C8B4DA3E",
"rX c #6BC1C29EEB39",
"tX c #66B0CAE1EA27",
"yX c #7A16C262E856",
"uX c #7B0CC5DDEBA7",
"iX c #6C30C32CFF28",
"pX c #71D3C2FCF22E",
"aX c #7120CBB1F869",
"sX c #7155C48CFB1E",
"dX c #74CFC961FF81",
"fX c #9D03A98A8809",
"gX c #832FA1E39C60",
"hX c #9FBDB3EA9B41",
"jX c #BB57BC50884F",
"kX c #8A01A8C3A35F",
"lX c #B109C9C7A569",
"zX c #AE75CDAAB418",
"xX c #A34CCB92BC48",
"cX c #B31AD417B63B",
"vX c #C64BC1EA8B07",
"bX c #D893D51B85AB",
"nX c #CC94D51D93B3",
"mX c #CD69D8B89A3B",
"MX c #D16BD78093E6",
"NX c #DA02DF60992D",
"BX c #F006E8379227",
"VX c #9665C654CDA3",
"CX c #8C9DC4B5D436",
"ZX c #81D1C1A2E494",
"AX c #8207CA7AE8A8",
"SX c None",
/* pixels */
"SXSXSXSXSXSXSXSXSXSXSXSXSXSXSXSXSXSXSXSXSXSXSXSXSXSXSXSXSXSXSXSX",
"SXSXSXSXSXSXSXSXSXSXSXSXSXSXSXSXSXSXSXSXSXSXSXSXSXSXSXSXSXSXSXSX",
"SXSXSXSXSX%.%.| | SXSXSXSXSXSXSXSXSXSXSXSXSXSXn l l l SXSXSXSXSX",
"SXSXSXSX%.%.| | | | SXSXSXSXSXSXSXSXSXSXSXSXn n l l j j SXSXSXSX",
"SXSXSXSX%.| | | | [ N n n n n n n n n n n n v l l j h g SXSXSXSX",
"SXSXSXSX| | | | [ } ) _ _ _ _ _ _ +. .o.o.L n l j g g g SXSXSXSX",
"SXSXSXSX| | | [ ' #.).-X-X-X%X$X$X{.fXn.B.j.H j g g 2 2 SXSXSXSX",
"SXSXSXSX| | [ [ ' $.[.wXrXpX9X6X6X1XlXbXY.M.P g i 2 2 2 SXSXSXSX",
"SXSXSXSX[ [ [ ' ' ` !.XXqXrXsXiX8XyXxXnXY.N.G t 2 2 1 , SXSXSXSX",
"SXSXSXSX[ [ ' ' ! ^ 7.}.oX0XrXiX8XpXCXzXMXn.J 2 1 , , > SXSXSXSX",
"SXSXSXSX' ' ' ! N F <.0.=.~.&X5X7X7X9XZXVXkX~ , , > > > SXSXSXSX",
"SXSXSXSX' ' ' N N S ,.q.9.a.|.#X<X2X3X5X4X`.Q , > > > > SXSXSXSX",
"SXSXSXSX' ' N N M S 1.w.r.r.t.s. XOX].=X*X/.f > > > = = SXSXSXSX",
"SXSXSXSXN N N M n D 5.p.Z.Z.i.u.d.f..XOX+X^.a > - = = = SXSXSXSX",
"SXSXSXSXN N N n b E A.P.U.U.P.P.G.G.H.L.L.8.B = = = * * SXSXSXSX",
"SXSXSXSXM M m n m T l.D.K.K.K.S.x.h.h.C.C.3.9 = * * % % SXSXSXSX",
"SXSXSXSXM n n m ' ] T R R R R T I I I I U C < * * % % % SXSXSXSX",
"SXSXSXSXn n n n N { _ R.R._ _ _ R.@...X.O.K 2 % % % % # SXSXSXSX",
"SXSXSXSXn n l l z ( _.:X,X,X:X>X>X;XhXjXvXk.x % $ % # # SXSXSXSX",
"SXSXSXSXn l l h g / '.tXaXdXdXiXiXAXcXNXBXV.c # # # # # SXSXSXSX",
"SXSXSXSXl l j g y Z Q.@XeXpXsXiXiXuXxXmXT.m.e # @ # @ @ SXSXSXSX",
"SXSXSXSXl j j g 3 d *.}.oX0XrXiX8X9XCXzXMXb.r @ @ @ + + SXSXSXSX",
"SXSXSXSXj h g 3 2 s &.0.=.~.&X5X7X7X9XZXVXgXk + + + + + SXSXSXSX",
"SXSXSXSXg g g 2 1 7 :.q.9.a.|.#X<X2X3X5X4X(.p + + + + + SXSXSXSX",
"SXSXSXSXg g 2 1 , 6 >.w.y.r.t.s. XOX].=X*XE.u + o + . . SXSXSXSX",
"SXSXSXSX2 2 2 > > q 2.p.Z.Z.e.u.d.f..XOX+XW.5 X . . . . SXSXSXSX",
"SXSXSXSX2 2 , > : w 6.P.I.I.P.J.G.F.H.H.H.4.4 . . . . . SXSXSXSX",
"SXSXSXSX, , , > : 0 ;.D.v.v.c.c.z.h.g.g.C.-.; O . . .   SXSXSXSX",
"SXSXSXSX, > > > > 8 A W W W W R T I I Y Y V & + .       SXSXSXSX",
"SXSXSXSX> > = = > , l m m n n n n n m m m g % + .       SXSXSXSX",
"SXSXSXSX> = = * * = SXSXSXSXSXSXSXSXSXSXSXSX+ .         SXSXSXSX",
"SXSXSXSX= = = * % % SXSXSXSXSXSXSXSXSXSXSXSX            SXSXSXSX"
};
