/* XPM */
static char *image_edit[] = {
/* columns rows colors chars-per-pixel */
"32 32 256 2",
"   c #52623AF20F85",
".  c #5E8C43031495",
"X  c #76AA531A1ED3",
"o  c #5B1D47051FFC",
"O  c #6F4A518C204E",
"+  c #69965B373BDA",
"@  c #4E7062F77E4E",
"#  c #6B156A60765B",
"$  c #92AB67162DA2",
"%  c #8FDC6DF4372D",
"&  c #927B67C237FD",
"*  c #9F2E703F3E3E",
"=  c #B0656C6B2712",
"-  c #B9AD7865291B",
";  c #AF1B7CA23F2B",
":  c #C06E7D1934CF",
">  c #8591755357BB",
",  c #81FA72FE699A",
"<  c #BDD086463A13",
"1  c #C85984402F81",
"2  c #C99093BC2E30",
"3  c #CA358FBD31DA",
"4  c #ABE583E94A76",
"5  c #BCCC8BAA442E",
"6  c #B83A87E8444D",
"7  c #AF1484655093",
"8  c #B868941057A4",
"9  c #98918D51784D",
"0  c #AF0F8DC06B79",
"q  c #A84491C4616B",
"w  c #BA23975B6A10",
"e  c #B95499E976F4",
"r  c #C7398DF74805",
"t  c #D22295924662",
"y  c #CEFF9A3B5DB2",
"u  c #C53E944E5787",
"i  c #D38F99685313",
"p  c #CF43A3B443AA",
"a  c #D218A7DD4EED",
"s  c #DF02BC0D46D6",
"d  c #D572A3B6528D",
"f  c #D86BB32A5219",
"g  c #E49DB1335A2D",
"h  c #E53FADA35970",
"j  c #D27C9D8A6358",
"k  c #C0D29C0871E9",
"l  c #C47298406233",
"z  c #D9F0A92469BC",
"x  c #DD4DB2006868",
"c  c #C53FAB3D7856",
"v  c #DA9FABF677F8",
"b  c #DDC3B5067BA3",
"n  c #D44EB0617220",
"m  c #E1F8AF806B06",
"M  c #E66EB9C36CEB",
"N  c #E401AF747306",
"B  c #E438B2F2764B",
"V  c #E892CB2B570F",
"C  c #F6FBDF295D7D",
"Z  c #F7AFE15A5F69",
"A  c #EEF8CBCF6BF4",
"S  c #EA3EC39B6AC5",
"D  c #EF92DA776C06",
"F  c #F604DDB56386",
"G  c #F49EDBB96DEB",
"H  c #F1F8D3A16D8D",
"J  c #EA20CA5C7617",
"K  c #F4C0D9E67679",
"L  c #F839E2A366C8",
"P  c #F81BE317705F",
"I  c #F905E4947464",
"U  c #341A5F9FA57E",
"Y  c #352E61A0A5EA",
"T  c #3CDD664BA6EB",
"R  c #3D286770A9A1",
"E  c #3ED968FCAA62",
"W  c #3F4F6832A820",
"Q  c #4A476C7097DE",
"!  c #52D76F1D9E32",
"~  c #74607A5C8BE5",
"^  c #79227FE6913E",
"/  c #671676608B2D",
"(  c #444F6ADCA6B7",
")  c #44C86C1AA928",
"_  c #4B5B6F01A94E",
"`  c #4F357216A901",
"'  c #5A877BC0AF5C",
"]  c #55A77670AA26",
"[  c #5AF27C1EB053",
"{  c #6D8E8B59A01D",
"}  c #7638899C9C7D",
"|  c #53DB8067ACEB",
" . c #5B5A89ACB7AE",
".. c #69238702A68B",
"X. c #700785F6AA48",
"o. c #6F319548A882",
"O. c #67B788B6BCF7",
"+. c #6AA48AEBBCE3",
"@. c #65CD89E8B5F5",
"#. c #71888EFEBC8C",
"$. c #73D18DA4B5A9",
"%. c #73329095BD0D",
"&. c #787891FDB985",
"*. c #7DB49DE9BDF2",
"=. c #783596CBB569",
"-. c #76F2A10DAF2C",
";. c #7CEFA3D6B81A",
":. c #6D9F8EDFC1E9",
">. c #75B59307C16B",
",. c #69C99EA0D1AD",
"<. c #63A496A3C9B1",
"1. c #7F0CA4ADC0AC",
"2. c #6CE8A233D740",
"3. c #76F3AB8ADC4B",
"4. c #7AF1AF8EDDC2",
"5. c #75AFA788D300",
"6. c #7BECB08BDF0D",
"7. c #7400AC22E366",
"8. c #7621AF8BE95D",
"9. c #7D4EB1E6E116",
"0. c #88438BC58950",
"q. c #875393FB8E68",
"w. c #AEFBA71C8192",
"e. c #BBFEA9C28144",
"r. c #B8D0B5C18DAD",
"t. c #BB98BF149753",
"y. c #AC7EA99F9C71",
"u. c #8B029F12B3F7",
"i. c #878692BCA3AF",
"p. c #8795A1FEAF0C",
"a. c #9490A673A334",
"s. c #9C6EB2BEAA6F",
"d. c #83BAA179B4EE",
"f. c #8530ADCFB70C",
"g. c #84C0AC73BD17",
"h. c #8C03A897B371",
"j. c #9700B30BBC54",
"k. c #9B38B54CBAE8",
"l. c #9330B11DB6A3",
"z. c #BE61B620AFCB",
"x. c #AC05B4A2B4FD",
"c. c #A1B7B4D6B925",
"v. c #BCC5B9B2B678",
"b. c #A7E4BB72A6FD",
"n. c #C7EFB30E8830",
"m. c #D8BBB6AB8CD9",
"M. c #D954B98C93A4",
"N. c #E629BAAB85A9",
"B. c #E407BCE6905F",
"V. c #C67ABDAEAACB",
"C. c #B2ECC444AA77",
"Z. c #C651C3078E56",
"A. c #DC70C39986A6",
"S. c #D9B2C9338BD9",
"D. c #DC66C15D9160",
"F. c #D34BC9A293F5",
"G. c #C4B4C5E19447",
"H. c #E911C6CA8A14",
"J. c #E488D48F8EC5",
"K. c #E9A5C6379A21",
"L. c #E2C7D51A915A",
"P. c #F4F5DFEE955E",
"I. c #F405DA679C91",
"U. c #F8E8C7C390AC",
"Y. c #F96EE67C8AA0",
"T. c #FABDE91B8B69",
"R. c #FAFDED819C36",
"E. c #F85EE3C399FC",
"W. c #C334CF31ADDE",
"Q. c #D959C0EDA406",
"!. c #C095CC41B55E",
"~. c #D101CF3CBA66",
"^. c #EEC6CC23A1A9",
"/. c #EFA3CF77AB00",
"(. c #F184CF04AA42",
"). c #EA03D71EAC0C",
"_. c #F975D47FA3AD",
"`. c #F3C5D785B4CE",
"'. c #F75CDAA5BB08",
"]. c #F3EDE75EAAD7",
"[. c #FB6CEDE5A984",
"{. c #F682E7F6A439",
"}. c #8435AD56C4FC",
"|. c #83C7AC06C86F",
" X c #8718B0B5C810",
".X c #8DB1B4BBC752",
"XX c #8BA2B452CA7C",
"oX c #979EB378C343",
"OX c #9960B681C2AD",
"+X c #994EB7AFC989",
"@X c #9C41B9B1CA4B",
"#X c #9039B6D6CB71",
"$X c #8387B588D2CC",
"%X c #89D9BBCBD93B",
"&X c #9459BF7BD4F9",
"*X c #A218BC63CA3B",
"=X c #A3A5B7DEC8B6",
"-X c #ACBEBD74D3F2",
";X c #A693BA04D3E8",
":X c #8EBDBE66E0E6",
">X c #90A7BFB5E333",
",X c #9CA0C04BC552",
"<X c #8FCFC4D0D812",
"1X c #96CAC66BDD05",
"2X c #B49AD3BBCEEA",
"3X c #A160CDEFE05B",
"4X c #BDBFC76ED59D",
"5X c #B89CD96ADBF5",
"6X c #9EEACB6DE4CE",
"7X c #930BC0F0E56C",
"8X c #8C9EC35AE4F4",
"9X c #A159CEECE449",
"0X c #A219CE04EA95",
"qX c #BFB1CEB2E64A",
"wX c #A574D1F0E728",
"eX c #A48BD341EB33",
"rX c #A87FD630ED38",
"tX c #B1CEDBC1EB2E",
"yX c #ACECDAFBF3E9",
"uX c #AECDDE5CF956",
"iX c #B0DFDFB6F690",
"pX c #B627E09BF024",
"aX c #B3B9E193F765",
"sX c #B463E3AAFC4B",
"dX c #B858E3A7F512",
"fX c #CB18C8FEC8E6",
"gX c #DAE6D5FECF3B",
"hX c #C30DCB45D75D",
"jX c #CB54CD8AD0C8",
"kX c #CA04D304E021",
"lX c #C79FD239DE4B",
"zX c #D32ADC5FE008",
"xX c #F610DE8FC2C1",
"cX c #FBAADFCBC26B",
"vX c #E0DDDD70D4BA",
"bX c #EAFEDAC2C8D4",
"nX c #FC76E159C4C3",
"mX c #FC8CE93CD3C5",
"MX c #C281CF5FE37C",
"NX c #C5BAD320E61A",
"BX c #CA9BD548E5CF",
"VX c #CDDEDA0BE507",
"CX c #C6CBD4E2E97A",
"ZX c #D598DE65E1DF",
"AX c #D634E025E7D0",
"SX c #D6B6E1B2E666",
"DX c #D956E29EE554",
"FX c #D6F5E344EAB9",
"GX c #DB57E4F8EA39",
"HX c #DD5EE73AF46B",
"JX c #E7EEE81CE6EA",
"KX c #E3B7EC90F63C",
"LX c #ED1FF403FCA2",
"PX c #E6CCF20EFF6E",
"IX c #F266F64EFB5A",
"UX c None",
/* pixels */
"UXUXUXUXUXUXUXUXUXUXUXUXUXUXUXUXUXUXUXUXUXUXUXUXUXUXUXUXUXUXUXUX",
"UXUXUXUXUXUXUXUXUXUXUXUXUXUXUXUXUXUXUXUXUXUXUXUXUXUXUXUXUXUXUXUX",
"UXUXUXUX] ` ( T Y Y Y Y Y Y Y Y Y Y Y U U U U U U Y T ( UXUXUXUX",
"UXUXUX@.$.&.%.#.+.+.+.+.+.+.+.+.+.+.O.O.O.O.O.O.O.+.+.@.' UXUXUX",
"UXUX] $.=XhXkXBXBXBXBXBXBXBXNXNXNXNXNXNXNXNXNXNXNXNXNX;X+.) UXUX",
"UXUX` &.hXJXZXzXZXDXDXDXDXSXFXFXFXFXFXFXFXFXFXSXVXDXKXNX%.) UXUX",
"UXUX( %.kXZXk.p.l.j.k.k.k.OX+X+X+X+X+X@X@X@X@XoXp.c.SXNX%.( UXUX",
"UXUXT #.BXZXd...-.f.f.f.f.g.}.|.}. X X XXXXXXXg.o.p.VXCX:.R UXUX",
"UXUXY +.BXDXj.;.&X9X9X9X3X9X9X0X0X0XwXwXeXeXrX1X}.oXAXCX:.R UXUX",
"UXUXY +.BXGX*X.XwXaXsXaXaXaXaXsXsXsXsXsXsXsXdX5Xc.x.gXfXi./ UXUX",
"UXUXY +.BXGX*XXXrXsXsXsXsXsXsXsXsXsXsXsXsXdX5X!.n.c M.m.w 8 UXUX",
"UXUXY +.BXGX*X#XrXsXsXsXsXsXsXsXsXsXsXaXpX5X!.F.b B B.B.x d t UX",
"UXUXY +.NXGX*X.XwXsXaXaXaXiXiXiXuXuXuXtX2XW.F.H.K./.xXxX^.N.y r ",
"UXUXY +.NXSXOXg.6XyXyXyXyXrXeXeXeXeXwX2XW.F.H.H.^.'.mXmXxXK.z r ",
"UXUXY +.NXSXl.;.&X0X0X6X6X1X<X<X8X<X,XC.F.J.I._.K.^.`.cXnX(.v y ",
"UXUXY +.NXZXh.o.$X7X>X:X%X%X$X$X$X.Xb.G.L.P.E.I.H.H.K.^.(.K.v j ",
"UXUXY +.NXVXd.@.5.9.9.6.4.4.3.5.}.s.Z.J.].[.Y.K J S B v v v z UX",
"UXUXY +.NXVX*. .,.7.7.7.7.3.3.}.s.t.L.E.[.R.I F H S x y w 0 UXUX",
"UXUXY +.NXVX*. .2.7.7.7.7.3.|.s.Z.J.].[.Y.P L F K A h u 9 ~ UXUX",
"UXUXY O.NXVX*. .2.8.8.7.3.|.s.t.J.E.[.R.P C F F A S M e ^ ! UXUX",
"UXUXY O.NXVX*. .2.8.8.3.1.a.r.S.].[.Y.P Z C G A g m K.z.X.( UXUX",
"UXUXY O.NXBX=.| <.2.5.;.a.r.S.P.[.R.P C C F A x 8 k ~.4X+.E UXUX",
"UXUXY O.NXlX..Q | @.{ q.w.S.).[.T.I L F G A g u > 0.jXMX+.R UXUX",
"UXUXU O.NXVXu.....} 0.9 c A.{.R.I C F F A M z e 0.u.BXNX+.T UXUX",
"UXUXU O.MXKXNX-Xx.y.e.c n.A.J D F F G A g x Q.fX4XNXHXqX+.T UXUX",
"UXUXY O.MXLXPXAXV.n.D.D.m.n f s V V S M m M.gXKXPXPXLXMX+.W UXUX",
"UXUXT +.NXIXIXvXe.c ).`.b i 3 2 p a d z K.bXJXLXLXIXIXNX#.) UXUX",
"UXUX( +.-XBXBXv.q 8 ).'.N.i 1 - < 6 7 e z.hXNXNXNXNXNX;X+.) UXUX",
"UXUXUX' #.>.>.} > 4 B._.U.N t : - * , ~ X.+.+.+.+.+.#.+.[ UXUXUX",
"UXUXUXUX_ ) E @ + % l B N.N i : = & # ! ( R R T T W ( ) UXUXUXUX",
"UXUXUXUXUXUXUXUXo O & 4 u u r < UXUXUXUXUXUXUXUXUXUXUXUXUXUXUXUX",
"UXUXUXUXUXUXUXUX  . X $ ; 5 5 5 UXUXUXUXUXUXUXUXUXUXUXUXUXUXUXUX"
};
