/* XPM */
static char *images[] = {
/* columns rows colors chars-per-pixel */
"32 32 247 2",
"   c #38276DA64A71",
".  c #43337F5A533A",
"X  c #53577EA670BF",
"o  c #A0B75A5A6557",
"O  c #B3B261F26C18",
"+  c #B921645E6E3E",
"@  c #B5D86B697883",
"#  c #CD407FE57CCE",
"$  c #4A708AC4546A",
"%  c #5DB887D8529D",
"&  c #5957941359C1",
"*  c #55468EBB79B6",
"=  c #681992EE6340",
"-  c #70BE9A2464F1",
";  c #75F09F4977E7",
":  c #7FEE9E927766",
">  c #730DA4646D67",
",  c #7C3EA70C6F6E",
"<  c #67B3A14B79A2",
"1  c #7E68A59A729C",
"2  c #74F4A9E0708B",
"3  c #7D74A9C27828",
"4  c #80399FB37743",
"5  c #81A9A9B775D8",
"6  c #862DB18A789E",
"7  c #340A5F99A552",
"8  c #356C6197A5C9",
"9  c #3D186681A74C",
"0  c #3F23683DA817",
"q  c #3E6A67A7A828",
"w  c #3F906899A88B",
"e  c #40816E04842B",
"r  c #4B2679A08833",
"t  c #461C6C6E91FF",
"y  c #5FD5644D98EB",
"u  c #45A8709A91FC",
"i  c #65B064158F92",
"p  c #6CBC673592EC",
"a  c #6E30699895BB",
"s  c #64CB6B8D9C7E",
"d  c #42D06AB8A6DF",
"f  c #43DE6B98A905",
"g  c #4B5B6F01A94E",
"h  c #4B057022A7C2",
"j  c #4D8071A4AA5F",
"k  c #51BC7DC1A0FE",
"l  c #54097530AA2D",
"z  c #53FA7FEDAB99",
"x  c #5A857B49AD59",
"c  c #5AF27C1EB053",
"v  c #65836C80A0D5",
"b  c #69656E40A0DB",
"n  c #70D17316A05A",
"m  c #7D387A54A4C1",
"M  c #9EC4752A8602",
"N  c #A68E69E88041",
"B  c #B2A675C78C4F",
"V  c #BB437D548F68",
"C  c #B93B7CF7935F",
"Z  c #82117F80A82D",
"A  c #C57D7F0786BB",
"S  c #521A84B284E2",
"D  c #5E6188F79F30",
"F  c #68D48DFF8997",
"G  c #66C986F79A39",
"H  c #65388DA49FB4",
"J  c #637F91D29950",
"K  c #6A5C93949AB2",
"L  c #6EC9A2D6913B",
"P  c #77F1A63B9A25",
"I  c #5421800CABA8",
"U  c #5971849CB26A",
"Y  c #5B18896FB7A5",
"T  c #5F1382F7B8B8",
"R  c #5CBA8B0BB946",
"E  c #66658536A46B",
"W  c #64548D08A32C",
"Q  c #6DEA8903A3C6",
"!  c #646081F5AF0D",
"~  c #6FFD8AE2A8CC",
"^  c #685590A1A316",
"/  c #700690A6A26B",
"(  c #72369255ABE3",
")  c #63698536B735",
"_  c #691E82F8B4CC",
"`  c #6CE089CCB7E5",
"'  c #649A85C8B993",
"]  c #673989A4BDD4",
"[  c #6BDC8BD9BD8F",
"{  c #74458E13B519",
"}  c #72468F27BD23",
"|  c #6674912DB6F0",
" . c #672E9307B8B8",
".. c #6FEB902DBF81",
"X. c #734A935AB5A7",
"o. c #784495E8B61E",
"O. c #7F3898ECB46D",
"+. c #73E6915BBD1E",
"@. c #7972938BBB8E",
"#. c #764A9A5CBFB6",
"$. c #7BD59C2ABC17",
"%. c #7D42A54FBA47",
"&. c #6E688FDFC109",
"*. c #63AA9635C8A1",
"=. c #68EB9C78D04A",
"-. c #72169147C0B2",
";. c #699D9E92D1D9",
":. c #6C78A1D3D722",
">. c #6D46A2D9D85C",
",. c #7914AAF6D686",
"<. c #726CA949DFE6",
"1. c #7454AC6EE424",
"2. c #AC0F81E29626",
"3. c #8D6AAAE084D8",
"4. c #84CEA5188906",
"5. c #8838BB2B84A8",
"6. c #860EB30A8C63",
"7. c #92C3BFB48487",
"8. c #9456B28C8C2B",
"9. c #917BAF8592F5",
"0. c #8ED3BD3B9757",
"q. c #8F42BE14982F",
"w. c #99BEB2F69211",
"e. c #9EB48C38ABCB",
"r. c #823A8F62B815",
"t. c #86769D16B45F",
"y. c #885C9E33B493",
"u. c #A0C98ED5ADA2",
"i. c #BA8390F9A5FF",
"p. c #8D4BA957A190",
"a. c #871BA1A1ACFB",
"s. c #8ACCA277AF61",
"d. c #8672A2C1B254",
"f. c #84C4A333BDA9",
"g. c #8430A9A7BDD5",
"h. c #960EB0E6BF10",
"j. c #9E47B303BDF1",
"k. c #A1B3B320BC27",
"l. c #DE23863C81F5",
"z. c #C0A1823D95B9",
"x. c #CE5989479514",
"c. c #C3F289A99C93",
"v. c #CD928C8F9C52",
"b. c #CCD79A9D9E6E",
"n. c #DA15936F9706",
"m. c #E38E891F84AC",
"M. c #E24D90CD8F56",
"N. c #CE1B9B40A03A",
"B. c #E5F89F0EA359",
"V. c #DF6AA360A996",
"C. c #DE57A9B3AAF8",
"Z. c #D1FCB100B44E",
"A. c #E74FA20CA59E",
"S. c #EABAA5BBAB07",
"D. c #E9C4AA9FB12D",
"F. c #9415C21F8571",
"G. c #97E9C6408964",
"H. c #9203C3349560",
"J. c #A423D4799337",
"K. c #A781D85C93B9",
"L. c #83B1ABF4C62B",
"P. c #8D01B3D4C732",
"I. c #8A7EB382C98F",
"U. c #95CEB297C389",
"Y. c #99BEB4DCC536",
"T. c #9107B7E5CBE1",
"R. c #92E7B9A9CE1D",
"E. c #9D94BA9DCAA6",
"W. c #ACB6AF6ACA53",
"Q. c #A37FB3FFC478",
"!. c #A69DB4CDC93E",
"~. c #A238BD3ECB92",
"^. c #C029B9DBCB1A",
"/. c #A64AB9B0D5C2",
"(. c #AB16BC2CD4C6",
"). c #8328B756E5A0",
"_. c #8422B9D1E7A0",
"`. c #94A9C077D604",
"'. c #9BCCC68FDD65",
"]. c #99E5C7F2E61A",
"[. c #9A30C960E774",
"{. c #A26FCFFBE642",
"}. c #B46CCAC6E47A",
"|. c #BF76CF15E67C",
" X c #B824CF64EA8C",
".X c #B9A0CF29EB08",
"XX c #A407D107E780",
"oX c #A618D397EBD4",
"OX c #AA93D783EEAA",
"+X c #BFB0D1E2E827",
"@X c #BAF5D0F9EBD6",
"#X c #A60DD706F6DC",
"$X c #A6D5D8DDF8AF",
"%X c #B62FE575FD7B",
"&X c #B8BAE834FFFF",
"*X c #C5BBD5ACC954",
"=X c #CA82DD0ECDDC",
"-X c #D18CDB63CE72",
";X c #C21FCB3BD6D5",
":X c #C330CE72DAFA",
">X c #CF33DB86D595",
",X c #C6C5D466DD6C",
"<X c #C9B7D313DFE3",
"1X c #D685DED1D384",
"2X c #D95BD367E034",
"3X c #D22ADEDEDC0F",
"4X c #E479CDC6D1B5",
"5X c #E955D012D371",
"6X c #E975D2EED6EC",
"7X c #E2B1D6A6DC83",
"8X c #EFB5D849D869",
"9X c #E585D96BDD64",
"0X c #ED8CDBC5DC6A",
"qX c #F405DC74DDCF",
"wX c #D65CE194D6B4",
"eX c #D8EAE20AD76E",
"rX c #D90FE299D894",
"tX c #E2D8E562E033",
"yX c #C2C9CFEBE473",
"uX c #C4F3D314E635",
"iX c #CA8AD54BE5B2",
"pX c #CE15DA04E3B2",
"aX c #C5B5D345E926",
"sX c #D3B5DD76E3AE",
"dX c #D888DEE6E10B",
"fX c #D0B1DE9AE8C0",
"gX c #E6F7E055E362",
"hX c #ECD9DC2AE18F",
"jX c #F450DE24E0B5",
"kX c #D687E119E6A8",
"lX c #D911E1B4E702",
"zX c #D652E2CDEAF0",
"xX c #DB75E4BEEA78",
"cX c #DD12E6B2F38A",
"vX c #E59EE347E436",
"bX c #EC3BE64AE3C7",
"nX c #E40CEC18EFA1",
"mX c #E5A1E7A9F1FF",
"MX c #E2D6EA10F33E",
"NX c #EBB6EF65F118",
"BX c #E309EFDCFFFF",
"VX c #E713F1E9FF03",
"CX c #EDD3F4C2FD30",
"ZX c #F3ADF526F6F4",
"AX c #F1B2F5FAFB83",
"SX c #F50EF928FE7A",
"DX c None",
/* pixels */
"x x l j f 9 8 8 8 8 8 7 7 7 7 8 9 d h DXDXDXDXDXDXDXDXDXDXDXDXDX",
"x ! { @.+.} [ [ [ ] ] ] ] ] ] [ [ ` x DXDXDXDXDXDXDXDXDXDXDXDXDX",
"l { !.;XiXiXiXiXiXaXaXaXaXuXuXuXuX(.` g DXDXDXDXDXDXDXDXDXDXDXDX",
"j @.;XtX1X-X1XeXeXwXwX3X3XpXpXiXiX/.) q DXDXDXDXDXDXDXDXDXDXDXDX",
"f +.iX1Xw.4 3.8.8.8.8.9.p.a.O.@.@.' h 8 8 8 8 7 7 7 7 8 9 d DXDX",
"9 } iX-X: % - , , , , ; F G ~ { +.+.[ ] ] ] ] ] ] ] ] ] [ ' x j ",
"8 [ iX1X3.- 6 7.F.F.F.6.K ( Q.;X<XiXiXaXaXaXuXuXuXuXuXuXuX/.` f ",
"8 [ iXeX8.1 F.J.J.J.J.q.^ @.:XbX0X8XqXjXjXjXjXhXhXhX9XvXNXuX+.f ",
"8 [ iXrXw.5 G.J.J.K.K.q.W +.iX0XC.n.B.S.S.S.S.S.S.V.b.Z.gXuX..d ",
"8 [ aXwX8.> 5.H.H.q.0.P k ) /.^.2.N B C C C C z.v.x.A N.9XaX&.w ",
"8 [ aX=X3 & < L K H D k d f T _ v y s v v b b m e.i.x.V.hXuX[ d ",
"8 [ aX=X> $ * J ( X.X.[ [ ] [ [ [ [ [ [ [ [ [ } r.u.v.D.hXuX[ d ",
"8 ] aX=X2 $ S ( Q.;X<XiXiXiXiXiXuXuXuXuXaXuXuX(.@.Z c.D.hXuX[ d ",
"8 ] aX=X> . r o.;XvXdXsXlXxXxXxXzXzXzXkXpXlXNXuX+.n V A.0XuX[ d ",
"8 ] aX*X=   e X.<XdXj.d.U.E.E.E.E.E.E.U.s.k.kXaX+.a @ M.6XuX[ d ",
"7 ] uX>X4.X u } iXsXd.W %.I.I.I.I.I.I.g./ s.pXaX} p O m.5X+X[ d ",
"7 ' yXnX,XU.U [ iXlXh.%.`.{.XXXXXXoXoX'.g.Y.fXaX} a + m.5X+X[ d ",
"8 ] yXAXCX.X] [ iXxX~.P.XX%X%X%X%X%X&XOXR.~.zXuX} p O l.5X+X[ w ",
"9 [ uXZXSXaX[ [ iXxX~.T.OX&X%X%X%X&X&XOXR.~.zXuX} i o # 4X+X[ q ",
"f ` (.pXiX/.) [ iXzXY.L.[.$X#X#X#X#X#X].L.Y.fXuX} s M b.7X|.[ q ",
"j x } @.+.) f [ uXfXf. .,._._.).).).).,.| f.iXuX+._ W.2XmX|.[ q ",
"DXDXg f d 9 8 ] uXpX$.U ;.1.1.<.<.<.1.=.U $.uXuX-.&.@XVXCXyX[ w ",
"DXDXDXDXDXDX8 ] uXpX$.Y :.1.1.1.1.1.1.:.Y $.uXuX-.-.aXSXAXuX} f ",
"DXDXDXDXDXDX8 ] uXiXo.z *.>.>.:.:.>.>.*.I o.uXuX+.' /.iXiX(.` g ",
"DXDXDXDXDXDX8 ] uX,XQ t z R R R R R R I t Q :XuX[ j ) } } ` c j ",
"DXDXDXDXDXDX7 ] uXpXy.E X.#.#.#.#.#.#.X.E t.iXyX[ q 9 0 d g DXDX",
"DXDXDXDXDXDX7 ' yXMXuX}.}. X X X X X X}.}.uXcX|.[ 9 DXDXDXDXDXDX",
"DXDXDXDXDXDX8 ] yXCXVXBXBXBXBXBXBXBXBXBXBXVXCXyX[ w DXDXDXDXDXDX",
"DXDXDXDXDXDX9 [ uXZXAXAXAXCXCXCXCXCXCXCXCXAXZXuX} f DXDXDXDXDXDX",
"DXDXDXDXDXDXf ` (.iXiXuXuXuXuXuXuXuXuXuXuXuXuX(.` g DXDXDXDXDXDX",
"DXDXDXDXDXDXDXx } @.+.[ [ [ [ [ [ [ [ [ [ [ } ` c DXDXDXDXDXDXDX",
"DXDXDXDXDXDXDXl g f d 0 q 9 9 9 9 q q 9 9 0 f g j DXDXDXDXDXDXDX"
};
