/* XPM */
static char *page_white_put[] = {
/* columns rows colors chars-per-pixel */
"32 32 216 2",
"   c #2896617D23E7",
".  c #2B9268162705",
"X  c #2D3A6BD4287B",
"o  c #2D7D6A7029E1",
"O  c #2FCA70862B97",
"+  c #332C75922DA3",
"@  c #35B8629631C4",
"#  c #36A0651F32B5",
"$  c #3AA56A8F368C",
"%  c #372371E83226",
"&  c #396676F33478",
"*  c #359478943005",
"=  c #34E179312FF3",
"-  c #35C779BB3032",
";  c #37CD78F6315E",
":  c #37F47B6D3196",
">  c #38E978E033BA",
",  c #3C097A18375F",
"<  c #3B887D043694",
"1  c #41937C153B5B",
"2  c #4BAD7A464759",
"3  c #3E488091389B",
"4  c #4581883C3F0A",
"5  c #474487FF4092",
"6  c #4D418B7247BB",
"7  c #4D528F4E4764",
"8  c #4FCC86784AD1",
"9  c #4E618D5848DD",
"0  c #500F870E4B15",
"q  c #4BBA941643A7",
"w  c #4CFF92A94587",
"e  c #4FEF98DD46CC",
"r  c #512F940249A1",
"t  c #503092A349F6",
"y  c #52C593394C81",
"u  c #537795AA4D96",
"i  c #57D1929151E7",
"p  c #5A4A95A254B3",
"a  c #586299AC5128",
"s  c #5E719FFB5851",
"d  c #60949FC25A5C",
"f  c #5C30A989524D",
"g  c #60C0A9D3572F",
"h  c #607AA19459EB",
"j  c #616AA0905B2E",
"k  c #6274A81E5A2D",
"l  c #6523A3515E4C",
"z  c #655BA6565E95",
"x  c #61F4AA955910",
"c  c #676DABBC5F32",
"v  c #6805B31E5E07",
"b  c #66FDB8DF5B1B",
"n  c #6775A749603A",
"m  c #6867A8F06138",
"M  c #689BABCE6041",
"N  c #6955AB846134",
"B  c #6B65AF66624B",
"V  c #6A9FAB216429",
"C  c #6E84AF0266E8",
"Z  c #6F89AE8967E0",
"A  c #712FADDF6A27",
"S  c #6BFBB51461EF",
"D  c #6CC7B15B6407",
"F  c #6EDEB525652E",
"G  c #6D5EBA3E62A7",
"H  c #6E7ABB516338",
"J  c #6FD8B965659E",
"K  c #6FEDB95165EB",
"L  c #72BEB49569C2",
"P  c #7506B3526DE0",
"I  c #752EB4836EE4",
"U  c #766BB5AB6FBE",
"Y  c #7735B6386F06",
"T  c #72AABC12680E",
"R  c #7864B9656F7C",
"E  c #7A8FB0877368",
"W  c #7B6FB9F87308",
"Q  c #7D78BA2475A9",
"!  c #7D84BAD97570",
"~  c #7F2ABB027702",
"^  c #7FDBB8BA7948",
"/  c #823BAA6E7E17",
"(  c #82C8B4357D71",
")  c #80EBBE10793A",
"_  c #818CC0237845",
"`  c #8270BFB57B0C",
"'  c #848AB9787EA8",
"]  c #83F1BFDC7C20",
"[  c #8411BEF67C62",
"{  c #844DBFC07CB9",
"}  c #8423C0737C7C",
"|  c #850AC1FE7D39",
" . c #86CEC32E7F3A",
".. c #87AEC7707D96",
"X. c #875DC44D7F25",
"o. c #889AC66A7FD6",
"O. c #A58AA58AA58A",
"+. c #A95BA95BA95B",
"@. c #AB33AB33AB33",
"#. c #ACE2ACE2ACE2",
"$. c #ADAFADAFADAF",
"%. c #8802C43C810C",
"&. c #883CC6168017",
"*. c #8A77C4EC82A9",
"=. c #8A68C5A9835C",
"-. c #8C20C53383E6",
";. c #8C6CC2BD8538",
":. c #8EF1C6D28655",
">. c #8E22C7DB8688",
",. c #8AD0C92F8195",
"<. c #8AFEC96481FC",
"1. c #8E07C857850F",
"2. c #8EF8C8AA8704",
"3. c #900FC9E3869A",
"4. c #8F94C5BB88F0",
"5. c #9072CB18889A",
"6. c #9366CCC48BDC",
"7. c #9425CCC58AAF",
"8. c #9662CE818CC5",
"9. c #967ECE9E8F3D",
"0. c #99B9D0429254",
"q. c #9A60CB71943E",
"w. c #9B27D115933A",
"e. c #9E53D2959602",
"r. c #A0D8D3DD9863",
"t. c #A3AFD54D9AD7",
"y. c #A5FCD63D9D23",
"u. c #A833D79D9F40",
"i. c #ABE9CFF9A810",
"p. c #A938D778A23B",
"a. c #B91CD92AB4D6",
"s. c #B92FDB70B511",
"d. c #B9BDDC03B5AA",
"f. c #BEDCD920BC08",
"g. c #BE66DC10BB0C",
"h. c #C8ACC8ACC8AC",
"j. c #C9DBC9DBC9DB",
"k. c #CD97CD97CD97",
"l. c #C832D95CC5E8",
"z. c #CDBFD907CC97",
"x. c #D0AED0AED0AE",
"c. c #D700D700D700",
"v. c #D7E5D7E5D7E5",
"b. c #D8A9D8A9D8A9",
"n. c #DCFEDCFEDCFE",
"m. c #D22EE5CBCFAF",
"M. c #D2EEE68CD04F",
"N. c #D3B7E710D145",
"B. c #D410E7E5D143",
"V. c #D617E9FDD323",
"C. c #D649EA22D3B0",
"Z. c #D659E923D3E3",
"A. c #D733E91ED4F1",
"S. c #D70FE9BDD4BE",
"D. c #D7CAEBB2D4EA",
"F. c #DA09EA3ED7E1",
"G. c #DD26EC51DB41",
"H. c #E096EF4CDE5A",
"J. c #E18DF043DF52",
"K. c #E2BCE2BCE2BC",
"L. c #E487E487E487",
"P. c #E85BE85BE85B",
"I. c #E3B2EF31E29A",
"U. c #EA46EA46EA46",
"Y. c #EB0DEB0DEB0D",
"T. c #EC23EC23EC22",
"R. c #ECCDECCDECCD",
"E. c #EE0BEE0BEE0B",
"W. c #EEDDEDDEEEED",
"Q. c #EF5DEE0CEF7F",
"!. c #EEEDEEEDEEED",
"~. c #F019F019F019",
"^. c #E592F0C9E438",
"/. c #E70FF15BE5F9",
"(. c #E70BF215E5C9",
"). c #E78FF241E64C",
"_. c #F2BDF002F307",
"`. c #F0E6F0E6F0E6",
"'. c #F1DBF1DBF1DB",
"]. c #F2EDF2EDF2ED",
"[. c #F3F8F3F8F3F8",
"{. c #F2CAF778F214",
"}. c #F51AF51AF51A",
"|. c #F623F4F8F64A",
" X c #F611F611F611",
".X c #F4E6F871F479",
"XX c #F687F55CF6B0",
"oX c #F7A1F670F7CC",
"OX c #F700F700F700",
"+X c #F7F3F7F3F7F3",
"@X c #F6C3F9F5F66B",
"#X c #F829FADEF7EB",
"$X c #F93BF80BF965",
"%X c #F966F786F9A5",
"&X c #F979F79BF9BB",
"*X c #F8FAF8FAF8FA",
"=X c #F9B1F919F9C8",
"-X c #FA07FA08FA07",
";X c #FA68F884FAAD",
":X c #FBF6FA2DFC32",
">X c #FAEBFAE4FAEB",
",X c #FC26FAB9FC5D",
"<X c #FC13FC10FC13",
"1X c #FCB7FC4CFCC5",
"2X c #FD5FFC58FD7E",
"3X c #FCF1FCF0FCF1",
"4X c #FE0FFD3EFE29",
"5X c #FDFEFDFEFDFE",
"6X c #FE6EFD4AFE94",
"7X c #FEB8FD40FEEB",
"8X c #FEB5FD7FFEE1",
"9X c #FF7AFD8EFFC1",
"0X c #FFD7FDEDFFEB",
"qX c #FF17FE9BFF2C",
"wX c #FFD5FED7FFE2",
"eX c None",
/* pixels */
"eXeXeXeXeXeXeXeXeXeXeXeXeXeXeXeXeXeXeXeXeXeXeXeXeXeXeXeXeXeXeXeX",
"eXeXeXeXeXeXeXeXeXeXeXeXeXeXeXeXeXeXeXeXeXeXeXeXeXeXeXeXeXeXeXeX",
"eXeXeXeXc.U.Y.Y.T.T.T.T.T.T.T.R.R.R.R.T.U.b.+.eXeXeXeXeXeXeXeXeX",
"eXeXeXeXU.<X<X<X<X3X3X3X3X<X<X>X>X>X-X>X<XE.j.O.eXeXeXeXeXeXeXeX",
"eXeXeXeXY.<X*X+X+X+X+X*X*X+X X}.[.].~.].-X XL.k.O.eXeXeXeXeXeXeX",
"eXeXeXeXY.<X+X X XOX X X X}.].'.`.E.Y.E.*X-X'.K.h.@.eXeXeXeXeXeX",
"eXeXeXeXT.3X*XOX+X*X+XOXOX X[.].`.!.Y.!.*X>XOX`.U.b.#.eXeXeXeXeX",
"eXeXeXeXT.3X-X*X=X-X*X+X+XOX}.[.'.~.T.!.*X3X-X=X=XE.x.$.eXeXeXeX",
"eXeXeXeXT.3X>X=X-X-X=X*X+X+XOX}.[.~.R.~.*X5X3X<X3X=X].n.eXeXeXeX",
"eXeXeXeXT.5X<X>X>X>X>X-X=X*X+XOX}.'.!.~. X*X*X+X+X-X5XR.eXeXeXeX",
"eXeXeXeXT.5X3X<X<X<X<X<X>X-X*X+X X[.'.~.`.~.~.E.R.`.>XR.eXeXeXeX",
"eXeXeXeXT.5X3X<X3X3X3X3X3X<X-X*X+X X[.'.!.R.T.U.P.E.*XR.eXeXeXeX",
"eXeXeXeXT.5X5X3X3X3X3X3X3X<X<X>X*XOX X[.'.~.!.R.T.`.-XR.eXeXeXeX",
"eXeXeXeXT.5X5X3X3X3X3X3X3X3X3X<X-X*X+X X}.].'.~.!.].>XR.eXeXeXeX",
"eXeXeXeXT.5X5X3X3X3X3X3X3X3X3X<X<X>X*X+XOX}.[.].'.}.<XR.eXeXeXeX",
"eXeXeXeXT.5X5X3X3X3X3X3X3X3X3X3X3X<X-X=X=X$XoXXX|.$X6XW.eXeXeXeX",
"eXeXeXeXT.5X5X3X3X3X3X3X3X3X3X3X3X<X>X>X,X:X;X&X%X:XwXW.eXeXeXeX",
"eXeXeXeXT.5X5X3X3X3X3X3X3X3X3X3X3X3X1X{.H.V.B.M.m.N.Z.l.eXeXeXeX",
"eXeXeXeXT.5X5X3X3X3X3X3X3X3X3X3X3X6X7XJ.p.,.o.X.| } [ E eXeXeXeX",
"eXeXeXeXT.5X5X3X3X3X3X3X3X3X3X3X3X8X9XD.<.b H T J v f e eXeXeXeX",
"eXeXeXeXT.5X5X3X3X3X3X3X<X<X<X<X<X4X7XC.&.G ..8.7._ x q eXeXeXeX",
"eXeXeXeXT.5X5X3X3X3X3X3X<X<X<X<X1X9X0XS. .K 7.u.y.:.c w eXeXeXeX",
"eXeXeXeXT.5X5X3X3X3X3X3X<X<X<X<X2X0XwXA.{ S 3.t.r.-.N r eXeXeXeX",
"eXeXeXeXT.5X5X3X3X3X3X3X<X1X1X.X^.G.F.a.! F 1.e.w.*.C a 1 eXeXeX",
"eXeXeXeXT.5X5X3X3X3X3X3X3X4X4X(.s.q.;.~ L R 2.0.9.=.U h 5 ; * = ",
"eXeXeXeXT.5X5X3X3X3X3X3X3X4X6X).d.4.D g B W >.9.6.%.I s 4 : - = ",
"eXeXeXeXT.5X5X3X3X3X3X3X3X3X4X@X(.g.^ k M Y *.6.5.` V u 3 + eXeX",
"eXeXeXeXT.5X5X5X5X5X5X5X5X5X5XqXwXI.i.' A Z Q ] ) P j 9 & . eXeX",
"eXeXeXeXY.5X5X5X5X5X5X5X5X5X5XqXwX#X/.f.( l n m z d p 0 # eXeXeX",
"eXeXeXeXv.Y.T.T.T.T.T.T.T.T.T.T.T.Q._.z./ i y t 7 6 8 2 eXeXeXeX",
"eXeXeXeXeXeXeXeXeXeXeXeXeXeXeXeXeXeXeXeXeX$ , < > % @ eXeXeXeXeX",
"eXeXeXeXeXeXeXeXeXeXeXeXeXeXeXeXeXeXeXeXeXeXo O X   eXeXeXeXeXeX"
};
