/* XPM */
static char *page_paste[] = {
/* columns rows colors chars-per-pixel */
"32 32 201 2",
"   c #95CE5F671BBE",
".  c #966E60A31D0C",
"X  c #9840617F1C01",
"o  c #97B062B52041",
"O  c #994C64A3225B",
"+  c #9EE46C4F2AEA",
"@  c #A0986DB22B07",
"#  c #A7C874EC340B",
"$  c #A99275BD34CC",
"%  c #AC667C2B36C0",
"&  c #ABB37C5E3B59",
"*  c #B03A7D853BC8",
"=  c #84F26B344D84",
"-  c #8884705B4E4A",
";  c #983E7B2658EF",
":  c #AD517FDB3FF9",
">  c #AF2181743A84",
",  c #9BE182E95C36",
"<  c #AE2781864263",
"1  c #B080836C4118",
"2  c #B11986B448DB",
"3  c #B93E93CE6E68",
"4  c #BF4D9DD36D6B",
"5  c #BABC972670CE",
"6  c #BCD69B3D7457",
"7  c #B4F99A0D7C4B",
"8  c #BFE5A0D876E2",
"9  c #CFA28E1F4BF7",
"0  c #D1088F754BC6",
"q  c #D006921A4FA2",
"w  c #DEAB9AFA46FA",
"e  c #D18D93564E21",
"r  c #DD099CEB4BC3",
"t  c #C2C795175645",
"y  c #C60A9C105CAD",
"u  c #CC15999F5E9B",
"i  c #D23B95D05271",
"p  c #D4C99BB55564",
"a  c #D32A9745597E",
"s  c #D51E9D4159CC",
"d  c #E1879B764659",
"f  c #E0609D1D4AA2",
"g  c #DC7EA40C576C",
"h  c #D726A2895B73",
"j  c #D94DA59B5B94",
"k  c #DB40A9695DD9",
"l  c #E346A5474CFA",
"z  c #E2BDA4F753C3",
"x  c #E666A9A3575F",
"c  c #E366A70D5821",
"v  c #E51FAA545C93",
"b  c #C43799B164D7",
"n  c #CBF59D4C639D",
"m  c #CC05A25264F2",
"M  c #C659A43C69E7",
"N  c #CFA7A4E2693F",
"B  c #D7FCA34F61C0",
"V  c #D960A5B965AB",
"C  c #D3BCA8DF66CF",
"Z  c #DBC7AC4A6333",
"A  c #DAB2A5416C6D",
"S  c #D2F1AC236E01",
"D  c #DCB2AE8F689F",
"F  c #DD9BB0DC6746",
"G  c #DCA7BD0D66E5",
"H  c #DE13B2FE6B8C",
"J  c #CC87AAA6756B",
"K  c #C1ABA6327A2B",
"L  c #C346AA227CC1",
"P  c #D416AFDD70EB",
"I  c #DC22ABC972BC",
"U  c #D616B33574AF",
"Y  c #DFD0B790718F",
"T  c #D4E4B6587B45",
"R  c #DDB0B4577974",
"E  c #D7AAB84D7C82",
"W  c #D95AB9227C94",
"Q  c #E12EB43C6C4E",
"!  c #E060B6D67018",
"~  c #E41BBA5C74AF",
"^  c #E0AEB77A7ABD",
"/  c #E2D8BD067C08",
"(  c #DFF9C299739E",
")  c #EC4BC47D65AD",
"_  c #EF67CAF77492",
"`  c #E4D4C1787FE2",
"'  c #F423DAEB7B70",
"]  c #519277E6B7A3",
"[  c #67D97F20A4EA",
"{  c #3F2170A0C506",
"}  c #405771A6C63E",
"|  c #4E817BF0C929",
" . c #51867E70CB54",
".. c #5F788B20B78C",
"X. c #69808CF1AC41",
"o. c #73DB8E17A4C5",
"O. c #78908BE1A7EE",
"+. c #7CD19529A875",
"@. c #4FAD810AC9A3",
"#. c #5806882AC44C",
"$. c #52C68368CAFB",
"%. c #5A0884AACCE9",
"&. c #6BC099FDCF99",
"*. c #67E08FE2D240",
"=. c #68638F93D1C3",
"-. c #623D93CAD3D2",
";. c #6E23943AD4AD",
":. c #6B619948D4E0",
">. c #7027955AD4B4",
",. c #76659D47D5CA",
"<. c #7A169E26D727",
"1. c #7D72A2ACC774",
"2. c #7A8BA0ABD7F9",
"3. c #7237A447DDC6",
"4. c #79F0A100D890",
"5. c #7A2DAA62E043",
"6. c #BA2EA9FB85A0",
"7. c #89989F0DB97C",
"8. c #85EAA1E5B54C",
"9. c #8EE2A332B5CE",
"0. c #8F7BA310B85B",
"q. c #8C54A83FBAB5",
"w. c #92B0A605B4F5",
"e. c #922CA78ABC0B",
"r. c #954BAB72BADE",
"t. c #A9E7A96AA08A",
"y. c #C19FA49286F1",
"u. c #C5DFB087852A",
"i. c #D64CBB5183E9",
"p. c #DA4CBD5F84D3",
"a. c #D9EABF5B8969",
"s. c #C753B74A9172",
"d. c #E536BF818064",
"f. c #DC0AC1F98B9D",
"g. c #E69DC4EC849F",
"h. c #E9D1C64684D1",
"j. c #E4D3CB1C8952",
"k. c #EAE3CB8B8CE8",
"l. c #F170CA1985A4",
"z. c #F4BFD5D28EAB",
"x. c #EAC8CED8923A",
"c. c #EBD6D12B95B5",
"v. c #EE19D5F29CE2",
"b. c #EDCBD89E9E85",
"n. c #F4D5DBFD9F8F",
"m. c #F732E15B8BEA",
"M. c #F94EE51290F6",
"N. c #EAF4D773A347",
"B. c #EFE1DC6EA713",
"V. c #F0D3DA9BA478",
"C. c #FE14EF6BAE19",
"Z. c #FF55F1B1B089",
"A. c #880AAA9FCA0A",
"S. c #96D5AFA3C0D3",
"D. c #8B62AE44DC61",
"F. c #8B90B1B3D6CB",
"G. c #8CC0B51CDBF4",
"H. c #926EB75CE05C",
"J. c #8676B471E192",
"K. c #8EFBBA6AE528",
"L. c #8CACBB27E99C",
"P. c #96C9BD86E40D",
"I. c #998DBF68E49A",
"U. c #9CFBC178E567",
"Y. c #AA3BC129E786",
"T. c #AD22C4BAE928",
"R. c #B585CFE6E7A4",
"E. c #BDC2D2B8EDC7",
"W. c #A8A2CFF4F32C",
"Q. c #ADB1D301F373",
"!. c #B57ED5A0F592",
"~. c #B969D77CF704",
"^. c #BE6BDA31F743",
"/. c #BF02DAEEF8DA",
"(. c #C38CD541EE8A",
"). c #C9CEDA84EE22",
"_. c #C55DD799F112",
"`. c #C8FCD84CF196",
"'. c #C44ADB99F57A",
"]. c #CB06DD77F233",
"[. c #C4E4DE47FA5F",
"{. c #C856DFF1FAD2",
"}. c #CE8EE146EE02",
"|. c #CEADE2A2F6BD",
" X c #C783E196FAB1",
".X c #CD03E315FCF8",
"XX c #D54CE606F760",
"oX c #D859E82BF863",
"OX c #DC43EA64F823",
"+X c #D422E6ADFEA1",
"@X c #D70DE902FF76",
"#X c #DBABEB21FF06",
"$X c #E221EF28FD85",
"%X c #E727F24EF670",
"&X c #EACDF489F757",
"*X c #E5B9F197FD66",
"=X c #EB4DF463FE91",
"-X c #F116F7C1FC84",
";X c #F264F897FD52",
":X c #FA53FDBFFFFF",
">X c None",
/* pixels */
">X>X>X>X>X>XX . .             . . o >X>X>X>X>X>X>X>X>X>X>X>X>X>X",
">X>X>X>X>X. O + & 1 > % % > 1 & + O >X>X>X>X>X>X>X>X>X>X>X>X>X>X",
">X>X>X    o + 2 T j.( G G ( j.T < O .     >X>X>X>X>X>X>X>X>X>X>X",
">X>X& < < & * y b.Z.M.' ' M.Z.v.t $ % & 1 & @ >X>X>X>X>X>X>X>X>X",
". & M i.f.W p Z n.C.m.' ' m.C.n.Z e C U W m $ . >X>X>X>X>X>X>X>X",
"  & T N.B.k.v v l.z._ ) ) _ z.l.x z ~ h.k.U %   >X>X>X>X>X>X>X>X",
"  < a.B.c.~ z f c v z l l l x z d w g Q h.S %   >X>X>X>X>X>X>X>X",
"  < f.V.h.Q g r r r r p u b b b b b 4 K s.6., - >X>X>X>X>X>X>X>X",
"  < f.V.g.! F Z Z Z k J t.w.w.w.w.w.w.0.q.8.+.o.X...#.>X>X>X>X>X",
"  < a.b.g.Y H H H F F u.S.J.P.U.I.P.I.P.G.G.G.F.A.1.&.-.>X>X>X>X",
"  < p.v.` H H F Z Z Z L r.P.].OXXX|.|.|.].].].].).R.K.3.-.$.>X>X",
"  : p.v./ H F D Z k k L r.U.OX:X=X$X*X*X$X#XOX$X=XOXQ.L.3.-.>X>X",
"  & i.c./ H F Z Z k k L r.U.oX=X#X.X+X+X.X X[.|.=X*X XW.L.5.-.$.",
"  & W x./ D D Z Z k k L r.U.XX*X+X{. X{.[./.!.'.$X=X#X X!.P.:.$.",
". & E x.~ Z Z Z k j j K r.U.XX=X+X.X.X.X{.[.^.'.oX$X*X*X$XE.,.@.",
". & T k.Y Z Z k j j g K r.U.XX=X@X.X.X.X.X{.[.'.|.XXOX*X-X).<.@.",
". & U j.H k k j h h g K r.U.XX=X#X+X+X.X.X X[.[.'.'.^.|.$X(.2.$.",
". & U g.H j j h h s p 8 e.I.XX=X#X+X+X+X.X.X{.[./.~.!.^.OX(.2.$.",
". & U g.H j h h s p p 6 w.I.XX=X#X+X+X+X+X.X.X{.[./.~.[.#X_.4.$.",
". & P g.D h s s p p p 6 w.I.XX=X#X+X+X+X+X+X.X.X X[./. X$X_.4.$.",
". & S d.D s p p p i i 6 w.I.XX=X#X+X@X+X+X+X+X.X.X X[..X$X_.4.$.",
". & S / V p p p i i e 5 w.I.XX=X#X@X@X@X@X+X+X+X.X.X[..X*X_.4.$.",
". % S / V p i i i e e 5 9.P.XX=X$X@X#X#X@X@X@X+X+X.X.X+X=X].2.$.",
". % S ^ B i i i q e 0 3 9.P.XX=X$X#X#X#X#X@X@X@X+X+X.X@X=X].2.$.",
". $ N R h i i q 9 9 9 3 9.P.XX=X$X#X#X#X#X@X@X@X+X+X.X@X=X`.<.$.",
". $ N R V s s a a a i 6 0.P.XX=X#X#X#X#X#X@X@X@X+X.X.X@X=X).<. .",
". % m R I I I I A A A y.e.P.}.%X#X#X#X#X#X@X@X@X+X.X.X+X%X(.<. .",
". $ t n n n n n n u u 7 7.H.}.&X$X#X$X$X#X#X#X#X#X@X@X#X&X).<. .",
">X+ # $ $ $ $ $ # # # ; O.D.].-X=X=X*X*X=X=X=X=X=X*X*X=X;X).<. .",
">X>X>X. . . . . . X X = [ ,.T._.(.E.(.(.(.(.(.(.(.(.(.(.`.Y.;. .",
">X>X>X>X>X>X>X>X>X>X>X>X] $.*.;.;.;.;.;.;.;.;.;.;.;.;.;.>.=.%. .",
">X>X>X>X>X>X>X>X>X>X>X>X} } } { } } } } } } } } } } } } { } |  ."
};
