/* XPM */
static char *page_save[] = {
/* columns rows colors chars-per-pixel */
"32 32 194 2",
"   c #9656CC925D67",
".  c #9693CCC460E4",
"X  c #9E15CCC37A09",
"o  c #A16BD1D66E6A",
"O  c #A20BD24C70BB",
"+  c #A9FAD65B7AEB",
"@  c #BADAE66C7C7D",
"#  c #2D0C5EA3A661",
"$  c #317C6170A71A",
"%  c #38CA66A1AA30",
"&  c #3BB4695EAA53",
"*  c #2B296276B95D",
"=  c #30606637B9E9",
"-  c #32866ACCBCA3",
";  c #3A8A6E22BCAE",
":  c #35E47301BF82",
">  c #3F6C77E7BF0C",
",  c #472571FDB2E6",
"<  c #4A9E7471B56B",
"1  c #4CFE77F9B83A",
"2  c #51B17A13B833",
"3  c #52C87C62BB13",
"4  c #588E7F83BC2A",
"5  c #38E176C1C198",
"6  c #3E037B89C2E8",
"7  c #444775DFC13A",
"8  c #40487CD0C27F",
"9  c #4C257B86C166",
"0  c #54207F61C058",
"q  c #5A988265BF01",
"w  c #632B8592BE7E",
"e  c #44FC8484C4B8",
"r  c #4BD686B5C625",
"t  c #4A08893BC754",
"y  c #54A68176C427",
"u  c #5B5484C9C5B2",
"i  c #5EC48879C749",
"p  c #5BC086CCC951",
"a  c #55468C18CC54",
"s  c #5E568B6ACB10",
"d  c #5A249185CFA3",
"f  c #5C6891D0D1CA",
"g  c #640A8806C72A",
"h  c #61AD89A5C62D",
"j  c #605F86BECF08",
"k  c #632C8CEACC02",
"l  c #68B28E5CCE37",
"z  c #665E93FBCE8E",
"x  c #6B5C9392CE85",
"c  c #6DEC9C6DCFF3",
"v  c #6B5787F5D780",
"b  c #668C893DD825",
"n  c #6A708BE8D158",
"m  c #6AFF87C8DB96",
"M  c #620D8FD2DADE",
"N  c #69808943DD8E",
"B  c #64349755D548",
"V  c #6C6193DDD166",
"C  c #6C139C01D233",
"Z  c #664195C6DB98",
"A  c #669A983DDBBA",
"S  c #68509897DC43",
"D  c #70E296AED166",
"F  c #74519B46D573",
"G  c #79C89E63D581",
"H  c #75A39D6EDA0B",
"J  c #784B9FD7DCA9",
"K  c #6CB7A275DCC0",
"L  c #747DA446D388",
"P  c #7C00A2C0D64A",
"I  c #79CBA86AD5D0",
"U  c #7158A2E6DE44",
"Y  c #7BFCA2B1DCC2",
"T  c #6B9C8B9EE1AA",
"R  c #57F2B71BFA06",
"E  c #5F30BAD2F9E3",
"W  c #61B8AF2DEE91",
"Q  c #7C1FA3CBE085",
"!  c #6ACDB2D5EEF8",
"~  c #7645B816EE3A",
"^  c #63A1BD2AFB84",
"/  c #7ECBBEECF18B",
"(  c #7112BFF9FA3E",
")  c #6DFBC349FDFB",
"_  c #7141C2DBFC5A",
"`  c #7CCBC64CFA49",
"'  c #A6FAD10A8701",
"]  c #AC94D3C58F2E",
"[  c #AFE4D6799252",
"{  c #B0A6D7519331",
"}  c #B4A6D7EBA395",
"|  c #B501D8A0A2C3",
" . c #BC44DAEAAD8E",
".. c #BEBDDC92B2EB",
"X. c #C4B5EAD68B46",
"o. c #C9A4EC1D8EF2",
"O. c #CAA3ED4493FB",
"+. c #81E19CBBCC49",
"@. c #86C0A5AACD32",
"#. c #8E39A726D006",
"$. c #84B4A3BCD59F",
"%. c #8B94A777D410",
"&. c #8FE0A94DD594",
"*. c #832DA737DB4C",
"=. c #8572A92EDE39",
"-. c #8BFBABC3DB62",
";. c #9177AF86DAED",
":. c #8354B2E0E056",
">. c #89FEB55BDF44",
",. c #955EB267DE11",
"<. c #9A00B4FFDCB8",
"1. c #848AA67AE2A4",
"2. c #82A6A8D9E222",
"3. c #8C96AE80E3FA",
"4. c #8280B30AE4B4",
"5. c #8D24B48DE658",
"6. c #9559B566E451",
"7. c #99FAB6D3E35B",
"8. c #9C7FBAA5E64F",
"9. c #97DFB9B9E8F2",
"0. c #9D29BB8DEB5E",
"q. c #A4B3BDE0E4D7",
"w. c #A9BCBF9AE181",
"e. c #9C99C47DECA8",
"r. c #843DCB88FD02",
"t. c #8A3DCF20FE77",
"y. c #9281CE27FA8E",
"u. c #8E5FD280FFD3",
"i. c #910AD21DFF5F",
"p. c #A7ADC84CE615",
"a. c #AFD7CA41E5FE",
"s. c #A5FEC490EBE2",
"d. c #ABB0C733ED0D",
"f. c #A521CB23ED55",
"g. c #ADA4CD9DEE0C",
"h. c #B210C75EE474",
"j. c #B531CA59E66D",
"k. c #B58FCD10EC4B",
"l. c #B980CFC7ECA3",
"z. c #BD01D1D4E9D6",
"x. c #AF9FC728F148",
"c. c #B001C953F166",
"v. c #B5C4CF28F0FE",
"b. c #B9C7CF18F11D",
"n. c #B01BD53AF4E0",
"m. c #A037D678FCBE",
"M. c #BA8BD486F4F8",
"N. c #BCCEDA73F723",
"B. c #B666DB52FD12",
"V. c #C47AD11EDB54",
"C. c #CEE6DAC1DF3B",
"Z. c #DC70EF90C3E0",
"A. c #D248E4FFCBBD",
"S. c #D3E9E8A1CDC4",
"D. c #DB33EE06CDCA",
"F. c #D5E6E925D12F",
"G. c #D8ECEBF9D18B",
"H. c #EE8BFA7EC678",
"J. c #EFCAFB95C8E4",
"K. c #C36FD650EC7B",
"L. c #C6EADA64ECF8",
"P. c #CBAADC9BEE03",
"I. c #D09CDD34EF57",
"U. c #C4D2DD09F6B4",
"Y. c #CA86DF5EF6F9",
"T. c #C44DDE23F990",
"R. c #C84BDF8FF9C0",
"E. c #D0CADF02F301",
"W. c #D023E0AAEDBB",
"Q. c #D8E8E557E68E",
"!. c #D2A7E215EDA6",
"~. c #CBD2E2E1F574",
"^. c #C600E2C9FA9D",
"/. c #CC41E345FBC0",
"(. c #D28DE4BBF713",
"). c #DCB2E6DAF497",
"_. c #DDE4E999F67C",
"`. c #D42CE718FD62",
"'. c #D6C1E935FE15",
"]. c #DC11EAD6FDC3",
"[. c #E375EADFE48C",
"{. c #E184EC4EEDDC",
"}. c #E7B5F375E80F",
"|. c #ECFBF535E7E2",
" X c #E080E859F467",
".X c #E40EEC85F73E",
"XX c #E9DFEF69F78C",
"oX c #E423EF4FFAA3",
"OX c #E79AF190FA3E",
"+X c #EC1CF3E3FC13",
"@X c #F225F688FA39",
"#X c #F77AF9B1FCA5",
"$X c #FE88FF66FFF5",
"%X c None",
/* pixels */
"%X%Xe t t t t t t t t t t t t t e e 6 %X%X%X%X%X%X%X%X%X%X%X%X%X",
"%Xa L I I L L L L L L L L L L L L C d a %X%X%X%X%X%X%X%X%X%X%X%X",
"e c h.P.P.L.L.L.L.L.L.L.L.L.L.K.z.p.:.K A Z %X%X%X%X%X%X%X%X%X%X",
"e L P.@X+XOXOXOXOXOXOXOXoXoXoXoX.X~.f.4.U S %X%X%X%X%X%X%X%X%X%X",
"e L P.+X].`.`.`.`.`.`.(././.Y.(.+XoXN.e.4.U S M %X%X%X%X%X%X%X%X",
"e L P.+X`.^.^./.^.^.R.T.T.N.M.R.+X+X/.n.e.4.U A %X%X%X%X%X%X%X%X",
"e L P.+X'./././././.^.R.T.N.M.Y.+X+X'.^.N.f.5.U a %X%X%X%X%X%X%X",
"e L P.+X'././././././.R.T.T.N.Y.oX+X].'.'.~.g.>.s > %X%X%X%X%X%X",
"e L P.+X]././././././.^.T.T.N.U._.XXOXOX+XOX).a.z 8 %X%X%X%X%X%X",
"e L P.+X]./.`.`././././.^.T.T.U.(.)._..XoX+X@XK.c 6 %X%X%X%X%X%X",
"e L L.+X].`.`.`.`././././.^.T.T.U.U.U.U.U.(.+XL.C 6 %X%X%X%X%X%X",
"e L L.+X].`.`.`.`.`.`.R.M.v.k.g.d.s.s.s.e.d.K.h.C r %X%X%X%X%X%X",
"e L L.+X].'.`.`.`.`.`.N.6.=.-.-.*.*.-.=.P G $.P c z x x k u %X%X",
"e L L.+X].'.'.'.`.'.'.M.*.V P -.-.;.-.-.-.-.-.-.,.<.,.-.G x u %X",
"e L L.+X].'.'.'.'.'.'.M.P D 6.k.E.I.j.h.P.).).).)._._.P.q.*.x u ",
"e L L.+X].'.'.'.'.'.'.v.G D 9.U.+XXXj.j.XX$X$X$X$X$X$XOXk.3.V i ",
"e L L.+X].'.'.'.'.'.'.v.G V 5.M.+X X<.<.).$X$X$X$X$X$X_.d.=.x h ",
"e C K.+X].'.'.'.'.].].l.G z 3.M.+X.Xw.w..X$X$X$X$X$X#X_.s.Y l u ",
"8 C K.+XoX'.'.].].].].b.G V 3.M.+X#X.X.X#X$X$X$X$X$X$X.Xq.G h y ",
"6 C K.oX^.B.B.B.B.B.B.e.F V 3.c.Y._..X X_._.).).).)._.L.7.F i 0 ",
"6 C K./.y.( ( _ _ _ ( ! B D 3.0.8.8.8.8.8.7.7.7.7.7.7.,.*.F h q ",
"5 C K.^.` R E ^ ^ ^ ^ W B D 3.6.2.Y Y Y Y J H H H H F H H D h q ",
"5 z z./.r.) r.t.t.t.t./ C x =.5.2.Q Y Y Y J J H H H H F F x i 4 ",
": z z./.t._ r.i.u.u.u./ B x =.9.9.8.8.8.7.7.6.6.6.6.6.-.P x q 2 ",
"- z l.^.r.^ ) _ _ _ ) ! f k =.s.K.!.!.!.P.P.P.P.P.W.!.z.-.x 3 , ",
"- k z.`.m.r.r.r.r.r.r.~ f k 1.d.).}.G.A.S.F.F.S.A.G.|.!.,.l 1 & ",
"* k K.OX`.^.^.^.^.^.^.f.x s 1.x.).G.[ X ' ] ] ' X { D.!.7.l < & ",
"* p q.K.z.k.j.j.j.j.k.<.z k 3.b.{.Z.+   o + + O . + Z.Q.7.n < % ",
"= 7 p k k p p p p p p u y V 8.P.|.H.o.@ X.O.O.X.@ O.J.[.q.V 1 & ",
"%X%X%X* * * * * * * * - 7 k -.h.C.A. .|  ..... .}  .A.V.&.g , % ",
"%X%X%X%X%X%X%X%X%X%X%X%X; 9 k F $.%.@.@.@.@.@.@.@.@.#.+.w , % $ ",
"%X%X%X%X%X%X%X%X%X%X%X%X= ; 9 u j b T T T N N m m v n u < & $ # "
};
