/* XPM */
static char *script[] = {
/* columns rows colors chars-per-pixel */
"32 32 177 2",
"   c #2B9D56C38D3C",
".  c #2D0F57E38E5E",
"X  c #32735DAD9372",
"o  c #39EB63069655",
"O  c #3F1767A899B7",
"+  c #36A067F59DD4",
"@  c #36E96AEFA15E",
"#  c #3C9C6ED3A3F3",
"$  c #3C3E7485ABCF",
"%  c #3EA47954B0EA",
"&  c #44C36C2C9D44",
"*  c #420A71A5A570",
"=  c #4BA97435A44A",
"-  c #4F9B78B5A81E",
";  c #4CA67B8FADF0",
":  c #51A376E6A51A",
">  c #559379FCA76E",
",  c #55D07CCAAA89",
"<  c #5B0B7E2AA9D3",
"1  c #409E7CECB3FB",
"2  c #5ADD828AAF5F",
"3  c #463981CAB7C8",
"4  c #4CD281E8B63C",
"5  c #461E845ABACD",
"6  c #4B258755BD48",
"7  c #554F82E8B3B3",
"8  c #5CFD85FBB2CB",
"9  c #5CC98B2ABB94",
"0  c #624782B9AC24",
"q  c #680A876DAF3B",
"w  c #64ED86DBB108",
"e  c #605289F1B5BA",
"r  c #6B7D8D3EB51D",
"t  c #63718D80B8A4",
"y  c #6E1A901FB81C",
"u  c #664B90A9BB8A",
"i  c #68E793F1BE90",
"p  c #715A9038B72D",
"a  c #745A9448BAFF",
"s  c #791997FFBDBC",
"d  c #743C9833BED6",
"f  c #7DAB9AD8BF32",
"g  c #4B938C98C3A9",
"h  c #4EC78FB6C8FB",
"j  c #51B38FE3C699",
"k  c #53008E22C964",
"l  c #4E7292C8CA11",
"z  c #500E9721CEDD",
"x  c #5FA394D2CDB1",
"c  c #5D8E9D16D002",
"v  c #6DEB9781C38A",
"b  c #6DB09A92C46C",
"n  c #71D09CADC74A",
"m  c #67C09F3FD14A",
"M  c #6E949FFDDC23",
"N  c #5F47A08FD3CA",
"B  c #573AA2E1DA61",
"V  c #58DCA6B9DE58",
"C  c #746FA297CB7B",
"Z  c #7AC9A398CAA9",
"A  c #6B2BA5C1D4B6",
"S  c #6F9DA08BDCE8",
"D  c #6386A983DD63",
"F  c #742AA5FFD346",
"G  c #72A8A960D6DD",
"H  c #7E31ABEBD462",
"J  c #7404A38FDED3",
"K  c #7B85A6C6DDED",
"L  c #71BFAD19DC59",
"P  c #7C53ACD4DD73",
"I  c #7AD6B2AADE09",
"U  c #6D839F16E0A2",
"Y  c #5B33AA98E22A",
"T  c #6466AE3DE3D7",
"R  c #6CC8AF62E0D4",
"E  c #7CA2AA03E2DD",
"W  c #66F4B036E4CF",
"Q  c #6C70B102E3FE",
"!  c #71F2B3CCE4AB",
"~  c #7B0BB971E7C0",
"^  c #76D9B767E8C9",
"/  c #7DEBBBA1E90F",
"(  c #82C49FAFC304",
")  c #85CCA34DC5FD",
"_  c #8AC9AA28CCB4",
"`  c #934BACB0CCD6",
"'  c #93A2B039D006",
"]  c #816EAB52D7CF",
"[  c #8577AC7BDBCF",
"{  c #8015B3F6DCFD",
"}  c #8E5FB1DCDBC8",
"|  c #92F0B312D7AF",
" . c #9CF1B5BCD2B8",
".. c #92C2B4B0DDE6",
"X. c #9CB3BA59DB53",
"o. c #A0C5B7E1D3B0",
"O. c #A63FBC1FD619",
"+. c #ABAFBFB0D84E",
"@. c #A592BD99D866",
"#. c #8549AD89E13F",
"$. c #889BAFBCE18B",
"%. c #8CF5B2DFE35E",
"&. c #8419BAFFE50E",
"*. c #89B5BE1FE5C9",
"=. c #8606B067E904",
"-. c #8305BE60E925",
";. c #8C19BF50E8F0",
":. c #92A3B637E21B",
">. c #96BDBE46E130",
",. c #98C7B9F9E32A",
"<. c #9170B6DFE962",
"1. c #9577BCE2EECF",
"2. c #981DBF82EF7F",
"3. c #AC5CC2D4DCB4",
"4. c #B264C49EDBDD",
"5. c #BC49CB87DF7A",
"6. c #865FC0C1E9FE",
"7. c #8D16C3CDEBAE",
"8. c #94D2C1E6E80F",
"9. c #9AF5C444E6D8",
"0. c #93E3C547EC13",
"q. c #9C01C258F002",
"w. c #9CA3CA45EDBF",
"e. c #9E3AC410F0FB",
"r. c #A55BC691EB24",
"t. c #AAEEC7AEEDEC",
"y. c #A6C6C9BBEE15",
"u. c #AD56CD40ECBB",
"i. c #B50DCB02E25B",
"p. c #B4FECE26EFF9",
"a. c #AB86D164F001",
"s. c #BD5BD0D2E5CE",
"d. c #B62FD1DBEA5D",
"f. c #BB27D3ECEC4E",
"g. c #A1A4C5C9F10F",
"h. c #AA4ACCB8F126",
"j. c #ABE5CEC2F94B",
"k. c #B3DFD4B9F1FC",
"l. c #BB24D680F375",
"z. c #B827D8E9F3B9",
"x. c #BCDADADAF335",
"c. c #B2EFD3BBF993",
"v. c #B8A8D7A5FA79",
"b. c #BEB1DBE3FA00",
"n. c #C210D00CE1D4",
"m. c #C341D384E5E2",
"M. c #C9FBD668E563",
"N. c #CD59D883E5CB",
"B. c #C4D8D4A2E8DF",
"V. c #C56CDA3FECCB",
"C. c #CC22DCD5EC86",
"Z. c #D242DF59EE10",
"A. c #C335DBD9F4CC",
"S. c #CC17DDA5F34B",
"D. c #C2D2DD9CFA54",
"F. c #C84EE03BFB80",
"G. c #D322E113EECB",
"H. c #C7A2E209F59E",
"J. c #CE1DE2EBF5CE",
"K. c #C6CBE120FAFC",
"L. c #CBCEE2B3FB66",
"P. c #D428E445F487",
"I. c #DA92E6A6F4A5",
"U. c #D366E8B5F7E7",
"Y. c #DDDDE9FCF6ED",
"T. c #D389E68AFB98",
"R. c #D98CE734F9BC",
"E. c #D6D7E976FCD9",
"W. c #DC41EC10FC33",
"Q. c #E3C2EBBAF585",
"!. c #E2A1EEB1FC57",
"~. c #E634F1B5FCE5",
"^. c #EC66F4FDFDD6",
"/. c #F26FF748FD35",
"(. c #F43DF98CFEED",
"). c #FC46FE1FFFC3",
"_. c None",
/* pixels */
"_._._._._._.Y W ^ ~ ^ ! Q T T T Y Y Y Y Y Y Y Y Y Y Y Y _._._._.",
"_._._._._._.W ~ 0.w.w.0.0.7.7.7.6.-.-.-.-.-./ / / ~ ^ ! T _._._.",
"_._._._._.Q ~ w.H.!.W.W.W.W.W.R.U.J.J.H.A.x.x.z.k.a.w.*.R V _._.",
"_._._._._.Q -.a.~.).).).).).).).).(./.^.~.!.!.W.R.P.A.u.*.Q D _.",
"_._._._._.! ;.k.~.)./.^.^./././././././././.(.(.(./.^.R.z.0.R B ",
"_._._._._.L 8.k.~.).~.W.!.!.!.~.^.^.^.^.(.(.(.).).(.!.R.T.z.&.D ",
"_._._._._.L 8.l.~.(.~.E.W.W.W.!.!.~.~.~.^.^.^./.).!.t.r.R.U.9.I ",
"_._._._._.L 9.x.~.(.W.T.E.E.E.E.W.W.W.W.!.!.!.^.).I.%.%.P.P.9.P ",
"_._._._._.L 9.A.!.^.E.L.L.T.T.T.E.E.E.W.W.W.W.~.).I...[ f.f.{ N ",
"_._._._._.G r.A.!.~.T.F.K.L.L.L.L.T.T.T.E.E.E.~.).I.} F >.>.A z ",
"_._._._.l G r.S.W.W.L.D.D.F.F.K.L.L.L.L.L.T.T.W.(.I.[ x m A c _.",
"_._._._.h G u.J.R.E.F.b.b.D.D.D.F.K.K.K.L.L.L.W.(.P.] k h l _._.",
"_._._._.g F d.U.R.T.D.b.b.b.b.D.D.D.D.D.F.F.K.E.(.P.H j _._._._.",
"_._._._.g F f.Y.T.L.D.b.b.b.b.D.D.D.D.D.D.D.F.E.(.P.H j _._._._.",
"_._._._.5 C V.~.T.F.b.b.b.b.D.D.D.D.D.D.D.D.F.E.(.P.H g _._._._.",
"_._._._.5 C C.^.T.D.b.b.b.b.D.D.D.D.D.D.D.D.F.E.(.G.Z 6 _._._._.",
"_._._._.3 C C.^.T.D.b.b.b.b.D.D.D.D.D.D.D.D.K.E./.C.C 3 _._._._.",
"_._._._.3 C C.^.T.b.b.b.b.D.D.D.D.D.D.D.D.F.L.E.^.V.n 1 _._._._.",
"_._._._.4 Z Z.^.T.b.b.b.D.D.D.D.D.D.D.D.D.F.L.W.~.m.b % _._._._.",
"_._._._.4 Z G./.T.b.b.b.D.D.D.D.D.D.D.D.D.F.T.W.Y.s.v $ _._._._.",
"_._._._.4 Z G.(.T.D.b.D.D.D.D.D.D.D.D.D.D.K.E.W.I.i.i $ _._._._.",
"_._._._.9 _ G.^.L.v.v.b.b.b.D.D.D.D.D.D.F.L.W.Y.G.3.u # _._._._.",
"_._._.7 n X.P.!.b.j.c.c.v.b.b.D.D.K.K.K.L.E.~.!.C.@.t @ _._._._.",
"_._.@ ; v | d.l.g.1.2.q.e.g.g.y.y.y.h.h.k.A.W.Y.B. .e @ _._._._.",
"_._.+ * 7 v [ %.E J J J J J J J S M M J E 1.A.J.i.' 8 _._._._._.",
"_.# = 2 d _ ..,.:.:.%.%.$.#.[ K K K K J U =.l.S.3._ 2 _._._._._.",
"_.= r _ m.I.Y.Y.Y.Y.Y.I.I.P.P.J.S.S.S.p.%.<.A.S.3.) , _._._._._.",
"X - d  .Z././././.(.).).).).).).).).).!.p.t.T.S.@.( , _._._._._.",
"_.= r ) 3.m.B.C.Z.I.Q.Q.^./.(.).).).)./.R.T.!.Z. .s > _._._._._.",
"_._.2 y ) ` `  .o.O.+.4.4.5.5.n.m.M.N.M.m.s.B.4.( w = _._._._._.",
"_._.& = : > > > < < < < < < < 0 0 q r r p a f p > & _._._._._._.",
"_._._..                       . X X o O & = , : o . _._._._._._."
};
