/* XPM */
static char *shape_move_front[] = {
/* columns rows colors chars-per-pixel */
"32 32 65 1",
"  c #539D7FFFD255",
". c #5AD58551D4BB",
"X c #629B8B99D726",
"o c #68939001D63F",
"O c #66288F65D890",
"+ c #676D91F0D9CF",
"@ c #6BB59474DA86",
"# c #6F0F9897DC42",
"$ c #75C897FBD626",
"% c #7C439CAED83B",
"& c #70B496A7DA6B",
"* c #73AF9BBDDD5E",
"= c #7BAF9E04DCCD",
"- c #77DAA085DF68",
"; c #7C45A194DF00",
": c #7D2CA59CE197",
"> c #7F68A8F7E33F",
", c #838AA420DEF2",
"< c #85A9AA35E05D",
"1 c #900BAFC3DE5D",
"2 c #B37DC01ED718",
"3 c #85D4A6D9E0CE",
"4 c #8542AAAEE355",
"5 c #8BE1AC95E318",
"6 c #9098AFDFE43E",
"7 c #8CEAB36EE6DF",
"8 c #9464B431E5C3",
"9 c #9943B755E709",
"0 c #9771B85CE82A",
"q c #9AFAB9AFE767",
"w c #9783B915E86C",
"e c #9CB4BC5EE98B",
"r c #A0EEBF36EAA1",
"t c #B4A9C05DD18E",
"y c #BC2CC85DD81E",
"u c #BBABC829DDDC",
"i c #A459C2B5EB55",
"p c #BBD3D25BEFD1",
"a c #C565C565C565",
"s c #CCE5CCD0CCB1",
"d c #C21CCC00DC5B",
"f c #C909D303DF7D",
"g c #D4E5D4D5D4C1",
"h c #D88BD7B8D639",
"j c #DA5CD93FD764",
"k c #DBACDB9CDB85",
"l c #E26BE166DFB1",
"z c #C85AD285E41C",
"x c #CE7BD900EC56",
"c c #D4DCDEB2EE78",
"v c #D402DE75F207",
"b c #D968E31EEFA0",
"n c #D73DE190F428",
"m c #DD4CE5F1F3F5",
"M c #DFA2E969F62A",
"N c #E463E457E442",
"B c #E882E7F5E6E0",
"V c #EA13E956E7C8",
"C c #EC97EC97EC97",
"Z c #E472ECDFF7E5",
"A c #F4AAF49DF48A",
"S c #F8C4F88AF747",
"D c #F573F7BAFAB5",
"F c #FDC2FD7AFCF5",
"G c None",
/* pixels */
"VBBNNNNNNkkkkkjhggggGGGGGGGGGGGG",
"BVCCCVVVBBNNNNNNNkggGGGGGGGGGGGG",
"BCASSSSSSSAAAAAAACjgGGGGGGGGGGGG",
"NCSFFFFFFFFFFFFFFAksGGGGGGGGGGGG",
"NVSFFFFFFFFFFFFFFAjsGGGGGGGGGGGG",
"NVSFFFFFFFFFFFFFFAjsGGGGGGGGGGGG",
"NBSFFFFFFFFFFFFFFAjsGGGGGGGGGGGG",
"kBSFFDZMMMMMMMMMMcdtGGGGGGGGGGGG",
"kBAFFZpiiiiiiiiiie81<:::--GGGGGG",
"kNAFFZi7788777775554444>;=GGGGGG",
"kNAFFZi7weeeeeeww0008885;*GGGGGG",
"kNCAAbi7eiiiiirreeeqq995;&GGGGGG",
"jkkkkfq7eiiiireeeqq99885*#GGGGGG",
"jhgggy87eiirreeeq9988884*@GGGGGG",
"GGGGGG57eireeeqq90888883*+GGGGGG",
"GGGGGG47weeeqq9988888653#OGGGGGG",
"GGGGGG450eeq99088885555,@XGGGGGG",
"GGGGGG>48eq998888655555;+oGGGGGG",
"GGGGGG:4899988885555553=O$2jhggg",
"GGGGGG:4898888855555333=X%dNNkgg",
"GGGGGG-:78888655555333,=X=xSACjg",
"GGGGGG*;354333,;;=====*@.;vFFAks",
"GGGGGG******#@@+OOXXXXX. =vFFAjs",
"GGGGGG&#@@+&=,<3,,,,,;===9mFFAjs",
"GGGGGGGGGGGGuzcnnvvvvvvvvmAFFAhs",
"GGGGGGGGGGGGlVSFFFFFFFFFFFSFFAhs",
"GGGGGGGGGGGGkBSFFFFFFFFFFFSFFCga",
"GGGGGGGGGGGGkNAFFFFFFFFFFFFFFCga",
"GGGGGGGGGGGGkNAFFFFFFFFFFFFFFCga",
"GGGGGGGGGGGGkNCAAAAAAAAACCCCCNsa",
"GGGGGGGGGGGGjkkkkkkkkjjhhggggsaa",
"GGGGGGGGGGGGjhggggssssssaaaaaaaa"
};
