/* XPM */
static char *shape_rotate_clockwise[] = {
/* columns rows colors chars-per-pixel */
"32 32 84 1",
"  c #2B5A6CEA25D5",
". c #2DC06FBB2819",
"X c #2F7571EF29E9",
"o c #363079B530DC",
"O c #39257C6D327E",
"+ c #3D3081AA369E",
"@ c #421684B43C63",
"# c #43BC8A593CEA",
"$ c #45C687BB4058",
"% c #47458A274181",
"& c #494D8C7542B9",
"* c #4C2D934B44C8",
"= c #4F5E99AA475B",
"- c #4F96927B48F0",
"; c #5348965E4D30",
": c #540E9BB64BFE",
"> c #57A999215237",
", c #59969CED5310",
"< c #570FA4474E26",
"1 c #58B8A66C4EC8",
"2 c #5CB5A5755452",
"3 c #5C91A96552D8",
"4 c #60A0AA605740",
"5 c #6360A4FA5C9C",
"6 c #6689ADF65D74",
"7 c #6873AEA55FA9",
"8 c #66D4B27B5D0C",
"9 c #691DB2565F8F",
"0 c #66A5A7C560B3",
"q c #6739A8DF60F6",
"w c #6AE8AE5162E1",
"e c #6F53AF5F68F6",
"r c #71BEAFBD6A2B",
"t c #6CF8B505637C",
"y c #74E3B5B36D39",
"u c #746DBA126AA6",
"i c #780AB9216EFA",
"p c #7911B6FB710C",
"a c #7C2FBB7F744F",
"s c #80BBC007772B",
"d c #806FBEA979AB",
"f c #85DEC3187D50",
"g c #574F887ACFC9",
"h c #580B893AD025",
"j c #5B588BDCD1C5",
"k c #61258F60D363",
"l c #64AB92DFD5DA",
"z c #6AC29695D74C",
"x c #696C9709D910",
"c c #6D129AF5DBBE",
"v c #74209D6FDB5C",
"b c #7328A0DFDFE9",
"n c #7CB5A3D6DE0E",
"m c #7634A2BEE114",
"M c #7B64A619E277",
"N c #7DDBA8DCE626",
"B c #87BBC4248044",
"V c #8AD1C5D782B8",
"C c #8F43C972872E",
"Z c #8F94C9408826",
"A c #935DCB8F8B07",
"S c #997FCEDC9121",
"D c #827EA5F4DE12",
"F c #86DDA8E4DF86",
"G c #89A9AA7EDFA9",
"H c #86A2AC30E272",
"J c #8B65AD37E1A6",
"K c #8EA9B14CE3FA",
"L c #92BEB227E368",
"P c #860EB29FF459",
"I c #8BD9B655F522",
"U c #8FB6B934F617",
"Y c #9416BBDCF688",
"T c #99E0BF88F729",
"R c #9D25C215F7FC",
"E c #9F96C3F9F8B2",
"W c #A135C4B3F865",
"Q c #A335C621F8C6",
"! c #A78DC881F8CC",
"~ c #AC8FCAB8F8F7",
"^ c #B28ECE67F9AA",
"/ c #B71CD152F9E5",
"( c #BA9BD313FA38",
") c None",
/* pixels */
"))))))))))))))))))))))))))))))))",
"))))))))))))))))))))))))))))))))",
"))))))))))))))))))))))))))))))))",
"))))))))))))))))))))))))))))))))",
"))))))))))))33<)))))))))))))))))",
"))))))))))))4422))))))))))))))))",
")))))))))3137ww5:)))))))))))))))",
"))))))tttt9tipyw,*))))))))))))))",
")))))9uasfffVVBa5;#)))))))))))))",
"))))tusfVCAAAZCdq;@)))))))))))))",
")))tafAAAZACffVa5-+)))))))))))))",
"))8ufASSAVBfaaae,%O)))))))))))))",
"))uaCSSACfpypy0>$o))nN))))))))))",
")9ifASAVar5505;$o)))NN))))))))))",
"<6aBAAZa5-&%$@Oo))))MMM)))))))))",
":2tpaay5&Oo)X. )))))MMM)))))))))",
":::::;-&+o))))))))))MMmm))))))))",
"==*##++Oo)))))))))))mMMM))))))))",
"))))))))))))))))))))mMHHn)))))))",
"))))))))))))))))YY))bMKLMv))))))",
"))))))))))))))YYYY))vMLLHn))))))",
"))))))))))))EWETYU))cnLLJnv)))))",
"))))))))))TR!~^!YI))cnJLJDvl))))",
")))))))))WWQ~/(^TI))cvFJJDvx))))",
")))))))E!~~^/((~YI))xvDGGDnvz)))",
"))))))Q!~^/((((~YP))xvnFDDnvz)))",
"))))RW~^((((((/!YP))xcnDDnnvlj))",
"))ERRE!~^^~~~~!EIP))lzvvvvvzkj))",
"WERRRRRRRTTYYYYIPP))lllllllkjjhg",
"WERRTTYYYUIIPPPPPP))llljjjjjjjhg",
"))))))))))))))))))))))))))))))))",
"))))))))))))))))))))))))))))))))"
};
