/* XPM */
static char *star[] = {
/* columns rows colors chars-per-pixel */
"32 32 66 1",
"  c #CDCF83B70D58",
". c #CF4A865D1039",
"X c #CFCF88F910F4",
"o c #D29B8D5A15E6",
"O c #D2CB903B15ED",
"+ c #D605945D1BD5",
"@ c #D6D59A571C2B",
"# c #D85F9B121E84",
"$ c #D8BAA0371F9C",
"% c #EA3FB6371D71",
"& c #EADAB8AD1F0B",
"* c #DA8E9D17241B",
"= c #DC0AA5772539",
"- c #DCE7A99326A6",
"; c #DE69A5832AF7",
": c #DF10AC042ACD",
"> c #E023B0BB2B9D",
", c #E0F5ADE82EC8",
"< c #EA54B5D82381",
"1 c #EC45BCBB22FF",
"2 c #E10BB27A2D35",
"3 c #EA3AB63F2BC3",
"4 c #EC42BC122A68",
"5 c #E1C3A789319D",
"6 c #E34BAD143441",
"7 c #E64DAFEE39EB",
"8 c #E38BB33F33DB",
"9 c #EA23B65E32A5",
"0 c #E557BBFE35DD",
"q c #EB3DB9FB3429",
"w c #E6DAB5583AA4",
"e c #E976B5F73D2D",
"r c #E6C3BBD13A4C",
"t c #EA76BB1D3DCC",
"y c #EE1DC1F12613",
"u c #EF22C5952A3D",
"i c #F055C95B2CCA",
"p c #F154CC3B2DCD",
"a c #E661C0B535D1",
"s c #EED5C5723328",
"d c #F040CA8730D2",
"f c #E7B9C1F73AF6",
"g c #EADAC65B3BEB",
"h c #EA69C9C13D4F",
"j c #F149CC9733AB",
"k c #F19CCE103B40",
"l c #F347D12735B2",
"z c #F33FD1AB3C01",
"x c #EAC2BD73421D",
"c c #EC02C4794367",
"v c #EC47CC7D43C5",
"b c #ED85C5A44990",
"n c #EEADCCA24C13",
"m c #F1AACDB3451E",
"M c #F132CD334B51",
"N c #ED74D0C64622",
"B c #EF31D25E4C53",
"V c #F416D4F5448B",
"C c #F32BD38C4C6D",
"Z c #F59DDA9A4EB7",
"A c #F170CE45510E",
"S c #F2D3D56F53C6",
"D c #F2E0D97A554F",
"F c #F3CBD79D5A09",
"G c #F4F5DBEC5B31",
"H c None",
/* pixels */
"HHHHHHHHHHHHHHHHHHHHHHHHHHHHHHHH",
"HHHHHHHHHHHHHHHHHHHHHHHHHHHHHHHH",
"HHHHHHHHHHHHHHhhggHHHHHHHHHHHHHH",
"HHHHHHHHHHHHHHhhhhHHHHHHHHHHHHHH",
"HHHHHHHHHHHHHHvvvvgHHHHHHHHHHHHH",
"HHHHHHHHHHHHHvnBBngHHHHHHHHHHHHH",
"HHHHHHHHHHHHgvBSSng0HHHHHHHHHHHH",
"HHHHHHHHHHHHhvSFFSc0HHHHHHHHHHHH",
"HHHHHHHHHHHhvnSGFSvf0HHHHHHHHHHH",
"HHHHHHHHHHhvnSDFSCncr0HHHHHHHHHH",
"HHHHHgggfgvnSDSCmmMncr822>:HHHHH",
"HHHNvvvvvvBSDSVkjkMnbxr08888,:HH",
"hvNBDDDDDFFFSVkdisgcbbbxxtww8,-=",
"hvNBDGGGGGDSVkjuuuusccccxxtw8:-=",
"HHhvBDGGZVVzjjiuyy14444qxxe8:-HH",
"HHHhvBFGZVlppiuuy111&%<9tx8,-=HH",
"HHHHgvBSDZzppiuyy11&%<qte8:-HHHH",
"HHHHafcnFDzjiuyy111%%3txw,-=HHHH",
"HHHHHHacSSVkiuyy11&%%3tx6=HHHHHH",
"HHHHHH0fnSCmdyy11&%%<3tw:=HHHHHH",
"HHHHHHHrcnSMsy111%%<3qe8;$HHHHHH",
"HHHHHHH0cbAMsy444<<<39w6=#HHHHHH",
"HHHHHHH0cnMmsssggq3<33w6=@HHHHHH",
"HHHHHH20cnMmggcccxq939w6*+HHHHHH",
"HHHHHH20cnAAMbxxttxxtee6*OHHHHHH",
"HHHHHH>0bnnbbxtw88weeee6#oHHHHHH",
"HHHHHH:0bncr8,:::;=;;675+XHHHHHH",
"HHHHHH:8xcr8-==HHH@#*;;*o HHHHHH",
"HHHHHH::28::HHHHHHHHH++o. HHHHHH",
"HHHHHH:---HHHHHHHHHHHH    HHHHHH",
"HHHHHHHHHHHHHHHHHHHHHHHHHHHHHHHH",
"HHHHHHHHHHHHHHHHHHHHHHHHHHHHHHHH"
};
