/* XPM */
static char *text_columns[] = {
/* columns rows colors chars-per-pixel */
"32 32 102 2",
"   c #02CD02CD02CD",
".  c #03D003D003D0",
"X  c #05D405D405D4",
"o  c #07EF07EF07EF",
"O  c #09F009F009F0",
"+  c #0BE50BE50BE5",
"@  c #0D220D220D22",
"#  c #0DEB0DEB0DEB",
"$  c #0F740F740F74",
"%  c #102910291029",
"&  c #124D124D124D",
"*  c #12D712D712D7",
"=  c #141E141E141E",
"-  c #14D014D014D0",
";  c #175317531753",
":  c #17EE17EE17EE",
">  c #192E192E192E",
",  c #19D719D719D7",
"<  c #1B711B711B71",
"1  c #1C161C161C16",
"2  c #1CB81CB81CB8",
"3  c #1E571E571E57",
"4  c #1EF21EF21EF2",
"5  c #204320432043",
"6  c #215F215F215F",
"7  c #21E321E321E3",
"8  c #23F123F123F1",
"9  c #24F324F324F3",
"0  c #266826682668",
"q  c #271D271D271D",
"w  c #27C127C127C1",
"e  c #295F295F295F",
"r  c #2A342A342A34",
"t  c #2C792C792C79",
"y  c #2D452D452D45",
"u  c #2E5B2E5B2E5B",
"i  c #2F6B2F6B2F6B",
"p  c #305730573057",
"a  c #322632263226",
"s  c #333733373337",
"d  c #340634063406",
"f  c #351F351F351F",
"g  c #362436243624",
"h  c #370537053705",
"j  c gray22",
"k  c #394F394F394F",
"l  c #3A603A603A60",
"z  c #3B513B513B51",
"x  c #3C533C533C53",
"c  c #3D563D563D56",
"v  c #3E033E033E03",
"b  c #3F7A3F7A3F7A",
"n  c #402740274027",
"m  c #412941294129",
"M  c #423242324232",
"N  c #436043604360",
"B  c #441644164416",
"V  c gray27",
"C  c #467F467F467F",
"Z  c #473547354735",
"A  c #485E485E485E",
"S  c #497649764976",
"D  c #4A444A444A44",
"F  c #4B574B574B57",
"G  c #4D294D294D29",
"H  c #4E124E124E12",
"J  c #4F4E4F4E4F4E",
"K  c #505050505050",
"L  c #511651165116",
"P  c #525B525B525B",
"I  c #537753775377",
"U  c #544054405440",
"Y  c #554255425542",
"T  c #567056705670",
"R  c #574857485748",
"E  c #586658665866",
"W  c #597D597D597D",
"Q  c #5B665B665B66",
"!  c #5C1B5C1B5C1B",
"~  c #5D7C5D7C5D7C",
"^  c #5E245E245E24",
"/  c #5FC85FC85FC8",
"(  c #606360636063",
")  c #610061006100",
"_  c #62A762A762A7",
"`  c #634A634A634A",
"'  c #648E648E648E",
"]  c #652A652A652A",
"[  c #67B167B167B1",
"{  c #686568656865",
"}  c #696869686968",
"|  c #6A376A376A37",
" . c #6B6D6B6D6B6D",
".. c #6C946C946C94",
"X. c #6D876D876D87",
"o. c #6E986E986E98",
"O. c #6F906F906F90",
"+. c #719071907190",
"@. c #739673967396",
"#. c #752275227522",
"$. c #765B765B765B",
"%. c None",
/* pixels */
"%.%.%.%.%.%.%.%.%.%.%.%.%.%.%.%.%.%.%.%.%.%.%.%.%.%.%.%.%.%.%.%.",
"%.%.%.%.%.%.%.%.%.%.%.%.%.%.%.%.%.%.%.%.%.%.%.%.%.%.%.%.%.%.%.%.",
"%.%.%.%.%.%.%.%.%.%.%.%.%.%.%.%.%.%.%.%.%.%.%.%.%.%.%.%.%.%.%.%.",
"%.%.%.%.%.%.%.%.%.%.%.%.%.%.%.%.%.%.%.%.%.%.%.%.%.%.%.%.%.%.%.%.",
"%.%.%.%.%.%.%.%.%.%.%.%.%.%.%.%.%.%.%.%.%.%.%.%.%.%.%.%.%.%.%.%.",
"%.%.%.%.%.%.%.%.%.%.%.%.%.%.%.%.%.%.%.%.%.%.%.%.%.%.%.%.%.%.%.%.",
"%.%.%.%.$.$.#.@.+.O.X. .} { %.%.%.%.W E Y P J G S C N M %.%.%.%.",
"%.%.%.%.$.$.#.@.+.O.X. .} { %.%.%.%.W E Y P K G D Z B M %.%.%.%.",
"%.%.%.%.%.%.%.%.%.%.%.%.%.%.%.%.%.%.%.%.%.%.%.%.%.%.%.%.%.%.%.%.",
"%.%.%.%.%.%.%.%.%.%.%.%.%.%.%.%.%.%.%.%.%.%.%.%.%.%.%.%.%.%.%.%.",
"%.%.%.%.O.o...| [ ] _ / ~ ! %.%.%.%.F S C N n c l h d s %.%.%.%.",
"%.%.%.%.O.o...| [ ] _ ( ~ ! %.%.%.%.F D Z B m v z j f s %.%.%.%.",
"%.%.%.%.%.%.%.%.%.%.%.%.%.%.%.%.%.%.%.%.%.%.%.%.%.%.%.%.%.%.%.%.",
"%.%.%.%.%.%.%.%.%.%.%.%.%.%.%.%.%.%.%.%.%.%.%.%.%.%.%.%.%.%.%.%.",
"%.%.%.%.' ` ( ^ Q E Y P K J %.%.%.%.c z j f a i t e 0 9 %.%.%.%.",
"%.%.%.%.' ` ) ^ ! W T I K J %.%.%.%.v x k g s p y e 0 9 %.%.%.%.",
"%.%.%.%.%.%.%.%.%.%.%.%.%.%.%.%.%.%.%.%.%.%.%.%.%.%.%.%.%.%.%.%.",
"%.%.%.%.%.%.%.%.%.%.%.%.%.%.%.%.%.%.%.%.%.%.%.%.%.%.%.%.%.%.%.%.",
"%.%.%.%.E T I K G D Z B m n %.%.%.%.u t e 0 8 6 3 < > : %.%.%.%.",
"%.%.%.%.E R U L H F A V M n %.%.%.%.u y r q 9 7 4 1 > : %.%.%.%.",
"%.%.%.%.%.%.%.%.%.%.%.%.%.%.%.%.%.%.%.%.%.%.%.%.%.%.%.%.%.%.%.%.",
"%.%.%.%.%.%.%.%.%.%.%.%.%.%.%.%.%.%.%.%.%.%.%.%.%.%.%.%.%.%.%.%.",
"%.%.%.%.D A V M b x k g s a %.%.%.%.5 4 1 , ; - & $ @ + %.%.%.%.",
"%.%.%.%.D S C N n c l h d a %.%.%.%.5 4 2 , ; - & % @ + %.%.%.%.",
"%.%.%.%.%.%.%.%.%.%.%.%.%.%.%.%.%.%.%.%.%.%.%.%.%.%.%.%.%.%.%.%.",
"%.%.%.%.%.%.%.%.%.%.%.%.%.%.%.%.%.%.%.%.%.%.%.%.%.%.%.%.%.%.%.%.",
"%.%.%.%.x l h s p y r q 9 8 %.%.%.%.= * % # + O o X .   %.%.%.%.",
"%.%.%.%.x l h s p y r w 9 8 %.%.%.%.= * % # + O o X .   %.%.%.%.",
"%.%.%.%.%.%.%.%.%.%.%.%.%.%.%.%.%.%.%.%.%.%.%.%.%.%.%.%.%.%.%.%.",
"%.%.%.%.%.%.%.%.%.%.%.%.%.%.%.%.%.%.%.%.%.%.%.%.%.%.%.%.%.%.%.%.",
"%.%.%.%.%.%.%.%.%.%.%.%.%.%.%.%.%.%.%.%.%.%.%.%.%.%.%.%.%.%.%.%.",
"%.%.%.%.%.%.%.%.%.%.%.%.%.%.%.%.%.%.%.%.%.%.%.%.%.%.%.%.%.%.%.%."
};
