/* XPM */
static char *application[] = {
/* columns rows colors chars-per-pixel */
"32 32 70 1",
"  c #4D166E75A750",
". c #4E3A6F8EA87E",
"X c #4F39709BA90C",
"o c #5257753AAD2F",
"O c #54B47827B00E",
"+ c #5D287B56AF86",
"@ c #56BA79A8B1DA",
"# c #591D7D65B548",
"$ c #5AEB807DB7F6",
"% c #5D3182AABA5A",
"& c #606E861DBD68",
"* c #63E488C0BEE0",
"= c #69E48A9CBCEA",
"- c #71F28C6BB9CC",
"; c #74CC947ABFFE",
": c #7C2D94FABEE4",
"> c #63958A2AC18C",
", c #6A738D5EC079",
"< c #6BD492A3C7DD",
"1 c #6C5A9452CA85",
"2 c #6EFC9895CEB0",
"3 c #74C696CEC7A0",
"4 c #7E1D9718C10D",
"5 c #76809874C51F",
"6 c #7F529970C298",
"7 c #72189649C8C4",
"8 c #73439959CD0D",
"9 c #7B659CC9C976",
"0 c #6FB09A22D13E",
"q c #73D49DBCD406",
"w c #78769F61D203",
"e c #7E7CA1BECEEE",
"r c #7726A0E2D6C7",
"t c #7A65A2B4D655",
"y c #761CA190D9C7",
"u c #7B4BA58ADAD2",
"i c #7E7AAA3ADF04",
"p c #81F19C1BC5A2",
"a c #830F9FA5CA65",
"s c #862DA22FCBB9",
"d c #896DA545CE73",
"f c #8B96A81FD09A",
"g c #85F1A933D696",
"h c #8E4BAB58D43E",
"j c #82C0AB86DE2C",
"k c #8AA5AEF5DC4D",
"l c #90C0AE15D76C",
"z c #9151AF96D86E",
"x c #9561B4E7DDCD",
"c c #8BCBB402E4D8",
"v c #9226B6DEE40F",
"b c #9AF0BC34E4CD",
"n c #B4BAC2C5DACD",
"m c #BE7ACEA7E5E6",
"M c #C076D1AEE8FE",
"N c #D5D7DE39EBE7",
"B c #C62AD8F9F079",
"V c #D7FEE10AEE90",
"C c #D8AEE1DBEF65",
"Z c #DC48E648F3B6",
"A c #DFB9EA57F751",
"S c #E3D7EBA7F63B",
"D c #EA00EF57F6F8",
"F c #E2C3ECD8F8BF",
"G c #EC7EF1B2F7DE",
"H c #EE87F394F97C",
"J c #F2B3F6C7FB39",
"K c #F68AFA3AFC2C",
"L c #FD30FEB2FECF",
"P c None",
/* pixels */
"PPPPPPPPPPPPPPPPPPPPPPPPPPPPPPPP",
"PPPPPPPPPPPPPPPPPPPPPPPPPPPPPPPP",
"PPgkiuuuuutrrqqqqq882211115;PPPP",
"*8kcjjjjjjiiuuuuuttttrwwwwe9=PPP",
"tjcvcccccccccccccccccccccccg3=PP",
"jjcccccccccccccccccccccccccj8,PP",
"iiiiiiiiiiiiiiiiiiiiiiiiiiit<,PP",
"ujvbbbbbbbbbbbbbbbbbbbbbbbbk7*PP",
"yvBFFAAAAAAAAAAAAAAAAAAAFFFMa&PP",
"ybALLLLLLLLLLLLLLLLLLLLLLLLCs%PP",
"ybALLLLLLLKKKKKKJJJJHHGDDJLCs%PP",
"ybALLKKKKKKJJJJJHHGDDDSSSDLVs$PP",
"qbALLLLKKKKKKJJJJHHGGGDDSHLVs#PP",
"qbALLLLLLKKKKKKJJJJHHHGGDJLNa#PP",
"qxZLLLLLLLKKKKKKKJJJJJHHGJLNp@PP",
"qxZLLLLLLLLLKKKKKKKJJJJHHKLNp@PP",
"qxZLLLLLLLLLLKKKKKKKKJJJJKLNp@PP",
"qxZLLLLLLLLLLLLKKKKKKKKJJKLNpOPP",
"0xZLLLLLLLLLLLLLKKKKKKKKKKLNpOPP",
"2xZLLLLLLLLLLLLLLLLKKKKKKLLN6oPP",
"1xZLLLLLLLLLLLLLLLLLLLKKKLLN4oPP",
"1zZLLLLLLLLLLLLLLLLLLLLKKLLN:XPP",
"<lZLLLLLLLLLLLLLLLLLLLLLKLLN:.PP",
"<lZLLLLLLLLLLLLLLLLLLLLLLLLN: PP",
"<hZLLLLLLLLLLLLLLLLLLLLLLLLN: PP",
">smZZCCCVVVNNNNNNNNNNNNNNNNn- PP",
"@=affdddsssappppp66644:::::-+XPP",
"P@&>*&&%%$$##@@OOoooooXX.   XPPP",
"PPPPPPPPPPPPPPPPPPPPPPPPPPPPPPPP",
"PPPPPPPPPPPPPPPPPPPPPPPPPPPPPPPP",
"PPPPPPPPPPPPPPPPPPPPPPPPPPPPPPPP",
"PPPPPPPPPPPPPPPPPPPPPPPPPPPPPPPP"
};
