/* XPM */
static char *bullet_go[] = {
/* columns rows colors chars-per-pixel */
"32 32 206 2",
"   c #1A2578C30000",
".  c #1A197A9D0000",
"X  c #1B897A240103",
"o  c #1C597AB00000",
"O  c #1D2A7AFE00C7",
"+  c #1F9B7C870043",
"@  c #20FA7D660000",
"#  c #22687E4F0000",
"$  c #23387E570000",
"%  c #25487FE60457",
"&  c #262F809E0000",
"*  c #2610803B04D0",
"=  c #2A6B82BF0D2D",
"-  c #2B6F830D0D53",
";  c #2B37842C0E76",
":  c #2CE8847B0BFC",
">  c #2F20858E0BA7",
",  c #2C5E84CF0D91",
"<  c #2D9F84D00EBB",
"1  c #326F85D60371",
"2  c #317886CB0C6A",
"3  c #313D86F90C9F",
"4  c #355388EE0B80",
"5  c #392D8A380BA4",
"6  c #3DA58C7C0F21",
"7  c #2B17831E101D",
"8  c #2C20835B1005",
"9  c #3B8A8BD410C8",
"0  c #3E2B8D431320",
"q  c #3F4F8D4C1329",
"w  c #41B68E4112D3",
"e  c #42BB8E0613EC",
"r  c #44B38F3015DB",
"t  c #492491C619FB",
"y  c #495692571D47",
"u  c #4E9195AF1EBF",
"i  c #40568F2D22FE",
"p  c #412B903D21A1",
"a  c #4025903D2239",
"s  c #458192782005",
"d  c #448392772342",
"f  c #4510925C2645",
"g  c #4A97947922E7",
"h  c #4ED4951621F1",
"j  c #48AC94872468",
"k  c #4BD5954123CB",
"l  c #457192962904",
"z  c #4889948B29B5",
"x  c #515697B4212B",
"c  c #5539973C257B",
"v  c #53319847224D",
"b  c #56E59976249B",
"n  c #56959A0E27AE",
"m  c #5466998D2CCD",
"M  c #54C89A362D1E",
"N  c #5AF59B1F27F3",
"B  c #5A249AB62CAF",
"V  c #58C49B742F8C",
"C  c #5FCD9CAB2C13",
"Z  c #5F0A9D282C14",
"A  c #58A19C2A301D",
"S  c #5CFF9D7031EA",
"D  c #5C759DE73397",
"F  c #59C09D2F3429",
"G  c #5F2C9ED63636",
"H  c #632E9EF12E80",
"J  c #632B9F3B2FAA",
"K  c #60EA9E9E32E5",
"L  c #64649EE92FBE",
"P  c #64289FD030EE",
"I  c #64C0A0053432",
"U  c #66C5A0CA311C",
"Y  c #663BA02331B5",
"T  c #6747A14B32B1",
"R  c #66D2A1C9368A",
"E  c #69D9A1C8331B",
"W  c #6977A279354D",
"Q  c #69CCA2E13687",
"!  c #6B78A395372F",
"~  c #6C8CA33536AC",
"^  c #62A0A0A938FE",
"/  c #6610A28038E8",
"(  c #6038A1563DEE",
")  c #69C2A30F389C",
"_  c #6A3AA3DC394E",
"`  c #6B00A3B33909",
"'  c #6E67A4F43B58",
"]  c #695BA41B3ECF",
"[  c #6FB0A5D03DB5",
"{  c #5F99A23B41DF",
"}  c #62DEA3B74224",
"|  c #60DDA2FB455F",
" . c #6261A35E4458",
".. c #611BA29645C7",
"X. c #6305A40D466C",
"o. c #63CEA43146C5",
"O. c #678AA5444581",
"+. c #6FE9A78A43CB",
"@. c #6D04A81B4A6E",
"#. c #722BA74B402F",
"$. c #704CA8134422",
"%. c #7233A93045B3",
"&. c #72C6A9E14738",
"*. c #73D8A9FC47B9",
"=. c #73F4A957473C",
"-. c #7500AB10484B",
";. c #76D3AB48496A",
":. c #7745ABBE4AB4",
">. c #72DFAB0A4EBC",
",. c #77BFABF34DA4",
"<. c #78C0ABBD495E",
"1. c #79CCABBD4968",
"2. c #7A0DACF54BEC",
"3. c #7AA5AD5B4D28",
"4. c #7CABADC84D9D",
"5. c #7A4FAECE5574",
"6. c #7957AFB25B52",
"7. c #7B4AB20F6208",
"8. c #7DD4B3566393",
"9. c #7E44B3606381",
"0. c #7EC4B3EE6652",
"q. c #7F47B49866D1",
"w. c #7FF0B4A466E7",
"e. c #8159B2945AF6",
"r. c #81AFB36C5C29",
"t. c #8263B3385CD8",
"y. c #831BB3D35FD1",
"u. c #84E7B5495EC0",
"i. c #8014B3DF6380",
"p. c #8251B5036512",
"a. c #836DB5716559",
"s. c #80F4B4EA6650",
"d. c #8518B6826794",
"f. c #8620B6F767BF",
"g. c #85C0B7896AE6",
"h. c #8761B8156C86",
"j. c #88F0B8C26B9E",
"k. c #8963B8A86CCA",
"l. c #8878B8B36D2E",
"z. c #8B16B9626BF0",
"x. c #8A5CB9A36D82",
"c. c #8B6BBA3C6DA7",
"v. c #8A51B96B6EDA",
"b. c #8C02B9FD6ECD",
"n. c #9305BC016D20",
"m. c #9056BC116FD8",
"M. c #8A62BA8171A2",
"N. c #8B9ABAD472BF",
"B. c #8CEFBB0C703F",
"V. c #8F51BBA771DE",
"C. c #8C0FBAC37272",
"Z. c #8C44BB397313",
"A. c #8C49BB667308",
"S. c #8F11BC1272B9",
"D. c #8F32BC6A71FD",
"F. c #8FA6BC8773F2",
"G. c #8D23BC26758F",
"H. c #8E89BC1C74A5",
"J. c #8CE7BC3C75BA",
"K. c #8D37BC7B75B6",
"L. c #8F28BC9275DE",
"P. c #8EBCBCEA770D",
"I. c #8FEABDC67825",
"U. c #90CBBCF17467",
"Y. c #91C8BCC37409",
"T. c #9120BD487449",
"R. c #92DBBDF875EE",
"E. c #932BBDB57613",
"W. c #94F1BED87797",
"Q. c #9622BF9E776D",
"!. c #9305BF3479DF",
"~. c #93F1BF5B7ACF",
"^. c #97D8C1DE7EE4",
"/. c #9887C0E97953",
"(. c #990CC0D07A01",
"). c #99C1C1207A4B",
"_. c #9888C1847DCF",
"`. c #9A8BC1E27C34",
"'. c #9B7FC2637C21",
"]. c #9968C2327EBF",
"[. c #9D60C3777E0C",
"{. c #9E5DC3E47E86",
"}. c #9FA0C4667FBD",
"|. c #A063C4947FFB",
" X c #9B85C3D88110",
".X c #9B01C36C8300",
"XX c #9C2BC2F8805C",
"oX c #9DC5C40581C9",
"OX c #9DCCC4928174",
"+X c #9D89C4AC8246",
"@X c #9E12C47E8310",
"#X c #9CEFC43584BB",
"$X c #9FA9C54C8430",
"%X c #9EAAC4E88609",
"&X c #A0B4C5D9878F",
"*X c #A20CC7A3887F",
"=X c #A37BC7FC89C5",
"-X c #A4C6C8798AE2",
";X c #A5D1C8BF8CFF",
":X c #A671C96E8C71",
">X c #A9D6CB519092",
",X c #AB0CCC14919C",
"<X c #AB44CC3691D9",
"1X c #AC1FCC7493EE",
"2X c #B0E1CF589819",
"3X c None",
/* pixels */
"3X3X3X3X3X3X3X3X3X3X3X3X3X3X3X3X3X3X3X3X3X3X3X3X3X3X3X3X3X3X3X3X",
"3X3X3X3X3X3X3X3X3X3X3X3X3X3X3X3X3X3X3X3X3X3X3X3X3X3X3X3X3X3X3X3X",
"3X3X3X3X3X3X3X3X3X3X3X3X3X3X3X3X3X3X3X3X3X3X3X3X3X3X3X3X3X3X3X3X",
"3X3X3X3X3X3X3X3X3X3X3X3X3X3X3X3X3X3X3X3X3X3X3X3X3X3X3X3X3X3X3X3X",
"3X3X3X3X3X3X3X3X3X3X3X3X3X3X3X3X3X3X3X3X3X3X3X3X3X3X3X3X3X3X3X3X",
"3X3X3X3X3X3X3X3X3X3X3X3X3X3X3X3X3X3X3X3X3X3X3X3X3X3X3X3X3X3X3X3X",
"3X3X3X3X3X3X3X3X3X3X3X3X3X3X3X3X3X3X3X3X3X3X3X3X3X3X3X3X3X3X3X3X",
"3X3X3X3X3X3X3X3X3X3X3X3X3X3X3X3X3X3X3X3X3X3X3X3X3X3X3X3X3X3X3X3X",
"3X3X3X3X3X3X3X3X3X3X3X3X3X3X! W Y L 3X3X3X3X3X3X3X3X3X3X3X3X3X3X",
"3X3X3X3X3X3X3X3X3X3X3X3X3X3XW Q ` ) 3X3X3X3X3X3X3X3X3X3X3X3X3X3X",
"3X3X3X3X3X3X3X3X3X3X3X3X3X3XP _ -.&.K c 3X3X3X3X3X3X3X3X3X3X3X3X",
"3X3X3X3X3X3X3X3X3X3X3X3X3X3XR %.u.r.] B 3X3X3X3X3X3X3X3X3X3X3X3X",
"3X3X3X3X3X3X[ ' ~ E U H C I +.e./.Q.5.^ h e 3X3X3X3X3X3X3X3X3X3X",
"3X3X3X3X3X3X' #.1.4.2.;.=.,.t.m.$X@Xz.>.V y 3X3X3X3X3X3X3X3X3X3X",
"3X3X3X3X3X3X! <.n.|.{.'.).`.OX+X]._.].x.@.m q 1 3X3X3X3X3X3X3X3X",
"3X3X3X3X3X3XT 3.}.2X,X:X-X=X*X XU.F.^.!.i.O.k 9 3X3X3X3X3X3X3X3X",
"3X3X3X3X3X3XJ :.[.<XoXW.R.T.D.c.f.d.l.A.P.s.} j 2 $ 3X3X3X3X3X3X",
"3X3X3X3X3X3XZ *.'.>XXXE.U.S.B.j.a.p.g.M.P.w.{ d > $ 3X3X3X3X3X3X",
"3X3X3X3X3X3XN $.(.1X;X&X%X#X.X~.l.h.I.K.8.o.p : * 3X3X3X3X3X3X3X",
"3X3X3X3X3X3Xb / y.Y.V.b.k.v.H.L.C.N.J.q.X.z < o 3X3X3X3X3X3X3X3X",
"3X3X3X3X3X3Xv n S G D A M F O.6.Z.G.7.| a , 3X3X3X3X3X3X3X3X3X3X",
"3X3X3X3X3X3Xx u t r w 6 5 0 g ( 9.0...l ; . 3X3X3X3X3X3X3X3X3X3X",
"3X3X3X3X3X3X3X3X3X3X3X3X3X3X4 s  ...i - 3X3X3X3X3X3X3X3X3X3X3X3X",
"3X3X3X3X3X3X3X3X3X3X3X3X3X3X& 3 f l 8   3X3X3X3X3X3X3X3X3X3X3X3X",
"3X3X3X3X3X3X3X3X3X3X3X3X3X3X# % = 7 3X3X3X3X3X3X3X3X3X3X3X3X3X3X",
"3X3X3X3X3X3X3X3X3X3X3X3X3X3X@ + O X 3X3X3X3X3X3X3X3X3X3X3X3X3X3X",
"3X3X3X3X3X3X3X3X3X3X3X3X3X3X3X3X3X3X3X3X3X3X3X3X3X3X3X3X3X3X3X3X",
"3X3X3X3X3X3X3X3X3X3X3X3X3X3X3X3X3X3X3X3X3X3X3X3X3X3X3X3X3X3X3X3X",
"3X3X3X3X3X3X3X3X3X3X3X3X3X3X3X3X3X3X3X3X3X3X3X3X3X3X3X3X3X3X3X3X",
"3X3X3X3X3X3X3X3X3X3X3X3X3X3X3X3X3X3X3X3X3X3X3X3X3X3X3X3X3X3X3X3X",
"3X3X3X3X3X3X3X3X3X3X3X3X3X3X3X3X3X3X3X3X3X3X3X3X3X3X3X3X3X3X3X3X",
"3X3X3X3X3X3X3X3X3X3X3X3X3X3X3X3X3X3X3X3X3X3X3X3X3X3X3X3X3X3X3X3X"
};
