/* XPM */
static char *camera[] = {
/* columns rows colors chars-per-pixel */
"32 32 132 2",
"   c #2A7D2A7D2A7D",
".  c #344E344D344C",
"X  c #3B5D3B5A3B57",
"o  c #42E342DE42D9",
"O  c #484147FE47BA",
"+  c #4C504C444C36",
"@  c #4FED4F2F4E61",
"#  c #545B542B53F8",
"$  c #5832579756E7",
"%  c #59265863578C",
"&  c #5CD15CC35CB5",
"*  c #5BDF5E3C608D",
"=  c #5D8D5FEA623A",
"-  c #6429641C640D",
";  c #6B6B6B5E6B5E",
":  c #7F5279B46CF2",
">  c #6D0F6E5D7172",
",  c #6B92710776B0",
"<  c #6E4373CC7960",
"1  c #736C735D7358",
"2  c #7C917ADA773E",
"3  c #7C777C6D7C66",
"4  c #82A77DF7741B",
"5  c #809F7F737E30",
"6  c #8C9580B364D4",
"7  c #954485196062",
"8  c #94B387A068B5",
"9  c #859D83277D13",
"0  c #96678D5C77D0",
"q  c #91248B7F7DE4",
"w  c #A76D97947398",
"e  c #C2339FCD4F26",
"r  c #CF58AD8A5E4A",
"t  c #DBE5B6095C81",
"y  c #E578C040683E",
"u  c #716079688155",
"i  c #7E2A8085835B",
"p  c #7A4084068E7F",
"a  c #7E1A88149258",
"s  c #79508B3A9D9A",
"d  c #7448939BB490",
"f  c #79DD996EBBC7",
"g  c #5DA496D8D611",
"h  c #5EF7986BD6BF",
"j  c #5FC0998ED8EE",
"k  c #6F919AC0C81B",
"l  c #6D719AB1CBBD",
"z  c #70749791C1C7",
"x  c #711B999FC524",
"c  c #71F99C79CAB3",
"v  c #61A797ACD51B",
"b  c #62F99A5CD707",
"n  c #6B3B9C66D227",
"m  c #65099C68D908",
"M  c #692F9ECFD993",
"N  c #78D2A0B3CE75",
"B  c #7479A18AD6A0",
"V  c #7AE3A5C4D56D",
"C  c #849C84658424",
"Z  c #8BF08AA98779",
"A  c #869388EE8BC6",
"S  c #8BDB8BD08BB6",
"D  c #907C8F838E75",
"F  c #94A0901F86A6",
"G  c #912F90908FD7",
"H  c #99D1954489D7",
"J  c #86AD8C2E9291",
"K  c #83CB90379D9B",
"L  c #8E4596489FE3",
"P  c #94E694BF9481",
"I  c #9861979A96B6",
"U  c #99AF98699705",
"Y  c #969F99259BC5",
"T  c #9C329C2E9C32",
"R  c #A42B9AAA8352",
"E  c #A0BE9FE59EF5",
"W  c #B3F4A7C18AE9",
"Q  c #B502A9EE8FF4",
"!  c #A740A2D097AC",
"~  c #B1E3A9089395",
"^  c #B0C4AB8B9EF0",
"/  c #8A0495F5A2DE",
"(  c #8AC59891A72C",
")  c #8DE69B60A9B6",
"_  c #95559AD8A15F",
"`  c #9DB39F54A1C2",
"'  c #914C9F03ADF3",
"]  c #8A269C1BB0EB",
"[  c #9C5AA22CA86B",
"{  c #8ED1A0CBB602",
"}  c #94C1A29AB1A5",
"|  c #9AF1A6FAB418",
" . c #9C12A921B76D",
".. c #9792AA85BEE7",
"X. c #A404A3EAA3EF",
"o. c #AC39ABFAAB91",
"O. c #B2B3AE94A4F0",
"+. c #B11AAF9FAC80",
"@. c #B145B082AF9C",
"#. c #A0F9AA38B484",
"$. c #A8F9AECAB51B",
"%. c #B3A8B355B2DB",
"&. c #B96DB8AFB7DA",
"*. c #B78AB9EBBCBE",
"=. c #BC5EBC27BC05",
"-. c #CAC9BA879351",
";. c #DEA1C47B862A",
":. c #D45AC4699DF3",
">. c #E6AACCFB8FC1",
",. c #80CEA0F6C586",
"<. c #8724A84CCCC5",
"1. c #9B97AE88C320",
"2. c #8278A95CD722",
"3. c #9338B1E8D6BF",
"4. c #950EB44CD967",
"5. c #A906B5ADC439",
"6. c #AD89BB0FCA35",
"7. c #B10DBB70C700",
"8. c #B156BF41CE9F",
"9. c #AE21BFBBD4EA",
"0. c #BCE5C335CABC",
"q. c #AE92C067D597",
"w. c #B654C3F4D2FB",
"e. c #BB18C76CD578",
"r. c #BD19C960D7ED",
"t. c #BCF4CA7CD9BD",
"y. c #C4FBC477C3EE",
"u. c #CCCDCC0FCB3F",
"i. c #D13CCFFECEA6",
"p. c #C226CBEBD78C",
"a. c #C1CFCE38DCC6",
"s. c None",
/* pixels */
"s.s.s.s.s.s.s.s.s.s.s.s.s.s.s.s.s.s.s.s.s.s.s.s.s.s.s.s.s.s.s.s.",
"s.s.s.s.s.s.s.s.s.s.s.s.s.s.s.s.s.s.s.s.s.s.s.s.s.s.s.s.s.s.s.s.",
"s.s.s.s.s.s.s.s.s.s.s.s.s.s.s.s.s.s.s.s.s.s.s.s.s.s.s.s.s.s.s.s.",
"s.s.s.s.s.s.s.s.s.s.s.s.s.s.s.s.s.s.s.s.s.s.s.s.s.s.s.s.s.s.s.s.",
"s.s.s.s.P S S A C C C 3 2 1 > ; > > 1 2 s.s.s.s.s.s.s.s.s.s.s.s.",
"s.s.s.T T T T T T U P S 9 9 q 0 8 6 : 2 C S s.s.s.s.s.s.s.s.s.s.",
"s.s.I X.%.=.=.=.=.&.&.o.H R -.;.t e 7 4 Z S s.s.& & & & & & s.s.",
"s.s.U o.y.u.y.y.=.=.=.%.! ~ :.>.y r w F I P 3 - - & & & & & & s.",
"; C T %.u.u.=.%.o.o.o.o.o.O.^ ~ W Q O.+.o.U 3 ; - - - - - - % # ",
"; 3 X.&.y.y.&.%.%.@.o.%.=.=.o.X.` X.o.%.o.T S 3 2 1 1 1 1 ; $ + ",
"; 3 X.&.%.%.&.=.u.i.u.u.i.u.y.&.o.T I P T T X.X.I S A C C 1 # o ",
"; 3 X.&.o.o.*.0.p.a.t.r.e.e.w.7.$.` S A S I o.%.X.I S C A 1 # X ",
"; 2 T o.%.*.0.q.3.2.V V V V V <.1.#.Y Z 3 A X.o.X.P 3 1 C 1 + X ",
"- 1 P o.=.0.9.4.B v g g g g g n <...[ D 1 3 T o.T S 1 ; 3 1 + X ",
"- 1 S o.y.e.3.B m v b b b b h v n ,.| I 1 1 U X.T C ; ; 2 ; + X ",
"- 1 S o.u.r.2.v b b m m m m b v g c  .U ; ; P X.U C ; - 1 ; + X ",
"- 1 A X.y.e.V h b m M M M M m b h c | P ; ; P X.P 3 - - 1 ; O . ",
"- ; C X.y.w.V g b M M M M M m m j c } D - - S T P 3 - & ; - O . ",
"- ; C E =.8.V g b m M M M M M m b c ' Z - - S T S 2 & $ ; - O . ",
"- ; C T &.6.V g b m M M M M M m b c ) C & - S T S 1 % # - - o . ",
"& ; 3 I %.5.N g b m m M M M m m b x / 5 % & A I S 1 # # - & o . ",
"& ; 3 G X.#.,.l b b m m m m m n l d a 1 # % C P A 1 # + - & o . ",
"& - 2 C P _ { ,.l v b b m m b l f s < & O $ C P C ; + + & % o . ",
"& - 1 3 C A L ] f x k k k x z d s u = + + & C P C ; # # & $ X . ",
"% & ; 1 1 1 i J / ) ) ) ( / K p , * + + # ; A S C 1 - & & # X . ",
"# % & & & & - 1 5 C C C 5 3 1 ; $ O X o + & 1 1 ; & $ # # O .   ",
"+ + O o o o + # $ % $ # # # @ O o X . . . X o o X X X . . .     ",
"s.s.. . . . o o o o X X X X X X . .                             ",
"s.s.s.s.s.s.s.s.s.s.s.s.s.s.s.s.s.s.s.s.s.s.s.s.s.s.s.s.s.s.s.s.",
"s.s.s.s.s.s.s.s.s.s.s.s.s.s.s.s.s.s.s.s.s.s.s.s.s.s.s.s.s.s.s.s.",
"s.s.s.s.s.s.s.s.s.s.s.s.s.s.s.s.s.s.s.s.s.s.s.s.s.s.s.s.s.s.s.s.",
"s.s.s.s.s.s.s.s.s.s.s.s.s.s.s.s.s.s.s.s.s.s.s.s.s.s.s.s.s.s.s.s."
};
