/* XPM */
static char *chart_bar[] = {
/* columns rows colors chars-per-pixel */
"32 32 244 2",
"   c #24D65F9C37B3",
".  c #2AFD6DF12382",
"X  c #2E71723B27C9",
"o  c #3261768F2C95",
"O  c #36F87BAC301A",
"+  c #181F3E46753F",
"@  c #7A012BDB7797",
"#  c #79A92E9679D0",
"$  c #793934197E14",
"%  c #392170674D98",
"&  c #1CB549536084",
"*  c #1A63425E7687",
"=  c #1CA3456978AA",
"-  c #1EB6484E78EA",
";  c #23714F2367C3",
":  c #20E74B377948",
">  c #30725A6075BC",
",  c #395D62787EBD",
"<  c #F6DA3C653EE2",
"1  c #D6873CA350C4",
"2  c #9BA841E57647",
"3  c #9CE4472E7CA9",
"4  c #F6E141AB442E",
"5  c #F5F2471249FF",
"6  c #F6724C304E9A",
"7  c #F7BA53D854F1",
"8  c #F9375625570D",
"9  c #FEFE59CF567B",
"0  c #FBC65D685BE5",
"q  c #FEFE62685E4A",
"w  c #D89D4F2F6229",
"e  c #F8495F766121",
"r  c #FC8164E562DD",
"t  c #FF3369AB65C0",
"y  c #FD846CFB6A37",
"u  c #FF0A724E6E3A",
"i  c #FE62754571B4",
"p  c #FF0979C675A5",
"a  c #FEB17DCF7A23",
"s  c #3B48810D33E1",
"d  c #3F4C86AC37EB",
"f  c #438E8C4A3BEC",
"g  c #46A5846C4167",
"h  c #49F5880E45A4",
"j  c #4D538B694A0B",
"k  c #517B8FB14D66",
"l  c #481D91E83FED",
"z  c #4D5998364502",
"x  c #52BC9E974AA3",
"c  c #558194405106",
"v  c #5960991054E9",
"b  c #5D869DE75900",
"n  c #55FFA2764DB6",
"m  c #58C0A5D44EDE",
"M  c #59E1A39E5234",
"N  c #5C73AB7B51EB",
"B  c #60D6A3745B89",
"V  c #6083B12E55C4",
"C  c #6396B438584D",
"Z  c #69CDBB5B58BE",
"A  c #50709DBE7F26",
"S  c #602C90B577B3",
"D  c #67B4AD6760D5",
"F  c #71E9B6296B77",
"G  c #75A9BABA6F0A",
"H  c #6D26AE36734D",
"J  c #7B94AF7F7AA5",
"K  c #705EB0C67680",
"L  c #784DBD5C716A",
"P  c #75D6B3B67B61",
"I  c #7AE6B4BC7E7E",
"U  c #7DBBC35D7288",
"Y  c #FF6C81CC7DAA",
"T  c #13842FD5AF3B",
"R  c #0E782929BFBA",
"E  c #1B4F3879B19F",
"W  c #2B4E3669B3D7",
"Q  c #33B53E20B5CA",
"!  c #5F362E9B8B7A",
"~  c #7AB23C948332",
"^  c #1D0F42CF8BDB",
"/  c #35705B9A9371",
"(  c #3C856616819B",
")  c #2A51492FB657",
"_  c #33B1557BBC65",
"`  c #352259E8C025",
"'  c #261B6B4CB978",
"]  c #2E206DFEB93E",
"[  c #7CB143B58906",
"{  c #79AA434C9062",
"}  c #40ED6B68834D",
"|  c #43DB4D1AB99F",
" . c #4C355773BD02",
".. c #4C885BBABF88",
"X. c #0E272649C113",
"o. c #0F332BF9C0C2",
"O. c #10E62D2CC307",
"+. c #0F0D3613C757",
"@. c #0FC33145C504",
"#. c #1A1C39FEC6C9",
"$. c #0FDE390AC85E",
"%. c #1449401BCA78",
"&. c #1ED9449BCB4E",
"*. c #1D554B5BCDA3",
"=. c #20B74344C819",
"-. c #22694642C9AD",
";. c #226D4AD3CCF7",
":. c #23BB525BCEF9",
">. c #36495D0AC0E7",
",. c #22225750D1AB",
"<. c #255A5BDAD30A",
"1. c #33555F4AD248",
"2. c #1C58641EC82F",
"3. c #18BE64D5D3B0",
"4. c #1E3D6BABD6D1",
"5. c #37826096C22A",
"6. c #38CA648CC408",
"7. c #36796E1CC3A4",
"8. c #39FB688EC646",
"9. c #3ABA6C6CC855",
"0. c #26976321D58F",
"q. c #29E1649FD617",
"w. c #2C426B9BD78B",
"e. c #3A5B6D18D704",
"r. c #2574703ED7CD",
"t. c #2D1B73B2D9C1",
"y. c #31C972C0D7AD",
"u. c #33E67938DB33",
"i. c #3A6A7DE1DBFC",
"p. c #4CCD5F95C15E",
"a. c #4DD365AFC32C",
"s. c #4ED66CBEC51C",
"d. c #4FD6711EC703",
"f. c #51487503C970",
"g. c #5452797BCB6D",
"h. c #58F97E7DCCE9",
"j. c #438E7545D81E",
"k. c #44F97695D923",
"l. c #438D7CA3DAA1",
"z. c #4A757C69DAA1",
"x. c #9C1C4C5D8324",
"c. c #9C6350E88585",
"v. c #9CA55434886C",
"b. c #AC716B2299E7",
"n. c #C9FD74178BF0",
"m. c #DC9B72BB8384",
"M. c #DE1F7F0B8FF0",
"N. c #D24B7FDE9379",
"B. c #E1C57D0B8C0C",
"V. c #63D7A7F08B1D",
"C. c #7678A31E8F8E",
"Z. c #7AF4B71580F9",
"A. c #7E61B92E839E",
"S. c #79A2A5B592AB",
"D. c #7EBFAA8495EF",
"F. c #64588B49A223",
"G. c #7F19A65CABE4",
"H. c #3E8682FFDE2F",
"J. c #5E5082A0CDFE",
"K. c #445383C5DCFB",
"L. c #4B3584DDDD13",
"P. c #4D22896BDE52",
"I. c #52C08672DE7D",
"U. c #53B28D6EDF51",
"Y. c #5874913CE00B",
"T. c #642985DDCEC9",
"R. c #75A186A7C93B",
"E. c #6BB38B62D206",
"W. c #63818CF9D956",
"Q. c #72AD8C1AD054",
"!. c #4DD18AADE0FB",
"~. c #53DE8DA1E191",
"^. c #5B298CCAE107",
"/. c #56F6927EE52A",
"(. c #5CF193F1E216",
"). c #61FF9681E2FC",
"_. c #653899A6E471",
"`. c #6B5A9D5DE534",
"'. c #6DCDA0F7E647",
"]. c #6E19A074E8A8",
"[. c #73EDA307E66C",
"{. c #7985A692E765",
"}. c #7D17A8D8E7DC",
"|. c #745DA453E9A0",
" X c #79C3A750E997",
".X c #7DD7AA4BEA2B",
"XX c #81DFB44F8353",
"oX c #8213BB0E8498",
"OX c #8603BC028947",
"+X c #89AFBDC78AEC",
"@X c #8198AD18973A",
"#X c #8ED7BF689051",
"$X c #8143A84BAF4A",
"%X c #801CB21DADF9",
"&X c #8573ABE5B4B0",
"*X c #8C6BB3BFBCFE",
"=X c #DE7B831F935B",
"-X c #FEDA85F6824E",
";X c #FFC08B3C8644",
":X c #FE3F8D998AAD",
">X c #FFAA92338D44",
",X c #FECD953B9296",
"<X c #FF5A9960955C",
"1X c #FF079DE79AAD",
"2X c #FF7EA2989E4F",
"3X c #C61E84DDA2F7",
"4X c #C5EE89A8A6F2",
"5X c #C6378E33A9E4",
"6X c #C6D79405AE1C",
"7X c #D1759A73AE8C",
"8X c #C808986CB17D",
"9X c #CA629DB4B50F",
"0X c #CD23A20CB7AD",
"qX c #CED9A53EBA1E",
"wX c #D055A7C9BC49",
"eX c #FF07A602A2B2",
"rX c #FF1EAA2CA689",
"tX c #FF34ACBDA91C",
"yX c #FF55B2EFAF09",
"uX c #FEFFBAC8B7C3",
"iX c #8A62C1828D97",
"pX c #8DB5C1FE926E",
"aX c #926FC37394F9",
"sX c #94A9C56899ED",
"dX c #9B96CACA9D19",
"fX c #9F21CE64A0B9",
"gX c #A2A5CE8FA3B1",
"hX c #A65ACF5FAC22",
"jX c #A46ED382A225",
"kX c #A77BD16AAB4B",
"lX c #AE65D632B001",
"zX c #AC9DD410B145",
"xX c #B6C2DB0FB858",
"cX c #803EAB5AE855",
"vX c #83B6ADA7EA21",
"bX c #87D2B0BDEA5C",
"nX c #8BEDB32EEB9E",
"mX c #92A6B75FECE1",
"MX c #963DBA2EEDEA",
"NX c #9C0EBE42EF29",
"BX c #A2F9C300F00F",
"VX c #A706C584F0FB",
"CX c #AC2FC8BAF25C",
"ZX c None",
/* pixels */
"ZXZXZXZXZXZXZXZXZXZXZXZXZXZXZXZXZXZXZXZXZXZXZXZXZXZXZXZXZXZXZXZX",
"ZXZXZXZXZXZXZXZXZXZXZXZXZXZXZXZXZXZXZXZXZXZXZXZXZXZXZXZXZXZXZXZX",
"ZXZXZXZXZXZXZXZXZXZX X|.|.[.].`.`._._.).(.(.ZXZXZXZXZXZXZXZXZXZX",
"ZXZXZXZXZXZXZXZXZXZX|. X.XcX.X.X X X|.`.).(.ZXZXZXZXZXZXZXZXZXZX",
"ZXZXZXZXZXZXZXZXZXZX[..XmXNXNXNXMXMXMXvX_.~.ZXZXZXZXZXZXZXZXZXZX",
"ZXZXZXZXZXZXZXZXZXZX`..XNXCXVXBXBXBXBXnX_.!.ZXZXZXZXZXZXZXZXZXZX",
"ZXZXZXZXZXZXZXZXZXZX_. XNXVXNXMXMXMXNXbX(.L.ZXZXZXZXZXZXZXZXZXZX",
"ZXZXZXZXZXZXZXZXZXZX).|.MXBXMXnXnXnXMXvX/.K.ZXZXZXZXZXZXZXZXZXZX",
"ZXZXZXZXZXZXZXZXZXZX(.`.mXNXmXbXvXnXmXcX~.i.ZXZXZXZXZXZXZXZXZXZX",
"ZXZXZXZXZXZXZXZXZXZXW.`.nXNXnXvXvXbXmX}.P.u.ZXZXZXZXZXZXZXZXZXZX",
"p p i i i u u y t n.R._.bXMXnXcX.XvXnX{.K.t.ZXZXZXZXZXZXZXZXZXZX",
"p a -X;X-X-X-XY a N.R.(.vXmXvX}.{..XbX[.K.r.ZXZXZXZXZXZXZXZXZXZX",
"i -X1XtXrXrXeXeX2X7XQ./..XnXvX{.[.}.vX`.i.4.ZXZXZXZXZXZXZXZXZXZX",
"i -XtXuXyXtXtXtXyXwXE.~..XnX}.[.[.{.cX`.u.3.ZXZXZXZXZXZXZXZXZXZX",
"u -XrXyX1X>X:X<XrXqXE.P.{.bX{.`.`.[.}._.y.3.ZXZXZXZXZXZXZXZXZXZX",
"y Y eXtX>Xa a ;X2X0XT.K.[.vX[.`._.`.{.).y.2.ZXZXZXZXZXZXZXZXZXZX",
"y a eXrX:Xa p -X2X9XJ.H.'.cX[._.).`.[.).w.' A Z Z C V N N m n n ",
"t a 2XeX;Xp i Y 1X9Xh.i.`.}.`.).(._.[.^.q.] V.U U L G F F D M x ",
"r p 1XeX-Xi u Y <X8Xg.u._.{._.(.(.(.`.^.0.7.%XjXjXfXdXdXdXoXB z ",
"0 i 1X2X-Xu y a <X6Xf.t.).[.).U.U.(.`.I.<.9.*XxXzXkXhXhXzXaXB l ",
"0 i <X1XY y t p ,X6Xd.t.(.[.(.U.U.U._.I.<.8.*XlXdXpXpXsXgX#Xb f ",
"8 y ,X1Xa t r i >X5Xs.w.(.`.(.P.P.U.).L.:.6.*XkXpXA.Z.OXdX+Xv d ",
"7 y ,X<Xp r q u >X5Xa.q.~._.U.L.K.P.(.z.:.5.&XgXiXI P oXsXOXc s ",
"6 r :X,Xi 0 0 y :X4Xa.0.I.).U.K.K.L.Y.z.;.>.&XgXOXP K Z.aXXXk O ",
"5 e :X,Xu 9 9 t ;X4Xp.<.I.(.P.l.i.K.U.k.;.` &XdXoXH H P pXXXj o ",
"4 0 ;X,Xp t t u :X3X..<.L.(.P.K.K.L.U.k.&._ $XdX+XI P A.aXI h X ",
"< 8 -X1X>X;X;X;X>X3X .,.L.(.Y.U.U.U.U.j.&._ G.gXsXaXpXaXsXJ g . ",
"1 w m.=X=X=XM.B.B.b.| *.e.z.z.k.k.j.j.1.#.) F.@XD.S.S.S.C.S %   ",
"2 3 c.v.c.x.x.x.3 { Q %.*.;.;.-.-.=.=.#.O.E / } } ( ( , , > ; & ",
"[ [ ~ ~ $ $ $ # @ ! W $.+.@.@.O.o.R R X.X.T ^ : - = * * + + + + ",
"ZXZXZXZXZXZXZXZXZXZXZXZXZXZXZXZXZXZXZXZXZXZXZXZXZXZXZXZXZXZXZXZX",
"ZXZXZXZXZXZXZXZXZXZXZXZXZXZXZXZXZXZXZXZXZXZXZXZXZXZXZXZXZXZXZXZX"
};
