/* XPM */
static char *cut[] = {
/* columns rows colors chars-per-pixel */
"32 32 103 2",
"   c #2EAC5D699DC3",
".  c #31BF64AB941D",
"X  c #366B6A559786",
"o  c #311C60CB9F47",
"O  c #38776E819CAC",
"+  c #2EDA6AB5A084",
"@  c #32A56501A41A",
"#  c #34F06A37A48C",
"$  c #35FD6825A83A",
"%  c #3B5F6FCFAF3C",
"&  c #39687419A3DB",
"*  c #3DA17540ADE6",
"=  c #3D827AB7AB8D",
"-  c #3DC0751CB2A9",
";  c #3F067ADAB2CF",
":  c #40B97B34A63E",
">  c #4B627DC9A2DF",
",  c #427F7DD7AED1",
"<  c #420D7C44B5E4",
"1  c #42BD7C53B838",
"2  c #44C5804BA791",
"3  c #41D98120AD17",
"4  c #53A8867BAC68",
"5  c #44778475B5B0",
"6  c #46798952B674",
"7  c #48FC88F1B66B",
"8  c #462E85C3B8F5",
"9  c #4A6B82A4BA74",
"0  c #465C8C6EBCC0",
"q  c #4B4C8B8DBD0D",
"w  c #53C08A2BB245",
"e  c #4ABE9013BE7C",
"r  c #5FAA9265B7FF",
"t  c #538390DCBC72",
"y  c #605C9318B7E1",
"u  c #66C69720BB04",
"i  c #6AD09A2CBD40",
"p  c #71459E8FC014",
"a  c #4C0B8D69C220",
"s  c #4DB99272C3A7",
"d  c #523595A6C606",
"f  c #53B09A1FC817",
"g  c #519B950BCB01",
"h  c #53F09A8CCC3F",
"j  c #59DD9FBECE09",
"k  c #56379E66D31D",
"l  c #5B639ECAD395",
"z  c #67089889C076",
"x  c #645399D8C976",
"c  c #72949FB6C129",
"v  c #56ECA17DD29B",
"b  c #598DA327D600",
"n  c #5759A279D8F7",
"m  c #5AD0A620DB69",
"M  c #5EA3AB88DDC3",
"N  c #75A2A1CAC309",
"B  c #7A86A4DAC4C4",
"V  c #7FACA8A7C768",
"C  c #62B9A650D840",
"Z  c #672AA920DABE",
"A  c #69DCAB4BDD61",
"S  c #7D47AE0AD50D",
"D  c #5F0CAD5AE3E6",
"F  c #6075AC00E081",
"G  c #6A56AED5E2FE",
"H  c #6D95B104E382",
"J  c #70DCB476E5F8",
"K  c #79B2B65FE3A7",
"L  c #7A51BAB8E95E",
"P  c #80B3A752C55F",
"I  c #80B8A8DEC774",
"U  c #84E2AC6ACA93",
"Y  c #89D9AF81CCC4",
"T  c #8DA2B24ECE84",
"R  c #8143AF42D4D4",
"E  c #873DB5F0DC6A",
"W  c #8D85BA01DEB4",
"Q  c #93D0B65ED1B1",
"!  c #96B8B8C1D333",
"~  c #9C56BC3FD59F",
"^  c #9595BC37DDEC",
"/  c #A19DBF51D7AA",
"(  c #8821BF95EAE3",
")  c #A5D6C304DB34",
"_  c #AB0DC66BDC97",
"`  c #AEECC8DFDEC1",
"'  c #B1F9CABEDF59",
"]  c #96E9C401E8E6",
"[  c #A53AC4ACE1DB",
"{  c #AC2FC791E1C8",
"}  c #A3FFCE09F032",
"|  c #B54FCD41E199",
" . c #BD01D307E5C9",
".. c #B271D12DED58",
"X. c #BD62D69EED5E",
"o. c #C14DD636E827",
"O. c #C340D731E981",
"+. c #C70EDA4CEB47",
"@. c #CB23DCB8ED78",
"#. c #CA00DD17F101",
"$. c #D05AE096EFB9",
"%. c #D2AEE243F0E1",
"&. c None",
/* pixels */
"&.&.&.&.&.&.&.&.&.&.&.&.&.&.&.&.& &.&.&.&.&.&.&.&.&.&.&.&.&.&.&.",
"&.&.&.&.&.&.&.&.&.&.&.&.&.&.&.&.w w &.&.&.&.&.&.&.&.&.&.&.&.&.&.",
"&.&.&.&.&.&.&.&.&.&.&.&.&.&.&.&.c B &.&.&.&.&.&.&.&.&.&.&.&.&.&.",
"&.&.&.&.&.&.&.&.&.&.&.&.&.&.&.y U T &.&.&.&.&.&.&.&.&.&.&.&.&.&.",
"&.&.&.&.&.&.&.&.&.&.&.&.&.&.&.u T ! &.&.&.&.&.&.&.&.&.&.&.&.&.&.",
"&.&.&.&.&.&.&.&.&.&.&.&.&.&.&.i ! ~ &.&.&.&.&.&.&.&.w w &.&.&.&.",
"&.&.&.&.&.&.&.&.&.&.&.&.&.&.&.p ~ ) &.&.&.&.&.&.Y I i r &.&.&.&.",
"&.&.&.&.&.&.&.&.&.&.&.&.&.&.&.N ) ` &.&.&.&.&.&.Q T N &.&.&.&.&.",
"&.&.&.&.&.&.&.&.&.&.&.&.&.&.&.B ` | &.&.&.&.Y Q ! Q &.&.&.&.&.&.",
"&.&.&.&.&.&.&.&.&.&.&.&.&.&.&.V |  .&.&.&.&./ / ! Y &.&.&.&.&.&.",
"&.&.&.&.&.&.&.&.&.&.&.&.&.&.&.I  . .&.&.p ~ | ' Y &.&.&.&.&.&.&.",
"&.&.&.&.&.&.&.&.&.&.&.&.&.&.&.I  . .V u ! _ ' _ &.&.&.&.&.&.&.&.",
"&.&.&.&.&.&.&.&.&.&.&.&.&.&.&.U o.O.! !  .o.Q &.&.&.&.&.&.&.&.&.",
"&.&.&.&.&.&.&.&.&.&.&.&.&.&.&.U O.@._ )  . .&.&.&.&.&.&.&.&.&.&.",
"&.&.&.&.&.&.&.&.&.&.&.&.&.&.&.Y +.%. .) ! U &.&.&.&.&.&.&.&.&.&.",
"&.&.&.&.&.&.&.&.&.&.&.&.&.&.&.Y +.$.| ! N &.&.&.&.&.&.&.&.&.&.&.",
"&.&.&.&.&.&.&.&.&.# = = + & w Y o.O.Q c &.&.&.&.&.&.&.&.&.&.&.&.",
"&.&.&.&.&.&.&.&., 5 8 8 5 7 z Q O. .P 4 &.&.&.&.&.&.&.&.&.&.&.&.",
"&.&.&.&.&.&.= 8 h k h h n Z R ) @.+.P > &.&.&.&.&.&.&.&.&.&.&.&.",
"&.&.&.&.&.&.8 a j v h k D J W { #.X.S t 3 &.&.&.&.&.&.&.&.&.&.&.",
"&.&.&.&.&.= d h q &.&.0 m J W [ ..} L F b d &.&.&.&.&.&.&.&.&.&.",
"&.&.&.&.& 5 d f &.&.&.= m H E ^ ] ( G m b d & &.&.&.&.&.&.&.&.&.",
"&.&.&.&.8 8 7 7 &.&.&.3 m H S S K A q < q q * # &.&.&.&.&.&.&.&.",
"&.&.&.&.q q 7 6 &.&.5 s k l x x C k * . : , - - &.&.&.&.&.&.&.&.",
"&.&.&.&.8 q d d 6 e m n a < < 9 d h &.&.&.O - - &.&.&.&.&.&.&.&.",
"&.&.&.&.= 8 h h s s n k < @ $ - a f &.&.&.. * - &.&.&.&.&.&.&.&.",
"&.&.&.&.&.= s h k h a < &.&.@ - s h &.&.&.X * - &.&.&.&.&.&.&.&.",
"&.&.&.&.&.&.q f v g ; &.&.&.@ - h b &.&.2 , * % &.&.&.&.&.&.&.&.",
"&.&.&.&.&.&.&.&.&.&.&.&.&.&.  - k M f d j d - @ &.&.&.&.&.&.&.&.",
"&.&.&.&.&.&.&.&.&.&.&.&.&.&.&.- g k s a h g * &.&.&.&.&.&.&.&.&.",
"&.&.&.&.&.&.&.&.&.&.&.&.&.&.&.&.- < 1 1 < - &.&.&.&.&.&.&.&.&.&.",
"&.&.&.&.&.&.&.&.&.&.&.&.&.&.&.&.  @ - - $ o &.&.&.&.&.&.&.&.&.&."
};
