/* XPM */
static char *folder_image[] = {
/* columns rows colors chars-per-pixel */
"32 32 256 2",
"   c #6700780F7BB6",
".  c #D7818418264B",
"X  c #D7FA85C72A28",
"o  c #D8FD8BD02E08",
"O  c #D87385D82A8E",
"+  c #DA2097212F99",
"@  c #D98F900F2FFD",
"#  c #D9E895353036",
"$  c #D9B79CCB3037",
"%  c #DBD591813BF6",
"&  c #DEE699FC3DB3",
"*  c #C6DD96AA3D59",
"=  c #D9B6ABB32F41",
"-  c #D9B2B05A2F8D",
";  c #D9B9A5513068",
":  c #D9B6A8BE2FE0",
">  c #D99AB34631BC",
",  c #DBBCB8043E33",
"<  c #F17BCD0328CC",
"1  c #F245CF0E3326",
"2  c #F1EDCE7139C5",
"3  c #F36FD1F63B85",
"4  c #A80B8D0A54C3",
"5  c #ADF6995167B4",
"6  c #BA86A2AF66D6",
"7  c #BE60A64E6AFB",
"8  c #BF79A8BE6D69",
"9  c #B4DBA2C46497",
"0  c #B8EEAB9E71EE",
"q  c #DF469B73435C",
"w  c #DFBB9D734B72",
"e  c #E0969F845104",
"r  c #DDF2BBF94992",
"t  c #DF60BE31512A",
"y  c #E1F2A53F5A7F",
"u  c #E2D7AB995CAC",
"i  c #E08CA1BD55A1",
"p  c #EBB2BE975D07",
"a  c #E3C4B2055C33",
"s  c #C505A96F6AE0",
"d  c #DB4EB14F6032",
"f  c #CB92B0AC72D9",
"g  c #DB59BCC27BFA",
"h  c #D7AABBCD782E",
"j  c #E37AAD646317",
"k  c #E373B38964B4",
"l  c #E340BD3A64C9",
"z  c #EBB9C033618E",
"x  c #D798C4C95EB9",
"c  c #EAA8CEAD4B85",
"v  c #F277D026402C",
"b  c #F3E2D3A64491",
"n  c #F47FD56D4C6A",
"m  c #E299C24C5AE8",
"M  c #F21ECFFC58C3",
"N  c #EB91D15C5627",
"B  c #F492D6CC5376",
"V  c #F3CAD5595C6A",
"C  c #F5D1D9965B1C",
"Z  c #F616D85F5455",
"A  c #D87CC7226846",
"S  c #DA2ACC4E7BE0",
"D  c #DB58C60E78DB",
"F  c #E3D3C3DF6709",
"G  c #EC1DC0EF6547",
"H  c #ECBEC26A6BBC",
"J  c #ED3BD6976C7D",
"K  c #EC66D4066121",
"L  c #F644DB24636C",
"P  c #F690DCB56BAD",
"I  c #F2EDD3C56652",
"U  c #E45DC2CA7455",
"Y  c #ECF7C50373DC",
"T  c #ED3CC5F77B9F",
"R  c #E729C9E57859",
"E  c #EE3FD9DA7A73",
"W  c #F68BDD957451",
"Q  c #F1D0D31B7BA4",
"!  c #F5C9DC5B7D82",
"~  c #F3E3D65272C8",
"^  c #F795E0DE7BC3",
"/  c #3BEF6336A3CA",
"(  c #44F16C8A94BD",
")  c #672F7351828E",
"_  c #435F6787A036",
"`  c #468A6A77A121",
"'  c #4C066E61A3A4",
"]  c #52EF73A9A6C3",
"[  c #563C76CBAB18",
"{  c #52DF7FA9AD2E",
"}  c #5D467ADCAB5E",
"|  c #58DC775EA99E",
" . c #60B07D98ACEA",
".. c #714584C68C3F",
"X. c #77CC8C89958F",
"o. c #77628B049945",
"O. c #52E58029AE7D",
"+. c #5A118867B6DD",
"@. c #5B798B31BC44",
"#. c #58078577B25D",
"$. c #6D8A8B48A49B",
"%. c #66108507A7DB",
"&. c #7E848FB6A260",
"*. c #6ACA8769B552",
"=. c #718F8DECB9A5",
"-. c #70958A36B359",
";. c #65CA9122B70B",
":. c #76639638B6A3",
">. c #76FC919FBAF8",
",. c #7D5E95BBBC2A",
"<. c #7AC39B3CBB54",
"1. c #7BE59192B119",
"2. c #7C37A472B96C",
"3. c #644F97C4CC62",
"4. c #7B0B95B3C126",
"5. c #69C79EF2D44E",
"6. c #6BCCA218D9E1",
"7. c #7151A7DADFB8",
"8. c #75EAA9C6D99D",
"9. c #7353AB69E42D",
"0. c #881A90128C7E",
"q. c #83648F149C4F",
"w. c #8C5295BB9588",
"e. c #92399B00A402",
"r. c #84189A92BEAD",
"t. c #80F69673B5E3",
"y. c #89ACA164AE88",
"u. c #8533A1B3B167",
"i. c #830CA424BCB9",
"p. c #847CA99BBD84",
"a. c #94D2AFD7BE39",
"s. c #9CE7B201BD05",
"d. c #A071B201BB73",
"f. c #C463BA838DBB",
"g. c #DAF2CF5689E7",
"h. c #DCEAD0D78B40",
"j. c #DAB9D16D9564",
"k. c #DB53D3DB9CBD",
"l. c #D491C4D89720",
"z. c #ECEEC68B8483",
"x. c #EC6ACAB08366",
"c. c #E4E6C91F8348",
"v. c #EAC6D2EF8739",
"b. c #EC01D26D88D1",
"n. c #EFD6DDF588A6",
"m. c #F252D46681E7",
"M. c #F185D56B8C4F",
"N. c #F502DC3A8DBC",
"B. c #F52CDB3284BC",
"V. c #F013CED793D4",
"C. c #EE4CCABB9C3B",
"Z. c #E833D4009871",
"A. c #F56ADD82930F",
"S. c #F6E9DEBC9A07",
"D. c #F1DED7059EB4",
"F. c #F7DCE22D8388",
"G. c #F7D2E24F8A8B",
"H. c #F88DE4AB8BEA",
"J. c #F544E2EE942E",
"K. c #F90FE66C933F",
"L. c #F930E73C9AB7",
"P. c #F819E4BD9F01",
"I. c #D8FBCE59AE4C",
"U. c #DC04D58EA381",
"Y. c #DE13D833ABC7",
"T. c #CB76C972BDBD",
"R. c #D0ABCD66BDE8",
"E. c #DC84D4C7BBC3",
"W. c #DE84DAB3B7B4",
"Q. c #EBC0DA28ADAF",
"!. c #F2E4DA26A469",
"~. c #F444DDDEAACC",
"^. c #F1DED76CA381",
"/. c #EA72DF4BB4EC",
"(. c #F3C2DB06B5D6",
"). c #F629E438A39F",
"_. c #FA13EA6BA35B",
"`. c #F3CDE2D2ADD1",
"'. c #FA5EEB97AB57",
"]. c #F915E7F6ABD3",
"[. c #FACAECCEB418",
"{. c #F466E423BD71",
"}. c #FA55EB2FBA42",
"|. c #F53CE782B1D5",
" X c #FC27F0B0BCD7",
".X c #85A99C4DC12C",
"XX c #88519DB1C0F1",
"oX c #82AAAB1CC562",
"OX c #8973B234C77D",
"+X c #8BBEB46DCA0F",
"@X c #9593B204C2CB",
"#X c #98A5B3D6C463",
"$X c #91E0B8E2CD56",
"%X c #9C53B97CC9CA",
"&X c #9FD9BA0AC7A5",
"*X c #93A0C002D58F",
"=X c #A191BCF6CBCA",
"-X c #AC3DB8BCCACA",
";X c #ACC8BD3AD53D",
":X c #8227B694E5A3",
">X c #8321B90FE7A5",
",X c #9AC3C61ADCF0",
"<X c #9905C838E685",
"1X c #A1D5CFEAE65F",
"2X c #C030CEC8E5FB",
"3X c #A363D122E784",
"4X c #A513D357EB95",
"5X c #A98ED749EE6C",
"6X c #A50CD6CAF6DF",
"7X c #A5D4D8A3F8B5",
"8X c #B564E5BDFDB7",
"9X c #CFE7CD49C53A",
"0X c #DAA0D923C9AF",
"qX c #C5DDCD7AD7C8",
"wX c #C1C3CF2EDE42",
"eX c #D5FCDBCFDF8F",
"rX c #DD64DED9D7C9",
"tX c #CA1CD2F3DA4A",
"yX c #EA87E575CC76",
"uX c #F5C0E4BFC4B8",
"iX c #F676EAA2CC39",
"pX c #F8C3EC0ECFB1",
"aX c #F882E9C5C6BD",
"sX c #FCAFF27CC3E9",
"dX c #FD08F412CB8D",
"fX c #EC2FE660D293",
"gX c #E935E9E9DFB0",
"hX c #F37CED1FD428",
"jX c #F8D1ECFED29A",
"kX c #F1EFEEC4DAC2",
"lX c #FAE2EF74D8C4",
"zX c #F27FF0C0DF20",
"xX c #FADDF2EDDBBC",
"cX c #FDAAF5A0D293",
"vX c #C21BD004E5AA",
"bX c #C5EED333E4B3",
"nX c #CBF2D6EEE59B",
"mX c #CDA3D98BE575",
"MX c #CBBAD71EE954",
"NX c #CF39DB67E87B",
"BX c #D2D5DB5BE58E",
"VX c #D7B5E0DBE63E",
"CX c #D57AE214EA93",
"ZX c #DA73E404EA27",
"AX c #E24FE568E2E0",
"SX c #ECAAED1CE175",
"DX c #FCC2F65FE22A",
"FX c #FEB6F9C8E50D",
"GX c #FD4EF77DE984",
"HX c #FF3BFB63EC57",
"JX c #F6FDF4B0E99F",
"KX c #E840EEC3F149",
"LX c #FFECFE50F5E8",
"PX c #FFB7FF29FCB6",
"IX c #F32AF50DF161",
"UX c None",
/* pixels */
"UXUXUXUXUXUXUXUXUXUXUXUXUXUX . . . . . . . . . . . . . . . . .%.",
"UXUXUXUXUXUXUXUXUXUXUXUXUX-.,.r.r.XXXXXXXXXX.X.X.X.X.X.Xr.,.-. .",
"UXUXUXUXUXUXUXUXUXUXUXUX .,.-XqXmXBXBXBXBXBXmXMXMXMXMXmXnX;X,. .",
"UXUXUXUXUXUXUXUXUXUXUXUX .r.qXAXBXBXVXZXZXZXCXCXCXBXmXVXKXnXr.} ",
"UXUXUXUXUXUXUXUXUXUXUXUX .r.nXeXs.u.@X%X%X%X%X%X%X@Xy.d.BXnX.X} ",
"UXUXUXUXUXUXUXUXUXUXUXUX .XXBXBXu.$.2.OXOXOXOX+X+Xp.$.y.mXMX.X} ",
"UXUXUXUXUXUXUXUXUXUXUXUX .XXBXVXa.2.*X1X1X3X3X4X4X,Xp.#XBXnXr.} ",
"UXUXUXUXUXUXUXUXUXUXUXUX} XXBXZX&XOX3X8X8X8X8X8X8X5X$X=XCXbXr.| ",
"UXUXUXUXUXUXUXUXUXUXUXUX} r.BXZX=X+X5X8X8X8X8X8X8X5X$X=XCXbX,.| ",
"UXUXUXUXUXUXUXUXUXUXUXUX%..XmXCX#XoX<X7X6X6X6X6X6X<XoX#XNXbX,.| ",
"> , t m m m m m m m m 0 o..XNXNXi.;.8.>X>X:X:X:X:X8.;.i.nXbX,.] ",
"> r R v.v.v.v.v.v.v.v.f.&..XMXnX<.#.5.9.9.7.7.7.9.5.#.<.bXbX,.] ",
"> m `.xXxXxXxXxXxXxXxX9Xt.r.nXnX<.+.5.9.9.9.9.9.9.5.+.<.bXbX>.] ",
"- F pXPXHXFXFXGXGXHXHXeX,.,.MXnX:.{ 3.6.6.6.6.6.6.3.{ :.bXbX>.' ",
"= F iXHXsX'.].|.}.}.sXR.1.4.MXbX$.( O.@.@.@.@.@.@.O.( $.wXbX>.' ",
"= F iXDX'.G.N.A.A.S.S.l.w.e.9XT.0.  ..X.X.X.X.X.X...  w.tXvX=.' ",
": l aXxX].N.A.N.N.m.Q U s s g g s 6 7 8 8 8 8 7 7 6 9 f.rX2X=.` ",
": l uXxX`.A.N.M.m.Q Q R g g c.x.x.x.x.x.x.x.x.x.z.U l c.fXvX=.` ",
"= l {.xX~.M.b.x.Y x.!./.E.0XyXjXjXjXjXjXjXpXpXjXlX{.R c.fXbX=._ ",
": l uXDX{.~.!.D.V.^.aXkXAXAXSXzXzXzXkXkXkXhXhXzXIXfXD h T.;X*._ ",
"; l iXLXGXxXxXxXlXxXGXJXgXyXW.Y.Y.U.U.k.j.j.h.U.0XE.f 5 q.*.[ UX",
"; l iXPXLXHXHXHXHXFXFXxXyX/.Z.h.g.S S D A A x S W.I.s 4 ) / UXUX",
"$ l iXLXFXcXdXdXsX X[.'.).J.n.E E J J K N N c J |.Q.d * UXUXUXUX",
"$ k uXHXcX X[.'.'._.L.K.G.F.^ W P L C Z n b 3 L [.~.a $ UXUXUXUX",
"$ k uXHXdX[.'._.L.K.H.F.^ W P L L C B n b 3 1 C '.~.a # UXUXUXUX",
"# k uXFXsX'._.L.K.H.F.^ W P L C Z n b b 3 1 < Z '.~.u # UXUXUXUX",
"# j uXFX X_.L.K.G.F.^ W P L C B n b 3 3 1 < < B _.~.u # UXUXUXUX",
"o j uXxX}.P.L.K.G.F.! W W P L V B B n b v 2 1 V '.~.u @ UXUXUXUX",
"o u (.xX}.).P.S.A.A.N.B.B.! Q ~ ~ ~ I I I V M ~ |.!.y o UXUXUXUX",
"o i C.(.V.z.z.z.T T T Y Y Y H H H G G z p p p H V.z.w o UXUXUXUX",
"O % y y e w w w q q q q q q q q q q & & & & & q w w % UXUXUXUXUX",
"UXUX. . . X X X X X X X X X X O O O O O O O O X X X O UXUXUXUXUX"
};
