/* XPM */
static char *folder_find[] = {
/* columns rows colors chars-per-pixel */
"32 32 238 2",
"   c #01270325047C",
".  c #067A076007D2",
"X  c #0587082F0B47",
"o  c #0B100C600DFC",
"O  c #0CAB0E57104E",
"+  c #12E113DE15F1",
"@  c #1668185F1AC6",
"#  c #19E81BE21EAA",
"$  c #1B871E282102",
"%  c #1DE120E12466",
"&  c #25A828982C4E",
"*  c #28A62B362D15",
"=  c #29852D56322F",
"-  c #2CB6311335E4",
";  c #319934B236D4",
":  c #32C237443C6C",
">  c #33BA38A93E3E",
",  c #52D13BD11C38",
"<  c #4DB643533417",
"1  c #34C93A6840CA",
"2  c #39A23EAD4442",
"3  c #3BE4413546F1",
"4  c #3D5E43974A7D",
"5  c #4D004D6943BA",
"6  c #400146184D08",
"7  c #42FF48B64EB3",
"8  c #44F94BC253AF",
"9  c #481A4EF356BB",
"0  c #4A6F50F455DB",
"q  c #4BE053665B65",
"w  c #504E57775F87",
"e  c #534559625D0C",
"r  c #58AC5B8458D5",
"t  c #64A25770439D",
"y  c #62835EE24AC4",
"u  c #6C3166CF4E15",
"i  c #6315613C5160",
"p  c #748E66FE5284",
"a  c #77C76BFC5A12",
"s  c #7BD070675F9B",
"d  c #4CC9569E61F3",
"f  c #4D63583564F7",
"g  c #52955ABD6363",
"h  c #5A295EB06091",
"j  c #52D85D9F69C2",
"k  c #55A461306DD6",
"l  c #5B3A63BA6C9E",
"z  c #55086186700C",
"x  c #5C9366B77182",
"c  c #5F9869667468",
"v  c #619566C76619",
"b  c #69546C4E667C",
"n  c #65316B106DCA",
"m  c #6AF46F0D6AD3",
"M  c #746874DD65AC",
"N  c #62A66BAA7525",
"B  c #62FA6EA67CC4",
"V  c #6777704176B8",
"C  c #65D0718A7EA2",
"Z  c #69BE73707D82",
"A  c #7E6B7ED27017",
"S  c #B9AA7DA82C2F",
"D  c #B4737F2B366F",
"F  c #8C377F2F5130",
"G  c #812272B75D28",
"H  c #A0B57A534567",
"J  c #857F7B516AE2",
"K  c #83B77EE77618",
"L  c #BB5F85F73D1D",
"P  c #CEB08A202D19",
"I  c #D7818418264B",
"U  c #D7FA85C72A28",
"Y  c #D87385D82A8E",
"T  c #D8FD8BD32E09",
"R  c #D9BF919D2F81",
"E  c #D9B99256300A",
"W  c #D9B79CCB3037",
"Q  c #DBD591813BF6",
"!  c #DEE699FC3DB3",
"~  c #E28B9D603F90",
"^  c #D9B6ABB32F41",
"/  c #D9B2B05A2F8D",
"(  c #D9B9A5513068",
")  c #D9B6A8BE2FE0",
"_  c #D99AB34631BC",
"`  c #DBBCB8043E33",
"'  c #E0D1BA8D3DA9",
"]  c #F156CD282A88",
"[  c #F1B0CDE4329F",
"{  c #F22BCF2D3C63",
"}  c #F2CFD1783BFE",
"|  c #8D97835B5B86",
" . c #BEF78A9B42DF",
".. c #B21A9AC44744",
"X. c #936789D465B1",
"o. c #95C98E496E35",
"O. c #8C5F8285730E",
"+. c #92D085917023",
"@. c #93818A897BA8",
"#. c #A3CB91C576FB",
"$. c #A78695D07B73",
"%. c #C3CA8F8047F9",
"&. c #C8AE91F44742",
"*. c #C4869178492A",
"=. c #C9DE932B4879",
"-. c #DF469B73435C",
";. c #DFBB9D734B72",
":. c #E0969F845104",
">. c #DDF2BBF94992",
",. c #DF60BE31512A",
"<. c #E08CA1BD55A1",
"1. c #E1F1A5415A77",
"2. c #E484ABDC5CBC",
"3. c #E4F3B07F579E",
"4. c #E5AAB2B75B35",
"5. c #EBB2BE975D07",
"6. c #C1FAAEE86ACC",
"7. c #DCA8B0D46511",
"8. c #E486AD936200",
"9. c #E4D7B3EC645F",
"0. c #E408BCE86484",
"q. c #EA9CBF23615B",
"w. c #E7DCBD166DF2",
"e. c #E888BBE16ABD",
"r. c #E983BEB1758B",
"t. c #E983BDF87BF6",
"y. c #F33CD2D644A2",
"u. c #F3BED4984B94",
"i. c #E2DBC07B5157",
"p. c #E1E3C1F65B85",
"a. c #F21ACFE9586B",
"s. c #F45DD63D531B",
"d. c #F487D8655675",
"f. c #F3C2D53D5BEE",
"g. c #F566D9485B87",
"h. c #E3D3C3DE6708",
"j. c #EC1DC0EF6547",
"k. c #ECBEC30F6BEC",
"l. c #F2B5D33E63D8",
"z. c #F5F8DB4264C0",
"x. c #F37CD5036C49",
"c. c #F69FDCF76D14",
"v. c #EC78C48F72C2",
"b. c #E578CAA47266",
"n. c #ECE0CC557519",
"m. c #ECC2C5B97ABC",
"M. c #EFEDCED67FBF",
"N. c #F3DBD63D7271",
"B. c #F6EBDE6674C4",
"V. c #F43BD7EB78A8",
"C. c #F6D4DE307B5F",
"Z. c #F7D3E1157CB3",
"A. c #6B0E768482D1",
"S. c #6E9078A0835F",
"D. c #6DF57BF28AB1",
"F. c #70DC7AED8666",
"G. c #74067ED08A2A",
"H. c #75BA81978D3E",
"J. c #7BD183798B3B",
"K. c #786A863D9591",
"L. c #7DE389969627",
"P. c #7D548A58985A",
"I. c #8220863383D6",
"U. c #804B87058C8A",
"Y. c #94EA8F888179",
"T. c #960E94E4897C",
"R. c #81B78CCE978E",
"E. c #82648EB49B7D",
"W. c #86F891B49CB5",
"Q. c #87D295BAA42E",
"!. c #8BB09701A35C",
"~. c #92B49E61AAA1",
"^. c #95BBA1AFAE11",
"/. c #9B34A5DEB123",
"(. c #9DF7A91EB52C",
"). c #A1F7ACEFB80A",
"_. c #A2A2AE8BBB43",
"`. c #A924B416BFA8",
"'. c #ED04C62A8572",
"]. c #EA08D2548690",
"[. c #E9EFD2988824",
"{. c #F199D38E83E7",
"}. c #F52ADB2D84A8",
"|. c #F216D560892C",
" X c #F597DD6C8D70",
".X c #EF72CE7A93CC",
"XX c #EF05CD0E9B13",
"oX c #F538DD6A93C5",
"OX c #F15BD6E29DC4",
"+X c #F64BDFA89B34",
"@X c #F80BE25E83E6",
"#X c #F89BE316864F",
"$X c #F7EEE2CE8AAB",
"%X c #F8C2E4A78CC8",
"&X c #F820E3B99250",
"*X c #F940E69894C0",
"=X c #F68AE07B9FC1",
"-X c #F93EE7449B27",
";X c #F9F2E90B9E76",
":X c #CF48C8A7ADEA",
">X c #D751C8D2ABDA",
",X c #F29CD320A81E",
"<X c #F49DDBA7A5AB",
"1X c #F399DC21AC01",
"2X c #F372DB84B251",
"3X c #F60BDF5DBBE8",
"4X c #F64CE178A668",
"5X c #FA56EA66A33A",
"6X c #F0ABE17AAF6E",
"7X c #F92AE837AC35",
"8X c #FA83EBB6AB66",
"9X c #F8C5E7D0B0D3",
"0X c #FA8BEC67B32B",
"qX c #F571E194BEB4",
"wX c #F9BBE7A9BE69",
"eX c #F985EA8DB9ED",
"rX c #FBFDF0B0BC2B",
"tX c #D53CD617D1FB",
"yX c #F64AE44AC43F",
"uX c #F5E1E8DCC7EF",
"iX c #FA29EC55C46C",
"pX c #F682E65BCB67",
"aX c #F8C3E7B0CDB8",
"sX c #F677EAA5CC3E",
"dX c #F8FCEAF6CC3C",
"fX c #FC85F287C3EA",
"gX c #FCB6F381CB90",
"hX c #F947EC1FD3A0",
"jX c #FA4DEE9FD91A",
"kX c #FCD7F3F1D345",
"lX c #FAB9F33ADB45",
"zX c #FE76F91BDCD2",
"xX c #FD37F694E3EF",
"cX c #FEADF9F2E4CA",
"vX c #FF20FB55EC78",
"bX c #FFC6FE15F599",
"nX c #FFFFFFFFFEDE",
"mX c None",
/* pixels */
"mXmXmXmXmXmXmXmXmXmXmXmXmXmXmXmXmXmXN c l l mXmXN g 7 1 mXmXmXmX",
"mXmXmXmXmXmXmXmXmXmXmXmXmXmXmXmXmXmXS.N j g mXmXl g q 9 mXmXmXmX",
"mXmXmXmXmXmXmXmXmXmXmXmXmXmXmXmXmXR.L.S.w 7 mXmXq g N N 0 mXmXmX",
"mXmXmXmXmXmXmXmXmXmXmXmXmXmXmXmXF.H.L.S.0 4 g j 9 g Z A.q mXmXmX",
"mXmXmXmXmXmXmXmXmXmXmXmXmXmXmXmXl N F.B 9 8 c B q f A.A.q 3 mXmX",
"mXmXmXmXmXmXmXmXmXmXmXmXmXmXmXmXg l F.A.d q B C f j D.D.g 4 mXmX",
"mXmXmXmXmXmXmXmXmXmXmXmXmXmXmX6 0 x P.P.x j B B j x K.K.k 6 = mX",
"mXmXmXmXmXmXmXmXmXmXmXmXmXmXmX8 0 l H.H.k d z k q g A.A.g 2 % o ",
"mXmXmXmXmXmXmXmXmXmXmXmXmXmXw g g j k g 4 1 1 1 > 3 9 0 4 - @ . ",
"mXmXmXmXmXmXmXmXmXmXmXmXmXmXv x Z Z l q 2 * mX$ ; 3 q e q 3 % o ",
"_ ` ,.p.p.p.p.p.p.p.p.i.' ..M S.!.~.W.S.q ; mXmX7 l J.W.L.N > @ ",
"_ >.b.].[.[.[.[.[.[.[.].b.6.A G.(.`.~.H.h 5 mXu h Z ~._.~.S.3 $ ",
"_ p.6XlXlXlXlXlXlXlXlXkXdX:XI.F./.).R.V r y F | b S.^.(.E.x : # ",
"/ h.sXnXvXcXcXcXvXvXvXbXbXtXU.Z ~.^.G.l 0 i X.o.m C !.~.G.g = @ ",
"^ h.sXvXfX8X7X9XeXeXiXkXvXtXJ.c E.Q.A.g 7 r Y.T.n x K.P.Z 0 & + ",
"^ h.sXxX8X$X XoXoXoXoX<XwX>X+.s @.Y.J p t p #.$.G a O.K h 1 $ O ",
") 0.uXzX7X XoXoX X{.n.v.v.7.*.L %.*. .L D L &.=.L L %.H < $ O . ",
") 0.yXlX4X|.{.M.n.k.q.q.w.w.9.8.2.2.2.8.8.8.2.8.8.2.~ S , X     ",
"^ 0.qXhXOXm.e.9.4.3.2.r.1XuXyXyX3X3X3XqX3X3X3XyXaX,X1.P mXmXmXmX",
") 0.yXlX2X.X'.t.t.t.t.XXdXcXzXzXkXkXkXgXgXgXgXzXbXpX8.R mXmXmXmX",
"( 0.uXbXxXjXhXhXaXaXaXdXiXrX8X5X5X;X-X*X*X%X$X5XzXyX8.R mXmXmXmX",
"( 0.sXnXbXvXvXvXvXcXzXgX0X;X%X#X@XZ.Z.B.c.z.z.@XgXqX8.R mXmXmXmX",
"W 0.pXbXcXkXgXgXfXrX8X5X*X%X#X@XZ.C.B.c.z.g.d.Z.gXqX8.R mXmXmXmX",
"W 9.uXvXkXrX0X0X8X;X%X#X#X#X@XZ.C.B.c.z.z.g.s.Z.gXqX8.R mXmXmXmX",
"W 9.yXvXgX0X8X5X;X*X$X#X@X@XZ.Z.B.c.c.z.g.s.u.B.fXqX8.R mXmXmXmX",
"E 9.yXcXfX8X5X-X*X%X@XZ.Z.B.B.c.z.z.g.s.u.y.} z.rX3X8.E mXmXmXmX",
"R 8.yXcXrX5X-X&X$X@XZ.B.c.z.g.g.s.u.y.} } [ ] d.8X1X2.E mXmXmXmX",
"T 8.yXzXeX;X-X&X$X@XC.B.c.z.z.f.d.s.u.y.{ { [ g.8X1X2.E mXmXmXmX",
"T 2.3XlXeX4X=X+XoXoX X}.}.V.V.N.N.x.l.l.l.f.a.V.9X<X1.T mXmXmXmX",
"T <.XX2X.X'.'.'.m.m.m.v.v.v.k.k.k.j.j.q.5.5.5.k..X'.;.T mXmXmXmX",
"Y Q 1.1.:.;.;.;.-.-.-.-.-.-.-.-.-.-.! ! ! ! ! -.;.;.Q mXmXmXmXmX",
"mXmXI I I U U U U U U U U U U Y Y Y Y Y Y Y Y U U U Y mXmXmXmXmX"
};
