/* XPM */
static char *help[] = {
/* columns rows colors chars-per-pixel */
"32 32 103 2",
"   c #32D7662DA3F1",
".  c #365A68A1A5EE",
"X  c #389C6AE1A790",
"o  c #3C766E3CA9E8",
"O  c #43F37380AC75",
"+  c #493E7778AF8B",
"@  c #4D317A70B014",
"#  c #47FC77B1B0F2",
"$  c #50FA7E96B5A2",
"%  c #560A812CB46B",
"&  c #5C5C861DB5FF",
"*  c #5F068893B752",
"=  c #555D829FB8D5",
"-  c #5BE286F1BA87",
";  c #5EC78827B949",
":  c #6192899FB732",
">  c #634D8C7CBC03",
",  c #68D38FBDBA98",
"<  c #6553908DBF9B",
"1  c #6C549266BD74",
"2  c #71E0966ABED4",
"3  c #64218DE0C116",
"4  c #66E29370C284",
"5  c #6A9C95ADC3C2",
"6  c #6CBE9985C630",
"7  c #6EC39C12CA0D",
"8  c #71D49772C445",
"9  c #75229B20C4D4",
"0  c #7A8C9DFAC630",
"q  c #73149DE1CC5A",
"w  c #7B129F40CA8C",
"e  c #7EE3A0B4C5C3",
"r  c #7667A15CCDEA",
"t  c #7CAAA33FCBF5",
"y  c #7602A1D7D1BB",
"u  c #7D35A534D20B",
"i  c #83BEA31CC610",
"p  c #8490A65FCBFF",
"a  c #89F6A773C9A5",
"s  c #8698A9B7CE5B",
"d  c #8B8BAB38CE06",
"f  c #949FAFFBD040",
"g  c #92A7B062CF3D",
"h  c #84AAA7FFD46B",
"j  c #8536AB76D3C9",
"k  c #8B86AC7FD45B",
"l  c #8783AF60D875",
"z  c #8A91AFD1D8E1",
"x  c #9180AFEAD2C8",
"c  c #895FB041D724",
"v  c #8E35B16ADA9A",
"b  c #93FFB2E6D4F0",
"n  c #9B5BB64DD42E",
"m  c #9FF2BB22D75D",
"M  c #938BB588DA96",
"N  c #993CB704DAF9",
"B  c #973EB8E5DC3D",
"V  c #9C2BBB32DD9A",
"C  c #A38EBC30D7A6",
"Z  c #A210BCDEDBB5",
"A  c #A869BF81D9D0",
"S  c #9D1BBCB1E2FF",
"D  c #A1B9BEE2E12E",
"F  c #A5B3C19BDE9D",
"G  c #ADB7C488DCE1",
"H  c #B231C741DEB3",
"J  c #B4E6C9B0E01A",
"K  c #A596C291E2F2",
"L  c #ABF6C607E4A4",
"P  c #ADADC85AE40E",
"I  c #AA61C71EEA5F",
"U  c #B0A3C74DE309",
"Y  c #B4FCCB1EE3BC",
"T  c #BB17CEB1E379",
"R  c #B4E6CDACEBEA",
"E  c #BED5D20EE674",
"W  c #BDCAD2DFEB86",
"Q  c #B7C5D27AF364",
"!  c #BCC4D5D4F4C9",
"~  c #BFF4D888F82A",
"^  c #C199D406E75E",
"/  c #C476D698EADE",
"(  c #C6E9D8C2ECD6",
")  c #CC20DBE6EDDD",
"_  c #D191DEB4ECE9",
"`  c #C0F9D7BBF3A4",
"'  c #C523DAB1F55D",
"]  c #CD1DDE87F3AE",
"[  c #CB9EDFDCF93E",
"{  c #D0E5E03DF202",
"}  c #D5C2E244EF57",
"|  c #D556E378F47A",
" . c #DBADE730F4EC",
".. c #DF54E93BF3DA",
"X. c #D36EE45CF954",
"o. c #D9D2E7F5F998",
"O. c #E678EE46F6A2",
"+. c #E949EFC5F6A9",
"@. c #EC7DF251F850",
"#. c #ED33F2F7F956",
"$. c #F327F72CFBBC",
"%. c #F5EBF8F1FC89",
"&. c None",
/* pixels */
"&.&.&.&.&.&.&.&.&.&.&.&.&.&.&.&.&.&.&.&.&.&.&.&.&.&.&.&.&.&.&.&.",
"&.&.&.&.&.&.&.&.&.&.&.&.&.&.&.&.&.&.&.&.&.&.&.&.&.&.&.&.&.&.&.&.",
"&.&.&.&.&.&.&.&.&.&.&.&.~ ~ ~ ! ! ! Q Q &.&.&.&.&.&.&.&.&.&.&.&.",
"&.&.&.&.&.&.&.&.&.&.[ [ [ [ ' ' ' ' ' ' ' ` &.&.&.&.&.&.&.&.&.&.",
"&.&.&.&.&.&.&.&.! ' X.o.o.o.| | | | | | | ] R I &.&.&.&.&.&.&.&.",
"&.&.&.&.&.&.&.~ ' [ |  .| ] ( ( ( ( ) ] | ] W R I &.&.&.&.&.&.&.",
"&.&.&.&.&.&.Q ` X. .| ) W P D V B V K Y / ) { ( I S &.&.&.&.&.&.",
"&.&.&.&.&.Q ! ' | | ( Y K D V V V V V Z P E ) ) R L S &.&.&.&.&.",
"&.&.&.&.R ! ] | | / K B B K ^ ) ) / U V M V Y ( ) W D v &.&.&.&.",
"&.&.&.&.Q ' | | W K z l F W ..#.#.O.) P c j V Y ) ( L V &.&.&.&.",
"&.&.&.W ] ] | / D l u M ( O.$.%.%.$.@.) B u j N T ( W U N &.&.&.",
"&.&.&.W ] | ) U v y q M | %.@.O.O.#.%...G j t j F E / T N &.&.&.",
"&.&.K R ] ] R V h q q M ) O.) / ( | #.+./ m t r b L / E b q &.&.",
"&.&.S R ] ) K z u q 7 j U / T Y / } @.+.) F t 6 t V / E k q &.&.",
"&.&.S L ) ( V u r q 7 q p b F E } +.#...E n w 5 9 b ^ E k 5 &.&.",
"&.&.M K ) / M r q 7 6 5 4 t G } O.O.} T C s 8 4 5 d ^ E s 4 &.&.",
"&.&.v D ) / M r 7 6 6 5 4 j ( @.@._ C p 0 6 4 < < s E E p > &.&.",
"&.&.k Z ( / B r 7 6 5 5 4 p Y _ ( G e > > > > , 5 d E T t - &.&.",
"&.&.h V / ( Z j q 6 5 5 4 6 t p p 0 1 > > > > < 9 b E Y 0 = &.&.",
"&.&.u N E / P M r 5 5 4 4 6 t p p w 1 : : : : 1 p C T G 9 $ &.&.",
"&.&.&.b Y ^ E F p 5 4 < > t J ) ) H 0 * * * * 2 n H H C 8 &.&.&.",
"&.&.&.k Z U ^ T b w 5 > > p T ....T 0 & & : 1 a G Y n p , &.&.&.",
"&.&.&.&.w x T / Y n 0 > > 9 n G G n 2 & & 1 a C T G 9 & &.&.&.&.",
"&.&.&.&.3 w Z Y E H x 0 1 2 e a a 0 1 , 2 i C H A d ; o &.&.&.&.",
"&.&.&.&.&.4 8 d U ^ Y m p 9 2 1 1 1 2 i n G T A 9 % + &.&.&.&.&.",
"&.&.&.&.&.&.= 5 b G T J C g a i i i d n G H A d % X &.&.&.&.&.&.",
"&.&.&.&.&.&.&.- , 0 n H T E T T T T T J G f 1 % O &.&.&.&.&.&.&.",
"&.&.&.&.&.&.&.&.# ; p n F G G G G G G C b 0 @   &.&.&.&.&.&.&.&.",
"&.&.&.&.&.&.&.&.&.&.> , > > > : : : ; * & % &.&.&.&.&.&.&.&.&.&.",
"&.&.&.&.&.&.&.&.&.&.&.&.o X X . .       &.&.&.&.&.&.&.&.&.&.&.&.",
"&.&.&.&.&.&.&.&.&.&.&.&.&.&.&.&.&.&.&.&.&.&.&.&.&.&.&.&.&.&.&.&.",
"&.&.&.&.&.&.&.&.&.&.&.&.&.&.&.&.&.&.&.&.&.&.&.&.&.&.&.&.&.&.&.&."
};
