/* XPM */
static char *magnifier_zoom_in[] = {
/* columns rows colors chars-per-pixel */
"32 32 161 2",
"   c #2ECF6FE029D2",
".  c #385A6E392947",
"X  c #2F5A71422A82",
"o  c #32DD740F2C74",
"O  c #37977A793192",
"+  c #39B77CB13251",
"@  c #5D187E3E3FAE",
"#  c #6601799B3A75",
"$  c #95F75D4B1523",
"%  c #9AD9630B1C24",
"&  c #9CE166732087",
"*  c #85F8756B35CB",
"=  c #A5E96DEA2BC2",
"-  c #A66D70E22EEE",
";  c #A7BB72A83115",
":  c #A920744E338A",
">  c #AD3D76DE3866",
",  c #AB79790B3AA9",
"<  c #B36E7F2042D4",
"1  c #3D6E835136D2",
"2  c #410781A23713",
"3  c #4208874E3995",
"4  c #43E689483BA6",
"5  c #4AC78A1C3DB8",
"6  c #5C778508475F",
"7  c #5DEF87CE4924",
"8  c #4D59933143B1",
"9  c #543F93C64311",
"0  c #59A697374845",
"q  c #5BEE9A5B4B17",
"w  c #5D4B9D7A5361",
"e  c #61A29EE24E7E",
"r  c #5655A2724E33",
"t  c #5D53A36351C8",
"y  c #5DD9AC20551B",
"u  c #6773A1A04F67",
"i  c #63F6A4615284",
"p  c #6B33A5EB54E1",
"a  c #6351AEAD574D",
"s  c #653EADE2591F",
"d  c #6D5FACE95C95",
"f  c #70B9A8BE56B5",
"g  c #74BCACCD5C20",
"h  c #7AB2AF995E75",
"j  c #64C3B4905A8C",
"k  c #6AB0B43B5B42",
"l  c #6FE9B9315F85",
"z  c #727DB5B05FD4",
"x  c #55B190BD64CA",
"c  c #5DE998A7664F",
"v  c #60D69CE96047",
"b  c #6DD8918B6B1F",
"n  c #68C9A72967AD",
"m  c #6BD3B6FD6255",
"M  c #6C17BA466036",
"N  c #72FEB6086739",
"B  c #7CDAB38062BD",
"V  c #7418B9B8627E",
"C  c #7DFDB9486774",
"Z  c #70F1AE2D75D8",
"A  c #7763BA9A7666",
"S  c #7565B4477D54",
"D  c #75A3BB277AF5",
"F  c #B5A382E24800",
"G  c #B916864F4CF9",
"H  c #A9CA8E4457C7",
"J  c #B826869053A6",
"K  c #BC3B8B725305",
"L  c #AF519FA46EE9",
"P  c #A42E9A687829",
"I  c #BEE598ED73DE",
"U  c #84AEB6776694",
"Y  c #8498BB866A60",
"T  c #8A29BA576C60",
"R  c #8F89BE6970AB",
"E  c #91B7BEBD7231",
"W  c #B020A1F670EB",
"Q  c #C2CA8F7F5A04",
"!  c #C1E893505D09",
"~  c #C69A9903663A",
"^  c #CA8E9D476AD7",
"/  c #CDC7A19C7161",
"(  c #D310A5D77854",
")  c #D373A9207AED",
"_  c #8B1CC1F07063",
"`  c #961AC2AF7668",
"'  c #7628B459802E",
"]  c #7B13BDBE8049",
"[  c #7F19C1298451",
"{  c #77719815C2F4",
"}  c #75D09C89CED6",
"|  c #79CF9FC1D05F",
" . c #7D0FA380D2AD",
".. c #9E5194198DCE",
"X. c #95879BBA9E0C",
"o. c #B895B02B84FA",
"O. c #B90CB0CD8504",
"+. c #827D93A9AC4A",
"@. c #8960A63AB018",
"#. c #8A0DBD8AA066",
"$. c #8CEAA122BD46",
"%. c #8FEDB520BF17",
"&. c #8C3DBE28B8CE",
"*. c #D682AD728123",
"=. c #DB33B34D89ED",
"-. c #DFB7B8FA91E5",
";. c #E2F5BE41994C",
":. c #8716C6A28804",
">. c #92CFC985A35E",
",. c #9902C1DBAA6E",
"<. c #9E44CD0AB34E",
"1. c #8BBFA97BCFD7",
"2. c #8163A6A6D4F5",
"3. c #8593AA30D740",
"4. c #8CB9AEACD908",
"5. c #8F19B083DA06",
"6. c #953BB619DD7E",
"7. c #9FCFB8FBDACD",
"8. c #9CD0BD37E3E7",
"9. c #A6AFC6FDC8D7",
"0. c #A792CD94CF5A",
"q. c #A84DCEC1CE2E",
"w. c #AA6CD0C8CEE0",
"e. c #A03FC748D105",
"r. c #ACB5CFABD972",
"t. c #AE31D257D19A",
"y. c #AF19D114D9E7",
"u. c #B265D55BD2F3",
"i. c #B828D9F9D490",
"p. c #B60ED78EDC30",
"a. c #A511C2E9E60B",
"s. c #AF21C810E6DB",
"d. c #AD48C8D2E847",
"f. c #A66FC65EEA95",
"g. c #A91BC6B6EE0D",
"h. c #AC64CB05ED76",
"j. c #B3AECEB7EDC4",
"k. c #B7DDD2FAEC06",
"l. c #BC1ED44CEDF1",
"z. c #AE88CF18F1C4",
"x. c #B5E6CE53F0E2",
"c. c #B500D3B2F491",
"v. c #BBD8D6B6F367",
"b. c #BEECD972F575",
"n. c #B966D80CF88F",
"m. c #BA8ED920F9B0",
"M. c #C10BDEDBD704",
"N. c #C13CDCE5DD03",
"B. c #C226DC35EDB0",
"V. c #C487DCBBF617",
"C. c #C97BDF51F5E2",
"Z. c #C437DE0CF9CC",
"A. c #CA0FDFB8FA7D",
"S. c #CD73E233F6EC",
"D. c #CE5DE350FA67",
"F. c #D3F7E5D9F7BD",
"G. c #D827E8A9F872",
"H. c #D5E5E6E6FA0B",
"J. c #D7A9E8F0FA77",
"K. c #DC7DEAF1F9CA",
"L. c None",
/* pixels */
"L.L.L.L.L.L.L.L.L.L.L.L.L.L.L.L.L.L.L.L.L.L.L.L.L.L.L.L.L.L.L.L.",
"L.L.L.L.L.L.L.L.L.L.L.L.L.L.L.L.L.L.L.L.L.L.L.L.L.L.L.L.L.L.L.L.",
"L.L.L.L.L.L.L.L.m.n.n.c.c.c.z.z.L.L.L.L.L.L.L.L.L.L.L.L.L.L.L.L.",
"L.L.L.L.L.L.Z.Z.Z.Z.Z.V.V.b.v.v.c.h.L.L.L.L.L.L.L.L.L.L.L.L.L.L.",
"L.L.L.L.L.Z.A.D.H.J.J.G.G.H.F.C.b.j.g.L.L.L.L.L.L.L.L.L.L.L.L.L.",
"L.L.L.L.Z.A.D.H.K.K.K.K.K.K.K.F.C.k.e.&.L.L.L.L.L.L.L.L.L.L.L.L.",
"L.L.L.Z.A.D.J.K.K.G.F.F.F.F.F.H.J.N.>.D m j a y L.L.L.L.L.L.L.L.",
"L.L.L.Z.D.H.K.K.G.F.S.S.S.S.S.H.K.M.:.M V m a y L.L.L.L.L.L.L.L.",
"L.L.n.Z.F.K.K.G.F.S.S.S.C.C.A.D.H.i.[ l _ T s r L.L.L.L.L.L.L.L.",
"L.L.n.V.H.K.G.F.S.S.S.C.C.B.p.u.u.<.A V ` ` d r L.L.L.L.L.L.L.L.",
"L.L.c.V.G.K.F.S.S.C.C.C.C.p.>.[ ] A N C ` E g t 8 4 3 3 L.L.L.L.",
"L.L.c.b.H.K.F.S.C.C.C.C.Z.t.[ k k z C Y E R B p q 8 4 1 L.L.L.L.",
"L.L.z.v.F.K.S.C.C.V.V.V.Z.w.D k Y R R R E T U B g e 4 + L.L.L.L.",
"L.L.h.v.F.K.S.C.V.V.V.V.Z.q.S s B T T T T U B g p q 2 o L.L.L.L.",
"L.L.g.c.S.G.S.C.V.V.V.V.V.0.' t t i p g B h p 0 5 2 o o L.L.L.L.",
"L.L.f.j.V.F.F.S.C.V.V.b.b.r.#.S Z n w e g f 0 3 + o X   L.L.L.L.",
"L.L.L.h.l.V.F.F.S.V.b.b.v.k.y.t.u.,.v 9 p u 5 O L.L.L.L.L.L.L.L.",
"L.L.L.f.d.k.C.S.S.C.V.V.V.V.V.A.A.9.c 3 9 9 + o L.L.L.L.L.L.L.L.",
"L.L.L.L.8.a.j.l.C.S.D.D.S.S.S.V.x.%.x + + O o . L.L.L.L.L.L.L.L.",
"L.L.L.L.L.8.a.d.k.l.l.l.l.l.k.s.7.@.b 7 7 6 @ # * L.L.L.L.L.L.L.",
"L.L.L.L.L.L.6.6.6.6.6.6.6.5.4.1.$.X.P W O.o.L H , = L.L.L.L.L.L.",
"L.L.L.L.L.L.L.3.3.2. . .| } } { +...I ( -.;.=./ G > L.L.L.L.L.L.",
"L.L.L.L.L.L.L.L.L.L.L.L.L.L.L.L.L.L.J Q ^ *.-.=.^ G - % L.L.L.L.",
"L.L.L.L.L.L.L.L.L.L.L.L.L.L.L.L.L.L.L.< K ~ *.=.) ! ; % L.L.L.L.",
"L.L.L.L.L.L.L.L.L.L.L.L.L.L.L.L.L.L.L.L.> F ! / *.^ : $ L.L.L.L.",
"L.L.L.L.L.L.L.L.L.L.L.L.L.L.L.L.L.L.L.L.L.: < K ^ ! - $ L.L.L.L.",
"L.L.L.L.L.L.L.L.L.L.L.L.L.L.L.L.L.L.L.L.L.L.= ; , : & L.L.L.L.L.",
"L.L.L.L.L.L.L.L.L.L.L.L.L.L.L.L.L.L.L.L.L.L.L.% % % L.L.L.L.L.L.",
"L.L.L.L.L.L.L.L.L.L.L.L.L.L.L.L.L.L.L.L.L.L.L.L.L.L.L.L.L.L.L.L.",
"L.L.L.L.L.L.L.L.L.L.L.L.L.L.L.L.L.L.L.L.L.L.L.L.L.L.L.L.L.L.L.L.",
"L.L.L.L.L.L.L.L.L.L.L.L.L.L.L.L.L.L.L.L.L.L.L.L.L.L.L.L.L.L.L.L.",
"L.L.L.L.L.L.L.L.L.L.L.L.L.L.L.L.L.L.L.L.L.L.L.L.L.L.L.L.L.L.L.L."
};
