/* XPM */
static char *page_add[] = {
/* columns rows colors chars-per-pixel */
"32 32 211 2",
"   c #340068961649",
".  c #34B369041928",
"X  c #346C68C02469",
"o  c #341D68A42E87",
"O  c #3EA274E91FA3",
"+  c #341968353737",
"@  c #3C547250373E",
"#  c #4466796321DE",
"$  c #413C775727B2",
"%  c #4A4B7D77290B",
"&  c #413676383608",
"*  c #4C357E72312C",
"=  c #47167A9937EA",
"-  c #33DC67D343FF",
";  c #3DEE7376490E",
":  c #32F267CB5177",
">  c #3C4E718E69DF",
",  c #307966447AAE",
"<  c #466F7D606289",
"1  c #4C5E80492C61",
"2  c #4CFB84BF37D6",
"3  c #51AD824932D3",
"4  c #56E08D29351D",
"5  c #58E68F432FC7",
"6  c #53A48A5C39EA",
"7  c #5AFC89703C0C",
"8  c #5B71912531C9",
"9  c #655098263E85",
"0  c #69EE9FF53CBF",
"q  c #531F874C4A7E",
"w  c #5CB291FC44F8",
"e  c #45DF82A25600",
"r  c #4FD083B75F64",
"t  c #54148ADC5C4C",
"y  c #66C290F648E9",
"u  c #6C6A9DE749A2",
"i  c #60A78E695352",
"p  c #6E6297165232",
"a  c #73069BF45B21",
"s  c #78BC9E855E5B",
"d  c #6CFDA1C04191",
"f  c #6F7EA0C84863",
"g  c #70CEA1EA48D2",
"h  c #7558A4925653",
"j  c #7F9CABEE5C68",
"k  c #7F62B25553AD",
"l  c #5A658F736413",
"z  c #57EB8FCE6C9F",
"x  c #5B7090B7680D",
"c  c #799B9FAA64C2",
"v  c #6B17950B7BC1",
"b  c #722298DE7AAD",
"n  c #7E46A2956553",
"m  c #7D5DA11B7508",
"M  c #7D36A1A578CF",
"N  c #80BDAD305C91",
"B  c #80FFB2965637",
"V  c #8376B5615997",
"C  c #8753B8A05DF5",
"Z  c #800FA44B678B",
"A  c #8D8CB53A6DD2",
"S  c #8134A2C073DC",
"D  c #85D0A94273F0",
"F  c #82B1A5AD7F9A",
"G  c #8BC2B24472B0",
"H  c #921BB7EF729A",
"J  c #9566BCC9732C",
"K  c #9749BBE47888",
"L  c #9C0CBEE27F29",
"P  c #9B98C5A9777A",
"I  c #9D90C5387A39",
"U  c #2CD86422A731",
"Y  c #2ADA622EB97C",
"T  c #329F6D58BDDC",
"R  c #3E1B7BCBB47B",
"E  c #35E47301BF82",
"W  c #3F6C77E7BF0C",
"Q  c #41537A258F5A",
"!  c #42CC755F9884",
"~  c #4CDF7C0EB7A0",
"^  c #38F176CDC198",
"/  c #3D527C56C494",
"(  c #436C7514C13A",
")  c #407E7E22C378",
"_  c #524284CB882F",
"`  c #6B759CE983FB",
"'  c #633594A1BBB7",
"]  c #451584BAC4D6",
"[  c #497C87E8C5BB",
"{  c #4A098936C74F",
"}  c #594384BCC500",
"|  c #5BED86F3C94F",
" . c #55468C18CC54",
".. c #5D9F8AD8CAD5",
"X. c #5A249185CFA3",
"o. c #625B8CA0CC0F",
"O. c #661B94A0CE2F",
"+. c #6DF19C60CFED",
"@. c #620D8FD2DADE",
"#. c #6D069D21D282",
"$. c #664195C6DB98",
"%. c #669A983DDBBA",
"&. c #68509897DC43",
"*. c #70539F1DD283",
"=. c #5FAFADF0C7E6",
"-. c #5D20ACF3CC4B",
";. c #776DB981CC4B",
":. c #6CB7A275DCC0",
">. c #74AEA471D39D",
",. c #7828A73ED508",
"<. c #79C6A866D5CE",
"1. c #7158A2E6DE44",
"2. c #6DBEB397D37C",
"3. c #587BB702FA08",
"4. c #634ABC78FB4D",
"5. c #6FD6BF94FCC0",
"6. c #7105BF3CF9FA",
"7. c #6ED8C3CAFE8A",
"8. c #71BAC320FC7F",
"9. c #7CC7C659FA4A",
"0. c #8A44ACD282E0",
"q. c #8E28B2998279",
"w. c #9065B20E8B8D",
"e. c #8EEDAF7092D6",
"r. c #90C3B22E910C",
"t. c #8B62AACAAC73",
"y. c #94CCB6B5A9D5",
"u. c #A13ABF02AB43",
"i. c #A19EBEBAB23A",
"p. c #A35ACA3B835B",
"a. c #A8BECD948686",
"s. c #A988CA508C4C",
"d. c #ADE1D3368C7F",
"f. c #B225CE5C990A",
"g. c #BA3ED9DA9C6C",
"h. c #BC7FD90DA3DB",
"j. c #C012DAC7AA78",
"k. c #C0B2DDA8A4D8",
"l. c #C20FDF53A85D",
"z. c #C714DFE8B084",
"x. c #C3F8E06DAAF0",
"c. c #CCDFE3D3B751",
"v. c #8354B2E0E056",
"b. c #89FEB55BDF44",
"n. c #8280B30AE4B4",
"m. c #8916B791E5D6",
"M. c #A46BBD29E19A",
"N. c #A859C2FDC94E",
"B. c #B5DECE64CF88",
"V. c #AE44CB2DD0E2",
"C. c #B03FC5EBD7F0",
"Z. c #B334CDC6D2D1",
"A. c #BA43D249D641",
"S. c #B646D0DBD9E2",
"D. c #BB1DD841DB0D",
"F. c #99E7C592ECDD",
"G. c #8518CC20FD8E",
"H. c #8ACCCEC2FE04",
"J. c #9218CDBAFA8E",
"K. c #8D3DD1D9FF6F",
"L. c #91C1D243FF68",
"P. c #A7ADC84CE615",
"I. c #AC41CBF5E3EF",
"U. c #A466CB9EEDF3",
"Y. c #ACDBCFDFED29",
"T. c #B545CB68E7AF",
"R. c #B7F6CD25E8F5",
"E. c #B996CE84E970",
"W. c #BE53D76EE4B5",
"Q. c #BD7FD1F1EA76",
"!. c #B01BD53AF4E0",
"~. c #A02ED67CFCBA",
"^. c #B5D0D504F46B",
"/. c #BA0FD744F625",
"(. c #BD6CDA47F753",
"). c #B3EFD96CFCAA",
"_. c #C57AD7A0D06E",
"`. c #D66DEA6CC413",
"'. c #D82DE935CA35",
"]. c #D8FAE9AFCAA8",
"[. c #DE21ECE9D128",
"{. c #E35AF0A0D78B",
"}. c #E84DF3FFDD5F",
"|. c #C1FBD5C6EBA8",
" X c #C6EADA68ED53",
".X c #CA6CDC6BEDDD",
"XX c #C398DC21F5E7",
"oX c #C91CDF81F655",
"OX c #C4A7DE42F9FD",
"+X c #C85FE04DFAD3",
"@X c #CD4CE29FF575",
"#X c #C5B0E290FAE7",
"$X c #CCA9E326FBD7",
"%X c #CD76E9D2FF7E",
"&X c #D1F3E492F715",
"*X c #D94EE6B0F54C",
"=X c #DC8FE99DF614",
"-X c #D51DE713FDAE",
";X c #D6DDE92DFE04",
":X c #DDC0EC18FD9C",
">X c #ECECF4F2E6CE",
",X c #EE97F5E1E8BB",
"<X c #F458FA13EF97",
"1X c #E4BEEEAAF7BE",
"2X c #E53BEF8AF9D2",
"3X c #E786F17DFA8D",
"4X c #EB95F3B0FBDD",
"5X c #F577FAB9F114",
"6X c #F28DF72DFADB",
"7X c #FBABFD8EFA3B",
"8X c None",
/* pixels */
"8X8X8X8X] [ { { { { { { { { { { { { { [ [ ] / 8X8X8X8X8X8X8X8X8X",
"8X8X8X .>.<.,.,.,.,.>.>.>.>.,.,.>.>.>.>.>.#.X. .8X8X8X8X8X8X8X8X",
"8X8X8X+.T..X.X.X X X X X X X X X X X X XQ.P.v.:.%.$.8X8X8X8X8X8X",
"8X8X] >..X6X4X3X3X3X3X3X3X3X3X3X2X2X1X1X1X@XU.n.1.&.8X8X8X8X8X8X",
"8X8X] >..X4X:X-X-X-X-X-X-X-X-X&X$X$XoX&X4X2X(.F.n.1.&.@.8X8X8X8X",
"8X8X] >..X4X-X#X#X$X$X$X#X#X+XOXOX(./.oX4X4X$X!.F.n.1.%.8X8X8X8X",
"8X8X] >..X4X;X$X$X$X$X$X$X$X#XOXOX(./.oX4X4X;X#X(.U.m.1. .8X8X8X",
"8X8X] >..X4X;X$X$X$X$X$X$X$X$X+XOXXX/.oX2X4X:X;X;X@XY.b...W 8X8X",
"8X8X] >..X4X;X$X$X$X$X$X$X$X$X#XOXXX(.oX=X1X3X3X4X3X=XI.O.) 8X8X",
"8X8X] >..X4X:X$X-X-X-X-X$X$X$X$X+XOX(.XX@X*X=X1X1X3X4X|.+.) 8X8X",
"8X8X] >..X4X:X-X-X-X-X-X-X$X$X$X#XOXOXXXXXXXXXXXXX&X3X X#.) 8X8X",
"8X8X] >. X4X:X-X-X-X-X-X-X-X$X$X$X+XOXXX(./.^.^.^.XX2X X*.) 8X8X",
"8X8X] >. X4X:X-X-X-X-X-X-X-X-X$X$X$X+XOXXX(.(././.oX2X X*.) 8X8X",
"8X8X] >. X4X:X;X;X;X;X;X-X-X-X-X$X$X$X+XOXOXXX(.(.$X3X X#.) 8X8X",
"8X8X] >. X4X:X;X;X;X;X;X;X-X-X-X-X$X$X$X+XOXOXXXXX$X3X X#.) 8X8X",
"8X8X] >. X4X:X;X;X;X;X;X;X-X-X-X-X-X$X$X$X#X+XOXOX-X4X X#./ 8X8X",
"8X8X] >. X4X:X;X;X;X;X;X;X;X-X-X-X-X-X$X$X$X$X#X#X-X4XXX#./ 8X8X",
"8X8X] #. X4X:X;X;X;X;X;X;X;X-X-X-X-X-X$X XW.S.Z.V.B._.N.' R 8X8X",
"8X8X) #.|.4X:X;X;X;X;X;X;X;X-X-X-X-X-XoXZ.i.e.F M m S b _ Q 8X8X",
"8X8X/ #.|.4X:X;X;X;X;X;X;X;X;X;X-X&X.XA.u.w.D Z n s p i r < 8X8X",
"8X8X/ #.|.3X:X;X;X;X;X;X;X;X;X;X;X.XB.u.q.G L s.f.s.A h w 2 $ 8X",
"8X8X/ #.|.:X#X).).).).).).).).).).I.y.0.G J a.k.`.c.p.V d 8 # . ",
"8X8X/ #.|.$XJ.6.6.6.8.8.6.6.6.6.5.2.` c K a.d.x.}.[.a.C V g %   ",
"8X8X^ #.|.#X9.3.4.4.4.4.4.4.4.4.4.-.z p I g.l.`.<X>Xj.p.I N 1   ",
"8X8X^ O.Q.$XG.7.G.K.H.H.H.H.H.H.H.;.l y L z.{.5X7X7X,X].h.A 3   ",
"8X8XE O.Q.$XH.8.H.L.L.L.K.K.K.K.K.;.t 7 H h.'.>X7X7X,X].h.A 3   ",
"8X8XT O.E.#XG.4.7.8.8.8.8.7.7.7.7.=.e 3 N P p.h.>X>Xj.p.I N 1   ",
"8X8XT o.Q.-X~.G.G.G.G.G.G.G.G.G.G.;.x 7 g k V p.].'.p.V B f %   ",
"8X8XY o.|.3X-X#X#X#X#X#X#X#X#X#X%XD.r.a 9 0 B P h.h.P B d 5 # . ",
"8X8XY | M.|.Q.R.R.T.T.T.T.T.T.E.Q.C.t.v q 6 u j A A j u 4 1 O 8X",
"8X8X8X( | o.o.| | | | | | | | | ..} ~ ! > ; = * 3 3 * * & @ 8X8X",
"8X8X8X8XY Y Y Y Y Y Y Y Y Y Y Y Y Y Y U , : o .     . X + - 8X8X"
};
