/* XPM */
static char *paintbrush[] = {
/* columns rows colors chars-per-pixel */
"32 32 158 2",
"   c #AB19761D170A",
".  c #B1357E321335",
"X  c #B52C83BA13C2",
"o  c #BA318B1E1213",
"O  c #B74186FB1C80",
"+  c #B63886532333",
"@  c #B8AE89AE25F0",
"#  c #B99E8DD12E39",
"$  c #BE739140251B",
"%  c #BE3D956B2CFF",
"&  c #AA0E80812FE2",
"*  c #BCD39AC332B4",
"=  c #C22D969316D8",
"-  c #C29C985F23D9",
";  c #C1F896C52C10",
":  c #C30B98702CC6",
">  c #C4DC9B803317",
",  c #C1DD9E063F5E",
"<  c #C7ECA02B35AA",
"1  c #CD1BA74E3CBD",
"2  c #CD9AA9643C78",
"3  c #D21BAD743FB1",
"4  c #B59A943A4690",
"5  c #BA8997664176",
"6  c #B95D9D8D499B",
"7  c #B9C09F87571B",
"8  c #875588667AF2",
"9  c #8A738B377B53",
"0  c #A5D9911B6072",
"q  c #B51DA4A1731F",
"w  c #B3CDA6877DC7",
"e  c #C5A6A52141EC",
"r  c #CFCCAC97427E",
"t  c #D1C6ADC44181",
"y  c #D523B2AB4537",
"u  c #D1D1B075498A",
"i  c #D8B7B8AA4A84",
"p  c #DD0DBE4D5040",
"a  c #C230AA136E57",
"s  c #D7A6BB3F65A4",
"d  c #D863BBE767BB",
"f  c #D8BBBC8E69AC",
"g  c #C1B2AC827650",
"h  c #DF3BC1535301",
"j  c #DDF0C0C85D8C",
"k  c #E169C503568C",
"l  c #E1EFC56D5AF8",
"z  c #E5DFCBBA5F65",
"x  c #DC88C2B6721A",
"c  c #DE93C6147AA6",
"v  c #E23AC74566C9",
"b  c #E717CDCB6113",
"n  c #E69FCE2A6E09",
"m  c #EA19D27764B7",
"M  c #EE17D7EF69AA",
"N  c #EE3ED86E6D07",
"B  c #E416CC66763D",
"V  c #E1B1C9EC7B98",
"C  c #EFE5DB7274C8",
"Z  c #EE01D8957842",
"A  c #F1E7DF007EAF",
"S  c #4D85676C8C23",
"D  c #51746979895F",
"F  c #5A256F94897B",
"G  c #5E6974578C8B",
"H  c #503A6AEE92C9",
"J  c #5F1677749169",
"K  c #5658747F9DC6",
"L  c #5B6F7979A002",
"P  c #60C77A3094E4",
"I  c #64887E40984E",
"U  c #4DF66FF1A222",
"Y  c #53CE72F0A1F6",
"T  c #5B757AC6A355",
"R  c #527A75F7AB68",
"E  c #570B7CA2B19D",
"W  c #62227FDCA0DF",
"Q  c #652C81DE9FA4",
"!  c #6BB084E99CDF",
"~  c #701888F69E47",
"^  c #6CDB87CBA6C3",
"/  c #6886888CAF72",
"(  c #79239250A4EA",
")  c #797495F4ADDF",
"_  c #64788B33BAC8",
"`  c #687F8D66BED3",
"'  c #7A909A80B68C",
"]  c #71129364BD41",
"[  c #79F69B7FBDBA",
"{  c #55D58173C322",
"}  c #5993860AC559",
"|  c #5E138903C7B1",
" . c #63748FF1CD40",
".. c #77B89B01C328",
"X. c #7B169E7CC3AA",
"o. c #742499DDC8F7",
"O. c #8A1F94CD96E3",
"+. c #B287A99E8D20",
"@. c #A5A0A71D9E8A",
"#. c #B1E4AC249C19",
"$. c #80D5976AA331",
"%. c #81539AE9A582",
"&. c #83599C7BAB49",
"*. c #936F9FC2A526",
"=. c #82EA9F23B31D",
"-. c #8A91A0E1A621",
";. c #94B5A2EEAAE1",
":. c #8712A2A8B7EF",
">. c #8E05A2D4B0CE",
",. c #84FAA396BB65",
"<. c #8E51A62DBBA1",
"1. c #959BA7D3B5A1",
"2. c #94EFAB14BE1E",
"3. c #9CF0AD61B99C",
"4. c #ADA1ABE5A1B6",
"5. c #A434AAC1ACE8",
"6. c #B6D4B364A7E6",
"7. c #BE25B927AAE0",
"8. c #BDE6C03FBBE9",
"9. c #C624B9CA9811",
"0. c #C6F1BDE5A4CA",
"q. c #C435BD7DAAA0",
"w. c #DF23C7A280BA",
"e. c #DFF4C8878249",
"r. c #DB77CA6E9DA4",
"t. c #ED42D9A48783",
"y. c #E57DD1058B86",
"u. c #E6B3D3229313",
"i. c #EE74DD1E94BA",
"p. c #ECE8DC1F9ADB",
"a. c #F423E2D18250",
"s. c #F475E49F928B",
"d. c #F450E55AA012",
"f. c #F71AE95A99E6",
"g. c #CCE4C7CAAFB9",
"h. c #EA8AD9CAA2FE",
"j. c #EA17DD1AB925",
"k. c #F00AE103A730",
"l. c #F3A6E5C9A54A",
"z. c #F677E991A425",
"x. c #F17EE39CA972",
"c. c #8728A6D6C4CB",
"v. c #8857A9D7C633",
"b. c #8186A4C0CB7D",
"n. c #943BAE72C1F8",
"m. c #9388B2EECB15",
"M. c #8A79AFCCD4DF",
"N. c #8C9AB171D32D",
"B. c #90C2B474D240",
"V. c #B377BEE2C49F",
"C. c #C676CD4FCB57",
"Z. c #D46AD208C4D0",
"A. c #D9A3D6F1C2B5",
"S. c #D45BD74ACD04",
"D. c #DAE6DAAACA48",
"F. c #E6B3DF07C6DF",
"G. c #EE1CE2F0C33E",
"H. c None",
/* pixels */
"H.H.H.H.H.H.H.H.H.H.H.H.H.H.H.H.H.H.H.H.H.H.H.H.H.H.H.H.H.H.H.H.",
"H.H.H.H.H.H.H.H.H.H.H.H.H.H.H.H.H.H.H.H.H.H.H.H.H.H.H.H.H.H.H.H.",
"H.H.H.H.H.H.H.H.H.H.H.H.H.H.H.H.H.H.H.H.H.H.H.H.H.H.H.H.H.= H.H.",
"H.H.H.H.H.H.H.H.H.H.H.H.H.H.H.H.H.H.H.H.H.H.H.H.H.H.H.H.u 2 - o ",
"H.H.H.H.H.H.H.H.H.H.H.H.H.H.H.H.H.H.H.H.H.H.H.H.H.H.f c y.x > o ",
"H.H.H.H.H.H.H.H.H.H.H.H.H.H.H.H.H.H.H.H.H.H.H.H.H.H.e.u.p.V > X ",
"H.H.H.H.H.H.H.H.H.H.H.H.H.H.H.H.H.H.H.H.H.H.H.H.f e.h.h.t.j : X ",
"H.H.H.H.H.H.H.H.H.H.H.H.H.H.H.H.H.H.H.H.H.H.H.H.e.u.k.i.v t $ X ",
"H.H.H.H.H.H.H.H.H.H.H.H.H.H.H.H.H.H.H.H.H.H.d e.h.k.s.n 1 $ O H.",
"H.H.H.H.H.H.H.H.H.H.H.H.H.H.H.H.H.H.H.H.H.H.e.u.x.d.Z p ; . H.H.",
"H.H.H.H.H.H.H.H.H.H.H.H.H.H.H.H.H.H.H.H.d e.h.x.f.A l 3 $ H.H.H.",
"H.H.H.H.H.H.H.H.H.H.H.H.H.H.H.H.H.H.H.H.e.u.x.z.a.z y > H.H.H.H.",
"H.H.H.H.H.H.H.H.H.H.H.H.H.H.H.H.H.H.d e.h.x.f.a.z y > + H.H.H.H.",
"H.H.H.H.H.H.H.H.H.H.H.H.H.H.H.H.H.H.w.u.x.z.a.b y > + H.H.H.H.H.",
"H.H.H.H.H.H.H.H.H.H.H.H.H.H.H.H.s w.h.x.f.a.b y : + H.H.H.H.H.H.",
"H.H.H.H.H.H.H.H.H.H.H.H.H.H.H.d w.u.x.z.a.m y > + H.H.H.H.H.H.H.",
"H.H.H.H.H.H.H.H.H.H.H.H.H.H.s w.h.x.f.a.m i > + H.H.H.H.H.H.H.H.",
"H.H.H.H.H.H.H.H.H.H.H.H.H.r x y.x.z.a.m i < +   H.H.H.H.H.H.H.H.",
"H.H.H.H.H.H.H.H.H.H.#.q * 2 B i.s.a.N p > + H.H.H.H.H.H.H.H.H.H.",
"H.H.H.H.H.H.H.H.H.#.#.w 6 e s B C M k r @   H.H.H.H.H.H.H.H.H.H.",
"H.H.H.H.H.H.H.#.#.#.#.+.q 7 , 2 h h t > + H.H.H.H.H.H.H.H.H.H.H.",
"H.H.H.H.H.H.@.4.6.7.q.0.9.g 5 % 1 1 > # H.H.H.H.H.H.H.H.H.H.H.H.",
"H.H.H.H.H.-.*.5.8.Z.F.G.j.r.a 4 # @ + H.H.H.H.H.H.H.H.H.H.H.H.H.",
"H.H.H.H.%.&.>.3.V.C.S.D.A.g.+.0 &   H.H.H.H.H.H.H.H.H.H.H.H.H.H.",
"H.H.H.H.$.&.n.m.n.2.<.<.1.;.O.8 H.H.H.H.H.H.H.H.H.H.H.H.H.H.H.H.",
"H.H.H.&.&.:.m.B.c.[ ` _ / ^ ! H.H.H.H.H.H.H.H.H.H.H.H.H.H.H.H.H.",
"$.%.&.=.,.v.N.M.b.o. .} E T H.H.H.H.H.H.H.H.H.H.H.H.H.H.H.H.H.H.",
"( ( ( ) ' [ X...] ` | { R U H.H.H.H.H.H.H.H.H.H.H.H.H.H.H.H.H.H.",
"~ ! ! Q Q W T L K K R R Y H.H.H.H.H.H.H.H.H.H.H.H.H.H.H.H.H.H.H.",
"! ! I P J G G F D S H H.H.H.H.H.H.H.H.H.H.H.H.H.H.H.H.H.H.H.H.H.",
"H.H.H.H.H.H.9 8 H.H.H.H.H.H.H.H.H.H.H.H.H.H.H.H.H.H.H.H.H.H.H.H.",
"H.H.H.H.H.H.H.H.H.H.H.H.H.H.H.H.H.H.H.H.H.H.H.H.H.H.H.H.H.H.H.H."
};
