/* XPM */
static char *palette[] = {
/* columns rows colors chars-per-pixel */
"32 32 249 2",
"   c #96CF5C471048",
".  c #9AEF5F8314DC",
"X  c #9C3760BB1666",
"o  c #9E4562F91993",
"O  c #A17165AE1E28",
"+  c #A448699C2320",
"@  c #A8836BBB2610",
"#  c #A7926D602922",
"$  c #AB2C6EB82A7B",
"%  c #AB3F70A52D5E",
"&  c #AE6F7574342D",
"*  c #B32176D83629",
"=  c #B4E67A163A9F",
"-  c #B86A7C7F3D7B",
";  c #B67F7EC441C4",
":  c #BBA47F3841D2",
">  c #F0635A3E5400",
",  c #F30E57985000",
"<  c #EE866BD15CD3",
"1  c #F13A67865055",
"2  c #F47F6E4F5289",
"3  c #F61C652E5C95",
"4  c #EC8875D95EDA",
"5  c #F6646EEE6C1D",
"6  c #EEC770B86031",
"7  c #F01279A968AA",
"8  c #F6D07D2A675D",
"9  c #F2DD72706C74",
"0  c #F4B77F2E760D",
"q  c #F7577CCB78CE",
"w  c #7FCEBB4E4224",
"e  c #7CBEAB535FF9",
"r  c #FE11A7D13893",
"t  c #FEDEAB293A48",
"y  c #FCD9B12A3909",
"u  c #FC0DC54C3AF0",
"i  c #FF06D6A836CD",
"p  c #FFC6D8FC3AF6",
"a  c #BB6081754511",
"s  c #BDE4856D4B1A",
"d  c #C03B892E50D5",
"f  c #8412B70C40B8",
"g  c #8538BB4A46DD",
"h  c #8C38B99D464C",
"j  c #8F46B77E4A80",
"k  c #97A3B6F54D1D",
"l  c #9B97B5D24DD5",
"z  c #9196B91A4A45",
"x  c #A263B1B64D82",
"c  c #B9E5AB09578A",
"v  c #A63CB26E52F6",
"b  c #ABFCB3DD52B7",
"n  c #A9FEB3675933",
"m  c #A1D7B8B25947",
"M  c #984298117FEE",
"N  c #BF5B918965D4",
"B  c #B42D95106EE5",
"V  c #BF9795A66CC9",
"C  c #A1DD95377718",
"Z  c #BAB699577355",
"A  c #80FCAB6C60AD",
"S  c #9342A74365DF",
"D  c #9F79A7F96878",
"F  c #B1A7A39B6A06",
"G  c #BF8DAACB755F",
"H  c #BAFDBEB973E1",
"J  c #C1CA8193461E",
"K  c #C0BA86394BF9",
"L  c #C3CB88DD4F9D",
"P  c #C86C883A4ED1",
"I  c #C5A18D30557C",
"U  c #CC5D8BD653E5",
"Y  c #C6AB8F445972",
"T  c #D0118EBC5883",
"R  c #D1688FD15A0F",
"E  c #C74591215BCE",
"W  c #CACD92675CAB",
"Q  c #D334919D5C95",
"!  c #F4D882434D88",
"~  c #F7089E9A4DE0",
"^  c #F911985548BB",
"/  c #F73E899F5397",
"(  c #E15A94B75D45",
")  c #C409B78A5ADF",
"_  c #D9EAB8C65EE6",
"`  c #FCD7A6EB4478",
"'  c #FCCCAC0541D2",
"]  c #F7E0AA404A72",
"[  c #FAC7AC7E4951",
"{  c #FDA1B0344A0B",
"}  c #F6FEBC984E80",
"|  c #FB0EA658530D",
" . c #F519AD7056DB",
".. c #F2F7AC0A59D4",
"X. c #FF6CB5B65580",
"o. c #FB6BBE07570B",
"O. c #FA8EB3B058E3",
"+. c #F304BD685D24",
"@. c #CC039588623D",
"#. c #CF20996D6718",
"$. c #CF6F9B5669EA",
"%. c #D7379791658F",
"&. c #D2CC990E65C9",
"*. c #DDB69C5061D4",
"=. c #D49D9D9B6CB6",
"-. c #D9E19C826C55",
";. c #C6759CF67142",
":. c #CD159EEF7693",
">. c #C4C19FC579F5",
",. c #D7F39F777148",
"<. c #DC5B9DE971EE",
"1. c #EC6D83A76841",
"2. c #E13597C2616E",
"3. c #E2F19A6865D0",
"4. c #EA0E90B86C8D",
"5. c #E4399E046B4D",
"6. c #F00D9D066CCB",
"7. c #EE4F8DBB73A5",
"8. c #F59584947AE4",
"9. c #F1E88E187C6A",
"0. c #C1E6AE5060E8",
"q. c #CEA7AF776E08",
"w. c #D58EA2146D9F",
"e. c #D197AD756D77",
"r. c #D147B16F6718",
"t. c #D58CA2E774A2",
"y. c #D90EA1B67437",
"u. c #D434B02D736C",
"i. c #DC9EAFB377B2",
"p. c #D7F2A7267A37",
"a. c #DBCEA6687A58",
"s. c #DAC9A92A7D6B",
"d. c #CF82B52D759C",
"f. c #E15EA16564A7",
"g. c #ED1DAC5D661C",
"h. c #E40BA0F06F26",
"j. c #E880A0736C52",
"k. c #E114B8FB653F",
"l. c #F025BE8B65DC",
"z. c #EC7AB36F6E8B",
"x. c #F437B51F619B",
"c. c #F422B3F96A0C",
"v. c #E4CCA3C6747A",
"b. c #E8D3A4DD7362",
"n. c #E60DAC717448",
"m. c #E4B5A73E7A61",
"M. c #E708AA577E01",
"N. c #E8F2A90B7D1C",
"B. c #EB41B2AE7433",
"V. c #F091B67B7A61",
"C. c #8B76C28F5201",
"Z. c #94EBC179544E",
"A. c #F410C90A44B0",
"S. c #FC79CE3243E9",
"D. c #F678C39F4EF4",
"F. c #F936C9E14C5A",
"G. c #FD84D4A34357",
"H. c #FF4ED8C64236",
"J. c #FC61D35B4A53",
"K. c #E5F4C0D65307",
"L. c #F4CCC41F5229",
"P. c #F694C9A9558F",
"I. c #FA4AD1A25384",
"U. c #FFB9DDB25476",
"Y. c #FE83DBF15A0B",
"T. c #F7E3D06D6261",
"R. c #FBDCD4AD6564",
"E. c #F1A8C09176F7",
"W. c #F65DCF4B7044",
"Q. c #F467CECA7D8A",
"!. c #3A959BF9AC8B",
"~. c #31449E34B41E",
"^. c #388F9DF2B149",
"/. c #45B19DE1936C",
"(. c #4C609E149177",
"). c #56F8969F97DA",
"_. c #5B5E9CE5901B",
"`. c #6E9F9E248B85",
"'. c #7C21949485FB",
"]. c #78C5959A891C",
"[. c #754B98E68EC9",
"{. c #65B497B19312",
"}. c #680597E692F1",
"|. c #7EBAA5E5A003",
" X c #4B3F9C1CA526",
".X c #40D09DB8AAEE",
"XX c #548A9D47A304",
"oX c #4574AA71BDCA",
"OX c #4E45AA98B90B",
"+X c #51A6AA35B731",
"@X c #6732A45FA755",
"#X c #735CA37AA0C8",
"$X c #87DA9C618405",
"%X c #929A9B2886D3",
"&X c #9DEDA8088ED6",
"*X c #A1C5A2F38D33",
"=X c #BB03A182816F",
"-X c #F79D8BA3821F",
";X c #EEF59B0A83A3",
":X c #F3069E258BAF",
">X c #CCF6A7178361",
",X c #DDFDAD10831B",
"<X c #DDCBB2328637",
"1X c #DEE9B2908B43",
"2X c #D5B6BFB88937",
"3X c #D62EBA2C9BB0",
"4X c #E681A55882ED",
"5X c #EC5AA6208528",
"6X c #E42DAD818473",
"7X c #E994AE0783C5",
"8X c #EF76A7078986",
"9X c #EAD3B3958793",
"0X c #EDDFBB058478",
"qX c #E3BCB3E48C11",
"wX c #EB42B5038C2F",
"eX c #E949BADD8A8B",
"rX c #F741B3D78A7E",
"tX c #E526B6E290E8",
"yX c #EB3FB55D91AB",
"uX c #E50CBA35948F",
"iX c #EBC5BB5693F0",
"pX c #EEFEB7D4986B",
"aX c #E735BDC69A33",
"sX c #EC59BE2E9B30",
"dX c #C60ABBA8A5D3",
"fX c #CC2FBD4DA5D5",
"gX c #F19CB84AA0F7",
"hX c #D600C077896D",
"jX c #DFB3C7919AC5",
"kX c #EC95C49B885E",
"lX c #F060CB6C8A97",
"zX c #F2CFCD488E37",
"xX c #F850D0C28DCE",
"cX c #E9D7C20497D7",
"vX c #EED1C8609303",
"bX c #E836C12F9E28",
"nX c #EB7AC2979DC1",
"mX c #F03FCD6F9EAE",
"MX c #F27EC6419721",
"NX c #F36DC89694D8",
"BX c #F1B4CDE69A10",
"VX c #EDA7C545A3AF",
"CX c #EB41CA04A6FB",
"ZX c #EFEBC831A897",
"AX c #EDFAC9EFAA29",
"SX c #F0F8C7B5A27C",
"DX c #F1B1CAC7ABCF",
"FX c #F1DBCEADB0F3",
"GX c None",
/* pixels */
"GXGXGXGXGXGXGXGXGXGXGXGXGXGXGXQ R T T U U U GXGXGXGXGXGXGXGXGXGX",
"GXGXGXGXGXGXGXGXGXGXGXGXGXGX,.y.y.y.,.=.=.&.@.GXGXGXGXGXGXGXGXGX",
"GXGXGXGXGXGXGXGXGXGXGX%.-.a.,XtXaXaXaXuXqXs.=.W P J GXGXGXGXGXGX",
"GXGXGXGXGXGXGXGXGXGX-.a.,XqXeXkXlXzXzXvXcXuX,Xt.#.W I GXGXGXGXGX",
"GXGXGXGXGXGXGXGXQ -.s.uXCXmXQ.T.I.J.I.W.BXAXCXaX1Xp.#.Y s GXGXGX",
"GXGXGXGXGXGXGX-.*.f.n.0XMXxXR.J.p i i I.zXDXDXZXnXtXs.#.K GXGXGX",
"GXGXGXGXGX-.a.n.g. .] [ O.o.S.H.U.U.p S.E.yXwXiXVXVXaXs.L * GXGX",
"GXGXGXGX-.a.qX0Xx.{ t t r y u G.Y.Y.G.A.k.u.q.d.hXjXCXtXW a GXGX",
"GXGXGX-.a.qXCXNXO.' X.X.t t } P.J.J.F.K.) n l k m H jXaXp.W a GX",
"GXGXGX-.6XyXgXrX| ` X.X.' ' x.l.L.D.+._ b j g w f m 2XsXqXw.a $ ",
"GXGXQ -.5X:X8.8 / ^ ` [ ] ..z.B.z.z.B.r.l g C.C.w k d.wXqXt.a $ ",
"GXGX&.<.;X-X5 3 2 ! ~  .c.V.0XwXwX9X7Xe.v z Z.Z.h x e.7XtXp.a @ ",
"GX=.,X4X9.q q 5 , 1 6.0XMXSXSXZXVXsXwXi.0.b l k x c w.M.yXs.a + ",
"T w.qXyX9.0 0 9 > < 5XnXVXbXuXuXaXsXiX<XG D A e S F w.N.yXs.; + ",
"T =.uXsX8X7.7 6 4 7.pXVX1Xt.@.@.t.,XiX3X&X`.(./._.$X;.b.yXs.; O ",
"U =.aXZXsX5X7.1.4.5XVXbXt.Y a : I =.iXfX|. X^.~.!.}.Z b.wXs.- O ",
"U =.aXFXDXVXyX5XN.9XVXuX@.a GXGX- E qXdX@X!.oXoX~.).B j.wXs.= o ",
"U &.qXVXVXVXnXiXeXiXZXuXW : GXGX= I qXdX#X X+XOX.X{.Z b.wXt.= o ",
"P W =.s.<XqXtXuXnXVXZXaX=.L = = s #.tX3X*X[.XXXX}.%X>X7X6X$.& X ",
"GXU W #.=.t.s.,X1XtXaXuX,X=.I I #.s.wXqX>.C '.].M =X1XqXp.E & . ",
"GXGXGXGXI I I I I @.p.qXtXtXqXqXqXqX7Xm.%.@.N V :.,XtX6X@.a $ GX",
"GXGXGXGXGXGXGX= * a E t.uXVXsXiXyX9Xv.3.( ( 3.5.N.7X6Xt.s & GXGX",
"GXGXGXGXGXGXGXGXGX= - E qXsX7Xv.h.5.2.( ( 3.N.9X9Xs.#.d & + GXGX",
"GXGXGXGXGXGXGXGXGXGX% s s.wXM.h.3.2.3.5.5.v.6X,Xt.@.s * + GXGXGX",
"GXGXGXGXGXGXGXGXGXGX$ a $.,XqX7Xv.v.7XwXwX6Xa.@.; % # GXGXGXGXGX",
"GXGXGXGXGXGXGXGXGXGXGX= I $.qXyXM.m.6XqX,Xt.E ; +   GXGXGXGXGXGX",
"GXGXGXGXGXGXGXGXGXGXGXGX& s p.qX6Xa.t.#.I ; & @ GXGXGXGXGXGXGXGX",
"GXGXGXGXGXGXGXGXGXGXGXGX+ * E =.=.@.Y s & @ o GXGXGXGXGXGXGXGXGX",
"GXGXGXGXGXGXGXGXGXGXGXGXGX# & * & & & % GXGXGXGXGXGXGXGXGXGXGXGX",
"GXGXGXGXGXGXGXGXGXGXGXGXGXGXo o X X GXGXGXGXGXGXGXGXGXGXGXGXGXGX",
"GXGXGXGXGXGXGXGXGXGXGXGXGXGXGXGXGXGXGXGXGXGXGXGXGXGXGXGXGXGXGXGX",
"GXGXGXGXGXGXGXGXGXGXGXGXGXGXGXGXGXGXGXGXGXGXGXGXGXGXGXGXGXGXGXGX"
};
