/* XPM */
static char *photo[] = {
/* columns rows colors chars-per-pixel */
"32 32 256 2",
"   c #778E6DC3499A",
".  c #76246C46548C",
"X  c #7D0B707654E9",
"o  c #8616570D1BAE",
"O  c #874E58331CCB",
"+  c #8B135AD71D99",
"@  c #90ED5E971E89",
"#  c #90085F0F203F",
"$  c #92355F712547",
"%  c #9492625E2611",
"&  c #9A5B66A9258E",
"*  c #9C6369B1273A",
"=  c #9636645928D1",
"-  c #94FB68D52BFF",
";  c #9D356B942B0C",
":  c #8C9473112CC3",
">  c #8668789C2898",
",  c #8A4479752E53",
"<  c #9F706AA1302A",
"1  c #8E137B3C306A",
"2  c #8084749B3298",
"3  c #92F67DFA329C",
"4  c #9E6878AB3A51",
"5  c #A2006EAC2AD4",
"6  c #A469718C2D94",
"7  c #AADD76282D95",
"8  c #AE9C79202F3D",
"9  c #A39B6ED53551",
"0  c #A589744331C9",
"q  c #AA13759632B4",
"w  c #A46E7A2535A7",
"e  c #ACAF7B3A342D",
"r  c #AE3176963C9A",
"t  c #A3227B6D3B15",
"y  c #ADC37AA03D75",
"u  c #A1F276FB3C53",
"i  c #B3B97DDF336E",
"p  c #B27A7C873DE5",
"a  c #8B0775934C05",
"s  c #A63E7DCF41DD",
"d  c #B3977CDD41C5",
"f  c #29E1BD793A56",
"g  c #3655BF453B46",
"h  c #68AFD1D63A7A",
"j  c #2975BAA5429A",
"k  c #306DBE0842C0",
"l  c #2CD2BE4B527C",
"z  c #346EBD7A5A9F",
"x  c #4026BF68562A",
"c  c #7222B7635F72",
"v  c #7A2CBAB159EC",
"b  c #5BECB2E27666",
"n  c #6F12AE4F6068",
"m  c #7560B92A6180",
"M  c #74EEBA766776",
"N  c #327DC06742CC",
"B  c #33A9C2245BD4",
"V  c #41E6C2AE48C4",
"C  c #4ACCC69D4A97",
"Z  c #500FC7194423",
"A  c #528EC8874572",
"S  c #57C9CA3649F2",
"D  c #5B7CCB9B47B5",
"F  c #4179C45F53A6",
"G  c #4ADAC5C35960",
"H  c #5832C7185C60",
"J  c #5C5ECD535E08",
"K  c #6C53D1F24C0C",
"L  c #737AD4D053F9",
"P  c #7B1FD745545C",
"I  c #7C74D92559A0",
"U  c #756AD4135D85",
"Y  c #5683CA96680D",
"T  c #5AA6CD196D81",
"R  c #5184C8AF65BA",
"E  c #4A37C969723C",
"W  c #50D9C1B37199",
"Q  c #6FA7CF206DAA",
"!  c #7447D26E66D5",
"~  c #67D3CCA877A2",
"^  c #6AE4CC6D73C1",
"/  c #66EBCCB7785B",
"(  c #96FC81353498",
")  c #9F1A88EC3AFD",
"_  c #9AE184DB372D",
"`  c #AE3D83033ACF",
"'  c #A4568AE43C9C",
"]  c #ABE38CD73D9F",
"[  c #B46D81653645",
"{  c #BAB2833A3528",
"}  c #B59583153A09",
"|  c #BB0E86783ACD",
" . c #BDA98A5C3C9D",
".. c #A4C591993C56",
"X. c #A98B92653E9B",
"o. c #C1D78DD63DCD",
"O. c #C4CD91623E6C",
"+. c #9FD990484109",
"@. c #9CA3923849E6",
"#. c #9D93922F5355",
"$. c #AB1D826F469E",
"%. c #B628841F4278",
"&. c #B9DA868F43BE",
"*. c #B56F8C54432A",
"=. c #BB628B2A44F7",
"-. c #BA1C808F47F0",
";. c #BE638F8C4967",
":. c #A2F692B64367",
">. c #BE2192194908",
",. c #A4EF8AC9578D",
"<. c #B8EA8BFB5266",
"1. c #B07992D35D6F",
"2. c #BF0E96755A27",
"3. c #907BA6EB48C9",
"4. c #846CBD934298",
"5. c #A5FFB5745902",
"6. c #9ED98AD06205",
"7. c #A3E78E78637A",
"8. c #A6FE920463B1",
"9. c #A9E1930E66C1",
"0. c #AAED94176869",
"q. c #BCB2B6116DE8",
"w. c #C1D28F603FCD",
"e. c #C0D78F4749B2",
"r. c #C23C901C4011",
"t. c #C7959931468A",
"y. c #C33795404B9C",
"u. c #C6FD9A544D5E",
"i. c #C9EA9DAF4E67",
"p. c #C701998351B9",
"a. c #CA499EBA5154",
"s. c #C1B497375AE4",
"d. c #CF92A4DA4FAF",
"f. c #CDC0A40951FF",
"g. c #D03CA9125546",
"h. c #D0A2A76E51F7",
"j. c #D127AA585547",
"k. c #D366AF405A07",
"l. c #D939B9D55A45",
"z. c #CDC6B39B61C1",
"x. c #CE43B85E6D7E",
"c. c #D20EB5E4680B",
"v. c #CAFFB1D57AC8",
"b. c #CFD1BA897339",
"n. c #D287BBA17463",
"m. c #8E5AC0F54F8D",
"M. c #8B8EC2055110",
"N. c #93EDC1AF57CC",
"B. c #968EC0E25943",
"V. c #9A03C2BE5CA0",
"C. c #98EEC8485404",
"Z. c #869FDF075282",
"A. c #888DDF1B5690",
"S. c #88B5DC495B5C",
"D. c #846AE13450A7",
"F. c #9E6BC6036142",
"G. c #9213DF0F6B28",
"H. c #90B8DF0063C6",
"J. c #A1C5CA1464A1",
"K. c #A056C6FF6397",
"L. c #8FB8E0ED603B",
"P. c #9355E4086369",
"I. c #9759E48369F3",
"U. c #9D2AE5657305",
"Y. c #9CE7E88C732B",
"T. c #A046E6C976C7",
"R. c #A2DFE6D17999",
"E. c #E047C42E6621",
"W. c #C7A0C0527890",
"Q. c #D9DDD5EE7ACF",
"!. c #E44CC86068B4",
"~. c #EF48DE2E6F1F",
"^. c #E572CB2975AF",
"/. c #E4C0CA2474EC",
"(. c #EA25DCDB707D",
"). c #F08BDF7372F9",
"_. c #EC80E06F7B37",
"`. c #F801E44678C5",
"'. c #FF13E6E17399",
"]. c #2EE9BF72803B",
"[. c #38E5BF8C8861",
"{. c #461FBD5B87EF",
"}. c #50C8BE718F00",
"|. c #5E73B25C944F",
" X c #50D096BBA7AE",
".X c #4E89BF71A1CA",
"XX c #5464BB0EB281",
"oX c #78B0B6CFBF27",
"OX c #3632C29588E1",
"+X c #3E2FC278B49D",
"@X c #47D6C14787E1",
"#X c #5F4FC61D80DB",
"$X c #5701C25C8FF6",
"%X c #5D0BC1599DB7",
"&X c #5145C412A3DA",
"*X c #4CADC343C009",
"=X c #6160C203B8C6",
"-X c #3E94AD74D6B8",
";X c #3547A43AFFFF",
":X c #3ACAA646FCAD",
">X c #49BF9000C925",
",X c #5C319B12C942",
"<X c #432DAF15CDFB",
"1X c #4813B223C4C4",
"2X c #5D80BEEACB47",
"3X c #5544B8DFCD33",
"4X c #5D5FBC1CDCDF",
"5X c #7DB5B1ACCF54",
"6X c #48FAAFD4E4AE",
"7X c #5EFABB92E78A",
"8X c #3FD8A97FF47D",
"9X c #4DEBB216FFFF",
"0X c #533FB30EFE77",
"qX c #5844B63EF8BE",
"wX c #5D4BB9A1F0C5",
"eX c #67A8BF84F038",
"rX c #7345BDF6EA02",
"tX c #6602BCCAFF48",
"yX c #6954BEC7FE19",
"uX c #6C0DBCE3F6A6",
"iX c #62FDC5F7C675",
"pX c #611BC1B8D45F",
"aX c #6485C7CBDB76",
"sX c #655AC56EEF03",
"dX c #6190C912EFA9",
"fX c #6C4EC4F4ED36",
"gX c #70E9C933EFB6",
"hX c #7AEAC263E79C",
"jX c #6D33C3DAFFDC",
"kX c #6EA6C924F94B",
"lX c #7489C112F4EB",
"zX c #70ADC76BFE66",
"xX c #71F3C8F5FF1E",
"cX c #83DEA858AC08",
"vX c #94EEABD3AC13",
"bX c #95E8B64EB1F1",
"nX c #CF36BA5788D9",
"mX c #D1F8BB7D8A4B",
"MX c #B899CD7C9CA0",
"NX c #A80EC996A966",
"BX c #AEA4CED2AEB3",
"VX c #D2BBC120842A",
"CX c #D316D5908388",
"ZX c #D65AC755923D",
"AX c #C368D43D9828",
"SX c #F903E64C80B0",
"DX c #FFBBEC628B92",
"FX c #FF30EA8A84AA",
"GX c #832EB4CFCE70",
"HX c #870BB781D234",
"JX c #86FEB8D7D4D9",
"KX c #9902C80FC5B9",
"LX c #990CC69CC1EB",
"PX c #8731C752DFEB",
"IX c #8402C626E380",
"UX c None",
/* pixels */
"UXUXUXUXUXUXUXUXUXUXUXUXUXUXUXUXUXUXUXUXUXUXUXUXUXUXUXUXUXUXUXUX",
"UXUXUXUXUXUXUXUXUXUXUXUXUXUXUXUXUXUXUXUXUXUXUXUXUXUXUXUXUXUXUXUX",
"{ { { { { { { { { { { { { { { { i i i i i 8 8 7 7 6 6 5 5 ; ; * ",
"{ | o.r.w.o.o.o.o.o.o.w.w.o.o. . . . .| | } } [ [ i e e e 0 ; * ",
"{ o.i.g.g.f.f.f.f.f.f.f.f.f.f.f.f.f.a.a.i.u.u.y.y.y.y.y.y.%.6 & ",
"{ r.g.k.k.j.h.f.d.d.f.f.f.f.f.f.i.i.i.u.u.y.y.y.>.y.y.p.a.;.0 & ",
"{ o.g.k.f.t.O.o.o.o.o.o.o. . .| | { { [ i e e e q e } =.y.=.6 % ",
"{ o.f.j.t.>.1.0.0.9.9.8.8.7.7.7.7.6.6.,.*. .=.*.*.} e p ;.=.6 % ",
"{ o.f.f.O.1.vXJXHXHXGXGXGXGXGXGXGX5X5XbXW.!./.^.^.z.` 0 =.&.; % ",
"{ o.f.d.o.8.oXdXdXsXkXxXxXzXzXjXjXjXjXPXAX_.SXDXDX/.` 5 &.&.; # ",
"{ o.f.f.o.#.|.+X+X*XaXgXzXjXjXjXjXjXjXIXBXCX).'.FX/.` ; &.%.; + ",
"{ o.f.f.o.@.b OX].[.&XiXfXjXjXjXjXjXjXhXKXMXQ.~.`.E.` ; %.%.; + ",
"{ o.f.f.o.:.M E B l z @XpXjXjXjXyXyXyXlXIXLXMXCX(.l.e ; %.%.; + ",
"{ o.f.f.o.:.m T F N f z .XpXsXyXyXtXtXyXlXPXLXNXAXq.4 ; %.%.- + ",
"{ o.f.a.o.:.m T Y G k j z {.2XeXtXtXtXtXyXuXrXrXhXcXa * %.%.= O ",
"{ o.f.a. .:.m T Y G V g g x $X=X2X4X7XwXqX0X0X9X9X,XX & p d = O ",
"{  .a.i.| +.c R F V S D A Z S H W }.XX3X6X8X:X;X;X>X. & p d = o ",
"{  .i.u.| ..v J C A L I L K h h D H #X%XXX1X<X-X-X X  & p p = o ",
"i  .u.u.| ..M.I L P G.U.G.G.H.S.P L U ! Q ^ ^ ~ / n 2 = p y % o ",
"i | u.y.} ..C.P.P.P.U.R.R.R.R.U.L.A.A.A.Z.Z.Z.D.D.4.> % r y % o ",
"i | u.y.i X.J.Y.Y.U.T.T.T.U.U.U.I.I.I.P.P.P.P.P.P.m., $ r r % o ",
"i | y.y.} ] 5.J.J.K.F.F.V.V.V.V.V.V.B.B.B.B.N.N.N.3.: = r r % o ",
"i } y.y.| ` ' ' ' ) ) _ _ ( ( 3 3 3 3 1 1 1 1 , , : - < d r % o ",
"8 } y.u.;.} i q q q 6 q $.$.y w w t s u ; = % % $ = < r d r % o ",
"8 [ y.p.y.e.=.=.&.&.&.s.mXZXn.z.z.x.VXv.<.r r r r r p d -.r % o ",
"7 i =.;.=.=.=.&.&.%.%.2.nXZXb.z.z.x.VXv.<.r r r r r r r r 9 $ o ",
"7 7 e e e q q 0 0 6 5 0 s $.t w w t t 4 - % % % % % % % % $ + O ",
"7 7 6 5 5 ; * * & & % % @ + + + + O o o o o o o o o o o o o O O ",
"UXUXUXUXUXUXUXUXUXUXUXUXUXUXUXUXUXUXUXUXUXUXUXUXUXUXUXUXUXUXUXUX",
"UXUXUXUXUXUXUXUXUXUXUXUXUXUXUXUXUXUXUXUXUXUXUXUXUXUXUXUXUXUXUXUX",
"UXUXUXUXUXUXUXUXUXUXUXUXUXUXUXUXUXUXUXUXUXUXUXUXUXUXUXUXUXUXUXUX",
"UXUXUXUXUXUXUXUXUXUXUXUXUXUXUXUXUXUXUXUXUXUXUXUXUXUXUXUXUXUXUXUX"
};
