/* XPM */
static char * shape_triangle_add_xpm[] = {
"32 32 118 2",
"  	c None",
". 	c #7DA5E1",
"+ 	c #8CB3E6",
"@ 	c #7FA8E3",
"# 	c #76A0DE",
"$ 	c #9DBCE9",
"% 	c #94B4E6",
"& 	c #99B9E8",
"* 	c #739BDD",
"= 	c #98B7E7",
"- 	c #8DADE4",
"; 	c #7CA2DF",
"> 	c #7097DD",
", 	c #789EDE",
"' 	c #6E98DC",
") 	c #84ACE4",
"! 	c #6B94DA",
"~ 	c #83A6E2",
"{ 	c #90AFE5",
"] 	c #6690D8",
"^ 	c #638DD9",
"/ 	c #8BABD9",
"( 	c #89AACF",
"_ 	c #84A6C3",
": 	c #83A5BE",
"< 	c #7A9EBA",
"[ 	c #6C92B4",
"} 	c #6089B0",
"| 	c #7FA1A4",
"1 	c #789C8A",
"2 	c #759B7A",
"3 	c #6F9573",
"4 	c #688F6E",
"5 	c #5F886C",
"6 	c #588363",
"7 	c #507D49",
"8 	c #80A49F",
"9 	c #7EA283",
"0 	c #7FA371",
"a 	c #7FA366",
"b 	c #789E5F",
"c 	c #6D9652",
"d 	c #618E47",
"e 	c #528333",
"f 	c #8AAAD7",
"g 	c #7EA29C",
"h 	c #7EA57C",
"i 	c #87AE72",
"j 	c #9BBE7F",
"k 	c #A9CA8C",
"l 	c #B2CF99",
"m 	c #8FB770",
"n 	c #76A553",
"o 	c #5F9438",
"p 	c #4E812D",
"q 	c #41771F",
"r 	c #85A6CC",
"s 	c #789B9C",
"t 	c #85AD6E",
"u 	c #94BB73",
"v 	c #A9CE86",
"w 	c #C0DDA4",
"x 	c #D6EAC4",
"y 	c #CCE3B7",
"z 	c #A3CA83",
"A 	c #83B459",
"B 	c #6CA142",
"C 	c #5B9033",
"D 	c #447921",
"E 	c #356917",
"F 	c #6C927B",
"G 	c #739B62",
"H 	c #95BA78",
"I 	c #AED38C",
"J 	c #C4E0AA",
"K 	c #E8F4DD",
"L 	c #DEECD1",
"M 	c #87B85E",
"N 	c #6FA048",
"O 	c #4A7D29",
"P 	c #346816",
"Q 	c #638C66",
"R 	c #9DC57A",
"S 	c #BAD99C",
"T 	c #C2DFA8",
"U 	c #F4FAEF",
"V 	c #ECF4E6",
"W 	c #C0DAAA",
"X 	c #80AD5C",
"Y 	c #799DB6",
"Z 	c #5B865D",
"` 	c #679249",
" .	c #C7DFB0",
"..	c #E3F0D7",
"+.	c #F5FAF1",
"@.	c #FBFDFA",
"#.	c #EEF5E8",
"$.	c #D8E9CA",
"%.	c #BCD9A3",
"&.	c #8DB46D",
"*.	c #80A3DF",
"=.	c #527F55",
"-.	c #5D8B3F",
";.	c #5D87AB",
">.	c #46764E",
",.	c #9BC577",
"'.	c #618BD6",
").	c #5F89DA",
"!.	c #527FA3",
"~.	c #3F7045",
"{.	c #6E9F46",
"].	c #7FB254",
"^.	c #80B256",
"/.	c #3A6C2E",
"(.	c #588E2F",
"_.	c #6AA03F",
":.	c #3F751C",
"<.	c #498121",
"                                                                ",
"                                                                ",
"                                                                ",
"                                                                ",
"                                                      .         ",
"                                                    . .         ",
"                                                  + @ #         ",
"                                                $ % @ #         ",
"                                              & & + . *         ",
"                                            & = = - ; *         ",
"                                          = = = % - ; >         ",
"                                        = = % % % - , '         ",
"                                      = % % % % % ) , !         ",
"                                    = % % % % % % ) * !         ",
"                                  % % % % % % % % ~ * !         ",
"                                % % % % % % { { { ~ > ]         ",
"                              % % % % % { { - - - ~ > ^         ",
"                            % % % % { - / ( _ _ : < [ }         ",
"                          % % % % { - / : | 1 2 3 4 5 6 7       ",
"                        % % % % - - / _ 8 9 0 a a b c d e       ",
"                      % % { - - - f : g h i j k l k m n o p q   ",
"                    % % { - - - - r s 2 t u v w x y z A B C D E ",
"                  % { - - - - - - _ F G H v I J K L v M A N O P ",
"                % { - - - - - - - < Q c R S T x U V W z R X p P ",
"              % { - - - - - - - - Y Z ` j  ...+.@.@.#.$.%.&.e P ",
"            ; ~ ~ ~ ~ *.*.; ; . . [ =.-.u %.$.V @.@.#.$.%.&.e P ",
"          ' > > > ' ! ! ! ! ! ! ! ;.>.e X ,.z %.V V W z R X p P ",
"        ! ! ] ] ] ^ ^ ^ '.'.'.'.).!.~.O {.].A z $.$.z A ^.N O P ",
"                                    /.D (._.^.,.%.%.,.^.B (.D E ",
"                                      :.<.(.{.X &.&.X {.(.<.:.  ",
"                                        :.D O p e e p O D :.    ",
"                                          E P P P P P P E       "};
