/* XPM */
static char * shape_triangle_delete_xpm[] = {
"32 32 145 2",
"  	c None",
". 	c #7DA5E1",
"+ 	c #8CB2E6",
"@ 	c #7FA8E3",
"# 	c #76A0DE",
"$ 	c #9DBCE9",
"% 	c #94B4E6",
"& 	c #99B9E8",
"* 	c #739BDD",
"= 	c #98B7E7",
"- 	c #8CADE4",
"; 	c #7CA2DF",
"> 	c #7097DB",
", 	c #789EDE",
"' 	c #6E98DC",
") 	c #85ABE4",
"! 	c #6B94DA",
"~ 	c #82A6E2",
"{ 	c #8DB0E8",
"] 	c #6691DB",
"^ 	c #8CAFE8",
"/ 	c #90AFE3",
"( 	c #92A7D5",
"_ 	c #95A1C7",
": 	c #969ABA",
"< 	c #9795B1",
"[ 	c #9591AD",
"} 	c #8E8BAA",
"| 	c #7E81AA",
"1 	c #787CA5",
"2 	c #9B97B1",
"3 	c #A2848A",
"4 	c #AB7364",
"5 	c #AF6549",
"6 	c #AD5A3A",
"7 	c #A95739",
"8 	c #A05A43",
"9 	c #9E5840",
"0 	c #AA4E22",
"a 	c #8FACDF",
"b 	c #9A9BB8",
"c 	c #A98788",
"d 	c #B77962",
"e 	c #C47148",
"f 	c #CC6B37",
"g 	c #CD6630",
"h 	c #CB622A",
"i 	c #C5632D",
"j 	c #C35F28",
"k 	c #C2581A",
"l 	c #BB7A5D",
"m 	c #CE7E52",
"n 	c #E19467",
"o 	c #EDA67D",
"p 	c #EFAF89",
"q 	c #EDAC83",
"r 	c #E89B69",
"s 	c #DF874F",
"t 	c #D07034",
"u 	c #C66021",
"v 	c #929EC6",
"w 	c #B57761",
"x 	c #E38D58",
"y 	c #F3A372",
"z 	c #FEB484",
"A 	c #FFBD8E",
"B 	c #FFBA85",
"C 	c #FEA96C",
"D 	c #F09552",
"E 	c #DD7E3C",
"F 	c #CF6B2C",
"G 	c #C55412",
"H 	c #B84100",
"I 	c #9296B8",
"J 	c #A56E60",
"K 	c #BF6C44",
"L 	c #DF9267",
"M 	c #FB9D63",
"N 	c #FF9650",
"O 	c #FF903E",
"P 	c #FD8C33",
"Q 	c #EB863A",
"R 	c #DA7631",
"S 	c #A96045",
"T 	c #C76532",
"U 	c #EBA276",
"V 	c #FDBC94",
"W 	c #FE9E53",
"X 	c #FF9C4D",
"Y 	c #FFA255",
"Z 	c #F39140",
"` 	c #E1772A",
" .	c #938EAA",
"..	c #FFD4B9",
"+.	c #FFE5D2",
"@.	c #FEE3CB",
"#.	c #FCCEA5",
"$.	c #F49C4C",
"%.	c #E27016",
"&.	c #C85008",
"*.	c #B94203",
"=.	c #80A3DF",
"-.	c #8A87A8",
";.	c #FFCEAC",
">.	c #FFDDC3",
",.	c #F9C99B",
"'.	c #F1943E",
").	c #E0690A",
"!.	c #C44D03",
"~.	c #E8925D",
"{.	c #FCAA71",
"].	c #FFA45D",
"^.	c #FA9A43",
"/.	c #F59A42",
"(.	c #F08F33",
"_.	c #EC7915",
":.	c #DC6302",
"<.	c #648ED8",
"[.	c #618BD6",
"}.	c #5D89D9",
"|.	c #7377A2",
"1.	c #DE8045",
"2.	c #EF8B45",
"3.	c #F78025",
"4.	c #F9790E",
"5.	c #F57402",
"6.	c #ED7200",
"7.	c #E66B00",
"8.	c #D15B02",
"9.	c #B0572D",
"0.	c #C45E23",
"a.	c #DA732E",
"b.	c #E77722",
"c.	c #EF7806",
"d.	c #CE5802",
"e.	c #C55004",
"f.	c #BC4903",
"g.	c #CD6320",
"h.	c #D7691C",
"i.	c #DD6C15",
"j.	c #DE6C09",
"k.	c #DD6803",
"l.	c #D86001",
"m.	c #C5520B",
"n.	c #BF4F12",
"                                                                ",
"                                                                ",
"                                                                ",
"                                                                ",
"                                                      .         ",
"                                                    . .         ",
"                                                  + @ #         ",
"                                                $ % @ #         ",
"                                              & & + . *         ",
"                                            & = = - ; *         ",
"                                          = = = % - ; >         ",
"                                        = = % % % - , '         ",
"                                      = % % % % % ) , !         ",
"                                    = % % % % % % ) * !         ",
"                                  % % % % % % % % ~ * !         ",
"                                % % % % % % { { { ~ > ]         ",
"                              % % % % % % { { { ^ ~ ' ]         ",
"                            % % % % % / ( _ : < [ } | 1         ",
"                          % % % % + ^ ( 2 3 4 5 6 7 8 9 0       ",
"                        % % % % - a ( b c d e f g h i j k       ",
"                      % % / - - - ( 2 c l m n o p q r s t u     ",
"                    % % / - - - - v 3 w m x y z A B C D E F G H ",
"                  % / - - - - - - I J K L y M N O P P P Q R G H ",
"                % / - - - - - - ) [ S T U V z C W X Y W Z ` G H ",
"              % / - - - - - - ) )  .6 h o ..+.+.@.@.+.#.$.%.&.*.",
"            ; ~ ~ ~ ~ =.=.; ; . . -.7 h U ;.>.@.@.@.@.,.'.).!.*.",
"          ! > > > ' ! ! ! ! ! ] ] 1 9 j ~.{.].X ^.^./.(._.:.!.*.",
"        ! ! ] ] ] <.<.<.[.[.[.}.}.|.9 j 1.2.3.4.5.5.6.7.:.8.!.*.",
"                                    9.0.F a.b._.c.6.7.:.d.e.f.*.",
"                                        0.g.h.i.j.k.l.d.!.f.    ",
"                                          k m.&.e.!.!.!.f.      ",
"                                          n.*.*.*.*.*.*.*.      "};
