/* XPM */
static char *shape_square_go[] = {
/* columns rows colors chars-per-pixel */
"32 32 124 2",
"   c #1BD17A270074",
".  c #1F727BDA0F80",
"X  c #22767E2400C8",
"o  c #24687F120CA0",
"O  c #261D806A0269",
"+  c #2C8E83F90CDA",
"@  c #327185D30386",
"#  c #316786E90C95",
"$  c #355388EE0B94",
"%  c #39318A3A0CBA",
"&  c #2C6183C6101E",
"*  c #2E7984B71A87",
"=  c #3DA78CBC11D6",
"-  c #43388EBA1564",
";  c #4A89936319EA",
":  c #40538F2E22EA",
">  c #417F8FEB2C6B",
",  c #441591E622CD",
"<  c #4A5D94C023C3",
"1  c #45A092812A8A",
"2  c #48A6943B2CF6",
"3  c #56069A28243C",
"4  c #547C99F22C74",
"5  c #584A9B892CEC",
"6  c #5BB09D7E335A",
"7  c #6565A2723538",
"8  c #6970A351338E",
"9  c #6038A1563DEA",
"0  c #6885A42B38EC",
"q  c #707DA6A53878",
"w  c #4B278E09439E",
"e  c #52C393C7424A",
"r  c #559D953F4E34",
"t  c #5A7E97D14C62",
"y  c #62639F7340B7",
"u  c #64219DB9539E",
"i  c #5F9EA24041D7",
"p  c #63C6A3DF4513",
"a  c #6F9EA7F54062",
"s  c #61E1A31E48BC",
"d  c #6909A1BF4E9E",
"f  c #6CE4A84648D0",
"g  c #74CEAA854526",
"h  c #78B0AB5E43DC",
"j  c #721EA81B4E84",
"k  c #74B6AB184C96",
"l  c #7A7FAD3649C3",
"z  c #6D05A2E1558B",
"x  c #6D6EA2CD5A83",
"c  c #7000A5185328",
"v  c #7A08AEE552EE",
"b  c #7311A5E95DD3",
"n  c #7957AFB35B4E",
"m  c #641B995274BA",
"M  c #728AA5B561E6",
"N  c #7701A8676198",
"B  c #7E3DB3A964E3",
"V  c #77E9A6F47C51",
"C  c #82A8B3C95C47",
"Z  c #8300B57465EC",
"A  c #8690B7CF6BB7",
"S  c #8A06B9446D48",
"D  c #91A1BC246CB9",
"F  c #8D9BBBE173D3",
"G  c #8FEABDC67827",
"H  c #92B3BDC6756A",
"J  c #937BBF487A57",
"K  c #97D8C1DE7EE4",
"L  c #9B0AC26D7BD8",
"P  c #A077C4C57E99",
"I  c #5C2E9139870B",
"U  c #7F20ABFA8573",
"Y  c #7B4BA7A6928B",
"T  c #7DCBA88499D8",
"R  c #5D078DF2A7D3",
"E  c #5EE89017AC9B",
"W  c #671095FBAE9C",
"Q  c #66299270B8CD",
"!  c #76CFA15AB284",
"~  c #7ACFA295BE8D",
"^  c #657A8EA1DC10",
"/  c #6F3396EAD2A6",
"(  c #662790A7D8FF",
")  c #6BC494C4DB96",
"_  c #6ED798BBDC7C",
"`  c #703097FDDBA3",
"'  c #73F49C17DDCA",
"]  c #782E9EEADED5",
"[  c #76A6A0A7DE87",
"{  c #7BC3A262DFCB",
"}  c #7DADA59BE18C",
"|  c #7F5BA897E33A",
" . c #82C9A9C2B69C",
".. c #86E3AC8EB9D8",
"X. c #8987AF01BB08",
"o. c #8C34B112BC44",
"O. c #9D52C43F82C2",
"+. c #A0B6C5DA878C",
"@. c #A2C5C7D18921",
"#. c #A5B0C8E48C19",
"$. c #AB13CC0591FB",
"%. c #B0E5CF5A9817",
"&. c #89BEAE3BC362",
"*. c #8E6EB246C76B",
"=. c #8FE5B100DB31",
"-. c #93F6B4F3DCB8",
";. c #8321A631E30A",
":. c #84D3AC17E438",
">. c #8B7EADB6E468",
",. c #90C3AF58E6AA",
"<. c #91C3B00EE878",
"1. c #87EDB177E5B7",
"2. c #8C6FB31CE683",
"3. c #9486B54FE6F5",
"4. c #98AAB7A1E78F",
"5. c #99FBB912E806",
"6. c #95F4B4A9E9E2",
"7. c #987DB728E9A2",
"8. c #97F5B8E4E899",
"9. c #9CECBC48E977",
"0. c #A106BF69EAE4",
"q. c #9FDAC0BAEAE9",
"w. c #A3ADC22CEBBC",
"e. c None",
/* pixels */
"e.e.e.e.e.e.e.e.e.e.e.e.e.e.e.e.e.e.e.e.e.e.e.e.e.e.e.e.e.e.e.e.",
"e.e.e.e.e.e.e.e.e.e.e.e.e.e.e.e.e.e.e.e.e.e.e.e.e.e.e.e.e.e.e.e.",
"e.e.e.e.e.e.e.e.e.e.e.e.e.e.e.e.e.e.e.e.e.e.e.e.e.e.e.e.e.e.e.e.",
"e.e.e.e.e.e.e.e.e.e.e.e.e.e.e.e.e.e.e.e.e.e.e.e.e.e.e.e.e.e.e.e.",
"e.e.e.e.2.2.2.2.2.2.2.1.1.1.:.:.:.:.:.:.:.:.;.| | } } } e.e.e.e.",
"e.e.e.e.2.2.3.3.3.3.3.3.2.2.2.2.2.2.2.2.>.>.>.:.:.:.} } e.e.e.e.",
"e.e.e.e.2.3.9.w.q.9.9.9.9.9.9.9.9.5.5.8.8.8.8.3.3.2.| { e.e.e.e.",
"e.e.e.e.2.3.w.w.w.w.w.w.w.w.w.w.0.0.9.9.9.9.9.9.9.3.| [ e.e.e.e.",
"e.e.e.e.1.3.9.w.w.w.w.w.w.w.0.0.9.9.9.9.9.9.5.5.5.2.} ' e.e.e.e.",
"e.e.e.e.1.2.9.w.w.w.w.0.0.0.0.9.9.9.9.9.5.5.5.4.4.>.{ ' e.e.e.e.",
"e.e.e.e.:.2.9.w.w.w.0.0.9.9.9.9.9.9.5.5.5.4.4.4.3.>.{ ` e.e.e.e.",
"e.e.e.e.:.2.9.w.w.0.0.9.9.9.9.9.5.5.5.4.7.7.6.6.3.>.] _ e.e.e.e.",
"e.e.e.e.:.2.9.w.0.9.9.9.9.9.9.5.5.4.4.4.6.6.6.6.3.>.] ) e.e.e.e.",
"e.e.e.e.:.2.5.0.9.9.9.9.9.5.5.5.4.4.4.-.*.X.X.&.=.:.' ) e.e.e.e.",
"e.e.e.e.:.>.8.9.9.9.9.5.5.5.4.4.3.6.6.*.U b b V &.:.' ) e.e.e.e.",
"e.e.e.e.;.:.8.9.9.5.5.5.7.7.7.6.6.6.6.X.M 8 8 c Y ~ / ( e.e.e.e.",
"e.e.e.e.| :.3.9.5.5.4.4.7.7.6.6.6.6.6.X.M 0 g k d m Q ^ e.e.e.e.",
"e.e.e.e.} :.3.5.5.4.4.-.*.o.X.X.......T x g C C 0 t I R e.e.e.e.",
"e.e.e.e.} ;.3.5.4.7.6.*.U N b b b x x z j C L H v y e w e.e.e.e.",
"e.e.e.e.} ;.3.4.3.6.6.X.N q h l l g g k C D O.O.S k 5 ; e.e.e.e.",
"e.e.e.e.] } >.3.3.3.6.X.b h D P L L L L O.O.K K K S f 4 = @ e.e.",
"e.e.e.e.' { >.3.3.3.6...b l L %.$.#.#.@.@.O.H F K J Z p < = e.e.",
"e.e.e.e.' { >.3.3.3.<. .x g L $.O.J H H F S Z Z S F G Z p < # X ",
"e.e.e.e.` { >.3.3.,.<. .x g L $.O.H H F F S Z Z A F G B i , + X ",
"e.e.e.e._ ] >.3.,.>.>. .u a L $.#.+.O.O.O.J S A G F B p , + O e.",
"e.e.e.e._ ' { ;.;.;.;.! u 7 C H F S S S F F F F F B s 2 &   e.e.",
"e.e.e.e.) ) ` ` ` _ _ W t 3 6 6 6 6 4 6 p n F F B s > * o e.e.e.",
"e.e.e.e.) ) ( ( ( ^ ^ E r ; ; - - = % = < 9 B B p 1 * . e.e.e.e.",
"e.e.e.e.e.e.e.e.e.e.e.e.e.e.e.e.e.e.e.e.$ , p p : + o e.e.e.e.e.",
"e.e.e.e.e.e.e.e.e.e.e.e.e.e.e.e.e.e.e.e.O # , 1 &   e.e.e.e.e.e.",
"e.e.e.e.e.e.e.e.e.e.e.e.e.e.e.e.e.e.e.e.X X + & e.e.e.e.e.e.e.e.",
"e.e.e.e.e.e.e.e.e.e.e.e.e.e.e.e.e.e.e.e.X X     e.e.e.e.e.e.e.e."
};
