/* XPM */
static char * shape_triangle_go_xpm[] = {
"32 32 118 2",
"  	c None",
". 	c #7DA5E1",
"+ 	c #8CB3E6",
"@ 	c #7FA8E3",
"# 	c #7BA2DF",
"$ 	c #9CBCE9",
"% 	c #94B5E6",
"& 	c #76A0DE",
"* 	c #99B9E8",
"= 	c #739CDD",
"- 	c #98B7E7",
"; 	c #8BADE4",
"> 	c #7097DB",
", 	c #98B7E9",
"' 	c #95B4E9",
") 	c #789EDE",
"! 	c #6E98DC",
"~ 	c #6B94DB",
"{ 	c #93B4DC",
"] 	c #8EB2C7",
"^ 	c #89AFBB",
"/ 	c #89AEC3",
"( 	c #8FB1DB",
"_ 	c #84ACE4",
": 	c #7FAB85",
"< 	c #73A55D",
"[ 	c #77A67C",
"} 	c #72A561",
"| 	c #69A333",
"1 	c #70A553",
"2 	c #7BA792",
"3 	c #7AA2BE",
"4 	c #6F96D2",
"5 	c #6690D8",
"6 	c #68A438",
"7 	c #74AA45",
"8 	c #74AB4C",
"9 	c #69A14E",
"0 	c #649974",
"a 	c #6692B8",
"b 	c #658EDC",
"c 	c #86ACB9",
"d 	c #7DA899",
"e 	c #6DA25A",
"f 	c #82B35C",
"g 	c #5A974C",
"h 	c #5C9187",
"i 	c #5D8DA7",
"j 	c #77A861",
"k 	c #6DA255",
"l 	c #72A84E",
"m 	c #9BC27B",
"n 	c #92BD75",
"o 	c #7AAE52",
"p 	c #629F40",
"q 	c #529342",
"r 	c #4B8E43",
"s 	c #70A638",
"t 	c #78AB43",
"u 	c #7AAD49",
"v 	c #91BC6C",
"w 	c #9DC482",
"x 	c #8AB96D",
"y 	c #589B2C",
"z 	c #4A9319",
"A 	c #A0C47E",
"B 	c #97C17E",
"C 	c #6CA848",
"D 	c #54992C",
"E 	c #3D8C11",
"F 	c #328503",
"G 	c #B0CF98",
"H 	c #ABCC91",
"I 	c #A5C88C",
"J 	c #A2C789",
"K 	c #8DBB73",
"L 	c #93BF7A",
"M 	c #83B565",
"N 	c #63A345",
"O 	c #4A9423",
"P 	c #91B0E8",
"Q 	c #82A9B6",
"R 	c #8FBD78",
"S 	c #31860C",
"T 	c #227E00",
"U 	c #90AFE6",
"V 	c #86B76B",
"W 	c #7EB364",
"X 	c #5FA241",
"Y 	c #449122",
"Z 	c #2C830C",
"` 	c #649D53",
" .	c #6FA740",
"..	c #A0C587",
"+.	c #268002",
"@.	c #83A6E3",
"#.	c #76A1B2",
"$.	c #65A235",
"%.	c #61A348",
"&.	c #48942C",
"*.	c #2C8310",
"=.	c #1B7A00",
"-.	c #6795AE",
";.	c #569A24",
">.	c #5B9D33",
",.	c #79AF5B",
"'.	c #418F2C",
").	c #2E841A",
"!.	c #247F0C",
"~.	c #5E90AC",
"{.	c #55954E",
"].	c #438E15",
"^.	c #398A0C",
"/.	c #60A13D",
"(.	c #45922A",
"_.	c #1F7B0F",
":.	c #35880B",
"<.	c #408F22",
"                                                                ",
"                                                                ",
"                                                                ",
"                                                                ",
"                                                      .         ",
"                                                    . .         ",
"                                                  + @ #         ",
"                                                $ % @ &         ",
"                                              * * + . =         ",
"                                            * - - ; # =         ",
"                                          - - - % ; # >         ",
"                                        , , ' ' % ; ) !         ",
"                                      - ' ' ' ' % ; ) ~         ",
"                                    - { ] ^ ^ / ( _ = ~         ",
"                                  ' ' ] : < < [ / _ = ~         ",
"                                ' ' ' ^ } | | 1 2 3 4 5         ",
"                              ' ' ' ' ^ } 6 7 8 9 0 a b         ",
"                            ^ ^ c c c d e 7 f f 6 g h i         ",
"                          j < < < e e k l f m n o p q r         ",
"                        j s t u u 7 7 8 f v w w x 8 y z         ",
"                      ^ < t v A m m m m w w B B B x C D E F     ",
"                    ' c < u m G H I I J J w n K B L M N O E     ",
"                  % P Q e 7 m H w L n n K x M M x K R M N O S T ",
"                % U P Q e 7 m H w n n K K x M M V K R W X Y Z T ",
"              % U ; ; Q `  .m H I ..w w w L x V R K W N Y Z +.  ",
"            # @.@.@.@.#.` $.f n K x x x K K K K K W %.&.*.=.    ",
"          ~ > > > ! ! -.g ;.>.>.>.>.D >.N ,.K K W %.'.).!.      ",
"        ~ ~ 5 5 5 b b ~.{.z z ].].E ^.E O /.W W N (.)._.        ",
"                                        :.Y N N <.Z !.          ",
"                                        +.S Y (.*.=.            ",
"                                        T T Z *.                ",
"                                        T T =.=.                "};
