/* XPM */
static char *stop[] = {
/* columns rows colors chars-per-pixel */
"32 32 120 2",
"   c #D4F23B8632A8",
".  c #D72D44AE3C82",
"X  c #D9A047EE3EE7",
"o  c #FD0444C7273F",
"O  c #FE554AD72D54",
"+  c #FFC84F813107",
"@  c #FF95525E347B",
"#  c #FEBB56533953",
"$  c #FFCE59DC3C79",
"%  c #D83D4714403A",
"&  c #D8214820406B",
"*  c #D9B84B5E437F",
"=  c #DC9B50F74708",
"-  c #DBAA52F94A17",
";  c #DFE158924E0C",
":  c #DB6A57AD4FF5",
">  c #DD7D5B67536C",
",  c #E08D5A2A4FB0",
"<  c #FF505DD24115",
"1  c #E16A5CC75310",
"2  c #DEDD64735D43",
"3  c #FFFD62A044F1",
"4  c #FE7466494AF8",
"5  c #FFDA6ADF4CCF",
"6  c #E265606C56CC",
"7  c #E2A2636259DA",
"8  c #E384684C5ED2",
"9  c #FF806DD25272",
"0  c #FFFF73305424",
"q  c #FFF276C05974",
"w  c #FFFE7B695C82",
"e  c #DFDD696A62BF",
"r  c #E51F6CE762FB",
"t  c #E73970CA66E2",
"y  c #E8C372EF674F",
"u  c #E58F74E76C24",
"i  c #EA537511695A",
"p  c #E83579386F8F",
"a  c #EEBD7B1F6EA0",
"s  c #F664741B60DC",
"d  c #FECC7DE76214",
"f  c #F0C27D046E5F",
"g  c #FA847ECC6B2E",
"h  c #E62D7B3872FD",
"j  c #EC297D147138",
"k  c #E4937FE1793C",
"l  c #F1867F02709F",
"z  c #FFFF83916456",
"x  c #FF2285246AF3",
"c  c #FFFE8C2C6C57",
"v  c #ED4F810F760A",
"b  c #E5C683F67D5E",
"n  c #EA0786267D2F",
"m  c #EB4889457FDC",
"M  c #F4AE833D741E",
"N  c #FE6D859770EC",
"B  c #FFE18C867418",
"V  c #F56586B7788B",
"C  c #F6928A9C7C24",
"Z  c #FD368D6D7B60",
"A  c #FFFF9464745C",
"S  c #FFFF9845768D",
"D  c #FF1D94707C9B",
"F  c #FFFA9C777BBC",
"G  c #FFFFA1887F3C",
"H  c #E5CD8741823C",
"J  c #E7708A3B846D",
"K  c #ECBF8CC08284",
"L  c #E6CE8E1088C2",
"P  c #F7D48F6080C2",
"I  c #EBEF90A38683",
"U  c #E79F91BA8C1E",
"Y  c #EAC694818D30",
"T  c #F6A793AD8556",
"R  c #FFFF970E8205",
"E  c #FF1D9D7F8613",
"W  c #F17D95BE89FB",
"Q  c #F59D9B7E8E49",
"!  c #FAAD9CA48B97",
"~  c #EA1097AC923C",
"^  c #EC019A76939E",
"/  c #EAE99E9299B7",
"(  c #F42C9E4591BC",
")  c #FFFFA521836E",
"_  c #FFFFAA648746",
"`  c #FF0FA2E28BBA",
"'  c #FFFFAD388BC4",
"]  c #FFF8B0F18E70",
"[  c #EE4DA10797CF",
"{  c #ED88A3E29D44",
"}  c #EFB3A84F9FDC",
"|  c #FB10A5179442",
" . c #FFE0AE5E943B",
".. c #F322A75B9C52",
"X. c #F670AA259D49",
"o. c #FC6BAD579A71",
"O. c #FFF6B3DF945E",
"+. c #FFFFB87696A1",
"@. c #FDEBB3109E36",
"#. c #FFDABBC79D07",
"$. c #ED68A6EBA10B",
"%. c #EF3BAB4BA3C6",
"&. c #F1ADAE8AA552",
"*. c #F533B2E8A7BB",
"=. c #FA1DB432A48B",
"-. c #FF29BAE1A2D1",
";. c #F227B3E4AAE9",
":. c #FA3FB817A891",
">. c #F60FBC16B015",
",. c #FA91BD2CACA2",
"<. c #F634BE45B22A",
"1. c #FFB0C28BA504",
"2. c #FF71C58AADAB",
"3. c #F71CC306B6A9",
"4. c #FAB3C467B41B",
"5. c #FEDCCB14B41E",
"6. c #F79FC6A3BA91",
"7. c #FB36CB24BA6B",
"8. c #FEBAD0F9BB09",
"9. c None",
/* pixels */
"9.9.9.9.9.9.9.9.9.9.9.9.9.9.9.9.9.9.9.9.9.9.9.9.9.9.9.9.9.9.9.9.",
"9.9.9.9.9.9.9.9.9.9.9.9.9.9.9.9.9.9.9.9.9.9.9.9.9.9.9.9.9.9.9.9.",
"9.9.9.9.9.9.9.9.9.9.{ { { { { { / / / ^ ~ Y 9.9.9.9.9.9.9.9.9.9.",
"9.9.9.9.9.9.9.9.9.%.%.;.;.;.&.&.&.&.%.%.} { ^ 9.9.9.9.9.9.9.9.9.",
"9.9.9.9.9.9.9.9.%.;.3.7.7.7.7.4.4.4.4.4.4.:.{ ~ 9.9.9.9.9.9.9.9.",
"9.9.9.9.9.9.9.%.;.3.7.8.5.5.5.5.2.2.2.2.2.,.&.[ U 9.9.9.9.9.9.9.",
"9.9.9.9.9.9.$.;.6.7.5.1.#.+.+.O.O.O.'  .O.-.,.*.^ J 9.9.9.9.9.9.",
"9.9.9.9.9.$.;.<.7.5.1.+.] _ _ ) ) G F F )  .-.:...^ J 9.9.9.9.9.",
"9.9.9.9.$.;.3.7.2.1.O.' _ _ ) ) G F F S S F ` o.=.X.Y b 9.9.9.9.",
"9.9.9.{ *.>.7.5.-.O._ ) ) ) ) F F S S A c A S E o.X.( K h 9.9.9.",
"9.9.~ } <.4.2.#.] _ ) ) G F F F S A A B c c x c F ` | Q h e 9.9.",
"9.9.~ } 4.5.#.' ) G G F F F S A A B c c x z w z x D | ( h e 9.9.",
"9.9.~ } 4.2.O.) G F F F S A A c c c x z z d w q q x ` Q h e 9.9.",
"9.9.Y { ,.1._ F F F S A A c c c x z z d w w q 0 5 w E ! p 2 9.9.",
"9.9.U [ ,.-.) S S A A c c c x z z d w w q 0 0 5 5 q R T u 2 9.9.",
"9.9.L ^ :.-.) A A c c c x z z d w w q q 0 9 5 4 3 q D T t > 9.9.",
"9.9.J ^ =.@.F c c c x z z d w w q q 0 0 5 5 4 3 < 9 Z P r > 9.9.",
"9.9.H Y =.@.S x z z z d w w q q 0 0 5 5 4 3 3 < $ 5 B C r : 9.9.",
"9.9.b Y @. .A z z z w w q 0 0 9 5 5 4 4 3 < $ # @ 4 B C 8 - 9.9.",
"9.9.k I o. .A w w q q 0 0 9 5 5 4 3 3 3 < $ # @ @ 4 B C 7 = 9.9.",
"9.9.h K X.o.D z q 0 0 0 5 5 4 3 3 3 < $ $ # + @ $ 9 Z V 6 & 9.9.",
"9.9.u n ( | E B w 0 5 5 4 3 3 3 < $ $ # @ @ + $ 9 d M a 1 . 9.9.",
"9.9.9.h m W | E x q 4 3 3 3 < $ $ # @ @ O O # 9 x V i 7 * 9.9.9.",
"9.9.9.9.h n Q ! D z 9 < $ $ # @ @ + O O O # 5 d V v 8 - 9.9.9.9.",
"9.9.9.9.9.u v K ! D d 4 # @ @ + O O o O @ 4 g M i 7 - 9.9.9.9.9.",
"9.9.9.9.9.9.r h T T N w 5 3 3 < < $ # < 4 s M j 6 * 9.9.9.9.9.9.",
"9.9.9.9.9.9.9.8 p v C Z B N x x g g g g M f r 6 * 9.9.9.9.9.9.9.",
"9.9.9.9.9.9.9.9.7 t v V V V M M M l l j j y 1 * 9.9.9.9.9.9.9.9.",
"9.9.9.9.9.9.9.9.9.: 1 6 6 6 1 1 1 1 , ; - = X 9.9.9.9.9.9.9.9.9.",
"9.9.9.9.9.9.9.9.9.9.% * * * * & X . . .     9.9.9.9.9.9.9.9.9.9.",
"9.9.9.9.9.9.9.9.9.9.9.9.9.9.9.9.9.9.9.9.9.9.9.9.9.9.9.9.9.9.9.9.",
"9.9.9.9.9.9.9.9.9.9.9.9.9.9.9.9.9.9.9.9.9.9.9.9.9.9.9.9.9.9.9.9."
};
