/* XPM */
static char *wand[] = {
/* columns rows colors chars-per-pixel */
"32 32 136 2",
"   c #11D511E11203",
".  c #1D071D241D79",
"X  c #39272ECE1036",
"o  c #380A317D1DA6",
"O  c #260E262E268E",
"+  c #2DA22DC12E1C",
"@  c #34EF34F93516",
"#  c #3DB33C203768",
"$  c #3C8A3C8A3C8A",
"%  c #54F44ECA3C3C",
"&  c #42E042DF42DD",
"*  c #4C904CAA4CFB",
"=  c #53F7540F545A",
"-  c #548F557E5870",
";  c #5B795BB25C65",
":  c #644A5D8C47BF",
">  c #60305EB559E0",
",  c #6DB26320413E",
"<  c #675860BB4B46",
"1  c #69EB629B4BAC",
"2  c #6475626E5C1F",
"3  c #5A4D5BD36086",
"4  c #639E639D639B",
"5  c #672168B06DAD",
"6  c gray42",
"7  c #6D946E5B70D6",
"8  c #7250724F724C",
"9  c #836B696A1AC7",
"0  c #851973663AE2",
"q  c #8CB8793F3DE2",
"w  c #8A9D791F40AB",
"e  c #805E77EC5D80",
"r  c #865D7E1363C0",
"t  c #ACFD82B40600",
"y  c #9EDD8538324B",
"u  c #A115867D32F0",
"i  c #CEEDA0B916D2",
"p  c #F248B44C0126",
"a  c #F1CDBA590241",
"s  c #FD81BC550000",
"d  c #F289B69709E0",
"f  c #F426BA710E8D",
"g  c #EB99B4DA1385",
"h  c #F3B1BCB01321",
"j  c #F45BBF8A19E7",
"k  c #C6A89F852237",
"l  c #CB88A3AA2407",
"z  c #D731B0D63B50",
"x  c #E9BEBCBB2D8F",
"c  c #F3ADC07016F6",
"v  c #F4C8C0E11D0A",
"b  c #F5B3C20024C2",
"n  c #F5E6C4452B98",
"m  c #F5BBC6123364",
"M  c #F8C9C811318C",
"N  c #F6DBC7CA395B",
"B  c #F71CC9543AF6",
"V  c #B64E9DF4545C",
"C  c #9C0594A97E74",
"Z  c #BA83AA2A79E8",
"A  c #C55EA8D34FB6",
"S  c #D1E7B0104882",
"D  c #D45EB2DC46F2",
"F  c #CC1CAEF5554E",
"G  c #CFFDB0EB5504",
"H  c #D799B75F568B",
"J  c #D9C3B970552F",
"K  c #D487B6265B03",
"L  c #D983BAAF5D28",
"P  c #C54CAD1B6416",
"I  c #CB34B2D56B72",
"U  c #DB45BCEB61BE",
"Y  c #D8C8BDB06DA4",
"T  c #C723B0CB70B0",
"R  c #D523BD767680",
"E  c #D1E2BBA07B7A",
"W  c #ECBBC3714291",
"Q  c #F1F8C78442B0",
"!  c #F78CCB7B439C",
"~  c #F99FCDA344D0",
"^  c #F7A5CD864A4A",
"/  c #FB6BD09D489A",
"(  c #E87AC4E65777",
")  c #F002C9EB5385",
"_  c #EE39CA775AC8",
"`  c #F446CD17532C",
"'  c #F81DD15F54F7",
"]  c #F8ABD16756C1",
"[  c #F748D18559B1",
"{  c #F8F9D2D85B55",
"}  c #E033C06A6005",
"|  c #DEFEC2E46CB4",
" . c #D997C1C07C28",
".. c #E0BAC18562BD",
"X. c #EE59CCAC62BC",
"o. c #EC99CDAA6AC4",
"O. c #F009D1136D44",
"+. c #F5B8D29B65ED",
"@. c #F9D4D6BB66C0",
"#. c #F94AD7E36AB4",
"$. c #E43ACA0076F5",
"%. c #ED58CFF770F7",
"&. c #EF83D182723C",
"*. c #FA30D9E37128",
"=. c #7F057FA08177",
"-. c #84E784E784E7",
";. c #8B8D8C708F24",
":. c #977E977E977E",
">. c #9BC09BC09BC0",
",. c #B253AAF094A2",
"<. c #A015A144A4F7",
"1. c #A6FBA79FA987",
"2. c #AAEDAAEDAAED",
"3. c #BDA4B87EA956",
"4. c #B7B3B850BA1F",
"5. c #BCE0BCE0BCE0",
"6. c #C9C8BD4A98AA",
"7. c #D785C0DD807E",
"8. c #D16FC0FB908A",
"9. c #D1A7CCFEBF3C",
"0. c #D6F4D0A2BEA3",
"q. c #E3A3D74CB2DD",
"w. c #EB4CDEE1BADD",
"e. c #C47AC47AC47A",
"r. c #CA04CAA0CC70",
"t. c #D7CDD299C358",
"y. c #DEB4DF06DFF8",
"u. c #E08FDF3CDB51",
"i. c #EC73E629D42A",
"p. c #EDE9E935DB61",
"a. c #F314ECA1DA81",
"s. c #E7A9E975EEAF",
"d. c #F0D3EF7AEB87",
"f. c #F5E3F720FABA",
"g. c #FA8DFC7EFFFF",
"h. c None",
/* pixels */
"h.h.h.h.h.h.h.h.h.h.h.h.h.h.h.h.h.h.h.h.h.h.h.h.h.h.h.h.h.h.h.h.",
"h.h.h.h.h.h.h.h.h.h.h.h.h.h.h.h.h.h.h.h.h.h.h.h.h.h.h.h.h.h.h.h.",
"h.h.h.h.h.h.h.h.h.h.h.h.h.h.h.h.h.h.h.h.n n h.h.h.h.h.h.h.h.h.h.",
"h.h.h.h.h.h.h.h.h.h.h.h.h.h.h.h.h.h.h.n m m h.h.h.h.h.h.h.h.h.h.",
"h.h.h.h.h.h.h.h.h.h.h.h.h.h.m n n b b m ! ! h.h.j j h.h.h.h.h.h.",
"h.h.h.h.h.h.h.h.h.h.h.h.h.h.n m m N B ~ ] ] ! b j h h.h.h.h.h.h.",
"h.h.h.h.h.h.h.h.h.h.h.h.h.h.h.N ^ ` { @.*.#.' m v h h.h.h.h.h.h.",
"h.h.h.h.h.h.h.h.h.h.h.h.h.h.m ^ { +.X.o.%.o._ Q n j h.h.h.h.h.h.",
"h.h.h.h.h.h.h.h.h.h.h.n b n ! ] *.&.L G K U ..( Q n h a a h.h.h.",
"h.h.h.h.h.h.h.h.h.h.h.b b n ~ [ O.$.R E 7. .Y } ) B c a a h.h.h.",
"h.h.h.h.h.h.h.h.h.h.h.h.b M / ` J R q.i.a.w. .L X.^ v a h.h.h.h.",
"h.h.h.h.h.h.h.h.h.h.h.h.h.x D F P 8.p.g.g.i.E K o.] v p h.h.h.h.",
"h.h.h.h.h.h.h.h.h.h.h.h.h.l w r ,.t.d.f.s.0.T F o.{ j p h.h.h.h.",
"h.h.h.h.h.h.h.h.h.h.h.h.l y : 5 <.r.y.u.9.6.I H _ ! h p h.h.h.h.",
"h.h.h.h.h.h.h.h.h.h.h.l 0 < > 7 ;.1.4.3.Z P | _ m h d p p h.h.h.",
"h.h.h.h.h.h.h.h.h.h.k u 1 - ; 4 8 =.;.C V S _ ^ j p p p h.h.h.h.",
"h.h.h.h.h.h.h.h.h.h., 1 2 ; * & * - 3 e A W m b h d h.h.h.h.h.h.",
"h.h.h.h.h.h.h.h.h.h.= - ; = & @ @ # % q z M v h d d h.h.h.h.h.h.",
"h.h.h.h.h.h.h.h.* = ; ; * & & @ O o 9 i g h f d p p h.h.h.h.h.h.",
"h.h.h.h.h.h.h.h.; ; ; = & @ @ + . X t s p p h.h.h.p h.h.h.h.h.h.",
"h.h.h.h.h.h.= 4 8 6 = & $ @ O . h.h.h.h.p p h.h.h.h.h.h.h.h.h.h.",
"h.h.h.h.h.h.4 6 8 4 & @ @ + .   h.h.h.h.p h.h.h.h.h.h.h.h.h.h.h.",
"h.h.h.h.& = 8 8 - & & @ O . h.h.h.h.h.h.h.h.h.h.h.h.h.h.h.h.h.h.",
"h.h.h.h.= ; 6 4 & @ @ + .   h.h.h.h.h.h.h.h.h.h.h.h.h.h.h.h.h.h.",
"h.h.$ * 6 6 = & $ @ O . h.h.h.h.h.h.h.h.h.h.h.h.h.h.h.h.h.h.h.h.",
"h.h.6 6 6 4 & @ @ + .   h.h.h.h.h.h.h.h.h.h.h.h.h.h.h.h.h.h.h.h.",
"4 -.2.>.4 & & # O . h.h.h.h.h.h.h.h.h.h.h.h.h.h.h.h.h.h.h.h.h.h.",
"4 -.e.5.6 & $ @ .   h.h.h.h.h.h.h.h.h.h.h.h.h.h.h.h.h.h.h.h.h.h.",
"4 -.5.e.:.4 @ . h.h.h.h.h.h.h.h.h.h.h.h.h.h.h.h.h.h.h.h.h.h.h.h.",
"4 8 :.>.-.4 @   h.h.h.h.h.h.h.h.h.h.h.h.h.h.h.h.h.h.h.h.h.h.h.h.",
"= ; ; = & @ h.h.h.h.h.h.h.h.h.h.h.h.h.h.h.h.h.h.h.h.h.h.h.h.h.h.",
"h.& $ @ .   h.h.h.h.h.h.h.h.h.h.h.h.h.h.h.h.h.h.h.h.h.h.h.h.h.h."
};
