/* XPM */
static char *application_view_tile[] = {
/* columns rows colors chars-per-pixel */
"32 32 121 2",
"   c #6B89B00F6219",
".  c #6BCEB0376268",
"X  c #72EEB50769A6",
"o  c #FFFF93F74E4E",
"O  c #FFFF97735401",
"+  c #FFFFA033624F",
"@  c #FFCBAF737C9C",
"#  c #FFFFB0DD7C54",
"$  c #84F1C1CD7BA4",
"%  c #88A0C3A47FF0",
"&  c #F147D55863A7",
"*  c #F36CD8AE6C07",
"=  c #4D166E75A750",
"-  c #4E3A6F8EA87E",
";  c #4F39709BA90C",
":  c #5257753AAD2F",
">  c #54B47827B00E",
",  c #5D287B54AF7D",
"<  c #56BA79A8B1DA",
"1  c #591D7D65B548",
"2  c #5AEB807DB7F6",
"3  c #5D3182AABA5A",
"4  c #606E861DBD68",
"5  c #63E488C0BEE0",
"6  c #69E18A9BBCE6",
"7  c #71F28C67B9BF",
"8  c #74CC947ABFFE",
"9  c #7BA39483BF69",
"0  c #63958A2AC18C",
"q  c #6A738D5EC079",
"w  c #6BD492A3C7DD",
"e  c #6C5A9452CA85",
"r  c #6EFC9895CEB0",
"t  c #74C696CEC7A0",
"y  c #7D5396B4C21C",
"u  c #76809874C51F",
"i  c #7F5799FBC3E0",
"p  c #72149648C8C5",
"a  c #73439959CD0D",
"s  c #7B659CC9C976",
"d  c #6FB09A22D13E",
"f  c #73D49DBCD406",
"g  c #78769F61D203",
"h  c #7E7CA1BECEEE",
"j  c #7726A0E2D6C7",
"k  c #7A65A2B4D655",
"l  c #761CA190D9C7",
"z  c #7B4BA58ADAD2",
"x  c #7E7AAA3ADF04",
"c  c #7D7BC1E5FFFF",
"v  c #8F43C4398ADA",
"b  c #919CC43B8906",
"n  c #AF8DD485A801",
"m  c #ADE4D486A946",
"M  c #B07DD574A8B2",
"N  c #F448DF9B8A01",
"B  c #FFDFC5559F7C",
"V  c #F9BDE22082D6",
"C  c #F6BCE1358AA5",
"Z  c #FFFFC533A031",
"A  c #F798E88AA930",
"S  c #FA6DEA65A9E8",
"D  c #81EA9C8AC688",
"F  c #82F09F41C9F7",
"G  c #8645A1E8CB72",
"H  c #8962A459CE6B",
"J  c #8BFDA701D127",
"K  c #85F1A933D696",
"L  c #8D2EA96BD264",
"P  c #82BFAB86DE2C",
"I  c #8AA3AEF5DC4D",
"U  c #9058AD54D706",
"Y  c #9296AF14D963",
"T  c #95E5B485DDF0",
"R  c #9955B865E056",
"E  c #8BCBB402E4D8",
"W  c #921FB6DBE410",
"Q  c #9C24BCC1E52F",
"!  c #B4B9C2C0DAB9",
"~  c #82A9C475FFFF",
"^  c #92A4CCB4FFFF",
"/  c #98DDCFFEFFFF",
"(  c #9FCFD281FFFF",
")  c #BE66CE9CE5D1",
"_  c #A155D388FFFF",
"`  c #AF73DAAFFFFF",
"'  c #B1E7DC00FFFF",
"]  c #BA8CDF60FFFF",
"[  c #DE07EE22DAEE",
"{  c #FF30E5E0D760",
"}  c #FFFFE94FD762",
"|  c #FFFFE748D871",
" . c #FCA4F49AD80F",
".. c #FAE6F566DAB3",
"X. c #FFFFF8BCDC0D",
"o. c #C06CD1ABE900",
"O. c #D580DE56EDBA",
"+. c #D867E008ED10",
"@. c #C619D8F1F079",
"#. c #D6A3E122EFD7",
"$. c #D95AE16CEE53",
"%. c #C67AE5A0FFFF",
"&. c #C852E70EFFFF",
"*. c #D651E165F0A8",
"=. c #DD09E57AF432",
"-. c #DFB2E96DF6D9",
";. c #FFBEEDD5E27D",
":. c #E6DCF2ECE4CE",
">. c #E9C4F496E52C",
",. c #FD62F7CEE2F5",
"<. c #FF02FAB8E5B3",
"1. c #E1ECEB4DF73E",
"2. c #E2DFEC3DFA68",
"3. c #E42CF320FFFF",
"4. c #EB0EF69BFFFF",
"5. c #EFFCF8EDFFFF",
"6. c #F70FFB27F6D4",
"7. c #FD02FBFEF742",
"8. c #F144FA5BFFFF",
"9. c #FC78FE88FE01",
"0. c None",
/* pixels */
"0.0.0.0.0.0.0.0.0.0.0.0.0.0.0.0.0.0.0.0.0.0.0.0.0.0.0.0.0.0.0.0.",
"0.0.0.0.0.0.0.0.0.0.0.0.0.0.0.0.0.0.0.0.0.0.0.0.0.0.0.0.0.0.0.0.",
"0.0.K I x z z z z z k j j f f f f f a a r r e e e e u 8 0.0.0.0.",
"5 a I E P P P P P P x x z z z z z k k k k j g g g g h s 6 0.0.0.",
"k P E W E E E E E E E E E E E E E E E E E E E E E E E K t 6 0.0.",
"P P E E E E E E E E E E E E E E E E E E E E E E E E E P a q 0.0.",
"x x x x x x x x x x x x x x x x x x x x x x x x x x x k w q 0.0.",
"z P W Q Q Q Q Q Q Q Q Q Q Q Q Q Q Q Q Q Q Q Q Q Q Q Q I p 5 0.0.",
"l W @.1.1.1.1.1.1.1.-.1.2.2.2.2.2.2.1.-.1.1.1.1.1.1.2.o.F 4 0.0.",
"l Q -.9.4.3.3.3.3.4.9.6.:.[ [ [ [ :.6.9.5.4.4.4.4.8.9.$.H 3 0.0.",
"l Q -.4.] ( ( ( ( ] 4.:.n b b b b n :.5.%.' ' ' ' &.8.$.G 3 0.0.",
"l Q 1.3.( c ~ ~ c ( 3.[ b   X X   b [ 4.' ^ / / ^ ' 4.$.G 2 0.0.",
"f Q 1.3.( ~ ^ ^ ~ _ 3.[ b X $ $ X b [ 4.' / _ _ / ' 4.$.G 1 0.0.",
"f Q 1.3.( ~ ^ ^ ~ _ 3.[ b X $ $ X b [ 4.' / _ _ / ' 4.$.F 1 0.0.",
"f R 1.3.( c ~ ~ c ( 3.[ b   X X   b [ 4.' ^ / / ^ ' 4.$.F < 0.0.",
"f R -.4.] ( _ _ ( ] 4.:.m v v v v m :.5.%.` ` ` ` %.8.+.D < 0.0.",
"f T =.9.4.3.3.3.3.4.9.6.:.[ [ [ [ :.6.9.4.3.3.3.3.5.9.+.D < 0.0.",
"f T =.7.>.[ [ [ [ :.6.7.;.| | | | ;.7.7.,. . . . .<.7.O.D > 0.0.",
"d T -.>.M b b b b m :.;.Z @ # @ @ B ;.,.A N N N N S <.O.D > 0.0.",
"r T -.[ b   X X   v [ | @ o O O o @ { ..N & * * & C X.O.i : 0.0.",
"e T -.[ b X % % X v [ | @ O + + O @ { ..N * V V * C X.O.y : 0.0.",
"e T -.[ b X % % X v [ { @ O + + O @ { ..N * V V * C X.O.y ; 0.0.",
"w Y -.[ b   X X . v [ { @ o O O o @ { ..N & * * & C X.O.y - 0.0.",
"w Y =.>.M b b b b m :.;.B # # # # B ;.<.S C C C C S <.O.9 = 0.0.",
"w U =.7.>.[ [ [ [ >.6.7.;.} } } } ;.7.7.<.X.X.X.X.<.7.O.9 = 0.0.",
"0 G ) =.=.=.=.=.=.*.$.#.#.*.*.*.#.O.O.O.O.O.O.O.O.O.O.! 7 = 0.0.",
"< 6 F L L J J H H H G G F F D D D i i i y y y y y 9 9 7 , ; 0.0.",
"0.< 4 0 5 4 4 3 3 2 2 1 1 < < > > : : : : : ; ; - = = = ; 0.0.0.",
"0.0.0.0.0.0.0.0.0.0.0.0.0.0.0.0.0.0.0.0.0.0.0.0.0.0.0.0.0.0.0.0.",
"0.0.0.0.0.0.0.0.0.0.0.0.0.0.0.0.0.0.0.0.0.0.0.0.0.0.0.0.0.0.0.0.",
"0.0.0.0.0.0.0.0.0.0.0.0.0.0.0.0.0.0.0.0.0.0.0.0.0.0.0.0.0.0.0.0.",
"0.0.0.0.0.0.0.0.0.0.0.0.0.0.0.0.0.0.0.0.0.0.0.0.0.0.0.0.0.0.0.0."
};
