/* XPM */
static char *application_get[] = {
/* columns rows colors chars-per-pixel */
"32 32 157 2",
"   c #2A426B782633",
".  c #2C966DC927DC",
"X  c #2ECE70DC29D3",
"o  c #313373D12C1D",
"O  c #352279972FA1",
"+  c #2D2B6C4F2FDD",
"@  c #39DC7E253350",
"#  c #3D537E9337F0",
"$  c #33EC6F5A4188",
"%  c #44637D694FFE",
"&  c #41CF7A1E5B10",
"*  c #413D75D56630",
"=  c #4A477F09642E",
"-  c #3D13804835E5",
";  c #3ED581973F09",
":  c #407885233950",
">  c #43DE84544313",
",  c #45ED89823FE6",
"<  c #48858B1941F8",
"1  c #4DA491C04579",
"2  c #51D494B54AC1",
"3  c #56A19D4C4DFB",
"4  c #4421841E5060",
"5  c #52168D935DF3",
"6  c #5B459C5A539F",
"7  c #5EF9962D5EBC",
"8  c #66F59F905F48",
"9  c #5F69A14758F1",
"0  c #6394A6315B95",
"q  c #657AAB6A5CE9",
"w  c #5D0E924D60F5",
"e  c #6704A5736036",
"r  c #6B21A4226467",
"t  c #6E8CAFAB6777",
"y  c #6B3EA4B86AD9",
"u  c #7065AD666837",
"i  c #6EA6B4EA6567",
"p  c #7050B13D6766",
"a  c #73BDB3126C9C",
"s  c #7480B8AD6AB1",
"d  c #788BBAEB6F12",
"f  c #794BB7F67299",
"g  c #7C64BCB9740B",
"h  c #80AFBBC677A8",
"j  c #80DFB3A17970",
"k  c #8216BF0C7A1C",
"l  c #8152C0FF7793",
"z  c #83E4C1F07B30",
"x  c #43716DE68242",
"c  c #4E917C6A8233",
"v  c #4D2E7BAA8C03",
"b  c #4B3872F593FA",
"n  c #4EC66EE1ABDB",
"m  c #52C37457ADFB",
"M  c #5499776FB2B3",
"N  c #56BA79A8B1DA",
"B  c #59B37CB6B456",
"V  c #635D881A94B8",
"C  c #65AE89B19B19",
"Z  c #7B8AA59C8E81",
"A  c #5AEB807DB7F6",
"S  c #5D3182AABA5A",
"D  c #6163857EA3E0",
"F  c #729D97B6A4C9",
"G  c #6C9B884BB62C",
"H  c #606E861DBD68",
"J  c #63E488C0BEE0",
"K  c #69E48A9CBCEA",
"L  c #7647945FBDAF",
"P  c #63958A2AC18C",
"I  c #6A738D5EC079",
"U  c #6BD492A3C7DD",
"Y  c #6C5A9452CA85",
"T  c #6EFC9895CEB0",
"R  c #74C696CEC7A0",
"E  c #76809874C51F",
"W  c #72189649C8C4",
"Q  c #73439959CD0D",
"!  c #7B659CC9C976",
"~  c #6FB09A22D13E",
"^  c #73D49DBCD406",
"/  c #78769F61D203",
"(  c #7E7CA1BECEEE",
")  c #7726A0E2D6C7",
"_  c #7A65A2B4D655",
"`  c #761CA190D9C7",
"'  c #7B4BA58ADAD2",
"]  c #7E7AAA3ADF04",
"[  c #885EBCFF837E",
"{  c #9AE1B834A97D",
"}  c #9B34B8F3A8BD",
"|  c #875EC3A28088",
" . c #8D2FC6628580",
".. c #8C64C9AD857D",
"X. c #8F25C97A881E",
"o. c #9022C9CC86C6",
"O. c #90FCC7088C01",
"+. c #942CCC4D8CBD",
"@. c #9D53C1C196AA",
"#. c #9E18CF33972F",
"$. c #9BCBCD7998E1",
"%. c #9C22D1839444",
"&. c #AECBD22CAC75",
"*. c #B0A7D9B0ADB1",
"=. c #B2AED727B3E4",
"-. c #B51BDB24B38B",
";. c #BA9BDBC8B69E",
":. c #BE99DFCDBB36",
">. c #C23FDC51BD9E",
",. c #82B19C94C65F",
"<. c #834C9E8FCA02",
"1. c #862DA22FCBB9",
"2. c #896DA545CE73",
"3. c #8B96A81FD09A",
"4. c #85F1A933D696",
"5. c #8E4BAB58D43E",
"6. c #82C0AB86DE2C",
"7. c #8AA5AEF5DC4D",
"8. c #90C0AE15D76C",
"9. c #9151AF96D86E",
"0. c #9561B4E7DDCD",
"q. c #A061B4C8C706",
"w. c #8BCBB402E4D8",
"e. c #9226B6DEE40F",
"r. c #9AF0BC34E4CD",
"t. c #B5D5CD19C53F",
"y. c #BE19DAE4C0B5",
"u. c #BB84CDB0D0F6",
"i. c #BE7ACEA7E5E6",
"p. c #C31DE272C2C8",
"a. c #D5ACE7D6DC06",
"s. c #D716E91ADC84",
"d. c #E229F195DDDD",
"f. c #C076D1AEE8FE",
"g. c #D71EDFADED68",
"h. c #D862DFEBEEBE",
"j. c #C62AD8F9F079",
"k. c #DE81EC6FE5A5",
"l. c #D7FEE10AEE90",
"z. c #D8AEE1DBEF65",
"x. c #DC3CE5B9F3A2",
"c. c #DFB9EA57F751",
"v. c #E30DEE80E651",
"b. c #E490F2ABE5FF",
"n. c #E97AF3F6E722",
"m. c #E7C2F489E899",
"M. c #EBA7F67EE992",
"N. c #E3D7EBA7F63B",
"B. c #EA0EEF5EF708",
"V. c #E2C3ECD8F8BF",
"C. c #EC9BF23BF73F",
"Z. c #EED3F399F9FF",
"A. c #F4F1FA9AF804",
"S. c #F2CAF6C1FB4F",
"D. c #F6ABFA18FC56",
"F. c #FD50FEA5FED5",
"G. c None",
/* pixels */
"G.G.G.G.G.G.G.G.G.G.G.G.G.G.G.G.G.G.G.G.G.G.G.G.G.G.G.G.G.G.G.G.",
"G.G.G.G.G.G.G.G.G.G.G.G.G.G.G.G.G.G.G.G.G.G.G.G.G.G.G.G.G.G.G.G.",
"G.G.4.7.] ' ' ' ' ' _ ) ) ^ ^ ^ ^ ^ Q Q T T Y Y Y Y E L G.G.G.G.",
"J Q 7.w.6.6.6.6.6.6.] ] ' ' ' ' ' _ _ _ _ ) / / / / ( ! K G.G.G.",
"_ 6.w.e.w.w.w.w.w.w.w.w.w.w.w.w.w.w.w.w.w.w.w.w.w.w.w.4.R K G.G.",
"6.6.w.w.w.w.w.w.w.w.w.w.w.w.w.w.w.w.w.w.w.w.w.w.w.w.w.6.Q I G.G.",
"] ] ] ] ] ] ] ] ] ] ] ] ] ] ] ] ] ] ] ] ] ] ] ] ] ] ] _ U I G.G.",
"' 6.e.r.r.r.r.r.r.r.r.r.r.r.r.r.r.r.r.r.r.r.r.r.r.r.r.7.W J G.G.",
"` e.j.V.V.c.c.c.c.c.c.c.c.c.c.c.c.c.c.c.c.c.c.c.V.V.V.f.<.H G.G.",
"` r.c.F.F.F.F.F.F.F.F.F.F.F.F.F.F.F.F.F.F.F.F.F.F.F.F.z.1.S G.G.",
"` r.c.F.F.F.F.F.F.F.D.D.D.D.D.D.S.S.S.S.Z.Z.C.B.B.S.F.z.1.S G.G.",
"` r.c.F.F.D.D.D.D.D.D.S.S.S.S.S.Z.C.C.B.B.B.N.N.N.B.F.l.1.A G.G.",
"^ r.c.F.F.F.F.D.D.D.D.D.D.S.S.S.S.Z.Z.C.C.C.B.B.N.Z.F.l.1.B G.G.",
"^ r.c.F.F.F.F.F.F.D.D.D.D.D.D.S.S.S.S.Z.Z.Z.Z.C.B.S.F.g.<.B G.G.",
"^ 0.x.F.F.F.F.F.F.F.D.D.D.D.D.D.D.S.S.S.S.S.S.Z.C.S.F.g.,.B G.G.",
"^ 0.x.F.F.F.F.F.F.F.F.F.D.D.D.D.D.D.D.Z.k.s.a.k.C.D.F.g.,.N G.G.",
"^ 0.x.F.F.F.F.F.F.F.F.F.F.D.D.D.D.D.F.b.-.$.$.=.k.F.F.g.,.N G.G.",
"^ 0.x.F.F.F.F.F.F.F.F.F.F.F.F.F.F.A.b.p.+.g g O.y.v.D.g.,.m G.G.",
"~ 0.x.F.F.F.F.F.F.F.F.F.F.F.F.F.F.b.-.+.z g d g [ &.n.h.,.m G.G.",
"T 0.x.F.F.F.F.F.F.F.F.F.F.F.F.A.b.p.+.g l z l f t [ >.u.L m G.G.",
"Y 0.x.F.F.F.F.F.F.F.F.F.F.F.F.b.*.X.g l o.+.+.z a u j Z D m G.G.",
"Y 9.x.F.F.F.F.F.F.F.F.F.F.A.b.:.| i s z +.%.%. .a 0 6 5 c b G.G.",
"U 8.x.F.F.F.F.F.F.F.F.F.F.m.;.O.i q i g o.%.+. .f 0 1 > & * G.G.",
"U 8.x.F.F.F.F.F.F.F.F.F.F.M.:.#. .h p a  .+.+.z a e 8 w = * G.G.",
"U 5.x.F.F.F.F.F.F.F.F.F.F.D.M.b.d.;.a 0 k +.X.g 9 r @.{ C b G.G.",
"P 1.i.x.x.z.z.z.l.l.l.g.g.g.h.x.x.t.y 3 g o...d 2 7 } q.G n G.G.",
"N K <.3.3.2.2.2.1.1.1.<.,.,.,.<.<.F 5 3 f ....a < % V G B m G.G.",
"G.N H P J H H S S A A B B N N M M v 4 1 q a a 6 - $ x n m G.G.G.",
"G.G.G.G.G.G.G.G.G.G.G.G.G.G.G.G.G.G.; : , < , # o + G.G.G.G.G.G.",
"G.G.G.G.G.G.G.G.G.G.G.G.G.G.G.G.G.G.- @ O o X .     G.G.G.G.G.G.",
"G.G.G.G.G.G.G.G.G.G.G.G.G.G.G.G.G.G.G.G.G.G.G.G.G.G.G.G.G.G.G.G.",
"G.G.G.G.G.G.G.G.G.G.G.G.G.G.G.G.G.G.G.G.G.G.G.G.G.G.G.G.G.G.G.G."
};
