/* XPM */
static char *application_go[] = {
/* columns rows colors chars-per-pixel */
"32 32 154 2",
"   c #1BA679FB009A",
".  c #22767E2400C8",
"X  c #25567EE40906",
"o  c #26DC78AB2324",
"O  c #27C978BB216E",
"+  c #36FF79614B61",
"@  c #39A974E55FD8",
"#  c #394C74D660BD",
"$  c #262B809B0000",
"%  c #2C7083BA0D14",
"&  c #316286FC0C4E",
"*  c #355388EE0B94",
"=  c #3A0F8B3B0D5C",
"-  c #2CE383571251",
";  c #3DE98CE01205",
":  c #335D816D28A8",
">  c #3B73833D2D12",
",  c #43388EBA1564",
"<  c #4B9994201A78",
"1  c #41218F252502",
"2  c #423E8C5F2BC2",
"3  c #4516925323AC",
"4  c #4A2994FE227C",
"5  c #4596926729B1",
"6  c #557799E324A1",
"7  c #55719A6F2C34",
"8  c #498B8CBA358D",
"9  c #491C92003266",
"0  c #52F896D932C3",
"q  c #5B9E9D753367",
"w  c #64FC9FF8304B",
"e  c #64C9A0C23337",
"r  c #6A71A308377F",
"t  c #6232A1283AE3",
"y  c #6CEEA6043FB6",
"u  c #537F91DF4637",
"i  c #5F409A554B66",
"p  c #5F8BA1CD42F6",
"a  c #6352A3B344CE",
"s  c #6ADCA62E4167",
"d  c #6EEBA95D4776",
"f  c #6358A3914801",
"g  c #6B7EA7764801",
"h  c #710CA81043E2",
"j  c #73CEA95B44F9",
"k  c #7627ABB54BB8",
"l  c #7A76ACAF4AF9",
"z  c #760DAB0A5373",
"x  c #7A42ADEB52F4",
"c  c #7957AFB35B4E",
"v  c #7F67B20E591E",
"b  c #4C8382686934",
"n  c #6ADE9E4D66B0",
"m  c #7E41B3AC64E2",
"M  c #82F9B33C5D1F",
"N  c #8365B5556528",
"B  c #89C2B6BD63C5",
"V  c #8D6DB8A665F4",
"C  c #8690B7CE6BB6",
"Z  c #8AD6B9466C7A",
"A  c #904FBC0D6FCD",
"S  c #8D9BBBE373D5",
"D  c #8FEABDC57826",
"F  c #9295BDAF7562",
"G  c #94D5BF7A7993",
"H  c #97D9C1DE7EE5",
"J  c #9ABEC2197C38",
"K  c #4EA27D5F84BE",
"L  c #56DB799DB22F",
"P  c #58F27C77B499",
"I  c #5B167F90BB83",
"U  c #5840857A9388",
"Y  c #5E92867398AF",
"T  c #5AE680BCB7CB",
"R  c #5D368294BAC7",
"E  c #790F9EB8A1C5",
"W  c #606E861DBD68",
"Q  c #63E488C0BEE0",
"!  c #69E48A9CBCEA",
"~  c #75EF94BEBC32",
"^  c #63958A2AC18C",
"/  c #6A738D5EC079",
"(  c #6BD492A3C7DD",
")  c #6C5A9452CA85",
"_  c #6EFC9895CEB0",
"`  c #74C696CEC7A0",
"'  c #76809874C51F",
"]  c #72189649C8C4",
"[  c #73439959CD0D",
"{  c #7B659CC9C976",
"}  c #6FB09A22D13E",
"|  c #73D49DBCD406",
" . c #78769F61D203",
".. c #7E7CA1BECEEE",
"X. c #7726A0E2D6C7",
"o. c #7A65A2B4D655",
"O. c #761CA190D9C7",
"+. c #7B4BA58ADAD2",
"@. c #7E7AAA3ADF04",
"#. c #9D35C3E882CC",
"$. c #A0B6C5DA878C",
"%. c #A2C2C7CE891E",
"&. c #A5F8C8BE8CC5",
"*. c #AADBCB3B8F48",
"=. c #AB11CC0391F9",
"-. c #ACE5CC209D7F",
";. c #B0DFCF549811",
":. c #B407D2759CBB",
">. c #B8A1D402A786",
",. c #B80BCF2EBD1D",
"<. c #83929D49C7BC",
"1. c #82829F8BCABB",
"2. c #8667A235CC7F",
"3. c #896DA545CE73",
"4. c #8B96A81FD09A",
"5. c #85F1A933D696",
"6. c #8E4BAB58D43E",
"7. c #82C0AB86DE2C",
"8. c #8AA5AEF5DC4D",
"9. c #90C0AE15D76C",
"0. c #9151AF96D86E",
"q. c #9561B4E7DDCD",
"w. c #8BCBB402E4D8",
"e. c #9226B6DEE40F",
"r. c #9AF0BC34E4CD",
"t. c #B364C9A4C11E",
"y. c #BE7ACEA7E5E6",
"u. c #CA18DD4DC69F",
"i. c #CC1ADF22C8BD",
"p. c #D61BE638CCDA",
"a. c #D8B1E803CD0F",
"s. c #D48EE3F0D448",
"d. c #DAA7E85ED8DD",
"f. c #E230EE26DA1E",
"g. c #C076D1AEE8FE",
"h. c #D79BE00CEDF8",
"j. c #C62AD8F9F079",
"k. c #D826E128EE94",
"l. c #D8C2E19EEF7C",
"z. c #DC05E5C4F389",
"x. c #DFB9EA57F751",
"c. c #E29DEA49ECB0",
"v. c #E807F0B6EE98",
"b. c #E2D0EB60F716",
"n. c #EA1DEF5AF751",
"m. c #E2C3ECD8F8BF",
"M. c #EA1CEEB9F911",
"N. c #EDA5F209F7FC",
"B. c #EE50F33AF9FB",
"V. c #F52CF9E0F3AB",
"C. c #F2F2F6EAFB43",
"Z. c #F67BF9E8FC6B",
"A. c #FD90FEB7FF0D",
"S. c None",
/* pixels */
"S.S.S.S.S.S.S.S.S.S.S.S.S.S.S.S.S.S.S.S.S.S.S.S.S.S.S.S.S.S.S.S.",
"S.S.S.S.S.S.S.S.S.S.S.S.S.S.S.S.S.S.S.S.S.S.S.S.S.S.S.S.S.S.S.S.",
"S.S.5.8.@.+.+.+.+.+.o.X.X.| | | | | [ [ _ _ ) ) ) ) ' ~ S.S.S.S.",
"Q [ 8.w.7.7.7.7.7.7.@.@.+.+.+.+.+.o.o.o.o.X. . . . ...{ ! S.S.S.",
"o.7.w.e.w.w.w.w.w.w.w.w.w.w.w.w.w.w.w.w.w.w.w.w.w.w.w.5.` ! S.S.",
"7.7.w.w.w.w.w.w.w.w.w.w.w.w.w.w.w.w.w.w.w.w.w.w.w.w.w.7.[ / S.S.",
"@.@.@.@.@.@.@.@.@.@.@.@.@.@.@.@.@.@.@.@.@.@.@.@.@.@.@.o.( / S.S.",
"+.7.e.r.r.r.r.r.r.r.r.r.r.r.r.r.r.r.r.r.r.r.r.r.r.r.r.8.] Q S.S.",
"O.e.j.m.b.x.x.x.x.x.x.x.x.x.x.x.x.x.x.x.x.x.x.x.b.m.m.g.1.W S.S.",
"O.r.x.A.A.A.A.A.A.A.A.A.A.A.A.A.A.A.A.A.A.A.A.A.A.A.A.l.2.R S.S.",
"O.r.x.A.A.A.A.A.A.A.Z.Z.Z.Z.Z.Z.C.C.C.C.B.N.N.n.n.C.A.l.2.R S.S.",
"O.r.x.A.A.Z.Z.Z.Z.Z.Z.C.C.C.C.C.B.N.N.n.M.M.M.b.b.n.A.k.2.T S.S.",
"| r.x.A.A.A.A.Z.Z.Z.Z.Z.Z.C.C.C.C.B.B.B.B.B.B.M.b.B.A.k.2.P S.S.",
"| r.x.A.A.A.A.A.A.Z.Z.Z.Z.Z.Z.C.C.C.C.v.s.i.u.s.c.C.A.h.<.P S.S.",
"| q.z.A.A.A.A.A.A.A.Z.Z.Z.Z.Z.Z.Z.Z.Z.d.&.B M #.s.Z.A.h.<.P S.S.",
"| q.z.A.A.A.A.A.A.A.A.A.A.A.Z.Z.Z.Z.A.p.V e w x -.s.V.h.<.L S.S.",
"| q.z.A.A.A.A.A.A.A.A.A.A.A.A.A.A.A.A.p.V r h k z #.f.l.<.L S.S.",
"| q.z.A.A.A.A.A.A.A.A.V.f.a.p.p.p.p.p.>.M j M v t k :.t.~ L S.S.",
"} q.z.A.A.A.A.A.A.A.A.f.*.V V V B B N M x M J F x s d n Y L S.S.",
"_ q.z.A.A.A.A.A.A.A.A.a.V r j l k j h k M A #.#.Z k 7 8 b K S.S.",
") q.z.A.A.A.A.A.A.A.A.a.V j V J J J J J #.#.H H H Z g 0 2 > S.S.",
") 0.z.A.A.A.A.A.A.A.A.a.B k J ;.=.&.&.%.%.#.F S H G N a 4 = S.S.",
"( 9.z.A.A.A.A.A.A.A.A.a.B j J =.#.G F F S Z C N Z S D N a 4 & . ",
"( 9.z.A.A.A.A.A.A.A.A.a.M h J =.#.F F S S Z N N C S D m p 3 % . ",
"( 6.z.A.A.A.A.A.A.A.A.a.M y G =.&.$.#.#.#.G C C D S m f 1 - X S.",
"^ 2.y.z.z.l.l.l.k.z.z.,.z e M F S Z Z Z S S S S S m f 9 : O S.S.",
"L ! 1.4.4.3.3.3.2.2.2.E i 6 q q q q 7 q a c S S m f 1 : + @ S.S.",
"S.L W ^ Q W W R R R I U u < < , , ; = ; 4 t m m a 5 - o # S.S.S.",
"S.S.S.S.S.S.S.S.S.S.S.S.S.S.S.S.S.S.S.S.* 3 a a 1 % X S.S.S.S.S.",
"S.S.S.S.S.S.S.S.S.S.S.S.S.S.S.S.S.S.S.S.$ & 3 5 -   S.S.S.S.S.S.",
"S.S.S.S.S.S.S.S.S.S.S.S.S.S.S.S.S.S.S.S.. X % - S.S.S.S.S.S.S.S.",
"S.S.S.S.S.S.S.S.S.S.S.S.S.S.S.S.S.S.S.S.. .     S.S.S.S.S.S.S.S."
};
