/* XPM */
static char *application_edit[] = {
/* columns rows colors chars-per-pixel */
"32 32 256 2",
"   c #52603AF80F9A",
".  c #5E1943E11520",
"X  c #76A8531A1ED8",
"o  c #6F2651962092",
"O  c #73DC57F22176",
"+  c #A9F963591AD0",
"@  c #92AC67162DA1",
"#  c #8F436DF437EF",
"$  c #867D6C9A3692",
"%  c #91156A9435D6",
"&  c #B1AF6CA82532",
"*  c #BF617E06277D",
"=  c #B341735F2A99",
"-  c #AF1B7CA23F2B",
";  c #C0497BC53126",
":  c #C04D7E8A3897",
">  c #91BF7E4850ED",
",  c #A36F7D015333",
"<  c #BB9A84913CE7",
"1  c #BDBF874A39DD",
"2  c #C851843E2F87",
"3  c #C9C093DE2E48",
"4  c #CA388FBF31DA",
"5  c #ABCA84164AFD",
"6  c #BCC78BA84433",
"7  c #B4978EB25B3F",
"8  c #B95D9AD85F30",
"9  c #B6AB95A35A37",
"0  c #973C878C7B9A",
"q  c #B70D92C86C08",
"w  c #A9F9994273F8",
"e  c #C7528AD240CE",
"r  c #C4DC8FF74A39",
"t  c #C9788F1F4D13",
"y  c #C8AC9A774D65",
"u  c #D1ED9093493D",
"i  c #D2109A574367",
"p  c #CB2D96EB56F5",
"a  c #C7E198265F96",
"s  c #CF749AA15E1F",
"d  c #C3BB91CB5623",
"f  c #D1C799A75053",
"g  c #D9359A09502A",
"h  c #D18598E655E7",
"j  c #CFA8A6684E82",
"k  c #CF82A3E343D8",
"l  c #DF12BC1846DF",
"z  c #D879A67354C5",
"x  c #D86FB32D521B",
"c  c #E5EAADC859BC",
"v  c #E651B2795A9D",
"b  c #C37997EC62B2",
"n  c #C7899B6C6228",
"m  c #D27B9D896356",
"M  c #DF98AC5B601F",
"N  c #D4B0A2E46AB3",
"B  c #D7C8B13367BB",
"V  c #DD21B0766BF5",
"C  c #C0E2A1DE70D8",
"Z  c #C585A33C7E04",
"A  c #C737AB507430",
"S  c #D788A9E67759",
"D  c #DC21AC9976F4",
"F  c #DB2EACE079D5",
"G  c #DF23B442768F",
"H  c #D9B9B17C77F2",
"J  c #E60BB1DB6B79",
"K  c #EB16BCB96DBC",
"L  c #E3EEAF6B730D",
"P  c #E8E2B32270AF",
"I  c #E27DB95B7FE7",
"U  c #E2E3B3A278AC",
"Y  c #E738C9A15158",
"T  c #E8DCCC0C5CC1",
"R  c #F6F3DF235D7B",
"E  c #F7B4E15E5F6A",
"W  c #EC51C3316C6C",
"Q  c #EF33CBF46BF0",
"!  c #E369C27466D1",
"~  c #EF92DA766C03",
"^  c #F600DDB16381",
"/  c #F491DBAE6DEA",
"(  c #F1E0D38F6D80",
")  c #E8D8C14573CA",
"_  c #EF52CDF1758D",
"`  c #E5B9CF8B78C6",
"'  c #F4AAD9D5766C",
"]  c #F7F9E26862B9",
"[  c #F7EBE2D76F77",
"{  c #F8D4E2B5622D",
"}  c #F820E31A7060",
"|  c #F906E4957462",
" . c #7B9E79E183F4",
".. c #4D0A6E75A75F",
"X. c #4DF16FA2A90B",
"o. c #4EF5708DA980",
"O. c #5738764AAAF8",
"+. c #571C795DB161",
"@. c #6000769CA1A0",
"#. c #61FC79FEA361",
"$. c #766F855F96FF",
"%. c #5D7E84CEBF7E",
"&. c #7DA98ED7AED0",
"*. c #6039863ABD57",
"=. c #63E888A7BEDE",
"-. c #69E48A9CBCEA",
";. c #71F28C6AB9CA",
":. c #7BAB943EBDF2",
">. c #74CC947ABFFE",
",. c #5EF08676C0F8",
"<. c #631989A0C13D",
"1. c #6A738D5EC079",
"2. c #6BD492A3C7DD",
"3. c #6C5A9452CA85",
"4. c #6EFC9895CEB0",
"5. c #74C696CEC7A0",
"6. c #76809874C51F",
"7. c #73439959CD0D",
"8. c #7D649E2DCC10",
"9. c #70F5964ACA80",
"0. c #6FB09A22D13E",
"q. c #73D49DBCD406",
"w. c #78769F61D203",
"e. c #7E7CA1BECEEE",
"r. c #7726A0E2D6C7",
"t. c #7A65A2B4D655",
"y. c #761CA190D9C7",
"u. c #7B4BA58ADAD2",
"i. c #7E7AAA3ADF04",
"p. c #821183608E3C",
"a. c #849A88829645",
"s. c #8241854095B2",
"d. c #9A8AA332AF6C",
"f. c #9310A075B09E",
"g. c #D60BB521876C",
"h. c #D726BB9E844A",
"j. c #D8B5BFD7855A",
"k. c #D2F1B8E48AFF",
"l. c #D9A2B93A9237",
"z. c #EAEDB9908163",
"x. c #E27FBC058DD7",
"c. c #EAF6BF3D8CDC",
"v. c #E4B0BD8486A2",
"b. c #CC7BC03FB4B2",
"n. c #DE2CC63387C6",
"m. c #DCE5C0478FD9",
"M. c #DCA6C45592B0",
"N. c #E6CAC31A87B6",
"B. c #EA15C2DA87FC",
"V. c #ECECC83F8DBC",
"C. c #EC64CAFC8A05",
"Z. c #E399C7D68E62",
"A. c #EC8FD5AD8DCC",
"S. c #EB47C54D94C4",
"D. c #E634CA299070",
"F. c #EB1CC6A09DBC",
"G. c #E372CEEF9885",
"H. c #E6E7C6BE97CB",
"J. c #F8E1C7BF90AD",
"K. c #F23DCD4E9D7F",
"L. c #E9EED4C794B5",
"P. c #EE92DA90955D",
"I. c #EED9DD699DA5",
"U. c #F19FDD399353",
"Y. c #F4D4DACB9CB5",
"T. c #F8ECE6318A87",
"R. c #FA06E8AB8B44",
"E. c #F506E190966C",
"W. c #F878E2F29FBD",
"Q. c #FAFFED829C35",
"!. c #D04FC084A52B",
"~. c #CCF7C364BCB0",
"^. c #EDEECBDEA1B5",
"/. c #E072CE51AF9A",
"(. c #EE03CE6CAA44",
"). c #F281D03CA5AB",
"_. c #F18DCF0CAA4B",
"`. c #EF8EDE54A17F",
"'. c #E7D7D3CFAF31",
"]. c #E767D971AE81",
"[. c #EA49D2E3AEE0",
"{. c #F1ACDF8EA2B6",
"}. c #F91CD465A3B3",
"|. c #E632D73CB441",
" X c #EFD5D685B3A7",
".X c #E9C4DA5DB46D",
"XX c #F652D77EB557",
"oX c #F75DDAA5BB08",
"OX c #F068E1A0A0ED",
"+X c #F182E225A6E9",
"@X c #FA12ECC2A767",
"#X c #F670E847AB15",
"$X c #F7C5E9DEABD3",
"%X c #FA1FED29A986",
"&X c #ED68E246B420",
"*X c #F20FE652BBEC",
"=X c #81EEA01ACBCE",
"-X c #83F1A227CE78",
";X c #89D6A6BDD0E8",
":X c #85F1A933D696",
">X c #8E4BAB58D43E",
",X c #82C0AB86DE2C",
"<X c #8940AE7CDC99",
"1X c #90C0AE15D76C",
"2X c #9151AF96D86E",
"3X c #8D6CB0AFDD7C",
"4X c #9561B4E7DDCD",
"5X c #8BCBB402E4D8",
"6X c #9226B6DEE40F",
"7X c #9AF8BC55E516",
"8X c #B4BAC2C3DACA",
"9X c #BE7ACEA7E5E6",
"0X c #D5EED720D7D4",
"qX c #D0D2D28BD8A6",
"wX c #DA6ED58AD182",
"eX c #F5B0DE4FC29A",
"rX c #FBA9DFCAC26A",
"tX c #EAC8E025D051",
"yX c #E982E656CE2A",
"uX c #F612E4F5CFCD",
"iX c #F889E28AC8E5",
"pX c #FC72E155C4C1",
"aX c #EE10E807D58C",
"sX c #EE9CEB9DD5D8",
"dX c #E66EE2B0D510",
"fX c #FAB4E772D1C3",
"gX c #F164E977D688",
"hX c #F319EDBFDBAA",
"jX c #FA8FEE01DB3B",
"kX c #FD86EAE0D55C",
"lX c #F5FFF291DDCC",
"zX c #C072D2EBEBD0",
"xX c #D2C3D786E0E4",
"cX c #D52FDD25EABC",
"vX c #D385DA06E60C",
"bX c #C62AD8F9F079",
"nX c #DBE5E5E0F373",
"mX c #DFAAEA49F74D",
"MX c #E054EB36F8B0",
"NX c #EBDCEDFAECF8",
"BX c #FC98EFACE06C",
"VX c #EFCFF2DEEFA8",
"CX c #FD2BF64BEB36",
"ZX c #FE2BF882F027",
"AX c #E1ADEBC7F7E5",
"SX c #E1BCED24FB0D",
"DX c #EA74EF2EF46B",
"FX c #EE9FF415FA40",
"GX c #F573F674F24A",
"HX c #F903F717F232",
"JX c #F7DDF9B3F437",
"KX c #FBB6FA84F4D9",
"LX c #F2FBF711FB03",
"PX c #F69DFA28FC4D",
"IX c #FD55FEAFFEC9",
"UX c None",
/* pixels */
"UXUXUXUXUXUXUXUXUXUXUXUXUXUXUXUXUXUXUXUXUXUXUXUXUXUXUXUXUXUXUXUX",
"UXUXUXUXUXUXUXUXUXUXUXUXUXUXUXUXUXUXUXUXUXUXUXUXUXUXUXUXUXUXUXUX",
"UXUX:X<Xi.u.u.u.u.u.t.r.r.q.q.q.q.q.7.7.4.4.3.3.3.3.6.>.UXUXUXUX",
"=.7.<X5X,X,X,X,X,X,Xi.i.u.u.u.u.u.t.t.t.t.r.w.w.w.w.e.8.-.UXUXUX",
"t.,X5X6X5X5X5X5X5X5X5X5X5X5X5X5X5X5X5X5X5X5X5X5X5X5X5X:X5.-.UXUX",
",X,X5X5X5X5X5X5X5X5X5X5X5X5X5X5X5X5X5X5X5X5X5X5X5X5X5X,X7.1.UXUX",
"i.i.i.i.i.i.i.i.i.i.i.i.i.i.i.i.i.i.i.i.i.i.i.i.i.i.i.t.2.1.UXUX",
"u.,X6X7X7X7X7X7X7X7X7X7X7X7X7X7X7X7X7X7X7X7X7X7X7X7X7X3X9.<.UXUX",
"y.6XbXAXAXmXmXmXmXmXmXmXmXmXmXmXmXmXmXmXmXMXMXAXSXSXSXzX8.%.UXUX",
"y.7XmXIXIXIXIXIXIXIXIXIXIXIXIXIXIXIXIXIXIXIXKXCXjXjXBXwXd.$.UXUX",
"y.7XmXIXIXIXIXIXIXIXPXPXPXPXPXPXLXLXLXLXFXNXaX.XZ.v.H.l.C 9 UXUX",
"y.7XmXIXIXPXPXPXPXPXPXLXLXLXLXLXFXFXFXDXNXdX|.Z.G G x.x.V z i UX",
"q.7XmXIXIXIXIXPXPXPXPXPXPXLXLXLXLXFXFXNXyX].D.N.S.(.eXeX^.I h e ",
"q.7XmXIXIXIXIXIXIXPXPXPXPXPXPXLXLXLXVXsX&XL.C.V.^.oXfXkXeXF.N t ",
"q.4XmXIXIXIXIXIXIXIXPXPXPXPXPXPXPXGXsX&XP.A.Y.).F.^.XXrXpX_.D s ",
"q.4XnXIXIXIXIXIXIXIXIXIXPXPXPXPXGXhX&XI.U.E.W.Y.C.B.S.^._.F.F m ",
"q.4XnXIXIXIXIXIXIXIXIXIXIXIXIXJXhX*XP.U.$X%XT.' _ ) U D F S N UX",
"q.4XnXIXIXIXIXIXIXIXIXIXIXIXJXlX*X{.U.E.@XQ.| ^ ( W M s q q UXUX",
"0.4XnXIXIXIXIXIXIXIXIXIXIXKXlX*XP.U.$X%XT.} ] ^ ' Q c a 0 p.UXUX",
"4.4XnXIXIXIXIXIXIXIXIXIXHXhX*X`.U.E.%XQ.} R ^ ^ Q W K Z a.#.UXUX",
"3.4XnXIXIXIXIXIXIXIXIXHXaX.XL.P.#X%XT.[ E R / Q v J K.b.&.O.UXUX",
"3.2XnXIXIXIXIXIXIXIXJXhX|.G.A.U.%XQ.} R R ^ Q K J c.iXqX:.o.UXUX",
"2.1XnXIXIXIXIXIXIXKXgX|.M.Z.+X@XR.| { ^ / Q v J ^.uXCXvX:.X.UXUX",
"2.1XnXIXIXIXIXIXHXgX|.M.h.n.OXQ.| R ^ ^ Q K J c.uXKXIXcX:...UXUX",
"2.>XnXIXIXIXIXHXtX/.M.h.k.j.` ~ ^ ^ / Q v P ).fXZXIXIXcX:...UXUX",
"<.-X9XnXnXnXnX0X!.k.M.m.g.H x l Y T ! B n Z ~.xXcXcXcX8X;...UXUX",
"+.-.=X>X;X;X;Xf.w A '. XG f 4 3 k j y 7 0 s.&.:.:.:.:.;.+.o.UXUX",
"UX+.*.<.=.,.,.$.> 8 [.oXz.g 2 * 1 1 < ,  .@.O.o.X.......o.UXUXUX",
"UXUXUXUXUXUXUXUX$ 5 x.}.J.P u ; = = = UXUXUXUXUXUXUXUXUXUXUXUXUX",
"UXUXUXUXUXUXUXUXO # b U z.L h : & + UXUXUXUXUXUXUXUXUXUXUXUXUXUX",
"UXUXUXUXUXUXUXUX. o % 5 d p r < UXUXUXUXUXUXUXUXUXUXUXUXUXUXUXUX",
"UXUXUXUXUXUXUXUX  . X @ - 6 6 6 UXUXUXUXUXUXUXUXUXUXUXUXUXUXUXUX"
};
