/* XPM */
static char *arrow_rotate_clockwise[] = {
/* columns rows colors chars-per-pixel */
"32 32 73 1",
"  c #31B575072C5D",
". c #34C178D52ECA",
"X c #36AB7A6030A1",
"o c #38FA7C38336B",
"O c #3C41820435C2",
"+ c #3F87862B38C8",
"@ c #41EB85453C55",
"# c #44018B113CE3",
"$ c #4560878D3FE6",
"% c #462788EE40A5",
"& c #49AC8C6843BC",
"* c #4CD1936545A9",
"= c #4EB499A34677",
"- c #4FC393604995",
"; c #528C96964C27",
": c #53E29C074BEA",
"> c #55E397D94FF2",
", c #569E98D750FB",
"< c #5A779E7F538E",
"1 c #56DAA14F4E3B",
"2 c #588AA4C44F74",
"3 c #5C36A3BD53D4",
"4 c #5E26AB5654B3",
"5 c #5FD0A2B05A5F",
"6 c #60C1AFF255C3",
"7 c #6293A6385B35",
"8 c #6574AA8D5D15",
"9 c #6175B12E56DA",
"0 c #6599B5185B36",
"q c #68CBB3305F43",
"w c #691FBA8A5DB6",
"e c #667CA8246066",
"r c #6B0DAD086406",
"t c #6E6AAF826878",
"y c #6DC3B2B4650F",
"u c #6EE9B9926501",
"i c #7041B83165FA",
"p c #717DB92F67AF",
"a c #736BB39C6C60",
"s c #74FBBC026AB5",
"d c #7915BAE26F60",
"f c #76F7B56A7001",
"g c #7869B72A7163",
"h c #7B93BBAA742C",
"j c #7EDFBE6878A0",
"k c #730BC17567BC",
"l c #7566C2076A61",
"z c #7939C20D6E11",
"x c #7D2FC51C7251",
"c c #7FDCC0F978D6",
"v c #8046BF717717",
"b c #815CBF3079FF",
"n c #8038C641759B",
"m c #84BBC3577D45",
"M c #894AC4C37F75",
"N c #86EEC8657CF2",
"B c #8913C9B87E5D",
"V c #8772C54180BE",
"C c #8ACBC655832E",
"Z c #8D0DC99D857B",
"A c #8F9BCA9B8884",
"S c #90E2CAD186AF",
"D c #94BBCC7D8BCE",
"F c #9846CF508E91",
"G c #99A9D09E8F57",
"H c #9AEECF7E923D",
"J c #9D68D1C09414",
"K c #A088D27A97A9",
"L c #A542D59F9BEA",
"P c #A8DED7579F6D",
"I c #AA4BD823A10E",
"U c #AB85D8F9A1C4",
"Y c None",
/* pixels */
"YYYYYYYYYYYYYYYYYYYYYYYYYYYYYYYY",
"YYYYYYYYYYYYYYYYYYYYYYYYYYYYYYYY",
"YYYYYYYYYYYYYYYYYYYYYYYYYYYYYYYY",
"YYYYYYYYYYYYYYYYYYYYYYYYYYYYYYYY",
"YYYYYYYYYYYYwww00096YYYYYYYYYYYY",
"YYYYYYYYYYYzzzzzsspiyYYYYYYYYYYY",
"YYYYYYYYYkxBSFGGFDSMhy4YYYYYYYYY",
"YYYYYYYYlxBDJLPUILJDVhr3YYYYYYYY",
"YYYYYYYknZJLLLPPPLJHFChr3YYYYYYY",
"YYYYYYkxZJLILKJHHHHJJHVd7:YYYYYY",
"YYYYYYxBJLPPLHSMMCDHJHDmt5YYYYYY",
"YYYYYzNDLIPKDCvddhbCDHHZge:YYYYY",
"YYYYwzAJLPLDgyq8877yVDDCba;@YYYY",
"YYYYwsNSDDZvq2YYYY=3hCZZCf;+YYYY",
"YYYY0wuppuyq4YYYYYY3yhCAZg;OYYYY",
"YYYY009944432YYYYYY<8amAAg-OYYYY",
"YYYYYYYYYYYY11YYYYY:8amZZa*oYYYY",
"YYYYYYYYYYYY::YYYY#:edmVVa&XYYYY",
"YYYYYYYYYY::::YYY##;avmmjr&.YYYY",
"YYYYYYYYYY33::YY*;;7gmmha7% YYYY",
"YYYYYYYY:17873**:7ahmmmhe>@YYYYY",
"YYYYYYYY15yaar3<8abVMmjt,&YYYYYY",
"YYYYYY:17yjMmbhhhjcmmjt<$oYYYYYY",
"YYYYYY::7aMAZZZCCmjhgt<&oYYYYYYY",
"YYYYYY=:7amZZCCVVmha8,#oYYYYYYYY",
"YYYYYY=:<8gbjhaaate7;%oYYYYYYYYY",
"YYYYYYYY*:7re5;&&&%@@YYYYYYYYYYY",
"YYYYYYYY#*;;;*@X..  YYYYYYYYYYYY",
"YYYYYYYYYY##@@YYYYYYYYYYYYYYYYYY",
"YYYYYYYYYYOOooYYYYYYYYYYYYYYYYYY",
"YYYYYYYYYYYYXXYYYYYYYYYYYYYYYYYY",
"YYYYYYYYYYYYXXYYYYYYYYYYYYYYYYYY"
};
