/* XPM */
static char * arrow_left_right_xpm[] = {
"32 32 350 2",
"  	c None",
". 	c #4D9745",
"+ 	c #4C9544",
"@ 	c #4A9242",
"# 	c #489040",
"$ 	c #448B3C",
"% 	c #4E9546",
"& 	c #4D9345",
"* 	c #4A8F42",
"= 	c #468B3F",
"- 	c #74C768",
"; 	c #73C767",
"> 	c #71C665",
", 	c #70C464",
"' 	c #6EC162",
") 	c #6CBF60",
"! 	c #6ABC5E",
"~ 	c #67B95C",
"{ 	c #65B65A",
"] 	c #62B257",
"^ 	c #5EAE55",
"/ 	c #5BAA52",
"( 	c #58A64F",
"_ 	c #55A24C",
": 	c #529E49",
"< 	c #4F9A46",
"[ 	c #4B9543",
"} 	c #489140",
"| 	c #4D9445",
"1 	c #579B4F",
"2 	c #5A9D52",
"3 	c #579A50",
"4 	c #4F9248",
"5 	c #3F8238",
"6 	c #77C86B",
"7 	c #7ECB73",
"8 	c #81CB76",
"9 	c #80C974",
"0 	c #7EC772",
"a 	c #7CC570",
"b 	c #7AC36E",
"c 	c #77C06C",
"d 	c #75BD6A",
"e 	c #72BB68",
"f 	c #6FB765",
"g 	c #6CB463",
"h 	c #69B061",
"i 	c #66AD5E",
"j 	c #63AA5B",
"k 	c #60A658",
"l 	c #5CA355",
"m 	c #599F52",
"n 	c #5DA155",
"o 	c #67A85F",
"p 	c #6BAB64",
"q 	c #68A961",
"r 	c #5C9D56",
"s 	c #478941",
"t 	c #3A7C34",
"u 	c #95D28A",
"v 	c #A0D596",
"w 	c #9ED494",
"x 	c #9CD292",
"y 	c #9AD190",
"z 	c #98D08E",
"A 	c #95CE8C",
"B 	c #93CD8A",
"C 	c #91CB88",
"D 	c #8FC986",
"E 	c #8CC784",
"F 	c #89C582",
"G 	c #87C37F",
"H 	c #84C17C",
"I 	c #81BF7A",
"J 	c #7EBD77",
"K 	c #7CBB75",
"L 	c #7BBB75",
"M 	c #7EBD78",
"N 	c #7CBC76",
"O 	c #6EAF68",
"P 	c #569750",
"Q 	c #43853D",
"R 	c #33742E",
"S 	c #B0DBA7",
"T 	c #AED9A5",
"U 	c #ABD8A2",
"V 	c #A9D7A0",
"W 	c #A7D69E",
"X 	c #A5D59C",
"Y 	c #A3D49A",
"Z 	c #A1D398",
"` 	c #9FD296",
" .	c #9CD195",
"..	c #9ACF93",
"+.	c #97CE90",
"@.	c #95CD8E",
"#.	c #92CC8B",
"$.	c #90CB89",
"%.	c #8DC987",
"&.	c #8BC885",
"*.	c #88C682",
"=.	c #86C680",
"-.	c #84C57F",
";.	c #76B771",
">.	c #5C9E57",
",.	c #468740",
"'.	c #32722D",
").	c #266622",
"!.	c #ADD9A4",
"~.	c #A8D79F",
"{.	c #A6D69D",
"].	c #A4D59B",
"^.	c #A2D399",
"/.	c #A0D297",
"(.	c #9ED195",
"_.	c #9BD093",
":.	c #99CF91",
"<.	c #96CE8F",
"[.	c #94CD8D",
"}.	c #91CC8A",
"|.	c #8FCA88",
"1.	c #8CC985",
"2.	c #8AC783",
"3.	c #87C681",
"4.	c #84C47E",
"5.	c #83C47D",
"6.	c #81C37B",
"7.	c #73B56E",
"8.	c #599B54",
"9.	c #43843E",
"0.	c #2F6F2B",
"a.	c #246320",
"b.	c #6FC162",
"c.	c #7AC56E",
"d.	c #8ECC84",
"e.	c #99CF8F",
"f.	c #96CD8D",
"g.	c #93CB8A",
"h.	c #91CA88",
"i.	c #8EC885",
"j.	c #8CC583",
"k.	c #8AC381",
"l.	c #87C27F",
"m.	c #84C07C",
"n.	c #81BE79",
"o.	c #7FBC77",
"p.	c #7CBA75",
"q.	c #79B872",
"r.	c #76B570",
"s.	c #75B46E",
"t.	c #74B46E",
"u.	c #75B66F",
"v.	c #78B972",
"w.	c #77B971",
"x.	c #73B56D",
"y.	c #65A75F",
"z.	c #4D8F48",
"A.	c #3B7C37",
"B.	c #2D6D29",
"C.	c #6EBF61",
"D.	c #70BF64",
"E.	c #75C06A",
"F.	c #76BE6C",
"G.	c #73BB69",
"H.	c #70B867",
"I.	c #6DB564",
"J.	c #6BB162",
"K.	c #68AE5F",
"L.	c #65AB5C",
"M.	c #62A759",
"N.	c #5FA457",
"O.	c #5CA054",
"P.	c #599D51",
"Q.	c #55994E",
"R.	c #52954B",
"S.	c #4E9148",
"T.	c #52944C",
"U.	c #599B53",
"V.	c #63A65E",
"W.	c #64A75F",
"X.	c #5B9E56",
"Y.	c #4C8E47",
"Z.	c #387934",
"`.	c #2C6C28",
" +	c #6DBE61",
".+	c #6BBD5F",
"++	c #68B95C",
"@+	c #64B55A",
"#+	c #61B257",
"$+	c #5EAE54",
"%+	c #4E9A46",
"&+	c #458D3D",
"*+	c #41883A",
"=+	c #3D8437",
"-+	c #3A8033",
";+	c #3A7F34",
">+	c #3F8339",
",+	c #468940",
"'+	c #4E9149",
")+	c #44863F",
"!+	c #3A7B35",
"~+	c #2B6B28",
"{+	c #387A33",
"]+	c #367732",
"^+	c #33742F",
"/+	c #276723",
"(+	c #266522",
"_+	c #246421",
":+	c #73C667",
"<+	c #72C666",
"[+	c #71C465",
"}+	c #79C96D",
"|+	c #79C86D",
"1+	c #77C66B",
"2+	c #74C369",
"3+	c #82CB77",
"4+	c #85CB79",
"5+	c #83C977",
"6+	c #7CC470",
"7+	c #6EBC63",
"8+	c #64B559",
"9+	c #3E8437",
"0+	c #3A8034",
"a+	c #377C31",
"b+	c #34782E",
"c+	c #31742C",
"d+	c #30712A",
"e+	c #2F702A",
"f+	c #81CB75",
"g+	c #8ECF83",
"h+	c #93D089",
"i+	c #91CE87",
"j+	c #89C97F",
"k+	c #7CC272",
"l+	c #74BD6A",
"m+	c #72BA67",
"n+	c #5DA355",
"o+	c #5AA052",
"p+	c #579C50",
"q+	c #54984D",
"r+	c #51954A",
"s+	c #4D9147",
"t+	c #4A8E45",
"u+	c #488B42",
"v+	c #40823A",
"w+	c #33752E",
"x+	c #2D6E28",
"y+	c #82CA76",
"z+	c #8DCE82",
"A+	c #9DD393",
"B+	c #A4D69A",
"C+	c #A2D498",
"D+	c #9DD294",
"E+	c #97CF8E",
"F+	c #93CC8A",
"G+	c #91CB87",
"H+	c #79B973",
"I+	c #77B771",
"J+	c #74B56E",
"K+	c #72B36C",
"L+	c #70B26A",
"M+	c #6EB068",
"N+	c #5B9D55",
"O+	c #286924",
"P+	c #84CA79",
"Q+	c #92CF88",
"R+	c #A3D59A",
"S+	c #A8D7A0",
"T+	c #89C783",
"U+	c #85C57F",
"V+	c #84C57E",
"W+	c #82C57D",
"X+	c #69AC64",
"Y+	c #3C7D38",
"Z+	c #256521",
"`+	c #82C877",
" @	c #90CD86",
".@	c #A1D497",
"+@	c #8AC784",
"@@	c #86C580",
"#@	c #81C37C",
"$@	c #7FC479",
"%@	c #66AA61",
"&@	c #397A36",
"*@	c #22621F",
"=@	c #75C369",
"-@	c #7CC471",
";@	c #86C87C",
">@	c #95CD8B",
",@	c #9CD093",
"'@	c #9BD092",
")@	c #98CD8F",
"!@	c #92C989",
"~@	c #8CC584",
"{@	c #88C27F",
"]@	c #76B670",
"^@	c #74B36D",
"/@	c #71B16B",
"(@	c #6FAF69",
"_@	c #6CAE67",
":@	c #6AAC64",
"<@	c #68AA62",
"[@	c #67A961",
"}@	c #65A860",
"|@	c #52954E",
"1@	c #32722E",
"2@	c #215F1E",
"3@	c #6FBD64",
"4@	c #76BE6B",
"5@	c #81C277",
"6@	c #88C57E",
"7@	c #8BC682",
"8@	c #85C27C",
"9@	c #78B86F",
"0@	c #6DB064",
"a@	c #64A95C",
"b@	c #5EA456",
"c@	c #5BA053",
"d@	c #52964B",
"e@	c #4C8F45",
"f@	c #498B43",
"g@	c #468840",
"h@	c #43853E",
"i@	c #40823B",
"j@	c #3E7E39",
"k@	c #397A35",
"l@	c #266523",
"m@	c #205E1D",
"n@	c #6BB860",
"o@	c #71B967",
"p@	c #75B96B",
"q@	c #77BA6E",
"r@	c #73B66A",
"s@	c #68AD5F",
"t@	c #5CA453",
"u@	c #519B49",
"v@	c #31742B",
"w@	c #2E6F28",
"x@	c #2B6C26",
"y@	c #286823",
"z@	c #64AF5A",
"A@	c #63AD5A",
"B@	c #61AA58",
"C@	c #60A857",
"D@	c #5CA554",
"E@	c #58A54F",
"F@	c #55A14C",
"G@	c #539E4A",
"H@	c #519C48",
"I@	c #509B47",
"                                                                ",
"                                                                ",
"                                            . +                 ",
"                                            @ # $               ",
"                                            % & * =             ",
"    - - ; > , ' ) ! ~ { ] ^ / ( _ : < [ } | 1 2 3 4 5           ",
"    - 6 7 8 9 0 a b c d e f g h i j k l m n o p q r s t         ",
"    ; 7 u v w x y z A B C D E F G H I J K L J M N O P Q R       ",
"    > 8 v S T U V W X Y Z `  ...+.@.#.$.%.&.*.=.-.;.>.,.'.).    ",
"    , 9 w !.U ~.{.].^./.(._.:.<.[.}.|.1.2.3.4.5.6.7.8.9.0.a.    ",
"    b.c.d.e.f.g.h.i.j.k.l.m.n.o.p.q.r.s.t.u.v.w.x.y.z.A.B.      ",
"    C.D.E.F.G.H.I.J.K.L.M.N.O.P.Q.R.4 S.T.U.V.W.X.Y.Z.`.        ",
"     +.+++@+#+$+/ ( _ : %+[ } &+*+=+-+;+>+,+'+z.)+!+~+          ",
"                                          {+]+^+0.`.            ",
"                                            /+(+a.              ",
"                                            _+a.                ",
"                :+:+                                            ",
"              <+[+[+                                            ",
"            }+|+1+2+                                            ",
"          }+3+4+5+6+7+8+#+^ / ( _ : < [ } &+*+9+0+a+b+c+d+e+    ",
"        }+f+g+h+i+j+k+l+m+f g h i j k n+o+p+q+r+s+t+u+v+w+x+    ",
"      }+y+z+A+B+C+D+E+F+G+D E F G H I J K H+I+J+K+L+M+N+!+O+    ",
"    <+|+P+Q+R+U S+{.X Y Z `  ...+.@.#.$.%.&.T+3.U+V+W+X+Y+Z+    ",
"    [+1+`+ @.@~.X Y Z /.(._.:.<.[.}.|.1.+@*.@@4.#@6.$@%@&@*@    ",
"      =@-@;@>@,@'@)@!@~@{@m.n.o.p.q.]@^@/@(@_@:@<@[@}@|@1@2@    ",
"        3@4@5@6@7@8@9@0@a@b@c@P.Q.d@4 e@f@g@h@i@j@A.k@1@l@m@    ",
"          n@o@p@q@r@s@t@u@[ } &+*+9+0+a+b+v@w@x@y@Z+*@2@m@m@    ",
"            z@A@B@C@D@                                          ",
"              E@F@G@                                            ",
"                H@I@                                            ",
"                                                                ",
"                                                                "};
