/* XPM */
static char *bullet_toggle_plus[] = {
/* columns rows colors chars-per-pixel */
"32 32 74 1",
"  c #6FEE6FEE6FEE",
". c #709670967096",
"X c #715D715D715D",
"o c #731D731D731D",
"O c #75D375D375D3",
"+ c #764576457645",
"@ c #777E777E777E",
"# c #78C078C078C0",
"$ c #7B6E7B6E7B6E",
"% c #7EB97EB97EB9",
"& c #7F7F7F7F7F7F",
"* c #814A814A814A",
"= c #825D825D825D",
"- c #837883788378",
"; c #842A842A842A",
": c #87A287A287A2",
"> c #884088408840",
", c #8A628A628A62",
"< c #8BE88BE88BE8",
"1 c #8CA58CA58CA5",
"2 c #8DC38DC38DC3",
"3 c #8E1C8E1C8E1C",
"4 c #8FB48FB48FB4",
"5 c #90E790E790E7",
"6 c #91A491A491A4",
"7 c #923C923C923C",
"8 c #935693569356",
"9 c #94C394C394C3",
"0 c #96D696D696D6",
"q c #979197919791",
"w c #9AA69AA69AA6",
"e c #9B999B999B99",
"r c #9EB49EB49EB4",
"t c #9F7D9F7D9F7D",
"y c #A0A3A0A3A0A3",
"u c #A272A272A272",
"i c #A4D2A4D2A4D2",
"p c #A5BFA5BFA5BF",
"a c #A7C4A7C4A7C4",
"s c #A9ABA9ABA9AB",
"d c #AA62AA62AA62",
"f c #AC87AC87AC87",
"g c #ADD0ADD0ADD0",
"h c #AF8DAF8DAF8D",
"j c #B0C5B0C5B0C5",
"k c #B1E1B1E1B1E1",
"l c #B29AB29AB29A",
"z c #B391B391B391",
"x c #B4CCB4CCB4CC",
"c c #B5B6B5B6B5B6",
"v c #B686B686B686",
"b c #B76EB76EB76E",
"n c #B8B1B8B1B8B1",
"m c #BA0EBA0EBA0E",
"M c #BA4EBA4EBA4E",
"N c #BB85BB85BB85",
"B c #BCB3BCB3BCB3",
"V c #BDBABDBABDBA",
"C c #BEA3BEA3BEA3",
"Z c #BFBCBFBCBFBC",
"A c #C0DDC0DDC0DD",
"S c #C1CBC1CBC1CB",
"D c #C2D7C2D7C2D7",
"F c #C378C378C378",
"G c #C484C484C484",
"H c #CD2DCD2DCD2D",
"J c #CDD1CDD1CDD1",
"K c #CE6ECE6ECE6E",
"L c #D20FD20FD20F",
"P c #E334E334E334",
"I c #E3DFE3DFE3DF",
"U c #F2FCF2FCF2FC",
"Y c #FCA8FCA8FCA8",
"T c None",
/* pixels */
"TTTTTTTTTTTTTTTTTTTTTTTTTTTTTTTT",
"TTTTTTTTTTTTTTTTTTTTTTTTTTTTTTTT",
"TTTTTTTTTTTTTTTTTTTTTTTTTTTTTTTT",
"TTTTTTTTTTTTTTTTTTTTTTTTTTTTTTTT",
"TTTTTTTTTTTTTTTTTTTTTTTTTTTTTTTT",
"TTTTTTTTTTTTTTTTTTTTTTTTTTTTTTTT",
"TTTTTTTTTTTTTTTTTTTTTTTTTTTTTTTT",
"TTTTTTTTTTTTTTTTTTTTTTTTTTTTTTTT",
"TTTTTTTTTFACNncljgdapTTTTTTTTTTT",
"TTTTTTTTDSAZVNnvxzjfiyTTTTTTTTTT",
"TTTTTTTTZZSSSACVCCVxieTTTTTTTTTT",
"TTTTTTTTNVAAVSHHSCDnu0TTTTTTTTTT",
"TTTTTTTTvmZVzAPPAxCbr6TTTTTTTTTT",
"TTTTTTTTkvCSALUULSDcw1TTTTTTTTTT",
"TTTTTTTTglBHPUYYUIKz0:TTTTTTTTTT",
"TTTTTTTTshNHPUYYUIKl8-TTTTTTTTTT",
"TTTTTTTTifNDSLUULSFl5&TTTTTTTTTT",
"TTTTTTTTysNCxSIIScAl3$TTTTTTTTTT",
"TTTTTTTTepMFZFKKFAGk,+TTTTTTTTTT",
"TTTTTTTTqtgxxljjjjjy-oTTTTTTTTTT",
"TTTTTTTT89009742<,>=@.TTTTTTTTTT",
"TTTTTTTTT2,:;*%$#OoX TTTTTTTTTTT",
"TTTTTTTTTTTTTTTTTTTTTTTTTTTTTTTT",
"TTTTTTTTTTTTTTTTTTTTTTTTTTTTTTTT",
"TTTTTTTTTTTTTTTTTTTTTTTTTTTTTTTT",
"TTTTTTTTTTTTTTTTTTTTTTTTTTTTTTTT",
"TTTTTTTTTTTTTTTTTTTTTTTTTTTTTTTT",
"TTTTTTTTTTTTTTTTTTTTTTTTTTTTTTTT",
"TTTTTTTTTTTTTTTTTTTTTTTTTTTTTTTT",
"TTTTTTTTTTTTTTTTTTTTTTTTTTTTTTTT",
"TTTTTTTTTTTTTTTTTTTTTTTTTTTTTTTT",
"TTTTTTTTTTTTTTTTTTTTTTTTTTTTTTTT"
};
