/* XPM */
static char *folder_picture[] = {
/* columns rows colors chars-per-pixel */
"32 32 256 2",
"   c #557C9FCB3CDA",
".  c #758489B328F6",
"X  c #6BE48D4E3E4B",
"o  c #72558DBD3680",
"O  c #7D2892783432",
"+  c #771E9A2F366F",
"@  c #69919C543DB1",
"#  c #62E6AABA35C2",
"$  c #7B6BB7CE3BC4",
"%  c #732BB4AF3953",
"&  c #74B4ABE1372C",
"*  c #5DF2903E53A3",
"=  c #64D993C955D1",
"-  c #7C0B9C804B71",
";  c #788CABD54F30",
":  c #76AAB2B84541",
">  c #6A11A8A557E6",
",  c #7803B1A25A42",
"<  c #5D0E9E3865B2",
"1  c #61489E1C605A",
"2  c #7584A5616622",
"3  c #7E58B2EC687A",
"4  c #797BAB1072B4",
"5  c #9B7986483289",
"6  c #84C599BC3848",
"7  c #8143968437D0",
"8  c #B9518E422B11",
"9  c #BB2690552E2D",
"0  c #AF11995F3EE0",
"q  c #BDA2937E31B0",
"w  c #D7818418264B",
"e  c #D7FA85C72A28",
"r  c #D8FD8BD32E09",
"t  c #D87385D82A8E",
"y  c #D9C191BB2FA1",
"u  c #D9B99256300A",
"i  c #D9B79CCB3037",
"p  c #DEDE99AF3D78",
"a  c #D8ED91933B1B",
"s  c #C86D9AB03DBD",
"d  c #D9B6ABB32F41",
"f  c #D9B2B05A2F8D",
"g  c #D9B9A5513068",
"h  c #D9B6A8BE2FE0",
"j  c #D99AB34631BC",
"k  c #DBBCB8043E33",
"l  c #F156CD282A88",
"z  c #F22BCF2D3C63",
"x  c #F1B0CDE4329F",
"c  c #F2CFD1763BF4",
"v  c #8D7C8ADF5163",
"b  c #AD4C93BF40C2",
"n  c #856FBDE143CB",
"m  c #8B08BF6445A3",
"M  c #91FEA2CB5C93",
"N  c #A19CAD2C5E50",
"B  c #BC48984F6A43",
"V  c #8ED4BDF56C07",
"C  c #80F7B2987A4F",
"Z  c #81CCA8837D07",
"A  c #AD57A5D567AA",
"S  c #BF72A03C6E24",
"D  c #DF469B73435C",
"F  c #DFBB9D734B72",
"G  c #CA69964950EC",
"H  c #E0969F845104",
"J  c #DD5DA3F654F4",
"K  c #DE64A7785E75",
"L  c #DF60BE31512A",
"P  c #DDF2BBF94992",
"I  c #E209A82B4B38",
"U  c #E1F1A5415A77",
"Y  c #E2CDAAA05D4C",
"T  c #E273A8CE53C6",
"R  c #EAFBBDD55CD5",
"E  c #E125B49B5F6E",
"W  c #DE7BA794613C",
"Q  c #DE97A9236337",
"!  c #D430A3B663D2",
"~  c #D4BFACD87279",
"^  c #DE2ABB907079",
"/  c #C4B9AE456BC3",
"(  c #E33CACF461EB",
")  c #E41FB3F963A8",
"_  c #E37BBD1164F1",
"`  c #E52BB5476DCA",
"'  c #EBB9C033618E",
"]  c #E6AAB65570DA",
"[  c #E916BE3A7BEC",
"{  c #8D1CC25B4815",
"}  c #9534C4154EE0",
"|  c #9D22C9E54C1E",
" . c #97C7C67D46FE",
".. c #9D8ACA7652E8",
"X. c #A317CCDE5302",
"o. c #9D21C49D79C0",
"O. c #9AC1C6666774",
"+. c #A5B7CB8B7202",
"@. c #AC21CDC47E75",
"#. c #B2A3D45A73C6",
"$. c #A30BCAC36B76",
"%. c #F341D2E644E9",
"&. c #F3C9D4B94C26",
"*. c #E218C2055B3E",
"=. c #E51FC333577F",
"-. c #F21ACFE9586B",
";. c #F463D64F5368",
":. c #F3C2D53C5BE7",
">. c #F58CD9755BF6",
",. c #F487D8655675",
"<. c #E3D3C3DE6708",
"1. c #ECA1C29C6B2C",
"2. c #EC1DC0EF6547",
"3. c #F2B4D33D63D4",
"4. c #F616DB4F64AC",
"5. c #F6B0DCDF6CC7",
"6. c #F379D4FA6C22",
"7. c #EC83C3EF7354",
"8. c #EF20CB7E75A6",
"9. c #ED3CC5F77B9F",
"0. c #EA35CB5C7702",
"q. c #F6FCDE6A73FD",
"w. c #F677DDA67BF3",
"e. c #F3FAD6C87473",
"r. c #F7E1E1467CD3",
"t. c #F8BEE1C27C69",
"y. c #67DCA2C68C70",
"u. c #71658DC4B953",
"i. c #746790CFBCE4",
"p. c #7BBF95C7BC18",
"a. c #7B3EA7D4AC7B",
"s. c #7E34AAEABED0",
"d. c #741C927FC20F",
"f. c #7A5F96EDC2E4",
"g. c #7CC498D9C38F",
"h. c #975C948892DD",
"j. c #96FBBD118F57",
"k. c #861AA37297D3",
"l. c #82F2B1AE9D4B",
"z. c #8D429D15A946",
"x. c #9470A396AF7C",
"c. c #9983B214A481",
"v. c #92EBB7BAAFB3",
"b. c #80A7AC60B54E",
"n. c #8E05B6ACBB70",
"m. c #9A3ABBB2BBAA",
"M. c #8619AED3A847",
"N. c #A447A54CA89E",
"B. c #B4C0D0E89E76",
"V. c #A148C53C98A0",
"C. c #A5B4C4C0BD99",
"Z. c #B289CDE0BB6D",
"A. c #B9CDD2D4BED9",
"S. c #CE03C3089343",
"D. c #D91EC7CA9B83",
"F. c #ED65C67F8545",
"G. c #ED04CB0787F9",
"H. c #EA98D2C5871E",
"J. c #E9EFD2988824",
"K. c #F3D1DDF78C6A",
"L. c #F3D6D8458522",
"P. c #EF30CDC592B4",
"I. c #EE4CCABB9C3B",
"U. c #F5DADE1C93AF",
"Y. c #F3DCDB5F9CA4",
"T. c #F801E22D8340",
"R. c #F8DFE3438456",
"E. c #F7CDE2758AC1",
"W. c #F8D4E48F8BC6",
"Q. c #F44AE28694C2",
"!. c #F95AE6B59476",
"~. c #F92BE73D9A59",
"^. c #F6AEE4709DEF",
"/. c #D4D5CBEEB0E1",
"(. c #E350C9D0A5E5",
"). c #F3A2DB5EAA0B",
"_. c #E225D20FBF31",
"`. c #F412DD0DB666",
"'. c #F492E58AA453",
"]. c #FA4FEA5CA2E0",
"[. c #F358E171ABCB",
"{. c #FA69EB7BAB08",
"}. c #F7C0E90AAD5F",
"|. c #FAB2ECB7B3EF",
" X c #F551E1EFBF22",
".X c #FA30EB0FBA28",
"XX c #F84CEABFB63E",
"oX c #FBECF0D4BD1F",
"OX c #81F39AB2C167",
"+X c #89419FCDC236",
"@X c #9491ABC6CE78",
"#X c #99C3AE3ECDC2",
"$X c #9554A966C553",
"%X c #9EADB13FCE9F",
"&X c #9835BC8ACD58",
"*X c #9696AD4BD1FD",
"=X c #98EEAF13D35C",
"-X c #99BCB067D1E2",
";X c #9CA1BE7EDBC4",
":X c #88DEADE6CCAD",
">X c #A3A8BE1EDC6E",
",X c #B83BCFA6CC0A",
"<X c #BC41D3C5C3AD",
"1X c #AC19C3BFDE27",
"2X c #B248C911D3ED",
"3X c #A4B5C1DAE1D9",
"4X c #B588CC3FE4AF",
"5X c #BD77CD14E357",
"6X c #BD81D195E76D",
"7X c #D332C9B8C15C",
"8X c #CA81DB60D335",
"9X c #D0BDD4F7CE47",
"0X c #E3BFD5EDC4EA",
"qX c #E536DA89C788",
"wX c #F110DF3EC267",
"eX c #DEA1EABECE9E",
"rX c #DB0CE7DAD623",
"tX c #E215ECFDCEC9",
"yX c #E9CFE45FCC0E",
"uX c #F601E4F4C4CC",
"iX c #F716EAFDC57E",
"pX c #F777E71CCC14",
"aX c #F677EAA5CC3E",
"sX c #FCAFEC73C214",
"dX c #FC86F287C3D6",
"fX c #FD1EF43ECB07",
"gX c #E7BAE60FD2A8",
"hX c #EC18EB90DB31",
"jX c #E63DE9FDD9AA",
"kX c #F96AECCCD4D7",
"lX c #FA9DF2E7DB8A",
"zX c #FEBBF940DD3E",
"xX c #FB7AF532D59A",
"cX c #CEC0DBC5EC01",
"vX c #C9E9DAC4E84B",
"bX c #D3CDDDBFEBF7",
"nX c #D901DFD9EEB0",
"mX c #D5D5DC04E50C",
"MX c #D256DDD5F214",
"NX c #D3F2E0C5EFD9",
"BX c #DB43E41CE874",
"VX c #D5B2E28BF10F",
"CX c #DCA3E78AF32C",
"ZX c #EA4CEFB6EF0B",
"AX c #E431EBB3EB1E",
"SX c #FD3AF69CE3FB",
"DX c #FEB5F9F2E54F",
"FX c #FF48FB8CECD0",
"GX c #F162F19EE3B0",
"HX c #E44EEC84F54E",
"JX c #EAA3EFCBF4C7",
"KX c #ED03F209F702",
"LX c #FF94FDDDF684",
"PX c #FFFFFFFFFEDD",
"IX c #F12DF29EF484",
"UX c None",
/* pixels */
"UXUXUXUXUXUXUXUXUXUXUXUXUXp.OXg.d.d.d.d.d.d.d.d.d.d.d.d.d.i.u.u.",
"UXUXUXUXUXUXUXUXUXUXUXUXUX+X#X%X#X*X*X=X*X*X*X=X=X*X*X*X@X@Xg.i.",
"UXUXUXUXUXUXUXUXUXUXUXUXOX#X8XmXbXnXnXnXnXnXnXnXnXnXnXbXbX5X@Xp.",
"UXUXUXUXUXUXUXUXUXUXUXUXOX%XmXIXKXZXjXeXtXtXtXeXrXrXAXJXKXbX#Xf.",
"UXUXUXUXUXUXUXUXUXUXUXUXf.#XbXIXHX8XB.@.#.#.#.+.o.V.,XcXHXbX-Xf.",
"UXUXUXUXUXUXUXUXUXUXUXUXd.*XbXKXVX<Xo.} | |  .m : 3 m.6XCXbX-Xg.",
"UXUXUXUXUXUXUXUXUXUXUXUXd.*XbXKXVX<X+. .X.X.| { $ 3 v.4XCXcX-Xg.",
"UXUXUXUXUXUXUXUXUXUXUXUXd.*XbXKXNXA.$. .X.X...{ $ , M.1XVXcX-Xg.",
"UXUXUXUXUXUXUXUXUXUXUXUXd.*XbXJXcXZ.O. .| ..} n % > M.>XNXbX-Xf.",
"UXUXUXUXUXUXUXUXUXUXUXUXp.@XbXHXvXC.V n m { n $ # > a.>XNXbX-Xf.",
"j k L *.*.*.*.*.*.=.=./ z.#XbXHXvXC.C ; : % % #   < a.>XVXbX-Xf.",
"j P 0.J.J.J.J.J.J.H.H.S.x.@XbXHX6X&Xl.4 ; & + @ 1 y.s.3XVXcX-Xg.",
"j *.[.lXlXlXlXlXlXlXlX9X$X@XbXCX4X;X&Xc.A 0 5 v k.:X:X3XVXcX-Xg.",
"f <.aXPXFXDXDXDXFXFXFXBX@X*XbXBX2Xn.n.c.A b 5 v k.b.a.m.cXcX=Xg.",
"d <.aXFXdX{.}.}.XX.XsX0X$X*XMXrXj.2 2 2 - + o X = = * Z 8XcX=Xg.",
"d <.aXSX{.E.K.U.U.U.U.D.N.N.7X/.N 6 6 6 7 O O O . . . M 9XbX=Xf.",
"h _ iXzX}.U.U.U.K.L.8.^ S B ! J s q q q q q q q 9 8 8 / qXbX-Xf.",
"h _ uXlX[.L.H.8.8.1.R E ~ ~ Q K W W W W W W W Q Q J p W /.5X@Xf.",
"d _  XkXY.7.) T T I I ` (.qX0X_._._._._._._._.0X0X(.J G N.@Xg.i.",
"h _ uXlX`.P.[ ] ] ` ` G.yXGXhXhXgXgXgXgXgXyXyXjXZXqXQ G h.d.UXUX",
"g _ aXLXSXkXkXpXpXpXuXiXiX.X}.'.'.'.^.Q.Q.K.K.'.lXwX( a UXUXUXUX",
"g _ aXPXLXFXFXFXDXzXzXfX|.~.W.E.R.T.t.q.5.4.4.R.fX X( y UXUXUXUX",
"i _ pXLXDXxXfXdX|.{.{.].~.W.R.R.R.t.q.5.4.>.,.r.fX X( y UXUXUXUX",
"i ) uXFXxXoX|.{.~.W.W.E.E.R.T.T.T.t.q.4.4.>.;.r.fX X( y UXUXUXUX",
"i ) uXFXfX|.{.].~.W.E.R.R.T.r.r.r.w.5.4.>.;.&.q.dX X( y UXUXUXUX",
"u ) uXDXdX{.].~.!.W.R.r.r.q.q.q.5.5.>.;.&.%.c 4.oX`.( u UXUXUXUX",
"y ( uXDXoX].~.!.W.T.r.q.5.4.>.>.,.&.%.c c x l ,.{.).Y u UXUXUXUX",
"r ( uXzX.X^.~.!.E.T.w.q.5.4.4.:.;.;.&.%.z z x >.{.).Y u UXUXUXUX",
"r Y `.lX.X'.^.Y.U.U.K.L.L.w.e.e.e.6.3.3.3.:.-.e.|.).U r UXUXUXUX",
"r U I.`.P.G.F.F.9.9.9.7.7.7.1.1.1.2.2.' R R R 1.P.F.F r UXUXUXUX",
"t a U U H F F F D D D D D D D D D D p p p p p D F F a UXUXUXUXUX",
"UXUXw w w e e e e e e e e e e t t t t t t t t e e e t UXUXUXUXUX"
};
