/* XPM */
static char *information[] = {
/* columns rows colors chars-per-pixel */
"32 32 145 2",
"   c #31394BFE85A3",
".  c #31134D5E8D9C",
"X  c #38ED55B98BD2",
"o  c #308A4E569144",
"O  c #2F4752089DDF",
"+  c #30D95103969A",
"@  c #39595747905A",
"#  c #3CF15C4E950E",
"$  c #318052DA9BF2",
"%  c #396A5C459D46",
"&  c #3D4F60449DCC",
"*  c #385C5ADCA09C",
"=  c #31A56509AA3C",
"-  c #38FA64D5A8DB",
";  c #3CC26B7AAC33",
":  c #3BBD7147AF95",
">  c #30DE6A00B0F1",
",  c #3A4A6F62B1E1",
"<  c #31B77C42BD40",
"1  c #3A3E7B3EBB20",
"2  c #413D5F389130",
"3  c #41C260D9942F",
"4  c #443963C99ABD",
"5  c #457569A09DE8",
"6  c #4CCC6B899D25",
"7  c #511A6CE29DC3",
"8  c #426E6595A43D",
"9  c #4C156CEEA31A",
"0  c #41776747A9DC",
"q  c #45F56E45ACB2",
"w  c #517F6E31A4C6",
"e  c #4DE571C9ACB2",
"r  c #536474C5A173",
"t  c #5101707EAB0D",
"y  c #5A857F6AADD8",
"u  c #44227585B410",
"i  c #402B7CDAB7FD",
"p  c #4B867B1AB2AC",
"a  c #43D67A58B9C8",
"s  c #56117AA2B447",
"d  c #524C7FF1B855",
"f  c #3D458286BFF1",
"g  c #5C0781C3ABF2",
"h  c #479B859ABDF8",
"j  c #4DAB83EFB932",
"k  c #5CD983EEB38E",
"l  c #5D838820B6C2",
"z  c #524582F4B98E",
"x  c #5EA98875B9EE",
"c  c #617B8727B4FE",
"v  c #63848A26B736",
"b  c #68048CDEB745",
"n  c #634B8D04BC63",
"m  c #68758F22BB7A",
"M  c #65B890D0BF66",
"N  c #6A839220BDAC",
"B  c #72759628BDCE",
"V  c #72AA98B1BE86",
"C  c #35D68165C32F",
"Z  c #38FD859FC64C",
"A  c #3D8C8A8ECA3F",
"S  c #44F985D4C142",
"D  c #47A68C53C608",
"F  c #4E568CA3C31D",
"G  c #43248C30CE0D",
"H  c #52798F70C5DB",
"J  c #59A388C7C076",
"K  c #4C4B9073CDEB",
"L  c #5316906EC7EA",
"P  c #541D947ECC9D",
"I  c #59D19728CDE0",
"U  c #46268E54D0B3",
"Y  c #47639124D27E",
"T  c #4D219348D251",
"R  c #54E195EBD22E",
"E  c #54359823D2C0",
"W  c #5BB79A3AD1A5",
"Q  c #664C93B4C267",
"!  c #69F29652C417",
"~  c #6C7499D3C695",
"^  c #644C9680C8AA",
"/  c #6D909BFDCA82",
"(  c #747B9A2AC3E0",
")  c #7A0C9D25C466",
"_  c #72B89E20CCC5",
"`  c #7A6D9F7AC97B",
"'  c #62529D43D472",
"]  c #7D66A200C739",
"[  c #74D7A0CECEF9",
"{  c #7C8FA44FCC62",
"}  c #6E9DA2D4D40C",
"|  c #759BA30DD268",
" . c #7D0BA5DFD25A",
".. c #7EEEA92FD301",
"X. c #8326A339C690",
"o. c #8955A70BC6E6",
"O. c #8CFBA939C825",
"+. c #8469A666CAC0",
"@. c #89C2A7C6C8E0",
"#. c #85AFAA41CD70",
"$. c #8BDDAAD2CD35",
"%. c #9028AB05CE51",
"&. c #817CA7D3D0D3",
"*. c #8482ABC2D5CD",
"=. c #8A42AE4CD47F",
"-. c #848DAE37D913",
";. c #8A2AAF0BD8FD",
":. c #8D58B197D581",
">. c #8692B0F0DA03",
",. c #8C81B1E2DACF",
"<. c #93D1B486D541",
"1. c #9B6FB7ADD497",
"2. c #99EBBA09D638",
"3. c #93C0B5A6DB51",
"4. c #98ACB7DEDAFF",
"5. c #956FB8AEDDD1",
"6. c #9C6EBB91DD61",
"7. c #A071B798D333",
"8. c #A1D6B97ED5C2",
"9. c #A219BE79DF9B",
"0. c #A315BF43E13F",
"q. c #A57AC155DE4D",
"w. c #B314C795DEB8",
"e. c #A5F3C193E1AB",
"r. c #AB19C5EDE2F2",
"t. c #B76DCBFCE298",
"y. c #B9D1CEDEE550",
"u. c #C01DD443EA38",
"i. c #C25FD2DFE572",
"p. c #C7A6D77FE905",
"a. c #C739D8ACEB16",
"s. c #CB0DDAAEEB50",
"d. c #D205DDF7EBDE",
"f. c #D5E2E21BEF2C",
"g. c #D9C0E3A8EEA7",
"h. c #DD20E6EFF19B",
"j. c #DFB9E89AF335",
"k. c #E5E1ED9DF5CD",
"l. c #EA67F066F74A",
"z. c #EA8EF0FDF81F",
"x. c #EE66F3C8F95F",
"c. c #F169F561FA25",
"v. c #F7FDFA53FCF1",
"b. c #FEB5FF17FF90",
"n. c None",
/* pixels */
"n.n.n.n.n.n.n.n.n.n.n.n.n.n.n.n.n.n.n.n.n.n.n.n.n.n.n.n.n.n.n.n.",
"n.n.n.n.n.n.n.n.n.n.n.n.n.n.n.n.n.n.n.n.n.n.n.n.n.n.n.n.n.n.n.n.",
"n.n.n.n.n.n.n.n.n.n.n.n.Y U G G A A A A n.n.n.n.n.n.n.n.n.n.n.n.",
"n.n.n.n.n.n.n.n.n.n.E W ' ' ' W W W W I L D n.n.n.n.n.n.n.n.n.n.",
"n.n.n.n.n.n.n.n.Y T W } >.3.5.5.5.5.,.*./ H f < n.n.n.n.n.n.n.n.",
"n.n.n.n.n.n.n.T E ' | >.6.e.e.e.0.0.9.3.../ H S 1 n.n.n.n.n.n.n.",
"n.n.n.n.n.n.U R } >.6.e.0.6.3.,.,.,.3.4.4.3...^ a > n.n.n.n.n.n.",
"n.n.n.n.n.T R ' >.6.r.e.6.3.,.;.;.;.;.3.6.6.3.{ J u , n.n.n.n.n.",
"n.n.n.n.G R } >.0.e.5.>.*.;.5.6.6.3.*. .*.:.4.<.{ Q u = n.n.n.n.",
"n.n.n.n.K ' -.6.e.6.-.| | ;.r.u.u.r.*._ [  .<.4.<.{ d ; n.n.n.n.",
"n.n.n.P I | 6.e.3.*. .| _ 3.s.z.z.s.:./ _ [  .=.4.=.M p ; n.n.n.",
"n.n.n.P } -.0.0.-.| | _ _ :.a.k.k.a.:./ / _ _ { 3.<.] n q n.n.n.",
"n.n.A W -.5.6.3...[ _ _ _ &.q.y.y.q.{ ~ ~ ~ ~ _ *.:.:.) e $ n.n.",
"n.n.A W ,.0.3.*. ._ _ / / &.q.y.y.q.{ ! ! ! ! ~ { =.4.+.t $ n.n.",
"n.n.Z I 5.e.;. ._ _ / ~ ! =.s.x.x.s.=.Q Q ! ! ! ~ +.6.$.t + n.n.",
"n.n.C P 5.e.=.[ _ / ~ ! ! =.f.b.b.h.=.Q Q Q Q Q Q { 6.%.w o n.n.",
"n.n.< L 3.e.*._ / ~ ~ ! Q #.i.z.v.f.$.n n M M M M ] 6.$.w o n.n.",
"n.n.< L 3.9.=.[ / ~ ! ! Q +.t.j.c.d.#.n n n n n N ] 2.$.w . n.n.",
"n.n.< H :.6.:. ._ ~ ! Q Q { t.j.c.d.+.x v n n m ! ] <.X.9 . n.n.",
"n.n.< F { <.3.=._ ! ! ! ( <.p.l.v.h.1.( m c l m ) +.#.V 9 . n.n.",
"n.n.n.h Q { 4.3.{ Q Q ` <.y.k.b.b.x.s.8.B k k N +.$.B k 4 n.n.n.",
"n.n.n.i j Q :.4.#.( ! ( <.w.s.g.g.d.i.7.B k v ( $.X.k 9 # n.n.n.",
"n.n.n.n.: z { <.<.=.( N ( ) X.+.X.X.) B c v ) +.#.V 9 @ n.n.n.n.",
"n.n.n.n.= u n ` <.<.{ ( N n l k k k k c b B +.+.V g 3   n.n.n.n.",
"n.n.n.n.n.- 0 s ` :.<.$.) N v k k k b B X.$.#.B r 2 X n.n.n.n.n.",
"n.n.n.n.n.n.O 8 l ( #.$.+.] ) V V ( ) ] +.X.B g 2   n.n.n.n.n.n.",
"n.n.n.n.n.n.n.* 8 e c ( #.<.2.2.1.<.:.+.N y 6 3 X n.n.n.n.n.n.n.",
"n.n.n.n.n.n.n.n.+ % q k ( X.@.O.O.o.X.B y 5 X   n.n.n.n.n.n.n.n.",
"n.n.n.n.n.n.n.n.n.n.& 8 9 9 w 7 7 7 6 6 4 # n.n.n.n.n.n.n.n.n.n.",
"n.n.n.n.n.n.n.n.n.n.n.n.o . .           n.n.n.n.n.n.n.n.n.n.n.n.",
"n.n.n.n.n.n.n.n.n.n.n.n.n.n.n.n.n.n.n.n.n.n.n.n.n.n.n.n.n.n.n.n.",
"n.n.n.n.n.n.n.n.n.n.n.n.n.n.n.n.n.n.n.n.n.n.n.n.n.n.n.n.n.n.n.n."
};
