/* XPM */
static char *link[] = {
/* columns rows colors chars-per-pixel */
"32 32 115 2",
"   c #3B113B113B11",
".  c #3C403C403C40",
"X  c #3D0E3D0E3D0E",
"o  c #3F153F153F15",
"O  c #437743774377",
"+  c #44A544A544A5",
"@  c #457145714571",
"#  c #469446944694",
"$  c #474347434743",
"%  c #480C480C480C",
"&  c #4AA54AA54AA5",
"*  c #4D294D294D29",
"=  c #4EBA4EBA4EBA",
"-  c #4F5C4F5C4F5C",
";  c #502550255025",
":  c #511D511D511D",
">  c #52D052D052D0",
",  c #548054805480",
"<  c #550955095509",
"1  c #563E563E563E",
"2  c #572657265726",
"3  c #583958395839",
"4  c #592959295929",
"5  c #5A0B5A0B5A0B",
"6  c #5B915B915B91",
"7  c #5C085C085C08",
"8  c #601060106010",
"9  c #615F615F615F",
"0  c #624C624C624C",
"q  c #649F649F649F",
"w  c #65A565A565A5",
"e  c #664766476647",
"r  c #67BE67BE67BE",
"t  c #683068306830",
"y  c #699969996999",
"u  c #6A116A116A11",
"i  c #6B436B436B43",
"p  c #6C4F6C4F6C4F",
"a  c #6D1F6D1F6D1F",
"s  c #6E1C6E1C6E1C",
"d  c #6F806F806F80",
"f  c gray44",
"g  c #712471247124",
"h  c #726D726D726D",
"j  c #737473747374",
"k  c #745774577457",
"l  c #756675667566",
"z  c #761576157615",
"x  c #778B778B778B",
"c  c #783278327832",
"v  c #795B795B795B",
"b  c #7A1A7A1A7A1A",
"n  c #7B9B7B9B7B9B",
"m  c #7C367C367C36",
"M  c #7DAB7DAB7DAB",
"N  c #7EC67EC67EC6",
"B  c #7F907F907F90",
"V  c #808180818081",
"C  c #814D814D814D",
"Z  c #82D682D682D6",
"A  c #838A838A838A",
"S  c #857A857A857A",
"D  c #869B869B869B",
"F  c #876F876F876F",
"G  c #888B888B888B",
"H  c #897E897E897E",
"J  c #8A8F8A8F8A8F",
"K  c #8B6D8B6D8B6D",
"L  c #8C248C248C24",
"P  c #8EF28EF28EF2",
"I  c #8F828F828F82",
"U  c #91AE91AE91AE",
"Y  c #937293729372",
"T  c #946C946C946C",
"R  c #956295629562",
"E  c #978D978D978D",
"W  c #98B298B298B2",
"Q  c #998B998B998B",
"!  c #9AC09AC09AC0",
"~  c #9BB69BB69BB6",
"^  c #9CBD9CBD9CBD",
"/  c #9D9E9D9E9D9E",
"(  c #9ED39ED39ED3",
")  c #9FF49FF49FF4",
"_  c #A0A2A0A2A0A2",
"`  c #A2AAA2AAA2AA",
"'  c #A4ADA4ADA4AD",
"]  c #A7F0A7F0A7F0",
"[  c #A8ACA8ACA8AC",
"{  c #A966A966A966",
"}  c #AA9CAA9CAA9C",
"|  c #AB5DAB5DAB5D",
" . c #ACEEACEEACEE",
".. c #ADB4ADB4ADB4",
"X. c #AF00AF00AF00",
"o. c #AF91AF91AF91",
"O. c #B042B042B042",
"+. c #B2B0B2B0B2B0",
"@. c #B4B2B4B2B4B2",
"#. c #B857B857B857",
"$. c #B9DAB9DAB9DA",
"%. c #BA66BA66BA66",
"&. c #BBFDBBFDBBFD",
"*. c #BDC4BDC4BDC4",
"=. c #BEFEBEFEBEFE",
"-. c #C072C072C072",
";. c #C1D4C1D4C1D4",
":. c #C3C8C3C8C3C8",
">. c #C4E4C4E4C4E4",
",. c #CAE2CAE2CAE2",
"<. c #CBD7CBD7CBD7",
"1. c #D01CD01CD01C",
"2. c #D374D374D374",
"3. c #D501D501D501",
"4. c None",
/* pixels */
"4.4.4.4.4.4.4.4.4.4.4.4.4.4.4.4.4.4.4.4.4.4.4.4.4.4.4.4.4.4.4.4.",
"4.4.4.4.4.4.4.4.4.4.4.4.4.4.4.4.4.4.4.4.4.4.4.4.4.4.4.4.4.4.4.4.",
"4.4.4.4.4.4.4.4.4.4.4.4.4.4.4.4.4.4.4.4.4.4.4.4.4.4.4.4.4.4.4.4.",
"4.4.4.4.4.4.4.4.4.4.4.4.4.4.4.4.4.4.4.4.4.4.4.4.4.4.4.4.4.4.4.4.",
"4.4.4.4.4.4.4.4.4.4.4.4.4.4.4.4.4.4.4.4.4.4.4.4.4.4.4.4.4.4.4.4.",
"4.4.4.4.4.4.4.4.4.4.4.4.4.4.4.4.4.4.4.4.4.4.4.4.4.4.4.4.4.4.4.4.",
"4.4.4.4.4.4.4.4.4.4.4.4.4.4.4.4.4.4.4.4.4.4.4.4.4.4.4.4.4.4.4.4.",
"4.4.4.4.4.4.4.4.4.4.4.4.4.4.4.4.4.4.4.4.4.4.4.4.4.4.4.4.4.4.4.4.",
"4.4.4.4.4.4.4.4.M H E R A x 4.4.4.4.x Z R E J N 4.4.4.4.4.4.4.4.",
"4.4.4.4.4.4.4.S W '  .[ W L C 4.4.4.Y / } } / U Z 4.4.4.4.4.4.4.",
"4.4.4.4.4.9 B ( :.3.2.,.&.{ P n c T %.,.1.<.=...E C 0 4.4.4.4.4.",
"4.4.4.4., f T ..>.<.;.#.O.` P V b L o.=.*.%.@.} / K a < 4.4.4.4.",
"4.4.4.4.q S +.%.Q M j h x B H G M b N m k g z D ~ E n e 4.4.4.4.",
"4.4.4.= s L $.*.M % O : p S ! ( Y F m y ; + & d Q ! Z d ; 4.4.4.",
"4.4.4.- j G _ 4.4.4.. 4 I +.=.-.#.X.' S 1 X 4.4.4.Y S k - 4.4.4.",
"4.4.4.* g V H 4.4.4.  1 H ] o.o.| ' ~ B >   4.4.4.K V g * 4.4.4.",
"4.4.4.% w l D 4.4.# o # 4 e a d s y 0 1 @ o # 4.4.F l w % 4.4.4.",
"4.4.4.O 5 u A J l r 8 6 4 2 1 2 3 3 3 4 6 8 r l J A u 5 O 4.4.4.",
"4.4.4.4.= 9 V T W Q E U G m s t i h M G U E Q W T V 9 = 4.4.4.4.",
"4.4.4.4.$ 5 j S Y ^ ) ^ Y F x d j M H Y ^ ) ^ Y S j 5 $ 4.4.4.4.",
"4.4.4.4.4.4.3 0 d c n m v k i 4.4.d z v m n c d 0 3 4.4.4.4.4.4.",
"4.4.4.4.4.4.# = 7 q t y u r 4.4.4.4.t u y t q 7 = # 4.4.4.4.4.4.",
"4.4.4.4.4.4.4.4.4.4.4.4.4.4.4.4.4.4.4.4.4.4.4.4.4.4.4.4.4.4.4.4.",
"4.4.4.4.4.4.4.4.4.4.4.4.4.4.4.4.4.4.4.4.4.4.4.4.4.4.4.4.4.4.4.4.",
"4.4.4.4.4.4.4.4.4.4.4.4.4.4.4.4.4.4.4.4.4.4.4.4.4.4.4.4.4.4.4.4.",
"4.4.4.4.4.4.4.4.4.4.4.4.4.4.4.4.4.4.4.4.4.4.4.4.4.4.4.4.4.4.4.4.",
"4.4.4.4.4.4.4.4.4.4.4.4.4.4.4.4.4.4.4.4.4.4.4.4.4.4.4.4.4.4.4.4.",
"4.4.4.4.4.4.4.4.4.4.4.4.4.4.4.4.4.4.4.4.4.4.4.4.4.4.4.4.4.4.4.4.",
"4.4.4.4.4.4.4.4.4.4.4.4.4.4.4.4.4.4.4.4.4.4.4.4.4.4.4.4.4.4.4.4.",
"4.4.4.4.4.4.4.4.4.4.4.4.4.4.4.4.4.4.4.4.4.4.4.4.4.4.4.4.4.4.4.4.",
"4.4.4.4.4.4.4.4.4.4.4.4.4.4.4.4.4.4.4.4.4.4.4.4.4.4.4.4.4.4.4.4.",
"4.4.4.4.4.4.4.4.4.4.4.4.4.4.4.4.4.4.4.4.4.4.4.4.4.4.4.4.4.4.4.4."
};
