/* XPM */
static char *page_copy[] = {
/* columns rows colors chars-per-pixel */
"32 32 85 1",
"  c #3F4270BEC5C1",
". c #41197254C662",
"X c #459979E2C58F",
"o c #49E27AD9C7B4",
"O c #46AC77E4C850",
"+ c #4CD07DC7CB00",
"@ c #51867E70CB54",
"# c #4E3C8182C9ED",
"$ c #51B4836ACAB6",
"% c #59768601CCFC",
"& c #55628E2FC999",
"* c #5AD08D43C9E2",
"= c #5EC995E2CC5B",
"- c #58D28ECED1E6",
"; c #5ECF9174D3FA",
": c #66789A3ACE88",
"> c #68829C9ECFA2",
", c #64E28F5BD146",
"< c #68638F93D1C3",
"1 c #630A942AD561",
"2 c #6D2A93ECD45D",
"3 c #6B379BF9D3AE",
"4 c #70EB9626D53B",
"5 c #75E59D1BD6A9",
"6 c #79AB9E88D74E",
"7 c #70D9A3A4D4B2",
"8 c #7A85A190D7F9",
"9 c #7BDAA988D7D9",
"0 c #7300A370DEC5",
"q c #7B40A202D8C6",
"w c #738CA815E0D5",
"e c #7B5FAC13E197",
"r c #8015A856D72A",
"t c #823CAC15DC3A",
"y c #85E8B05AD999",
"u c #8A18B273DB58",
"i c #9296BA3AE00E",
"p c #8E52B612E1AA",
"a c #8FDDBC03E806",
"s c #8B07BAC7EA31",
"d c #9117BD70E84F",
"f c #9C0ABEF4E644",
"g c #9118BE1FEB5A",
"h c #9F52C324E722",
"j c #9E03C351E9B8",
"k c #A221C543E7D9",
"l c #A963C0D9E739",
"z c #A210C642EB19",
"x c #A77EC97CEA9D",
"c c #A9C2CA4AEB20",
"v c #B423CE9DED0A",
"b c #B810D44AEE1A",
"n c #BEDDD2FEEDFE",
"m c #AB1DD163F33C",
"M c #B5FCD5F2F598",
"N c #BADDD73CF5ED",
"B c #BE0AD9A7F728",
"V c #BEFDDACBF8E7",
"C c #C338D58DEE02",
"Z c #C6C3D89BEE96",
"A c #C9FFDA20EF0D",
"S c #C5C0D7E2F0F3",
"D c #C8FCD84CF196",
"F c #C40BDB04F5BF",
"G c #CA9CDC46F285",
"H c #C4FEDE4FFA6F",
"J c #C856DFF1FAD2",
"K c #CDB8E18DF552",
"L c #C735E172FAB5",
"P c #CCF5E309FC9E",
"I c #D52AE53CF642",
"U c #D94FE831F859",
"Y c #DA89E941F7F8",
"T c #D416E6B5FE6F",
"R c #D724E8EDFF51",
"E c #DB5BEADFFEF0",
"W c #E208EEF0FD9C",
"Q c #E639F24AF691",
"! c #EA85F44BF70E",
"~ c #E596F1A0FD39",
"^ c #EBCDF4BBFE99",
"/ c #F158F801FC86",
"( c #F264F897FD52",
") c #FAFCFE13FFFF",
"_ c None",
/* pixels */
"Oo#$$$$$$$$$#oX_________________",
"o%5qq8888888551_________________",
"+5vIGSSSSSCCZvaw;_______________",
"#qI)^~~~~WEW^Yms01______________",
"$qG^EPTTPLHP^~Lmge______________",
"$8G~THLJHVMFW^ELMj3_____________",
"$8G^RPPPJHBFYW~~~Cr*____________",
"$8G^EPPPPJHFGKIUYCu3____________",
"$8G^ETTPPLHNvcxxxhpt7>>:=&______",
"$8G^ETTTPPLNzjccxxckiuuuy93-____",
"#8G^ETTTTPPNzcIWUIIIKGGGGbdw;___",
"#8G^ETRTTTPNjcW)^WWWWEEW^Yms01__",
"#8G^ETRRTTTBjcY^EPTTPLHP~~Lmge;_",
"#8G^ERRRRRTBjxU~THLJHVMFW^ELMj3X",
"#8G^WREERRRFjxU^TPPPJHBFUW~~Wn5+",
"#6G^WEEEEEEFjxY^RPPPPHFFKIY~/A6$",
"#6D^WEEEEEEFjxY^ETTPPLHHFFBKWZ8$",
"+6Z^WEEEEEEFjxY^ETTTPPJHVNMVEC8$",
"+5C!EEEEEEEFjxY^ETTTTPPJHVNHES8$",
"+5C!~EWWEWWJzxY^ETRTTTPPLHVLWS8$",
"o5Z/^~~~^^^IzxY^ETRRTTTPPLHPWS8$",
"o2lDCnCCCCCcpfI^ERRRRTTTPPHP~S8$",
"o$2422222222,tG^WREERRRTTPPT^G8$",
"ooO......  .o6G^WEEEEERRTTPR^G8$",
"____________+6D^WEEEERRRTTPR^G6$",
"____________+6Z^WEEEERRRTPPR^Z6@",
"____________+5C!EEEEERRRTPPTQZ6@",
"____________+5C!~EWWEEEEEERE!Z6@",
"____________O5Z/^~~~^^^^^~~^(A6@",
"____________.<lSCnCCCCCCCCCZDl2@",
"____________.+,42222222222224<%@",
"____________... ............ .+@"
};
