/* XPM */
static char *page_white[] = {
/* columns rows colors chars-per-pixel */
"32 32 38 1",
"  c #A58AA58AA58A",
". c #A95BA95BA95B",
"X c #AB33AB33AB33",
"o c #ACE2ACE2ACE2",
"O c #ADAFADAFADAF",
"+ c #C8ACC8ACC8AC",
"@ c #C9DBC9DBC9DB",
"# c #CD97CD97CD97",
"$ c #D0AED0AED0AE",
"% c #D700D700D700",
"& c #D809D809D809",
"* c #D8A9D8A9D8A9",
"= c #DCFEDCFEDCFE",
"- c #E2BCE2BCE2BC",
"; c #E487E487E487",
": c #E85BE85BE85B",
"> c #EA46EA46EA46",
", c #EB16EB16EB16",
"< c #EC26EC26EC26",
"1 c #ECCDECCDECCD",
"2 c #EE0BEE0BEE0B",
"3 c #EEEDEEEDEEED",
"4 c #F019F019F019",
"5 c #F0E6F0E6F0E6",
"6 c #F1DBF1DBF1DB",
"7 c #F2EDF2EDF2ED",
"8 c #F400F400F400",
"9 c #F51AF51AF51A",
"0 c #F604F604F604",
"q c #F708F708F708",
"w c #F7F6F7F6F7F6",
"e c #F8FFF8FFF8FF",
"r c #FA08FA08FA08",
"t c #FB00FB00FB00",
"y c #FC05FC05FC05",
"u c #FCECFCECFCEC",
"i c #FE00FE00FE00",
"p c None",
/* pixels */
"pppppppppppppppppppppppppppppppp",
"pppppppppppppppppppppppppppppppp",
"pppp%>,,<<<<<<<1111<>*.ppppppppp",
"pppp>yyyyuuuuyytttrty2@ pppppppp",
"pppp,yewwwweew098747r0;# ppppppp",
"pppp,yw00q00097652,2er6-+Xpppppp",
"pppp<ueqwewqq08753,3etq5>*oppppp",
"pppp<urerrewwq9864<3euree2$Opppp",
"pppp<utrrrrewwq97414eiuyur7=pppp",
"pppp<iyrtttreewq96340eewwri1pppp",
"pppp<iuyyyyytrew0864544215t1pppp",
"pppp<iuyuuuuuyreq08631<>:2e1pppp",
"pppp<iiuuuuuuyyteq086431<5r1pppp",
"pppp<iiuuuuuuuuyrew0976437t1pppp",
"pppp<iiuuuuuuuuyytewq98769y1pppp",
"pppp<iiuuuuuuuuuuyrewq988qy<pppp",
"pppp<iiuuuuuuuuuuytrreq00eu<pppp",
"pppp<iiuuuuuuuuuuuytrewwqru<pppp",
"pppp<iiuuuuuuuuuuuytrreeeru<pppp",
"pppp<iiuuuuuuuuuuuyttrreetu<pppp",
"pppp<iiuuuuuyyyyyytttrreetu<pppp",
"pppp<iiuuuuuyyyyytttttreetu<pppp",
"pppp<iiuuuuuyyyytttttttrryi<pppp",
"pppp<iiuuuuuyyyytttttttttyi<pppp",
"pppp<iiuuuuuuuyyyyyyyyyyyui<pppp",
"pppp<iiuuuuuuuyyyyyyyyyyyui<pppp",
"pppp<iiuuuuuuuuuuuuuuuuuuii<pppp",
"pppp<iiiiiiiiiiiiiiiiiiiiii<pppp",
"pppp,iiiiiiiiiiiiiiiiiiiiii,pppp",
"pppp&,<<<<<<<<<<<<<<<<<<<<,&pppp",
"pppppppppppppppppppppppppppppppp",
"pppppppppppppppppppppppppppppppp"
};
