/* XPM */
static char *rainbow[] = {
/* columns rows colors chars-per-pixel */
"32 32 198 2",
"   c #DB4D016A0000",
".  c #DCA20AAA063E",
"X  c #DCE40C6F08E6",
"o  c #DDFB13FA0DE5",
"O  c #DE5F1632112C",
"+  c #DEBC19681395",
"@  c #DF731E78182E",
"#  c #E2241D1D0000",
"$  c #DFDF21AA1AE4",
"%  c #E6353B301C22",
"&  c #E0E5289520A9",
"*  c #E30B35F52C64",
"=  c #E3D43BE93246",
"-  c #F0E559440000",
";  c #F91777F60000",
":  c #F9F3784E0000",
">  c #F3056F3A1DFF",
",  c #E41E402C35E2",
"<  c #E50146393BD6",
"1  c #E58148EA3EED",
"2  c #E5F849F44000",
"3  c #E683515A462D",
"4  c #E77054FC48EC",
"5  c #E7DB599F4DFA",
"6  c #E83A5E7B52C6",
"7  c #E90B5E96510A",
"8  c #F1D87DD746F9",
"9  c #F1137D454CE8",
"0  c #E933620F553C",
"q  c #EB2D6D7F5CDE",
"w  c #EEBB789C55AF",
"e  c #ECE072645C24",
"r  c #F12E7FED5352",
"t  c #ECB774EE6143",
"y  c #EDE17B0B628D",
"u  c #0E119AE10000",
"i  c #2DEAA8441C1C",
"p  c #314DA8B61CED",
"a  c #1D0C90AF2738",
"s  c #1D0B90AF2A23",
"d  c #4CADA7F50AA0",
"f  c #4BCBAF6B3E4F",
"g  c #4CF0B0373D3A",
"h  c #5194B4833288",
"j  c #5B30B66B362F",
"k  c #53DEB32C398B",
"l  c #665FB3FD2A48",
"z  c #66DAB8B039F9",
"x  c #69AAB9033BA9",
"c  c #7328BB0C3CF5",
"v  c #3B679F844399",
"b  c #4C28ADC74404",
"n  c #4B94AB9F48E3",
"m  c #5168A9A756C7",
"M  c #544CA9B85CD1",
"N  c #6083BB364659",
"B  c #79FABCF04083",
"V  c #75EABF614CCE",
"C  c #562DA3B76D7F",
"Z  c #5F0BB2EA6036",
"A  c #5A4DA0A279BD",
"S  c #65F9A9B67F24",
"D  c #746DBB6F78CB",
"F  c #6C81C1BC5CD7",
"G  c #71B4C29D5E66",
"H  c #7ED8C8A86C6D",
"J  c #F8738D390A1A",
"K  c #FA6E89F21E52",
"L  c #F9789C68299D",
"P  c #F628857E361B",
"I  c #F779899933DF",
"U  c #F8B78EA333E6",
"Y  c #F4BC83EE3E9B",
"T  c #F68689C73DCC",
"R  c #F9258F9A38A0",
"E  c #F9D9935735B9",
"W  c #F9A892993962",
"Q  c #FA839C6539EC",
"!  c #F545B76623FF",
"~  c #FA5BA2AB3D85",
"^  c #BEACC1492596",
"/  c #F6E0CE2F328C",
"(  c #F8D7CEE93397",
")  c #838BBE8341EA",
"_  c #8882BFD34297",
"`  c #F40B853E45F6",
"'  c #F6EC8D66428E",
"]  c #F2CF83734CC1",
"[  c #F7DE92FB463D",
"{  c #F90693F34172",
"}  c #F8C7974F493B",
"|  c #FAC49D8C4919",
" . c #F2EF85D65014",
".. c #F4B18C8D519D",
"X. c #F15085E65CF2",
"o. c #F620926E53DC",
"O. c #F59593465B65",
"+. c #F70998A35D54",
"@. c #FA0DA6B040D6",
"#. c #F9BCACB9449D",
"$. c #F93CB4DE4A0E",
"%. c #F8D9BA514D80",
"&. c #FAE3ACCD5166",
"*. c #FC19AB4D5F93",
"=. c #F982BE2A5034",
"-. c #EF8A82DA6470",
";. c #EF1782876C76",
":. c #F03B884D6A23",
">. c #F1F58B7766F5",
",. c #F0E187C3682C",
"<. c #F3D794D36BDD",
"1. c #F53E98206991",
"2. c #F0408ADB71C5",
"3. c #F0D68D507311",
"4. c #F18B90227498",
"5. c #FB76AFFC6F55",
"6. c #FB63B8E5679E",
"7. c #FC5DB32C6F74",
"8. c #F7DCA5197209",
"9. c #FBE8BF0B765E",
"0. c #8F6AC10C4510",
"q. c #937AC22F470D",
"w. c #A013C55A4A0F",
"e. c #A49BC5D54AF5",
"r. c #B0A5C89C4F03",
"t. c #A084C8AE599C",
"y. c #B721CA3D5031",
"u. c #BA6ECB125142",
"i. c #8A14CAC76FE3",
"p. c #974FCAC368C2",
"a. c #ABD4D2317A03",
"s. c #C7FBC9D34279",
"d. c #CD48CF695687",
"f. c #DE2AD3615AB8",
"g. c #F6B5C0AD40B7",
"h. c #F810D4704DCD",
"j. c #F9C1D5644EEE",
"k. c #F826C4C6547E",
"l. c #F90FC4025412",
"z. c #F807C862571E",
"x. c #F96ECB0F57C7",
"c. c #F81DCBC65913",
"v. c #F8B5CF145B73",
"b. c #E335D4A25C29",
"n. c #EC44D5DD5E3E",
"m. c #F4ABD4D75E95",
"M. c #F91FD26E5D2D",
"N. c #DC52D6936967",
"B. c #D9AFD9EE79BD",
"V. c #F950C48160DD",
"C. c #F09CD7635FF3",
"Z. c #F9B8D6A36073",
"A. c #F9FCD45A6B6B",
"S. c #FAA3DAD26FA1",
"D. c #F96DD1F0777F",
"F. c #3AAA7CA48401",
"G. c #49A47431AEF1",
"H. c #4B0F742DB190",
"J. c #52AC7B0FB2F9",
"K. c #58347F62B56F",
"L. c #5BA19F6F807A",
"P. c #54F68E4E935E",
"I. c #636DA61D801F",
"U. c #69EAA61C8D1A",
"Y. c #6CF5A32998C6",
"T. c #709CA70C9929",
"R. c #5B40819AB6DC",
"E. c #61D585E7BB2B",
"W. c #65BA8991BBA9",
"Q. c #6EEA9066BFFC",
"!. c #7277A210A4E4",
"~. c #76EBA2F4AD3E",
"^. c #7E37A814AFDC",
"/. c #73FB9481C1C5",
"(. c #7C2D9ACBC5E2",
"). c #86E6AF91B28A",
"_. c #845EA60ABFE9",
"`. c #8670A8AEBF93",
"'. c #908FB89DB348",
"]. c #81ABC28E83A0",
"[. c #E0E2DE908808",
"{. c #FA5CD3A38389",
"}. c #FA50E00280CC",
"|. c #FB02E0448BE8",
" X c #FB79E1848229",
".X c #FBCFE39E8E4B",
"XX c #819A9F18C7F2",
"oX c #89E1A51ACC1B",
"OX c #8F70A955CE8A",
"+X c #90FBAFACC561",
"@X c #919EAB8DCEB4",
"#X c #963FB574C54E",
"$X c #97ECB16ECFFC",
"%X c #9A26B423CEA5",
"&X c #94E4ADDAD0AD",
"*X c #9BC4B352D356",
"=X c #A496BA6AD6DA",
"-X c None",
/* pixels */
"-X-X-X-X-X-X-X-X-X-X-X-X-X-X-X-X-X-X-X-X-X-X                    ",
"-X-X-X-X-X-X-X-X-X-X-X-X-X-X-X-X-X-X-X-X-X. + $ $ $ $ $ $ + .   ",
"-X-X-X-X-X-X-X-X-X-X-X-X-X-X-X-X-X        O = 4 5 6 6 0 0 1 +   ",
"-X-X-X-X-X-X-X-X-X-X-X-X-X-X-X-Xo + @ $ $ * 7 t y y -.:.4.e % # ",
"-X-X-X-X-X-X-X-X-X-X-X-X-X-X  X $ = 3 6 0 q ;.,.r 8 ` o.8.+.> - ",
"-X-X-X-X-X-X-X-X-X-X-X-X-X. O & , 4 q y -.>.<.O.` P P } 5.*.K ; ",
"-X-X-X-X-X-X-X-X-X-X-X    O = 5 q t w 9 ` ' [ { W E E | 7.*.K : ",
"-X-X-X-X-X-X-X-X-X-X  . + * 7 y -.X.] Y I U E Q Q ~ ~ &.9.6.L J ",
"-X-X-X-X-X-X-X-X-X    + 1 q ;.>.] Y T R E E Q ~ #.$.%.V.{.D.g.! ",
"-X-X-X-X-X-X-X-X  . + = q 3.<.O.T I E Q Q @.#.$.=.l.x.A.|.}.h./ ",
"-X-X-X-X-X-X-X    + 2 e 2.<.o.' W E Q @.$.%.k.c.M.M.M.S..X Xj.( ",
"-X-X-X-X-X-X  . + = e 3.<.+.{ E Q ~ #.%.l.c.m.m.n.b.f.N.[.B.s.^ ",
"-X-X-X-X-X-X  + 1 q 2.<.o.{ W Q @.$.l.c.M.m.n.b.d.y.e.t.a.p.l d ",
"-X-X-X-X-X. O * q 3.<.+.{ E Q @.$.l.v.m.n.f.d.u.w._ c V i.G p u ",
"-X-X-X-X  + = 7 ;.<.o.{ W Q #.%.z.M.Z.n.d.r.q.B x j h N H F i u ",
"-X-X-X-X  @ 4 y >.O.' E Q @.%.z.m.C.b.d.e.) z k f b n Z ].D v a ",
"-X-X-X    $ 0 -. .T W Q @.$.z.m.m.f.u.q.c j h g m C L.T.'.).P.F.",
"-X-X  . + = t >.` I E ~ $.l.M.C.f.u.0.x k f n M S T.~.`.%XOXE.H.",
"-X-X  + < q 3.1.[ E Q #.l.v.Z.b.u.0.z k b m A Y.).#X%X*X=XOXE.H.",
"-X-X  $ 6 ;.<.+.{ Q @.%.c.m.n.d.q.x k b M I.!._.$X*X*X&X@X(.R.G.",
"-X-X  $ 0 ,...' W Q $.l.M.n.d.e.c k b M U.^.+X$X&XoX(.Q.W.R.J.G.",
"-X. o * q >.' U E @.%.c.m.f.r.) j f m I.^.@X*X@XXX/.W.R.H.G.G.G.",
"  + = 7 ;.<.[ E Q #.k.m.n.d.q.z h n A !.+X*XoX/.E.K.K.-X-X-X-X-X",
"  $ 4 t ,.O.{ Q ~ $.c.m.b.u.B k g M Y._.$X@X/.R.J.G.-X-X-X-X-X-X",
"  $ 5 y r ` W Q #.=.M.n.d.w.x f m S ).$X&XXXE.J.-X-X-X-X-X-X-X-X",
"  $ 6 y 8 P E ~ $.l.M.b.y._ j b C T.#X*XoX/.K.G.-X-X-X-X-X-X-X-X",
"  $ 6 -.` P E ~ %.x.M.f.e.c h n L.~.%X*X(.W.K.-X-X-X-X-X-X-X-X-X",
"  $ 0 :.o.} | &.V.A.S.N.t.V N Z T.`.*X&XQ.R.-X-X-X-X-X-X-X-X-X-X",
"  $ 0 4.8.5.7.9.{.|..X[.a.i.H ].'.%X=X@XW.H.-X-X-X-X-X-X-X-X-X-X",
"  + 1 e +.*.*.6.D.}. XB.p.G F D ).OXOX(.R.G.-X-X-X-X-X-X-X-X-X-X",
"  . + % > K K L g.h.j.s.l p i v P.E.E.R.J.G.-X-X-X-X-X-X-X-X-X-X",
"      # - ; : J ! / ( ^ d u u s F.H.H.G.G.G.-X-X-X-X-X-X-X-X-X-X"
};
