/* XPM */
static char * arrow_updown_xpm[] = {
"32 32 333 2",
"  	c None",
". 	c #73C468",
"+ 	c #70C465",
"@ 	c #74C569",
"# 	c #76C66A",
"$ 	c #7DC972",
"% 	c #7EC972",
"& 	c #75C66A",
"* 	c #76C66B",
"= 	c #84CA7A",
"- 	c #91CF87",
"; 	c #73C568",
"> 	c #80C875",
", 	c #93CF89",
"' 	c #A1D499",
") 	c #80C975",
"! 	c #71C465",
"~ 	c #75C469",
"{ 	c #83C878",
"] 	c #97D08E",
"^ 	c #A2D59A",
"/ 	c #A4D59B",
"( 	c #99D18F",
"_ 	c #84C978",
": 	c #74C469",
"< 	c #70C564",
"[ 	c #71C565",
"} 	c #71C464",
"| 	c #80C876",
"1 	c #92CE88",
"2 	c #9CD293",
"3 	c #9BD192",
"4 	c #8FCD86",
"5 	c #7DC772",
"6 	c #72C467",
"7 	c #70C464",
"8 	c #70C463",
"9 	c #74C268",
"0 	c #7DC773",
"a 	c #8ACB81",
"b 	c #94CD8B",
"c 	c #92CD88",
"d 	c #86C97D",
"e 	c #78C56F",
"f 	c #70C264",
"g 	c #7BC56F",
"h 	c #89CA7F",
"i 	c #95CD8B",
"j 	c #87C87D",
"k 	c #79C36F",
"l 	c #70C066",
"m 	c #78C36D",
"n 	c #89C87F",
"o 	c #96CE8D",
"p 	c #94CD8A",
"q 	c #87C87E",
"r 	c #78C46E",
"s 	c #63B35B",
"t 	c #78C36E",
"u 	c #86C87C",
"v 	c #91CC88",
"w 	c #8FCB86",
"x 	c #84C77A",
"y 	c #60B259",
"z 	c #62B15A",
"A 	c #75C06A",
"B 	c #7FC475",
"C 	c #88CA7F",
"D 	c #7DC473",
"E 	c #75BF6A",
"F 	c #65B65C",
"G 	c #63B25A",
"H 	c #5FAF56",
"I 	c #60B057",
"J 	c #6DBC63",
"K 	c #75C06B",
"L 	c #7CC372",
"M 	c #63B25B",
"N 	c #64B35C",
"O 	c #5CAA52",
"P 	c #5FAE56",
"Q 	c #5DAD56",
"R 	c #65B65B",
"S 	c #6ABA60",
"T 	c #70BE66",
"U 	c #73BF69",
"V 	c #66B75C",
"W 	c #5FB055",
"X 	c #64B25C",
"Y 	c #65B35D",
"Z 	c #5FB157",
"` 	c #5BAB53",
" .	c #60AE58",
"..	c #69B260",
"+.	c #6BB463",
"@.	c #66B15E",
"#.	c #65AE5D",
"$.	c #65B25E",
"%.	c #66B25E",
"&.	c #65B25C",
"*.	c #5FAD58",
"=.	c #5CAD54",
"-.	c #67B75D",
";.	c #6CBB62",
">.	c #6EBC64",
",.	c #68B75E",
"'.	c #62B159",
").	c #67B45F",
"!.	c #6BB562",
"~.	c #69B461",
"{.	c #6CB565",
"].	c #6EB566",
"^.	c #6CB465",
"/.	c #64B15C",
"(.	c #5DAE55",
"_.	c #5CAC54",
":.	c #6DB366",
"<.	c #79B972",
"[.	c #7BBA74",
"}.	c #73B66C",
"|.	c #6FB368",
"1.	c #6FB568",
"2.	c #70B568",
"3.	c #6EB567",
"4.	c #6AB362",
"5.	c #64AF5C",
"6.	c #5EAB57",
"7.	c #61B059",
"8.	c #63B259",
"9.	c #64B15B",
"0.	c #66B25D",
"a.	c #6AB461",
"b.	c #6FB767",
"c.	c #75B96E",
"d.	c #74B86D",
"e.	c #76B96E",
"f.	c #76B86F",
"g.	c #78BA71",
"h.	c #7FBD78",
"i.	c #7EBC77",
"j.	c #70B569",
"k.	c #62AE5A",
"l.	c #5AAB53",
"m.	c #59A452",
"n.	c #5BA754",
"o.	c #64AD5C",
"p.	c #77B770",
"q.	c #84BE7E",
"r.	c #83BC7C",
"s.	c #7AB874",
"t.	c #76B570",
"u.	c #7AB873",
"v.	c #7DBB76",
"w.	c #78B871",
"x.	c #70B469",
"y.	c #69B162",
"z.	c #63AE5B",
"A.	c #63AF5B",
"B.	c #69B361",
"C.	c #79BA71",
"D.	c #7FBC78",
"E.	c #84BF7D",
"F.	c #84C07D",
"G.	c #81BE79",
"H.	c #82BF7B",
"I.	c #8BC284",
"J.	c #8EC487",
"K.	c #80BD79",
"L.	c #6DB466",
"M.	c #5FAD57",
"N.	c #59A553",
"O.	c #5AA754",
"P.	c #63AC5C",
"Q.	c #74B56D",
"R.	c #81BD7B",
"S.	c #82BC7B",
"T.	c #7BB874",
"U.	c #78B672",
"V.	c #7BB975",
"W.	c #80BC79",
"X.	c #7BB974",
"Y.	c #72B46B",
"Z.	c #6BB263",
"`.	c #61AA59",
" +	c #5AA452",
".+	c #57A150",
"++	c #5FA959",
"@+	c #6BB164",
"#+	c #86C17F",
"$+	c #83BE7C",
"%+	c #90C589",
"&+	c #85C07E",
"*+	c #70B668",
"=+	c #60AE57",
"-+	c #5CAA53",
";+	c #57A550",
">+	c #5CA854",
",+	c #68AF61",
"'+	c #75B56E",
")+	c #79B773",
"!+	c #74B36E",
"~+	c #71B26B",
"{+	c #71B36B",
"]+	c #6CB065",
"^+	c #64AD5D",
"/+	c #5AA653",
"(+	c #56A14F",
"_+	c #579E53",
":+	c #569D52",
"<+	c #539D4E",
"[+	c #529D4D",
"}+	c #62AB5B",
"|+	c #6EB367",
"1+	c #74B66D",
"2+	c #78B971",
"3+	c #76B76F",
"4+	c #7AB973",
"5+	c #83BD7C",
"6+	c #67B060",
"7+	c #5DAA55",
"8+	c #55A34F",
"9+	c #65AD5E",
"0+	c #6AAF63",
"a+	c #66AB60",
"b+	c #64AA5E",
"c+	c #63A85D",
"d+	c #5FAA57",
"e+	c #66AB5F",
"f+	c #64AA5D",
"g+	c #5CA755",
"h+	c #57A450",
"i+	c #5AA055",
"j+	c #5BA056",
"k+	c #539C4F",
"l+	c #4D9949",
"m+	c #53A04C",
"n+	c #63AC5A",
"o+	c #68B061",
"p+	c #6AB062",
"q+	c #70B369",
"r+	c #66AF5F",
"s+	c #5DA856",
"t+	c #58A551",
"u+	c #59A552",
"v+	c #5CA855",
"w+	c #55A34E",
"x+	c #529D4C",
"y+	c #59A054",
"z+	c #60A45B",
"A+	c #62A55D",
"B+	c #5CA157",
"C+	c #529C4D",
"D+	c #4F9B48",
"E+	c #5BA653",
"F+	c #5EA858",
"G+	c #5AA753",
"H+	c #59A652",
"I+	c #54A24D",
"J+	c #53A14C",
"K+	c #549F4E",
"L+	c #5EA459",
"M+	c #66A861",
"N+	c #67A962",
"O+	c #62A45D",
"P+	c #579D52",
"Q+	c #56A44F",
"R+	c #519F4C",
"S+	c #529F4D",
"T+	c #509D4B",
"U+	c #529C4C",
"V+	c #5FA35A",
"W+	c #6BAA67",
"X+	c #6DAB69",
"Y+	c #62A35D",
"Z+	c #53994E",
"`+	c #55A24D",
" @	c #519D4B",
".@	c #50984C",
"+@	c #5EA259",
"@@	c #6FAD6B",
"#@	c #71AE6D",
"$@	c #5FA35B",
"%@	c #519A4D",
"&@	c #54A24E",
"*@	c #4F974B",
"=@	c #5CA057",
"-@	c #64A560",
";@	c #66A561",
">@	c #5FA25B",
",@	c #549B4F",
"'@	c #448E41",
")@	c #458E40",
"!@	c #438D3F",
"~@	c #458E41",
"{@	c #4E964A",
"]@	c #5B9F56",
"^@	c #61A45D",
"/@	c #64A55F",
"(@	c #5FA25A",
"_@	c #53994F",
":@	c #4A9245",
"<@	c #458F41",
"[@	c #468F41",
"}@	c #448F41",
"|@	c #448E40",
"1@	c #458D41",
"2@	c #468F43",
"3@	c #51984E",
"4@	c #60A35C",
"5@	c #67A862",
"6@	c #68A863",
"7@	c #549A50",
"8@	c #499145",
"9@	c #448D40",
"0@	c #478F43",
"a@	c #64A460",
"b@	c #6EAB69",
"c@	c #63A45F",
"d@	c #54994F",
"e@	c #489044",
"f@	c #428C3F",
"g@	c #4A9248",
"h@	c #5D9E59",
"i@	c #6CA967",
"j@	c #5C9E58",
"k@	c #4B9248",
"l@	c #438C40",
"m@	c #4B9247",
"n@	c #559950",
"o@	c #549951",
"p@	c #428B3E",
"q@	c #458E42",
"r@	c #408A3D",
"                              . .                               ",
"                            + @ @ +                             ",
"                          + # $ % & +                           ",
"                        + * = - - = * +                         ",
"                      + ; > , ' ' , ) ; +                       ",
"                    + ! ~ { ] ^ / ( _ : ! +                     ",
"                  < [ } ~ | 1 2 3 4 5 6 7 [ <                   ",
"                    8   9 0 a b c d e f   8                     ",
"                          g h i 1 j k                           ",
"                        l m n o p q r                           ",
"            s             t u v w x t                           ",
"          y z z           A B h C D E             F G           ",
"        H I H             J K L L K J             M N G         ",
"      O P I Q             R S T U J V W           X Y X Z       ",
"    `  ...+.@.#.@.$.%.&.*.=.-.;.>.,.'.M ).!.%.~.{.+.].^./.(.    ",
"  _.*.:.<.[.}.|.1.2.3.4.5.6.7.  8.9.0.a.b.c.d.e.f.g.h.i.j.k.l.  ",
"m.n.o.p.q.r.s.t.u.v.w.x.y.z.      A.B.b.C.D.E.F.G.H.I.J.K.L.M.l.",
"N.O.P.Q.R.S.T.U.V.W.X.Y.Z.`. +    .+++@+p.W.#+F.K.$+I.%+&+*+=+-+",
"  ;+>+,+'+)+!+~+{+Y.~+]+^+/+(+_+:+<+[+}+|+1+2+2+3+4+5+$+2+6+7+  ",
"    8+n.9+0+a+b+c+d+e+f+g+h+<+i+j+k+l+m+n+,+,+o+,+p+q+|.r+s+    ",
"      8+t+/+u+n.      v+w+x+y+z+A+B+C+D+E+    F+s+G+s+s+H+      ",
"        I+I+J+            K+L+M+N+O+P+            I+w+Q+        ",
"          R+S+T+          U+V+W+X+Y+Z+            `+I+          ",
"             @            .@+@@@#@$@%@            &@            ",
"                          *@=@-@;@>@,@                          ",
"                  '@)@!@~@{@]@^@/@(@_@:@<@[@}@                  ",
"                    |@1@2@3@4@5@6@Y+7@8@<@'@                    ",
"                      9@0@_@a@b@X+c@d@e@9@                      ",
"                        f@g@h@i@i@j@k@f@                        ",
"                          l@m@n@o@m@l@                          ",
"                            p@q@q@p@                            ",
"                              r@r@                              "};
