/* XPM */
static char *color_wheel[] = {
/* columns rows colors chars-per-pixel */
"32 32 256 2",
"   c #D78F0A710BF0",
".  c #DED9271D0137",
"X  c #CED300482885",
"o  c #DE702722378B",
"O  c #E3B3321F29DC",
"+  c #F515705B0FD5",
"@  c #E88947D62487",
"#  c #F0AE639B2C91",
"$  c #D480198549AB",
"%  c #CCDA07D3582F",
"&  c #DA6D22AF4125",
"*  c #CEA71A5671B6",
"=  c #D9FB31AE6BD3",
"-  c #F5A7746C54E4",
";  c #E8EC5592703A",
":  c #F81C68436AE6",
">  c #FC8071F966D4",
",  c #FF8D68EA76F1",
"<  c #FFD278987403",
"1  c #3274D22A0FF8",
"2  c #1810D38F2DCB",
"3  c #2C83D4DD2D1D",
"4  c #52C8D1C41068",
"5  c #7153D3A113C3",
"6  c #491CD8602EE8",
"7  c #6C0DDB57333A",
"8  c #1570D72952B0",
"9  c #348DDA0C4E57",
"0  c #27BADC3D713C",
"q  c #6D28E3C25D54",
"w  c #5881E3347515",
"e  c #78A8EA4D77D9",
"r  c #5490DE1F4DCA",
"t  c #F7948B182A1D",
"y  c #FA32A9FA26F7",
"u  c #8F6FD61C125F",
"i  c #B11EDA1F0A71",
"p  c #8D90DE55378F",
"a  c #B1BAE116329F",
"s  c #A308E03C36FC",
"d  c #F05ED055172A",
"f  c #F437D04C32A1",
"g  c #C5B6E253287F",
"h  c #E6BFE7EE2C90",
"j  c #DE81E4A21350",
"k  c #F8D68B3D4FAD",
"l  c #FE89944E6E52",
"z  c #FE9B875C757E",
"x  c #FFB690FE7768",
"c  c #FF0EB7AB78D0",
"v  c #FEFCA9DA6F1A",
"b  c #FB10B0AA5286",
"n  c #9816EEC4778F",
"m  c #8E21E9F569B3",
"M  c #A89EFF2A7AB1",
"N  c #B96BF8C878A4",
"B  c #ABBAEFC8769F",
"V  c #F81CD1EC56A6",
"C  c #D956EC1C529B",
"Z  c #FF10C8227465",
"A  c #FECAD878765F",
"S  c #C6C2F8E77616",
"D  c #D72BFF9C7BB8",
"F  c #D1A8EFCE6954",
"G  c #FE25E61776F5",
"H  c #E879FC7D7D90",
"J  c #FC21F9297A49",
"K  c #EF51EF156BF1",
"L  c #EA6FED9E48B9",
"P  c #32B30000BD9C",
"I  c #515B0000BA97",
"U  c #6E6F0000B7DE",
"Y  c #14250B36D15C",
"T  c #317715D0CEC3",
"R  c #1B421FC5DBFC",
"E  c #31922538DBBF",
"W  c #322E375BE2CC",
"Q  c #10D22FE1E360",
"!  c #4A1F1D69CDAF",
"~  c #722B1F00C9FC",
"^  c #590B2E12D61A",
"/  c #62B4200ECC39",
"(  c #11A44D87EB41",
")  c #0A0F6B5BF4FB",
"_  c #290A5778EB84",
"`  c #52AF570DEEB2",
"'  c #70015611F126",
"]  c #5460734AF841",
"[  c #68A66944FD1F",
"{  c #7833692AFB76",
"}  c #76687BC1FD30",
"|  c #68B876ADFFFF",
" . c #B3BB0000BACE",
".. c #C1E80E4B9111",
"X. c #CCB429289414",
"o. c #CEB033F4B141",
"O. c #C1A215BCB8B0",
"+. c #E53052F983B7",
"@. c #FD9D6A99870B",
"#. c #FB0377C786AA",
"$. c #FFFF679F9694",
"%. c #FE297B599994",
"&. c #EF0B66FC8902",
"*. c #FFFF5A58AC30",
"=. c #FB637719A6BB",
"-. c #FFB16837B6C0",
";. c #F2C16BFFAF9C",
":. c #DECD5170A327",
">. c #9007175CC497",
",. c #ADA22B58CE2F",
"<. c #B14E0BC9C207",
"1. c #C24E2297C993",
"2. c #A89247D3DBBE",
"3. c #8F9D5BE8F0FB",
"4. c #A2375DD5FFFF",
"5. c #B1FB5D4FFFFF",
"6. c #A20355A3E308",
"7. c #899A672DF99B",
"8. c #976E6923FD0F",
"9. c #8A1177E3FDAF",
"0. c #95B478A1FC74",
"q. c #B7F167DAFB40",
"w. c #ADB66BE7F9B7",
"e. c #D2EC4B2FD288",
"r. c #FFFF5BBCD1AE",
"t. c #FD2977CBC79F",
"y. c #F77C6F06D227",
"u. c #C9CF5C10F519",
"i. c #E82D5C4FFFF4",
"p. c #FA3858FFFA7B",
"a. c #FFF05AECE6B6",
"s. c #C6D4669BFE3D",
"d. c #D702767AF9B0",
"f. c #D0CA6B22F6D1",
"g. c #FC92767BE727",
"h. c #FC596942F74D",
"j. c #E8387B55FFD7",
"k. c #F89F783FF588",
"l. c #EBFA6B17F23E",
"z. c #2FA6DF2E8BA3",
"x. c #0C0DE55CADFD",
"c. c #2BC3E68FB365",
"v. c #12CDDC8182CD",
"b. c #57ACE4CF9505",
"n. c #78A4FFAA884F",
"m. c #7B93FE7799CE",
"M. c #757AEC638D88",
"N. c #4E5AE754AFE1",
"B. c #77EBFFCBA9C4",
"V. c #7856FE41BA9F",
"C. c #7568F255ACDD",
"Z. c #30D48DFAF966",
"A. c #071CAAF6FA5B",
"S. c #2FD0B091FC16",
"D. c #18E68B98FA56",
"F. c #52A38F39F9BA",
"G. c #65CE84D0FD71",
"H. c #797888FAFD11",
"J. c #668796A3FC97",
"K. c #786396DFFE75",
"L. c #6AC5AC53FFF1",
"P. c #7973A612FE12",
"I. c #67D2B90FFF20",
"U. c #7922B9A7FE34",
"Y. c #0947EA8CCDE2",
"T. c #2C99ED94D453",
"R. c #083ED2F8F25F",
"E. c #2AC7CEBFF7BC",
"W. c #09D9EA7BE852",
"Q. c #2EF7EB73EF24",
"!. c #7AA3FB81D891",
"~. c #70A4F7D6CBE2",
"^. c #74BECD34FF98",
"/. c #6831D560FE8A",
"(. c #77C6D6DEFFAA",
"). c #6AA7C356FFFF",
"_. c #77AFFEBFE60C",
"`. c #6BB2E6D4FF30",
"'. c #7780EB98FE6A",
"]. c #6AF1F888FB3A",
"[. c #727BFA0EF7B2",
"{. c #6D07FA50E80A",
"}. c #57D0D79EE3D7",
"|. c #FFFF94768C00",
" X c #FF50B1B98D66",
".X c #FEBD8352B843",
"XX c #FDF48D42AEDD",
"oX c #FFFFB6D0A345",
"OX c #FFFFAB3DB48C",
"+X c #86F2FB568559",
"@X c #99F3FF2F86D5",
"#X c #87E2FC83961A",
"$X c #9816FC879724",
"%X c #A6ECFBC2864C",
"&X c #B830FE688A32",
"*X c #B0B6FFFF997B",
"=X c #8998FCFFA81B",
"-X c #88A9FB9BB874",
";X c #97C0FFFFAE6C",
":X c #ADE5FFFFACBD",
">X c #FF12C93E84F1",
",X c #FEA3D99F8D07",
"<X c #FF7CCA8296BE",
"1X c #CB5BFFFF8825",
"2X c #D9D7FD868C1C",
"3X c #C745FE9593C2",
"4X c #D5A2FFFF9CB0",
"5X c #FDACE7718741",
"6X c #E78EFDC48583",
"7X c #FB18F68C889E",
"8X c #F8F4FB749597",
"9X c #F0F6F88797F4",
"0X c #FFFFCCD1B0FD",
"qX c #D165FFFFB0A4",
"wX c #FA63FB3AA6D5",
"eX c #F633F45DB18D",
"rX c #89C0882FFEFC",
"tX c #939D87A8FFFF",
"yX c #921D9652FF6C",
"uX c #B1DD89FBFFFF",
"iX c #960EA2D6FFFF",
"pX c #8E83B6CCFF96",
"aX c #B08DACA8FFFF",
"sX c #FDCB8A9DD35C",
"dX c #FFFFAE3FD39E",
"fX c #CF368D50FFFF",
"gX c #F5AD86E4FCBD",
"hX c #F85C9485F3B2",
"jX c #D0CBAFB2FFFF",
"kX c #F683AFACF7EE",
"lX c #9759FE8CC9DA",
"zX c #8BCDFD31D95F",
"xX c #8E88FCCFD052",
"cX c #B327FFFFCD67",
"vX c #89A7CADBFF9C",
"bX c #9489DA50FFFF",
"nX c #B8FEDE3EFFFF",
"mX c #AB96D1E9FFFF",
"MX c #8663FDCFE8C8",
"NX c #86BBE936FF90",
"BX c #8620FA05FA28",
"VX c #97D1FC0DF845",
"CX c #9CF1F6E6F336",
"ZX c #B34CF987F5DE",
"AX c #FFFFD125CE1C",
"SX c #D1FAFFFFCCD0",
"DX c #FA77F971C778",
"FX c #F4F5F627D228",
"GX c #D0C2D0DAFFFF",
"HX c #FB49D8B1F920",
"JX c #F5E5CD01F608",
"KX c #D0E0FA7BF392",
"LX c #FB45F823E65F",
"PX c #F59EF7EDF69D",
"IX c #EE4DF274F635",
"UX c None",
/* pixels */
"UXUXUXUXUXUXUXUXUXUX1 1 4 4 5 5 u u u i i i UXUXUXUXUXUXUXUXUXUX",
"UXUXUXUXUXUXUXUXUX3 6 6 7 7 p p s s a a g g j UXUXUXUXUXUXUXUXUX",
"UXUXUXUXUXUXUX2 3 6 r q m n B N N S F F C C h j j UXUXUXUXUXUXUX",
"UXUXUXUXUXUX2 9 r q e n %X%X&X3X3X2X2X6XH K L h h d UXUXUXUXUXUX",
"UXUXUXUX8 8 9 w e +X$X@X%XM M N S D D 6X9X8X7XK V f d UXUXUXUXUX",
"UXUXUXUX8 0 w M.#X$X$X$X@XM M N S D D 6X8X8X8X5XG V f y UXUXUXUX",
"UXUXUX0 z.b.C.=Xm.n.n.+X@X@X%X&X1XD H H J J J 5X5XA V y t UXUXUX",
"UXUXv.z.b.C.-X=Xm.n.n.+X@X%X&X3X1X2X6XJ J J G G ,X,XZ b t + UXUX",
"UXUXz.N.C.-XV.B.B.m.#X#X$X*X*X3X4X4X9X7X7XG A A A >X>Xv t + UXUX",
"UXx.c.N.xXxXV.B.B.=X=X;X;X:X:XqXqXwXwX8X7X5XA Z Z c <Xc k + UXUX",
"x.c.N.~.xXxX~.V.-X-X;X;X:X:XqXqXqXeXwXwX5X,X>Xc v c  X Xk # @ UX",
"x.c.~.!.zXzX!.~.xXlXlXcXcXcXSXSXDXDXeXeX,X<X>Xc v v  X Xl - @ . ",
"Y.T.~.!._._.!.!.zXzXcXcXcXSXSXSXFXDXDXeX0X<X Xv l l x x z - @ . ",
"Y.T.{.MX_.{._.MXMXCXZXZXKXKXKXLXLXFXFXAX0XoX X|.z z z z z > O . ",
"W.Q.[.BX[.].[.BXVXCXZXZXKXKXIXPXLXLXAXAX0XoX|.|.< > > < z : O   ",
"W.Q.[.BX[.].[.BXVXVXZXZXKXKXIXPXPXLXAXAXOXOX|.|.< : : , #.: O   ",
"R.Q.'.BX].`.'.'.NXCXZXnXKXKXIXIXHXHXJXAXdXOXXX%.@., , , #.: o   ",
"R.E.`.NX`.`.`.'.NXbXmXnXnXGXGXHXHXHXJXdXdXOXXX%.@.@., @.#.; o X ",
"R.E./.NX(././.^.vXvXbXmXmXGXGXGXJXJXkXkXdXsX.X=.$.$.$.#.&.; & X ",
"A.E./.(.(.^.).I.U.pXpXpXaXaXjXjXkXkXkXkXhXsXt.-.*.$.=.%.&.; $ X ",
"A.S.I.^.vXvXI.L.L.P.iXiXiXaXaXjXjXkXhXhXhXg.t.-.*.*..XXX+.= $ X ",
"A.A.S.I.vXvXL.J.J.K.K.rXyXyXuXfXfXfXgXgXk.g.r.r.*.-..X=.+.= $ UX",
"UXUXD.Z.U.pXP.J.G.G.| } 9.tXuXuXfXfXj.k.h.a.a.r.y.t.;.;.= % UXUX",
"UXUX) D.J.P.P.K.G.| [ [ { 9.0.w.s.d.d.i.p.p.a.a.y.t.;.:.* % UXUX",
"UXUX) ) F.J.K.yXH.| [ [ { 7.8.4.q.s.i.i.p.p.h.g.sXt.:.X.* UXUXUX",
"UXUXUX( _ ] G.H.H.} [ [ { 7.8.4.5.s.u.i.i.h.k.g.y.y.o.X.UXUXUXUX",
"UXUXUXUX( _ ` [ } rXrXtX9.7.8.4.5.s.f.j.j.gXk.l.e.o.X...UXUXUXUX",
"UXUXUXUXUXQ W ` ` { 9.0.0.8.8.4.q.q.f.d.d.d.l.e.o.O...UXUXUXUXUX",
"UXUXUXUXUXUXR R R W ` ' 7.7.8.w.w.q.q.u.u.e.1.1.O.UXUXUXUXUXUXUX",
"UXUXUXUXUXUXUXUXY Y E ^ ' ' 3.3.6.6.2.2.,.,.<. .UXUXUXUXUXUXUXUX",
"UXUXUXUXUXUXUXUXUXUXT T ! ! / / ~ ~ >.>.>.>.UXUXUXUXUXUXUXUXUXUX",
"UXUXUXUXUXUXUXUXUXUXUXY P P P I I I U U UXUXUXUXUXUXUXUXUXUXUXUX"
};
