/* XPM */
static char *contrast[] = {
/* columns rows colors chars-per-pixel */
"32 32 172 2",
"   c #275827582758",
".  c #286B286B286B",
"X  c #295F295F295F",
"o  c #2A692A692A69",
"O  c #2B182B182B18",
"+  c #2BCE2BCE2BCE",
"@  c #2D5E2D5E2D5E",
"#  c #2E352E352E35",
"$  c #2F632F632F63",
"%  c #302D302D302D",
"&  c #311631163116",
"*  c #321532153215",
"=  c #335B335B335B",
"-  c #340934093409",
";  c #352B352B352B",
":  c #363D363D363D",
">  c #371437143714",
",  c #387F387F387F",
"<  c #394139413941",
"1  c #39FF39FF39FF",
"2  c #3B583B583B58",
"3  c #3D353D353D35",
"4  c #3E4A3E4A3E4A",
"5  c #3FDB3FDB3FDB",
"6  c #414941494149",
"7  c #420F420F420F",
"8  c #433643364336",
"9  c #446C446C446C",
"0  c #44FB44FB44FB",
"q  c #470E470E470E",
"w  c #485748574857",
"e  c #4A604A604A60",
"r  c #4BB54BB54BB5",
"t  c #4C4F4C4F4C4F",
"y  c #4D864D864D86",
"u  c #4EAE4EAE4EAE",
"i  c #4F464F464F46",
"p  c #505D505D505D",
"a  c #516C516C516C",
"s  c #524552455245",
"d  c #536753675367",
"f  c #549754975497",
"g  c #552655265526",
"h  c #563D563D563D",
"j  c #577257725772",
"k  c #585C585C585C",
"l  c #593459345934",
"z  c #5A5D5A5D5A5D",
"x  c #5B445B445B44",
"c  c #5C545C545C54",
"v  c #5D415D415D41",
"b  c #5E035E035E03",
"n  c #5F3C5F3C5F3C",
"m  c #603160316031",
"M  c #614E614E614E",
"N  c #626162616261",
"B  c #633D633D633D",
"V  c #648C648C648C",
"C  c #657465746574",
"Z  c #668F668F668F",
"A  c #679067906790",
"S  c #686F686F686F",
"D  c #697769776977",
"F  c #6A726A726A72",
"G  c #6B746B746B74",
"H  c #6C566C566C56",
"J  c #6DC86DC86DC8",
"K  c #6E4F6E4F6E4F",
"L  c #6FAF6FAF6FAF",
"P  c #709970997099",
"I  c #719D719D719D",
"U  c #723272327232",
"Y  c #732373237323",
"T  c #748374837483",
"R  c #76CD76CD76CD",
"E  c #78D478D478D4",
"W  c #7CD07CD07CD0",
"Q  c #80DC80DC80DC",
"!  c #838783878387",
"~  c #878E878E878E",
"^  c #8AB28AB28AB2",
"/  c #8B978B978B97",
"(  c #8C988C988C98",
")  c #8DB98DB98DB9",
"_  c #8EC38EC38EC3",
"`  c #8F6E8F6E8F6E",
"'  c #910A910A910A",
"]  c #923592359235",
"[  c #939B939B939B",
"{  c #9DC19DC19DC1",
"}  c #9ECC9ECC9ECC",
"|  c #9FBC9FBC9FBC",
" . c #A0C3A0C3A0C3",
".. c #A1C1A1C1A1C1",
"X. c #A276A276A276",
"o. c #A3C9A3C9A3C9",
"O. c #A4AAA4AAA4AA",
"+. c #A5C8A5C8A5C8",
"@. c #A6A5A6A5A6A5",
"#. c #A8EEA8EEA8EE",
"$. c #AAD0AAD0AAD0",
"%. c #ABDFABDFABDF",
"&. c #ACEAACEAACEA",
"*. c #ADC8ADC8ADC8",
"=. c #B229B229B229",
"-. c #B3C0B3C0B3C0",
";. c #B4C6B4C6B4C6",
":. c #B574B574B574",
">. c #B723B723B723",
",. c #B7C1B7C1B7C1",
"<. c #B891B891B891",
"1. c #B9E1B9E1B9E1",
"2. c #BACABACABACA",
"3. c #BBCABBCABBCA",
"4. c #BC9FBC9FBC9F",
"5. c #BDB5BDB5BDB5",
"6. c #BEB4BEB4BEB4",
"7. c #BFC1BFC1BFC1",
"8. c #C135C135C135",
"9. c #C251C251C251",
"0. c #C584C584C584",
"q. c #C85DC85DC85D",
"w. c #C9D9C9D9C9D9",
"e. c #CB2DCB2DCB2D",
"r. c #CBE7CBE7CBE7",
"t. c #CD11CD11CD11",
"y. c #CDEFCDEFCDEF",
"u. c #CECACECACECA",
"i. c #D028D028D028",
"p. c #D0C8D0C8D0C8",
"a. c #D1F2D1F2D1F2",
"s. c #D3DCD3DCD3DC",
"d. c #D4E0D4E0D4E0",
"f. c #D611D611D611",
"g. c #D6CAD6CAD6CA",
"h. c #D80AD80AD80A",
"j. c #D8E0D8E0D8E0",
"k. c #DBD3DBD3DBD3",
"l. c #DCF3DCF3DCF3",
"z. c #DDECDDECDDEC",
"x. c #DEC4DEC4DEC4",
"c. c #E02FE02FE02F",
"v. c gray88",
"b. c #E198E198E198",
"n. c #E30DE30DE30D",
"m. c #E3F4E3F4E3F4",
"M. c #E509E509E509",
"N. c #E5FDE5FDE5FD",
"B. c #E6F2E6F2E6F2",
"V. c #E7E4E7E4E7E4",
"C. c #E8D6E8D6E8D6",
"Z. c #E9EDE9EDE9ED",
"A. c #EAD9EAD9EAD9",
"S. c #EBCCEBCCEBCC",
"D. c #ECB8ECB8ECB8",
"F. c #EDD4EDD4EDD4",
"G. c #EEF8EEF8EEF8",
"H. c #F002F002F002",
"J. c #F100F100F100",
"K. c #F1E2F1E2F1E2",
"L. c #F2EEF2EEF2EE",
"P. c #F437F437F437",
"I. c #F4F5F4F5F4F5",
"U. c #F5D1F5D1F5D1",
"Y. c #F6D9F6D9F6D9",
"T. c #F7E6F7E6F7E6",
"R. c #F8F1F8F1F8F1",
"E. c #F9E1F9E1F9E1",
"W. c #FAFCFAFCFAFC",
"Q. c #FC21FC21FC21",
"!. c #FD0DFD0DFD0D",
"~. c None",
/* pixels */
"~.~.~.~.~.~.~.~.~.~.~.~.~.~.~.~.~.~.~.~.~.~.~.~.~.~.~.~.~.~.~.~.",
"~.~.~.~.~.~.~.~.~.~.~.~.~.~.~.~.~.~.~.~.~.~.~.~.~.~.~.~.~.~.~.~.",
"~.~.~.~.~.~.~.~.~.~.~.~.O.O.O.O.o.o.X.X.~.~.~.~.~.~.~.~.~.~.~.~.",
"~.~.~.~.~.~.~.~.~.~.3.6.6.5.5.5.4.4.4.3.3.<.~.~.~.~.~.~.~.~.~.~.",
"~.~.~.~.~.~.~.~.&.2.p.x.M.C.Z.Z.Z.C.V.m.l.y.>.#.~.~.~.~.~.~.~.~.",
"~.~.~.~.~.~.~.2.7.r.v.G.Y.W.!.!.!.Q.E.I.D.x.w.1.#.~.~.~.~.~.~.~.",
"~.~.~.~.~.~.9.y.z.Z.L.T.R.T.U.I.P.I.I.I.I.J.Z.s.%.` ~.~.~.~.~.~.",
"~.~.~.~.~.4.u.l.H.E.E.T.U.L.H.F.F.F.G.K.I.I.H.s.o.! G ~.~.~.~.~.",
"~.~.~.~.*.8.x.G.Y.T.I.K.H.G.D.S.A.Z.Z.A.D.B.j.3.' Y m f ~.~.~.~.",
"~.~.~.~.3.t.Z.R.T.P.H.F.D.S.A.Z.C.V.V.n.j.0.$.[ Q P M l ~.~.~.~.",
"~.~.~.3.i.c.L.E.P.H.F.D.A.Z.C.V.V.V.V.h.,.] F M T E G M z ~.~.~.",
"~.~.~.5.l.F.Y.T.J.D.S.A.Z.C.V.V.V.n.h.3.` Z 8 0 A R L A c ~.~.~.",
"~.~.X.5.m.U.Y.P.F.A.Z.C.V.B.N.B.B.h.>.` N 9 , 5 k D L H v s ~.~.",
"~.~.X.4.V.E.U.J.S.Z.C.V.B.N.N.b.g.2._ Z 0 - - 2 w z K L v a ~.~.",
"~.~...2.C.Q.L.D.Z.V.B.N.M.N.N.f.:.) M 9 < - - ; > e G I c p ~.~.",
"~.~...1.C.!.J.Z.V.B.N.M.M.c.f.1.( V 9 - - - = & # 7 D U c i ~.~.",
"~.~. .1.C.Q.H.V.N.M.m.M.M.d.;.( n 8 , - = * * $ @ 6 S P x i ~.~.",
"~.~. .1.V.W.H.V.M.m.m.x.d.<./ B 7 * = = * & % % - q S K z i ~.~.",
"~.~.| 1.N.T.J.A.M.n.m.s.-./ b 6 > * * * & $ # - 6 d S F l i ~.~.",
"~.~.} 1.b.K.K.F.N.z.s.,./ N 6 & & * & % $ @ O > p M S Z k u ~.~.",
"~.~.~.<.j.Z.K.K.B.a.=.^ b 6 : & & % $ # @ O . 1 b J A m h ~.~.~.",
"~.~.~.:.e.k.G.K.b.6./ m 5 % % & % # @ + o @ > e A L N l d ~.~.~.",
"~.~.~.~.:.q.V.D.d.+.V 3 = $ $ $ # @ + X   : g A H Z l a ~.~.~.~.",
"~.~.~.~.@.,.i.u.>._ x 4 1 : & # # $ * - , e A U D n d r ~.~.~.~.",
"~.~.~.~.~.O.+.{ ( W L M s 8 ; # % : 5 t x Z H D m l s ~.~.~.~.~.",
"~.~.~.~.~.~.~ W K G T I B f w 7 8 w s b G K Z n l f ~.~.~.~.~.~.",
"~.~.~.~.~.~.~.V x v Z G F S Z C V V C Z Z N k d a ~.~.~.~.~.~.~.",
"~.~.~.~.~.~.~.~.p g v B A F H H G D A V n l p r ~.~.~.~.~.~.~.~.",
"~.~.~.~.~.~.~.~.~.~.h k l l l k j j h h f s ~.~.~.~.~.~.~.~.~.~.",
"~.~.~.~.~.~.~.~.~.~.~.~.i u y t t t t t ~.~.~.~.~.~.~.~.~.~.~.~.",
"~.~.~.~.~.~.~.~.~.~.~.~.~.~.~.~.~.~.~.~.~.~.~.~.~.~.~.~.~.~.~.~.",
"~.~.~.~.~.~.~.~.~.~.~.~.~.~.~.~.~.~.~.~.~.~.~.~.~.~.~.~.~.~.~.~."
};
