/* XPM */
static char *cross[] = {
/* columns rows colors chars-per-pixel */
"32 32 33 1",
"  c #E51B228B248D",
". c #E6D428692A6D",
"X c #E9592C102E14",
"o c #E9312F6F318C",
"O c #EBFC33303563",
"+ c #EC8A36B9390E",
"@ c #EDBA3B753D83",
"# c #EEDE3E324072",
"$ c #F10D3ED240D2",
"% c #EF9F42D34534",
"& c #F21743314561",
"* c #F1984718497B",
"= c #F33F4AB64D1D",
"- c #F4C24EB4513A",
"; c #F4FB52085488",
": c #FCAD53F15634",
"> c #F69F56DC596C",
", c #FE9756E1595C",
"< c #F7665A455CB1",
"1 c #FC495B1A5D11",
"2 c #F8155E5B6102",
"3 c #FA4F5EC8617E",
"4 c #F83E60306269",
"5 c #FB1762B2654D",
"6 c #FB3D666468FB",
"7 c #FD2D6B0A6D83",
"8 c #FD066E9A7152",
"9 c #FE7272DD75A4",
"0 c #FF04768F797E",
"q c #FF437A4F7D41",
"w c #FF2D7E41818D",
"e c #FF74820A8510",
"r c None",
/* pixels */
"rrrrrrrrrrrrrrrrrrrrrrrrrrrrrrrr",
"rrrrrrrrrrrrrrrrrrrrrrrrrrrrrrrr",
"rrrrrrrrrrrrrrrrrrrrrrrrrrrrrrrr",
"rrrrrrrrrrrrrrrrrrrrrrrr42rrrrrr",
"rrrrrr0000rrrrrrrrrrrr4565>rrrrr",
"rrrrr0qqq09rrrrrrrrrr456772;rrrr",
"rrrr0qqqqq99rrrrrrrr2568096<;rrr",
"rrrr00qwew098rrrrrr24679084>-rrr",
"rrrr90qweeq976rrrr24670974;=rrrr",
"rrrr990qeew0876rr24679982;=&rrrr",
"rrrrrr890qww0862<2679972;=rrrrrr",
"rrrrrr7789qwq9766678972;=%rrrrrr",
"rrrrrrrr6780qq0099996<;*rrrrrrrr",
"rrrrrrrr5568qq0999082;*%rrrrrrrr",
"rrrrrrrrrr2690755697;*rrrrrrrrrr",
"rrrrrrrrrr<5995,,376-%rrrrrrrrrr",
"rrrrrrrrrr<5993,:176;%rrrrrrrrrr",
"rrrrrrrrr<<599511576;*%rrrrrrrrr",
"rrrrrrrr<<3689877776<=&@rrrrrrrr",
"rrrrrrr<<267776555651;*#+rrrrrrr",
"rrrrrr><26775<;=*=;<51;&@Orrrrrr",
"rrrrr<<25776>=%@@@&=11>=$+Orrrrr",
"rrrr><25775>=%rrrr+#*;1,=$OXrrrr",
"rrrr><3675>=%#rrrrOO@&:,-&OXrrrr",
"rrrr><353>=%rrrrrrrro+&==&+Xrrrr",
"rrrr;><<;=%@rrrrrrrr.XO@&$OXrrrr",
"rrrrr;;-*%rrrrrrrrrrrr.XOOXrrrrr",
"rrrrrr=*%@rrrrrrrrrrrr  XXrrrrrr",
"rrrrrrrrrrrrrrrrrrrrrrrrrrrrrrrr",
"rrrrrrrrrrrrrrrrrrrrrrrrrrrrrrrr",
"rrrrrrrrrrrrrrrrrrrrrrrrrrrrrrrr",
"rrrrrrrrrrrrrrrrrrrrrrrrrrrrrrrr"
};
