/* XPM */
static char *delete[] = {
/* columns rows colors chars-per-pixel */
"32 32 134 2",
"   c #B6CB4AAA2A0C",
".  c #BA644A752BF8",
"X  c #BD294D9D3198",
"o  c #BD7F50DA356E",
"O  c #BFBB5255391C",
"+  c #C5564F4D3919",
"@  c #CBBF4E4F3C10",
"#  c #C55F54203C8C",
"$  c #C93D517E3C4E",
"%  c #C66556234363",
"&  c #C8B3543E4093",
"*  c #C6B25B64442D",
"=  c #CB6F59E7467D",
"-  c #CCC75C024AAB",
";  c #D29A57374718",
":  c #D76F56BA4B51",
">  c #D0F05D5B4DFF",
",  c #D3105CDB50EA",
"<  c #E72255CD4B36",
"1  c #E96156594A13",
"2  c #E7C059194E34",
"3  c #EA5E5A634DA9",
"4  c #E7BE5C56539A",
"5  c #EA0F5E2E53F7",
"6  c #CA5161D34BF7",
"7  c #CEC960B352AB",
"8  c #D4FC62EE54DC",
"9  c #DA8D61DA56CC",
"0  c #D6A264C8597A",
"q  c #DA0C62255D0C",
"w  c #D60069B05961",
"e  c #DBAD6A6C5D7B",
"r  c #EE6C617A4F58",
"t  c #EDE36366554D",
"y  c #EF7C681E56F2",
"u  c #EB1464F95B1D",
"i  c #EEB869CD5C88",
"p  c #F070637E52AE",
"a  c #F0F26835555F",
"s  c #F22D72555ED0",
"d  c #DC9A6635638E",
"f  c #DDA96C5461DA",
"g  c #DF71679267E8",
"h  c #DEEF6FAA68FB",
"j  c #DDFB75DA6BEB",
"k  c #E07A668167C3",
"l  c #EA7A66AD6102",
"z  c #ED0C6CD4643F",
"x  c #E06167426894",
"c  c #E2F56E516E39",
"v  c #EB586DFD686D",
"b  c #E162724966BA",
"n  c #F00B712F61AE",
"m  c #E2AE74B36B1A",
"M  c #ED6974C86C5D",
"N  c #E3E078676DC6",
"B  c #EEDF7BCE6C4D",
"V  c #F1E174736314",
"C  c #F47079C6645F",
"Z  c #F36B76E86812",
"A  c #E3FF75487404",
"S  c #EC72764F70FC",
"D  c #E4267BBE73C9",
"F  c #ED877D9274DB",
"G  c #E3C77DD77A52",
"H  c #EE3A7FB678EC",
"J  c #F16E7EC172B3",
"K  c #F62A83E46D82",
"L  c #E2E0810F7744",
"P  c #EF0A80C277B8",
"I  c #E4FB83CB7CA6",
"U  c #ED9282947A77",
"Y  c #EDC08AAA7EBF",
"T  c #F51E85E9720E",
"R  c #F53A897973DC",
"E  c #F8F78BD77588",
"W  c #F14D85147C9D",
"Q  c #F3BD8EAB7A89",
"!  c #F9448FD57A4A",
"~  c #F5C491D27E6C",
"^  c #F8AE91097C52",
"/  c #E7CE858383D6",
"(  c #ECD3867C817C",
")  c #E58B8C4480A5",
"_  c #ED518B2384C5",
"`  c #EBED8CA28AC8",
"'  c #F39C8EC88295",
"]  c #F2858D95892B",
"[  c #ECDB914D86A5",
"{  c #ECCB92C18C3F",
"}  c #F0109AA08DFC",
"|  c #F58293C4830A",
" . c #FA0F962182E7",
".. c #F46A99CA87BA",
"X. c #FA4E9A85872E",
"o. c #F22C940E8B1E",
"O. c #F4609AAC8C2E",
"+. c #F9E09C6D8A50",
"@. c #EDD795A29163",
"#. c #EECA9A0C9461",
"$. c #F4C69E9D9374",
"%. c #F800A1678E5F",
"&. c #F99BA0BA8E67",
"*. c #EFE2A7E89FA7",
"=. c #F546A1619197",
"-. c #FA51A4409360",
";. c #F202A4469C12",
":. c #F5B7A8BF9BF8",
">. c #FA9AABC79D50",
",. c #F1E2A799A3CA",
"<. c #F301AA60A53C",
"1. c #FAB5AF7FA2CA",
"2. c #F433AE74A94A",
"3. c #F819B3D3A7B7",
"4. c #FA7AB2FCA5B3",
"5. c #F26AB30AAD7E",
"6. c #FB81B5C5A941",
"7. c #F870B89DAE1D",
"8. c #FA8FBA15AE36",
"9. c #F2F5B815B30E",
"0. c #F65DBA5DB4DA",
"q. c #F96BBE8CB68B",
"w. c #FCA3C1A8B5DA",
"e. c #F7E6C1F4BDDA",
"r. c #FABDC540BCE0",
"t. c #FB0FC97CBFA6",
"y. c #F8BEC5F8C111",
"u. c #FBA5CAB7C32E",
"i. c #FAA5D7B1D4CA",
"p. c #FB31D95FD6EC",
"a. c #FB9ADB81D94D",
"s. c #FD04E1FEDC3F",
"d. c gray100",
"f. c None",
/* pixels */
"f.f.f.f.f.f.f.f.f.f.f.f.f.f.f.f.f.f.f.f.f.f.f.f.f.f.f.f.f.f.f.f.",
"f.f.f.f.f.f.f.f.f.f.f.f.f.f.f.f.f.f.f.f.f.f.f.f.f.f.f.f.f.f.f.f.",
"f.f.f.f.f.f.f.f.f.f.f.f.g d d q q q q q f.f.f.f.f.f.f.f.f.f.f.f.",
"f.f.f.f.f.f.f.f.f.f.A G I I I G G G D j f q f.f.f.f.f.f.f.f.f.f.",
"f.f.f.f.f.f.f.f.g A I @.,.5.9.9.5.5.*.{ D e 8 , f.f.f.f.f.f.f.f.",
"f.f.f.f.f.f.f.c A / #.2.q.r.u.t.r.q.7.:.[ D f 8 , f.f.f.f.f.f.f.",
"f.f.f.f.f.f.k A { <.e.u.r.8.4.>.>.>.>.4.3.;.U f 8 - f.f.f.f.f.f.",
"f.f.f.f.f.c A / <.e.u.t.7.>.=.+.X.+.-.>.6.4.O.D e - - f.f.f.f.f.",
"f.f.f.f.x A ` ,.y.u.6.-.O...| ~  . . .X.X.&.:.} N 9 - % f.f.f.f.",
"f.f.f.f.c I ;.q.u.w.-. .~ Q Q Q ! ^ ! E E ^ -.=.Y b > & f.f.f.f.",
"f.f.f.c A { 0.r.6.-.X.~ Q R R T R R R T K K R ~ $._ 8 @ $ f.f.f.",
"f.f.f.A ( $.q.w.-.~ R K B B C C C C C C C C V T $.o.f ; & f.f.f.",
"f.f.g D @.<.3.>...T n y y t t t t t t t t y s K | | D e = O f.f.",
"f.f.d G ;.4.>.+.~ R W W W W W W W W W W W J V V J W ( D 6 o f.f.",
"f.f.d G ;.4.-.~ R ..r.a.p.p.p.p.p.p.p.a.a.0.F t i J o.I 6 X f.f.",
"f.f.d D ;.1.X.E K =.s.d.d.d.d.d.d.d.d.d.d.i.P 1 t M o.) 6 X f.f.",
"f.f.q A $.:. .K K %.s.d.d.d.d.d.d.d.d.d.d.i.P 1 5 M o.) 6 X f.f.",
"f.f.q m { $.^ K C | e.p.p.i.i.i.i.i.i.p.a.0.M 3 u M _ I 6 . f.f.",
"f.f.q h ( o.~ R C C J P P P P P P P P P U M u t M H U j * . f.f.",
"f.f.0 f N U | ! C a 3 1 1 1 1 1 1 1 1 1 1 1 2 u W Y N w # . f.f.",
"f.f.f.9 9 m O.O.Z p r 3 3 1 1 1 1 1 1 1 1 < < z ] _ w # X f.f.f.",
"f.f.f., : e _ o.T V y t 3 3 3 3 3 2 2 < < 4 u S _ L - . . f.f.f.",
"f.f.f.f., 0 m U o.' z 3 3 3 3 3 2 2 < < < u U _ D w # . f.f.f.f.",
"f.f.f.f.7 8 9 b [ o.F z i u 5 2 2 4 5 u l S _ I w & X   f.f.f.f.",
"f.f.f.f.f.- > 8 b U o.o.W M u 5 4 u M P ] _ D 0 # X . f.f.f.f.f.",
"f.f.f.f.f.f.= - , f I [ _ H M v v M F ( _ L 0 $ X   f.f.f.f.f.f.",
"f.f.f.f.f.f.f.= = - 8 e D U ( _ _ ( U m w = # X . f.f.f.f.f.f.f.",
"f.f.f.f.f.f.f.f.% # $ = e m G I I D j 8 # .     f.f.f.f.f.f.f.f.",
"f.f.f.f.f.f.f.f.f.f.+ # * - 6 6 - * * # X . f.f.f.f.f.f.f.f.f.f.",
"f.f.f.f.f.f.f.f.f.f.f.f.o o o X . . .   f.f.f.f.f.f.f.f.f.f.f.f.",
"f.f.f.f.f.f.f.f.f.f.f.f.f.f.f.f.f.f.f.f.f.f.f.f.f.f.f.f.f.f.f.f.",
"f.f.f.f.f.f.f.f.f.f.f.f.f.f.f.f.f.f.f.f.f.f.f.f.f.f.f.f.f.f.f.f."
};
