/* XPM */
static char *layers[] = {
/* columns rows colors chars-per-pixel */
"32 32 254 2",
"   c #1DF65B2319EA",
".  c #1E765BE51AB0",
"X  c #1EF15C7C1B01",
"o  c #1F795D6B1C39",
"O  c #20395E2B1C33",
"+  c #20225E421CBC",
"@  c #20AC5ECB1CB8",
"#  c #20C25F3F1DCD",
"$  c #217D60261E5A",
"%  c #21EC60711E09",
"&  c #229B61411E99",
"*  c #224161401F4C",
"=  c #2354627D1FF1",
"-  c #241F632E201D",
";  c #2405634020CD",
":  c #24B863E120B9",
">  c #24EB645F2183",
",  c #2570651821CD",
"<  c #262A657F222B",
"1  c #267666292274",
"2  c #26FD669322E6",
"3  c #276167722378",
"4  c #280F677923CB",
"5  c #280F68292412",
"6  c #28E168C1244A",
"7  c #28AF68E124B9",
"8  c #2953698D24D8",
"9  c #29956A172551",
"0  c #2A1069FC2547",
"q  c #2A0B6A8125CE",
"w  c #2A7C6AF52619",
"e  c #2AF76B412621",
"r  c #2B5A6C1C2670",
"t  c #2B9A6C4A26E9",
"y  c #2BE86CC426FA",
"u  c #2C1D6D072717",
"i  c #2C806D7527B7",
"p  c #2D3F6E4E2825",
"a  c #2E056F972904",
"s  c #2EB0700C2946",
"d  c #2EBC708E29B6",
"f  c #2F5871432A54",
"g  c #300771C62AAE",
"h  c #3073722C2A8F",
"j  c #303C728E2B35",
"k  c #308F730D2B8F",
"l  c #310173722BF7",
"z  c #317874352C6E",
"x  c #31DD74022BFA",
"c  c #320174AC2CFC",
"v  c #32B575C82D8A",
"b  c #337576362D9A",
"n  c #32EE75CE2DC8",
"m  c #334876532E31",
"M  c #33C076CE2E97",
"N  c #345677952F22",
"B  c #350578592F4E",
"V  c #356B78BA2FFB",
"C  c #361A79CE3096",
"Z  c #36777A083098",
"A  c #36867A503137",
"S  c #37257AE931A6",
"D  c #36F87B2D3176",
"F  c #37947B8831F1",
"G  c #37FB7BC33215",
"H  c #389B7CFA32C7",
"J  c #393B7D933351",
"K  c #396A7E4933A6",
"L  c #399D7E6233CE",
"P  c #3A497EA63443",
"I  c #3A627F3E3467",
"U  c #3AB77FB734C5",
"Y  c #3B1E7F8334EB",
"T  c #3B558051354B",
"R  c #3BFA80DF358E",
"E  c #3C4B8193363D",
"W  c #3CD881CC36DD",
"Q  c #3CE18264369E",
"!  c #3D56828C370D",
"~  c #3D9F83553760",
"^  c #3E2083A53786",
"/  c #3E1B836737D9",
"(  c #3E868483384F",
")  c #3F328478381F",
"_  c #3F76855B3946",
"`  c #406B866739A4",
"'  c #40C4868F39B0",
"]  c #406B86AA3A20",
"[  c #40BE874B39F4",
"{  c #4127878B3A51",
"}  c #413487B73ADF",
"|  c #419488373B9B",
" . c #4239888A3B0E",
".. c #421C88CD3BCB",
"X. c #42A5897E3C79",
"o. c #42CD897B3BFE",
"O. c #43688A853C67",
"+. c #434F8A9A3D0F",
"@. c #43CF8ABE3C86",
"#. c #44338B1C3CB2",
"$. c #44258AFA3CEF",
"%. c #44198B783D3A",
"&. c #44E78BC23D59",
"*. c #44238B893DD8",
"=. c #449E8C243D57",
"-. c #44B78C573DC5",
";. c #459D8C9C3DFD",
":. c #45A18CC13EDB",
">. c #45728D433F03",
",. c #45EB8DAB3E7C",
"<. c #45CB8DB43F45",
"1. c #468F8E5C3F19",
"2. c #472E8EEC3F6B",
"3. c #469E8F3D3F87",
"4. c #47218E99402F",
"5. c #46C28F113FD3",
"6. c #47838FB84017",
"7. c #48088FD5403A",
"8. c #483E9025407D",
"9. c #483B90BA4128",
"0. c #492B9189416B",
"q. c #4851916941E7",
"w. c #49A291FB4231",
"e. c #499A92A74254",
"r. c #4A8A930C427C",
"t. c #4A9B936C42B2",
"y. c #4A98935B4329",
"u. c #4B2393C6434C",
"i. c #4AB794324367",
"p. c #4B1794364376",
"a. c #4B3294B84423",
"s. c #4B7B952D44C5",
"d. c #4BE194DA43F7",
"f. c #4BF495374444",
"g. c #4C5E95BB4504",
"h. c #4D07960844FB",
"j. c #4C6996214530",
"k. c #4D2E9688454D",
"l. c #4D7F979545AE",
"z. c #4E12977F459C",
"x. c #4CF6970E461D",
"c. c #4D52975D4643",
"v. c #4E2E97C54624",
"b. c #4E3E985B4674",
"n. c #4EDE987246BE",
"m. c #4F71999146AD",
"M. c #4E62986C46F0",
"N. c #4F04990746FE",
"B. c #4F8299724796",
"V. c #4FF799B0475C",
"C. c #50729ACC4848",
"Z. c #505E9B394820",
"A. c #51059B5D4880",
"S. c #516B9BC64930",
"D. c #51EB9BB04945",
"F. c #51AA9C3B49AB",
"G. c #523D9CBF497B",
"H. c #52019CC149D7",
"J. c #52BA9DBE4A96",
"K. c #531F9DB34A66",
"L. c #52BE9E374AAC",
"P. c #53459E5B4A62",
"I. c #53AD9E854B07",
"U. c #54139F064B9E",
"Y. c #54629F9B4B7C",
"T. c #556CA01D4C18",
"R. c #5562A0BF4C8D",
"E. c #5580A1894CAE",
"W. c #5598A1044D16",
"Q. c #5530A1294CE4",
"!. c #5601A1604C85",
"~. c #562CA1924D04",
"^. c #55D5A23C4D55",
"/. c #566AA2CA4E3F",
"(. c #5773A30E4E9C",
"). c #5788A39F4E6A",
"_. c #580EA3BB4E80",
"`. c #5816A3D94EE4",
"'. c #5862A49E4F15",
"]. c #58B9A59C5055",
"[. c #594EA5D35031",
"{. c #59B4A66E5077",
"}. c #59A1A6875105",
"|. c #5A07A6855087",
" X c #5A24A67B50FF",
".X c #5A73A7BF511C",
"XX c #5B1FA7875156",
"oX c #5B92A8B45260",
"OX c #5BBFA92A52E7",
"+X c #5C25A92352BF",
"@X c #5C93A9C752C1",
"#X c #5C99AA215307",
"$X c #5C9DAA5D531F",
"%X c #5D60AA9F537C",
"&X c #5D66AAE95415",
"*X c #5E17ABA3545B",
"=X c #5E94ACCA554B",
"-X c #5F5BAD065581",
";X c #5F94ADFC55B9",
":X c #5FC0AD9E55D8",
">X c #6006ADBE55E4",
",X c #6040AEC3568E",
"<X c #6104AF1256E3",
"1X c #60D8AF325704",
"2X c #6147AF9C572A",
"3X c #61F5B02857BA",
"4X c #6187B096579C",
"5X c #61BFB116581A",
"6X c #6255B09B57F7",
"7X c #624BB17E586C",
"8X c #6368B1EA58C8",
"9X c #635EB2A65970",
"0X c #638AB39C5982",
"qX c #6383B2DE59E1",
"wX c #6413B2F35965",
"eX c #6438B37B5A07",
"rX c #6478B46A5A5B",
"tX c #6580B4D55B68",
"yX c #65A6B5ED5B6C",
"uX c #6667B5F95BD7",
"iX c #663CB6EB5B7B",
"pX c #666AB6F15C25",
"aX c #67A6B6FB5CA3",
"sX c #6775B84E5CC7",
"dX c #6830B8AD5D7E",
"fX c #6851B93C5D4D",
"gX c #6896B9255DF6",
"hX c #691DB8BE5DE8",
"jX c #694FBA165E65",
"kX c #6972BA4C5EC7",
"lX c #6A22BA7C5F82",
"zX c #6A79BB925F81",
"xX c #6AFDBBEB600F",
"cX c #6B40BC74604D",
"vX c #6C7EBD696144",
"bX c #6CAFBE8061B2",
"nX c #6D47BEA9621C",
"mX c #6D41BF46623B",
"MX c #6E89BF8A62D7",
"NX c #6E38C004633B",
"BX c #6F15C0CB639F",
"VX c #6F1BC17E63E0",
"CX c #6F80C1E3644C",
"ZX c #7017C1AB646B",
"AX c #703BC283651B",
"SX c #70F5C3926557",
"DX c #7122C3B965F4",
"FX c #7189C45965DE",
"GX c #71C4C4B66635",
"HX c #720FC5276695",
"JX c #7294C5AB66B6",
"KX c #733CC6876764",
"LX c #7406C7606832",
"PX c None",
/* pixels */
"PXPXPXPXPXPXPXPXPXPXPXPXPXPXPXPXPXPXPXPXPXPXPXPXPXPXPXPXPXPXPXPX",
"PXPXPXPXPXPXPXPXPXPXPXPXPXPXPXPXPXPXPXPXPXPXPXPXPXPXPXPXPXPXPXPX",
"PXPXPXPXPXPXPXPXPXPXPXPXPXPXPXPXPXPXPXPXPXPXPXPXPXPXPXPXPXPXPXPX",
"PXPXPXPXPXPXPXPXPXPXPXPXPXPXPXPXPXPXPXPXPXPXPXPXPXPXPXPXPXPXPXPX",
"PXPXPXPXPXPXPXPXPXPXPXPXPXPXPXPXPXPXPXPXPXPXPXPXPXPXPXPXPXPXPXPX",
"PXPXPXPXPXPXPXPXPXPXPXPXPXPXPXPXPXPXPXPXPXPXPXPXPXPXPXPXPXPXPXPX",
"PXPXPXPXPXPXPXPXPXPXPXPXPXPXPXPXPXPXPXPXPXPXM.j.PXPXPXPXPXPXPXPX",
"PXPXPXPXPXLXPXPXPXPXPXPXPXPXPXPXPXPXPXPXPXPXx.a.PXPX8.PXPXPXPXPX",
"PXPXPXPXPXKXPXPXPXPXPXPXPXPXPXPXPXPXPXPXPXPXPXPXPXPX$.PXPXPXPXPX",
"PXPXPXPXHXGXPXPXPXPXPXPXPXPXPXPXPXPXPXPXPXPXc.s.PXPX7.2.PXPXPXPX",
"PXPXPXPXCXVXPXPXGXJXHXDXZXMXvXzXfXiXrX7X,X#X'.^.E.P.m.z.v.k.t.0.",
"PXPXPXPXmXbXPXPXJXKXGXAXBXnXcXkXsXyX0X4X;X$X[.).E.P.V.z.k.p.9.2.",
"PXPXPXPXcXzXPXPXJXJXNXlXhXaXtXqX5X,X=X$X.X).Y.G.S.n.u.w.w.6.&.@.",
"PXPXPXPXjXdXPXPXFXSXxXeX8X6X,X=X&XoX|.'.^.P.V.z.k.y.4.:.>.%.} ` ",
"PXPXPXPXpXyXPXPXCXBXkXwX6X<X-X&XoX|._.!.I.C.k.p.e.6.*.X.o.[ ^ Q ",
"PXPXPXPXeX9XPXPXmXnXdX8X2X:X*X+X X`.!.P.A.v.y.9.3.%.} _ _ ~ U L ",
"PXPXPXPX4X,XPXPXcXxXuX3X>X*XOX}.).R.K.C.v.p.7.;.O.{ / E E I F A ",
"PXPXPXPX%X@XPX=XdXgX9X-X%XoX]./.Y.G.B.k.t.6.&. .' ^ Y J J D N m ",
"PXPXPXPX'._.D.[.rXyX,XoX{.).Q.L.Z.v.a.0.1.@.[ ) ! Y G Z C N z k ",
"PXPXPXPX~.T.V.(.7X9X*X{.).R.J.C.l.i.9.<.O.[ ^ R P G B b n l d a ",
"PXPXPXPXR.U.PX'.1X2X@X'.~.I.A.b.a.q.<.+.{ ( R J S N x h g a u r ",
"PXPXPXPXPXS.PXR.*X*X{.!.K.C.l.i.9.>.X.] ~ T H C M l s p p t 8 6 ",
"PXPXPXPXPXv.u.A.|.XX~.S.M.f.w.5.*.| _ W P F B v k a t w w 7 2 < ",
"PXPXPXPXPXPXPXV.(.`.I.B.g.e.6.-..._ ! I G V n l d i q 7 5 1 : - ",
"PXPXPXPXPXPXPXPXW.R.H.n.d.0.2.%.} ( E L S N c g a y 9 5 1 - & % ",
"PXPXPXPXPXPXPXPXJ.F.N.d.0.1.#.{ ( E K D N c f p r 8 3 , = % @ O ",
"PXPXPXPXPXPXPXPXB.v.d.0.,.O.] / T J A M z f p e 6 2 > = $ + X . ",
"PXPXPXPXPXPXPXPXv.h.r.6.=. ._ W P G V n j a y 0 4 < ; * # o .   ",
"PXPXPXPXPXPXPXPXPXPXPXPXPXPXPXPXPXPXPXPXPXPXPXPXPXPXPXPXPXPXPXPX",
"PXPXPXPXPXPXPXPXPXPXPXPXPXPXPXPXPXPXPXPXPXPXPXPXPXPXPXPXPXPXPXPX",
"PXPXPXPXPXPXPXPXPXPXPXPXPXPXPXPXPXPXPXPXPXPXPXPXPXPXPXPXPXPXPXPX",
"PXPXPXPXPXPXPXPXPXPXPXPXPXPXPXPXPXPXPXPXPXPXPXPXPXPXPXPXPXPXPXPX"
};
