/* XPM */
static char *magifier_zoom_out[] = {
/* columns rows colors chars-per-pixel */
"32 32 153 2",
"   c #EBBB12C41D5F",
".  c #ECE51A672383",
"X  c #EE73232D2B21",
"o  c #ED772BFF3279",
"O  c #F1612F433565",
"+  c #E7FF2FF7368A",
"@  c #ECD932C537E8",
"#  c #EC5E39883D81",
"$  c #F36935F63AC2",
"%  c #95F75D4B1523",
"&  c #9AD9630B1C24",
"*  c #9CE166732087",
"=  c #A5506DD72BA6",
"-  c #A67270E22EEF",
";  c #A7BB72A83115",
":  c #A920744E338A",
">  c #AD5376E1386B",
",  c #ACF17848392E",
"<  c #B1FA7C3D3E1F",
"1  c #ED933E8D4212",
"2  c #F52F3DED419C",
"3  c #B36E7F2042D4",
"4  c #ADF973BB7AA9",
"5  c #DE4741714852",
"6  c #DB5D4EBC5707",
"7  c #EF64427F4541",
"8  c #F1D149C24AAB",
"9  c #F3C650014F63",
"0  c #EED54D525343",
"q  c #F0714F89501D",
"w  c #EA525AC5590D",
"e  c #F395565F5530",
"r  c #F52D5C8F5A6A",
"t  c #EB9E61C25F04",
"y  c #F6D6628D5FA1",
"u  c #DE385A4264DA",
"i  c #E3DA5F9B69CC",
"p  c #E434657C6FD7",
"a  c #F850669863AB",
"s  c #F83C68036468",
"d  c #F8E66BDF68EB",
"f  c #EA4A759A6F51",
"g  c #FAA974096E97",
"h  c #E3EE6E137802",
"j  c #EC4E7B767404",
"k  c #EC62706F780D",
"l  c #FC7D79407372",
"z  c #B5A382E24800",
"x  c #B8C6853B4B9D",
"c  c #B6B985D8512D",
"v  c #BB708B5053FB",
"b  c #BD3C981870FD",
"n  c #C0F18EAB57B7",
"m  c #C25592D15CFE",
"M  c #C69A9903663A",
"N  c #C9E19D0C6A69",
"B  c #EF2A80D377A0",
"V  c #EE2782F57A1B",
"C  c #F0CA852D7AAD",
"Z  c #F36488EE7DBF",
"A  c #CCADA1767127",
"S  c #C247A0B37BE6",
"D  c #D079A4B0751D",
"F  c #D0AAA67D789E",
"G  c #D4C5AA897D2E",
"H  c #EE007AB580CF",
"J  c #777C981BC306",
"K  c #75D09C89CED6",
"L  c #79CF9FC1D05F",
"P  c #7D0FA380D2AD",
"I  c #9DB593C98CB4",
"U  c #A2B499AA8F42",
"Y  c #AA0F835B91D5",
"T  c #B2FCA1C291C4",
"R  c #B7EBAB0D9E31",
"E  c #828F93B2AC68",
"W  c #9A459E1FA6A0",
"Q  c #AD028F5BAE69",
"!  c #AF399511AD62",
"~  c #9DAEA392AABE",
"^  c #8C69A0E3BC71",
"/  c #9C15A8A3BB2D",
"(  c #AF55AB73AB44",
")  c #B526A2FBBF2B",
"_  c #EC4285E08C1B",
"`  c #EC6A89648F2E",
"'  c #F1CF8371874E",
"]  c #F2C68D838138",
"[  c #F8A58F4482D3",
"{  c #F18387918B7B",
"}  c #F0B48C168FE8",
"|  c #F3E492CB8559",
" . c #F556999A8AB7",
".. c #EEC192279614",
"X. c #C9CBAD69900D",
"o. c #D5BDAD3480C6",
"O. c #DA5BB4428B19",
"+. c #CEC3B42A99A7",
"@. c #DD75B82F90BF",
"#. c #DFB2BD0F9740",
"$. c #DDEFBF419E7B",
"%. c #DD2F9E2DAAC9",
"&. c #E381A887B19E",
"*. c #8B6FA953CF52",
"=. c #9DA4AD9AC135",
"-. c #97BFAD87CA12",
";. c #98CEB225CDCB",
":. c #8163A6A6D4F5",
">. c #8593AA30D740",
",. c #8CB9AEACD908",
"<. c #8BC2B19EDCC7",
"1. c #9E51B83ED852",
"2. c #9550B5F2DCE9",
"3. c #BDA4A79AC134",
"4. c #8CEDB55BE0C9",
"5. c #9D51BDBEE40F",
"6. c #CF97B982CC21",
"7. c #D374B9ADCBFC",
"8. c #CDA7BF96D3D1",
"9. c #9C25C077E66C",
"0. c #A3AEC2C7E62D",
"q. c #AE31C79AE54D",
"w. c #AD48C8D2E847",
"e. c #A6AFC651EA87",
"r. c #AC75CA9EEC94",
"t. c #B2F6CEDFED86",
"y. c #B82DD0F2EC6F",
"u. c #BC72D3E3EE58",
"i. c #AE88CF18F1C4",
"p. c #B500D3B3F493",
"a. c #BBD3D6AEF2D2",
"s. c #BE84DABCF60A",
"d. c #B966D80CF88F",
"f. c #BA8ED920F9B0",
"g. c #C703C5C9DCC6",
"h. c #C975C727DD2D",
"j. c #CF49CCCDE008",
"k. c #D2F9C3F9D5C0",
"l. c #DAAAC43ED336",
"z. c #CA22D8CDEEE9",
"x. c #C457DD55F617",
"c. c #C9C1DF6BF5A1",
"v. c #C3F1DE62FA22",
"b. c #C857E054FA43",
"n. c #C75DE0CAF83F",
"m. c #CD4FE242F6E6",
"M. c #CD73E429F9DE",
"N. c #D421E5E4F7BC",
"B. c #D827E8A9F872",
"V. c #D556E716F95A",
"C. c #D777E950FABD",
"Z. c #DC89EB05F98E",
"A. c None",
/* pixels */
"A.A.A.A.A.A.A.A.A.A.A.A.A.A.A.A.A.A.A.A.A.A.A.A.A.A.A.A.A.A.A.A.",
"A.A.A.A.A.A.A.A.A.A.A.A.A.A.A.A.A.A.A.A.A.A.A.A.A.A.A.A.A.A.A.A.",
"A.A.A.A.A.A.A.A.f.d.d.p.p.p.i.i.A.A.A.A.A.A.A.A.A.A.A.A.A.A.A.A.",
"A.A.A.A.A.A.v.v.v.v.v.x.x.s.a.a.p.r.A.A.A.A.A.A.A.A.A.A.A.A.A.A.",
"A.A.A.A.A.v.b.M.V.C.B.B.B.V.N.c.a.t.e.A.A.A.A.A.A.A.A.A.A.A.A.A.",
"A.A.A.A.v.b.M.V.Z.Z.Z.Z.Z.Z.Z.N.c.a.r.0.A.A.A.A.A.A.A.A.A.A.A.A.",
"A.A.A.v.b.M.C.Z.Z.B.V.N.N.N.N.N.V.c.u.w.5.A.A.A.A.A.A.A.A.A.A.A.",
"A.A.A.v.M.V.Z.Z.B.N.m.m.m.m.m.N.C.N.x.t.9.4.A.A.A.A.A.A.A.A.A.A.",
"A.A.d.v.N.Z.Z.B.N.m.m.m.c.c.n.n.M.M.M.a.9.<.A.A.A.A.A.A.A.A.A.A.",
"A.A.d.x.V.Z.B.N.m.m.m.c.c.z.j.k.k.l.l.6.) Q A.A.A.A.A.A.A.A.A.A.",
"A.A.p.x.B.Z.N.m.m.c.c.c.x.j.&...} { ' H h i 0 2 $ O o X A.A.A.A.",
"A.A.p.s.V.Z.N.m.c.c.c.x.v.k...l l l g d s y r e q 7 o X A.A.A.A.",
"A.A.i.a.N.Z.m.c.c.x.x.x.v.k.` l [  .| | ] Z V V j t @ . A.A.A.A.",
"A.A.r.a.N.Z.m.c.x.x.x.x.s.8._ g Z | ] Z C B j j f w o   A.A.A.A.",
"A.A.r.p.m.B.m.c.x.x.x.s.s.8.` d a y r e 9 8 7 1 # o .   A.A.A.A.",
"A.A.e.t.x.N.N.m.c.x.x.s.s.g.%._ H k p u 6 5 + X .       A.A.A.A.",
"A.A.A.r.u.x.N.N.m.x.s.a.a.u.h.k.l.7.3.! Y 4 A.A.A.A.A.A.A.A.A.A.",
"A.A.A.e.r.y.c.m.m.c.x.x.x.x.x.v.x.a.0.;.~ U A.A.A.A.A.A.A.A.A.A.",
"A.A.A.A.5.0.t.u.c.m.m.M.M.m.m.x.t.0.2.=.R S v < A.A.A.A.A.A.A.A.",
"A.A.A.A.A.5.0.w.y.u.u.u.u.u.y.q.1.-./ ( +.G m x A.A.A.A.A.A.A.A.",
"A.A.A.A.A.A.2.2.2.2.2.2.2.<.,.*.^ W T X.$.#.F m < = A.A.A.A.A.A.",
"A.A.A.A.A.A.A.>.>.:.P P L K K J E I b D O.#.O.A x > A.A.A.A.A.A.",
"A.A.A.A.A.A.A.A.A.A.A.A.A.A.A.A.A.A.c n N o.@.O.N x - & A.A.A.A.",
"A.A.A.A.A.A.A.A.A.A.A.A.A.A.A.A.A.A.A.3 v M o.O.G m ; & A.A.A.A.",
"A.A.A.A.A.A.A.A.A.A.A.A.A.A.A.A.A.A.A.A., z m A o.N : % A.A.A.A.",
"A.A.A.A.A.A.A.A.A.A.A.A.A.A.A.A.A.A.A.A.A.: 3 v N m - % A.A.A.A.",
"A.A.A.A.A.A.A.A.A.A.A.A.A.A.A.A.A.A.A.A.A.A.= ; , : * A.A.A.A.A.",
"A.A.A.A.A.A.A.A.A.A.A.A.A.A.A.A.A.A.A.A.A.A.A.& & & A.A.A.A.A.A.",
"A.A.A.A.A.A.A.A.A.A.A.A.A.A.A.A.A.A.A.A.A.A.A.A.A.A.A.A.A.A.A.A.",
"A.A.A.A.A.A.A.A.A.A.A.A.A.A.A.A.A.A.A.A.A.A.A.A.A.A.A.A.A.A.A.A.",
"A.A.A.A.A.A.A.A.A.A.A.A.A.A.A.A.A.A.A.A.A.A.A.A.A.A.A.A.A.A.A.A.",
"A.A.A.A.A.A.A.A.A.A.A.A.A.A.A.A.A.A.A.A.A.A.A.A.A.A.A.A.A.A.A.A."
};
