/* XPM */
static char *page_delete[] = {
/* columns rows colors chars-per-pixel */
"32 32 238 2",
"   c #7CCA64E671D9",
".  c #B807419D00CE",
"X  c #B93142470285",
"o  c #BCA349C6037C",
"O  c #B4E443170A53",
"+  c #B2484B790E8C",
"@  c #BD194EDE0B95",
"#  c #BA1250BB0D3B",
"$  c #ACD8457811CE",
"%  c #A5FB48E21B98",
"&  c #B2CA4E841485",
"*  c #BC0A52AE1422",
"=  c #96AF4C572F90",
"-  c #9BF84D2A2AED",
";  c #A4634DDE2206",
":  c #AC92569B2A31",
">  c #B5A1635234D8",
",  c #BCFE63F53067",
"<  c #BC2F68103998",
"1  c #C4B44E340463",
"2  c #C28E50970417",
"3  c #CC6458260332",
"4  c #C3DB50510938",
"5  c #C85050B608A9",
"6  c #C9F158EB07F4",
"7  c #D1965AF602DD",
"8  c #C53254F5126E",
"9  c #D58760E804CC",
"0  c #DC20638B02BD",
"q  c #DC2268510478",
"w  c #DD8D6C160B13",
"e  c #D9946C101867",
"r  c #E6A16BF20055",
"t  c #E0A669F00A46",
"y  c #ED6F728F0000",
"u  c #EFBC789F065C",
"i  c #F5AD74D60214",
"p  c #FA3979480E76",
"a  c #E2A170E816EB",
"s  c #ECCE795314F1",
"d  c #CB1560042658",
"f  c #CE6568D52489",
"g  c #C54060A727E3",
"h  c #CBBF63C12B79",
"j  c #CE1169792BDF",
"k  c #DC9073C02CED",
"l  c #C30766263371",
"z  c #CD0D66F13043",
"x  c #CB7E6E2039B4",
"c  c #DB48762C30C6",
"v  c #DD137E353CA9",
"b  c #E8BF76D32145",
"n  c #E16077F92A3C",
"m  c #95D75C424B41",
"M  c #81A458AF59D9",
"N  c #9B7D65274DA2",
"B  c #8D6862395692",
"V  c #AB7563BB4114",
"C  c #A05566DF4AEF",
"Z  c #BE53699741AB",
"A  c #B2526EB94EE0",
"S  c #B19D78485E2F",
"D  c #81226E417593",
"F  c #ADE57F176735",
"G  c #A0D979A16A1B",
"H  c #C1A16AEE4025",
"J  c #C23E726142DA",
"K  c #C52E751549ED",
"L  c #CDB678E54BEF",
"P  c #D521798540AB",
"I  c #C09774AC50A9",
"U  c #F80680CC24A3",
"Y  c #EBA486DC3A6B",
"T  c #F0AB8FF03327",
"R  c #FD518C9F3333",
"E  c #F1E594623E19",
"W  c #FFFF90453ED6",
"Q  c #AF7289867FCE",
"!  c #D4FE84AB5518",
"~  c #DB90889653B4",
"^  c #D2F189645E44",
"/  c #E0C484B64A89",
"(  c #F0968B74446A",
")  c #F35A916340A9",
"_  c #F5819AB8422C",
"`  c #FADF9A994335",
"'  c #F4E29C654CE8",
"]  c #FF899CD34D69",
"[  c #E3298DD25854",
"{  c #F06294F75216",
"}  c #E88F929C5D20",
"|  c #FF8E968A50E6",
" . c #FE269E375383",
".. c #FFFFA24D556F",
"X. c #FF54A46A5D41",
"o. c #CD9489C0646F",
"O. c #C5FD88BE6C05",
"+. c #CBDA8ABE6AC9",
"@. c #E02894D76825",
"#. c #E3E0964E6901",
"$. c #EADE9CDF69E9",
"%. c #FBA09DC56303",
"&. c #FE11A8FB6C8B",
"*. c #EB4DA1CF765A",
"=. c #ED16A6717D1E",
"-. c #F382A3A071F4",
";. c #FC00AAA67114",
":. c #3A506276AA67",
">. c #270C62DCBC64",
",. c #2AC8622DB943",
"<. c #329F6D58BDDC",
"1. c #35E47301BF82",
"2. c #3F6C77E7BF0C",
"3. c #60B45FED848C",
"4. c #675C68B781BB",
"5. c #6322705E9C0F",
"6. c #49D4764EAFF8",
"7. c #584E7B2FB843",
"8. c #38F176CDC198",
"9. c #3D087C77C4AD",
"0. c #436C7514C13A",
"q. c #407E7E22C378",
"w. c #71D68D6FB58F",
"e. c #451584BAC4D6",
"r. c #497C87E8C5BB",
"t. c #4A098936C74F",
"y. c #5C6E8491C525",
"u. c #5BE686F4C94F",
"i. c #55468C18CC54",
"p. c #5D7D8ADCCAD2",
"a. c #5A249185CFA3",
"s. c #625B8CA0CC0F",
"d. c #661B94A0CE2F",
"f. c #6DF19C60CFED",
"g. c #726F9F34C1D5",
"h. c #620D8FD2DADE",
"j. c #6CD69D38D294",
"k. c #664195C6DB98",
"l. c #669A983DDBBA",
"z. c #68509897DC43",
"x. c #70539F1DD283",
"c. c #7C9DA503C43D",
"v. c #7EB6A84CCB18",
"b. c #6CB7A275DCC0",
"n. c #74AEA471D39D",
"m. c #7828A73ED508",
"M. c #79C6A866D5CE",
"N. c #7158A2E6DE44",
"B. c #587BB702FA08",
"V. c #5F05BDD1FF46",
"C. c #6365BC8EFB08",
"Z. c #6F66BF94FC52",
"A. c #711EBF4BF9AB",
"S. c #6E1AC38AFE65",
"D. c #71BAC320FC7F",
"F. c #7CC7C659FA4A",
"G. c #BD979FB89852",
"H. c #B33FA72DAEE4",
"J. c #BC69B877BFE9",
"K. c #CC54A5199680",
"L. c #C843A47F9993",
"P. c #D136A8F69338",
"I. c #EE02ACC08302",
"U. c #EE61AFA38926",
"Y. c #FE69B3EC8470",
"T. c #FF23BA7B859C",
"R. c #FF75BDEA8E38",
"E. c #FD22BCE494EE",
"W. c #C33BB8F6BEDA",
"Q. c #CC4EBE00BEED",
"!. c #F92DC9A29BCF",
"~. c #FCD3CEB3A5E8",
"^. c #FF9FCE49ACCF",
"/. c #FFFCD482B91E",
"(. c #9267AC45C14E",
"). c #91C5B379CD6B",
"_. c #8354B2E0E056",
"`. c #89FEB55BDF44",
"'. c #8280B30AE4B4",
"]. c #8916B791E5D6",
"[. c #A46BBD29E19A",
"{. c #C488BCCAC3E7",
"}. c #B578C67BDC57",
"|. c #BC8AC4F5D8B7",
" X c #99E7C592ECDD",
".X c #8486CBABFD3B",
"XX c #8ACCCEC2FE04",
"oX c #9218CDBAFA8E",
"OX c #854FD113FFFF",
"+X c #8C81D22BFF6F",
"@X c #91C1D243FF68",
"#X c #A7ADC84CE615",
"$X c #AFD7CA41E5FE",
"%X c #A466CB9EEDF3",
"&X c #ACDBCFDFED29",
"*X c #B545CB68E7AF",
"=X c #B80FCD60E974",
"-X c #BA37CF82E8E1",
";X c #BD48D1F7EA73",
":X c #B01BD53AF4E0",
">X c #A02ED67CFCBA",
",X c #B5D0D504F46B",
"<X c #BA0FD744F625",
"1X c #BD6CDA47F753",
"2X c #B3BAD98AFCC1",
"3X c #CD6DC0CFC50C",
"4X c #C726C46BCE0D",
"5X c #CEEBC640CC56",
"6X c #DC1CC978C326",
"7X c #CA6CCF30DCD9",
"8X c #CF61D57FDBC4",
"9X c #FFFFDDD2C350",
"0X c #FEF9E378CBD6",
"qX c #FFFFE57BD2F0",
"wX c #C1FBD5C6EBA8",
"eX c #C6F8DA47ED18",
"rX c #CAF0DBD4ED65",
"tX c #D258DB15ED06",
"yX c #C38BDC18F59A",
"uX c #C8ECDFABF7A2",
"iX c #C47CDE43F9F7",
"pX c #C85FE04DFAD3",
"aX c #CDFCE27DF61B",
"sX c #C5AFE2A5FB74",
"dX c #CCB2E339FBDC",
"fX c #CB73EA20FF6D",
"gX c #D1F3E492F715",
"hX c #D94EE6B0F54C",
"jX c #DC8FE99DF614",
"kX c #D516E719FDAE",
"lX c #D6A0E931FE1D",
"zX c #DDC0EC18FD9C",
"xX c #E4BEEEAAF7BE",
"cX c #E53BEF8AF9D2",
"vX c #E77FF210FB8F",
"bX c #EBB8F3B6FBAC",
"nX c #F28DF72DFADB",
"mX c None",
/* pixels */
"mXmXmXmXe.r.t.t.t.t.t.t.t.t.t.t.t.t.t.r.r.e.9.mXmXmXmXmXmXmXmXmX",
"mXmXmXi.n.M.m.m.m.m.n.n.n.n.m.m.n.n.n.n.n.j.a.i.mXmXmXmXmXmXmXmX",
"mXmXmXf.*XrXrXrXeXeXeXeXeXeXeXeXeXeXeXeX;X#X_.b.l.k.mXmXmXmXmXmX",
"mXmXe.n.rXnXbXvXvXvXvXvXvXvXvXvXcXcXxXxXxXaX%X'.N.z.mXmXmXmXmXmX",
"mXmXe.n.rXbXzXkXkXkXkXkXkXkXkXgXdXaXuXgXbXcX1X X'.N.z.h.mXmXmXmX",
"mXmXe.n.rXbXkXsXsXdXdXdXsXsXpXiXiX1X<XuXbXbXdX:X X'.N.l.mXmXmXmX",
"mXmXe.n.rXbXlXdXdXdXdXdXdXdXsXiXiX1X<XuXbXbXlXsX1X%X].N.i.mXmXmX",
"mXmXe.n.rXbXlXdXdXdXdXdXdXdXdXpXiXyX<XuXcXbXzXlXlXaX&X`.p.2.mXmX",
"mXmXe.n.rXbXlXdXdXdXdXdXdXdXdXsXiXiX1XuXjXxXvXvXbXvXjX$Xd.q.mXmX",
"mXmXe.n.rXbXzXdXkXkXkXkXdXdXdXdXpXiX1XyXaXhXjXxXxXvXbXwXf.q.mXmX",
"mXmXe.n.rXbXzXkXkXkXkXkXkXdXdXdXsXiXiXyXyXyXyXyXyXgXvXeXj.q.mXmX",
"mXmXe.n.eXbXzXkXkXkXkXkXkXkXdXdXdXpXiXiX1X<X,X,X,XyXcXeXx.q.mXmX",
"mXmXe.n.eXbXzXkXkXkXkXkXkXkXkXdXdXdXpXiXyX1X1X<X<XuXcXeXx.q.mXmX",
"mXmXe.n.eXbXzXlXlXlXlXlXkXkXkXkXdXdXdXpXiXiXyX1X1XdXvXeXj.q.mXmX",
"mXmXe.n.eXbXzXlXlXlXlXlXlXkXkXkXkXdXdXdXpXiXiXiXyXdXvXeXj.q.mXmX",
"mXmXe.n.eXbXzXlXlXlXlXlXlXkXkXkXkXkXdXdXdXsXsXiXiXkXvXyXj.9.mXmX",
"mXmXe.n.eXbXzXlXlXlXlXlXlXlXkXkXkXkXkXdXdXdXsXsXsXkXvXyXj.9.mXmX",
"mXmXe.j.eXbXzXlXlXlXlXlXlXlXkXkXkXkXkXaXrX7X4X{.W.Q.6XJ.w.6.mXmX",
"mXmXq.j.wXbXzXlXlXlXlXlXlXlXkXkXkXkXkXrX3XL.O.I Z H K S D 4.mXmX",
"mXmX9.j.wXbXzXlXlXlXlXlXlXlXlXkXkXgXtX5XK.+.L x z h j < N B mXmX",
"mXmX9.j.wXvXzXlXlXlXlXlXlXlXlXlXkXtX3XK.o.! #.=.U.I.$.~ J > mXmX",
"mXmX9.j.wXzXsX2X2X2X2X2X2X2X2X2X2X}.G.O.! [ -.Y.R.T.&.{ v j 8 . ",
"mXmX9.j.wXdXoXA.A.A.D.D.A.A.A.Z.S.v.G K @.-.%.| W R R R Y c 8 . ",
"mXmX8.j.wXsXF.B.C.C.C.C.C.C.C.C.V.g.N l *.E.Y.&. .] .. .) n 8 . ",
"mXmX8.d.;XdX.XS..X+XXXXXXXXXXXOXOX(.V h =./.qXqX0X0XqX~.' a 5 X ",
"mXmX1.d.;XdXXXD.XX@X@X@X+X+X+X+X+X(.V d *.^.9X0X0X0X0X!.E t 1 X ",
"mXmX<.d.-XsX.XC.S.D.D.D.D.S.S.S.S.c.C g } ;.X.] ` ` _ T s 0 1 X ",
"mXmX<.s.;XkX>X.X.X.X.X.X.X.X.X.X.X).F x / ( U p i i y r 0 7 1 X ",
"mXmX,.s.wXvXkXsXsXsXsXsXsXsXsXsXfX8XP.^ P k b s u y r 0 3 2 o X ",
"mXmX,.u.[.wX;X=X=X*X*X*X*X*X*X=X;X|.H.Q A , f e w q 9 6 # + mXmX",
"mXmXmX0.u.s.s.u.u.u.u.u.u.u.u.u.p.y.7.5.  m : * 4 1 @ & ; - mXmX",
"mXmXmXmX,.,.,.,.,.,.,.,.,.,.,.,.,.>.>.:.3.M - $ O O + % = mXmXmX"
};
