/* XPM */
static char *page_white_get[] = {
/* columns rows colors chars-per-pixel */
"32 32 214 2",
"   c #284A67282482",
".  c #292767DC24E0",
"X  c #2B2A698725F5",
"o  c #2AD56C31269F",
"O  c #2CA96DF627ED",
"+  c #2ECE70DC29D3",
"@  c #31E1707F2C35",
"#  c #316472F22CB7",
"$  c #314A74FC2C55",
"%  c #3532782C2FAC",
"&  c #3696777F3046",
"*  c #38E6724C33AF",
"=  c #34BB78EB2FCF",
"-  c #352A79B72FEE",
";  c #37377B653176",
":  c #38E279373231",
">  c #3A1C7EB13389",
",  c #3BC87B0C3550",
"<  c #3B567F6E3493",
"1  c #3D437CF737A0",
"2  c #3D7C7EBF386F",
"3  c #45EC7809406A",
"4  c #3E65805238CE",
"5  c #3F1383A43823",
"6  c #3FC284E2391B",
"7  c #44E385533E78",
"8  c #479784DB4151",
"9  c #456786E2402F",
"0  c #457E895B3FC8",
"q  c #47E08A4C42AE",
"w  c #4A328A554342",
"e  c #49B08CEA42B9",
"r  c #4A768C95443F",
"t  c #4B298EFD43F2",
"y  c #4C808CFD46BA",
"u  c #4A9490C543C0",
"i  c #549396994E21",
"p  c #528E99824B4D",
"a  c #56D89E064EF1",
"s  c #5CBC9DA656A6",
"d  c #5E0A9F2B585B",
"f  c #63609BB25DC3",
"g  c #6015A129586F",
"h  c #606CA28D58F7",
"j  c #61FCA31F5B8A",
"k  c #6219A72559CB",
"l  c #652DA2175E28",
"z  c #62C4A4435C1B",
"x  c #64D8A7235EB9",
"c  c #645BAE435A76",
"v  c #6E9D8D506B73",
"b  c #7150A8056BCA",
"n  c #7415AEFB6D2F",
"m  c #7490AC3D6EAA",
"M  c #6F61B3AF65CE",
"N  c #6F8AB09B66F5",
"B  c #6D6CB59B6429",
"V  c #6F36B4876634",
"C  c #70ECB1376B36",
"Z  c #72ADB24C6AA9",
"A  c #73E0B3246BC5",
"S  c #7426B4CE6BB5",
"D  c #7236B1BF6BF0",
"F  c #72ADB3066C3A",
"G  c #7364B3446DB1",
"H  c #7721B5B66F86",
"J  c #7480B88B6AC3",
"K  c #789CBB066EDF",
"L  c #7855B744711C",
"P  c #7960B80772B3",
"I  c #7827B8BF7154",
"U  c #7BF8BAFB72DA",
"Y  c #7A61BD5A70F0",
"T  c #7B7FBD71725D",
"R  c #7C9ABF57736D",
"E  c #7C37BB287479",
"W  c #7E41B9C5763F",
"Q  c #7EA5BC3A7744",
"!  c #7F79BD927698",
"~  c #8040BD08779C",
"^  c #8010BFCE7727",
"/  c #822EBF207A2C",
"(  c #8142C109779F",
")  c #81F5C080786B",
"_  c #818CC1F2787A",
"`  c #8335C0E879A2",
"'  c #832CC2657AAD",
"]  c #8438C2C17AFB",
"[  c #8681C2D87F8D",
"{  c #882DC3217FC1",
"}  c #8C74B765879A",
"|  c #A58AA58AA58A",
" . c #A95BA95BA95B",
".. c #AB33AB33AB33",
"X. c #ACE2ACE2ACE2",
"o. c #ADAFADAFADAF",
"O. c #8761C2828006",
"+. c #8B08C59D8364",
"@. c #8CCAC310859A",
"#. c #8BDEC6BC84D6",
"$. c #8E0EC76F8661",
"%. c #8EA8C7388798",
"&. c #8A69C8E383DD",
"*. c #8D62CA11864D",
"=. c #8EDFC1F4887D",
"-. c #8FF6CA91881C",
";. c #901AC9D286CE",
":. c #9026C65D8940",
">. c #90B1CB568916",
",. c #92DDC9D58BC5",
"<. c #91F9CA668A0A",
"1. c #931FCC168B4C",
"2. c #944FCC4B8B9C",
"3. c #92D7CC8A8B90",
"4. c #93A3CA7A8CB4",
"5. c #966BC9F68F74",
"6. c #96ABCBFA8F27",
"7. c #9619CCED8D36",
"8. c #95FFCE168EC1",
"9. c #9716CDFD8E22",
"0. c #9702CEFB8FBD",
"q. c #9AE2CBF694C6",
"w. c #9D40CDA196C3",
"e. c #9E0BCED49721",
"r. c #9A23D07C92BF",
"t. c #9B9AD14F93B2",
"y. c #9EABD2BD965B",
"u. c #B10FD7C2AC66",
"i. c #BAEECF12B8EA",
"p. c #B700D630B31E",
"a. c #B600DAC0B189",
"s. c #B7EEDB4FB2C2",
"d. c #B91EDB90B49A",
"f. c #B95FDB6BB51A",
"g. c #B9A8DBEEB58E",
"h. c #C03CDE18BC18",
"j. c #C8ACC8ACC8AC",
"k. c #C9DBC9DBC9DB",
"l. c #CD97CD97CD97",
"z. c #D0A1DCFECF43",
"x. c #D0AED0AED0AE",
"c. c #D700D700D700",
"v. c #D7E5D7E5D7E5",
"b. c #D8A9D8A9D8A9",
"n. c #DCFEDCFEDCFE",
"m. c #C3EDE0EEC056",
"M. c #C5D9E1DDC21D",
"N. c #C6C7E12DC36D",
"B. c #D21BE32FD058",
"V. c #D324E4BBD143",
"C. c #DA8CE9FDD86C",
"Z. c #DBC4EC00D996",
"A. c #DEE1EE17DCFB",
"S. c #E2BCE2BCE2BC",
"D. c #E487E487E487",
"F. c #E85BE85BE85B",
"G. c #E3BDEED9E21B",
"H. c #E404EFD0E220",
"J. c #E53EF00CE3D8",
"K. c #EA46EA46EA46",
"L. c #EB0DEB0DEB0D",
"P. c #EC24EC25EC24",
"I. c #ECCDECCDECCD",
"U. c #EE0BEE0BEE0B",
"Y. c #EF26EDD9EF4A",
"T. c #EEEDEEEDEEED",
"R. c #F019F019F019",
"E. c #E61FF0B4E44F",
"W. c #E5F5F10DE4A1",
"Q. c #E6E9F145E587",
"!. c #E724F208E5D4",
"~. c #E794F206E650",
"^. c #EA97F4A0E92B",
"/. c #F11DEF0AF152",
"(. c #F1B1EF2DF1DD",
"). c #F0E6F0E6F0E6",
"_. c #F1DBF1DBF1DB",
"`. c #F2EDF2EDF2ED",
"'. c #F3F8F3F8F3F8",
"]. c #F42FF70BF3BF",
"[. c #F51AF51AF51A",
"{. c #F5EAF4F7F60B",
"}. c #F611F611F611",
"|. c #F6BFF60DF6D9",
" X c #F70AF705F70B",
".X c #F7FAF7F2F7FB",
"XX c #F5D8F918F55E",
"oX c #F61BF8D9F5A1",
"OX c #F71CF966F6D9",
"+X c #F7DDFAA7F77E",
"@X c #F8C0F740F8F5",
"#X c #F902F7E6F92B",
"$X c #F8FDF8F9F8FD",
"%X c #FA04FA05FA04",
"&X c #FA96F982FABA",
"*X c #FAEAFAEAFAEA",
"=X c #FBD8FB60FBE8",
"-X c #FC0EFC0FFC0E",
";X c #FC6CFB51FC90",
":X c #FCD5FC56FCD4",
">X c #FD5DFC47FD83",
",X c #FDECFC41FD94",
"<X c #FEB8FC6BFF06",
"1X c #FCF0FCEFFCF0",
"2X c #FD7CFD23FD87",
"3X c #FE09FD29FE26",
"4X c #FDFFFDFEFDFF",
"5X c #FE7DFD6CFE9E",
"6X c #FEA0FE6BFEA7",
"7X c #FFFFFDA8FFFF",
"8X c #FF77FEBFFF77",
"9X c #FF7AFED4FF8E",
"0X c gray100",
"qX c None",
/* pixels */
"qXqXqXqXqXqXqXqXqXqXqXqXqXqXqXqXqXqXqXqXqXqXqXqXqXqXqXqXqXqXqXqX",
"qXqXqXqXqXqXqXqXqXqXqXqXqXqXqXqXqXqXqXqXqXqXqXqXqXqXqXqXqXqXqXqX",
"qXqXqXqXc.K.L.L.P.P.P.P.P.P.P.I.I.I.I.P.K.b. .qXqXqXqXqXqXqXqXqX",
"qXqXqXqXK.-X-X=X-X1X1X1X1X-X-X=X*X*X%X*X-XU.k.| qXqXqXqXqXqXqXqX",
"qXqXqXqXL.-X$X.X.X.X.X$X$X.X}.[.'.`.R.`.%X}.D.l.| qXqXqXqXqXqXqX",
"qXqXqXqXL.-X.X}.}. X}.}.}.[.`._.).U.L.U.$X%X_.S.j...qXqXqXqXqXqX",
"qXqXqXqXP.1X$X X.X$X.X X X}.'.`.).T.L.T.$X=X|.).K.b.X.qXqXqXqXqX",
"qXqXqXqXP.1X%X$X%X%X$X.X.X X[.'._.R.P.T.$X1X%X$X$XU.x.o.qXqXqXqX",
"qXqXqXqXP.2X*X%X%X%X%X$X.X.X X[.'.R.I.R.$X2X1X-X1X%X`.n.qXqXqXqX",
"qXqXqXqXP.2X-X*X*X*X*X%X$X$X.X|.[._.T.R.}.$X$X.X.X%X4XI.qXqXqXqX",
"qXqXqXqXP.4X1X=X-X-X-X-X=X%X$X.X}.'._.R.).R.R.U.I.).*XI.qXqXqXqX",
"qXqXqXqXP.4X2X-X1X1X1X1X1X=X%X$X X}.'._.T.I.P.K.F.U.$XI.qXqXqXqX",
"qXqXqXqXP.4X2X1X1X1X1X1X1X-X=X*X$X X}.'._.R.T.I.P.).%XI.qXqXqXqX",
"qXqXqXqXP.4X4X1X1X1X1X1X1X1X1X=X%X$X X}.[.`._.R.T.`.*XI.qXqXqXqX",
"qXqXqXqXP.4X4X1X1X1X1X1X1X1X1X-X=X*X$X.X|.[.'.`._.[.=XI.qXqXqXqX",
"qXqXqXqXP.4X4X1X1X1X1X1X1X1X1X1X1X=X%X$X.X X|.{.{..X:XP.qXqXqXqX",
"qXqXqXqXP.4X4X1X1X1X1X1X1X1X1X1X1X-X*X%X%X$X#X@X@X&X1XP.qXqXqXqX",
"qXqXqXqXP.4X4X1X1X1X1X1X1X1X1X1X1X1X=X=X;X].G.C.C.J.+XY.qXqXqXqX",
"qXqXqXqXP.4X4X1X1X1X1X1X1X1X1X1X1X1X-X>X<XQ.s.e.w.d.^.(.qXqXqXqX",
"qXqXqXqXP.4X4X1X1X1X1X1X1X1X1X1X1X2X3XOXQ.M.6.R T 5.N.z.qXqXqXqX",
"qXqXqXqXP.4X4X1X1X1X1X1X-X-X-X-X-X3X7X~.a.4.' Y K ~ =.} qXqXqXqX",
"qXqXqXqXP.4X4X1X1X1X1X1X-X-X-X:X>XoXW.m.,.R _ ] ) U Z l 3 qXqXqX",
"qXqXqXqXP.4X4X1X1X1X1X1X-X-X-X>X,XH.u.%.^ ( ;.9.2.{ A g w , qXqX",
"qXqXqXqXP.4X4X1X1X1X1X1X-X:X:XXXE.h.O.B J ` 7.y.t.$.H h t 5 qXqX",
"qXqXqXqXP.4X4X1X1X1X1X1X1X3X3X!.f.:.V c M ! <.r.0.#.P z e < ; = ",
"qXqXqXqXP.4X4X1X1X1X1X1X1X3X5X!.g.q.@.W N S +.8.3.[ D s 7 & % - ",
"qXqXqXqXP.4X4X1X1X1X1X1X1X2X2XXX!.A.Z.p.n k / 1.-.Q j y * qXqXqX",
"qXqXqXqXP.6X6X4X4X4X4X4X4X4X4X4X8X0X0XV.m a E >.*.L i 1 qXqXqXqX",
"qXqXqXqXL.4X6X4X4X4X4X4X4X4X4X6X9X0X0XB.b p I *.&.F r @ qXqXqXqX",
"qXqXqXqXv.L.P.P.P.P.P.P.P.P.P.P.P.Y./.i.f u x G C d 4 X qXqXqXqX",
"qXqXqXqXqXqXqXqXqXqXqXqXqXqXqXqXqXqXqXv 8 6 0 q 9 2 # . qXqXqXqX",
"qXqXqXqXqXqXqXqXqXqXqXqXqXqXqXqXqXqXqXqX: > - $ + O o   qXqXqXqX"
};
