/* XPM */
static char *shading[] = {
/* columns rows colors chars-per-pixel */
"32 32 2 1",
"  c #6C6C9A9AC7C7",
". c None",
/* pixels */
"....  ...   ...   ...   .... ...",
"...   ...   ...   ...   ... ....",
"..  ...   ...   ...   ....  ....",
"    ..    ..    ..    ..    ....",
"  ...   ...   ...   ...   ....  ",
"  ..    ..    ..    ..    ...   ",
"...   ...   ...   ...   ...   ..",
"..    ..    ..    ..    ..    ..",
"..  ...   ...   ...   ...   ....",
"    ..    ..    ..    ..    ..  ",
"  ...   ...   ...   ...   ....  ",
"  ..    ..    ..    ..    ..    ",
"...   ...   ...   ...   ...   ..",
"..    ..    ..    ..    ..    ..",
"..  ...   ...   ...   ...   ....",
"    ..    ..    ..    ..    ..  ",
"  ...   ...   ...   ...   ....  ",
"  ..    ..    ..    ..    ..    ",
"...   ...   ...   ...   ...   ..",
"..    ..    ..    ..    ..    ..",
"..  ...   ...   ...   ...   ....",
"    ..    ..    ..    ..    ..  ",
"  ...   ...   ...   ...   ....  ",
"  ..    ..    ..    ..    ..    ",
"...   ...   ...   ...   ...   ..",
"...   ..    ..    ..    ..    ..",
"..  ...   ...   ...   ...   ....",
".   ..    ..    ..    ..    ... ",
"......  ...   ...   ...   ......",
".....   ...   ...   ...   ......",
"....  ...   ...   ....  ........",
"....  ...   ...   ...   ...  ..."
};
