/* XPM */
static char *shape_flip_vertical[] = {
/* columns rows colors chars-per-pixel */
"32 32 174 2",
"   c #57028834CF2A",
".  c #57D48910CF85",
"X  c #588B899FD00F",
"o  c #59A58A64D0F8",
"O  c #5B728B87D136",
"+  c #5A978B35D196",
"@  c #5B068B99D1BD",
"#  c #5C778D15D233",
"$  c #5E258E8CD331",
"%  c #60A08ED8D333",
"&  c #600B8FF7D4BA",
"*  c #622B91B6D624",
"=  c #63829373D776",
"-  c #64779190D4A1",
";  c #66199315D516",
":  c #648793CDD749",
">  c #67C7946AD5E7",
",  c #65B994D5D7BB",
"<  c #688F950BD627",
"1  c #691395E8D6C1",
"2  c #6B849735D7B4",
"3  c #6DB49729D74B",
"4  c #67A89681D89E",
"5  c #680E9629D85B",
"6  c #69CF972CD8A0",
"7  c #6B42978BD872",
"8  c #69B59827D99C",
"9  c #6BAC999EDAA0",
"0  c #6D5B9B17DBA2",
"q  c #6F5C9B21DA75",
"w  c #6EC89C93DCA6",
"e  c #70549BD6DAC3",
"r  c #73EE9D83DAF0",
"t  c #73BF9E6FDC1B",
"y  c #75D69CCDDA08",
"u  c #75FB9C99D9DC",
"i  c #74929EC1DC19",
"p  c #77989EE5DB04",
"a  c #70769E08DDF4",
"s  c #72679F79DF81",
"d  c #78B39EB0DAA8",
"f  c #7557A0C1DE50",
"g  c #76FAA091DD16",
"h  c #7CB7A1A3DBDE",
"j  c #7911A247DE0A",
"k  c #7B10A407DF09",
"l  c #7CA4A2C7DCEB",
"z  c #7D83A5FEE058",
"x  c #7E0FA5BADF9B",
"c  c #743FA10BE088",
"v  c #75FCA2BBE109",
"b  c #77DDA440E1E6",
"n  c #7924A532E2A2",
"m  c #7A02A593E300",
"M  c #7AC9A668E398",
"N  c #7B5EA6AEE3C8",
"B  c #7D04A602E0C2",
"V  c #7C27A6EDE355",
"C  c #7C84A7C3E456",
"Z  c #7C83A7B8E46C",
"A  c #7EF9A871E32B",
"S  c #7F4EA889E2F7",
"D  c #7CE4A82FE48A",
"F  c #7D6DA898E4DD",
"G  c #8029A37DDD15",
"H  c #80C3A4C6DD9A",
"J  c #81AFA53ADD74",
"K  c #822EA7EBDFF4",
"L  c #8453A643DE1B",
"P  c #8392A869DFB1",
"I  c #8531A8E1DF77",
"U  c #8704A894DEE0",
"Y  c #8717A954DF44",
"T  c #89BEAA05DF77",
"R  c #881AAA44DFD5",
"E  c #804FA818E1E9",
"W  c #82B1A92EE149",
"Q  c #8163A964E2F4",
"!  c #8B61ACC1E0C7",
"~  c #8A51AD9DE248",
"^  c #8DA7ACF6E066",
"/  c #8FC2AE5DE110",
"(  c #8E3BAEEFE1AA",
")  c #8BA3AFB7E4EC",
"_  c #8CD6B00DE485",
"`  c #9053AF47E157",
"'  c #8F20B049E2CF",
"]  c #9398B145E1FE",
"[  c #918CB162E2CB",
"{  c #9239B13AE26D",
"}  c #9517B411E3FE",
"|  c #96B5B3B3E2E3",
" . c #94D4B50CE608",
".. c #968CB5AFE5AA",
"X. c #99CAB613E3EE",
"o. c #995EB788E5F1",
"O. c #9C93B85BE4F9",
"+. c #9CE3B985E631",
"@. c #9EC4BA57E5F1",
"#. c #84BBB1B4F3D6",
"$. c #8579B242F441",
"%. c #87C6B39EF443",
"&. c #850DB23CF484",
"*. c #8659B2CAF485",
"=. c #8799B390F4CC",
"-. c #88D0B44EF4CC",
";. c #8963B4D3F54B",
":. c #8A93B589F503",
">. c #8C67B6C3F50A",
",. c #8DFBB764F4FE",
"<. c #8C9EB707F578",
"1. c #8E99B88BF5F6",
"2. c #8F20B8B1F5A1",
"3. c #921CB9E2F596",
"4. c #919BBA86F63C",
"5. c #936ABAE8F60F",
"6. c #90BBBA21F67C",
"7. c #92F0BBB2F6D8",
"8. c #9372BBE7F6B2",
"9. c #94DBBB94F624",
"0. c #956FBBF3F639",
"q. c #967ABCD4F63D",
"w. c #9767BD33F65B",
"e. c #9418BC98F70C",
"r. c #9562BD86F792",
"t. c #9721BED8F7DB",
"y. c #97D6BF53F81F",
"u. c #9872BE28F661",
"i. c #9AC3BFE0F725",
"p. c #9A2BC09BF816",
"a. c #9B8DC123F7C7",
"s. c #9BBFC162F808",
"d. c #9C35C0D4F751",
"f. c #9C5DC1A5F804",
"g. c #9D8CC29AF841",
"h. c #9F7EC245F74E",
"j. c #9F3AC306F813",
"k. c #9FA3C3CDF83C",
"l. c #9E31C2F4F88E",
"z. c #9F92C3F6F8B1",
"x. c #A05AC416F841",
"c. c #A0A6C472F877",
"v. c #A1EAC522F86F",
"b. c #A08DC4B8F90C",
"n. c #A316C5B7F890",
"m. c #A519C715F8A8",
"M. c #A643C80EF8A2",
"N. c #A708C851F896",
"B. c #A7CFC898F8E7",
"V. c #A9C4C889F8AF",
"C. c #AAE3C8D0F8B6",
"Z. c #ABAEC977F8B2",
"A. c #AAF5CACAF905",
"S. c #ABB5CAF8F949",
"D. c #AD94CAD1F8D1",
"F. c #ADF6CC3BF945",
"G. c #AE12CC6AF904",
"H. c #AEC7CC9DF965",
"J. c #B000CCA8F8F8",
"K. c #B06ECC52F961",
"L. c #B261CE21F9DF",
"P. c #B2EDCEBEF99D",
"I. c #B363CF65F9F1",
"U. c #B5E7D0BAF9B5",
"Y. c #B7A2D101FA3D",
"T. c #B773D1C5F9D1",
"R. c #B92CD1B5FA31",
"E. c #B9B7D237FA23",
"W. c #B937D27DFA6A",
"Q. c #BA9ED302FA2F",
"!. c #BAADD370FA19",
"~. c #BBD7D3EBFA1C",
"^. c #BB8DD399FA8B",
"/. c None",
/* pixels */
"/./././././././././././././././././././././././././././././././.",
"/./././././././././././././././././././././././././././././././.",
"/./././././././././././././././././././././././././././././././.",
"/./././././././././././././././././././././././.8.8././././././.",
"/./././././././././././././././././././././.e.7.4.4././././././.",
"/./././././././././././././././././././.k.x.j.i.5.2././././././.",
"/./././././././././././././././././.t.g.N.F.L.V.q.>././././././.",
"/././././././././././././././././.v.c.m.G.U.^.K.w.:././././././.",
"/././././././././././././././.k.M.A.H.P.T.!.Q.D.0.-././././././.",
"/./././././././././././././.n.B.F.P.T.!.~.~.E.Z.5.=././././././.",
"/./././././././././././.f.v.S.I.W.^.!.Q.E.R.Y.V.3.$././././././.",
"/./././././././././.z.g.s.k.B.H.P.P.J.D.Z.C.V.h.,.#././././././.",
"/./././././././.b.z.g.f.p.p.a.d.d.i.u.q.9.5.3.,.%.#././././././.",
"/././././././././.b.l.f.p.y.r.7.6.1.<.:.;.=.*.$.$.&././././././.",
"/./././././././././././././././././././././././././././././././.",
"/./././././././././././././././././././././././././././././././.",
"/./././././././.D D D C N m b v c s a w 0 9 8 4 , : /./././././.",
"/./././././././.F F F Z N V S Q Q E z k j g i q 5 : /./././././.",
"/./././././././././.Z M n A )  .o.o.} [ ( ! R l 7 * /./././././.",
"/./././././././././././.b S _ ..+.@.O.X.| ] / J 2 & /./././././.",
"/./././././././././././././.B W ~ ' [ { ` ^ T h < $ /./././././.",
"/././././././././././././././.f x K P I Y U L d ; # /./././././.",
"/././././././././././././././././.t e r l H G u - @ /./././././.",
"/./././././././././././././././././.= 6 r p y 3 % o /./././././.",
"/./././././././././././././././././././.1 > - % O X /./././././.",
"/./././././././././././././././././././././.+ o X . /./././././.",
"/./././././././././././././././././././././././.    /./././././.",
"/./././././././././././././././././././././././././././././././.",
"/./././././././././././././././././././././././././././././././.",
"/./././././././././././././././././././././././././././././././.",
"/./././././././././././././././././././././././././././././././.",
"/./././././././././././././././././././././././././././././././."
};
