/* XPM */
static char *shape_square_delete[] = {
/* columns rows colors chars-per-pixel */
"32 32 150 2",
"   c #B80E419D00C8",
".  c #B94F42CE0305",
"X  c #BC2549CA0366",
"o  c #BFCD4F8912B0",
"O  c #AAA34E2F2204",
"+  c #B05057C72DFD",
"@  c #A9745771395B",
"#  c #AD175A263A98",
"$  c #C4204DFE035A",
"%  c #C53050580498",
"&  c #CE1F5864024E",
"*  c #C57552A70BE3",
"=  c #C84D50B608AB",
"-  c #D1A95B0402E3",
";  c #C51954FA1285",
":  c #C2FF58681A3C",
">  c #D81760C801F6",
",  c #DC19639102B2",
"<  c #DD046855038E",
"1  c #DEBF6C2C09FA",
"2  c #DD4A6C3A150B",
"3  c #D76C69741CD5",
"4  c #E6676BF30056",
"5  c #E09E69EE0A4C",
"6  c #ED4A728D0000",
"7  c #EF9E789F0680",
"8  c #F59A74D6021D",
"9  c #F9F979440EB0",
"0  c #E29A70E716F1",
"q  c #EC9979511523",
"w  c #C4715E392353",
"e  c #C35D5FA92886",
"r  c #C60160252154",
"t  c #CD2563F120BA",
"y  c #C514630F2D41",
"u  c #CB8462532A97",
"i  c #CF2C6B762C92",
"p  c #DA9C73BC2E6A",
"a  c #C70965C63279",
"s  c #CDB266E03074",
"d  c #CC0D6B04379B",
"f  c #D02470F43476",
"g  c #DABB7630313D",
"h  c #DD0E7E6C3CDF",
"j  c #E7BC772222AF",
"k  c #E15577F72A45",
"l  c #9EDB589540E7",
"z  c #A0965A224311",
"x  c #A956602A4568",
"c  c #AF2D655A4983",
"v  c #BF836CE44499",
"b  c #BBC77AB95D53",
"n  c #A56B6E14603D",
"m  c #AB257371645B",
"M  c #B5CE77DB6166",
"N  c #B76E79C2627C",
"B  c #C48C71364819",
"V  c #CE817ED6523D",
"C  c #F75F80E42555",
"Z  c #EB2F86EC3AE0",
"A  c #F0A88FF03329",
"S  c #FD638CBD3347",
"D  c #F1DD94603E1F",
"F  c #FFFF904D3ED9",
"G  c #DE62801F4571",
"H  c #DF1A87BB4F78",
"J  c #EF5A8B5D4538",
"K  c #F34F916140B2",
"L  c #F5829AB8422C",
"P  c #FADF9A994335",
"I  c #F4DB9C644CEF",
"U  c #FF899CD34D69",
"Y  c #E32E8DB35841",
"T  c #E890929F5D9B",
"R  c #F0A3953C5239",
"E  c #FFA1969D50EF",
"W  c #FE249E375384",
"Q  c #FFFFA24D556F",
"!  c #FF55A4765D45",
"~  c #DF1F92E96703",
"^  c #E14B941967E1",
"/  c #E8E79BAA69DF",
"(  c #FBBE9DF1631E",
")  c #FE38A9186C94",
"_  c #EBE9A21076A4",
"`  c #ED3FA6807D34",
"'  c #F3B3A3CF720F",
"]  c #FC02AABC711E",
"[  c #73B677A5A215",
"{  c #78E77C5BA5C9",
"}  c #7E3381CDAA3A",
"|  c #5D4089D7D9A4",
" . c #61668B5BD6BD",
".. c #642F8EAAD889",
"X. c #6648910CDB42",
"o. c #6BE994B1DAF3",
"O. c #6ED798BBDC7C",
"+. c #703097FDDBA3",
"@. c #73B99BE4DDA9",
"#. c #782E9EEADED5",
"$. c #76A6A0A7DE87",
"%. c #7C95A245DF9A",
"&. c #7D90A52AE1AB",
"*. c #7F5BA897E33A",
"=. c #A2D684788A4E",
"-. c #A90487C788C7",
";. c #8ADC87FBA893",
":. c #8E558B36AA76",
">. c #93EB8EB3AAF8",
",. c #954491B5ADEE",
"<. c #97BD95C6B1CB",
"1. c #9B25972FB1CB",
"2. c #929796A5B859",
"3. c #96D69AD1BAE6",
"4. c #9A1A9B26B887",
"5. c #EDD5ACAA834A",
"6. c #EF04AFFD8963",
"7. c #FE71B400847C",
"8. c #FF3BBA9185A1",
"9. c #FF81BDF98E3E",
"0. c #FD06BCF394FF",
"q. c #F92BC9A19BD1",
"w. c #FCD1CEB3A5EA",
"e. c #FFA0CE51ACCE",
"r. c #FFF4D48CB923",
"t. c #92ED9ECFC682",
"y. c #954DA163C7D9",
"u. c #80F2A3A3DFAE",
"i. c #8F9FACDDDFF9",
"p. c #9234A760D542",
"a. c #82D9A6A2E27F",
"s. c #8507ABFCE41F",
"d. c #8C8BAD97E41A",
"f. c #8C9FAFD3E897",
"g. c #90A5AF3DE3B8",
"h. c #87EDB177E5B7",
"j. c #8CE1B2A5E68F",
"k. c #8D3AB03AE881",
"l. c #9415B420E603",
"z. c #98A7B7A4E766",
"x. c #99EAB902E809",
"c. c #97F5B8E4E899",
"v. c #9D02BC61E979",
"b. c #A106BF69EAE4",
"n. c #9FDAC0BAEAE9",
"m. c #A3ADC22CEBBC",
"M. c #FFFFDDD6C34E",
"N. c #FEF9E378CBD6",
"B. c #FFFFE57CD2F0",
"V. c None",
/* pixels */
"V.V.V.V.V.V.V.V.V.V.V.V.V.V.V.V.V.V.V.V.V.V.V.V.V.V.V.V.V.V.V.V.",
"V.V.V.V.V.V.V.V.V.V.V.V.V.V.V.V.V.V.V.V.V.V.V.V.V.V.V.V.V.V.V.V.",
"V.V.V.V.V.V.V.V.V.V.V.V.V.V.V.V.V.V.V.V.V.V.V.V.V.V.V.V.V.V.V.V.",
"V.V.V.V.V.V.V.V.V.V.V.V.V.V.V.V.V.V.V.V.V.V.V.V.V.V.V.V.V.V.V.V.",
"V.V.V.V.j.j.j.j.j.j.h.h.h.h.s.s.s.s.s.s.s.s.a.*.*.&.&.&.V.V.V.V.",
"V.V.V.V.j.j.l.l.l.l.l.l.j.j.j.j.j.j.j.j.d.d.s.s.s.s.&.&.V.V.V.V.",
"V.V.V.V.j.l.v.m.n.v.v.v.v.v.v.v.v.x.x.c.c.c.c.z.l.j.*.$.V.V.V.V.",
"V.V.V.V.j.l.m.m.m.m.m.m.m.m.m.m.b.b.v.v.v.v.v.v.v.l.*.$.V.V.V.V.",
"V.V.V.V.h.l.v.m.m.m.m.m.m.m.b.b.v.v.v.v.v.v.x.x.x.j.&.@.V.V.V.V.",
"V.V.V.V.h.j.v.m.m.m.m.b.b.b.b.v.v.v.v.v.x.x.x.z.z.d.%.@.V.V.V.V.",
"V.V.V.V.s.j.v.m.m.m.b.b.v.v.v.v.v.v.x.x.x.z.z.z.l.d.%.+.V.V.V.V.",
"V.V.V.V.s.j.v.m.m.b.b.v.v.v.v.v.x.x.x.z.z.z.l.l.l.d.#.O.V.V.V.V.",
"V.V.V.V.s.j.v.m.b.v.v.v.v.v.v.x.x.z.z.z.l.l.l.l.l.s.#.o.V.V.V.V.",
"V.V.V.V.s.j.x.b.v.v.v.v.v.x.x.x.z.z.z.l.l.l.l.l.l.s.@.o.V.V.V.V.",
"V.V.V.V.s.d.c.v.v.v.v.x.x.x.z.z.z.l.l.l.l.l.l.l.l.a.@.o.V.V.V.V.",
"V.V.V.V.a.s.c.v.v.x.x.x.z.z.z.l.l.l.l.l.l.l.k.k.k.a.+.X.V.V.V.V.",
"V.V.V.V.*.s.l.v.x.x.z.z.z.z.l.l.l.l.l.l.l.k.k.k.f.a.O.X.V.V.V.V.",
"V.V.V.V.&.s.l.x.x.z.z.z.l.l.l.l.l.l.l.g.p.y.3.<.,.:.} { V.V.V.V.",
"V.V.V.V.&.a.l.x.z.z.l.l.l.l.l.l.l.j.f.p.1.=.m c # @ z l O V.V.V.",
"V.V.V.V.&.a.l.z.z.l.l.l.l.l.l.l.d.i.p.4.-.N B d s u y e : V.V.V.",
"V.V.V.V.#.&.d.l.l.l.l.l.l.g.d.d.d.p.1.-.b V ^ ` 6.5./ H f r V.V.",
"V.V.V.V.@.%.d.l.l.l.l.l.g.d.d.d.d.t.=.M V Y ' 7.9.8.) R h i ;   ",
"V.V.V.V.@.%.d.l.l.l.g.d.d.d.d.d.d.2.n v ~ ' ( E F S S S Z g ;   ",
"V.V.V.V.@.%.d.l.l.g.d.d.d.d.d.d.s.,.x a _ 0.7.) W U Q W K k ;   ",
"V.V.V.V.O.#.s.l.g.d.d.d.d.d.d.s.s.>.# u ` r.B.B.N.N.B.w.I 0 = . ",
"V.V.V.V.O.@.%.a.a.a.a.u.u.%.%.&.&.;.@ u _ e.M.N.N.N.N.q.D 5 $ . ",
"V.V.V.V.o.o.+.+.+.O.o.o.o.o.o.X.X.{ l e T ] ! U P P L A q , $ . ",
"V.V.V.V.o.o.X.X.X....... . . .| | [ l e G J C 9 8 8 6 4 , - $ . ",
"V.V.V.V.V.V.V.V.V.V.V.V.V.V.V.V.V.V.+ w i p j q 7 6 4 , & % X . ",
"V.V.V.V.V.V.V.V.V.V.V.V.V.V.V.V.V.V.V.V.w t 3 2 1 < > & $ X V.V.",
"V.V.V.V.V.V.V.V.V.V.V.V.V.V.V.V.V.V.V.V.V.: * = % $ $ $ X V.V.V.",
"V.V.V.V.V.V.V.V.V.V.V.V.V.V.V.V.V.V.V.V.V.o . . . . . . . V.V.V."
};
