/* XPM */
static char *add[] = {
/* columns rows colors chars-per-pixel */
"32 32 111 2",
"   c #31087F4829AA",
".  c #3520830F2CB0",
"X  c #393B86AE2ED6",
"o  c #3B198689319B",
"O  c #3D3188E43349",
"+  c #404989D73656",
"@  c #43E78C1D395F",
"#  c #49F592213E0B",
"$  c #4EC3951C4201",
"%  c #532B96FE4594",
"&  c #528398AB434C",
"*  c #56249A094A9B",
"=  c #5AA59C3E4D12",
"-  c #5BD59D5D50FC",
";  c #602F9FAB4F61",
":  c #5ECCA1864E6C",
">  c #64DFA3D55442",
",  c #6A26A7F9567F",
"<  c #641BB01F5275",
"1  c #6954A84E56EC",
"2  c #67CCA59757E2",
"3  c #6923A6A9585B",
"4  c #6CD0AA675CFE",
"5  c #71BCACAB5E71",
"6  c #6CFAB5BB5556",
"7  c #6D6CB60F58F0",
"8  c #6C7CBA145964",
"9  c #7307B5CC5CA5",
"0  c #730CBB415CE2",
"q  c #7488AD826179",
"w  c #7920AF0E63BB",
"e  c #7603B24564D2",
"r  c #7BB0B0B765C3",
"t  c #76DBBC31617B",
"y  c #7AC4BD726499",
"u  c #7BA7B41A697C",
"i  c #7D90BD866AD9",
"p  c #6FBBC11060B6",
"a  c #75FEC1B36430",
"s  c #7895C1D66640",
"d  c #7C5AC15A6959",
"f  c #8336B5EB6CD4",
"g  c #8249BF706B8D",
"h  c #8156B68671CE",
"j  c #84ADBBAD73EE",
"k  c #8B4DBBF57528",
"l  c #8C18BE717B38",
"z  c #90CEBF8B7C68",
"x  c #8233C34C6E12",
"c  c #819FC6E47708",
"v  c #89A9C43E759B",
"b  c #821BCA20739F",
"n  c #8330C653789A",
"m  c #8C6DC4A87A8F",
"M  c #865ACD68797C",
"N  c #8AF9CBE07CB6",
"B  c #91FAC1AA7DE9",
"V  c #90E3C9057ED8",
"C  c #8EF3BFC08092",
"Z  c #9290C03E814F",
"A  c #8EB2C27180E7",
"S  c #8D9ACD0082EB",
"D  c #9432C47E83FF",
"F  c #98A9C5B885BD",
"G  c #93B3CB0C83CA",
"H  c #9C1FC7128A19",
"J  c #957CCC428995",
"K  c #9C81CBF88C0D",
"L  c #8DD6D13A81B7",
"P  c #9184D1C0869C",
"I  c #9646D36B8A49",
"U  c #9A69D39E8E43",
"Y  c #9BDECDDE91E5",
"T  c #9CC0D4D79252",
"R  c #9E10D8B59399",
"E  c #A3F5CE259412",
"W  c #A67BCEC09D4F",
"Q  c #A273D28F941E",
"!  c #A0B1D8D49717",
"~  c #A282D541995E",
"^  c #AB56D4F49E8E",
"/  c #A4FADA3C9AB0",
"(  c #A8B6DC979F3D",
")  c #A92CCF26A098",
"_  c #AE7ED65FA30E",
"`  c #AD95DD27A47B",
"'  c #B3F9D7BDA663",
"]  c #B444DD95AAD7",
"[  c #B968DAF7AD36",
"{  c #BDE3DD3BB438",
"}  c #B6FEE198AE80",
"|  c #B74EE3C7B06B",
" . c #BB31E351B32F",
".. c #C08CDE4FB759",
"X. c #C3FFE40BBB56",
"o. c #C75AE80CC161",
"O. c #CBE8E6AEC398",
"+. c #CBD2E987C5AD",
"@. c #CF29EB0ECA06",
"#. c #D0BAEB1CCA47",
"$. c #DC84EDEDD766",
"%. c #DE6FEEFCDA56",
"&. c #E04AF1ACDD3D",
"*. c #E10EF031DC5F",
"=. c #E177F1DCDE55",
"-. c #E3DAF045E10B",
";. c #E636F393E360",
":. c #E961F67DE717",
">. c #F76EFB73F67C",
",. c gray100",
"<. c None",
/* pixels */
"<.<.<.<.<.<.<.<.<.<.<.<.<.<.<.<.<.<.<.<.<.<.<.<.<.<.<.<.<.<.<.<.",
"<.<.<.<.<.<.<.<.<.<.<.<.<.<.<.<.<.<.<.<.<.<.<.<.<.<.<.<.<.<.<.<.",
"<.<.<.<.<.<.<.<.<.<.<.<.f f u r r w q q <.<.<.<.<.<.<.<.<.<.<.<.",
"<.<.<.<.<.<.<.<.<.<.l B D F D D Z l l j u q <.<.<.<.<.<.<.<.<.<.",
"<.<.<.<.<.<.<.<.f k F E ' { ....{ [ _ Y k e 4 2 <.<.<.<.<.<.<.<.",
"<.<.<.<.<.<.<.k z H ^ [ X.+.+.+.o.X. ._ K l u 4 > <.<.<.<.<.<.<.",
"<.<.<.<.<.<.f z E [ O.#.o. .} ] ` ` ] ] ] ^ A u 2 = <.<.<.<.<.<.",
"<.<.<.<.<.k z K [ O.#.+. .` ! T T R / ` | ] Q m q > = <.<.<.<.<.",
"<.<.<.<.f z E [ +.@. .` ~ U J J I I U R R ! ` Q j 4 = % <.<.<.<.",
"<.<.<.<.k F ' X.@.X.( I G J ~ ` ` ( U L N P / ~ J i > % <.<.<.<.",
"<.<.<.k B E X.+. .( R P S ~ @.:.:.@.! M b b N I ~ J 4 & $ <.<.<.",
"<.<.<.l H ^ X.X.( I P N n ~ =.,.,.&.T s s s s M / T u : & <.<.<.",
"<.<.f z Q ] | ] T S N c i Y %.,.,.$.D 7 0 0 0 x I U m e = @ <.<.",
"<.<.f z _ ] ` ! G G T ~ Y ] ;.,.,.-.) A G m y y v J K j = @ <.<.",
"<.<.r l _ } / I N T +.;.=.;.>.,.,.>.-.$.%.X.m 0 d N Q A - + <.<.",
"<.<.r l _ ] R L M ~ =.,.,.,.,.,.,.,.,.,.,.$.G 7 t v Q D - O <.<.",
"<.<.w k ^ ` U M b ! =.,.,.,.,.,.,.,.,.,.,.$.G 7 0 v Q D = o <.<.",
"<.<.w j E / I M b I o.%.$.-.>.,.,.>.;.%.%.X.v 0 y m K l * o <.<.",
"<.<.q f J T I N b b S S m W -.,.,.;.^ V G v y t v G F h % . <.<.",
"<.<.5 u j G U I b a p 8 < m $.,.,.$.V 6 6 6 7 i G J j 4 # . <.<.",
"<.<.<.5 9 j Q ! b a 0 8 7 G $.,.,.$.V 6 6 6 7 x Q K 4 $ O <.<.<.",
"<.<.<., > e K Q G x t 0 0 m X.=.*.X.v 6 6 9 i m K l * o . <.<.<.",
"<.<.<.<.> 4 j G Q U x 0 0 y m G G v t 6 6 i K K l 4 # . <.<.<.<.",
"<.<.<.<.> 3 5 h K Q V x d y 0 7 6 9 t y g m K D 4 & O . <.<.<.<.",
"<.<.<.<.<.> > 4 u D Q Q G v y 0 9 y v G Q K l 4 $ O . <.<.<.<.<.",
"<.<.<.<.<.<.= ; 1 u D K K G m v v v G J K l 4 & O   <.<.<.<.<.<.",
"<.<.<.<.<.<.<.= = : 2 e l F K K K K D j 4 * # O . <.<.<.<.<.<.<.",
"<.<.<.<.<.<.<.<.% $ # = q j l C C l u 3 # X .   <.<.<.<.<.<.<.<.",
"<.<.<.<.<.<.<.<.<.<.# $ * = = = * * $ # O . <.<.<.<.<.<.<.<.<.<.",
"<.<.<.<.<.<.<.<.<.<.<.<.@ + O o o X . . <.<.<.<.<.<.<.<.<.<.<.<.",
"<.<.<.<.<.<.<.<.<.<.<.<.<.<.<.<.<.<.<.<.<.<.<.<.<.<.<.<.<.<.<.<.",
"<.<.<.<.<.<.<.<.<.<.<.<.<.<.<.<.<.<.<.<.<.<.<.<.<.<.<.<.<.<.<.<."
};
