/* XPM */
static char *arrow_redo[] = {
/* columns rows colors chars-per-pixel */
"32 32 64 1",
"  c #210E5F621DE5",
". c #223560F21E91",
"X c #25C2652821D6",
"o c #2A3F6B1525D9",
"O c #2D6F6EF728EE",
"+ c #2F1271E02A14",
"@ c #316C739C2C92",
"# c #34C978512EE6",
"$ c #35E976EE31BD",
"% c #36A179DB315A",
"& c #39787B9234C6",
"* c #3DA47EEE38C4",
"= c #3C6F829735B2",
"- c #3F4D83C139E0",
"; c #42B9854B3D8A",
": c #45638CF13E1A",
"> c #47B291A73F9D",
", c #465089314094",
"< c #49398D8042DD",
"1 c #4BBD92E24467",
"2 c #4ED09AB346AC",
"3 c #4F6894E947F0",
"4 c #521E956A4D61",
"5 c #54629B6C4C98",
"6 c #57199B205068",
"7 c #5BB49EF754B3",
"8 c #55C0A27C4C71",
"9 c #584DA4354F11",
"0 c #5CD2A48F543C",
"q c #5D67AC98532D",
"w c #6221A6025BB7",
"e c #6511AAD45C98",
"r c #6852AED25F23",
"t c #61A7B18D56CB",
"y c #644BB4EA5944",
"u c #670CA7AD6029",
"i c #6693AA2060CB",
"p c #6AE9AD33642C",
"a c #6F0CAEDA67F7",
"s c #7018AF2968E4",
"d c #6CC1B2FE63A5",
"f c #6F9AB1C568F0",
"g c #70ECBBAD6678",
"h c #731AB3A06B80",
"j c #748ABCE36A43",
"k c #7BAABC8B74B2",
"l c #7F00BD5977F8",
"z c #7C16C17B747A",
"x c #7F06C1AE78EE",
"c c #82ADBF5B7B01",
"v c #83DDC2ED7C52",
"b c #887EC6F07EFC",
"n c #87E4C2CE80B0",
"m c #8B4AC59E8365",
"M c #8E37C94C85A1",
"N c #90C3CB708713",
"B c #93B2CBDD8B29",
"V c #98F5CED38FD2",
"C c #97BBCEF4903D",
"Z c #9A04CFBA91CA",
"A c #9DA6D1C694B7",
"S c #A0A4D370975D",
"D c #A4A2D5859BEC",
"F c None",
/* pixels */
"FFFFFFFFFFFFFFFFFFFFFFFFFFFFFFFF",
"FFFFFFFFFFFFFFFFFFFFFFFFFFFFFFFF",
"FFFFFFFFFFFFFFFFFFFFFFFFFFFFFFFF",
"FFFFFFFFFFFFFFFFFFFFFFFFFFFFFFFF",
"FFFFFFFFFFFFFFFFFFFFFF998FFFFFFF",
"FFFFFFFFFFFFFFFFFFFFFF0000FFFFFF",
"FFFFFFFFFFFyyttqqq0980rppe5FFFFF",
"FFFFFFFFjjjjjjggddddrdhkkhw5FFFF",
"FFFFFFFgzvmMNBBBNNMMmmMMMca03FFF",
"FFFFFFjzbNVASDDDDDSSAAAZCmhw3FFF",
"FFFFFjvNASASDDDDDSAAAAZCVns71FFF",
"FFFFgzNADDDAZBNmmmnvcvnnnku6<FFF",
"FFFgzbADDDSVnkdeeww00wphau5<FFFF",
"FFFjvMADDABvjp052211136775<FFFFF",
"FFFjbBASANjre0FFFFFFFF1<<<FFFFFF",
"FFyjmVAAVvr85FFFFFFFFF--=FFFFFFF",
"FFtgMAAVmke5FFFFFFFFFFFFFFFFFFFF",
"FFqgMAABvhwFFFFFFFFFFFFFFFFFFFFF",
"FFqdmAABch0FFFFFFFFFFFFFFFFFFFFF",
"FFqdbVVBvh01FFFFFFFFFFFFFFFFFFFF",
"FF0dcMNNmk0>:FFFFFFFFFFFFFFFFFFF",
"FFFrkvMNNci541FFFFFFFFFFFFFFFFFF",
"FFFehkmBBmlhw5:=&&%##@@OOoooFFFF",
"FFF0ehvMNMnlhw531<<,,;;;-&OoFFFF",
"FFFF5whcmmvvlkhhffappiiii4$XFFFF",
"FFFFF5ehkcllvbvvvvvxxzzzzw&XFFFF",
"FFFFFF47eahklvvvvxxxkkkkkw%.FFFF",
"FFFFFFF160wupppppiiiewwww4@ FFFF",
"FFFFFFFF<<<<<,;;;;-**&&&$@X FFFF",
"FFFFFFFFFFF%#@@+OoooXXX..   FFFF",
"FFFFFFFFFFFFFFFFFFFFFFFFFFFFFFFF",
"FFFFFFFFFFFFFFFFFFFFFFFFFFFFFFFF"
};
