/* XPM */
static char *bullet_add[] = {
/* columns rows colors chars-per-pixel */
"32 32 125 2",
"   c #339B68591589",
".  c #341F68A9163E",
"X  c #349C68F316E8",
"o  c #35F26974182C",
"O  c #3ADD6D601DB4",
"+  c #3F1E75781C5C",
"@  c #415B77171F17",
"#  c #43FA791C2196",
"$  c #43D578F121AB",
"%  c #4408792021AD",
"&  c #44C079A522C9",
"*  c #443174E3285E",
"=  c #4A287D5228F5",
"-  c #4D977BF8330D",
";  c #494E81C4216D",
":  c #4E9585C227A8",
">  c #4E7880302E6A",
",  c #58178EDC2F43",
"<  c #51E282523313",
"1  c #52D2835F3365",
"2  c #555485EB35DB",
"3  c #58878EDF2FBF",
"4  c #58B98F14303B",
"5  c #551280C53C1E",
"6  c #5678822D3D15",
"7  c #5B1390D93325",
"8  c #5F8D941A38B8",
"9  c #6AABA04D3F7F",
"0  c #5A7E8505422E",
"q  c #5CF186B6447F",
"w  c #5E928BC94201",
"e  c #61B68E9244B0",
"r  c #6049899A48C5",
"t  c #657D8D9A4EB7",
"y  c #6D259F8845B3",
"u  c #6E739FB54708",
"i  c #681992B74D05",
"p  c #6CE696675224",
"a  c #6ED197BA53C8",
"s  c #6A0890F353EE",
"d  c #6CB192C156FE",
"f  c #70A899025662",
"g  c #7140999C568B",
"h  c #71CF99FA56D7",
"j  c #78CB9F345F58",
"k  c #6B89A0AF4097",
"l  c #6DF4A25F4449",
"z  c #6F53A09F4897",
"x  c #6FE6A1104956",
"c  c #76F6A5C8531F",
"v  c #79F2A3895C2C",
"b  c #7F47B22A54C5",
"n  c #792D9F0B60E7",
"m  c #7DF2A3066552",
"M  c #7FAEA3CC685C",
"N  c #800AAC545BBD",
"B  c #80BBAD495D1B",
"V  c #8105AD535D5B",
"C  c #80CAB2305667",
"Z  c #807CB23A5607",
"A  c #81D3B33D57F9",
"S  c #829FB3295AA8",
"D  c #8346B6EF5949",
"F  c #8363B43C59F2",
"G  c #841FB6BF5A58",
"H  c #8743B8905E42",
"J  c #8512AD916601",
"K  c #8000A45C6811",
"L  c #878AAF326926",
"P  c #8CD8B4936CFA",
"I  c #8D1FB4DD6D73",
"U  c #8FD1B7507095",
"Y  c #9240B85C74A5",
"T  c #95A9BB197667",
"R  c #967CBD8675BF",
"E  c #9ADBBE577D58",
"W  c #9B88C5A77784",
"Q  c #9C9FC5997821",
"!  c #9DDEC6BF79FD",
"~  c #9ECEC74C7AE3",
"^  c #9D6DC0EF7F6B",
"/  c #9C0EBF058057",
"(  c #A15CC9A28162",
")  c #A21FC94B820D",
"_  c #A25FC9D9826E",
"`  c #A356C9A2826A",
"'  c #A59ECB9585B3",
"]  c #A65FCBD1875A",
"[  c #A90ACDC287A3",
"{  c #AA21CDE989B9",
"}  c #A961C8EA8E1E",
"|  c #AE00D3468D04",
" . c #A9A6C88E9046",
".. c #B262CE939A59",
"X. c #BA2FD9D29C75",
"o. c #BBEED8C3A1B7",
"O. c #BC7BD92CA25D",
"+. c #BC9AD906A3ED",
"@. c #BD75D93DA805",
"#. c #BD16D997A78D",
"$. c #C012DAC7AA78",
"%. c #C0B3DDA8A4E4",
"&. c #C205DF4EA862",
"*. c #C70FDFE5B084",
"=. c #C3FBE06EAAF9",
"-. c #CCE9E3D9B757",
";. c #D6F2EAB1C31B",
":. c #D5E7EA25C50C",
">. c #D829E934CA35",
",. c #D8A8E967CA4F",
"<. c #D8B9E995CA6C",
"1. c #D9CCEA29CB7C",
"2. c #DE28ECEDD12C",
"3. c #E357F09FD78B",
"4. c #E84DF3FEDD60",
"5. c #EC80F4D6E642",
"6. c #ECD0F4D9E69F",
"7. c #EDAEF557E7E5",
"8. c #EE97F5E1E8BB",
"9. c #F458FA13EF97",
"0. c #F577FAB9F114",
"q. c #FAD7FD0BF940",
"w. c #FB25FD2BF99B",
"e. c #FD88FED7FC73",
"r. c None",
/* pixels */
"r.r.r.r.r.r.r.r.r.r.r.r.r.r.r.r.r.r.r.r.r.r.r.r.r.r.r.r.r.r.r.r.",
"r.r.r.r.r.r.r.r.r.r.r.r.r.r.r.r.r.r.r.r.r.r.r.r.r.r.r.r.r.r.r.r.",
"r.r.r.r.r.r.r.r.r.r.r.r.r.r.r.r.r.r.r.r.r.r.r.r.r.r.r.r.r.r.r.r.",
"r.r.r.r.r.r.r.r.r.r.r.r.r.r.r.r.r.r.r.r.r.r.r.r.r.r.r.r.r.r.r.r.",
"r.r.r.r.r.r.r.r.r.r.r.r.r.r.r.r.r.r.r.r.r.r.r.r.r.r.r.r.r.r.r.r.",
"r.r.r.r.r.r.r.r.r.r.r.r.r.r.r.r.r.r.r.r.r.r.r.r.r.r.r.r.r.r.r.r.",
"r.r.r.r.r.r.r.r.r.r.r.r.r.r.r.r.r.r.r.r.r.r.r.r.r.r.r.r.r.r.r.r.",
"r.r.r.r.r.r.r.r.r.r.r.r.r.r.r.r.r.r.r.r.r.r.r.r.r.r.r.r.r.r.r.r.",
"r.r.r.r.r.r.r.r.r.r.r.r.r.r.r.r.r.r.r.r.r.r.r.r.r.r.r.r.r.r.r.r.",
"r.r.r.r.r.r.r.r.r.r.r.r.r.r.r.r.r.r.r.r.r.r.r.r.r.r.r.r.r.r.r.r.",
"r.r.r.r.r.r.r.r.r.r.r.r.d s t r 0 5 r.r.r.r.r.r.r.r.r.r.r.r.r.r.",
"r.r.r.r.r.r.r.r.r.r.r.j m K M n p e 2 r.r.r.r.r.r.r.r.r.r.r.r.r.",
"r.r.r.r.r.r.r.r.r.f v L E } .. .U c 8 : @ r.r.r.r.r.r.r.r.r.r.r.",
"r.r.r.r.r.r.r.r.r.g J R { %.;.-.` S l 7 & r.r.r.r.r.r.r.r.r.r.r.",
"r.r.r.r.r.r.r.r.q h T [ | =.4.2.] H F x = X r.r.r.r.r.r.r.r.r.r.",
"r.r.r.r.r.r.r.r.6 a ^ X.&.:.9.6.$.' ~ B > . r.r.r.r.r.r.r.r.r.r.",
"r.r.r.r.r.r.r.r.- i / *.3.0.e.w.8.1.O.I <   r.r.r.r.r.r.r.r.r.r.",
"r.r.r.r.r.r.r.r.* w Y +.>.6.q.w.7.<.o.I <   r.r.r.r.r.r.r.r.r.r.",
"r.r.r.r.r.r.r.r.O 1 B W ( #.5.5.@._ ! V > . r.r.r.r.r.r.r.r.r.r.",
"r.r.r.r.r.r.r.r.o = y b D _ <.,.) G A z = X r.r.r.r.r.r.r.r.r.r.",
"r.r.r.r.r.r.r.r.r.# , 9 Z Q o.o.Q C k 4 $ r.r.r.r.r.r.r.r.r.r.r.",
"r.r.r.r.r.r.r.r.r.+ ; 3 u N P P N u 3 ; + r.r.r.r.r.r.r.r.r.r.r.",
"r.r.r.r.r.r.r.r.r.r.+ % = > < < > = # + r.r.r.r.r.r.r.r.r.r.r.r.",
"r.r.r.r.r.r.r.r.r.r.r.r.X .     . X r.r.r.r.r.r.r.r.r.r.r.r.r.r.",
"r.r.r.r.r.r.r.r.r.r.r.r.r.r.r.r.r.r.r.r.r.r.r.r.r.r.r.r.r.r.r.r.",
"r.r.r.r.r.r.r.r.r.r.r.r.r.r.r.r.r.r.r.r.r.r.r.r.r.r.r.r.r.r.r.r.",
"r.r.r.r.r.r.r.r.r.r.r.r.r.r.r.r.r.r.r.r.r.r.r.r.r.r.r.r.r.r.r.r.",
"r.r.r.r.r.r.r.r.r.r.r.r.r.r.r.r.r.r.r.r.r.r.r.r.r.r.r.r.r.r.r.r.",
"r.r.r.r.r.r.r.r.r.r.r.r.r.r.r.r.r.r.r.r.r.r.r.r.r.r.r.r.r.r.r.r.",
"r.r.r.r.r.r.r.r.r.r.r.r.r.r.r.r.r.r.r.r.r.r.r.r.r.r.r.r.r.r.r.r.",
"r.r.r.r.r.r.r.r.r.r.r.r.r.r.r.r.r.r.r.r.r.r.r.r.r.r.r.r.r.r.r.r.",
"r.r.r.r.r.r.r.r.r.r.r.r.r.r.r.r.r.r.r.r.r.r.r.r.r.r.r.r.r.r.r.r."
};
