/* XPM */
static char *bullet_arrow_left[] = {
/* columns rows colors chars-per-pixel */
"32 32 58 1",
"  c #6FE76FE76FE7",
". c #706070607060",
"X c #739D739D739D",
"o c #779A779A779A",
"O c #78DB78DB78DB",
"+ c #7AE77AE77AE7",
"@ c #7B887B887B88",
"# c #7CE47CE47CE4",
"$ c #7F447F447F44",
"% c #813481348134",
"& c #82E982E982E9",
"* c #84E584E584E5",
"= c #85F485F485F4",
"- c #870587058705",
"; c #881188118811",
": c #89B189B189B1",
"> c #8AF18AF18AF1",
", c #8B468B468B46",
"< c #8EAF8EAF8EAF",
"1 c #8FC58FC58FC5",
"2 c #916191619161",
"3 c #93D493D493D4",
"4 c #958F958F958F",
"5 c #963296329632",
"6 c #975B975B975B",
"7 c #991299129912",
"8 c #9A029A029A02",
"9 c #9AD29AD29AD2",
"0 c #9D5E9D5E9D5E",
"q c #9FB39FB39FB3",
"w c #A0AEA0AEA0AE",
"e c #A184A184A184",
"r c #A3A4A3A4A3A4",
"t c #A4B1A4B1A4B1",
"y c #A671A671A671",
"u c #A7E8A7E8A7E8",
"i c #A8FDA8FDA8FD",
"p c #A98AA98AA98A",
"a c #AB66AB66AB66",
"s c #AD29AD29AD29",
"d c #AD4EAD4EAD4E",
"f c #B0C6B0C6B0C6",
"g c #B185B185B185",
"h c #B3C4B3C4B3C4",
"j c #B50DB50DB50D",
"k c #B536B536B536",
"l c #B68BB68BB68B",
"z c #B81BB81BB81B",
"x c #B8EAB8EAB8EA",
"c c #B9BFB9BFB9BF",
"v c #BA9CBA9CBA9C",
"b c #BBE1BBE1BBE1",
"n c #BCB7BCB7BCB7",
"m c #BDD6BDD6BDD6",
"M c #BEB9BEB9BEB9",
"N c #BFA5BFA5BFA5",
"B c #C137C137C137",
"V c None",
/* pixels */
"VVVVVVVVVVVVVVVVVVVVVVVVVVVVVVVV",
"VVVVVVVVVVVVVVVVVVVVVVVVVVVVVVVV",
"VVVVVVVVVVVVVVVVVVVVVVVVVVVVVVVV",
"VVVVVVVVVVVVVVVVVVVVVVVVVVVVVVVV",
"VVVVVVVVVVVVVVVVVVVVVVVVVVVVVVVV",
"VVVVVVVVVVVVVVVVVVVVVVVVVVVVVVVV",
"VVVVVVVVVVVVVVVVVVVVVVVVVVVVVVVV",
"VVVVVVVVVVVVVVVVVVVVVVVVVVVVVVVV",
"VVVVVVVVVVVVVVVVVVVVVVVVVVVVVVVV",
"VVVVVVVVVVVVVVVVVVVVVVVVVVVVVVVV",
"VVVVVVVVVVVV<>&VVVVVVVVVVVVVVVVV",
"VVVVVVVVVVVV2<:*VVVVVVVVVVVVVVVV",
"VVVVVVVVVVVV5551%oVVVVVVVVVVVVVV",
"VVVVVVVVVVVV90e9:$VVVVVVVVVVVVVV",
"VVVVVVVVVVVVqrau7>#XVVVVVVVVVVVV",
"VVVVVVVVVVVVtiggy6=@VVVVVVVVVVVV",
"VVVVVVVVVVVVisjlft4-O VVVVVVVVVV",
"VVVVVVVVVVVVdfzchi8,+.VVVVVVVVVV",
"VVVVVVVVVVVVgjbvfr3:VVVVVVVVVVVV",
"VVVVVVVVVVVVkzncdw2;VVVVVVVVVVVV",
"VVVVVVVVVVVVxcblpwVVVVVVVVVVVVVV",
"VVVVVVVVVVVVnbvkpeVVVVVVVVVVVVVV",
"VVVVVVVVVVVVNmvlVVVVVVVVVVVVVVVV",
"VVVVVVVVVVVVBMclVVVVVVVVVVVVVVVV",
"VVVVVVVVVVVVVVVVVVVVVVVVVVVVVVVV",
"VVVVVVVVVVVVVVVVVVVVVVVVVVVVVVVV",
"VVVVVVVVVVVVVVVVVVVVVVVVVVVVVVVV",
"VVVVVVVVVVVVVVVVVVVVVVVVVVVVVVVV",
"VVVVVVVVVVVVVVVVVVVVVVVVVVVVVVVV",
"VVVVVVVVVVVVVVVVVVVVVVVVVVVVVVVV",
"VVVVVVVVVVVVVVVVVVVVVVVVVVVVVVVV",
"VVVVVVVVVVVVVVVVVVVVVVVVVVVVVVVV"
};
