/* XPM */
static char *bullet_wrench[] = {
/* columns rows colors chars-per-pixel */
"32 32 176 2",
"   c #45247A91D0F2",
".  c #48657CEDD210",
"X  c #4CB6802ED43B",
"o  c #50178275D565",
"O  c #52EC843BD54B",
"+  c #574486B2D616",
"@  c #57CF87D5D634",
"#  c #5BA089D7D730",
"$  c #5C8C89C2D5E6",
"%  c #5D848BFCD73B",
"&  c #5F008C21D865",
"*  c #6DC490F0CAEC",
"=  c #60DB8E6CD845",
"-  c #60FA8E21D915",
";  c #62D88FE2D972",
":  c #63198FF9D9CF",
">  c #65CB910CD9CD",
",  c #6658919CD992",
"<  c #63FB90ECDAD2",
"1  c #68CB9342DA48",
"2  c #692494E0DC00",
"3  c #6DDE96B2DACA",
"4  c #6EAE9799DBAB",
"5  c #6F8198FEDD31",
"6  c #780C9B6BD556",
"7  c #703399ECDCF6",
"8  c #75219C73DD48",
"9  c #76399DE8DDCC",
"0  c #786C9F86DF54",
"q  c #7A409FBCDE81",
"w  c #7C2CA211DFC5",
"e  c #7D44A24FDF74",
"r  c #7EE9A33CDFA9",
"t  c #7FBFA4BEE0AE",
"y  c #815881588158",
"u  c #830C830C830C",
"i  c #847284728472",
"p  c #86BB86BB86BB",
"a  c #88D588D588D5",
"s  c #896189618961",
"d  c #8BA58BA58BA5",
"f  c #8C878C878C87",
"g  c #8E9A8E9A8E9A",
"h  c #86DA8F4C9C49",
"j  c #910091009100",
"k  c #918791879187",
"l  c #92A192A192A1",
"z  c #93DC93DC93DC",
"x  c #94A5945B93F2",
"c  c #95DA95DA95DA",
"v  c #96BD965C95D2",
"b  c #968296829682",
"n  c #978197819781",
"m  c #988F988F988F",
"M  c #99C399C399C3",
"N  c #9A659A659A65",
"B  c #9BB09BB09BB0",
"V  c #9DEA9DEA9DEA",
"C  c #9EC09EC09EC0",
"Z  c #96819BF7A566",
"A  c #9CC99FC4A3DF",
"S  c #87909AF1B8D2",
"D  c #A083A083A083",
"F  c #A3C8A385A30D",
"G  c #A3A1A3A1A3A1",
"H  c #A460A460A460",
"J  c #A5BEA5AFA59A",
"K  c #A681A681A681",
"L  c #A731A731A731",
"P  c #A82EA82EA82E",
"I  c #A9B8A9B8A9B8",
"U  c #AB6AAB6AAB6A",
"Y  c #A85EAA57ADE3",
"T  c #AC7BAC7BAC7B",
"R  c #ADA4AD9CAD92",
"E  c #AEB0AEB0AEB0",
"W  c #AF8EAF8EAF8E",
"Q  c #A45DAD1AB952",
"!  c #B13FB13FB13F",
"~  c #B3D9B3D5B3CE",
"^  c #B5CAB5CAB5CA",
"/  c #B6ABB6ABB6AB",
"(  c #B791B791B791",
")  c #B813B8B9B98C",
"_  c #BC23BC19BC07",
"`  c #BCA8BCA8BCA8",
"'  c #BD96BD96BD97",
"]  c #BE5ABE5ABE5A",
"[  c #BF55BF55BF55",
"{  c #868FA0EECA48",
"}  c #9BDCA96CC0C1",
"|  c #9E38AED8C815",
" . c #8CB9A791D2D5",
".. c #8513A5B5DA01",
"X. c #809CA49DE02B",
"o. c #8D52AB7BDC96",
"O. c #8C95ABAADF6A",
"+. c #9178A9D0D2B4",
"@. c #97FAAD2FD0B5",
"#. c #9659B092DBF1",
"$. c #AF1AB55EC07F",
"%. c #A54FB3F1CC65",
"&. c #8222A60BE107",
"*. c #82A1A697E105",
"=. c #850AA823E1EF",
"-. c #87B3A9F3E120",
";. c #8726A9BBE1F8",
":. c #8771AA51E2A9",
">. c #8896AB52E268",
",. c #8EB1AE6CE19A",
"<. c #8C1DACC0E312",
"1. c #8C77AD56E2F0",
"2. c #8CABADAAE378",
"3. c #8E5CAEE5E335",
"4. c #8FB5AF18E27D",
"5. c #8EDDAF55E3F0",
"6. c #90BBB03DE329",
"7. c #9436B1A4E1FE",
"8. c #90F2B077E46A",
"9. c #90F8B133E51A",
"0. c #9210B1A5E560",
"q. c #9342B1B5E500",
"w. c #951DB387E596",
"e. c #97F5B588E68D",
"r. c #9A1AB735E613",
"t. c #9FB7BA45E4ED",
"y. c #9CCFB979E7AC",
"u. c #9D41B94BE7BF",
"i. c #A16EBC37E71A",
"p. c #A145BC57E8A6",
"a. c #A26EBCB5E8EC",
"s. c #A26ABD79E954",
"d. c #A23FBDAFE9B9",
"f. c #A4B1BE62E997",
"g. c #A6DCC020EA00",
"h. c #BCE8C3ECCEFA",
"j. c #A7F3C168EAB9",
"k. c #A8B5C228EABB",
"l. c #AAC5C336EAFE",
"z. c #AB80C3DEEAFA",
"x. c #AC9FC45AEB79",
"c. c #AE9AC5AAEC17",
"v. c #AF8EC690EC57",
"b. c #AFD5C703ECB1",
"n. c #B051C6BFEC95",
"m. c #B0F3C77CEC88",
"M. c #B2D5C8E9ED19",
"N. c #B403C9E9EDA0",
"B. c #B492C9FEEDB2",
"V. c #C091C092C094",
"C. c #C1C8C1C8C1C8",
"Z. c #C3E4C3E4C3E4",
"A. c #C411C470C52C",
"S. c #C4DAC4DBC4DC",
"D. c #C59DC59DC59D",
"F. c #C6DDC6DDC6DD",
"G. c #C7D4C79BC73E",
"H. c #C7D8C7D8C7D8",
"J. c #C392C5E5C903",
"K. c #CA06CA07CA0A",
"L. c #CAC7CAC8CAC8",
"P. c #CB9CCB9CCB9C",
"I. c #C9D3CB67CE4F",
"U. c #CF04CEF7CEE3",
"Y. c #CF9ECF9ECF9F",
"T. c #D075D037CFD8",
"R. c #D065D065D065",
"E. c #D20FD191D0CA",
"W. c #D19AD19BD19C",
"Q. c #D2AAD2AAD2AA",
"!. c #D5EFD5EFD5EF",
"~. c #D8E8D8E8D8E8",
"^. c #D99FD99FD99F",
"/. c #DB07DB07DB07",
"(. c #DF2FDF2FDF2F",
"). c None",
/* pixels */
").).).).).).).).).).).).).).).).).).).).).).).).).).).).).).).).",
").).).).).).).).).).).).).).).).).).).).).).).).).).).).).).).).",
").).).).).).).).).).).).).).).).).).).).).).).).).).).).).).).).",
").).).).).).).).).).).).).).).).).).).).).).).).).).).).).).).).",
").).).).).).).).).).).).).).).).).).B N N M M ).).).).).).).).).",
").).).).).).).).).).).).).).).).).G T R U K C ).).).).).).).).).",
").).).).).).).).).).).).).).).).N U F.R.L.' K ).).).).).).).).).",
").).).).).).).).).).).).).).).).D ~ !.(.U._ H l ).).).).).).).).",
").).).).).).).).).).).).).).).).T ] /.~./ D n k g ).).).).).).).",
").).).).).).).).).).).).).).).).! C.^.W.L g g z B B k d ).).).).",
").).).).).).).).).).).).).).).).W ' Q.P.H f d m E R c a ).).).).",
").).).).).).).).).).).).).).).F ~ V.Y.L.W C C I ` ^ n p ).).).).",
").).).).).).).).).).).).).).).F _ K.W.Y.Z.[ C.D.H.( b i ).).).).",
").).).).).).).).).).).).).).Z Y A.T.U.L.S.Z.F.S.` T l u ).).).).",
").).).).).).).).).).).).O.+.} $.I.E.G.' ~ W E P B l s ).).).).).",
").).).).).).).).).).1.4.7.#.@.%.h.J.) R J D V b s y ).).).).).).",
").).).).).).).).).).-.6.i.t.o. .| Q A v x l j ).).).).).).).).).",
").).).).).).).).).>.3.r.z.k.9...{ S h ).).).).).).).).).).).).).",
").).).).).).).).w :.y.z.M.b.d.,.6 * ).).).).).).).).).).).).).).",
").).).).).).).X.=.0.j.N.B.c.s.2.3 $ ).).).).).).).).).).).).).).",
").).).).).).9 *.e.g.v.M.n.f.8.e > ).).).).).).).).).).).).).).).",
").).).).).).7 t u.c.m.x.a.q.r 4 & ).).).).).).).).).).).).).).).",
").).).).).).2 0 w.g.l.p.<.q 1 # ).).).).).).).).).).).).).).).).",
").).).).).).< 5 &.1.5.;.8 , + ).).).).).).).).).).).).).).).).).",
").).).).).).).- : ; = % @ O ).).).).).).).).).).).).).).).).).).",
").).).).).).).).o X .   ).).).).).).).).).).).).).).).).).).).).",
").).).).).).).).).).).).).).).).).).).).).).).).).).).).).).).).",
").).).).).).).).).).).).).).).).).).).).).).).).).).).).).).).).",
").).).).).).).).).).).).).).).).).).).).).).).).).).).).).).).).",
").).).).).).).).).).).).).).).).).).).).).).).).).).).).).).).).",
").).).).).).).).).).).).).).).).).).).).).).).).).).).).).).).).",
").).).).).).).).).).).).).).).).).).).).).).).).).).).).).).).)."
};
