/* XPM */
static char *disk[] = {
/* columns rows colors chars-per-pixel */
"32 32 135 2",
"   c #9444C64775E1",
".  c #2DD25DE9A6A7",
"X  c #2CF65ED8AA0E",
"o  c #2FBF5F75A808",
"O  c #2FB15F5DA90F",
"+  c #2E186093AD0A",
"@  c #3089609FA7FB",
"#  c #314E622CAC9D",
"$  c #3F106B53ADA5",
"%  c #2EC86357B35B",
"&  c #2F1B660EBA11",
"*  c #31176548B4EE",
"=  c #35F16A04B6F6",
"-  c #31286724BA13",
";  c #34446911BA27",
":  c #38B46C39B95C",
">  c #3FB571EABEAA",
",  c #434B6E72AF7E",
"<  c #44C76FA6B0C4",
"1  c #462A715BB318",
"2  c #49217429B5A0",
"3  c #4AED76AFB9D2",
"4  c #4DCC7A26BDDA",
"5  c #59497F92B9B1",
"6  c #46CD77F3C2F1",
"7  c #4EEC7D26C257",
"8  c #51A27F0AC3AF",
"9  c #5B1E8108BA25",
"0  c #620F8650BEC7",
"q  c #68288AECBFAF",
"w  c #5681831AC742",
"e  c #5A8085DDC6F4",
"r  c #5FA988BBC7B9",
"t  c #57A383E5C89F",
"y  c #59C5861BC97E",
"u  c #5DB2890ECB5B",
"i  c #62B78746C0B1",
"p  c #63898990C507",
"a  c #6B058D7DC1B4",
"s  c #64458D32CBE2",
"d  c #691A8FC0CA9F",
"f  c #6F33915FC4A5",
"g  c #66FF904ECE6D",
"h  c #6B6892F7CEA8",
"j  c #729D94F0C746",
"k  c #7686977EC945",
"l  c #777198D5CAE6",
"z  c #7AD69B61CC80",
"x  c #6C9D95DBD4D2",
"c  c #6F1D98C3D7D6",
"v  c #6F3198B5D904",
"b  c #74509AF4D422",
"n  c #7C5F9F5ED45F",
"m  c #73D09D16DC79",
"M  c #7F5EA0C4D034",
"N  c #7EAFA0CBD3C2",
"B  c #774BA079DFA7",
"V  c #7D5EA2DCDC1A",
"C  c #776DA13BE184",
"Z  c #7A1BA338E2D7",
"A  c #A3B4CF8D8596",
"S  c #A538D09D8728",
"D  c #AE98D48397FC",
"F  c #B322D529A777",
"G  c #BB4EDC52A480",
"H  c #B469D5DCA918",
"J  c #C692E01FBE46",
"K  c #806C9DC4CA37",
"L  c #8292A344D409",
"P  c #8865A783D5FD",
"I  c #8BADAA06D769",
"U  c #80ECA59ADD47",
"Y  c #870EA97BDC93",
"T  c #8C2FAB7CDB5A",
"R  c #9152AF27DC57",
"E  c #98F2B1A4D79E",
"W  c #933EB155DEA6",
"Q  c #9C5DB6C0DE55",
"!  c #A215BAB4DF3B",
"~  c #8132A7D1E29A",
"^  c #867DAB70E3ED",
"/  c #89F7AE1AE5F7",
"(  c #8E6EB1A7E705",
")  c #8E40B2FDEA2A",
"_  c #94FFB43AE4B2",
"`  c #9A24B70EE287",
"'  c #9CA4B96AE49E",
"]  c #929AB5AFEB67",
"[  c #9861B782E9DB",
"{  c #96F7B947EC9D",
"}  c #9A8CB9FDEB7D",
"|  c #A281BD23E4DC",
" . c #A43FBFD5EA77",
".. c #B03EC33FDF4C",
"X. c #A684C165E6FD",
"o. c #AB47C3B2E774",
"O. c #A702C1DEEB2D",
"+. c #AC20C58DEC41",
"@. c #B032C6A4EA06",
"#. c #B371CA8BED1E",
"$. c #BB04CE85EC42",
"%. c #BE20D12CECE3",
"&. c #A485C2C5F09B",
"*. c #ACE7C8C6F22A",
"=. c #B694CE22F0D1",
"-. c #B918D016F2B2",
";. c #BC04D295F3C1",
":. c #DF7EEF27D7D4",
">. c #DFFEEF68D88D",
",. c #E26AF03DDD6B",
"<. c #E180F0C3D989",
"1. c #C4CFD55EED85",
"2. c #C97CD760EE4F",
"3. c #CB67DA1DEF49",
"4. c #C269D5BAF269",
"5. c #C672D8EFF483",
"6. c #CE45DE08F469",
"7. c #D239DF2FF1DD",
"8. c #D56AE1E5F52F",
"9. c #DB86E5FAF5E3",
"0. c #DE9FE944F770",
"q. c #D7B6E5ADF93E",
"w. c #DC1CE71DFAA8",
"e. c #DE52E94FF93B",
"r. c #E84AF3C1E2DF",
"t. c #E93FF4CDE338",
"y. c #EA6AF3E5EAC9",
"u. c #E45AED8AFAC6",
"i. c #EDC4F427FC81",
"p. c #F833FCA0F718",
"a. c #F92BFDA8F7A6",
"s. c #F274F712FD6D",
"d. c #F682F9F7FE47",
"f. c #FB39FD95FF89",
"g. c None",
/* pixels */
"g.g.& & & - - - - - - - - - - - - - - ; ; ; ; ; ; ; : : g.g.g.g.",
"g.6 s x s s s s s s s s s s s s s s s s d d s s s s s r 7 g.g.g.",
"& s | $.#.$.1.3.2.2.2.2.1.1.$.$.$.1.1.2.2.1.1.$.$.@.X.R h 8 g.g.",
"& g $.8.5.6.i.f.f.s.0.0.i.s.s.i.s.d.f.f.f.d.s.i.u.9.5.o.Y h 7 = ",
"- s #.5.&.*.u.f.f.9.! ! 8.s.i.i.s.d.f.f.d.s.i.u.u.q.5.$.o.T e : ",
"- s @.;.] { q.f.f.3.L N 2.i.i.i.s.d.d.d.s.i.u.u.e.6.#.#.%.| e : ",
"- u +.;.] { q.d.d.3.L N 2.i.i.i.d.d.d.d.i.u.u.e.e.5.} [ $.| e ; ",
"- u o.;.] { 8.d.d.3.L L 2.i.i.s.d.d.d.s.i.u.e.e.e.4.( / +.` w * ",
"- u o.;.] { 6.i.i.2.L L 1.i.s.d.d.d.s.i.u.e.e.e.e.4.( ^  .W 8 * ",
"- y X.;.] { 6.i.i.6.Q Q 7.s.d.d.f.d.s.i.u.e.e.e.e.4.( ~ ' T 8 * ",
"- y X.;.) { 6.i.i.0.6.7.u.s.d.f.f.d.i.u.u.e.e.e.e.4.( ~ ' I 7 * ",
"- y X.;.] ( #.1.1.1.2.3.3.7.8.8.7.6.2.1.1.%.%.%.%.o.^ U ` P 4 * ",
"- y  .;.] Z V L L L P P I I I I I P L L L L L L L N m U ` P 4 * ",
"- y | -.] m x s g g g h h h h h h h d s s s s s s g c U ` L 4 * ",
"- y | =.] C m m m m m m m m m m m m m m m b c c c c m V W L 4 * ",
"- y | =.( Z Z Z Z Z Z Z Z Z Z Z Z Z C B B m m m m m m V W L 3 # ",
"- t | =.( Z Z Z Z Z Z Z Z Z Z Z Z C B B m m m m m m m V R n 3 # ",
"- t | #.( Z C Z Z Z Z Z Z Z C C m m m m m m m m m m m V T z 3 # ",
"- t ' #.( C C C C C C C C C C m m m m m m m m v v c c n I z 2 # ",
"- t ' #./ ~ ] } } } } } } } } [ [ [ [ [ [ _ _ _ _ Y m b P l 2 # ",
"- w ' +./ ] 4.e.e.w.w.w.w.w.w.w.w.w.w.w.w.w.w.w.9.%.Y b L k 2 + ",
"- w ` +./ [ w.p.r.:.:.>.>.>.>.>.>.>.>.>.>.:.:.t.p.9.T b L j 1 + ",
"; t ` +./ [ w.r.G A A A A A A A A A A A A A A G r.q.T h M j 1 X ",
"; t ` +.^ [ w.,.D                             D ,.8.T h z f 1 O ",
"; t ` +.^ [ w.y.J F F H H H H H H H H H H F F J y.8.T h z f 1 o ",
"; w ` O.^ [ q.y.J F F H H H H H H H H H H F F J y.8.T h z a < . ",
"; w _ O.^ [ w.,.D                             D ,.8.I d l a , . ",
"; w _ +._  .u.t.G A A S S S S S S S S S S A A G t.9.T f l a , . ",
"- w _ +.O.$.u.a.t.,.<.<.<.<.<.<.<.<.<.<.<.<.<.t.a.9.E k z a , . ",
"- 7 U _ W ' $.2.2.2.2.2.2.2.2.2.2.2.2.2.2.2.2.2.2...K q q 9 $ . ",
"; > 8 t w w r s s s s p p p p p p p i i i i i 0 0 5 2 , , $ # @ ",
"; ; - * * * % % % % % % % + + + + X X X X . . . . . . . . . @ @ "
};
