/* XPM */
static char *folder_explore[] = {
/* columns rows colors chars-per-pixel */
"32 32 215 2",
"   c #B36D7EEE4352",
".  c #D7768402264F",
"X  c #D8DC84F52717",
"o  c #D7EE85862978",
"O  c #D88885542823",
"+  c #D9038BD72DCA",
"@  c #D9BB92D72F85",
"#  c #D9BE95F33002",
"$  c #D9B79CCB3037",
"%  c #DC26928E3E2A",
"&  c #D9AFABDA2EE6",
"*  c #D9B2B05A2F8D",
"=  c #D999A6023102",
"-  c #D9B6A8BE2FE0",
";  c #D776A6A83B86",
":  c #D99AB34631BC",
">  c #DC2BB7F53ED7",
",  c #B6E984344990",
"<  c #B986867C4C67",
"1  c #BA6E88994E68",
"2  c #BB978B755206",
"3  c #BF6E8F3A58D4",
"4  c #B4F993C27258",
"5  c #CED78FB34904",
"6  c #DF849BFC4599",
"7  c #DF999C864972",
"8  c #C2F68E0B544F",
"9  c #C2F694AD5F74",
"0  c #E0689B1940FA",
"q  c #E0969F845104",
"w  c #DDF2BBF94992",
"e  c #CD26A9205A19",
"r  c #D438A1175E55",
"t  c #DFD8BE7E519B",
"y  c #E08CA1BD55A1",
"u  c #E1DEA4085AFB",
"i  c #E287A8C95F64",
"p  c #E140BFAF59A9",
"a  c #CA6A9A3C658C",
"s  c #C71B9BA96DAC",
"d  c #C6E49DA77128",
"f  c #DF2EBC686753",
"g  c #D48AB4C7699B",
"h  c #CF7FA57076E3",
"j  c #D159A57F7638",
"k  c #D2A2A7F679F7",
"l  c #D41FAA877D1F",
"z  c #C7C9B3127E6B",
"x  c #E37AAD646317",
"c  c #E373B38964B4",
"v  c #E375BD0164D9",
"b  c #E1E3C1F65B85",
"n  c #E360C43D65B9",
"m  c #E3FAC582692D",
"M  c #F877DD6A6761",
"N  c #F802DC916CFE",
"B  c #EDC3C57D73C8",
"V  c #E572CA8671C5",
"C  c #ED3CC5F77B9F",
"Z  c #F02ACFF67BC4",
"A  c #EFB2D0B57C32",
"S  c #F7F2DEA17287",
"D  c #F8D4DF58717D",
"F  c #F0B6D1347A6C",
"G  c #F6DEDD337E97",
"H  c #F781E0B879E6",
"J  c #F8D2E1477B2F",
"K  c #BC6BA4BA8A09",
"L  c #BB19AF708CBE",
"P  c #AB3BA3199DB2",
"I  c #BCF4ADBC99C8",
"U  c #990CA304B2C0",
"Y  c #A954A32BA0CB",
"T  c #BA0AB7AEA4CF",
"R  c #BC34B320AC19",
"E  c #A749AFEFBDB6",
"W  c #A845AFEABB95",
"Q  c #AF09B6B4B602",
"!  c #B783BAC0BE83",
"~  c #BAF6BFEABD6A",
"^  c #D369AE148636",
"/  c #D868AF50837B",
"(  c #C6F9AD649366",
")  c #DCF2C2958932",
"_  c #E05ED3CB8895",
"`  c #EDE2C776848D",
"'  c #EB5FCE3780F8",
"]  c #E0B0D4488433",
"[  c #EBC1D2FF8681",
"{  c #E2A2D7098CC7",
"}  c #EBD4D4CC8C5B",
"|  c #EC92DD9C8F20",
" . c #F1E6D3FC81A4",
".. c #F662DBEB8593",
"X. c #F185D56B8C4F",
"o. c #F46ADB578DB2",
"O. c #EFDDCE74973E",
"+. c #EE4CCABB9C3B",
"@. c #E125D43697FC",
"#. c #EFC9D17A95DB",
"$. c #E69FDA189055",
"%. c #EC6FD895954B",
"&. c #E650DCB39C13",
"*. c #ED06D9479895",
"=. c #F45FDC0193DA",
"-. c #F1DED7059EB4",
";. c #F3B6DD029BD8",
":. c #F7B8E1E78345",
">. c #F917E3948628",
",. c #F781E1968B44",
"<. c #F88EE4AB8BEA",
"1. c #F820E3B99250",
"2. c #F933E6759302",
"3. c #F4C4E2779E39",
"4. c #F931E73D9AB7",
"5. c #F9A8E9009E41",
"6. c #D4AFD3F0A745",
"7. c #D483D524ACA5",
"8. c #C3D6CE69BFE8",
"9. c #CEC2CF19C012",
"0. c #C727D08ABE6A",
"q. c #EFD2DE8AA645",
"w. c #F15CD708A34D",
"e. c #F3A5DC66A42A",
"r. c #F3CCDE4EAA2B",
"t. c #F34FD957B148",
"y. c #F436DCB4BA63",
"u. c #F5C3E391A440",
"i. c #FA1DEA18A294",
"p. c #F3A3E290AD27",
"a. c #F915E7F6ABD3",
"s. c #F536E9CFAF68",
"d. c #FA88EB78AB9E",
"f. c #E737E2C6B6D7",
"g. c #F8C6E7D1B0D4",
"h. c #FAD3ED2EB5DD",
"j. c #F522E5B1BD2F",
"k. c #F983EB7EB9B9",
"l. c #FC48F0A7BC22",
"z. c #98A7AEACCB6A",
"x. c #9F76B362CCDC",
"c. c #98A4B19CD0EA",
"v. c #9B7DB880DCA2",
"b. c #B31FBECAC4DA",
"n. c #B836BF9BC875",
"m. c #A9F7BE86D5AD",
"M. c #A420BDD4DC7C",
"N. c #9DA5BCFCE255",
"B. c #A0CABE3CE236",
"V. c #B3D6C53FC50F",
"C. c #BD7DC5B6C2ED",
"Z. c #B7B0C814CCCE",
"A. c #BC20CC06CB03",
"S. c #B833C773D28E",
"D. c #B7C5CC19D814",
"F. c #B2F5C77FDC64",
"G. c #B8EFCE33DFB3",
"H. c #BEC9D1DDDF76",
"J. c #A5F9C284E47F",
"K. c #AAC3C60FE5F8",
"L. c #AFEDC928E1FC",
"P. c #AE74C9FEE9F8",
"I. c #B616CBDBE303",
"U. c #BD0FCEC7E1A8",
"Y. c #B237CC69EA80",
"T. c #BBF6D3BAED59",
"R. c #BE84D979F4D5",
"E. c #C487CFB3C320",
"W. c #C276CFF4CA3C",
"Q. c #CB9BD67ECD3A",
"!. c #D91ADC4BC148",
"~. c #C069D195D824",
"^. c #EA3CE264C987",
"/. c #F5A6E4ABC4AD",
"(. c #F58DE8AFC571",
"). c #F8FDEA39C10B",
"_. c #F64DE780C9CC",
"`. c #F68EEAFCCBEF",
"'. c #F8B0ED4ECA0D",
"]. c #FCAFF27CC3E9",
"[. c #FCE9F32DCD6A",
"{. c #F81EF011D501",
"}. c #F9EDEFC2D184",
"|. c #FAE2EF74D8C4",
" X c #FB19F264D453",
".X c #FB16F36FDBBB",
"XX c #C653D55FE6CB",
"oX c #CB95DB04E6EF",
"OX c #C66AD9B2ED63",
"+X c #C9A3DB29EF5D",
"@X c #D1ADE038ECF6",
"#X c #C2AAD7F4F163",
"$X c #C3C1DC35F4CB",
"%X c #CA9BDF1CF4CF",
"&X c #C6B4DFFDF8D2",
"*X c #CCEEE1E2F6ED",
"=X c #CCB5E286F87E",
"-X c #D43DE4D0F5FD",
";X c #D88CE830F7DC",
":X c #DA4EE88CF7F4",
">X c #D052E515F8E3",
",X c #DB93EA5CF8B4",
"<X c #E7ECEDCCEE41",
"1X c #E9FBEF1EECFE",
"2X c #EEC4F168E7BE",
"3X c #F5A7F471E325",
"4X c #FCB7F67BE432",
"5X c #FE8FF9CAE522",
"6X c #FD56F7C7EA8E",
"7X c #FEB5FACEEC21",
"8X c #EB84F1B0F46E",
"9X c #EE93F4FEFABD",
"0X c #FF59FCECF433",
"qX c #FFB7FF29FCB6",
"wX c None",
/* pixels */
"wXwXwXwXwXwXwXwXwXwXwXwXwXwXwXwXwXwXwXwXwXwXwXwXwXwXwXwXwXwXwXwX",
"wXwXwXwXwXwXwXwXwXwXwXwXwXwXwXwXwXwXwXwXwXwXwXwXwXwXwXwXwXwXwXwX",
": > t b b b b b b b b t > wXwXwXwXwXwXwXwXwXwXwXwXwXwXwXwXwXwXwX",
": w V [ [ [ [ [ [ [ [ ' V m wXwXwXwXwXwXwXwXwXwXwXwXwXwXwXwXwXwX",
": b p..X.X.X.X.X.X.X.X{.`.p.' n n n n n n m V V V m wXwXwXwXwXwX",
"* n `.qX7X5X5X6X6X7X7X0X0X.Xq.} } } } } } } %.*.*.[ p wXwXwXwXwX",
"& n `.7X].d.a.g.k.k.).}.6X7X.X X X X X X}. X X.X.Xj.n & wXwXwXwX",
"& n `.4Xd.,.o.=.=.=.=.e.). X.X.X.X.X X X X X X.X0X`.m & wXwXwXwX",
"- v _..Xa.o.=.o.o. .F A [ } ;.;.;.;.=.=.=.=.o.u..X(.n & wXwXwXwX",
"- v (..Xp.=.o.X. .Z A [ [ | ;.;.;.;.=.=.=.o.o.u..X(.n & wXwXwXwX",
"& v j..Xr.X.} ' B ' w.j.'. X.X.X.X X X X X[.[..X0X`.n & wXwXwXwX",
"- v /.4Xj.r.e.-.#.w.(..X7X7X5X.X3X3X2X1X<X<X<X8X9X^.f = wXwXwXwX",
"= v _.0X6X.X.X.X|..X6X7X5X Xl.s.f.!.Q.~.I.I.T.T.OX9.g ; wXwXwXwX",
"= v `.qX0X7X7X7X7X5X5X.X[.k.u.&.7.0.A.D.L.K.P.P.Y.C.z e wXwXwXwX",
"$ v _.0X5X X[.].].l.h.d.i.3.&.7.W.H.oX@X-X%X#XT.T.S.T L wXwXwXwX",
"$ c _.7X Xl.h.d.d.i.4.2.>.| 6.E.H.#X-X:X,X;X*X$X#XU.b.Q wXwXwXwX",
"# c /.7X[.h.d.i.5.2.<.>.J $.8.G.OX*X*X*X*X*X%X%X*XOXF.m.wXwXwXwX",
"# c /.5X].d.i.4.2.<.:.J D { Z.Y.%X-X*X%X&X$X$X&X>X%XY.J.wXwXwXwX",
"@ x /.5Xl.i.4.2.<.:.H D M ] V.P.%X;X*X$X$X$X$X$X=X$XP.J.wXwXwXwX",
"+ x /..Xk.5.4.1.,.:.G S N _ V.P.%X;X*X$X$X$XR.$X=X$XP.B.wXwXwXwX",
"+ i y..Xk.u.3.;.=.=.o...G @.Z.Y.%X-X%X$XR.R.R.$X=X#XJ.v.wXwXwXwX",
"+ y +.t.O.` ` ` C C C B B ) ~ I.+X-X%X$X$X$X$X$X&XT.M.z.wXwXwXwX",
"+ % u u q 7 7 7 6 6 6 6 0 r I n.XX*X=X=X&X&X=X&XR.Y.x.U wXwXwXwX",
"wXwXwX. O o o o o o o O X 5 K ! U.#X$X$X$X#X#XT.Y.m.W P 4 wXwXwX",
"wXwXwXwXwXwXwXwXwXwXwXwXwXwXwXwXK.P.Y.Y.Y.P.K.M.x.E R ( s 8 wXwX",
"wXwXwXwXwXwXwXwXwXwXwXwXwXwXwXwXwXwXJ.K.K.J.N.c.U Y ( ^ j a < wX",
"wXwXwXwXwXwXwXwXwXwXwXwXwXwXwXwXwXwXwXwXwXwXwXwXwX4 d j / k 3   ",
"wXwXwXwXwXwXwXwXwXwXwXwXwXwXwXwXwXwXwXwXwXwXwXwXwXwX8 a l h 3 , ",
"wXwXwXwXwXwXwXwXwXwXwXwXwXwXwXwXwXwXwXwXwXwXwXwXwXwXwX1 9 9 2 1 ",
"wXwXwXwXwXwXwXwXwXwXwXwXwXwXwXwXwXwXwXwXwXwXwXwXwXwXwXwX< 2 2 2 ",
"wXwXwXwXwXwXwXwXwXwXwXwXwXwXwXwXwXwXwXwXwXwXwXwXwXwXwXwXwXwXwXwX",
"wXwXwXwXwXwXwXwXwXwXwXwXwXwXwXwXwXwXwXwXwXwXwXwXwXwXwXwXwXwXwXwX"
};
