/* XPM */
static char *map[] = {
/* columns rows colors chars-per-pixel */
"32 32 254 2",
"   c #4A7452CC4935",
".  c #4E9158D94D92",
"X  c #508758F64F62",
"o  c #52E05A5A50E7",
"O  c #5684623C5583",
"+  c #5924625E57BA",
"@  c #5BF366915A6F",
"#  c #5D3669175B72",
"$  c #60BA6A595EE5",
"%  c #627E6B9760D9",
"&  c #DB9E5FC24995",
"*  c #DBDE65FE4D98",
"=  c #CAF378F559AD",
"-  c #D35E7710559E",
";  c #D5197C4C5379",
":  c #EDB7748D57E9",
">  c #EE877B915B8E",
",  c #F79E7A495DB2",
"<  c #D9937A4B6170",
"1  c #EBAB7E666231",
"2  c #7703815675B8",
"3  c #7840811876A2",
"4  c #B9208CA25F04",
"5  c #BCC794E05BDE",
"6  c #BBF298BB5981",
"7  c #BDE3ACE7598F",
"8  c #814C8D4B7F0E",
"9  c #BA859FD86D3A",
"0  c #9DB2B5656B6D",
"q  c #9AC5BDE2733B",
"w  c #A9A9A42062BE",
"e  c #BCFFA4716520",
"r  c #B6F5A80F6A51",
"t  c #A64BB48A6BF3",
"y  c #BD29A6227120",
"u  c #BCBDAE0673D2",
"i  c #A6B8B93A75A2",
"p  c #B198BB6678B9",
"a  c #C7268B665793",
"s  c #D3128AB258A6",
"d  c #C99596F35B4C",
"f  c #D7B698A85957",
"g  c #E74485F95972",
"h  c #ED458B265EE9",
"j  c #E5869E125BCD",
"k  c #DC8BAA1B59FA",
"l  c #C4ECBA9056E8",
"z  c #D294BF4457A0",
"x  c #E631A4D45D6D",
"c  c #C9128DE566A3",
"v  c #D54E875762A4",
"b  c #DD2E84266B4C",
"n  c #CE9E975569A6",
"m  c #D4098D407041",
"M  c #F03D86576223",
"N  c #F7B682B96478",
"B  c #F7A58ABA682F",
"V  c #EC629B7C64F4",
"C  c #EEF399D0694C",
"Z  c #DCADB8AB69E6",
"A  c #C96AA8E17B62",
"S  c #D8A5A692713B",
"D  c #CC89B09D7D79",
"F  c #D259BEC170DA",
"G  c #EC1AA7BA6695",
"H  c #F62DA2516F12",
"J  c #E9DEBA6F6A25",
"K  c #E26EA9D47567",
"L  c #EB53BC34749D",
"P  c #F413BB9D786F",
"I  c #93C9C6B87582",
"U  c #9BE2C21274A9",
"Y  c #98F7CB3C7996",
"T  c #9C32CC327D05",
"R  c #BAFEC46C6967",
"E  c #A6A7C95A79D5",
"W  c #A380CDE17F66",
"Q  c #A515D09A7E28",
"!  c #B9C5D6057AFD",
"~  c #CE06CE114F56",
"^  c #CEC9C62C5E9B",
"/  c #D1ADCDBD5FB7",
"(  c #D31AD47759E8",
")  c #C553CB3E68E7",
"_  c #DB9DC0536D6E",
"`  c #CE2FD28E669D",
"'  c #DA0BD62F6695",
"]  c #DC0EDCAB640D",
"[  c #D681D98A6B72",
"{  c #C609CBE47798",
"}  c #DA16C8B577C2",
"|  c #CDA0D5EC7A95",
" . c #D782D7737A0F",
".. c #E4C7C7E26949",
"X. c #E2DADDBD6E63",
"o. c #E9EDC92D7414",
"O. c #F4C4C58E7BBD",
"+. c #E937D987775D",
"@. c #F336D0E077E1",
"#. c #E32CE47F6B94",
"$. c #EAB7EB9D76BC",
"%. c #E483E4A07DDF",
"&. c #EC58E0FE788C",
"*. c #73479C79D57A",
"=. c #78D09F27D51A",
"-. c #72299D43D973",
";. c #7C8CA2EDD7B6",
":. c #7C77A49CDC04",
">. c #845B8EDA830B",
",. c #85C4906484F4",
"<. c #BCB9BAD281E0",
"1. c #ABDCB8F0A9D2",
"2. c #A64EBAA6BA8F",
"3. c #B699BC95B622",
"4. c #E288993487C0",
"5. c #FD229E96899F",
"6. c #C97EB4748A46",
"7. c #DC6EB79180F5",
"8. c #C150BE0E9168",
"9. c #F94DB1758DCE",
"0. c #9D62CC96828E",
"q. c #A159CDBB86AC",
"w. c #A832CBE88903",
"e. c #BCF6C68F87F7",
"r. c #A301D3898420",
"t. c #ABD8D35C88F4",
"y. c #AA58D6338BF9",
"u. c #B888DB808E70",
"i. c #B743C8759713",
"p. c #BF0BCCC19CA4",
"a. c #A451D24A9099",
"s. c #AB88D44C93F6",
"d. c #B229D6509B8D",
"f. c #B361D8A19E4E",
"g. c #B5C3C2F7A1B0",
"h. c #B706D796A293",
"j. c #BC62DCC4A912",
"k. c #ABE3C1ACBC66",
"l. c #B7AAC796B0FD",
"z. c #BE7FCA19B625",
"x. c #BD04CEE7BA76",
"c. c #BE4CD0B0BC26",
"v. c #C078C8DE8002",
"b. c #DA98CB6C8504",
"n. c #CB83D364808D",
"m. c #C65AD11B8E73",
"M. c #D3C4D8C58401",
"N. c #C39DC7CF9220",
"B. c #CC10D49B9352",
"V. c #C6EDDEF7955C",
"C. c #D425D8E1950C",
"Z. c #F205DF5C8A6F",
"A. c #F49FD7B599B3",
"S. c #DB4BE66E8B90",
"D. c #CE99E55D9685",
"F. c #D8A8E55199F3",
"G. c #E482E4438318",
"H. c #EBD5E5838313",
"J. c #EBDBEBF6854E",
"K. c #E61DE4BB89AB",
"L. c #E63DE9508BC0",
"P. c #EBDEEB3A8BDB",
"I. c #F372E67588AF",
"U. c #F404F0948F96",
"Y. c #E3E9E5AC942B",
"T. c #E706EA0C92A6",
"R. c #ED29ECB59605",
"E. c #EE5EED549B3E",
"W. c #F37AF33C93B6",
"Q. c #F37CF31A9B50",
"!. c #C9D5D4CAA728",
"~. c #C5B3CC5FB994",
"^. c #C08DD115BDF9",
"/. c #DD8BD57DB4C0",
"(. c #DBFAD989B6DB",
"). c #D693DC85BCC6",
"_. c #E938CE89BE1B",
"`. c #C43DE53FAF90",
"'. c #CBB7E615B417",
"]. c #CDCBE53FC032",
"[. c #DE19EA2CBC30",
"{. c #E991ECFDA519",
"}. c #F3B7F498A3FE",
"|. c #F3A1F457ACE9",
" X c #F8CFF546AAA0",
".X c #F985FAB9B37C",
"XX c #F7DAF8C1BA39",
"oX c #91D2AEC0CDA8",
"OX c #82FFA625D6C3",
"+X c #89F2AC51D382",
"@X c #8189A769DB96",
"#X c #865DA93FDAF3",
"$X c #8BEDAD82DCA2",
"%X c #90E7AEFADA39",
"&X c #9293B382D391",
"*X c #9023B25DD5F9",
"=X c #941BB2CCDDFD",
"-X c #9BBBB5D9DC4D",
";X c #9CCEBC4BDB2D",
":X c #AB58BEE0C469",
">X c #A383BB39CCDB",
",X c #A2C3BD6BDCC6",
"<X c #8D85B024E168",
"1X c #8ED1B2CDE54A",
"2X c #93CFB4AAE251",
"3X c #98B3B69EE1CD",
"4X c #9DA8BC0CE52C",
"5X c #A3ACBD28E385",
"6X c #A83BBFC1E2A1",
"7X c #AEE3C1C5CD2E",
"8X c #B5FEC845C821",
"9X c #AF85C398D57A",
"0X c #ACE9C732DF6F",
"qX c #B4E9C869D2E8",
"wX c #BF26DA83DA3D",
"eX c #A5CDC232E579",
"rX c #AAFBC30BE716",
"tX c #A971C608E927",
"yX c #AA06C4BDE989",
"uX c #B3A7CA42E7B3",
"iX c #B59ECEEBF2F4",
"pX c #C598D319C537",
"aX c #C9E9D66AC3B7",
"sX c #CDB3D649CBE1",
"dX c #DA20DCF6C1AD",
"fX c #C347D536D865",
"gX c #C4D0DE70DA1D",
"hX c #D2BED830D20C",
"jX c #D3A5D9A6D47E",
"kX c #CE31E68BC372",
"lX c #CE3BE982C599",
"zX c #D415E4CFC312",
"xX c #D2FAE9C7C61C",
"cX c #D2A2EB71C9E8",
"vX c #C754E091DB67",
"bX c #CBA9E36DDB7B",
"nX c #D0EDE5EDD416",
"mX c #DCD2F1BED6CD",
"MX c #FA3DFB2DC5AC",
"NX c #FC6FE5A3D8A0",
"BX c #E54CF521DDD6",
"VX c #F052F455DCC8",
"CX c #F944F6F2DBFD",
"ZX c #CDBDE4B5E3A7",
"AX c #D65BE6DEEF01",
"SX c #DA7CEA38EEC5",
"DX c #DE79ECCDF1A1",
"FX c #EB04F78DE865",
"GX c #F450FAAFE835",
"HX c #FB59FE00E4D2",
"JX c #FC95FEE4EB3C",
"KX c #E21AEDD4F652",
"LX c #E8A4F216F5A8",
"PX c #FFFFFFFFF7BE",
/* pixels */
"  . O @ @ # # # # # # # # # # # # # # # # # # # # # # # @ O .   ",
". # 3 >.>.>.,.,.,.,.>.>.>.>.>.>.,.,.,.,.>.>.>.>.>.>.>.>.>.2 # . ",
"O 3 3.jXjXjXjXjXjXjXjXjXjXjXjXjXjXjXjXhXsXsXsXsXsXsXsXsXsX1.2 O ",
"@ >.jXPXPXHXCXNXNXNXCXHXHXCXCXVXLXLXKXKXDXSXSXAXAXAXAXSXLXpX>.@ ",
"@ >.jXJXMX XA.9.5.9.A.}. XQ.G.C.fXiXyXtXtXtXeX4X4X4X2XeXZXx.8 # ",
"# >.jXHX.XI.o.G , N J &.J.$.( R k.3X$X$X1X1X@X:.:.:.-.$XwXx.8 $ ",
"# >.jXHX|.H.+.J > : j ..+.#.~ R 1.&X+XOX$X$X;.=.;.=.*.+XwXx.8 $ ",
"# >.jXHX|.J.%.o.C > g x +.#.( ) i.2.oX$X=X=X#XOX@X;.=.*XgXx.8 $ ",
"# >.jXHX.XW.J.+.O.H > h @.$.] ` m.l.>X3X4X4X2X$X2X<X#X;XgXx.8 $ ",
"# >.jXHX.XW.J.H.I.P > > P &.] [ | p.>X4XeXeX3X=X2X2X$X;XvXx.8 $ ",
"# >.jXHX|.P.%.%.H.o.g : V J ' ( ` e.2.-X4X4X=X%X=X$X#X;XgXx.8 $ ",
"# >.jXHX|.P.G.%.J.+.V g h G ..] ( { 2.-X5X5X-X=X-X=X$X,XvXx.8 $ ",
"# >.jXHXXXQ.P.P.W.I.o.G N B o.X.] n.l.9XuXuXeX5XeX5X4X0XbXx.8 $ ",
"# >.jXJXXXQ.P.P.W.U.H.L B N G o.X. .p.8XuXiXrXrXrXrX5XuXbXx.8 % ",
"# >.jXHXXXR.K.G.P.P.%.o.C M h G ..[ v.g.qXuX6X,X6X5X5X0XbXx.8 % ",
"# >.jXJXXXE.K.K.P.P.G.+.L C > g ..[ ) e.8XuX9X7X7X7X:X8XnXx.8 % ",
"# >.jXJXMX}.R.R.Q.Q.P.H.Z.P 1 1 L  .` n.pXfXpX~.!.!.N.!.xXx.>.% ",
"# >.jXJXMX}.R.R.Q.Q.L.S.S.b.b < K } / | !.aX!.B.C.M.} b.[.x.8 % ",
"# >.jXJXXXE.Y.Y.R.T.M.! ! p 4 = v n l ) B.B.{ `  .} Z 7.(.z.8 % ",
"# >.jXJXMX{.Y.Y.Y.S.! E T U w 4 < v 7 R n.| ^ z Z Z S K /.z.8 % ",
"# >.jXJXMX|.{.F.D.u.Q T r.Q U r b b e R |  .Z k j f d D (.z.8 % ",
"# ,.jXJXMX{.F.V.u.y.T Y r.r.Y i m b c e F _ k f f d e <.).x.8 % ",
"# ,.jXGX[.V.t.W r.W I I T T I q y c = - s f a 6 r t 0 w.].x.>.% ",
"# >.hXFX'.u.T I T T I I T T q 0 r c * & - a 6 w i I I a.kXc.>.% ",
"# >.sXBX`.y.0.T r.r.Y Y r.W t w d ; * * v y i q T 0.Y s.lXx.>.% ",
"$ >.sXBX`.s.q.q.y.y.0.T w.p r 6 d s - - m A i 0.0.0.0.s.kXx.>.% ",
"$ >.sXBX'.d.w.w.s.s.q.E p y 5 5 y u 9 c b m p 0.q.q.0.s.kXx.8 % ",
"# >.sXFXxXj.h.h.j.j.f.i.N.6.A D N.p.i.6.4.4.8.d.f.f.d.j.cXx.8 % ",
"# >.sXFXmXcXlXlXcXcXlXkXzX).).).zXxXzXdX_._.).kXlXxXxXcXmXx.8 $ ",
"+ 3 1.pX^.x.x.x.x.x.x.x.x.c.c.c.c.c.c.^.~.~.z.z.x.x.c.^.c.1.2 @ ",
"X # 3 >.8 8 8 8 8 8 >.>.>.>.>.>.>.>.>.>.>.>.8 8 8 >.>.>.8 2 $ o ",
"  X + # $ % % % % % % % % % % % % % % % % % % % % % % % $ @ o   "
};
