/* XPM */
static char *monitor[] = {
/* columns rows colors chars-per-pixel */
"32 32 94 2",
"   c #655265526552",
".  c #6D056D056CFE",
"X  c #7493748F747A",
"o  c #7AA87AA47A9A",
"O  c #48376F21A6D5",
"+  c #49EB70AEA7E7",
"@  c #4D557449ABAF",
"#  c #511C7766AE03",
"$  c #52A878F3AF3E",
"%  c #54DA7B60B18B",
"&  c #59FE7E8FB28D",
"*  c #5B1881E3B92C",
"=  c #69A685C5AEA6",
"-  c #6A7186DFB071",
";  c #6E1B8AA1B41C",
":  c #612587AEBE6E",
">  c #61FA88A2BF39",
",  c #70188C54B568",
"<  c #64D08C20C2B2",
"1  c #68C98F54C44F",
"2  c #6B2A91AAC75C",
"3  c #6D609467CA81",
"4  c #70D4971CCB9F",
"5  c #734B9983CDEF",
"6  c #7B4F9D4ECC8F",
"7  c #759C9D30D2BE",
"8  c #79BC9EB1D1BA",
"9  c #7D26A327D613",
"0  c #857D857A8574",
"q  c #87C087BE882D",
"w  c #8D208D118D2A",
"e  c #8FC48FEF9099",
"r  c #94359401940E",
"t  c #9BDA9BD19BE3",
"y  c #A03D9FDB9FB5",
"u  c #9F229F5CA08E",
"i  c #879F9D56BD5B",
"p  c #8B27A0DEC009",
"a  c #A4ABA472A4C2",
"s  c #A66FA6E3A844",
"d  c #AC53AC30AC4E",
"f  c #B038B038B022",
"g  c #AFEFB029B137",
"h  c #A450ADDCBC7D",
"j  c #AFCFB06CB3A5",
"k  c #A7B3B0BAC02E",
"l  c #B436B438B47B",
"z  c #B839B7EDB86D",
"x  c #BC72BC4DBD26",
"c  c #8C69A22FC1E8",
"v  c #8363A20ACCE5",
"b  c #8313A677D684",
"n  c #8671A88AD76A",
"m  c #8A5EAAA3D777",
"M  c #8310A7D3D8B6",
"N  c #872DAA70D9CF",
"B  c #8CBCAC86D8BE",
"V  c #9145AEE3D7A3",
"C  c #9141AFA3DA03",
"Z  c #950EB24CDA8A",
"A  c #9934B535DB82",
"S  c #ABECB51EC4AD",
"D  c #AF38B846C729",
"F  c #AE2CB7E5C8BA",
"G  c #AE80B83CC910",
"H  c #BFACC019C3DA",
"J  c #B4B5BE2FCE16",
"K  c #B94AC030CC4F",
"L  c #C09CC014C1E6",
"P  c #BFC1C09EC4B9",
"I  c #B6C6C07CCFA3",
"U  c #B70BC0D7D08A",
"Y  c #BAECC470D38C",
"T  c #C41EC3EFC4A8",
"R  c #C529C541C962",
"E  c #C8DEC7FACA76",
"W  c #CC1ECC00CC89",
"Q  c #C1E6C954D3E5",
"!  c #CE9CCF1CD37F",
"~  c #C61DCD5AD922",
"^  c #C8B2D03CDBAE",
"/  c #C8ABD0BFDC34",
"(  c #D507D4E0D551",
")  c #D546D5DED8E8",
"_  c #D892D849D961",
"`  c #DBC0DB8EDC31",
"'  c #D9EADC75E0AE",
"]  c #DFF8E169E446",
"[  c #E3AAE3D0E49C",
"{  c #E5DEE6D3E957",
"}  c #EDB5EDD6EEEE",
"|  c #EF63EFA7F112",
" . c #F0AAF0DCF1E4",
".. c None",
/* pixels */
"...._ _ ) ( ( ( ( ( W W W E E T T T x x x z z l l f d d d d ....",
"...._ _ ` ` ` _ _ ( ( ( ( ( W W W W E E T T T T x x x z d s ....",
"....( ` [ { [ ] ` ` ` ` ` ` ` ` ` ` _ _ _ ) ) ( ( _ ` ! l a ....",
"....( ` { { / Y Y Y Y Y Y Y Y Y Y Y Y Y Y Y Y Y U ~ ] _ l t ....",
"....( _ [ ^ c ; ; , , ; ; ; ; ; ; ; ; ; ; ; ; ; ; c ~ ( d t ....",
"....( ) ` Y ; O @ # $ $ & & & & & & & & & & & $ + ; U W d t ....",
"....W ( ` Y ; @ & > < 2 6 v v v v 6 6 6 6 6 6 1 $ ; J W s r ....",
"....W ( ` Y , # : 2 4 6 n V A A Z Z B B m N N 5 & ; J E s r ....",
"....E ( ` Y , # : 2 3 4 6 n V Z Z C B m n M M 4 % ; J E a w ....",
"....E W ` Y , # : 2 2 3 5 6 n B B B B n b b b 4 % ; J E a w ....",
"....T W ` Y ; # : 2 2 3 3 5 8 b n m B m n M b 3 % ; J R t q ....",
"....T W _ Y ; # > 2 3 3 3 3 5 8 9 b n N n M b 4 % ; J T t 0 ....",
"....x E _ Y ; # > 2 3 3 3 3 4 5 5 8 9 b b b b 4 % ; J T t 0 ....",
"....x E _ Y ; # > 3 3 3 3 3 3 4 5 7 8 9 9 9 9 4 % ; J T r 0 ....",
"....x T ) Y ; # < 3 3 3 3 3 4 5 5 7 7 7 8 9 9 3 % ; J L r o ....",
"....z T ) Y ; @ * < < < < < < < 1 1 1 2 2 2 2 < @ ; J H r o ....",
"....l T ) Y ; O @ $ $ $ $ $ $ $ % % % % % % % @ + ; J T r X ....",
"....l x _ ~ p ; ; ; ; ; = = - - - - = = - ; - - - i Y T w X ....",
"....d x _ ' Q J J J I J S k S G F S h h D J D S S K ) H w X ....",
"....d z W ( W W W W W E L x T E R T z z x T x x x x T d 0 . ....",
"......d l l l d d d d s a s l l l d y r r r r r w w w q o ......",
"........a t t t t r r w w t d l l s w o o o o X X X . . ........",
"......................w q t l T W z e X X ......................",
"......................t t s x E ! P u w q ......................",
"................w r a g z x H R R H x j a r o . ................",
"................r u z W ( ( ( ! ! ! ) ( T d q X ................",
"................t l ` } } } } } } } |  .} ( a 0 ................",
"................t d W ` ` _ _ ) ( ( ( _ _ T t 0 ................",
"................w r t t t r r r r w w w w q o X ................",
"..................o o X X X X . . .           ..................",
"................................................................",
"................................................................"
};
