/* XPM */
static char *picture[] = {
/* columns rows colors chars-per-pixel */
"32 32 241 2",
"   c #7C1D90025BA6",
".  c #689A98DC5D89",
"X  c #793D95DF5771",
"o  c #7ED29CF35D82",
"O  c #773BA5B154C6",
"+  c #78F1A71656EC",
"@  c #7AD5A9C25AC8",
"#  c #7E2ABCD6528E",
"$  c #7F0EBB695BD0",
"%  c #6B889C2B60FD",
"&  c #7D13918D73DF",
"*  c #77599E9674C6",
"=  c #7DA6962A7C0F",
"-  c #7EE0A529627A",
";  c #7759AB136F53",
":  c #7DB6AB8E6D58",
">  c #7D99B531647E",
",  c #7833AD807532",
"<  c #7945AC547E3A",
"1  c #7D64B24274BD",
"2  c #9CEC80E73F5E",
"3  c #8A0184C54647",
"4  c #846281BB4D2E",
"5  c #8F6984634A04",
"6  c #96628B5D45BB",
"7  c #94268A45480E",
"8  c #853895E14A68",
"9  c #864499444A83",
"0  c #9A1F90984518",
"q  c #80168EB55537",
"w  c #8299964B5068",
"e  c #9D4598515567",
"r  c #ABF088144414",
"t  c #B5F491934932",
"y  c #B9EC93E74B13",
"u  c #A7419E425C61",
"i  c #B19895D95629",
"p  c #BE429C485BA7",
"a  c #8A20A6725C12",
"s  c #8452AC775C0B",
"d  c #8D79AA985ED6",
"f  c #81E3BEA553BD",
"g  c #878CB0E05A29",
"h  c #8880B2035C20",
"j  c #8378BD835BEB",
"k  c #874F89AE63A7",
"l  c #806789D068D3",
"z  c #85CBAC5563B6",
"x  c #874DB49D63CA",
"c  c #882CB4976248",
"v  c #85CBBD9763EF",
"b  c #888ABED86511",
"n  c #8024B77D6CB3",
"m  c #89C2BA426951",
"M  c #8131A7AC7BC7",
"N  c #8437B6217663",
"B  c #8368B6697C09",
"V  c #950EB9447F1B",
"C  c #C2159ACB4F0E",
"Z  c #CD5CA0D65A3A",
"A  c #D50CA5695CF3",
"S  c #C8CFA33860CC",
"D  c #D4F0A8D7633A",
"F  c #D299AF276DDA",
"G  c #CEF3B0EB72A6",
"H  c #8661C0EB5642",
"J  c #885DC18256CF",
"K  c #877EC1655C0C",
"L  c #8D41C42B5B56",
"P  c #9196C6845DAB",
"I  c #8C38C2B6622B",
"U  c #8D9AC2366D24",
"Y  c #949EC7C5629F",
"T  c #96E4C93D63BC",
"R  c #9B41CBA76662",
"E  c #92D8C6696A94",
"W  c #97F3C8A26EC0",
"Q  c #9C37CB7E6B9E",
"!  c #8FE0C17C77E5",
"~  c #91ACC2F27666",
"^  c #9D7FCC27769E",
"/  c #96E5C69B7D47",
"(  c #9E7ACBF17A37",
")  c #A23DCF716CB0",
"_  c #A298CF2C7368",
"`  c #A444CF4A7B3E",
"'  c #A587D0867760",
"]  c #69EB9CC682AE",
"[  c #6C179ED88A05",
"{  c #6D259AAC93C0",
"}  c #63CF937E9DAD",
"|  c #7EE19AE590F2",
" . c #73C4A4B1892B",
".. c #771BAB3C8DFC",
"X. c #6D5FA0999CEA",
"o. c #700FA0BE962C",
"O. c #7B1EAC7A90E0",
"+. c #7EE7AAA49D52",
"@. c #663494E3A2CE",
"#. c #6FB09F42A33E",
"$. c #6ADA9798ACC2",
"%. c #70119CA2A04C",
"&. c #7BA79C6EA61F",
"*. c #70979ADEAD84",
"=. c #6CC49A79B468",
"-. c #74569D9FB0C4",
";. c #72DB9B99B89F",
":. c #7CFFA554ACE1",
">. c #7EFFA54CB514",
",. c #6E589985C285",
"<. c #73F29C81C71F",
"1. c #73589B87CBD4",
"2. c #7BEDA1ADC55B",
"3. c #7CBCA2A9CA9D",
"4. c #7DAFA2BAD15F",
"5. c #89F9AFAD8558",
"6. c #83A0B4928636",
"7. c #86D0B8B581DC",
"8. c #8B93BCD08442",
"9. c #809DB1E18D6C",
"0. c #8712A39298F7",
"q. c #878DBAD297AE",
"w. c #87ADB94B9BF1",
"e. c #8AD1BC919B77",
"r. c #9D7FBFAB9241",
"t. c #876BA885AFBF",
"y. c #8222B139A5BD",
"u. c #892EB7E0A5AD",
"i. c #85DDB7A9AC86",
"p. c #8C90BCE0A9B2",
"a. c #9374BABFAEFD",
"s. c #8185A780B648",
"d. c #8453AF64B9F4",
"f. c #84D8B473B4C7",
"g. c #8BF8B464B3D1",
"h. c #8AFAB99EB4C5",
"j. c #8A88B450BDC6",
"k. c #92BEB597BE54",
"l. c #CF9AB98580EC",
"z. c #C2A8BE818F49",
"x. c #CAC9BE948AD7",
"c. c #9A2EC89C865E",
"v. c #94C0C3928C54",
"b. c #9C8CC99E8CE4",
"n. c #9C5DC83597B8",
"m. c #9BBAC89D9062",
"M. c #A3CFCEA284C8",
"N. c #A41EC5D289FE",
"B. c #ABC3CC949DE1",
"V. c #B883C25F9539",
"C. c #BA86C8089E5A",
"Z. c #B170CB659E63",
"A. c #9355C172A188",
"S. c #AF66CFF1A15A",
"D. c #A4B3C917A98A",
"F. c #B161D361A531",
"G. c #BC05DAD6A1CF",
"H. c #B979D91EAA0C",
"J. c #A32BCA16B932",
"K. c #B082D34CB100",
"L. c #BAC0D4DEB3C5",
"P. c #CB31C23C8F74",
"I. c #C8E5C8CC9BFC",
"U. c #C57FD2F0AD9C",
"Y. c #C4C4D5F0B2E8",
"T. c #C0D4D99DB77C",
"R. c #C2EBDBEDBDA7",
"E. c #8BC1A4EDCC50",
"W. c #90E0A80ACC5E",
"Q. c #91FFA956CD95",
"!. c #99D2ADF7CE5A",
"~. c #88AFB4A8C450",
"^. c #8DF2B4B5C85D",
"/. c #94AEB679C0DB",
"(. c #9A5AB8D1C5FD",
"). c #9176B499CCFF",
"_. c #9E1BB0FDCEE0",
"`. c #82BFA5EFD52D",
"'. c #87BEAA3AD82F",
"]. c #8655A844DC94",
"[. c #8ABFABBEE006",
"{. c #8AE2B2B3D11A",
"}. c #8F84B282DC29",
"|. c #9227B53DD4CD",
" X c #9EDEB303D0D3",
".X c #9400B482DBDD",
"XX c #990CB8C4DEDD",
"oX c #A2F8B51BD1AD",
"OX c #A636B96ED72A",
"+X c #ABEEBCD8D6F7",
"@X c #A783BAF4D90E",
"#X c #AA6BBCC2D97F",
"$X c #89E2AB16E188",
"%X c #965DB410E137",
"&X c #9A20B72CE351",
"*X c #9C69B98DE3C8",
"=X c #9ED7BB88E9D0",
"-X c #A1CABC54E6AF",
";X c #9F3FC555C514",
":X c #AD75C79FCFA0",
">X c #A504C554D433",
",X c #A8B7C4C3DF24",
"<X c #B1F7C093D74E",
"1X c #B14DC0C8D9CA",
"2X c #AB38C413E5D2",
"3X c #AD77C4BAE974",
"4X c #B0E3C771EB46",
"5X c #B3CAC9E0ED61",
"6X c #BFA5D146EBFC",
"7X c #C382DDAEC113",
"8X c #CC8CDD71D289",
"9X c #CECDE391CE4A",
"0X c #D79DE539D5C6",
"qX c #D85FE808D835",
"wX c #D602E55DD889",
"eX c #DD28E8FEDFFF",
"rX c #E406EE41DE29",
"tX c #C75CD412E3A7",
"yX c #CBF4D565E30C",
"uX c #CFF9DEE8E815",
"iX c #D592DF94EE6D",
"pX c #D210DF94F1DB",
"aX c #D699E339E36E",
"sX c #DB89E328E5E9",
"dX c #DC8DE941E4EE",
"fX c #D6C0E154ED85",
"gX c #DC20E3B6EE8E",
"hX c #E02FEB78EB59",
"jX c #D474E090F1E2",
"kX c #DD11E5DCF2B2",
"lX c #DF52E8C3F568",
"zX c #E100EBE2E34D",
"xX c #E6A7EFA1EBBA",
"cX c #E8ECF031EC50",
"vX c #E79DF0B1EBF9",
"bX c #E987F0F5ED25",
"nX c #E0C4E856F4E3",
"mX c #E554EBB0F2C2",
"MX c #ED2AEF17F0B6",
"NX c #EE6DF271F317",
"BX c None",
/* pixels */
"BXBXBXBXBXBXBXBXBXBXBXBXBXBXBXBXBXBXBXBXBXBXBXBXBXBXBXBXBXBXBXBX",
"BXBXBXBXBXBXBXBXBXBXBXBXBXBXBXBXBXBXBXBXBXBXBXBXBXBXBXBXBXBXBXBX",
"BXBXBXBX_.!.Q.W.E.E.E.E.E.E.E.E.E.E.E.E.E.E.E.E.E.E.E.Q.BXBXBXBX",
"BXBXBXoX+X<X+X+X#X#X#X#X#X@X@X@X@X@X@X#X#X#X#X@X@X@X@XOX XBXBXBX",
"BXBX_.+XyXsXgXgXgXgXgXgXgXgXgXkXkXkXgXgXgXgXgXgXgXfXfXtXOX!.BXBX",
"BXBX!.<XsXMXmXkXkXgXdXdXzXrXrXrXrXrXrXeXaXaXfXfXfXkXmXfX+XQ.BXBX",
"BXBXQ.+XgXmX6X2X,X>X;XJ.K.H.G.G.G.G.F.D.a.j.).|..X2XkXgX#XQ.BXBX",
"BXBXW.+XgXkX3X}.{.~.i.e.b.M.` ` ` ( / 8...X.=.,.1..XpXgX#XQ.BXBX",
"BXBXE.#XgXlX3X}.~.h.A.m.M._ _ Q Q Q W ~ 7.O.#.=.1.%XpXfX#XQ.BXBX",
"BXBXE.#XgXnX4X|.j.p.n.M.' ) R T Y Y Y E ! 6.o.$.1.%XpXfX#XQ.BXBX",
"BXBXE.#XgXlX4X|.f.e.b.` Q R Y P L L L I U B [ @.<.&XpXfX#XQ.BXBX",
"BXBXE.#XgXlX4X|.f.q.c.` Q Y P L J J H K U N ] } <.&XpXfX#XQ.BXBX",
"BXBXE.@XgXlX4X|.f.q.c.^ T L L J H f f j b 1 ] } <.&XpXfX#XQ.BXBX",
"BXBXE.@XgXlX5X|.f.w.v.^ Y L J f f # # j v 1 ] @.<.*XpXfX#XQ.BXBX",
"BXBXE.@XgXlX5X.Xj.u.v./ E L H # # # # $ n < { $.3.*XpXfX#XQ.BXBX",
"BXBXE.@XgXlX5XXX^.g.e.8.U I j f # # $ > ,  .%.;.4.*XpXiX#XQ.BXBX",
"BXBXE.@XgXlX5X&X|.j.y.9.N m b v j j > ; ] { -.2.`.-XpXiX#XQ.BXBX",
"BXBXE.@XgXlX5X*XXX).d.+.M z z h g s - * { *.2.`.].-XpXiX#XQ.BXBX",
"BXBXE.@XfXlX5X=X=X&X|.t.=   w 9 9 8 q & &.3.'.[.$X-XjXiX#XQ.BXBX",
"BXBXE.@XfXgX:X/./.k.g.0.l 4 7 0 0 6 5 k | :.s.s.>.(.uXfX#XQ.BXBX",
"BXBXE.@XjXwXr.: : : : o 3 2 t C C y r 7 X % % % . 5.8XjX#XQ.BXBX",
"BXBXE.@XjX0XN.c c x x d e i S D A Z p u a @ @ + O V 8XpX#XQ.BXBX",
"BXBXE.@XfXzXT.B.S.S.S.Z.V.z.x.l.F G z.C.Z.B.B.B.B.L.dXiX#XQ.BXBX",
"BXBXE.OXiXxX9X7X7X7X7XR.T.Y.U.I.x.P.U.7X7X7X7X7X7X9XhXiX@XW.BXBX",
"BXBXE.OXiXxX9XR.R.R.R.R.R.R.T.Y.U.U.T.R.7X7X7XR.R.9XhXiX@XW.BXBX",
"BXBXE.@XfXcXqX9X9X9X9X9X9X9X9X9X9X9X9X9X9X9X9X9X9XwXxXiX#XQ.BXBX",
"BXBXW.+XfXNXbXcXvXvXvXvXvXvXvXxXvXvXxXxXxXxXxXxXxXbXNXfX#XQ.BXBX",
"BXBXQ.+XyXgXgXgXgXgXgXgXgXgXgXgXgXgXgXgXgXgXgXgXgXgXfXtX@X!.BXBX",
"BXBXBXoX+X1X+X#X#X#X#X#X#X#X#X#X#X#X#X#X#X#X#X#X#X#X+X+XoXBXBXBX",
"BXBXBXBX!.Q.Q.Q.W.W.W.W.W.W.W.W.W.W.W.W.W.W.W.W.W.Q.Q.!.BXBXBXBX",
"BXBXBXBXBXBXBXBXBXBXBXBXBXBXBXBXBXBXBXBXBXBXBXBXBXBXBXBXBXBXBXBX",
"BXBXBXBXBXBXBXBXBXBXBXBXBXBXBXBXBXBXBXBXBXBXBXBXBXBXBXBXBXBXBXBX"
};
