/* XPM */
static char *shape_group[] = {
/* columns rows colors chars-per-pixel */
"32 32 75 1",
"  c #066206620662",
". c #0D010CE10C9F",
"X c #132E132F1330",
"o c #1914190018D6",
"O c #17E41C1A246B",
"+ c #249827532D98",
"@ c #2BDB2BD02BB6",
"# c #3515356A3639",
"$ c #3A813A813A81",
"% c #2982359D4D65",
"& c #3E7F546F7E6D",
"* c #442F442F442F",
"= c #4D0E4D0E4D0E",
"- c #541D541D541D",
"; c #5D0A5D0A5D0A",
": c #62DD62DD62DD",
"> c #6AD86ADA6AE1",
", c #743374337433",
"< c #474B6768A2D2",
"1 c #48016755A2D0",
"2 c #58927B0BBB78",
"3 c #5D0F86F6D574",
"4 c #5EAF895BD6A8",
"5 c #5C1D8781D8F8",
"6 c #63458CBCD7F6",
"7 c #65428EB3D968",
"8 c #6F1A91D9D268",
"9 c #67279147D962",
"0 c #6BE19435DA6F",
"q c #6FCC998CDC07",
"w c #74669C40DD40",
"e c #7C399F26DE1D",
"r c #77D2A07CDF6B",
"t c #7B8CA114DF15",
"y c #7CA4A440E17C",
"u c #7E9EA82EE27C",
"i c #862D861B85FF",
"p c #869789B38E9C",
"a c #8B418B3D8B37",
"s c #8B9C8E4092D3",
"d c #95DE96049648",
"f c #9A1C9A1C9A1D",
"g c #8F61983BA62B",
"h c #B4E4B4EDB4FC",
"j c #9BB2AB04C29C",
"k c #8120A355DFB6",
"l c #A365B893D89A",
"z c #8526A6C4E0F9",
"x c #8510AACCE3A6",
"c c #8BF8ACB8E32D",
"v c #90E9AFC8E417",
"b c #8D81B349E6C3",
"n c #9476B420E5EA",
"m c #98C7B79EE779",
"M c #976AB893E801",
"N c #9A47B8FDE7E9",
"B c #9188B647EB36",
"V c #9542B9B9EA99",
"C c #9C87BBE6E961",
"Z c #9BA2BDBEF49F",
"A c #A126BF38EAC3",
"S c #9FBEC0BAF5EF",
"D c #AC2BC34AE629",
"F c #A364C19AEC3D",
"G c #A3D2C310F5C8",
"H c #A9D9C70BF530",
"J c #ADAAC9DBF603",
"K c #B026CD7AF8F8",
"L c #B424CE2AF70C",
"P c #B61FCF7DF882",
"I c #B7BCD0C6F84C",
"U c #BBA9D318F803",
"Y c #B7C5D0E1F87F",
"T c #C0FCD679F803",
"R c None",
/* pixels */
"aiiiiiRRRRRRRRRRRRRRRRRRRR>::;;;",
"aaddaiRRRRRRRRRRRRRRRRRRRR:>,,:;",
"ifhhdiRRRRRRRRRRRRRRRRRRRR;,ff>-",
"idhhdpRRRRRRRRRRRRRRRRRRRR;,fd>-",
"iaddsglKKJJJHHHHHGGGGGRRRR-;>>;=",
"iiipgjDLLLLLLJJJJJHHGGRRRRR--===",
"RRRRlDLUUUUUIIPPPPLJGSRRRRRRRRRR",
"RRRRKLUTTUUUUUUUUUYLGZRRRRRRRRRR",
"RRRRJLUTUUUUUUUYYIPKGZRRRRRRRRRR",
"RRRRJLUUUUUUUUYYIIPJGZRRRRRRRRRR",
"RRRRHLIUUUUUUYYIPPPJGZRRRRRRRRRR",
"RRRRHJIUUILJJJHHHHHGZBRRRRRRRRRR",
"RRRRHJPUULFVVVVVBBBbcxxyyyreRRRR",
"RRRRHJPUUJVbbBbbbbbccxxxxyrwRRRR",
"RRRRGHLUUJVbCCCCCNMMMnnnnctwRRRR",
"RRRRGHLYYJVbCFFFAACCCNNmmctqRRRR",
"RRRRGHLYYHBbCFFAACCCNmmnncw0RRRR",
"RRRRGGJLKGBbCAACCCNNmmnnnxw0RRRR",
"RRRRGGGGGZbbNACCCNmmnnnnnzw9RRRR",
"RRRRSZZZZBxcMCCCNmmnnnnnczq7RRRR",
"RRRRRRRRRRxcMCCNmmnnnvccck06RRRR",
"RRRRRRRRRRuxnNNmnnnnvcccck06RRRR",
"RRRRRRRRRRyxnmmnnnncccccct94RRRR",
"RRRRRRRRRRyxnmnnnnccccccze94RRRR",
"RRRRRRRRRRrubnnnnvcccczzze75RRRR",
"RRRRRRRRRRwtzccxzzzktteee821RRRR",
"-==**RRRRRwwwwwwwq00997772&%O...",
"=-:;=*RRRRwwq009976643355<%+#@o.",
"*:aa;$RRRRRRRRRRRRRRRRRRRRO#>>@ ",
"*;ai-$RRRRRRRRRRRRRRRRRRRR.@>>@ ",
"*=--*$RRRRRRRRRRRRRRRRRRRR.o@@X ",
"*$$###RRRRRRRRRRRRRRRRRRRR..    "
};
