/* XPM */
static char * shape_triangle_xpm[] = {
"32 32 27 1",
" 	c None",
".	c #7DA5E1",
"+	c #8CB3E6",
"@	c #7FA8E3",
"#	c #76A0DE",
"$	c #9DBCE9",
"%	c #94B4E5",
"&	c #99B9E8",
"*	c #739BDD",
"=	c #98B7E7",
"-	c #8CACE2",
";	c #7DA1DF",
">	c #7A9DDD",
",	c #6E98DC",
"'	c #6B93DA",
")	c #85ABE3",
"!	c #85A6E0",
"~	c #90AFE4",
"{	c #7097DB",
"]	c #6690D8",
"^	c #648ED8",
"/	c #84A5DF",
"(	c #638CD7",
"_	c #5F88D5",
":	c #688FD7",
"<	c #5A84D4",
"[	c #688FD8",
"                                ",
"                                ",
"                                ",
"                                ",
"                           .    ",
"                          ..    ",
"                         +@#    ",
"                        $%@#    ",
"                       &&+.*    ",
"                      &==-;*    ",
"                     ===%-;*    ",
"                    ==%%%->,    ",
"                   =%%%%%-*'    ",
"                  =%%%%%%)*'    ",
"                 %%%%%%%%!*'    ",
"                %%%%%%~--!{]    ",
"               %%%%%~----!{^    ",
"              %%%%~~-----/'(    ",
"             %%%%--------/'(    ",
"            %%%%---------;'(    ",
"           %%~--------!!!>]_    ",
"          %%~--------!!!/>:_    ",
"         %~--------!!!///>:<    ",
"        %~-------!!!!!///>^<    ",
"       %~-------!!!!!////>(<    ",
"      ;!!!!//;;;;>>>>>>>>'(<    ",
"     ,{{{,,'''''][:^^(((((<<    ",
"    '']]]^^((((___<<<<<<<<<<    ",
"                                ",
"                                ",
"                                ",
"                                "};
