/* XPM */
static char *shape_flip_horizontal[] = {
/* columns rows colors chars-per-pixel */
"32 32 188 2",
"   c #580B893AD025",
".  c #593F8A61D0C4",
"X  c #5A968B54D133",
"o  c #5A048AC3D151",
"O  c #5B148B5BD1BF",
"+  c #5BAD8C3FD1BD",
"@  c #5C708C5BD206",
"#  c #5DEC8DB3D30A",
"$  c #5EDE8F38D413",
"%  c #61258F60D363",
"&  c #606890ADD4ED",
"*  c #63DF90ECD466",
"=  c #62B591EBD536",
"-  c #626091EED585",
";  c #6381928DD5A8",
":  c #64E4919AD4BF",
">  c #65859289D4DC",
",  c #660C92BCD55F",
"<  c #652093C1D67A",
"1  c #64A89392D77E",
"2  c #6759944ED647",
"3  c #6700949BD69D",
"4  c #66A9953BD7DC",
"5  c #688C9529D657",
"6  c #69E59693D761",
"7  c #6A979724D81B",
"8  c #6E019775D75E",
"9  c #681396B1D969",
"0  c #6ABC9755D8B6",
"q  c #69C19873DAB6",
"w  c #6BB49A76DBB6",
"e  c #6E8F99EDD9D2",
"r  c #6DA59C31DCB5",
"t  c #6F8B9D9DDDB7",
"y  c #70459B76DAF4",
"u  c #74CD9BAFD98A",
"i  c #73C69C3FD9E8",
"p  c #737E9D07DAF6",
"a  c #72D09DF4DC11",
"s  c #75CE9C89D9E2",
"d  c #76349D22DA1B",
"f  c #74699D7EDACC",
"g  c #77C89E31DA8D",
"h  c #77E59F2ADB2B",
"j  c #72D79DC3DC95",
"k  c #714F9F21DEC1",
"l  c #757BA007DD91",
"z  c #73FC9FF1DE6C",
"x  c #72FAA0BCDFCF",
"c  c #7B6EA1E9DC81",
"v  c #7863A24CDEA2",
"b  c #7C5CA1B2DC79",
"n  c #7E90A262DC9D",
"m  c #7F35A2AEDC95",
"M  c #7F51A3D1DD1E",
"N  c #7A98A464E015",
"B  c #7B9FA4C2DFC1",
"V  c #7F8FA43ADDF7",
"C  c #7F92A6CCDFD4",
"Z  c #7588A253E0CC",
"A  c #77B1A383E12D",
"S  c #7732A34CE16D",
"D  c #7975A4B4E1EC",
"F  c #7BF4A676E1D9",
"G  c #78D0A4CDE282",
"H  c #7A6DA5B8E316",
"J  c #7AC5A677E38D",
"K  c #7B86A6CEE3E7",
"L  c #7D08A612E0C8",
"P  c #7C67A655E1AE",
"I  c #7D23A6EAE192",
"U  c #7F84A746E0A5",
"Y  c #7C4BA79AE445",
"T  c #7CDDA812E497",
"R  c #7D92A8BCE4EC",
"E  c #80A8A39DDCE3",
"W  c #825CA571DD59",
"Q  c #82D0A528DD92",
"!  c #8327A69BDDF1",
"~  c #80E8A68ADF27",
"^  c #8282A6A2DED9",
"/  c #8508A700DDF5",
"(  c #86DEA841DEEA",
")  c #86DBA988E022",
"_  c #8893A9DCDF32",
"`  c #8ABFAB20E01F",
"'  c #8607AB24E199",
"]  c #873CAD3BE34B",
"[  c #8A01AD14E1E8",
"{  c #8B83AC91E105",
"}  c #8C01AD6BE19C",
"|  c #8873ADA1E308",
" . c #8EE1AE05E14A",
".. c #8EA9B14CE3FA",
"X. c #9082B067E2CD",
"o. c #908CB217E3D9",
"O. c #91ACB1FEE3B3",
"+. c #92B0B0E5E277",
"@. c #9586B3C5E3D2",
"#. c #858EB2A6F420",
"$. c #85E2B2BCF493",
"%. c #865FB360F4AD",
"&. c #8749B420F528",
"*. c #8790B45CF4CF",
"=. c #88C9B4F5F4EE",
"-. c #89FBB5F3F551",
";. c #8A5FB599F4C5",
":. c #8BFEB68FF515",
">. c #8B79B6F1F58D",
",. c #8CF1B7E9F60F",
"<. c #8DA4B7F9F5AE",
"1. c #8EA7B8DAF64B",
"2. c #8F5FB8D9F5C2",
"3. c #8FA5B956F5F4",
"4. c #90B9B9FBF608",
"5. c #915FBA1FF5FF",
"6. c #9214BA84F602",
"7. c #9315BADEF62F",
"8. c #93FBBBB3F62A",
"9. c #92C2BB1DF67E",
"0. c #9432BBB7F62B",
"q. c #957ABC36F61A",
"w. c #957CBC89F625",
"e. c #96DBBD08F627",
"r. c #9735BDA1F662",
"t. c #9510BCC8F706",
"y. c #9616BDEAF6E5",
"u. c #9778BE8CF794",
"i. c #9870BE35F69B",
"p. c #98E2BECCF6E9",
"a. c #9B10C013F72D",
"s. c #99F2C05AF821",
"d. c #9C10C162F761",
"f. c #9C05C1A6F80A",
"g. c #9D03C104F719",
"h. c #9DA1C169F72B",
"j. c #9CFCC254F81B",
"k. c #9DB4C28CF7ED",
"l. c #9EE2C246F74B",
"z. c #9E77C272F791",
"x. c #9FB3C3C0F7FC",
"c. c #9C3CC20FF8AB",
"v. c #9DF2C325F8B5",
"b. c #9E91C384F8E3",
"n. c #9FE0C45CF900",
"m. c #A145C376F7B2",
"M. c #A116C4CFF830",
"N. c #A348C62DF870",
"B. c #A45DC657F81B",
"V. c #A5EDC731F84A",
"C. c #A768C6ECF809",
"Z. c #A093C4BFF936",
"A. c #A1AFC54DF8FF",
"S. c #A293C5DDF92E",
"D. c #A3FBC65BF890",
"F. c #A60DC7F9F8A5",
"G. c #A8BDC934F8E3",
"H. c #ABAEC9B8F8C9",
"J. c #AA89CA77F8EE",
"K. c #ACC8CA9CF8CB",
"L. c #AD86CAAFF8BE",
"P. c #AD59CBACF8DE",
"I. c #AEACCB3CF8CA",
"U. c #AEF3CB99F8F4",
"Y. c #AFD9CC38F906",
"T. c #ADCFCC76F94A",
"R. c #AEC3CCC5F93F",
"E. c #B0E9CD0CF97C",
"W. c #B1E7CE6EF967",
"Q. c #B2B6CEDEF964",
"!. c #B3D4CED9F9C5",
"~. c #B402CFE1F9BF",
"^. c #B4ADCFBAF989",
"/. c #B686D0FBF9CB",
"(. c #B75CD0CFF9C7",
"). c #B73FD197F9A1",
"_. c #B86ED23DFA2A",
"`. c #B962D1F0FA19",
"'. c #BA15D2B6F9FD",
"]. c #BA3DD286FA2B",
"[. c #BB4FD30EFA29",
"{. c #BB66D3D6FA4D",
"}. c #BC6FD401FA37",
"|. c #BCBDD49CFA46",
" X c #BD52D49AFAB5",
".X c #BE70D566FADA",
"XX c #BF6DD602FAB4",
"oX c None",
/* pixels */
"oXoXoXoXoXoXoXoXoXoXoXoXoXoXoXoXoXoXoXoXoXoXoXoXoXoXoXoXoXoXoXoX",
"oXoXoXoXoXoXoXoXoXoXoXoXoXoXoXoXoXoXoXoXoXoXoXoXoXoXoXoXoXoXoXoX",
"oXoXoXoXoXoXoXoXoXoXoXoXoXoXoXoXoXoXoXoXoXoXoXoXoXoXoXoXoXoXoXoX",
"oXoXoXoXoXoXoXoXoXoXoXoXoXoXoXoXoXoXoXoXoXoXoXoXoXoXoXoXoXoXoXoX",
"oXoXoXoXoXoXoXoXoXoXoXoXoXoXoXoXoXoXoXoXoXoXoXoXoXoXoXoXoXoXoXoX",
"oXoXoXoXoXoXoXoXoXoXoXoXoXoXoXoXoXoXoXoXoXoXoXoXoXoXoXoXoXoXoXoX",
"oXoXoXoXoXoXoXoXoXoXoXoXS.oXoXoXoXR oXoXoXoXoXoXoXoXoXoXoXoXoXoX",
"oXoXoXoXoXoXoXoXoXoXoXoXA.S.oXoXY T oXoXoXoXoXoXoXoXoXoXoXoXoXoX",
"oXoXoXoXoXoXoXoXoXoXoXZ.n.Z.oXoXK K J oXoXoXoXoXoXoXoXoXoXoXoXoX",
"oXoXoXoXoXoXoXoXoXoXoXb.v.b.oXoXH H G oXoXoXoXoXoXoXoXoXoXoXoXoX",
"oXoXoXoXoXoXoXoXoXoXk.j.f.c.oXoXD D S Z oXoXoXoXoXoXoXoXoXoXoXoX",
"oXoXoXoXoXoXoXoXoXoXN.M.f.s.oXoXA D P P oXoXoXoXoXoXoXoXoXoXoXoX",
"oXoXoXoXoXoXoXoXoXD.T.J.k.u.oXoXZ F ] | N oXoXoXoXoXoXoXoXoXoXoX",
"oXoXoXoXoXoXoXoXx.G./.W.z.t.oXoXx I ..o.U z oXoXoXoXoXoXoXoXoXoX",
"oXoXoXoXoXoXoXoXF.R.|./.l.9.oXoXk L O.@.' B oXoXoXoXoXoXoXoXoXoX",
"oXoXoXoXoXoXoXM.J.~.XX(.h.4.oXoXt B X.@.[ C a oXoXoXoXoXoXoXoXoX",
"oXoXoXoXoXoXy.x.R._..X!.a.1.oXoXr v { +.} ~ y 1 oXoXoXoXoXoXoXoX",
"oXoXoXoXoXoXd.B.Q.{. XE.p.,.oXoXw l )  .{ ^ p 0 oXoXoXoXoXoXoXoX",
"oXoXoXoXoXz.V.P.).|.}.U.r.>.oXoXq j ^ ` _ ! c f 6 oXoXoXoXoXoXoX",
"oXoXoXoXoXz.K.^.'.}.[.L.w.-.oXoX9 y V ( / W M h 5 oXoXoXoXoXoXoX",
"oXoXoXoX6.g.Y.`.].].`.H.0.=.oXoX4 e b Q E m n d > + oXoXoXoXoXoX",
"oXoXoXoX4.i.C.I.K.H.H.m.2.&.oXoX< 7 i g s u u 8 % X oXoXoXoXoXoX",
"oXoXoX4.3.5.q.e.w.8.7.2.=.%.oXoX; < 3 2 , : * % @ .   oXoXoXoXoX",
"oXoXoX4.2.<.:.;.=.*.%.$.#.%.oXoX= - & $ # @ O o . .   oXoXoXoXoX",
"oXoXoXoXoXoXoXoXoXoXoXoXoXoXoXoXoXoXoXoXoXoXoXoXoXoXoXoXoXoXoXoX",
"oXoXoXoXoXoXoXoXoXoXoXoXoXoXoXoXoXoXoXoXoXoXoXoXoXoXoXoXoXoXoXoX",
"oXoXoXoXoXoXoXoXoXoXoXoXoXoXoXoXoXoXoXoXoXoXoXoXoXoXoXoXoXoXoXoX",
"oXoXoXoXoXoXoXoXoXoXoXoXoXoXoXoXoXoXoXoXoXoXoXoXoXoXoXoXoXoXoXoX",
"oXoXoXoXoXoXoXoXoXoXoXoXoXoXoXoXoXoXoXoXoXoXoXoXoXoXoXoXoXoXoXoX",
"oXoXoXoXoXoXoXoXoXoXoXoXoXoXoXoXoXoXoXoXoXoXoXoXoXoXoXoXoXoXoXoX",
"oXoXoXoXoXoXoXoXoXoXoXoXoXoXoXoXoXoXoXoXoXoXoXoXoXoXoXoXoXoXoXoX",
"oXoXoXoXoXoXoXoXoXoXoXoXoXoXoXoXoXoXoXoXoXoXoXoXoXoXoXoXoXoXoXoX"
};
